; NON-PLATED HOLES START AT T1
; THROUGH (PLATED) HOLES START AT T100
M48
INCH
T1C0.065278
T2C0.086614
T3C0.158908
T100C0.038000
T101C0.015748
T102C0.036972
%
T1
X022286Y026069
X037286Y026069
X025793Y018569
X029786Y026069
X037286Y018569
X037286Y003569
X022286Y011069
X018293Y018569
X033293Y011069
X018293Y003569
X029786Y011069
X025793Y011069
X022286Y003569
X033293Y018569
X033293Y003569
X037286Y011069
X025793Y026069
X029786Y018569
X018293Y011069
X033293Y026069
X022286Y018569
X018293Y026069
X029786Y003569
X025793Y003569
T2
X000794Y000820
X039294Y000820
X000794Y030570
X039294Y030570
T3
X027793Y011069
X027793Y026069
X020293Y003569
X035293Y011069
X035293Y018569
X020293Y018569
X027793Y003569
X020293Y026069
X027793Y018569
X035293Y003569
X020293Y011069
X035293Y026069
T100
X002794Y012570
X011799Y009570
X002794Y003570
X011799Y020571
X011799Y016571
X011799Y012570
X011799Y006570
X002794Y013570
X011799Y011570
X002794Y016571
X002794Y008570
X002794Y006570
X002794Y010570
X011799Y010570
X011798Y013570
X011799Y014570
X011799Y001570
X002794Y019571
X011799Y018571
X011799Y000570
X002794Y001570
X002794Y000570
X002794Y004570
X011799Y003570
X002794Y005570
X011799Y007570
X002794Y017571
X002794Y014570
X002794Y007570
X002794Y009570
X002794Y018571
X002794Y011570
X011799Y004570
X011799Y005570
X002794Y015571
X002794Y020571
X011799Y008570
X002794Y002570
X011799Y002570
X011799Y015571
X011798Y019571
X011799Y017571
T101
X024534Y011566
X017036Y012571
X006044Y020570
X007544Y020570
X033297Y014820
X024534Y012571
X032052Y026572
X025801Y014819
X024532Y027572
X032057Y012571
X015794Y014070
X032057Y011566
X032043Y019059
X017056Y026554
X024553Y020078
X032043Y020078
X017039Y019059
X017036Y011566
X024553Y019059
X017039Y020078
X007294Y018820
X017048Y027570
X024532Y026556
X032052Y027569
T102
X033794Y012070
X021290Y028068
X018794Y004570
X021290Y005568
X036290Y013068
X028790Y005568
X036290Y005568
X021290Y020568
X026294Y012070
X026294Y019570
X021290Y013068
X033794Y027070
X018794Y012070
X036290Y020568
X018794Y027070
X028790Y020568
X033794Y019570
X028790Y028068
X026294Y004570
X026294Y027070
X018794Y019570
X028790Y013068
X033794Y004570
X036290Y028068
T00
M30
