G04 MADE WITH FRITZING*
G04 WWW.FRITZING.ORG*
G04 DOUBLE SIDED*
G04 HOLES PLATED*
G04 CONTOUR ON CENTER OF CONTOUR VECTOR*
%ASAXBY*%
%FSLAX23Y23*%
%MOIN*%
%OFA0B0*%
%SFA1.0B1.0*%
%ADD10C,0.158908*%
%ADD11C,0.065278*%
%ADD12R,0.069685X0.057874*%
%ADD13R,0.013780X0.055118*%
%ADD14R,0.070866X0.074803*%
%ADD15R,0.001000X0.001000*%
%LNPASTEMASK1*%
G90*
G70*
G54D10*
X2029Y2607D03*
G54D11*
X1829Y2607D03*
X2229Y2607D03*
G54D10*
X2779Y2607D03*
G54D11*
X2579Y2607D03*
X2979Y2607D03*
G54D10*
X3529Y2607D03*
G54D11*
X3329Y2607D03*
X3729Y2607D03*
G54D10*
X2029Y1857D03*
G54D11*
X1829Y1857D03*
X2229Y1857D03*
G54D10*
X2779Y1857D03*
G54D11*
X2579Y1857D03*
X2979Y1857D03*
G54D10*
X3529Y1857D03*
G54D11*
X3329Y1857D03*
X3729Y1857D03*
G54D10*
X2029Y1107D03*
G54D11*
X1829Y1107D03*
X2229Y1107D03*
G54D10*
X2779Y1107D03*
G54D11*
X2579Y1107D03*
X2979Y1107D03*
G54D10*
X3529Y1107D03*
G54D11*
X3329Y1107D03*
X3729Y1107D03*
G54D10*
X2029Y357D03*
G54D11*
X1829Y357D03*
X2229Y357D03*
G54D10*
X2779Y357D03*
G54D11*
X2579Y357D03*
X2979Y357D03*
G54D10*
X3529Y357D03*
G54D11*
X3329Y357D03*
X3729Y357D03*
G54D12*
X3618Y732D03*
X3429Y732D03*
X2868Y732D03*
X2679Y732D03*
X2118Y732D03*
X1929Y732D03*
X3618Y1482D03*
X3429Y1482D03*
X2868Y1482D03*
X2679Y1482D03*
X2118Y1482D03*
X1929Y1482D03*
X3618Y2232D03*
X3429Y2232D03*
X2868Y2232D03*
X2679Y2232D03*
X2118Y2232D03*
X1929Y2232D03*
X3593Y2982D03*
X3404Y2982D03*
X2868Y2982D03*
X2679Y2982D03*
X2118Y2982D03*
X1929Y2982D03*
G54D13*
X704Y2982D03*
X602Y2982D03*
X679Y2982D03*
X653Y2982D03*
X628Y2982D03*
G54D14*
X811Y3086D03*
X496Y3086D03*
G54D15*
D02*
G04 End of PasteMask1*
M02*