; NON-PLATED HOLES START AT T1
; THROUGH (PLATED) HOLES START AT T100
M48
INCH
T1C0.065278
T2C0.158908
T3C0.015748
T4C0.125984
T100C0.015748
T101C0.036972
T102C0.038000
%
T1
X035713Y026043
X039706Y011043
X020713Y003543
X039706Y018543
X024706Y026043
X024706Y011043
X035713Y018543
X024706Y018543
X039706Y026043
X039706Y003543
X028213Y018543
X032206Y003543
X024706Y003543
X020713Y026043
X028213Y011043
X035713Y003543
X032206Y018543
X035713Y011043
X032206Y026043
X028213Y026043
X028213Y003543
X020713Y011043
X032206Y011043
X020713Y018543
T2
X037712Y003543
X022712Y011043
X022712Y026043
X030212Y018543
X022712Y018543
X030212Y026043
X037712Y018543
X030212Y003543
X037712Y011043
X030212Y011043
X037712Y026043
X022712Y003543
T3
X011966Y015544
X015468Y015540
X013462Y015540
X007717Y022793
X015211Y010293
X007220Y024301
X014970Y009796
X013462Y014546
X011966Y014545
X012708Y025296
X007958Y024542
X006466Y024045
X015211Y015043
X015468Y010791
X005712Y023547
X013462Y018541
X011460Y025549
X011720Y017788
X006963Y022793
X013462Y016551
X007717Y019295
X013211Y023551
X011460Y025042
X011966Y024796
X006209Y022793
X011460Y026041
X014970Y014546
X012965Y024796
X006209Y019038
X013462Y017546
X012467Y025794
X011966Y018787
X011966Y016789
X005471Y022793
T4
X041714Y031793
X000964Y001043
X041714Y001043
X000964Y031793
T100
X034476Y011540
X018213Y014044
X034463Y019033
X026951Y027546
X009714Y018793
X026951Y026530
X019456Y012544
X026973Y020052
X034463Y020052
X019459Y019033
X028220Y014792
X026973Y019033
X035717Y014794
X026953Y011540
X034471Y026546
X019475Y026528
X008464Y020543
X026953Y012544
X034476Y012544
X034471Y027543
X019459Y020052
X019468Y027544
X009964Y020543
X019456Y011540
T101
X038710Y013042
X038710Y028042
X028714Y027043
X021214Y012043
X021214Y019543
X031210Y028042
X023710Y005542
X036214Y012043
X031210Y013042
X031210Y005542
X023710Y020542
X023710Y013042
X028714Y019543
X028714Y004543
X031210Y020542
X036214Y019543
X023710Y028042
X036214Y004543
X038710Y020542
X021214Y004543
X028714Y012043
X021214Y027043
X036214Y027043
X038710Y005542
T102
X014218Y006544
X014218Y010544
X002964Y017043
X002964Y029043
X002964Y005043
X005214Y001544
X005214Y019545
X002964Y002043
X005214Y012544
X002964Y032043
X002964Y015043
X014218Y002544
X005214Y017545
X005214Y010544
X002964Y021043
X014218Y012544
X005214Y003544
X002964Y016043
X005214Y011544
X005214Y004544
X002964Y014043
X014218Y018545
X002964Y012043
X014218Y009544
X002964Y007043
X005214Y008544
X014218Y005544
X002964Y003043
X005214Y016545
X002964Y024043
X014218Y004544
X002964Y006043
X005214Y020545
X005214Y005544
X005214Y013544
X002964Y028043
X002964Y011043
X005214Y018545
X002964Y009043
X005214Y014544
X002964Y001043
X014218Y003544
X002964Y022043
X002964Y026043
X014218Y001544
X005214Y015545
X002964Y023043
X002964Y013043
X002964Y008043
X002964Y010043
X002964Y004043
X014218Y014544
X005214Y000544
X002964Y019043
X014218Y015545
X002964Y030043
X002964Y031043
X002964Y027043
X014218Y008544
X005214Y006544
X005214Y002544
X014218Y019545
X014218Y016545
X014218Y000544
X014218Y020545
X014218Y007544
X005214Y007544
X002964Y020043
X002964Y018043
X014218Y011544
X005214Y009544
X002964Y025043
X014218Y013544
X014218Y017545
T00
M30
