G04 MADE WITH FRITZING*
G04 WWW.FRITZING.ORG*
G04 DOUBLE SIDED*
G04 HOLES PLATED*
G04 CONTOUR ON CENTER OF CONTOUR VECTOR*
%ASAXBY*%
%FSLAX23Y23*%
%MOIN*%
%OFA0B0*%
%SFA1.0B1.0*%
%ADD10C,0.015748*%
%ADD11C,0.078000*%
%ADD12C,0.039370*%
%ADD13C,0.052000*%
%ADD14C,0.078639*%
%ADD15C,0.158908*%
%ADD16C,0.065278*%
%ADD17R,0.069685X0.057874*%
%ADD18R,0.013780X0.055118*%
%ADD19R,0.070866X0.074803*%
%ADD20C,0.012000*%
%ADD21C,0.024000*%
%ADD22C,0.016000*%
%ADD23R,0.001000X0.001000*%
%LNCOPPER1*%
G90*
G70*
G54D10*
X1547Y1554D03*
X1521Y1504D03*
X1497Y1455D03*
X1547Y1079D03*
X1521Y1029D03*
X1497Y980D03*
X1346Y1554D03*
X1346Y1455D03*
X1346Y1655D03*
X1197Y1455D03*
X1197Y1554D03*
X1197Y1679D03*
X1172Y1779D03*
X1346Y1755D03*
X1346Y1854D03*
X1197Y1879D03*
X621Y1904D03*
X772Y1930D03*
X772Y2279D03*
X696Y2279D03*
X621Y2279D03*
X547Y2279D03*
X796Y2454D03*
X722Y2430D03*
X647Y2405D03*
X571Y2355D03*
X1321Y2355D03*
X1197Y2480D03*
X1297Y2480D03*
X1146Y2504D03*
X1146Y2555D03*
X1271Y2530D03*
X1247Y2579D03*
X1146Y2604D03*
G54D11*
X296Y104D03*
X296Y204D03*
X296Y304D03*
X296Y404D03*
X296Y504D03*
X296Y604D03*
X296Y704D03*
X296Y804D03*
X296Y904D03*
X296Y1004D03*
X296Y1104D03*
X296Y1204D03*
X296Y1304D03*
X296Y1404D03*
X296Y1504D03*
X296Y1604D03*
X296Y1704D03*
X296Y1804D03*
X296Y1904D03*
X296Y2004D03*
X296Y2104D03*
X296Y2204D03*
X296Y2304D03*
X296Y2404D03*
X296Y2504D03*
X296Y2604D03*
X296Y2704D03*
X296Y2804D03*
X296Y2904D03*
X296Y3004D03*
X296Y3104D03*
X296Y3204D03*
G54D12*
X1947Y2754D03*
X1948Y2653D03*
X2695Y2653D03*
X2695Y2755D03*
X3447Y2655D03*
X3447Y2754D03*
X1946Y1903D03*
X2697Y1903D03*
X3446Y1903D03*
X3446Y2005D03*
X2697Y2005D03*
X1946Y2005D03*
X3448Y1254D03*
X3448Y1154D03*
X2695Y1254D03*
X2695Y1154D03*
X1946Y1254D03*
X1946Y1154D03*
X1821Y1404D03*
X2822Y1479D03*
X3572Y1479D03*
G54D13*
X521Y2055D03*
X521Y1955D03*
X521Y1855D03*
X521Y1755D03*
X521Y1655D03*
X521Y1555D03*
X521Y1454D03*
X521Y1354D03*
X521Y1254D03*
X521Y1154D03*
X521Y1054D03*
X521Y954D03*
X521Y854D03*
X521Y754D03*
X521Y654D03*
X521Y554D03*
X521Y454D03*
X521Y354D03*
X521Y254D03*
X521Y154D03*
X521Y54D03*
X1422Y54D03*
X1422Y154D03*
X1422Y254D03*
X1422Y354D03*
X1422Y454D03*
X1422Y554D03*
X1422Y654D03*
X1422Y754D03*
X1422Y854D03*
X1422Y954D03*
X1422Y1054D03*
X1422Y1154D03*
X1422Y1254D03*
X1422Y1354D03*
X1422Y1454D03*
X1422Y1555D03*
X1422Y1655D03*
X1422Y1755D03*
X1422Y1855D03*
X1422Y1955D03*
X1422Y2055D03*
G54D14*
X2121Y2704D03*
X2371Y2804D03*
G54D15*
X2271Y2604D03*
G54D16*
X2071Y2604D03*
X2471Y2604D03*
G54D14*
X2871Y2704D03*
X3121Y2804D03*
G54D15*
X3021Y2604D03*
G54D16*
X2821Y2604D03*
X3221Y2604D03*
G54D14*
X3621Y2704D03*
X3871Y2804D03*
G54D15*
X3771Y2604D03*
G54D16*
X3571Y2604D03*
X3971Y2604D03*
G54D14*
X2121Y1954D03*
X2371Y2054D03*
G54D15*
X2271Y1854D03*
G54D16*
X2071Y1854D03*
X2471Y1854D03*
G54D14*
X2871Y1954D03*
X3121Y2054D03*
G54D15*
X3021Y1854D03*
G54D16*
X2821Y1854D03*
X3221Y1854D03*
G54D14*
X3621Y1954D03*
X3871Y2054D03*
G54D15*
X3771Y1854D03*
G54D16*
X3571Y1854D03*
X3971Y1854D03*
G54D14*
X2121Y1204D03*
X2371Y1304D03*
G54D15*
X2271Y1104D03*
G54D16*
X2071Y1104D03*
X2471Y1104D03*
G54D14*
X2871Y1204D03*
X3121Y1304D03*
G54D15*
X3021Y1104D03*
G54D16*
X2821Y1104D03*
X3221Y1104D03*
G54D14*
X3621Y1204D03*
X3871Y1304D03*
G54D15*
X3771Y1104D03*
G54D16*
X3571Y1104D03*
X3971Y1104D03*
G54D14*
X2121Y454D03*
X2371Y554D03*
G54D15*
X2271Y354D03*
G54D16*
X2071Y354D03*
X2471Y354D03*
G54D14*
X2871Y454D03*
X3121Y554D03*
G54D15*
X3021Y354D03*
G54D16*
X2821Y354D03*
X3221Y354D03*
G54D14*
X3621Y454D03*
X3871Y554D03*
G54D15*
X3771Y354D03*
G54D16*
X3571Y354D03*
X3971Y354D03*
G54D12*
X996Y2054D03*
X846Y2054D03*
X971Y1879D03*
G54D17*
X3860Y729D03*
X3671Y729D03*
X3110Y729D03*
X2921Y729D03*
X2360Y729D03*
X2171Y729D03*
X3860Y1479D03*
X3671Y1479D03*
X3110Y1479D03*
X2921Y1479D03*
X2360Y1479D03*
X2171Y1479D03*
X3860Y2229D03*
X3671Y2229D03*
X3110Y2229D03*
X2921Y2229D03*
X2360Y2229D03*
X2171Y2229D03*
X3835Y2979D03*
X3646Y2979D03*
X3110Y2979D03*
X2921Y2979D03*
X2360Y2979D03*
X2171Y2979D03*
G54D18*
X947Y3129D03*
X845Y3129D03*
X921Y3129D03*
X896Y3129D03*
X870Y3129D03*
G54D19*
X1053Y3234D03*
X738Y3234D03*
G54D20*
X1497Y1447D02*
X1497Y988D01*
D02*
X1521Y1496D02*
X1521Y1037D01*
D02*
X1547Y1546D02*
X1547Y1087D01*
D02*
X1205Y1455D02*
X1338Y1455D01*
D02*
X772Y2430D02*
X790Y2449D01*
D02*
X629Y1904D02*
X746Y1904D01*
D02*
X1221Y1654D02*
X1338Y1655D01*
D02*
X1202Y1673D02*
X1221Y1654D01*
D02*
X1205Y1554D02*
X1338Y1554D01*
D02*
X746Y1904D02*
X766Y1924D01*
D02*
X1178Y1773D02*
X1197Y1754D01*
D02*
X1202Y1873D02*
X1221Y1854D01*
D02*
X1197Y1754D02*
X1338Y1755D01*
D02*
X1221Y1854D02*
X1338Y1854D01*
D02*
X1221Y2380D02*
X1246Y2355D01*
D02*
X1246Y2355D02*
X1313Y2355D01*
D02*
X1221Y2429D02*
X1221Y2380D01*
D02*
X1197Y2455D02*
X1221Y2429D01*
D02*
X1154Y2504D02*
X1271Y2504D01*
D02*
X547Y2287D02*
X547Y2329D01*
D02*
X621Y2287D02*
X621Y2379D01*
D02*
X696Y2287D02*
X696Y2405D01*
D02*
X772Y2287D02*
X772Y2430D01*
D02*
X621Y2379D02*
X641Y2399D01*
D02*
X696Y2405D02*
X716Y2425D01*
D02*
X547Y2329D02*
X566Y2349D01*
D02*
X1197Y2472D02*
X1197Y2455D01*
D02*
X1154Y2604D02*
X1221Y2605D01*
D02*
X1154Y2555D02*
X1247Y2554D01*
D02*
X1271Y2504D02*
X1291Y2485D01*
D02*
X1247Y2554D02*
X1265Y2535D01*
D02*
X1221Y2605D02*
X1241Y2585D01*
D02*
X197Y1779D02*
X197Y54D01*
D02*
X197Y1829D02*
X197Y3080D01*
D02*
X447Y54D02*
X502Y54D01*
D02*
X422Y29D02*
X447Y54D01*
D02*
X197Y54D02*
X222Y29D01*
D02*
X197Y3080D02*
X222Y3105D01*
D02*
X222Y29D02*
X422Y29D01*
D02*
X222Y1804D02*
X197Y1779D01*
D02*
X222Y3105D02*
X277Y3104D01*
D02*
X222Y1804D02*
X197Y1829D01*
D02*
X277Y1804D02*
X222Y1804D01*
D02*
X446Y2029D02*
X472Y2055D01*
D02*
X422Y1705D02*
X446Y1729D01*
D02*
X446Y1729D02*
X446Y2029D01*
D02*
X315Y1704D02*
X422Y1705D01*
D02*
X472Y2055D02*
X502Y2055D01*
G54D21*
D02*
X1947Y2879D02*
X1995Y2930D01*
D02*
X1995Y2930D02*
X2070Y2930D01*
D02*
X2070Y2930D02*
X2121Y2978D01*
D02*
X2121Y2978D02*
X2142Y2979D01*
D02*
X1947Y2762D02*
X1947Y2879D01*
D02*
X2362Y2956D02*
X2370Y2823D01*
D02*
X3867Y2822D02*
X3840Y2956D01*
D02*
X3112Y2956D02*
X3120Y2823D01*
D02*
X2696Y2879D02*
X2695Y2763D01*
D02*
X2746Y2929D02*
X2696Y2879D01*
D02*
X2822Y2929D02*
X2746Y2929D01*
D02*
X2892Y2979D02*
X2870Y2979D01*
D02*
X2870Y2979D02*
X2822Y2929D01*
D02*
X2870Y2279D02*
X2746Y2279D01*
D02*
X2746Y2279D02*
X2696Y2329D01*
D02*
X2696Y2329D02*
X2695Y2645D01*
D02*
X2897Y2253D02*
X2870Y2279D01*
D02*
X2122Y2279D02*
X2148Y2253D01*
D02*
X1997Y2279D02*
X2122Y2279D01*
D02*
X1947Y2329D02*
X1997Y2279D01*
D02*
X1948Y2645D02*
X1947Y2329D01*
D02*
X2362Y1456D02*
X2370Y1323D01*
D02*
X3112Y1456D02*
X3120Y1323D01*
D02*
X3862Y1456D02*
X3870Y1323D01*
D02*
X2362Y2206D02*
X2370Y2073D01*
D02*
X3112Y2206D02*
X3120Y2073D01*
D02*
X3862Y2206D02*
X3870Y2073D01*
D02*
X3597Y2980D02*
X3617Y2980D01*
D02*
X3546Y2929D02*
X3597Y2980D01*
D02*
X3497Y2929D02*
X3546Y2929D01*
D02*
X3446Y2880D02*
X3497Y2929D01*
D02*
X3621Y2279D02*
X3497Y2279D01*
D02*
X3497Y2279D02*
X3446Y2330D01*
D02*
X3648Y2253D02*
X3621Y2279D01*
D02*
X3446Y2330D02*
X3447Y2647D01*
D02*
X3447Y2762D02*
X3446Y2880D01*
D02*
X2722Y1430D02*
X2696Y1405D01*
D02*
X2696Y1405D02*
X2695Y1262D01*
D02*
X2872Y1430D02*
X2722Y1430D01*
D02*
X2122Y779D02*
X1972Y779D01*
D02*
X1972Y779D02*
X1946Y805D01*
D02*
X1946Y805D02*
X1946Y1146D01*
D02*
X1946Y1405D02*
X1946Y1262D01*
D02*
X1972Y1430D02*
X1946Y1405D01*
D02*
X2122Y1430D02*
X1972Y1430D01*
D02*
X2898Y1456D02*
X2872Y1430D01*
D02*
X2171Y729D02*
X2172Y730D01*
D02*
X2172Y730D02*
X2122Y779D01*
D02*
X2148Y1456D02*
X2122Y1430D01*
G54D22*
D02*
X1846Y1480D02*
X2142Y1479D01*
D02*
X1821Y1454D02*
X1846Y1480D01*
D02*
X1821Y1412D02*
X1821Y1454D01*
D02*
X2830Y1479D02*
X2892Y1479D01*
D02*
X3580Y1479D02*
X3642Y1479D01*
G54D21*
D02*
X3621Y779D02*
X3472Y779D01*
D02*
X3472Y779D02*
X3447Y805D01*
D02*
X3447Y805D02*
X3448Y1146D01*
D02*
X3447Y1405D02*
X3472Y1430D01*
D02*
X3472Y1430D02*
X3621Y1430D01*
D02*
X3621Y1430D02*
X3647Y1456D01*
D02*
X2722Y779D02*
X2696Y805D01*
D02*
X2872Y779D02*
X2722Y779D01*
D02*
X2122Y1530D02*
X2148Y1503D01*
D02*
X1972Y1530D02*
X2122Y1530D01*
D02*
X1946Y1555D02*
X1972Y1530D01*
D02*
X1946Y2155D02*
X1972Y2180D01*
D02*
X1972Y2180D02*
X2122Y2180D01*
D02*
X2122Y2180D02*
X2148Y2206D01*
D02*
X1946Y1895D02*
X1946Y1555D01*
D02*
X1946Y2013D02*
X1946Y2155D01*
D02*
X3448Y1262D02*
X3447Y1405D01*
D02*
X3648Y753D02*
X3621Y779D01*
D02*
X2898Y753D02*
X2872Y779D01*
D02*
X2696Y805D02*
X2695Y1146D01*
D02*
X3621Y1530D02*
X3648Y1503D01*
D02*
X3472Y1530D02*
X3621Y1530D01*
D02*
X3447Y1555D02*
X3472Y1530D01*
D02*
X2872Y1530D02*
X2898Y1503D01*
D02*
X2722Y1530D02*
X2872Y1530D01*
D02*
X2696Y1555D02*
X2722Y1530D01*
D02*
X2696Y2155D02*
X2697Y2013D01*
D02*
X2722Y2180D02*
X2696Y2155D01*
D02*
X2872Y2180D02*
X2722Y2180D01*
D02*
X3472Y2179D02*
X3446Y2155D01*
D02*
X3620Y2179D02*
X3472Y2179D01*
D02*
X3648Y2206D02*
X3620Y2179D01*
D02*
X3446Y2155D02*
X3446Y2013D01*
D02*
X3446Y1895D02*
X3447Y1555D01*
D02*
X2697Y1895D02*
X2696Y1555D01*
D02*
X2898Y2206D02*
X2872Y2180D01*
D02*
X3870Y573D02*
X3862Y706D01*
D02*
X2370Y573D02*
X2362Y706D01*
D02*
X3120Y573D02*
X3112Y706D01*
G54D22*
D02*
X1846Y254D02*
X1441Y254D01*
D02*
X1871Y430D02*
X1871Y280D01*
D02*
X1571Y2679D02*
X1571Y579D01*
D02*
X1571Y579D02*
X1546Y554D01*
D02*
X1546Y554D02*
X1441Y554D01*
D02*
X1646Y454D02*
X1441Y454D01*
D02*
X1671Y480D02*
X1646Y454D01*
D02*
X1672Y1929D02*
X1671Y480D01*
D02*
X1771Y1179D02*
X1771Y380D01*
D02*
X1771Y380D02*
X1746Y354D01*
D02*
X1746Y354D02*
X1441Y354D01*
D02*
X1896Y454D02*
X1871Y430D01*
D02*
X1871Y280D02*
X1846Y254D01*
D02*
X1797Y1205D02*
X1771Y1179D01*
D02*
X1697Y1953D02*
X1672Y1929D01*
D02*
X1596Y2705D02*
X1571Y2679D01*
D02*
X2103Y2704D02*
X1596Y2705D01*
D02*
X2103Y1954D02*
X1697Y1953D01*
D02*
X2103Y1204D02*
X1797Y1205D01*
D02*
X2103Y454D02*
X1896Y454D01*
D02*
X3322Y1955D02*
X3603Y1954D01*
D02*
X3297Y1979D02*
X3322Y1955D01*
D02*
X2972Y1979D02*
X3297Y1979D01*
D02*
X2946Y1955D02*
X2972Y1979D01*
D02*
X2890Y1954D02*
X2946Y1955D01*
D02*
X3322Y1204D02*
X3603Y1204D01*
D02*
X3297Y1229D02*
X3322Y1204D01*
D02*
X2972Y1229D02*
X3297Y1229D01*
D02*
X2946Y1204D02*
X2972Y1229D01*
D02*
X2890Y1204D02*
X2946Y1204D01*
D02*
X2571Y1204D02*
X2853Y1204D01*
D02*
X2547Y1229D02*
X2571Y1204D01*
D02*
X2222Y1229D02*
X2547Y1229D01*
D02*
X2197Y1204D02*
X2222Y1229D01*
D02*
X2140Y1204D02*
X2197Y1204D01*
D02*
X3322Y454D02*
X3603Y454D01*
D02*
X3297Y479D02*
X3322Y454D01*
D02*
X2972Y479D02*
X3297Y479D01*
D02*
X2946Y454D02*
X2972Y479D01*
D02*
X2890Y454D02*
X2946Y454D01*
D02*
X2571Y454D02*
X2853Y454D01*
D02*
X2547Y479D02*
X2571Y454D01*
D02*
X2222Y479D02*
X2547Y479D01*
D02*
X2197Y454D02*
X2222Y479D01*
D02*
X2140Y454D02*
X2197Y454D01*
D02*
X2890Y2704D02*
X3603Y2704D01*
D02*
X2140Y2704D02*
X2853Y2704D01*
D02*
X2571Y1955D02*
X2853Y1954D01*
D02*
X2547Y1979D02*
X2571Y1955D01*
D02*
X2222Y1979D02*
X2547Y1979D01*
D02*
X2197Y1955D02*
X2222Y1979D01*
D02*
X2140Y1954D02*
X2197Y1955D01*
G54D20*
D02*
X1403Y2055D02*
X1004Y2054D01*
D02*
X846Y2062D02*
X845Y3107D01*
D02*
X896Y1854D02*
X896Y3107D01*
D02*
X540Y1855D02*
X896Y1854D01*
D02*
X922Y1929D02*
X921Y3107D01*
D02*
X966Y1885D02*
X922Y1929D01*
D02*
X946Y1954D02*
X947Y3107D01*
D02*
X1403Y1954D02*
X946Y1954D01*
G54D23*
X498Y2081D02*
X549Y2081D01*
X1395Y2081D02*
X1446Y2081D01*
X491Y2080D02*
X556Y2080D01*
X1388Y2080D02*
X1453Y2080D01*
X488Y2079D02*
X559Y2079D01*
X1385Y2079D02*
X1456Y2079D01*
X487Y2078D02*
X561Y2078D01*
X1383Y2078D02*
X1458Y2078D01*
X485Y2077D02*
X563Y2077D01*
X1382Y2077D02*
X1460Y2077D01*
X483Y2076D02*
X565Y2076D01*
X1380Y2076D02*
X1461Y2076D01*
X482Y2075D02*
X566Y2075D01*
X1379Y2075D02*
X1463Y2075D01*
X481Y2074D02*
X567Y2074D01*
X1378Y2074D02*
X1464Y2074D01*
X480Y2073D02*
X568Y2073D01*
X1377Y2073D02*
X1465Y2073D01*
X479Y2072D02*
X569Y2072D01*
X1376Y2072D02*
X1466Y2072D01*
X478Y2071D02*
X524Y2071D01*
X526Y2071D02*
X570Y2071D01*
X1375Y2071D02*
X1420Y2071D01*
X1422Y2071D02*
X1467Y2071D01*
X477Y2070D02*
X519Y2070D01*
X531Y2070D02*
X571Y2070D01*
X1374Y2070D02*
X1415Y2070D01*
X1427Y2070D02*
X1467Y2070D01*
X477Y2069D02*
X516Y2069D01*
X533Y2069D02*
X571Y2069D01*
X1373Y2069D02*
X1413Y2069D01*
X1429Y2069D02*
X1468Y2069D01*
X476Y2068D02*
X515Y2068D01*
X534Y2068D02*
X572Y2068D01*
X1373Y2068D02*
X1411Y2068D01*
X1431Y2068D02*
X1469Y2068D01*
X475Y2067D02*
X514Y2067D01*
X536Y2067D02*
X572Y2067D01*
X1372Y2067D02*
X1410Y2067D01*
X1432Y2067D02*
X1469Y2067D01*
X475Y2066D02*
X513Y2066D01*
X537Y2066D02*
X573Y2066D01*
X1372Y2066D02*
X1409Y2066D01*
X1433Y2066D02*
X1470Y2066D01*
X474Y2065D02*
X512Y2065D01*
X538Y2065D02*
X573Y2065D01*
X1371Y2065D02*
X1408Y2065D01*
X1434Y2065D02*
X1470Y2065D01*
X474Y2064D02*
X511Y2064D01*
X538Y2064D02*
X574Y2064D01*
X1371Y2064D02*
X1407Y2064D01*
X1434Y2064D02*
X1471Y2064D01*
X474Y2063D02*
X510Y2063D01*
X539Y2063D02*
X574Y2063D01*
X1371Y2063D02*
X1406Y2063D01*
X1435Y2063D02*
X1471Y2063D01*
X473Y2062D02*
X510Y2062D01*
X539Y2062D02*
X574Y2062D01*
X1370Y2062D02*
X1406Y2062D01*
X1436Y2062D02*
X1471Y2062D01*
X473Y2061D02*
X509Y2061D01*
X540Y2061D02*
X575Y2061D01*
X1370Y2061D02*
X1405Y2061D01*
X1436Y2061D02*
X1471Y2061D01*
X473Y2060D02*
X509Y2060D01*
X540Y2060D02*
X575Y2060D01*
X1370Y2060D02*
X1405Y2060D01*
X1436Y2060D02*
X1472Y2060D01*
X473Y2059D02*
X509Y2059D01*
X541Y2059D02*
X575Y2059D01*
X1370Y2059D02*
X1405Y2059D01*
X1437Y2059D02*
X1472Y2059D01*
X473Y2058D02*
X508Y2058D01*
X541Y2058D02*
X575Y2058D01*
X1369Y2058D02*
X1405Y2058D01*
X1437Y2058D02*
X1472Y2058D01*
X473Y2057D02*
X508Y2057D01*
X541Y2057D02*
X575Y2057D01*
X1369Y2057D02*
X1404Y2057D01*
X1437Y2057D02*
X1472Y2057D01*
X472Y2056D02*
X508Y2056D01*
X541Y2056D02*
X575Y2056D01*
X1369Y2056D02*
X1404Y2056D01*
X1437Y2056D02*
X1472Y2056D01*
X472Y2055D02*
X508Y2055D01*
X541Y2055D02*
X575Y2055D01*
X1369Y2055D02*
X1404Y2055D01*
X1437Y2055D02*
X1472Y2055D01*
X472Y2054D02*
X508Y2054D01*
X541Y2054D02*
X575Y2054D01*
X1369Y2054D02*
X1404Y2054D01*
X1437Y2054D02*
X1472Y2054D01*
X473Y2053D02*
X508Y2053D01*
X541Y2053D02*
X575Y2053D01*
X1369Y2053D02*
X1404Y2053D01*
X1437Y2053D02*
X1472Y2053D01*
X473Y2052D02*
X508Y2052D01*
X541Y2052D02*
X575Y2052D01*
X1369Y2052D02*
X1405Y2052D01*
X1437Y2052D02*
X1472Y2052D01*
X473Y2051D02*
X509Y2051D01*
X541Y2051D02*
X575Y2051D01*
X1370Y2051D02*
X1405Y2051D01*
X1437Y2051D02*
X1472Y2051D01*
X473Y2050D02*
X509Y2050D01*
X540Y2050D02*
X575Y2050D01*
X1370Y2050D02*
X1405Y2050D01*
X1436Y2050D02*
X1472Y2050D01*
X473Y2049D02*
X509Y2049D01*
X540Y2049D02*
X575Y2049D01*
X1370Y2049D02*
X1405Y2049D01*
X1436Y2049D02*
X1471Y2049D01*
X473Y2048D02*
X510Y2048D01*
X539Y2048D02*
X574Y2048D01*
X1370Y2048D02*
X1406Y2048D01*
X1435Y2048D02*
X1471Y2048D01*
X474Y2047D02*
X510Y2047D01*
X539Y2047D02*
X574Y2047D01*
X1371Y2047D02*
X1406Y2047D01*
X1435Y2047D02*
X1471Y2047D01*
X474Y2046D02*
X511Y2046D01*
X538Y2046D02*
X574Y2046D01*
X1371Y2046D02*
X1407Y2046D01*
X1434Y2046D02*
X1471Y2046D01*
X474Y2045D02*
X512Y2045D01*
X537Y2045D02*
X573Y2045D01*
X1371Y2045D02*
X1408Y2045D01*
X1434Y2045D02*
X1470Y2045D01*
X475Y2044D02*
X513Y2044D01*
X537Y2044D02*
X573Y2044D01*
X1372Y2044D02*
X1409Y2044D01*
X1433Y2044D02*
X1470Y2044D01*
X475Y2043D02*
X514Y2043D01*
X536Y2043D02*
X572Y2043D01*
X1372Y2043D02*
X1410Y2043D01*
X1432Y2043D02*
X1469Y2043D01*
X476Y2042D02*
X515Y2042D01*
X534Y2042D02*
X572Y2042D01*
X1373Y2042D02*
X1411Y2042D01*
X1430Y2042D02*
X1469Y2042D01*
X477Y2041D02*
X517Y2041D01*
X533Y2041D02*
X571Y2041D01*
X1373Y2041D02*
X1413Y2041D01*
X1429Y2041D02*
X1468Y2041D01*
X477Y2040D02*
X519Y2040D01*
X530Y2040D02*
X571Y2040D01*
X1374Y2040D02*
X1415Y2040D01*
X1426Y2040D02*
X1467Y2040D01*
X478Y2039D02*
X570Y2039D01*
X1375Y2039D02*
X1467Y2039D01*
X479Y2038D02*
X569Y2038D01*
X1376Y2038D02*
X1466Y2038D01*
X480Y2037D02*
X568Y2037D01*
X1377Y2037D02*
X1465Y2037D01*
X481Y2036D02*
X567Y2036D01*
X1378Y2036D02*
X1464Y2036D01*
X482Y2035D02*
X566Y2035D01*
X1379Y2035D02*
X1463Y2035D01*
X483Y2034D02*
X565Y2034D01*
X1380Y2034D02*
X1461Y2034D01*
X485Y2033D02*
X563Y2033D01*
X1382Y2033D02*
X1460Y2033D01*
X487Y2032D02*
X561Y2032D01*
X1383Y2032D02*
X1458Y2032D01*
X488Y2031D02*
X559Y2031D01*
X1385Y2031D02*
X1456Y2031D01*
X491Y2030D02*
X556Y2030D01*
X1388Y2030D02*
X1453Y2030D01*
X498Y1981D02*
X549Y1981D01*
X1395Y1981D02*
X1446Y1981D01*
X491Y1980D02*
X556Y1980D01*
X1388Y1980D02*
X1453Y1980D01*
X488Y1979D02*
X559Y1979D01*
X1385Y1979D02*
X1456Y1979D01*
X486Y1978D02*
X561Y1978D01*
X1383Y1978D02*
X1458Y1978D01*
X485Y1977D02*
X563Y1977D01*
X1382Y1977D02*
X1460Y1977D01*
X483Y1976D02*
X564Y1976D01*
X1380Y1976D02*
X1461Y1976D01*
X482Y1975D02*
X566Y1975D01*
X1379Y1975D02*
X1463Y1975D01*
X481Y1974D02*
X567Y1974D01*
X1378Y1974D02*
X1464Y1974D01*
X480Y1973D02*
X568Y1973D01*
X1377Y1973D02*
X1465Y1973D01*
X479Y1972D02*
X569Y1972D01*
X1376Y1972D02*
X1466Y1972D01*
X478Y1971D02*
X523Y1971D01*
X526Y1971D02*
X570Y1971D01*
X1375Y1971D02*
X1419Y1971D01*
X1422Y1971D02*
X1467Y1971D01*
X477Y1970D02*
X518Y1970D01*
X531Y1970D02*
X570Y1970D01*
X1374Y1970D02*
X1414Y1970D01*
X1427Y1970D02*
X1467Y1970D01*
X476Y1969D02*
X516Y1969D01*
X533Y1969D02*
X571Y1969D01*
X1373Y1969D02*
X1412Y1969D01*
X1429Y1969D02*
X1468Y1969D01*
X476Y1968D02*
X515Y1968D01*
X535Y1968D02*
X572Y1968D01*
X1373Y1968D02*
X1411Y1968D01*
X1431Y1968D02*
X1469Y1968D01*
X475Y1967D02*
X513Y1967D01*
X536Y1967D02*
X572Y1967D01*
X1372Y1967D02*
X1409Y1967D01*
X1432Y1967D02*
X1469Y1967D01*
X475Y1966D02*
X512Y1966D01*
X537Y1966D02*
X573Y1966D01*
X1372Y1966D02*
X1408Y1966D01*
X1433Y1966D02*
X1470Y1966D01*
X474Y1965D02*
X511Y1965D01*
X538Y1965D02*
X573Y1965D01*
X1371Y1965D02*
X1408Y1965D01*
X1434Y1965D02*
X1470Y1965D01*
X474Y1964D02*
X511Y1964D01*
X538Y1964D02*
X574Y1964D01*
X1371Y1964D02*
X1407Y1964D01*
X1435Y1964D02*
X1471Y1964D01*
X474Y1963D02*
X510Y1963D01*
X539Y1963D02*
X574Y1963D01*
X1371Y1963D02*
X1406Y1963D01*
X1435Y1963D02*
X1471Y1963D01*
X473Y1962D02*
X509Y1962D01*
X540Y1962D02*
X574Y1962D01*
X1370Y1962D02*
X1406Y1962D01*
X1436Y1962D02*
X1471Y1962D01*
X473Y1961D02*
X509Y1961D01*
X540Y1961D02*
X575Y1961D01*
X1370Y1961D02*
X1405Y1961D01*
X1436Y1961D02*
X1471Y1961D01*
X473Y1960D02*
X509Y1960D01*
X540Y1960D02*
X575Y1960D01*
X1370Y1960D02*
X1405Y1960D01*
X1437Y1960D02*
X1472Y1960D01*
X473Y1959D02*
X508Y1959D01*
X541Y1959D02*
X575Y1959D01*
X1370Y1959D02*
X1405Y1959D01*
X1437Y1959D02*
X1472Y1959D01*
X473Y1958D02*
X508Y1958D01*
X541Y1958D02*
X575Y1958D01*
X1369Y1958D02*
X1404Y1958D01*
X1437Y1958D02*
X1472Y1958D01*
X472Y1957D02*
X508Y1957D01*
X541Y1957D02*
X575Y1957D01*
X1369Y1957D02*
X1404Y1957D01*
X1437Y1957D02*
X1472Y1957D01*
X472Y1956D02*
X508Y1956D01*
X541Y1956D02*
X575Y1956D01*
X1369Y1956D02*
X1404Y1956D01*
X1437Y1956D02*
X1472Y1956D01*
X472Y1955D02*
X508Y1955D01*
X541Y1955D02*
X575Y1955D01*
X1369Y1955D02*
X1404Y1955D01*
X1437Y1955D02*
X1472Y1955D01*
X472Y1954D02*
X508Y1954D01*
X541Y1954D02*
X575Y1954D01*
X1369Y1954D02*
X1404Y1954D01*
X1437Y1954D02*
X1472Y1954D01*
X472Y1953D02*
X508Y1953D01*
X541Y1953D02*
X575Y1953D01*
X1369Y1953D02*
X1404Y1953D01*
X1437Y1953D02*
X1472Y1953D01*
X473Y1952D02*
X508Y1952D01*
X541Y1952D02*
X575Y1952D01*
X1369Y1952D02*
X1404Y1952D01*
X1437Y1952D02*
X1472Y1952D01*
X473Y1951D02*
X508Y1951D01*
X541Y1951D02*
X575Y1951D01*
X1370Y1951D02*
X1405Y1951D01*
X1437Y1951D02*
X1472Y1951D01*
X473Y1950D02*
X509Y1950D01*
X540Y1950D02*
X575Y1950D01*
X1370Y1950D02*
X1405Y1950D01*
X1437Y1950D02*
X1472Y1950D01*
X473Y1949D02*
X509Y1949D01*
X540Y1949D02*
X575Y1949D01*
X1370Y1949D02*
X1405Y1949D01*
X1436Y1949D02*
X1471Y1949D01*
X473Y1948D02*
X510Y1948D01*
X540Y1948D02*
X574Y1948D01*
X1370Y1948D02*
X1406Y1948D01*
X1436Y1948D02*
X1471Y1948D01*
X474Y1947D02*
X510Y1947D01*
X539Y1947D02*
X574Y1947D01*
X1371Y1947D02*
X1406Y1947D01*
X1435Y1947D02*
X1471Y1947D01*
X474Y1946D02*
X511Y1946D01*
X538Y1946D02*
X574Y1946D01*
X1371Y1946D02*
X1407Y1946D01*
X1435Y1946D02*
X1471Y1946D01*
X474Y1945D02*
X511Y1945D01*
X538Y1945D02*
X573Y1945D01*
X1371Y1945D02*
X1408Y1945D01*
X1434Y1945D02*
X1470Y1945D01*
X475Y1944D02*
X512Y1944D01*
X537Y1944D02*
X573Y1944D01*
X1372Y1944D02*
X1409Y1944D01*
X1433Y1944D02*
X1470Y1944D01*
X475Y1943D02*
X513Y1943D01*
X536Y1943D02*
X572Y1943D01*
X1372Y1943D02*
X1410Y1943D01*
X1432Y1943D02*
X1469Y1943D01*
X476Y1942D02*
X515Y1942D01*
X534Y1942D02*
X572Y1942D01*
X1373Y1942D02*
X1411Y1942D01*
X1431Y1942D02*
X1469Y1942D01*
X476Y1941D02*
X516Y1941D01*
X533Y1941D02*
X571Y1941D01*
X1373Y1941D02*
X1412Y1941D01*
X1429Y1941D02*
X1468Y1941D01*
X477Y1940D02*
X519Y1940D01*
X530Y1940D02*
X570Y1940D01*
X1374Y1940D02*
X1415Y1940D01*
X1427Y1940D02*
X1467Y1940D01*
X478Y1939D02*
X570Y1939D01*
X1375Y1939D02*
X1467Y1939D01*
X479Y1938D02*
X569Y1938D01*
X1376Y1938D02*
X1466Y1938D01*
X480Y1937D02*
X568Y1937D01*
X1377Y1937D02*
X1465Y1937D01*
X481Y1936D02*
X567Y1936D01*
X1378Y1936D02*
X1464Y1936D01*
X482Y1935D02*
X566Y1935D01*
X1379Y1935D02*
X1463Y1935D01*
X483Y1934D02*
X564Y1934D01*
X1380Y1934D02*
X1461Y1934D01*
X485Y1933D02*
X563Y1933D01*
X1382Y1933D02*
X1460Y1933D01*
X486Y1932D02*
X561Y1932D01*
X1383Y1932D02*
X1458Y1932D01*
X488Y1931D02*
X559Y1931D01*
X1385Y1931D02*
X1456Y1931D01*
X491Y1930D02*
X556Y1930D01*
X1388Y1930D02*
X1453Y1930D01*
X498Y1881D02*
X549Y1881D01*
X1395Y1881D02*
X1446Y1881D01*
X491Y1880D02*
X556Y1880D01*
X1388Y1880D02*
X1453Y1880D01*
X488Y1879D02*
X559Y1879D01*
X1385Y1879D02*
X1456Y1879D01*
X486Y1878D02*
X561Y1878D01*
X1383Y1878D02*
X1458Y1878D01*
X485Y1877D02*
X563Y1877D01*
X1382Y1877D02*
X1460Y1877D01*
X483Y1876D02*
X564Y1876D01*
X1380Y1876D02*
X1461Y1876D01*
X482Y1875D02*
X566Y1875D01*
X1379Y1875D02*
X1463Y1875D01*
X481Y1874D02*
X567Y1874D01*
X1378Y1874D02*
X1464Y1874D01*
X480Y1873D02*
X568Y1873D01*
X1377Y1873D02*
X1465Y1873D01*
X479Y1872D02*
X569Y1872D01*
X1376Y1872D02*
X1466Y1872D01*
X478Y1871D02*
X523Y1871D01*
X526Y1871D02*
X570Y1871D01*
X1375Y1871D02*
X1419Y1871D01*
X1422Y1871D02*
X1467Y1871D01*
X477Y1870D02*
X518Y1870D01*
X531Y1870D02*
X570Y1870D01*
X1374Y1870D02*
X1414Y1870D01*
X1427Y1870D02*
X1467Y1870D01*
X476Y1869D02*
X516Y1869D01*
X533Y1869D02*
X571Y1869D01*
X1373Y1869D02*
X1412Y1869D01*
X1429Y1869D02*
X1468Y1869D01*
X476Y1868D02*
X514Y1868D01*
X535Y1868D02*
X572Y1868D01*
X1373Y1868D02*
X1411Y1868D01*
X1431Y1868D02*
X1469Y1868D01*
X475Y1867D02*
X513Y1867D01*
X536Y1867D02*
X572Y1867D01*
X1372Y1867D02*
X1409Y1867D01*
X1432Y1867D02*
X1469Y1867D01*
X475Y1866D02*
X512Y1866D01*
X537Y1866D02*
X573Y1866D01*
X1372Y1866D02*
X1408Y1866D01*
X1433Y1866D02*
X1470Y1866D01*
X474Y1865D02*
X511Y1865D01*
X538Y1865D02*
X573Y1865D01*
X1371Y1865D02*
X1408Y1865D01*
X1434Y1865D02*
X1470Y1865D01*
X474Y1864D02*
X511Y1864D01*
X538Y1864D02*
X574Y1864D01*
X1371Y1864D02*
X1407Y1864D01*
X1435Y1864D02*
X1471Y1864D01*
X474Y1863D02*
X510Y1863D01*
X539Y1863D02*
X574Y1863D01*
X1371Y1863D02*
X1406Y1863D01*
X1435Y1863D02*
X1471Y1863D01*
X473Y1862D02*
X509Y1862D01*
X540Y1862D02*
X574Y1862D01*
X1370Y1862D02*
X1406Y1862D01*
X1436Y1862D02*
X1471Y1862D01*
X473Y1861D02*
X509Y1861D01*
X540Y1861D02*
X575Y1861D01*
X1370Y1861D02*
X1405Y1861D01*
X1436Y1861D02*
X1471Y1861D01*
X473Y1860D02*
X509Y1860D01*
X540Y1860D02*
X575Y1860D01*
X1370Y1860D02*
X1405Y1860D01*
X1437Y1860D02*
X1472Y1860D01*
X473Y1859D02*
X508Y1859D01*
X541Y1859D02*
X575Y1859D01*
X1370Y1859D02*
X1405Y1859D01*
X1437Y1859D02*
X1472Y1859D01*
X472Y1858D02*
X508Y1858D01*
X541Y1858D02*
X575Y1858D01*
X1369Y1858D02*
X1404Y1858D01*
X1437Y1858D02*
X1472Y1858D01*
X472Y1857D02*
X508Y1857D01*
X541Y1857D02*
X575Y1857D01*
X1369Y1857D02*
X1404Y1857D01*
X1437Y1857D02*
X1472Y1857D01*
X472Y1856D02*
X508Y1856D01*
X541Y1856D02*
X575Y1856D01*
X1369Y1856D02*
X1404Y1856D01*
X1437Y1856D02*
X1472Y1856D01*
X472Y1855D02*
X508Y1855D01*
X541Y1855D02*
X575Y1855D01*
X1369Y1855D02*
X1404Y1855D01*
X1437Y1855D02*
X1472Y1855D01*
X472Y1854D02*
X508Y1854D01*
X541Y1854D02*
X575Y1854D01*
X1369Y1854D02*
X1404Y1854D01*
X1437Y1854D02*
X1472Y1854D01*
X472Y1853D02*
X508Y1853D01*
X541Y1853D02*
X575Y1853D01*
X1369Y1853D02*
X1404Y1853D01*
X1437Y1853D02*
X1472Y1853D01*
X472Y1852D02*
X508Y1852D01*
X541Y1852D02*
X575Y1852D01*
X1369Y1852D02*
X1404Y1852D01*
X1437Y1852D02*
X1472Y1852D01*
X473Y1851D02*
X508Y1851D01*
X541Y1851D02*
X575Y1851D01*
X1370Y1851D02*
X1405Y1851D01*
X1437Y1851D02*
X1472Y1851D01*
X473Y1850D02*
X509Y1850D01*
X540Y1850D02*
X575Y1850D01*
X1370Y1850D02*
X1405Y1850D01*
X1437Y1850D02*
X1472Y1850D01*
X473Y1849D02*
X509Y1849D01*
X540Y1849D02*
X575Y1849D01*
X1370Y1849D02*
X1405Y1849D01*
X1436Y1849D02*
X1471Y1849D01*
X473Y1848D02*
X510Y1848D01*
X540Y1848D02*
X574Y1848D01*
X1370Y1848D02*
X1406Y1848D01*
X1436Y1848D02*
X1471Y1848D01*
X474Y1847D02*
X510Y1847D01*
X539Y1847D02*
X574Y1847D01*
X1371Y1847D02*
X1406Y1847D01*
X1435Y1847D02*
X1471Y1847D01*
X474Y1846D02*
X511Y1846D01*
X538Y1846D02*
X574Y1846D01*
X1371Y1846D02*
X1407Y1846D01*
X1435Y1846D02*
X1471Y1846D01*
X474Y1845D02*
X511Y1845D01*
X538Y1845D02*
X573Y1845D01*
X1371Y1845D02*
X1408Y1845D01*
X1434Y1845D02*
X1470Y1845D01*
X475Y1844D02*
X512Y1844D01*
X537Y1844D02*
X573Y1844D01*
X1372Y1844D02*
X1409Y1844D01*
X1433Y1844D02*
X1470Y1844D01*
X475Y1843D02*
X513Y1843D01*
X536Y1843D02*
X572Y1843D01*
X1372Y1843D02*
X1410Y1843D01*
X1432Y1843D02*
X1469Y1843D01*
X476Y1842D02*
X515Y1842D01*
X534Y1842D02*
X572Y1842D01*
X1373Y1842D02*
X1411Y1842D01*
X1431Y1842D02*
X1469Y1842D01*
X476Y1841D02*
X516Y1841D01*
X533Y1841D02*
X571Y1841D01*
X1373Y1841D02*
X1412Y1841D01*
X1429Y1841D02*
X1468Y1841D01*
X477Y1840D02*
X519Y1840D01*
X531Y1840D02*
X570Y1840D01*
X1374Y1840D02*
X1415Y1840D01*
X1427Y1840D02*
X1467Y1840D01*
X478Y1839D02*
X570Y1839D01*
X1375Y1839D02*
X1467Y1839D01*
X479Y1838D02*
X569Y1838D01*
X1376Y1838D02*
X1466Y1838D01*
X480Y1837D02*
X568Y1837D01*
X1377Y1837D02*
X1465Y1837D01*
X481Y1836D02*
X567Y1836D01*
X1378Y1836D02*
X1464Y1836D01*
X482Y1835D02*
X566Y1835D01*
X1379Y1835D02*
X1463Y1835D01*
X483Y1834D02*
X564Y1834D01*
X1380Y1834D02*
X1461Y1834D01*
X485Y1833D02*
X563Y1833D01*
X1382Y1833D02*
X1460Y1833D01*
X486Y1832D02*
X561Y1832D01*
X1383Y1832D02*
X1458Y1832D01*
X488Y1831D02*
X559Y1831D01*
X1385Y1831D02*
X1456Y1831D01*
X491Y1830D02*
X556Y1830D01*
X1388Y1830D02*
X1453Y1830D01*
X498Y1781D02*
X549Y1781D01*
X1395Y1781D02*
X1446Y1781D01*
X491Y1780D02*
X556Y1780D01*
X1388Y1780D02*
X1453Y1780D01*
X488Y1779D02*
X559Y1779D01*
X1385Y1779D02*
X1456Y1779D01*
X486Y1778D02*
X561Y1778D01*
X1383Y1778D02*
X1458Y1778D01*
X485Y1777D02*
X563Y1777D01*
X1382Y1777D02*
X1460Y1777D01*
X483Y1776D02*
X564Y1776D01*
X1380Y1776D02*
X1461Y1776D01*
X482Y1775D02*
X566Y1775D01*
X1379Y1775D02*
X1463Y1775D01*
X481Y1774D02*
X567Y1774D01*
X1378Y1774D02*
X1464Y1774D01*
X480Y1773D02*
X568Y1773D01*
X1377Y1773D02*
X1465Y1773D01*
X479Y1772D02*
X569Y1772D01*
X1376Y1772D02*
X1466Y1772D01*
X478Y1771D02*
X523Y1771D01*
X526Y1771D02*
X570Y1771D01*
X1375Y1771D02*
X1419Y1771D01*
X1422Y1771D02*
X1467Y1771D01*
X477Y1770D02*
X518Y1770D01*
X531Y1770D02*
X570Y1770D01*
X1374Y1770D02*
X1414Y1770D01*
X1427Y1770D02*
X1467Y1770D01*
X476Y1769D02*
X516Y1769D01*
X533Y1769D02*
X571Y1769D01*
X1373Y1769D02*
X1412Y1769D01*
X1429Y1769D02*
X1468Y1769D01*
X476Y1768D02*
X514Y1768D01*
X535Y1768D02*
X572Y1768D01*
X1373Y1768D02*
X1411Y1768D01*
X1431Y1768D02*
X1469Y1768D01*
X475Y1767D02*
X513Y1767D01*
X536Y1767D02*
X572Y1767D01*
X1372Y1767D02*
X1409Y1767D01*
X1432Y1767D02*
X1469Y1767D01*
X475Y1766D02*
X512Y1766D01*
X537Y1766D02*
X573Y1766D01*
X1372Y1766D02*
X1408Y1766D01*
X1433Y1766D02*
X1470Y1766D01*
X474Y1765D02*
X511Y1765D01*
X538Y1765D02*
X573Y1765D01*
X1371Y1765D02*
X1408Y1765D01*
X1434Y1765D02*
X1470Y1765D01*
X474Y1764D02*
X511Y1764D01*
X538Y1764D02*
X574Y1764D01*
X1371Y1764D02*
X1407Y1764D01*
X1435Y1764D02*
X1471Y1764D01*
X474Y1763D02*
X510Y1763D01*
X539Y1763D02*
X574Y1763D01*
X1371Y1763D02*
X1406Y1763D01*
X1435Y1763D02*
X1471Y1763D01*
X473Y1762D02*
X509Y1762D01*
X540Y1762D02*
X574Y1762D01*
X1370Y1762D02*
X1406Y1762D01*
X1436Y1762D02*
X1471Y1762D01*
X473Y1761D02*
X509Y1761D01*
X540Y1761D02*
X575Y1761D01*
X1370Y1761D02*
X1405Y1761D01*
X1436Y1761D02*
X1471Y1761D01*
X473Y1760D02*
X509Y1760D01*
X540Y1760D02*
X575Y1760D01*
X1370Y1760D02*
X1405Y1760D01*
X1437Y1760D02*
X1472Y1760D01*
X473Y1759D02*
X508Y1759D01*
X541Y1759D02*
X575Y1759D01*
X1370Y1759D02*
X1405Y1759D01*
X1437Y1759D02*
X1472Y1759D01*
X473Y1758D02*
X508Y1758D01*
X541Y1758D02*
X575Y1758D01*
X1369Y1758D02*
X1404Y1758D01*
X1437Y1758D02*
X1472Y1758D01*
X472Y1757D02*
X508Y1757D01*
X541Y1757D02*
X575Y1757D01*
X1369Y1757D02*
X1404Y1757D01*
X1437Y1757D02*
X1472Y1757D01*
X472Y1756D02*
X508Y1756D01*
X541Y1756D02*
X575Y1756D01*
X1369Y1756D02*
X1404Y1756D01*
X1437Y1756D02*
X1472Y1756D01*
X472Y1755D02*
X508Y1755D01*
X541Y1755D02*
X575Y1755D01*
X1369Y1755D02*
X1404Y1755D01*
X1437Y1755D02*
X1472Y1755D01*
X472Y1754D02*
X508Y1754D01*
X541Y1754D02*
X575Y1754D01*
X1369Y1754D02*
X1404Y1754D01*
X1437Y1754D02*
X1472Y1754D01*
X472Y1753D02*
X508Y1753D01*
X541Y1753D02*
X575Y1753D01*
X1369Y1753D02*
X1404Y1753D01*
X1437Y1753D02*
X1472Y1753D01*
X473Y1752D02*
X508Y1752D01*
X541Y1752D02*
X575Y1752D01*
X1369Y1752D02*
X1404Y1752D01*
X1437Y1752D02*
X1472Y1752D01*
X473Y1751D02*
X508Y1751D01*
X541Y1751D02*
X575Y1751D01*
X1370Y1751D02*
X1405Y1751D01*
X1437Y1751D02*
X1472Y1751D01*
X473Y1750D02*
X509Y1750D01*
X540Y1750D02*
X575Y1750D01*
X1370Y1750D02*
X1405Y1750D01*
X1437Y1750D02*
X1472Y1750D01*
X473Y1749D02*
X509Y1749D01*
X540Y1749D02*
X575Y1749D01*
X1370Y1749D02*
X1405Y1749D01*
X1436Y1749D02*
X1471Y1749D01*
X473Y1748D02*
X510Y1748D01*
X540Y1748D02*
X574Y1748D01*
X1370Y1748D02*
X1406Y1748D01*
X1436Y1748D02*
X1471Y1748D01*
X474Y1747D02*
X510Y1747D01*
X539Y1747D02*
X574Y1747D01*
X1371Y1747D02*
X1406Y1747D01*
X1435Y1747D02*
X1471Y1747D01*
X474Y1746D02*
X511Y1746D01*
X538Y1746D02*
X574Y1746D01*
X1371Y1746D02*
X1407Y1746D01*
X1435Y1746D02*
X1471Y1746D01*
X474Y1745D02*
X511Y1745D01*
X538Y1745D02*
X573Y1745D01*
X1371Y1745D02*
X1408Y1745D01*
X1434Y1745D02*
X1470Y1745D01*
X475Y1744D02*
X512Y1744D01*
X537Y1744D02*
X573Y1744D01*
X1372Y1744D02*
X1409Y1744D01*
X1433Y1744D02*
X1470Y1744D01*
X475Y1743D02*
X513Y1743D01*
X536Y1743D02*
X572Y1743D01*
X1372Y1743D02*
X1410Y1743D01*
X1432Y1743D02*
X1469Y1743D01*
X476Y1742D02*
X515Y1742D01*
X534Y1742D02*
X572Y1742D01*
X1373Y1742D02*
X1411Y1742D01*
X1431Y1742D02*
X1469Y1742D01*
X476Y1741D02*
X516Y1741D01*
X533Y1741D02*
X571Y1741D01*
X1373Y1741D02*
X1412Y1741D01*
X1429Y1741D02*
X1468Y1741D01*
X477Y1740D02*
X519Y1740D01*
X530Y1740D02*
X570Y1740D01*
X1374Y1740D02*
X1415Y1740D01*
X1427Y1740D02*
X1467Y1740D01*
X478Y1739D02*
X570Y1739D01*
X1375Y1739D02*
X1467Y1739D01*
X479Y1738D02*
X569Y1738D01*
X1376Y1738D02*
X1466Y1738D01*
X480Y1737D02*
X568Y1737D01*
X1377Y1737D02*
X1465Y1737D01*
X481Y1736D02*
X567Y1736D01*
X1378Y1736D02*
X1464Y1736D01*
X482Y1735D02*
X566Y1735D01*
X1379Y1735D02*
X1463Y1735D01*
X483Y1734D02*
X564Y1734D01*
X1380Y1734D02*
X1461Y1734D01*
X485Y1733D02*
X563Y1733D01*
X1382Y1733D02*
X1460Y1733D01*
X486Y1732D02*
X561Y1732D01*
X1383Y1732D02*
X1458Y1732D01*
X488Y1731D02*
X559Y1731D01*
X1385Y1731D02*
X1456Y1731D01*
X491Y1730D02*
X556Y1730D01*
X1388Y1730D02*
X1453Y1730D01*
X498Y1681D02*
X549Y1681D01*
X1395Y1681D02*
X1446Y1681D01*
X491Y1680D02*
X556Y1680D01*
X1388Y1680D02*
X1453Y1680D01*
X488Y1679D02*
X559Y1679D01*
X1385Y1679D02*
X1456Y1679D01*
X486Y1678D02*
X561Y1678D01*
X1383Y1678D02*
X1458Y1678D01*
X485Y1677D02*
X563Y1677D01*
X1382Y1677D02*
X1460Y1677D01*
X483Y1676D02*
X564Y1676D01*
X1380Y1676D02*
X1461Y1676D01*
X482Y1675D02*
X566Y1675D01*
X1379Y1675D02*
X1463Y1675D01*
X481Y1674D02*
X567Y1674D01*
X1378Y1674D02*
X1464Y1674D01*
X480Y1673D02*
X568Y1673D01*
X1377Y1673D02*
X1465Y1673D01*
X479Y1672D02*
X569Y1672D01*
X1376Y1672D02*
X1466Y1672D01*
X478Y1671D02*
X523Y1671D01*
X526Y1671D02*
X570Y1671D01*
X1375Y1671D02*
X1420Y1671D01*
X1422Y1671D02*
X1467Y1671D01*
X477Y1670D02*
X518Y1670D01*
X531Y1670D02*
X570Y1670D01*
X1374Y1670D02*
X1415Y1670D01*
X1427Y1670D02*
X1467Y1670D01*
X476Y1669D02*
X516Y1669D01*
X533Y1669D02*
X571Y1669D01*
X1373Y1669D02*
X1413Y1669D01*
X1429Y1669D02*
X1468Y1669D01*
X476Y1668D02*
X515Y1668D01*
X534Y1668D02*
X572Y1668D01*
X1373Y1668D02*
X1411Y1668D01*
X1431Y1668D02*
X1469Y1668D01*
X475Y1667D02*
X513Y1667D01*
X536Y1667D02*
X572Y1667D01*
X1372Y1667D02*
X1410Y1667D01*
X1432Y1667D02*
X1469Y1667D01*
X475Y1666D02*
X512Y1666D01*
X537Y1666D02*
X573Y1666D01*
X1372Y1666D02*
X1409Y1666D01*
X1433Y1666D02*
X1470Y1666D01*
X474Y1665D02*
X512Y1665D01*
X537Y1665D02*
X573Y1665D01*
X1371Y1665D02*
X1408Y1665D01*
X1434Y1665D02*
X1470Y1665D01*
X474Y1664D02*
X511Y1664D01*
X538Y1664D02*
X574Y1664D01*
X1371Y1664D02*
X1407Y1664D01*
X1434Y1664D02*
X1471Y1664D01*
X474Y1663D02*
X510Y1663D01*
X539Y1663D02*
X574Y1663D01*
X1371Y1663D02*
X1406Y1663D01*
X1435Y1663D02*
X1471Y1663D01*
X473Y1662D02*
X510Y1662D01*
X539Y1662D02*
X574Y1662D01*
X1370Y1662D02*
X1406Y1662D01*
X1436Y1662D02*
X1471Y1662D01*
X473Y1661D02*
X509Y1661D01*
X540Y1661D02*
X575Y1661D01*
X1370Y1661D02*
X1405Y1661D01*
X1436Y1661D02*
X1471Y1661D01*
X473Y1660D02*
X509Y1660D01*
X540Y1660D02*
X575Y1660D01*
X1370Y1660D02*
X1405Y1660D01*
X1436Y1660D02*
X1472Y1660D01*
X473Y1659D02*
X509Y1659D01*
X540Y1659D02*
X575Y1659D01*
X1370Y1659D02*
X1405Y1659D01*
X1437Y1659D02*
X1472Y1659D01*
X472Y1658D02*
X508Y1658D01*
X541Y1658D02*
X575Y1658D01*
X1369Y1658D02*
X1405Y1658D01*
X1437Y1658D02*
X1472Y1658D01*
X472Y1657D02*
X508Y1657D01*
X541Y1657D02*
X575Y1657D01*
X1369Y1657D02*
X1404Y1657D01*
X1437Y1657D02*
X1472Y1657D01*
X472Y1656D02*
X508Y1656D01*
X541Y1656D02*
X575Y1656D01*
X1369Y1656D02*
X1404Y1656D01*
X1437Y1656D02*
X1472Y1656D01*
X472Y1655D02*
X508Y1655D01*
X541Y1655D02*
X575Y1655D01*
X1369Y1655D02*
X1404Y1655D01*
X1437Y1655D02*
X1472Y1655D01*
X472Y1654D02*
X508Y1654D01*
X541Y1654D02*
X575Y1654D01*
X1369Y1654D02*
X1404Y1654D01*
X1437Y1654D02*
X1472Y1654D01*
X472Y1653D02*
X508Y1653D01*
X541Y1653D02*
X575Y1653D01*
X1369Y1653D02*
X1404Y1653D01*
X1437Y1653D02*
X1472Y1653D01*
X472Y1652D02*
X508Y1652D01*
X541Y1652D02*
X575Y1652D01*
X1369Y1652D02*
X1405Y1652D01*
X1437Y1652D02*
X1472Y1652D01*
X473Y1651D02*
X509Y1651D01*
X540Y1651D02*
X575Y1651D01*
X1370Y1651D02*
X1405Y1651D01*
X1437Y1651D02*
X1472Y1651D01*
X473Y1650D02*
X509Y1650D01*
X540Y1650D02*
X575Y1650D01*
X1370Y1650D02*
X1405Y1650D01*
X1436Y1650D02*
X1472Y1650D01*
X473Y1649D02*
X509Y1649D01*
X540Y1649D02*
X575Y1649D01*
X1370Y1649D02*
X1405Y1649D01*
X1436Y1649D02*
X1471Y1649D01*
X473Y1648D02*
X510Y1648D01*
X539Y1648D02*
X574Y1648D01*
X1370Y1648D02*
X1406Y1648D01*
X1435Y1648D02*
X1471Y1648D01*
X474Y1647D02*
X510Y1647D01*
X539Y1647D02*
X574Y1647D01*
X1371Y1647D02*
X1406Y1647D01*
X1435Y1647D02*
X1471Y1647D01*
X474Y1646D02*
X511Y1646D01*
X538Y1646D02*
X574Y1646D01*
X1371Y1646D02*
X1407Y1646D01*
X1434Y1646D02*
X1471Y1646D01*
X474Y1645D02*
X512Y1645D01*
X537Y1645D02*
X573Y1645D01*
X1371Y1645D02*
X1408Y1645D01*
X1434Y1645D02*
X1470Y1645D01*
X475Y1644D02*
X513Y1644D01*
X537Y1644D02*
X573Y1644D01*
X1372Y1644D02*
X1409Y1644D01*
X1433Y1644D02*
X1470Y1644D01*
X475Y1643D02*
X514Y1643D01*
X535Y1643D02*
X572Y1643D01*
X1372Y1643D02*
X1410Y1643D01*
X1432Y1643D02*
X1469Y1643D01*
X476Y1642D02*
X515Y1642D01*
X534Y1642D02*
X572Y1642D01*
X1373Y1642D02*
X1411Y1642D01*
X1430Y1642D02*
X1469Y1642D01*
X476Y1641D02*
X517Y1641D01*
X532Y1641D02*
X571Y1641D01*
X1373Y1641D02*
X1413Y1641D01*
X1429Y1641D02*
X1468Y1641D01*
X477Y1640D02*
X519Y1640D01*
X530Y1640D02*
X570Y1640D01*
X1374Y1640D02*
X1415Y1640D01*
X1426Y1640D02*
X1467Y1640D01*
X478Y1639D02*
X570Y1639D01*
X1375Y1639D02*
X1467Y1639D01*
X479Y1638D02*
X569Y1638D01*
X1376Y1638D02*
X1466Y1638D01*
X480Y1637D02*
X568Y1637D01*
X1377Y1637D02*
X1465Y1637D01*
X481Y1636D02*
X567Y1636D01*
X1378Y1636D02*
X1464Y1636D01*
X482Y1635D02*
X566Y1635D01*
X1379Y1635D02*
X1463Y1635D01*
X483Y1634D02*
X564Y1634D01*
X1380Y1634D02*
X1461Y1634D01*
X485Y1633D02*
X563Y1633D01*
X1382Y1633D02*
X1460Y1633D01*
X486Y1632D02*
X561Y1632D01*
X1383Y1632D02*
X1458Y1632D01*
X488Y1631D02*
X559Y1631D01*
X1385Y1631D02*
X1456Y1631D01*
X491Y1630D02*
X556Y1630D01*
X1388Y1630D02*
X1453Y1630D01*
X498Y1581D02*
X549Y1581D01*
X1395Y1581D02*
X1446Y1581D01*
X491Y1580D02*
X556Y1580D01*
X1388Y1580D02*
X1453Y1580D01*
X488Y1579D02*
X559Y1579D01*
X1385Y1579D02*
X1456Y1579D01*
X486Y1578D02*
X561Y1578D01*
X1383Y1578D02*
X1458Y1578D01*
X485Y1577D02*
X563Y1577D01*
X1382Y1577D02*
X1460Y1577D01*
X483Y1576D02*
X564Y1576D01*
X1380Y1576D02*
X1461Y1576D01*
X482Y1575D02*
X566Y1575D01*
X1379Y1575D02*
X1463Y1575D01*
X481Y1574D02*
X567Y1574D01*
X1378Y1574D02*
X1464Y1574D01*
X480Y1573D02*
X568Y1573D01*
X1377Y1573D02*
X1465Y1573D01*
X479Y1572D02*
X569Y1572D01*
X1376Y1572D02*
X1466Y1572D01*
X478Y1571D02*
X523Y1571D01*
X526Y1571D02*
X570Y1571D01*
X1375Y1571D02*
X1420Y1571D01*
X1422Y1571D02*
X1467Y1571D01*
X477Y1570D02*
X518Y1570D01*
X531Y1570D02*
X570Y1570D01*
X1374Y1570D02*
X1415Y1570D01*
X1427Y1570D02*
X1467Y1570D01*
X476Y1569D02*
X516Y1569D01*
X533Y1569D02*
X571Y1569D01*
X1373Y1569D02*
X1413Y1569D01*
X1429Y1569D02*
X1468Y1569D01*
X476Y1568D02*
X515Y1568D01*
X534Y1568D02*
X572Y1568D01*
X1373Y1568D02*
X1411Y1568D01*
X1431Y1568D02*
X1469Y1568D01*
X475Y1567D02*
X513Y1567D01*
X536Y1567D02*
X572Y1567D01*
X1372Y1567D02*
X1410Y1567D01*
X1432Y1567D02*
X1469Y1567D01*
X475Y1566D02*
X512Y1566D01*
X537Y1566D02*
X573Y1566D01*
X1372Y1566D02*
X1409Y1566D01*
X1433Y1566D02*
X1470Y1566D01*
X474Y1565D02*
X512Y1565D01*
X537Y1565D02*
X573Y1565D01*
X1371Y1565D02*
X1408Y1565D01*
X1434Y1565D02*
X1470Y1565D01*
X474Y1564D02*
X511Y1564D01*
X538Y1564D02*
X574Y1564D01*
X1371Y1564D02*
X1407Y1564D01*
X1434Y1564D02*
X1471Y1564D01*
X474Y1563D02*
X510Y1563D01*
X539Y1563D02*
X574Y1563D01*
X1371Y1563D02*
X1406Y1563D01*
X1435Y1563D02*
X1471Y1563D01*
X473Y1562D02*
X510Y1562D01*
X539Y1562D02*
X574Y1562D01*
X1370Y1562D02*
X1406Y1562D01*
X1436Y1562D02*
X1471Y1562D01*
X473Y1561D02*
X509Y1561D01*
X540Y1561D02*
X575Y1561D01*
X1370Y1561D02*
X1405Y1561D01*
X1436Y1561D02*
X1471Y1561D01*
X473Y1560D02*
X509Y1560D01*
X540Y1560D02*
X575Y1560D01*
X1370Y1560D02*
X1405Y1560D01*
X1436Y1560D02*
X1472Y1560D01*
X473Y1559D02*
X509Y1559D01*
X540Y1559D02*
X575Y1559D01*
X1370Y1559D02*
X1405Y1559D01*
X1437Y1559D02*
X1472Y1559D01*
X473Y1558D02*
X508Y1558D01*
X541Y1558D02*
X575Y1558D01*
X1369Y1558D02*
X1405Y1558D01*
X1437Y1558D02*
X1472Y1558D01*
X472Y1557D02*
X508Y1557D01*
X541Y1557D02*
X575Y1557D01*
X1369Y1557D02*
X1404Y1557D01*
X1437Y1557D02*
X1472Y1557D01*
X472Y1556D02*
X508Y1556D01*
X541Y1556D02*
X575Y1556D01*
X1369Y1556D02*
X1404Y1556D01*
X1437Y1556D02*
X1472Y1556D01*
X472Y1555D02*
X508Y1555D01*
X541Y1555D02*
X575Y1555D01*
X1369Y1555D02*
X1404Y1555D01*
X1437Y1555D02*
X1472Y1555D01*
X472Y1554D02*
X508Y1554D01*
X541Y1554D02*
X575Y1554D01*
X1369Y1554D02*
X1404Y1554D01*
X1437Y1554D02*
X1472Y1554D01*
X472Y1553D02*
X508Y1553D01*
X541Y1553D02*
X575Y1553D01*
X1369Y1553D02*
X1404Y1553D01*
X1437Y1553D02*
X1472Y1553D01*
X473Y1552D02*
X508Y1552D01*
X541Y1552D02*
X575Y1552D01*
X1369Y1552D02*
X1405Y1552D01*
X1437Y1552D02*
X1472Y1552D01*
X473Y1551D02*
X509Y1551D01*
X540Y1551D02*
X575Y1551D01*
X1370Y1551D02*
X1405Y1551D01*
X1437Y1551D02*
X1472Y1551D01*
X473Y1550D02*
X509Y1550D01*
X540Y1550D02*
X575Y1550D01*
X1370Y1550D02*
X1405Y1550D01*
X1436Y1550D02*
X1472Y1550D01*
X473Y1549D02*
X509Y1549D01*
X540Y1549D02*
X575Y1549D01*
X1370Y1549D02*
X1405Y1549D01*
X1436Y1549D02*
X1471Y1549D01*
X473Y1548D02*
X510Y1548D01*
X539Y1548D02*
X574Y1548D01*
X1370Y1548D02*
X1406Y1548D01*
X1435Y1548D02*
X1471Y1548D01*
X474Y1547D02*
X510Y1547D01*
X539Y1547D02*
X574Y1547D01*
X1371Y1547D02*
X1406Y1547D01*
X1435Y1547D02*
X1471Y1547D01*
X474Y1546D02*
X511Y1546D01*
X538Y1546D02*
X574Y1546D01*
X1371Y1546D02*
X1407Y1546D01*
X1434Y1546D02*
X1471Y1546D01*
X474Y1545D02*
X512Y1545D01*
X537Y1545D02*
X573Y1545D01*
X1371Y1545D02*
X1408Y1545D01*
X1434Y1545D02*
X1470Y1545D01*
X475Y1544D02*
X513Y1544D01*
X537Y1544D02*
X573Y1544D01*
X1372Y1544D02*
X1409Y1544D01*
X1433Y1544D02*
X1470Y1544D01*
X475Y1543D02*
X514Y1543D01*
X535Y1543D02*
X572Y1543D01*
X1372Y1543D02*
X1410Y1543D01*
X1432Y1543D02*
X1469Y1543D01*
X476Y1542D02*
X515Y1542D01*
X534Y1542D02*
X572Y1542D01*
X1373Y1542D02*
X1411Y1542D01*
X1430Y1542D02*
X1469Y1542D01*
X476Y1541D02*
X517Y1541D01*
X532Y1541D02*
X571Y1541D01*
X1373Y1541D02*
X1413Y1541D01*
X1429Y1541D02*
X1468Y1541D01*
X477Y1540D02*
X519Y1540D01*
X530Y1540D02*
X570Y1540D01*
X1374Y1540D02*
X1415Y1540D01*
X1426Y1540D02*
X1467Y1540D01*
X478Y1539D02*
X570Y1539D01*
X1375Y1539D02*
X1467Y1539D01*
X479Y1538D02*
X569Y1538D01*
X1376Y1538D02*
X1466Y1538D01*
X480Y1537D02*
X568Y1537D01*
X1377Y1537D02*
X1465Y1537D01*
X481Y1536D02*
X567Y1536D01*
X1378Y1536D02*
X1464Y1536D01*
X482Y1535D02*
X566Y1535D01*
X1379Y1535D02*
X1463Y1535D01*
X483Y1534D02*
X564Y1534D01*
X1380Y1534D02*
X1461Y1534D01*
X485Y1533D02*
X563Y1533D01*
X1382Y1533D02*
X1460Y1533D01*
X486Y1532D02*
X561Y1532D01*
X1383Y1532D02*
X1458Y1532D01*
X488Y1531D02*
X559Y1531D01*
X1385Y1531D02*
X1456Y1531D01*
X491Y1530D02*
X556Y1530D01*
X1388Y1530D02*
X1453Y1530D01*
X492Y1480D02*
X556Y1480D01*
X1389Y1480D02*
X1453Y1480D01*
X489Y1479D02*
X559Y1479D01*
X1386Y1479D02*
X1456Y1479D01*
X487Y1478D02*
X561Y1478D01*
X1384Y1478D02*
X1458Y1478D01*
X485Y1477D02*
X563Y1477D01*
X1382Y1477D02*
X1460Y1477D01*
X483Y1476D02*
X564Y1476D01*
X1380Y1476D02*
X1461Y1476D01*
X482Y1475D02*
X566Y1475D01*
X1379Y1475D02*
X1463Y1475D01*
X481Y1474D02*
X567Y1474D01*
X1378Y1474D02*
X1464Y1474D01*
X480Y1473D02*
X568Y1473D01*
X1377Y1473D02*
X1465Y1473D01*
X479Y1472D02*
X569Y1472D01*
X1376Y1472D02*
X1466Y1472D01*
X478Y1471D02*
X570Y1471D01*
X1375Y1471D02*
X1466Y1471D01*
X477Y1470D02*
X519Y1470D01*
X530Y1470D02*
X570Y1470D01*
X1374Y1470D02*
X1415Y1470D01*
X1426Y1470D02*
X1467Y1470D01*
X477Y1469D02*
X517Y1469D01*
X533Y1469D02*
X571Y1469D01*
X1373Y1469D02*
X1413Y1469D01*
X1429Y1469D02*
X1468Y1469D01*
X476Y1468D02*
X515Y1468D01*
X534Y1468D02*
X572Y1468D01*
X1373Y1468D02*
X1411Y1468D01*
X1430Y1468D02*
X1469Y1468D01*
X476Y1467D02*
X514Y1467D01*
X536Y1467D02*
X572Y1467D01*
X1372Y1467D02*
X1410Y1467D01*
X1432Y1467D02*
X1469Y1467D01*
X475Y1466D02*
X513Y1466D01*
X537Y1466D02*
X573Y1466D01*
X1372Y1466D02*
X1409Y1466D01*
X1433Y1466D02*
X1470Y1466D01*
X474Y1465D02*
X512Y1465D01*
X537Y1465D02*
X573Y1465D01*
X1371Y1465D02*
X1408Y1465D01*
X1434Y1465D02*
X1470Y1465D01*
X474Y1464D02*
X511Y1464D01*
X538Y1464D02*
X574Y1464D01*
X1371Y1464D02*
X1407Y1464D01*
X1434Y1464D02*
X1471Y1464D01*
X474Y1463D02*
X510Y1463D01*
X539Y1463D02*
X574Y1463D01*
X1371Y1463D02*
X1406Y1463D01*
X1435Y1463D02*
X1471Y1463D01*
X473Y1462D02*
X510Y1462D01*
X539Y1462D02*
X574Y1462D01*
X1370Y1462D02*
X1406Y1462D01*
X1436Y1462D02*
X1471Y1462D01*
X473Y1461D02*
X509Y1461D01*
X540Y1461D02*
X575Y1461D01*
X1370Y1461D02*
X1405Y1461D01*
X1436Y1461D02*
X1471Y1461D01*
X473Y1460D02*
X509Y1460D01*
X540Y1460D02*
X575Y1460D01*
X1370Y1460D02*
X1405Y1460D01*
X1436Y1460D02*
X1472Y1460D01*
X473Y1459D02*
X509Y1459D01*
X541Y1459D02*
X575Y1459D01*
X1370Y1459D02*
X1405Y1459D01*
X1437Y1459D02*
X1472Y1459D01*
X473Y1458D02*
X508Y1458D01*
X541Y1458D02*
X575Y1458D01*
X1369Y1458D02*
X1405Y1458D01*
X1437Y1458D02*
X1472Y1458D01*
X473Y1457D02*
X508Y1457D01*
X541Y1457D02*
X575Y1457D01*
X1369Y1457D02*
X1404Y1457D01*
X1437Y1457D02*
X1472Y1457D01*
X472Y1456D02*
X508Y1456D01*
X541Y1456D02*
X575Y1456D01*
X1369Y1456D02*
X1404Y1456D01*
X1437Y1456D02*
X1472Y1456D01*
X472Y1455D02*
X508Y1455D01*
X541Y1455D02*
X575Y1455D01*
X1369Y1455D02*
X1404Y1455D01*
X1437Y1455D02*
X1472Y1455D01*
X472Y1454D02*
X508Y1454D01*
X541Y1454D02*
X575Y1454D01*
X1369Y1454D02*
X1404Y1454D01*
X1437Y1454D02*
X1472Y1454D01*
X473Y1453D02*
X508Y1453D01*
X541Y1453D02*
X575Y1453D01*
X1369Y1453D02*
X1404Y1453D01*
X1437Y1453D02*
X1472Y1453D01*
X473Y1452D02*
X508Y1452D01*
X541Y1452D02*
X575Y1452D01*
X1369Y1452D02*
X1405Y1452D01*
X1437Y1452D02*
X1472Y1452D01*
X473Y1451D02*
X509Y1451D01*
X541Y1451D02*
X575Y1451D01*
X1370Y1451D02*
X1405Y1451D01*
X1437Y1451D02*
X1472Y1451D01*
X473Y1450D02*
X509Y1450D01*
X540Y1450D02*
X575Y1450D01*
X1370Y1450D02*
X1405Y1450D01*
X1436Y1450D02*
X1472Y1450D01*
X473Y1449D02*
X509Y1449D01*
X540Y1449D02*
X575Y1449D01*
X1370Y1449D02*
X1405Y1449D01*
X1436Y1449D02*
X1472Y1449D01*
X473Y1448D02*
X510Y1448D01*
X539Y1448D02*
X574Y1448D01*
X1370Y1448D02*
X1406Y1448D01*
X1436Y1448D02*
X1471Y1448D01*
X474Y1447D02*
X510Y1447D01*
X539Y1447D02*
X574Y1447D01*
X1371Y1447D02*
X1406Y1447D01*
X1435Y1447D02*
X1471Y1447D01*
X474Y1446D02*
X511Y1446D01*
X538Y1446D02*
X574Y1446D01*
X1371Y1446D02*
X1407Y1446D01*
X1434Y1446D02*
X1471Y1446D01*
X474Y1445D02*
X512Y1445D01*
X538Y1445D02*
X573Y1445D01*
X1371Y1445D02*
X1408Y1445D01*
X1434Y1445D02*
X1470Y1445D01*
X475Y1444D02*
X513Y1444D01*
X537Y1444D02*
X573Y1444D01*
X1372Y1444D02*
X1409Y1444D01*
X1433Y1444D02*
X1470Y1444D01*
X475Y1443D02*
X514Y1443D01*
X536Y1443D02*
X572Y1443D01*
X1372Y1443D02*
X1410Y1443D01*
X1432Y1443D02*
X1469Y1443D01*
X476Y1442D02*
X515Y1442D01*
X534Y1442D02*
X572Y1442D01*
X1373Y1442D02*
X1411Y1442D01*
X1431Y1442D02*
X1469Y1442D01*
X476Y1441D02*
X516Y1441D01*
X533Y1441D02*
X571Y1441D01*
X1373Y1441D02*
X1413Y1441D01*
X1429Y1441D02*
X1468Y1441D01*
X477Y1440D02*
X519Y1440D01*
X531Y1440D02*
X571Y1440D01*
X1374Y1440D02*
X1415Y1440D01*
X1427Y1440D02*
X1467Y1440D01*
X478Y1439D02*
X524Y1439D01*
X526Y1439D02*
X570Y1439D01*
X1375Y1439D02*
X1420Y1439D01*
X1422Y1439D02*
X1467Y1439D01*
X479Y1438D02*
X569Y1438D01*
X1376Y1438D02*
X1466Y1438D01*
X480Y1437D02*
X568Y1437D01*
X1376Y1437D02*
X1465Y1437D01*
X481Y1436D02*
X567Y1436D01*
X1378Y1436D02*
X1464Y1436D01*
X482Y1435D02*
X566Y1435D01*
X1379Y1435D02*
X1463Y1435D01*
X483Y1434D02*
X565Y1434D01*
X1380Y1434D02*
X1462Y1434D01*
X485Y1433D02*
X563Y1433D01*
X1381Y1433D02*
X1460Y1433D01*
X486Y1432D02*
X561Y1432D01*
X1383Y1432D02*
X1458Y1432D01*
X488Y1431D02*
X560Y1431D01*
X1385Y1431D02*
X1456Y1431D01*
X491Y1430D02*
X557Y1430D01*
X1388Y1430D02*
X1454Y1430D01*
X496Y1429D02*
X551Y1429D01*
X1393Y1429D02*
X1448Y1429D01*
X492Y1380D02*
X556Y1380D01*
X1389Y1380D02*
X1453Y1380D01*
X489Y1379D02*
X559Y1379D01*
X1386Y1379D02*
X1456Y1379D01*
X487Y1378D02*
X561Y1378D01*
X1384Y1378D02*
X1458Y1378D01*
X485Y1377D02*
X563Y1377D01*
X1382Y1377D02*
X1460Y1377D01*
X483Y1376D02*
X564Y1376D01*
X1380Y1376D02*
X1461Y1376D01*
X482Y1375D02*
X566Y1375D01*
X1379Y1375D02*
X1463Y1375D01*
X481Y1374D02*
X567Y1374D01*
X1378Y1374D02*
X1464Y1374D01*
X480Y1373D02*
X568Y1373D01*
X1377Y1373D02*
X1465Y1373D01*
X479Y1372D02*
X569Y1372D01*
X1376Y1372D02*
X1466Y1372D01*
X478Y1371D02*
X570Y1371D01*
X1375Y1371D02*
X1466Y1371D01*
X477Y1370D02*
X519Y1370D01*
X531Y1370D02*
X570Y1370D01*
X1374Y1370D02*
X1415Y1370D01*
X1427Y1370D02*
X1467Y1370D01*
X477Y1369D02*
X516Y1369D01*
X533Y1369D02*
X571Y1369D01*
X1373Y1369D02*
X1412Y1369D01*
X1429Y1369D02*
X1468Y1369D01*
X476Y1368D02*
X515Y1368D01*
X534Y1368D02*
X572Y1368D01*
X1373Y1368D02*
X1411Y1368D01*
X1431Y1368D02*
X1469Y1368D01*
X475Y1367D02*
X513Y1367D01*
X536Y1367D02*
X572Y1367D01*
X1372Y1367D02*
X1410Y1367D01*
X1432Y1367D02*
X1469Y1367D01*
X475Y1366D02*
X512Y1366D01*
X537Y1366D02*
X573Y1366D01*
X1372Y1366D02*
X1409Y1366D01*
X1433Y1366D02*
X1470Y1366D01*
X474Y1365D02*
X511Y1365D01*
X538Y1365D02*
X573Y1365D01*
X1371Y1365D02*
X1408Y1365D01*
X1434Y1365D02*
X1470Y1365D01*
X474Y1364D02*
X511Y1364D01*
X538Y1364D02*
X574Y1364D01*
X1371Y1364D02*
X1407Y1364D01*
X1435Y1364D02*
X1471Y1364D01*
X474Y1363D02*
X510Y1363D01*
X539Y1363D02*
X574Y1363D01*
X1371Y1363D02*
X1406Y1363D01*
X1435Y1363D02*
X1471Y1363D01*
X473Y1362D02*
X510Y1362D01*
X540Y1362D02*
X574Y1362D01*
X1370Y1362D02*
X1406Y1362D01*
X1436Y1362D02*
X1471Y1362D01*
X473Y1361D02*
X509Y1361D01*
X540Y1361D02*
X575Y1361D01*
X1370Y1361D02*
X1405Y1361D01*
X1436Y1361D02*
X1471Y1361D01*
X473Y1360D02*
X509Y1360D01*
X540Y1360D02*
X575Y1360D01*
X1370Y1360D02*
X1405Y1360D01*
X1437Y1360D02*
X1472Y1360D01*
X473Y1359D02*
X508Y1359D01*
X541Y1359D02*
X575Y1359D01*
X1370Y1359D02*
X1405Y1359D01*
X1437Y1359D02*
X1472Y1359D01*
X473Y1358D02*
X508Y1358D01*
X541Y1358D02*
X575Y1358D01*
X1369Y1358D02*
X1404Y1358D01*
X1437Y1358D02*
X1472Y1358D01*
X472Y1357D02*
X508Y1357D01*
X541Y1357D02*
X575Y1357D01*
X1369Y1357D02*
X1404Y1357D01*
X1437Y1357D02*
X1472Y1357D01*
X472Y1356D02*
X508Y1356D01*
X541Y1356D02*
X575Y1356D01*
X1369Y1356D02*
X1404Y1356D01*
X1437Y1356D02*
X1472Y1356D01*
X472Y1355D02*
X508Y1355D01*
X541Y1355D02*
X575Y1355D01*
X1369Y1355D02*
X1404Y1355D01*
X1437Y1355D02*
X1472Y1355D01*
X472Y1354D02*
X508Y1354D01*
X541Y1354D02*
X575Y1354D01*
X1369Y1354D02*
X1404Y1354D01*
X1437Y1354D02*
X1472Y1354D01*
X472Y1353D02*
X508Y1353D01*
X541Y1353D02*
X575Y1353D01*
X1369Y1353D02*
X1404Y1353D01*
X1437Y1353D02*
X1472Y1353D01*
X473Y1352D02*
X508Y1352D01*
X541Y1352D02*
X575Y1352D01*
X1369Y1352D02*
X1404Y1352D01*
X1437Y1352D02*
X1472Y1352D01*
X473Y1351D02*
X508Y1351D01*
X541Y1351D02*
X575Y1351D01*
X1370Y1351D02*
X1405Y1351D01*
X1437Y1351D02*
X1472Y1351D01*
X473Y1350D02*
X509Y1350D01*
X540Y1350D02*
X575Y1350D01*
X1370Y1350D02*
X1405Y1350D01*
X1437Y1350D02*
X1472Y1350D01*
X473Y1349D02*
X509Y1349D01*
X540Y1349D02*
X575Y1349D01*
X1370Y1349D02*
X1405Y1349D01*
X1436Y1349D02*
X1472Y1349D01*
X473Y1348D02*
X509Y1348D01*
X540Y1348D02*
X574Y1348D01*
X1370Y1348D02*
X1406Y1348D01*
X1436Y1348D02*
X1471Y1348D01*
X474Y1347D02*
X510Y1347D01*
X539Y1347D02*
X574Y1347D01*
X1371Y1347D02*
X1406Y1347D01*
X1435Y1347D02*
X1471Y1347D01*
X474Y1346D02*
X511Y1346D01*
X538Y1346D02*
X574Y1346D01*
X1371Y1346D02*
X1407Y1346D01*
X1435Y1346D02*
X1471Y1346D01*
X474Y1345D02*
X511Y1345D01*
X538Y1345D02*
X573Y1345D01*
X1371Y1345D02*
X1408Y1345D01*
X1434Y1345D02*
X1470Y1345D01*
X475Y1344D02*
X512Y1344D01*
X537Y1344D02*
X573Y1344D01*
X1372Y1344D02*
X1408Y1344D01*
X1433Y1344D02*
X1470Y1344D01*
X475Y1343D02*
X513Y1343D01*
X536Y1343D02*
X572Y1343D01*
X1372Y1343D02*
X1409Y1343D01*
X1432Y1343D02*
X1469Y1343D01*
X476Y1342D02*
X515Y1342D01*
X535Y1342D02*
X572Y1342D01*
X1373Y1342D02*
X1411Y1342D01*
X1431Y1342D02*
X1469Y1342D01*
X476Y1341D02*
X516Y1341D01*
X533Y1341D02*
X571Y1341D01*
X1373Y1341D02*
X1412Y1341D01*
X1429Y1341D02*
X1468Y1341D01*
X477Y1340D02*
X518Y1340D01*
X531Y1340D02*
X571Y1340D01*
X1374Y1340D02*
X1414Y1340D01*
X1427Y1340D02*
X1467Y1340D01*
X478Y1339D02*
X523Y1339D01*
X526Y1339D02*
X570Y1339D01*
X1375Y1339D02*
X1420Y1339D01*
X1422Y1339D02*
X1467Y1339D01*
X479Y1338D02*
X569Y1338D01*
X1376Y1338D02*
X1466Y1338D01*
X480Y1337D02*
X568Y1337D01*
X1376Y1337D02*
X1465Y1337D01*
X481Y1336D02*
X567Y1336D01*
X1378Y1336D02*
X1464Y1336D01*
X482Y1335D02*
X566Y1335D01*
X1379Y1335D02*
X1463Y1335D01*
X483Y1334D02*
X565Y1334D01*
X1380Y1334D02*
X1462Y1334D01*
X484Y1333D02*
X563Y1333D01*
X1381Y1333D02*
X1460Y1333D01*
X486Y1332D02*
X561Y1332D01*
X1383Y1332D02*
X1458Y1332D01*
X488Y1331D02*
X559Y1331D01*
X1385Y1331D02*
X1456Y1331D01*
X491Y1330D02*
X557Y1330D01*
X1388Y1330D02*
X1454Y1330D01*
X496Y1329D02*
X551Y1329D01*
X1393Y1329D02*
X1448Y1329D01*
X492Y1280D02*
X556Y1280D01*
X1389Y1280D02*
X1453Y1280D01*
X489Y1279D02*
X559Y1279D01*
X1386Y1279D02*
X1456Y1279D01*
X487Y1278D02*
X561Y1278D01*
X1384Y1278D02*
X1458Y1278D01*
X485Y1277D02*
X563Y1277D01*
X1382Y1277D02*
X1460Y1277D01*
X483Y1276D02*
X564Y1276D01*
X1380Y1276D02*
X1461Y1276D01*
X482Y1275D02*
X566Y1275D01*
X1379Y1275D02*
X1463Y1275D01*
X481Y1274D02*
X567Y1274D01*
X1378Y1274D02*
X1464Y1274D01*
X480Y1273D02*
X568Y1273D01*
X1377Y1273D02*
X1465Y1273D01*
X479Y1272D02*
X569Y1272D01*
X1376Y1272D02*
X1466Y1272D01*
X478Y1271D02*
X570Y1271D01*
X1375Y1271D02*
X1466Y1271D01*
X477Y1270D02*
X519Y1270D01*
X531Y1270D02*
X570Y1270D01*
X1374Y1270D02*
X1415Y1270D01*
X1427Y1270D02*
X1467Y1270D01*
X476Y1269D02*
X516Y1269D01*
X533Y1269D02*
X571Y1269D01*
X1373Y1269D02*
X1412Y1269D01*
X1429Y1269D02*
X1468Y1269D01*
X476Y1268D02*
X515Y1268D01*
X534Y1268D02*
X572Y1268D01*
X1373Y1268D02*
X1411Y1268D01*
X1431Y1268D02*
X1469Y1268D01*
X475Y1267D02*
X513Y1267D01*
X536Y1267D02*
X572Y1267D01*
X1372Y1267D02*
X1410Y1267D01*
X1432Y1267D02*
X1469Y1267D01*
X475Y1266D02*
X512Y1266D01*
X537Y1266D02*
X573Y1266D01*
X1372Y1266D02*
X1409Y1266D01*
X1433Y1266D02*
X1470Y1266D01*
X474Y1265D02*
X511Y1265D01*
X538Y1265D02*
X573Y1265D01*
X1371Y1265D02*
X1408Y1265D01*
X1434Y1265D02*
X1470Y1265D01*
X474Y1264D02*
X511Y1264D01*
X538Y1264D02*
X574Y1264D01*
X1371Y1264D02*
X1407Y1264D01*
X1435Y1264D02*
X1471Y1264D01*
X474Y1263D02*
X510Y1263D01*
X539Y1263D02*
X574Y1263D01*
X1371Y1263D02*
X1406Y1263D01*
X1435Y1263D02*
X1471Y1263D01*
X473Y1262D02*
X510Y1262D01*
X540Y1262D02*
X574Y1262D01*
X1370Y1262D02*
X1406Y1262D01*
X1436Y1262D02*
X1471Y1262D01*
X473Y1261D02*
X509Y1261D01*
X540Y1261D02*
X575Y1261D01*
X1370Y1261D02*
X1405Y1261D01*
X1436Y1261D02*
X1471Y1261D01*
X473Y1260D02*
X509Y1260D01*
X540Y1260D02*
X575Y1260D01*
X1370Y1260D02*
X1405Y1260D01*
X1437Y1260D02*
X1472Y1260D01*
X473Y1259D02*
X508Y1259D01*
X541Y1259D02*
X575Y1259D01*
X1370Y1259D02*
X1405Y1259D01*
X1437Y1259D02*
X1472Y1259D01*
X472Y1258D02*
X508Y1258D01*
X541Y1258D02*
X575Y1258D01*
X1369Y1258D02*
X1404Y1258D01*
X1437Y1258D02*
X1472Y1258D01*
X472Y1257D02*
X508Y1257D01*
X541Y1257D02*
X575Y1257D01*
X1369Y1257D02*
X1404Y1257D01*
X1437Y1257D02*
X1472Y1257D01*
X472Y1256D02*
X508Y1256D01*
X541Y1256D02*
X575Y1256D01*
X1369Y1256D02*
X1404Y1256D01*
X1437Y1256D02*
X1472Y1256D01*
X472Y1255D02*
X508Y1255D01*
X541Y1255D02*
X575Y1255D01*
X1369Y1255D02*
X1404Y1255D01*
X1437Y1255D02*
X1472Y1255D01*
X472Y1254D02*
X508Y1254D01*
X541Y1254D02*
X575Y1254D01*
X1369Y1254D02*
X1404Y1254D01*
X1437Y1254D02*
X1472Y1254D01*
X472Y1253D02*
X508Y1253D01*
X541Y1253D02*
X575Y1253D01*
X1369Y1253D02*
X1404Y1253D01*
X1437Y1253D02*
X1472Y1253D01*
X472Y1252D02*
X508Y1252D01*
X541Y1252D02*
X575Y1252D01*
X1369Y1252D02*
X1404Y1252D01*
X1437Y1252D02*
X1472Y1252D01*
X473Y1251D02*
X508Y1251D01*
X541Y1251D02*
X575Y1251D01*
X1370Y1251D02*
X1405Y1251D01*
X1437Y1251D02*
X1472Y1251D01*
X473Y1250D02*
X509Y1250D01*
X540Y1250D02*
X575Y1250D01*
X1370Y1250D02*
X1405Y1250D01*
X1437Y1250D02*
X1472Y1250D01*
X473Y1249D02*
X509Y1249D01*
X540Y1249D02*
X575Y1249D01*
X1370Y1249D02*
X1405Y1249D01*
X1436Y1249D02*
X1472Y1249D01*
X473Y1248D02*
X509Y1248D01*
X540Y1248D02*
X574Y1248D01*
X1370Y1248D02*
X1406Y1248D01*
X1436Y1248D02*
X1471Y1248D01*
X474Y1247D02*
X510Y1247D01*
X539Y1247D02*
X574Y1247D01*
X1371Y1247D02*
X1406Y1247D01*
X1435Y1247D02*
X1471Y1247D01*
X474Y1246D02*
X511Y1246D01*
X538Y1246D02*
X574Y1246D01*
X1371Y1246D02*
X1407Y1246D01*
X1435Y1246D02*
X1471Y1246D01*
X474Y1245D02*
X511Y1245D01*
X538Y1245D02*
X573Y1245D01*
X1371Y1245D02*
X1408Y1245D01*
X1434Y1245D02*
X1470Y1245D01*
X475Y1244D02*
X512Y1244D01*
X537Y1244D02*
X573Y1244D01*
X1372Y1244D02*
X1408Y1244D01*
X1433Y1244D02*
X1470Y1244D01*
X475Y1243D02*
X513Y1243D01*
X536Y1243D02*
X572Y1243D01*
X1372Y1243D02*
X1409Y1243D01*
X1432Y1243D02*
X1469Y1243D01*
X476Y1242D02*
X514Y1242D01*
X535Y1242D02*
X572Y1242D01*
X1373Y1242D02*
X1411Y1242D01*
X1431Y1242D02*
X1469Y1242D01*
X476Y1241D02*
X516Y1241D01*
X533Y1241D02*
X571Y1241D01*
X1373Y1241D02*
X1412Y1241D01*
X1429Y1241D02*
X1468Y1241D01*
X477Y1240D02*
X518Y1240D01*
X531Y1240D02*
X571Y1240D01*
X1374Y1240D02*
X1414Y1240D01*
X1427Y1240D02*
X1467Y1240D01*
X478Y1239D02*
X523Y1239D01*
X526Y1239D02*
X570Y1239D01*
X1375Y1239D02*
X1420Y1239D01*
X1422Y1239D02*
X1467Y1239D01*
X479Y1238D02*
X569Y1238D01*
X1376Y1238D02*
X1466Y1238D01*
X479Y1237D02*
X568Y1237D01*
X1376Y1237D02*
X1465Y1237D01*
X481Y1236D02*
X567Y1236D01*
X1378Y1236D02*
X1464Y1236D01*
X482Y1235D02*
X566Y1235D01*
X1379Y1235D02*
X1463Y1235D01*
X483Y1234D02*
X565Y1234D01*
X1380Y1234D02*
X1462Y1234D01*
X484Y1233D02*
X563Y1233D01*
X1381Y1233D02*
X1460Y1233D01*
X486Y1232D02*
X561Y1232D01*
X1383Y1232D02*
X1458Y1232D01*
X488Y1231D02*
X559Y1231D01*
X1385Y1231D02*
X1456Y1231D01*
X491Y1230D02*
X557Y1230D01*
X1388Y1230D02*
X1454Y1230D01*
X496Y1229D02*
X551Y1229D01*
X1393Y1229D02*
X1448Y1229D01*
X492Y1180D02*
X556Y1180D01*
X1389Y1180D02*
X1453Y1180D01*
X489Y1179D02*
X559Y1179D01*
X1386Y1179D02*
X1456Y1179D01*
X487Y1178D02*
X561Y1178D01*
X1384Y1178D02*
X1458Y1178D01*
X485Y1177D02*
X563Y1177D01*
X1382Y1177D02*
X1460Y1177D01*
X483Y1176D02*
X564Y1176D01*
X1380Y1176D02*
X1461Y1176D01*
X482Y1175D02*
X566Y1175D01*
X1379Y1175D02*
X1463Y1175D01*
X481Y1174D02*
X567Y1174D01*
X1378Y1174D02*
X1464Y1174D01*
X480Y1173D02*
X568Y1173D01*
X1377Y1173D02*
X1465Y1173D01*
X479Y1172D02*
X569Y1172D01*
X1376Y1172D02*
X1466Y1172D01*
X478Y1171D02*
X570Y1171D01*
X1375Y1171D02*
X1466Y1171D01*
X477Y1170D02*
X519Y1170D01*
X531Y1170D02*
X570Y1170D01*
X1374Y1170D02*
X1415Y1170D01*
X1427Y1170D02*
X1467Y1170D01*
X477Y1169D02*
X516Y1169D01*
X533Y1169D02*
X571Y1169D01*
X1373Y1169D02*
X1412Y1169D01*
X1429Y1169D02*
X1468Y1169D01*
X476Y1168D02*
X515Y1168D01*
X534Y1168D02*
X572Y1168D01*
X1373Y1168D02*
X1411Y1168D01*
X1431Y1168D02*
X1469Y1168D01*
X475Y1167D02*
X513Y1167D01*
X536Y1167D02*
X572Y1167D01*
X1372Y1167D02*
X1410Y1167D01*
X1432Y1167D02*
X1469Y1167D01*
X475Y1166D02*
X512Y1166D01*
X537Y1166D02*
X573Y1166D01*
X1372Y1166D02*
X1408Y1166D01*
X1433Y1166D02*
X1470Y1166D01*
X474Y1165D02*
X511Y1165D01*
X538Y1165D02*
X573Y1165D01*
X1371Y1165D02*
X1408Y1165D01*
X1434Y1165D02*
X1470Y1165D01*
X474Y1164D02*
X511Y1164D01*
X538Y1164D02*
X574Y1164D01*
X1371Y1164D02*
X1407Y1164D01*
X1435Y1164D02*
X1471Y1164D01*
X474Y1163D02*
X510Y1163D01*
X539Y1163D02*
X574Y1163D01*
X1371Y1163D02*
X1406Y1163D01*
X1435Y1163D02*
X1471Y1163D01*
X473Y1162D02*
X510Y1162D01*
X540Y1162D02*
X574Y1162D01*
X1370Y1162D02*
X1406Y1162D01*
X1436Y1162D02*
X1471Y1162D01*
X473Y1161D02*
X509Y1161D01*
X540Y1161D02*
X575Y1161D01*
X1370Y1161D02*
X1405Y1161D01*
X1436Y1161D02*
X1471Y1161D01*
X473Y1160D02*
X509Y1160D01*
X540Y1160D02*
X575Y1160D01*
X1370Y1160D02*
X1405Y1160D01*
X1437Y1160D02*
X1472Y1160D01*
X473Y1159D02*
X508Y1159D01*
X541Y1159D02*
X575Y1159D01*
X1370Y1159D02*
X1405Y1159D01*
X1437Y1159D02*
X1472Y1159D01*
X473Y1158D02*
X508Y1158D01*
X541Y1158D02*
X575Y1158D01*
X1369Y1158D02*
X1404Y1158D01*
X1437Y1158D02*
X1472Y1158D01*
X472Y1157D02*
X508Y1157D01*
X541Y1157D02*
X575Y1157D01*
X1369Y1157D02*
X1404Y1157D01*
X1437Y1157D02*
X1472Y1157D01*
X472Y1156D02*
X508Y1156D01*
X541Y1156D02*
X575Y1156D01*
X1369Y1156D02*
X1404Y1156D01*
X1437Y1156D02*
X1472Y1156D01*
X472Y1155D02*
X508Y1155D01*
X541Y1155D02*
X575Y1155D01*
X1369Y1155D02*
X1404Y1155D01*
X1437Y1155D02*
X1472Y1155D01*
X472Y1154D02*
X508Y1154D01*
X541Y1154D02*
X575Y1154D01*
X1369Y1154D02*
X1404Y1154D01*
X1437Y1154D02*
X1472Y1154D01*
X472Y1153D02*
X508Y1153D01*
X541Y1153D02*
X575Y1153D01*
X1369Y1153D02*
X1404Y1153D01*
X1437Y1153D02*
X1472Y1153D01*
X473Y1152D02*
X508Y1152D01*
X541Y1152D02*
X575Y1152D01*
X1369Y1152D02*
X1404Y1152D01*
X1437Y1152D02*
X1472Y1152D01*
X473Y1151D02*
X508Y1151D01*
X541Y1151D02*
X575Y1151D01*
X1370Y1151D02*
X1405Y1151D01*
X1437Y1151D02*
X1472Y1151D01*
X473Y1150D02*
X509Y1150D01*
X540Y1150D02*
X575Y1150D01*
X1370Y1150D02*
X1405Y1150D01*
X1437Y1150D02*
X1472Y1150D01*
X473Y1149D02*
X509Y1149D01*
X540Y1149D02*
X575Y1149D01*
X1370Y1149D02*
X1405Y1149D01*
X1436Y1149D02*
X1472Y1149D01*
X473Y1148D02*
X510Y1148D01*
X540Y1148D02*
X574Y1148D01*
X1370Y1148D02*
X1406Y1148D01*
X1436Y1148D02*
X1471Y1148D01*
X474Y1147D02*
X510Y1147D01*
X539Y1147D02*
X574Y1147D01*
X1371Y1147D02*
X1406Y1147D01*
X1435Y1147D02*
X1471Y1147D01*
X474Y1146D02*
X511Y1146D01*
X538Y1146D02*
X574Y1146D01*
X1371Y1146D02*
X1407Y1146D01*
X1435Y1146D02*
X1471Y1146D01*
X474Y1145D02*
X511Y1145D01*
X538Y1145D02*
X573Y1145D01*
X1371Y1145D02*
X1408Y1145D01*
X1434Y1145D02*
X1470Y1145D01*
X475Y1144D02*
X512Y1144D01*
X537Y1144D02*
X573Y1144D01*
X1372Y1144D02*
X1408Y1144D01*
X1433Y1144D02*
X1470Y1144D01*
X475Y1143D02*
X513Y1143D01*
X536Y1143D02*
X572Y1143D01*
X1372Y1143D02*
X1409Y1143D01*
X1432Y1143D02*
X1469Y1143D01*
X476Y1142D02*
X515Y1142D01*
X535Y1142D02*
X572Y1142D01*
X1373Y1142D02*
X1411Y1142D01*
X1431Y1142D02*
X1469Y1142D01*
X476Y1141D02*
X516Y1141D01*
X533Y1141D02*
X571Y1141D01*
X1373Y1141D02*
X1412Y1141D01*
X1429Y1141D02*
X1468Y1141D01*
X477Y1140D02*
X518Y1140D01*
X531Y1140D02*
X571Y1140D01*
X1374Y1140D02*
X1414Y1140D01*
X1427Y1140D02*
X1467Y1140D01*
X478Y1139D02*
X523Y1139D01*
X526Y1139D02*
X570Y1139D01*
X1375Y1139D02*
X1420Y1139D01*
X1422Y1139D02*
X1467Y1139D01*
X479Y1138D02*
X569Y1138D01*
X1376Y1138D02*
X1466Y1138D01*
X480Y1137D02*
X568Y1137D01*
X1376Y1137D02*
X1465Y1137D01*
X481Y1136D02*
X567Y1136D01*
X1378Y1136D02*
X1464Y1136D01*
X482Y1135D02*
X566Y1135D01*
X1379Y1135D02*
X1463Y1135D01*
X483Y1134D02*
X565Y1134D01*
X1380Y1134D02*
X1462Y1134D01*
X484Y1133D02*
X563Y1133D01*
X1381Y1133D02*
X1460Y1133D01*
X486Y1132D02*
X561Y1132D01*
X1383Y1132D02*
X1458Y1132D01*
X488Y1131D02*
X559Y1131D01*
X1385Y1131D02*
X1456Y1131D01*
X491Y1130D02*
X557Y1130D01*
X1388Y1130D02*
X1454Y1130D01*
X497Y1129D02*
X551Y1129D01*
X1393Y1129D02*
X1448Y1129D01*
X492Y1080D02*
X556Y1080D01*
X1389Y1080D02*
X1453Y1080D01*
X489Y1079D02*
X559Y1079D01*
X1386Y1079D02*
X1456Y1079D01*
X487Y1078D02*
X561Y1078D01*
X1384Y1078D02*
X1458Y1078D01*
X485Y1077D02*
X563Y1077D01*
X1382Y1077D02*
X1460Y1077D01*
X483Y1076D02*
X564Y1076D01*
X1380Y1076D02*
X1461Y1076D01*
X482Y1075D02*
X566Y1075D01*
X1379Y1075D02*
X1463Y1075D01*
X481Y1074D02*
X567Y1074D01*
X1378Y1074D02*
X1464Y1074D01*
X480Y1073D02*
X568Y1073D01*
X1377Y1073D02*
X1465Y1073D01*
X479Y1072D02*
X569Y1072D01*
X1376Y1072D02*
X1466Y1072D01*
X478Y1071D02*
X570Y1071D01*
X1375Y1071D02*
X1466Y1071D01*
X477Y1070D02*
X519Y1070D01*
X530Y1070D02*
X570Y1070D01*
X1374Y1070D02*
X1415Y1070D01*
X1426Y1070D02*
X1467Y1070D01*
X476Y1069D02*
X517Y1069D01*
X533Y1069D02*
X571Y1069D01*
X1373Y1069D02*
X1413Y1069D01*
X1429Y1069D02*
X1468Y1069D01*
X476Y1068D02*
X515Y1068D01*
X534Y1068D02*
X572Y1068D01*
X1373Y1068D02*
X1411Y1068D01*
X1430Y1068D02*
X1469Y1068D01*
X475Y1067D02*
X514Y1067D01*
X535Y1067D02*
X572Y1067D01*
X1372Y1067D02*
X1410Y1067D01*
X1432Y1067D02*
X1469Y1067D01*
X475Y1066D02*
X513Y1066D01*
X537Y1066D02*
X573Y1066D01*
X1372Y1066D02*
X1409Y1066D01*
X1433Y1066D02*
X1470Y1066D01*
X474Y1065D02*
X512Y1065D01*
X537Y1065D02*
X573Y1065D01*
X1371Y1065D02*
X1408Y1065D01*
X1434Y1065D02*
X1470Y1065D01*
X474Y1064D02*
X511Y1064D01*
X538Y1064D02*
X574Y1064D01*
X1371Y1064D02*
X1407Y1064D01*
X1434Y1064D02*
X1471Y1064D01*
X474Y1063D02*
X510Y1063D01*
X539Y1063D02*
X574Y1063D01*
X1371Y1063D02*
X1406Y1063D01*
X1435Y1063D02*
X1471Y1063D01*
X473Y1062D02*
X510Y1062D01*
X539Y1062D02*
X574Y1062D01*
X1370Y1062D02*
X1406Y1062D01*
X1436Y1062D02*
X1471Y1062D01*
X473Y1061D02*
X509Y1061D01*
X540Y1061D02*
X575Y1061D01*
X1370Y1061D02*
X1405Y1061D01*
X1436Y1061D02*
X1471Y1061D01*
X473Y1060D02*
X509Y1060D01*
X540Y1060D02*
X575Y1060D01*
X1370Y1060D02*
X1405Y1060D01*
X1436Y1060D02*
X1472Y1060D01*
X473Y1059D02*
X509Y1059D01*
X540Y1059D02*
X575Y1059D01*
X1370Y1059D02*
X1405Y1059D01*
X1437Y1059D02*
X1472Y1059D01*
X472Y1058D02*
X508Y1058D01*
X541Y1058D02*
X575Y1058D01*
X1369Y1058D02*
X1405Y1058D01*
X1437Y1058D02*
X1472Y1058D01*
X472Y1057D02*
X508Y1057D01*
X541Y1057D02*
X575Y1057D01*
X1369Y1057D02*
X1404Y1057D01*
X1437Y1057D02*
X1472Y1057D01*
X472Y1056D02*
X508Y1056D01*
X541Y1056D02*
X575Y1056D01*
X1369Y1056D02*
X1404Y1056D01*
X1437Y1056D02*
X1472Y1056D01*
X472Y1055D02*
X508Y1055D01*
X541Y1055D02*
X575Y1055D01*
X1369Y1055D02*
X1404Y1055D01*
X1437Y1055D02*
X1472Y1055D01*
X472Y1054D02*
X508Y1054D01*
X541Y1054D02*
X575Y1054D01*
X1369Y1054D02*
X1404Y1054D01*
X1437Y1054D02*
X1472Y1054D01*
X472Y1053D02*
X508Y1053D01*
X541Y1053D02*
X575Y1053D01*
X1369Y1053D02*
X1404Y1053D01*
X1437Y1053D02*
X1472Y1053D01*
X472Y1052D02*
X508Y1052D01*
X541Y1052D02*
X575Y1052D01*
X1369Y1052D02*
X1405Y1052D01*
X1437Y1052D02*
X1472Y1052D01*
X473Y1051D02*
X509Y1051D01*
X540Y1051D02*
X575Y1051D01*
X1370Y1051D02*
X1405Y1051D01*
X1437Y1051D02*
X1472Y1051D01*
X473Y1050D02*
X509Y1050D01*
X540Y1050D02*
X575Y1050D01*
X1370Y1050D02*
X1405Y1050D01*
X1436Y1050D02*
X1472Y1050D01*
X473Y1049D02*
X509Y1049D01*
X540Y1049D02*
X575Y1049D01*
X1370Y1049D02*
X1405Y1049D01*
X1436Y1049D02*
X1472Y1049D01*
X473Y1048D02*
X510Y1048D01*
X539Y1048D02*
X574Y1048D01*
X1370Y1048D02*
X1406Y1048D01*
X1436Y1048D02*
X1471Y1048D01*
X474Y1047D02*
X510Y1047D01*
X539Y1047D02*
X574Y1047D01*
X1371Y1047D02*
X1406Y1047D01*
X1435Y1047D02*
X1471Y1047D01*
X474Y1046D02*
X511Y1046D01*
X538Y1046D02*
X574Y1046D01*
X1371Y1046D02*
X1407Y1046D01*
X1434Y1046D02*
X1471Y1046D01*
X474Y1045D02*
X512Y1045D01*
X537Y1045D02*
X573Y1045D01*
X1371Y1045D02*
X1408Y1045D01*
X1434Y1045D02*
X1470Y1045D01*
X475Y1044D02*
X512Y1044D01*
X537Y1044D02*
X573Y1044D01*
X1372Y1044D02*
X1409Y1044D01*
X1433Y1044D02*
X1470Y1044D01*
X475Y1043D02*
X513Y1043D01*
X536Y1043D02*
X572Y1043D01*
X1372Y1043D02*
X1410Y1043D01*
X1432Y1043D02*
X1469Y1043D01*
X476Y1042D02*
X515Y1042D01*
X534Y1042D02*
X572Y1042D01*
X1373Y1042D02*
X1411Y1042D01*
X1431Y1042D02*
X1469Y1042D01*
X476Y1041D02*
X516Y1041D01*
X533Y1041D02*
X571Y1041D01*
X1373Y1041D02*
X1413Y1041D01*
X1429Y1041D02*
X1468Y1041D01*
X477Y1040D02*
X519Y1040D01*
X531Y1040D02*
X571Y1040D01*
X1374Y1040D02*
X1415Y1040D01*
X1427Y1040D02*
X1467Y1040D01*
X478Y1039D02*
X570Y1039D01*
X1375Y1039D02*
X1467Y1039D01*
X479Y1038D02*
X569Y1038D01*
X1376Y1038D02*
X1466Y1038D01*
X479Y1037D02*
X568Y1037D01*
X1376Y1037D02*
X1465Y1037D01*
X481Y1036D02*
X567Y1036D01*
X1378Y1036D02*
X1464Y1036D01*
X482Y1035D02*
X566Y1035D01*
X1379Y1035D02*
X1463Y1035D01*
X483Y1034D02*
X565Y1034D01*
X1380Y1034D02*
X1462Y1034D01*
X484Y1033D02*
X563Y1033D01*
X1381Y1033D02*
X1460Y1033D01*
X486Y1032D02*
X561Y1032D01*
X1383Y1032D02*
X1458Y1032D01*
X488Y1031D02*
X559Y1031D01*
X1385Y1031D02*
X1456Y1031D01*
X491Y1030D02*
X557Y1030D01*
X1388Y1030D02*
X1454Y1030D01*
X496Y1029D02*
X551Y1029D01*
X1393Y1029D02*
X1448Y1029D01*
X492Y980D02*
X556Y980D01*
X1389Y980D02*
X1453Y980D01*
X489Y979D02*
X559Y979D01*
X1386Y979D02*
X1456Y979D01*
X487Y978D02*
X561Y978D01*
X1384Y978D02*
X1458Y978D01*
X485Y977D02*
X563Y977D01*
X1382Y977D02*
X1460Y977D01*
X483Y976D02*
X564Y976D01*
X1380Y976D02*
X1461Y976D01*
X482Y975D02*
X566Y975D01*
X1379Y975D02*
X1463Y975D01*
X481Y974D02*
X567Y974D01*
X1378Y974D02*
X1464Y974D01*
X480Y973D02*
X568Y973D01*
X1377Y973D02*
X1465Y973D01*
X479Y972D02*
X569Y972D01*
X1376Y972D02*
X1466Y972D01*
X478Y971D02*
X570Y971D01*
X1375Y971D02*
X1466Y971D01*
X477Y970D02*
X519Y970D01*
X530Y970D02*
X570Y970D01*
X1374Y970D02*
X1415Y970D01*
X1426Y970D02*
X1467Y970D01*
X477Y969D02*
X517Y969D01*
X533Y969D02*
X571Y969D01*
X1373Y969D02*
X1413Y969D01*
X1429Y969D02*
X1468Y969D01*
X476Y968D02*
X515Y968D01*
X534Y968D02*
X572Y968D01*
X1373Y968D02*
X1411Y968D01*
X1430Y968D02*
X1469Y968D01*
X475Y967D02*
X514Y967D01*
X535Y967D02*
X572Y967D01*
X1372Y967D02*
X1410Y967D01*
X1432Y967D02*
X1469Y967D01*
X475Y966D02*
X513Y966D01*
X537Y966D02*
X573Y966D01*
X1372Y966D02*
X1409Y966D01*
X1433Y966D02*
X1470Y966D01*
X474Y965D02*
X512Y965D01*
X537Y965D02*
X573Y965D01*
X1371Y965D02*
X1408Y965D01*
X1434Y965D02*
X1470Y965D01*
X474Y964D02*
X511Y964D01*
X538Y964D02*
X574Y964D01*
X1371Y964D02*
X1407Y964D01*
X1434Y964D02*
X1471Y964D01*
X474Y963D02*
X510Y963D01*
X539Y963D02*
X574Y963D01*
X1371Y963D02*
X1406Y963D01*
X1435Y963D02*
X1471Y963D01*
X473Y962D02*
X510Y962D01*
X539Y962D02*
X574Y962D01*
X1370Y962D02*
X1406Y962D01*
X1436Y962D02*
X1471Y962D01*
X473Y961D02*
X509Y961D01*
X540Y961D02*
X575Y961D01*
X1370Y961D02*
X1405Y961D01*
X1436Y961D02*
X1471Y961D01*
X473Y960D02*
X509Y960D01*
X540Y960D02*
X575Y960D01*
X1370Y960D02*
X1405Y960D01*
X1436Y960D02*
X1472Y960D01*
X473Y959D02*
X509Y959D01*
X540Y959D02*
X575Y959D01*
X1370Y959D02*
X1405Y959D01*
X1437Y959D02*
X1472Y959D01*
X473Y958D02*
X508Y958D01*
X541Y958D02*
X575Y958D01*
X1369Y958D02*
X1405Y958D01*
X1437Y958D02*
X1472Y958D01*
X472Y957D02*
X508Y957D01*
X541Y957D02*
X575Y957D01*
X1369Y957D02*
X1404Y957D01*
X1437Y957D02*
X1472Y957D01*
X472Y956D02*
X508Y956D01*
X541Y956D02*
X575Y956D01*
X1369Y956D02*
X1404Y956D01*
X1437Y956D02*
X1472Y956D01*
X472Y955D02*
X508Y955D01*
X541Y955D02*
X575Y955D01*
X1369Y955D02*
X1404Y955D01*
X1437Y955D02*
X1472Y955D01*
X472Y954D02*
X508Y954D01*
X541Y954D02*
X575Y954D01*
X1369Y954D02*
X1404Y954D01*
X1437Y954D02*
X1472Y954D01*
X472Y953D02*
X508Y953D01*
X541Y953D02*
X575Y953D01*
X1369Y953D02*
X1404Y953D01*
X1437Y953D02*
X1472Y953D01*
X473Y952D02*
X508Y952D01*
X541Y952D02*
X575Y952D01*
X1369Y952D02*
X1405Y952D01*
X1437Y952D02*
X1472Y952D01*
X473Y951D02*
X509Y951D01*
X540Y951D02*
X575Y951D01*
X1370Y951D02*
X1405Y951D01*
X1437Y951D02*
X1472Y951D01*
X473Y950D02*
X509Y950D01*
X540Y950D02*
X575Y950D01*
X1370Y950D02*
X1405Y950D01*
X1436Y950D02*
X1472Y950D01*
X473Y949D02*
X509Y949D01*
X540Y949D02*
X575Y949D01*
X1370Y949D02*
X1405Y949D01*
X1436Y949D02*
X1472Y949D01*
X473Y948D02*
X510Y948D01*
X539Y948D02*
X574Y948D01*
X1370Y948D02*
X1406Y948D01*
X1436Y948D02*
X1471Y948D01*
X474Y947D02*
X510Y947D01*
X539Y947D02*
X574Y947D01*
X1371Y947D02*
X1406Y947D01*
X1435Y947D02*
X1471Y947D01*
X474Y946D02*
X511Y946D01*
X538Y946D02*
X574Y946D01*
X1371Y946D02*
X1407Y946D01*
X1434Y946D02*
X1471Y946D01*
X474Y945D02*
X512Y945D01*
X537Y945D02*
X573Y945D01*
X1371Y945D02*
X1408Y945D01*
X1434Y945D02*
X1470Y945D01*
X475Y944D02*
X512Y944D01*
X537Y944D02*
X573Y944D01*
X1372Y944D02*
X1409Y944D01*
X1433Y944D02*
X1470Y944D01*
X475Y943D02*
X514Y943D01*
X536Y943D02*
X572Y943D01*
X1372Y943D02*
X1410Y943D01*
X1432Y943D02*
X1469Y943D01*
X476Y942D02*
X515Y942D01*
X534Y942D02*
X572Y942D01*
X1373Y942D02*
X1411Y942D01*
X1431Y942D02*
X1469Y942D01*
X476Y941D02*
X516Y941D01*
X533Y941D02*
X571Y941D01*
X1373Y941D02*
X1413Y941D01*
X1429Y941D02*
X1468Y941D01*
X477Y940D02*
X519Y940D01*
X531Y940D02*
X571Y940D01*
X1374Y940D02*
X1415Y940D01*
X1427Y940D02*
X1467Y940D01*
X478Y939D02*
X570Y939D01*
X1375Y939D02*
X1467Y939D01*
X479Y938D02*
X569Y938D01*
X1376Y938D02*
X1466Y938D01*
X480Y937D02*
X568Y937D01*
X1376Y937D02*
X1465Y937D01*
X481Y936D02*
X567Y936D01*
X1378Y936D02*
X1464Y936D01*
X482Y935D02*
X566Y935D01*
X1379Y935D02*
X1463Y935D01*
X483Y934D02*
X565Y934D01*
X1380Y934D02*
X1462Y934D01*
X484Y933D02*
X563Y933D01*
X1381Y933D02*
X1460Y933D01*
X486Y932D02*
X561Y932D01*
X1383Y932D02*
X1458Y932D01*
X488Y931D02*
X559Y931D01*
X1385Y931D02*
X1456Y931D01*
X491Y930D02*
X557Y930D01*
X1388Y930D02*
X1454Y930D01*
X497Y929D02*
X551Y929D01*
X1393Y929D02*
X1448Y929D01*
X492Y880D02*
X556Y880D01*
X1389Y880D02*
X1453Y880D01*
X489Y879D02*
X559Y879D01*
X1386Y879D02*
X1456Y879D01*
X487Y878D02*
X561Y878D01*
X1384Y878D02*
X1458Y878D01*
X485Y877D02*
X563Y877D01*
X1382Y877D02*
X1460Y877D01*
X483Y876D02*
X564Y876D01*
X1380Y876D02*
X1461Y876D01*
X482Y875D02*
X566Y875D01*
X1379Y875D02*
X1463Y875D01*
X481Y874D02*
X567Y874D01*
X1378Y874D02*
X1464Y874D01*
X480Y873D02*
X568Y873D01*
X1377Y873D02*
X1465Y873D01*
X479Y872D02*
X569Y872D01*
X1376Y872D02*
X1466Y872D01*
X478Y871D02*
X570Y871D01*
X1375Y871D02*
X1466Y871D01*
X477Y870D02*
X519Y870D01*
X530Y870D02*
X570Y870D01*
X1374Y870D02*
X1415Y870D01*
X1427Y870D02*
X1467Y870D01*
X477Y869D02*
X517Y869D01*
X533Y869D02*
X571Y869D01*
X1373Y869D02*
X1412Y869D01*
X1429Y869D02*
X1468Y869D01*
X476Y868D02*
X515Y868D01*
X534Y868D02*
X572Y868D01*
X1373Y868D02*
X1411Y868D01*
X1431Y868D02*
X1469Y868D01*
X475Y867D02*
X514Y867D01*
X535Y867D02*
X572Y867D01*
X1372Y867D02*
X1409Y867D01*
X1432Y867D02*
X1469Y867D01*
X475Y866D02*
X513Y866D01*
X537Y866D02*
X573Y866D01*
X1372Y866D02*
X1408Y866D01*
X1433Y866D02*
X1470Y866D01*
X474Y865D02*
X512Y865D01*
X537Y865D02*
X573Y865D01*
X1371Y865D02*
X1408Y865D01*
X1434Y865D02*
X1470Y865D01*
X474Y864D02*
X511Y864D01*
X538Y864D02*
X574Y864D01*
X1371Y864D02*
X1407Y864D01*
X1435Y864D02*
X1471Y864D01*
X474Y863D02*
X510Y863D01*
X539Y863D02*
X574Y863D01*
X1371Y863D02*
X1406Y863D01*
X1435Y863D02*
X1471Y863D01*
X473Y862D02*
X510Y862D01*
X539Y862D02*
X574Y862D01*
X1370Y862D02*
X1406Y862D01*
X1436Y862D02*
X1471Y862D01*
X473Y861D02*
X509Y861D01*
X540Y861D02*
X575Y861D01*
X1370Y861D02*
X1405Y861D01*
X1436Y861D02*
X1471Y861D01*
X473Y860D02*
X509Y860D01*
X540Y860D02*
X575Y860D01*
X1370Y860D02*
X1405Y860D01*
X1437Y860D02*
X1472Y860D01*
X473Y859D02*
X509Y859D01*
X540Y859D02*
X575Y859D01*
X1370Y859D02*
X1405Y859D01*
X1437Y859D02*
X1472Y859D01*
X473Y858D02*
X508Y858D01*
X541Y858D02*
X575Y858D01*
X1369Y858D02*
X1404Y858D01*
X1437Y858D02*
X1472Y858D01*
X472Y857D02*
X508Y857D01*
X541Y857D02*
X575Y857D01*
X1369Y857D02*
X1404Y857D01*
X1437Y857D02*
X1472Y857D01*
X472Y856D02*
X508Y856D01*
X541Y856D02*
X575Y856D01*
X1369Y856D02*
X1404Y856D01*
X1437Y856D02*
X1472Y856D01*
X472Y855D02*
X508Y855D01*
X541Y855D02*
X575Y855D01*
X1369Y855D02*
X1404Y855D01*
X1437Y855D02*
X1472Y855D01*
X472Y854D02*
X508Y854D01*
X541Y854D02*
X575Y854D01*
X1369Y854D02*
X1404Y854D01*
X1437Y854D02*
X1472Y854D01*
X472Y853D02*
X508Y853D01*
X541Y853D02*
X575Y853D01*
X1369Y853D02*
X1404Y853D01*
X1437Y853D02*
X1472Y853D01*
X473Y852D02*
X508Y852D01*
X541Y852D02*
X575Y852D01*
X1369Y852D02*
X1404Y852D01*
X1437Y852D02*
X1472Y852D01*
X473Y851D02*
X509Y851D01*
X540Y851D02*
X575Y851D01*
X1370Y851D02*
X1405Y851D01*
X1437Y851D02*
X1472Y851D01*
X473Y850D02*
X509Y850D01*
X540Y850D02*
X575Y850D01*
X1370Y850D02*
X1405Y850D01*
X1437Y850D02*
X1472Y850D01*
X473Y849D02*
X509Y849D01*
X540Y849D02*
X575Y849D01*
X1370Y849D02*
X1405Y849D01*
X1436Y849D02*
X1472Y849D01*
X473Y848D02*
X510Y848D01*
X539Y848D02*
X574Y848D01*
X1370Y848D02*
X1406Y848D01*
X1436Y848D02*
X1471Y848D01*
X474Y847D02*
X510Y847D01*
X539Y847D02*
X574Y847D01*
X1371Y847D02*
X1406Y847D01*
X1435Y847D02*
X1471Y847D01*
X474Y846D02*
X511Y846D01*
X538Y846D02*
X574Y846D01*
X1371Y846D02*
X1407Y846D01*
X1435Y846D02*
X1471Y846D01*
X474Y845D02*
X512Y845D01*
X537Y845D02*
X573Y845D01*
X1371Y845D02*
X1408Y845D01*
X1434Y845D02*
X1470Y845D01*
X475Y844D02*
X512Y844D01*
X537Y844D02*
X573Y844D01*
X1372Y844D02*
X1408Y844D01*
X1433Y844D02*
X1470Y844D01*
X475Y843D02*
X514Y843D01*
X536Y843D02*
X572Y843D01*
X1372Y843D02*
X1409Y843D01*
X1432Y843D02*
X1469Y843D01*
X476Y842D02*
X515Y842D01*
X534Y842D02*
X572Y842D01*
X1373Y842D02*
X1411Y842D01*
X1431Y842D02*
X1469Y842D01*
X476Y841D02*
X516Y841D01*
X533Y841D02*
X571Y841D01*
X1373Y841D02*
X1412Y841D01*
X1429Y841D02*
X1468Y841D01*
X477Y840D02*
X519Y840D01*
X531Y840D02*
X571Y840D01*
X1374Y840D02*
X1414Y840D01*
X1427Y840D02*
X1467Y840D01*
X478Y839D02*
X570Y839D01*
X1375Y839D02*
X1420Y839D01*
X1422Y839D02*
X1467Y839D01*
X479Y838D02*
X569Y838D01*
X1376Y838D02*
X1466Y838D01*
X480Y837D02*
X568Y837D01*
X1376Y837D02*
X1465Y837D01*
X481Y836D02*
X567Y836D01*
X1378Y836D02*
X1464Y836D01*
X482Y835D02*
X566Y835D01*
X1379Y835D02*
X1463Y835D01*
X483Y834D02*
X565Y834D01*
X1380Y834D02*
X1462Y834D01*
X484Y833D02*
X563Y833D01*
X1381Y833D02*
X1460Y833D01*
X486Y832D02*
X561Y832D01*
X1383Y832D02*
X1458Y832D01*
X488Y831D02*
X559Y831D01*
X1385Y831D02*
X1456Y831D01*
X491Y830D02*
X557Y830D01*
X1388Y830D02*
X1454Y830D01*
X497Y829D02*
X551Y829D01*
X1394Y829D02*
X1448Y829D01*
X492Y780D02*
X556Y780D01*
X1389Y780D02*
X1453Y780D01*
X489Y779D02*
X559Y779D01*
X1386Y779D02*
X1456Y779D01*
X487Y778D02*
X561Y778D01*
X1384Y778D02*
X1458Y778D01*
X485Y777D02*
X563Y777D01*
X1382Y777D02*
X1460Y777D01*
X483Y776D02*
X564Y776D01*
X1380Y776D02*
X1461Y776D01*
X482Y775D02*
X566Y775D01*
X1379Y775D02*
X1463Y775D01*
X481Y774D02*
X567Y774D01*
X1378Y774D02*
X1464Y774D01*
X480Y773D02*
X568Y773D01*
X1377Y773D02*
X1465Y773D01*
X479Y772D02*
X569Y772D01*
X1376Y772D02*
X1466Y772D01*
X478Y771D02*
X570Y771D01*
X1375Y771D02*
X1466Y771D01*
X477Y770D02*
X519Y770D01*
X530Y770D02*
X570Y770D01*
X1374Y770D02*
X1415Y770D01*
X1427Y770D02*
X1467Y770D01*
X476Y769D02*
X516Y769D01*
X533Y769D02*
X571Y769D01*
X1373Y769D02*
X1413Y769D01*
X1429Y769D02*
X1468Y769D01*
X476Y768D02*
X515Y768D01*
X534Y768D02*
X572Y768D01*
X1373Y768D02*
X1411Y768D01*
X1430Y768D02*
X1469Y768D01*
X475Y767D02*
X514Y767D01*
X536Y767D02*
X572Y767D01*
X1372Y767D02*
X1410Y767D01*
X1432Y767D02*
X1469Y767D01*
X475Y766D02*
X512Y766D01*
X537Y766D02*
X573Y766D01*
X1372Y766D02*
X1409Y766D01*
X1433Y766D02*
X1470Y766D01*
X474Y765D02*
X512Y765D01*
X537Y765D02*
X573Y765D01*
X1371Y765D02*
X1408Y765D01*
X1434Y765D02*
X1470Y765D01*
X474Y764D02*
X511Y764D01*
X538Y764D02*
X574Y764D01*
X1371Y764D02*
X1407Y764D01*
X1434Y764D02*
X1471Y764D01*
X474Y763D02*
X510Y763D01*
X539Y763D02*
X574Y763D01*
X1371Y763D02*
X1406Y763D01*
X1435Y763D02*
X1471Y763D01*
X473Y762D02*
X510Y762D01*
X539Y762D02*
X574Y762D01*
X1370Y762D02*
X1406Y762D01*
X1436Y762D02*
X1471Y762D01*
X473Y761D02*
X509Y761D01*
X540Y761D02*
X575Y761D01*
X1370Y761D02*
X1405Y761D01*
X1436Y761D02*
X1471Y761D01*
X473Y760D02*
X509Y760D01*
X540Y760D02*
X575Y760D01*
X1370Y760D02*
X1405Y760D01*
X1436Y760D02*
X1472Y760D01*
X473Y759D02*
X509Y759D01*
X541Y759D02*
X575Y759D01*
X1370Y759D02*
X1405Y759D01*
X1437Y759D02*
X1472Y759D01*
X472Y758D02*
X508Y758D01*
X541Y758D02*
X575Y758D01*
X1369Y758D02*
X1405Y758D01*
X1437Y758D02*
X1472Y758D01*
X472Y757D02*
X508Y757D01*
X541Y757D02*
X575Y757D01*
X1369Y757D02*
X1404Y757D01*
X1437Y757D02*
X1472Y757D01*
X472Y756D02*
X508Y756D01*
X541Y756D02*
X575Y756D01*
X1369Y756D02*
X1404Y756D01*
X1437Y756D02*
X1472Y756D01*
X472Y755D02*
X508Y755D01*
X541Y755D02*
X575Y755D01*
X1369Y755D02*
X1404Y755D01*
X1437Y755D02*
X1472Y755D01*
X472Y754D02*
X508Y754D01*
X541Y754D02*
X575Y754D01*
X1369Y754D02*
X1404Y754D01*
X1437Y754D02*
X1472Y754D01*
X472Y753D02*
X508Y753D01*
X541Y753D02*
X575Y753D01*
X1369Y753D02*
X1404Y753D01*
X1437Y753D02*
X1472Y753D01*
X472Y752D02*
X508Y752D01*
X541Y752D02*
X575Y752D01*
X1369Y752D02*
X1404Y752D01*
X1437Y752D02*
X1472Y752D01*
X473Y751D02*
X509Y751D01*
X541Y751D02*
X575Y751D01*
X1370Y751D02*
X1405Y751D01*
X1437Y751D02*
X1472Y751D01*
X473Y750D02*
X509Y750D01*
X540Y750D02*
X575Y750D01*
X1370Y750D02*
X1405Y750D01*
X1436Y750D02*
X1472Y750D01*
X473Y749D02*
X509Y749D01*
X540Y749D02*
X575Y749D01*
X1370Y749D02*
X1405Y749D01*
X1436Y749D02*
X1472Y749D01*
X473Y748D02*
X510Y748D01*
X539Y748D02*
X574Y748D01*
X1370Y748D02*
X1406Y748D01*
X1436Y748D02*
X1471Y748D01*
X474Y747D02*
X510Y747D01*
X539Y747D02*
X574Y747D01*
X1371Y747D02*
X1406Y747D01*
X1435Y747D02*
X1471Y747D01*
X474Y746D02*
X511Y746D01*
X538Y746D02*
X574Y746D01*
X1371Y746D02*
X1407Y746D01*
X1434Y746D02*
X1471Y746D01*
X474Y745D02*
X512Y745D01*
X538Y745D02*
X573Y745D01*
X1371Y745D02*
X1408Y745D01*
X1434Y745D02*
X1470Y745D01*
X475Y744D02*
X512Y744D01*
X537Y744D02*
X573Y744D01*
X1372Y744D02*
X1409Y744D01*
X1433Y744D02*
X1470Y744D01*
X475Y743D02*
X513Y743D01*
X536Y743D02*
X572Y743D01*
X1372Y743D02*
X1410Y743D01*
X1432Y743D02*
X1469Y743D01*
X476Y742D02*
X515Y742D01*
X534Y742D02*
X572Y742D01*
X1373Y742D02*
X1411Y742D01*
X1431Y742D02*
X1469Y742D01*
X476Y741D02*
X516Y741D01*
X533Y741D02*
X571Y741D01*
X1373Y741D02*
X1412Y741D01*
X1429Y741D02*
X1468Y741D01*
X477Y740D02*
X518Y740D01*
X531Y740D02*
X571Y740D01*
X1374Y740D02*
X1415Y740D01*
X1427Y740D02*
X1467Y740D01*
X478Y739D02*
X570Y739D01*
X1375Y739D02*
X1420Y739D01*
X1422Y739D02*
X1467Y739D01*
X479Y738D02*
X569Y738D01*
X1376Y738D02*
X1466Y738D01*
X479Y737D02*
X568Y737D01*
X1376Y737D02*
X1465Y737D01*
X481Y736D02*
X567Y736D01*
X1378Y736D02*
X1464Y736D01*
X482Y735D02*
X566Y735D01*
X1379Y735D02*
X1463Y735D01*
X483Y734D02*
X565Y734D01*
X1380Y734D02*
X1462Y734D01*
X484Y733D02*
X563Y733D01*
X1381Y733D02*
X1460Y733D01*
X486Y732D02*
X561Y732D01*
X1383Y732D02*
X1458Y732D01*
X488Y731D02*
X559Y731D01*
X1385Y731D02*
X1456Y731D01*
X491Y730D02*
X557Y730D01*
X1388Y730D02*
X1454Y730D01*
X497Y729D02*
X551Y729D01*
X1394Y729D02*
X1448Y729D01*
X492Y680D02*
X556Y680D01*
X1389Y680D02*
X1453Y680D01*
X489Y679D02*
X559Y679D01*
X1386Y679D02*
X1456Y679D01*
X487Y678D02*
X561Y678D01*
X1384Y678D02*
X1458Y678D01*
X485Y677D02*
X563Y677D01*
X1382Y677D02*
X1460Y677D01*
X483Y676D02*
X564Y676D01*
X1380Y676D02*
X1461Y676D01*
X482Y675D02*
X566Y675D01*
X1379Y675D02*
X1463Y675D01*
X481Y674D02*
X567Y674D01*
X1378Y674D02*
X1464Y674D01*
X480Y673D02*
X568Y673D01*
X1377Y673D02*
X1465Y673D01*
X479Y672D02*
X569Y672D01*
X1376Y672D02*
X1466Y672D01*
X478Y671D02*
X570Y671D01*
X1375Y671D02*
X1466Y671D01*
X477Y670D02*
X519Y670D01*
X530Y670D02*
X570Y670D01*
X1374Y670D02*
X1415Y670D01*
X1426Y670D02*
X1467Y670D01*
X477Y669D02*
X517Y669D01*
X533Y669D02*
X571Y669D01*
X1373Y669D02*
X1413Y669D01*
X1429Y669D02*
X1468Y669D01*
X476Y668D02*
X515Y668D01*
X534Y668D02*
X572Y668D01*
X1373Y668D02*
X1411Y668D01*
X1430Y668D02*
X1469Y668D01*
X475Y667D02*
X514Y667D01*
X535Y667D02*
X572Y667D01*
X1372Y667D02*
X1410Y667D01*
X1432Y667D02*
X1469Y667D01*
X475Y666D02*
X513Y666D01*
X537Y666D02*
X573Y666D01*
X1372Y666D02*
X1409Y666D01*
X1433Y666D02*
X1470Y666D01*
X474Y665D02*
X512Y665D01*
X537Y665D02*
X573Y665D01*
X1371Y665D02*
X1408Y665D01*
X1434Y665D02*
X1470Y665D01*
X474Y664D02*
X511Y664D01*
X538Y664D02*
X574Y664D01*
X1371Y664D02*
X1407Y664D01*
X1434Y664D02*
X1471Y664D01*
X474Y663D02*
X510Y663D01*
X539Y663D02*
X574Y663D01*
X1371Y663D02*
X1406Y663D01*
X1435Y663D02*
X1471Y663D01*
X473Y662D02*
X510Y662D01*
X539Y662D02*
X574Y662D01*
X1370Y662D02*
X1406Y662D01*
X1436Y662D02*
X1471Y662D01*
X473Y661D02*
X509Y661D01*
X540Y661D02*
X575Y661D01*
X1370Y661D02*
X1405Y661D01*
X1436Y661D02*
X1471Y661D01*
X473Y660D02*
X509Y660D01*
X540Y660D02*
X575Y660D01*
X1370Y660D02*
X1405Y660D01*
X1436Y660D02*
X1472Y660D01*
X473Y659D02*
X509Y659D01*
X540Y659D02*
X575Y659D01*
X1370Y659D02*
X1405Y659D01*
X1437Y659D02*
X1472Y659D01*
X473Y658D02*
X508Y658D01*
X541Y658D02*
X575Y658D01*
X1369Y658D02*
X1405Y658D01*
X1437Y658D02*
X1472Y658D01*
X472Y657D02*
X508Y657D01*
X541Y657D02*
X575Y657D01*
X1369Y657D02*
X1404Y657D01*
X1437Y657D02*
X1472Y657D01*
X472Y656D02*
X508Y656D01*
X541Y656D02*
X575Y656D01*
X1369Y656D02*
X1404Y656D01*
X1437Y656D02*
X1472Y656D01*
X472Y655D02*
X508Y655D01*
X541Y655D02*
X575Y655D01*
X1369Y655D02*
X1404Y655D01*
X1437Y655D02*
X1472Y655D01*
X472Y654D02*
X508Y654D01*
X541Y654D02*
X575Y654D01*
X1369Y654D02*
X1404Y654D01*
X1437Y654D02*
X1472Y654D01*
X472Y653D02*
X508Y653D01*
X541Y653D02*
X575Y653D01*
X1369Y653D02*
X1404Y653D01*
X1437Y653D02*
X1472Y653D01*
X473Y652D02*
X508Y652D01*
X541Y652D02*
X575Y652D01*
X1369Y652D02*
X1405Y652D01*
X1437Y652D02*
X1472Y652D01*
X473Y651D02*
X509Y651D01*
X540Y651D02*
X575Y651D01*
X1370Y651D02*
X1405Y651D01*
X1437Y651D02*
X1472Y651D01*
X473Y650D02*
X509Y650D01*
X540Y650D02*
X575Y650D01*
X1370Y650D02*
X1405Y650D01*
X1436Y650D02*
X1472Y650D01*
X473Y649D02*
X509Y649D01*
X540Y649D02*
X575Y649D01*
X1370Y649D02*
X1405Y649D01*
X1436Y649D02*
X1472Y649D01*
X473Y648D02*
X510Y648D01*
X539Y648D02*
X574Y648D01*
X1370Y648D02*
X1406Y648D01*
X1436Y648D02*
X1471Y648D01*
X474Y647D02*
X510Y647D01*
X539Y647D02*
X574Y647D01*
X1371Y647D02*
X1406Y647D01*
X1435Y647D02*
X1471Y647D01*
X474Y646D02*
X511Y646D01*
X538Y646D02*
X574Y646D01*
X1371Y646D02*
X1407Y646D01*
X1434Y646D02*
X1471Y646D01*
X474Y645D02*
X512Y645D01*
X537Y645D02*
X573Y645D01*
X1371Y645D02*
X1408Y645D01*
X1434Y645D02*
X1470Y645D01*
X475Y644D02*
X512Y644D01*
X537Y644D02*
X573Y644D01*
X1372Y644D02*
X1409Y644D01*
X1433Y644D02*
X1470Y644D01*
X475Y643D02*
X514Y643D01*
X536Y643D02*
X572Y643D01*
X1372Y643D02*
X1410Y643D01*
X1432Y643D02*
X1469Y643D01*
X476Y642D02*
X515Y642D01*
X534Y642D02*
X572Y642D01*
X1373Y642D02*
X1411Y642D01*
X1431Y642D02*
X1469Y642D01*
X476Y641D02*
X516Y641D01*
X533Y641D02*
X571Y641D01*
X1373Y641D02*
X1413Y641D01*
X1429Y641D02*
X1468Y641D01*
X477Y640D02*
X519Y640D01*
X531Y640D02*
X571Y640D01*
X1374Y640D02*
X1415Y640D01*
X1427Y640D02*
X1467Y640D01*
X478Y639D02*
X570Y639D01*
X1375Y639D02*
X1467Y639D01*
X479Y638D02*
X569Y638D01*
X1376Y638D02*
X1466Y638D01*
X480Y637D02*
X568Y637D01*
X1376Y637D02*
X1465Y637D01*
X481Y636D02*
X567Y636D01*
X1378Y636D02*
X1464Y636D01*
X482Y635D02*
X566Y635D01*
X1379Y635D02*
X1463Y635D01*
X483Y634D02*
X565Y634D01*
X1380Y634D02*
X1462Y634D01*
X484Y633D02*
X563Y633D01*
X1381Y633D02*
X1460Y633D01*
X486Y632D02*
X561Y632D01*
X1383Y632D02*
X1458Y632D01*
X488Y631D02*
X559Y631D01*
X1385Y631D02*
X1456Y631D01*
X491Y630D02*
X557Y630D01*
X1388Y630D02*
X1454Y630D01*
X497Y629D02*
X551Y629D01*
X1394Y629D02*
X1448Y629D01*
X492Y580D02*
X556Y580D01*
X1389Y580D02*
X1453Y580D01*
X489Y579D02*
X559Y579D01*
X1386Y579D02*
X1456Y579D01*
X487Y578D02*
X561Y578D01*
X1384Y578D02*
X1458Y578D01*
X485Y577D02*
X563Y577D01*
X1382Y577D02*
X1460Y577D01*
X483Y576D02*
X564Y576D01*
X1380Y576D02*
X1461Y576D01*
X482Y575D02*
X566Y575D01*
X1379Y575D02*
X1463Y575D01*
X481Y574D02*
X567Y574D01*
X1378Y574D02*
X1464Y574D01*
X480Y573D02*
X568Y573D01*
X1377Y573D02*
X1465Y573D01*
X479Y572D02*
X569Y572D01*
X1376Y572D02*
X1466Y572D01*
X478Y571D02*
X570Y571D01*
X1375Y571D02*
X1466Y571D01*
X477Y570D02*
X519Y570D01*
X530Y570D02*
X570Y570D01*
X1374Y570D02*
X1415Y570D01*
X1426Y570D02*
X1467Y570D01*
X477Y569D02*
X517Y569D01*
X533Y569D02*
X571Y569D01*
X1373Y569D02*
X1413Y569D01*
X1429Y569D02*
X1468Y569D01*
X476Y568D02*
X515Y568D01*
X534Y568D02*
X572Y568D01*
X1373Y568D02*
X1411Y568D01*
X1430Y568D02*
X1469Y568D01*
X475Y567D02*
X514Y567D01*
X535Y567D02*
X572Y567D01*
X1372Y567D02*
X1410Y567D01*
X1432Y567D02*
X1469Y567D01*
X475Y566D02*
X513Y566D01*
X537Y566D02*
X573Y566D01*
X1372Y566D02*
X1409Y566D01*
X1433Y566D02*
X1470Y566D01*
X474Y565D02*
X512Y565D01*
X537Y565D02*
X573Y565D01*
X1371Y565D02*
X1408Y565D01*
X1434Y565D02*
X1470Y565D01*
X474Y564D02*
X511Y564D01*
X538Y564D02*
X574Y564D01*
X1371Y564D02*
X1407Y564D01*
X1434Y564D02*
X1471Y564D01*
X474Y563D02*
X510Y563D01*
X539Y563D02*
X574Y563D01*
X1371Y563D02*
X1406Y563D01*
X1435Y563D02*
X1471Y563D01*
X473Y562D02*
X510Y562D01*
X539Y562D02*
X574Y562D01*
X1370Y562D02*
X1406Y562D01*
X1436Y562D02*
X1471Y562D01*
X473Y561D02*
X509Y561D01*
X540Y561D02*
X575Y561D01*
X1370Y561D02*
X1405Y561D01*
X1436Y561D02*
X1471Y561D01*
X473Y560D02*
X509Y560D01*
X540Y560D02*
X575Y560D01*
X1370Y560D02*
X1405Y560D01*
X1436Y560D02*
X1472Y560D01*
X473Y559D02*
X509Y559D01*
X540Y559D02*
X575Y559D01*
X1370Y559D02*
X1405Y559D01*
X1437Y559D02*
X1472Y559D01*
X473Y558D02*
X508Y558D01*
X541Y558D02*
X575Y558D01*
X1369Y558D02*
X1405Y558D01*
X1437Y558D02*
X1472Y558D01*
X472Y557D02*
X508Y557D01*
X541Y557D02*
X575Y557D01*
X1369Y557D02*
X1404Y557D01*
X1437Y557D02*
X1472Y557D01*
X472Y556D02*
X508Y556D01*
X541Y556D02*
X575Y556D01*
X1369Y556D02*
X1404Y556D01*
X1437Y556D02*
X1472Y556D01*
X472Y555D02*
X508Y555D01*
X541Y555D02*
X575Y555D01*
X1369Y555D02*
X1404Y555D01*
X1437Y555D02*
X1472Y555D01*
X472Y554D02*
X508Y554D01*
X541Y554D02*
X575Y554D01*
X1369Y554D02*
X1404Y554D01*
X1437Y554D02*
X1472Y554D01*
X472Y553D02*
X508Y553D01*
X541Y553D02*
X575Y553D01*
X1369Y553D02*
X1404Y553D01*
X1437Y553D02*
X1472Y553D01*
X473Y552D02*
X508Y552D01*
X541Y552D02*
X575Y552D01*
X1369Y552D02*
X1405Y552D01*
X1437Y552D02*
X1472Y552D01*
X473Y551D02*
X509Y551D01*
X540Y551D02*
X575Y551D01*
X1370Y551D02*
X1405Y551D01*
X1437Y551D02*
X1472Y551D01*
X473Y550D02*
X509Y550D01*
X540Y550D02*
X575Y550D01*
X1370Y550D02*
X1405Y550D01*
X1436Y550D02*
X1472Y550D01*
X473Y549D02*
X509Y549D01*
X540Y549D02*
X575Y549D01*
X1370Y549D02*
X1405Y549D01*
X1436Y549D02*
X1472Y549D01*
X473Y548D02*
X510Y548D01*
X539Y548D02*
X574Y548D01*
X1370Y548D02*
X1406Y548D01*
X1436Y548D02*
X1471Y548D01*
X474Y547D02*
X510Y547D01*
X539Y547D02*
X574Y547D01*
X1371Y547D02*
X1406Y547D01*
X1435Y547D02*
X1471Y547D01*
X474Y546D02*
X511Y546D01*
X538Y546D02*
X574Y546D01*
X1371Y546D02*
X1407Y546D01*
X1434Y546D02*
X1471Y546D01*
X474Y545D02*
X512Y545D01*
X537Y545D02*
X573Y545D01*
X1371Y545D02*
X1408Y545D01*
X1434Y545D02*
X1470Y545D01*
X475Y544D02*
X512Y544D01*
X537Y544D02*
X573Y544D01*
X1372Y544D02*
X1409Y544D01*
X1433Y544D02*
X1470Y544D01*
X475Y543D02*
X514Y543D01*
X536Y543D02*
X572Y543D01*
X1372Y543D02*
X1410Y543D01*
X1432Y543D02*
X1469Y543D01*
X476Y542D02*
X515Y542D01*
X534Y542D02*
X572Y542D01*
X1373Y542D02*
X1411Y542D01*
X1431Y542D02*
X1469Y542D01*
X476Y541D02*
X516Y541D01*
X533Y541D02*
X571Y541D01*
X1373Y541D02*
X1413Y541D01*
X1429Y541D02*
X1468Y541D01*
X477Y540D02*
X519Y540D01*
X531Y540D02*
X571Y540D01*
X1374Y540D02*
X1415Y540D01*
X1427Y540D02*
X1467Y540D01*
X478Y539D02*
X570Y539D01*
X1375Y539D02*
X1467Y539D01*
X479Y538D02*
X569Y538D01*
X1376Y538D02*
X1466Y538D01*
X480Y537D02*
X568Y537D01*
X1376Y537D02*
X1465Y537D01*
X481Y536D02*
X567Y536D01*
X1378Y536D02*
X1464Y536D01*
X482Y535D02*
X566Y535D01*
X1379Y535D02*
X1463Y535D01*
X483Y534D02*
X565Y534D01*
X1380Y534D02*
X1462Y534D01*
X484Y533D02*
X563Y533D01*
X1381Y533D02*
X1460Y533D01*
X486Y532D02*
X561Y532D01*
X1383Y532D02*
X1458Y532D01*
X488Y531D02*
X559Y531D01*
X1385Y531D02*
X1456Y531D01*
X491Y530D02*
X557Y530D01*
X1388Y530D02*
X1454Y530D01*
X497Y529D02*
X551Y529D01*
X1394Y529D02*
X1448Y529D01*
X492Y480D02*
X556Y480D01*
X1389Y480D02*
X1453Y480D01*
X489Y479D02*
X559Y479D01*
X1386Y479D02*
X1456Y479D01*
X487Y478D02*
X561Y478D01*
X1384Y478D02*
X1458Y478D01*
X485Y477D02*
X563Y477D01*
X1382Y477D02*
X1460Y477D01*
X483Y476D02*
X564Y476D01*
X1380Y476D02*
X1461Y476D01*
X482Y475D02*
X566Y475D01*
X1379Y475D02*
X1463Y475D01*
X481Y474D02*
X567Y474D01*
X1378Y474D02*
X1464Y474D01*
X480Y473D02*
X568Y473D01*
X1377Y473D02*
X1465Y473D01*
X479Y472D02*
X569Y472D01*
X1376Y472D02*
X1466Y472D01*
X478Y471D02*
X570Y471D01*
X1375Y471D02*
X1467Y471D01*
X477Y470D02*
X519Y470D01*
X530Y470D02*
X570Y470D01*
X1374Y470D02*
X1415Y470D01*
X1427Y470D02*
X1467Y470D01*
X477Y469D02*
X517Y469D01*
X533Y469D02*
X571Y469D01*
X1373Y469D02*
X1413Y469D01*
X1429Y469D02*
X1468Y469D01*
X476Y468D02*
X515Y468D01*
X534Y468D02*
X572Y468D01*
X1373Y468D02*
X1411Y468D01*
X1430Y468D02*
X1469Y468D01*
X475Y467D02*
X514Y467D01*
X535Y467D02*
X572Y467D01*
X1372Y467D02*
X1410Y467D01*
X1432Y467D02*
X1469Y467D01*
X475Y466D02*
X513Y466D01*
X537Y466D02*
X573Y466D01*
X1372Y466D02*
X1409Y466D01*
X1433Y466D02*
X1470Y466D01*
X474Y465D02*
X512Y465D01*
X537Y465D02*
X573Y465D01*
X1371Y465D02*
X1408Y465D01*
X1434Y465D02*
X1470Y465D01*
X474Y464D02*
X511Y464D01*
X538Y464D02*
X574Y464D01*
X1371Y464D02*
X1407Y464D01*
X1434Y464D02*
X1471Y464D01*
X474Y463D02*
X510Y463D01*
X539Y463D02*
X574Y463D01*
X1371Y463D02*
X1406Y463D01*
X1435Y463D02*
X1471Y463D01*
X473Y462D02*
X510Y462D01*
X539Y462D02*
X574Y462D01*
X1370Y462D02*
X1406Y462D01*
X1436Y462D02*
X1471Y462D01*
X473Y461D02*
X509Y461D01*
X540Y461D02*
X575Y461D01*
X1370Y461D02*
X1405Y461D01*
X1436Y461D02*
X1471Y461D01*
X473Y460D02*
X509Y460D01*
X540Y460D02*
X575Y460D01*
X1370Y460D02*
X1405Y460D01*
X1436Y460D02*
X1472Y460D01*
X473Y459D02*
X509Y459D01*
X540Y459D02*
X575Y459D01*
X1370Y459D02*
X1405Y459D01*
X1437Y459D02*
X1472Y459D01*
X473Y458D02*
X508Y458D01*
X541Y458D02*
X575Y458D01*
X1369Y458D02*
X1405Y458D01*
X1437Y458D02*
X1472Y458D01*
X472Y457D02*
X508Y457D01*
X541Y457D02*
X575Y457D01*
X1369Y457D02*
X1404Y457D01*
X1437Y457D02*
X1472Y457D01*
X472Y456D02*
X508Y456D01*
X541Y456D02*
X575Y456D01*
X1369Y456D02*
X1404Y456D01*
X1437Y456D02*
X1472Y456D01*
X472Y455D02*
X508Y455D01*
X541Y455D02*
X575Y455D01*
X1369Y455D02*
X1404Y455D01*
X1437Y455D02*
X1472Y455D01*
X472Y454D02*
X508Y454D01*
X541Y454D02*
X575Y454D01*
X1369Y454D02*
X1404Y454D01*
X1437Y454D02*
X1472Y454D01*
X472Y453D02*
X508Y453D01*
X541Y453D02*
X575Y453D01*
X1369Y453D02*
X1404Y453D01*
X1437Y453D02*
X1472Y453D01*
X473Y452D02*
X508Y452D01*
X541Y452D02*
X575Y452D01*
X1369Y452D02*
X1405Y452D01*
X1437Y452D02*
X1472Y452D01*
X473Y451D02*
X509Y451D01*
X540Y451D02*
X575Y451D01*
X1370Y451D02*
X1405Y451D01*
X1437Y451D02*
X1472Y451D01*
X473Y450D02*
X509Y450D01*
X540Y450D02*
X575Y450D01*
X1370Y450D02*
X1405Y450D01*
X1436Y450D02*
X1472Y450D01*
X473Y449D02*
X509Y449D01*
X540Y449D02*
X575Y449D01*
X1370Y449D02*
X1405Y449D01*
X1436Y449D02*
X1472Y449D01*
X473Y448D02*
X510Y448D01*
X539Y448D02*
X574Y448D01*
X1370Y448D02*
X1406Y448D01*
X1436Y448D02*
X1471Y448D01*
X474Y447D02*
X510Y447D01*
X539Y447D02*
X574Y447D01*
X1371Y447D02*
X1406Y447D01*
X1435Y447D02*
X1471Y447D01*
X474Y446D02*
X511Y446D01*
X538Y446D02*
X574Y446D01*
X1371Y446D02*
X1407Y446D01*
X1434Y446D02*
X1471Y446D01*
X474Y445D02*
X512Y445D01*
X537Y445D02*
X573Y445D01*
X1371Y445D02*
X1408Y445D01*
X1434Y445D02*
X1470Y445D01*
X475Y444D02*
X512Y444D01*
X537Y444D02*
X573Y444D01*
X1372Y444D02*
X1409Y444D01*
X1433Y444D02*
X1470Y444D01*
X475Y443D02*
X514Y443D01*
X536Y443D02*
X572Y443D01*
X1372Y443D02*
X1410Y443D01*
X1432Y443D02*
X1469Y443D01*
X476Y442D02*
X515Y442D01*
X534Y442D02*
X572Y442D01*
X1373Y442D02*
X1411Y442D01*
X1431Y442D02*
X1469Y442D01*
X476Y441D02*
X516Y441D01*
X533Y441D02*
X571Y441D01*
X1373Y441D02*
X1413Y441D01*
X1429Y441D02*
X1468Y441D01*
X477Y440D02*
X519Y440D01*
X531Y440D02*
X571Y440D01*
X1374Y440D02*
X1415Y440D01*
X1427Y440D02*
X1467Y440D01*
X478Y439D02*
X570Y439D01*
X1375Y439D02*
X1467Y439D01*
X479Y438D02*
X569Y438D01*
X1376Y438D02*
X1466Y438D01*
X480Y437D02*
X568Y437D01*
X1377Y437D02*
X1465Y437D01*
X481Y436D02*
X567Y436D01*
X1378Y436D02*
X1464Y436D01*
X482Y435D02*
X566Y435D01*
X1379Y435D02*
X1463Y435D01*
X483Y434D02*
X565Y434D01*
X1380Y434D02*
X1462Y434D01*
X484Y433D02*
X563Y433D01*
X1381Y433D02*
X1460Y433D01*
X486Y432D02*
X561Y432D01*
X1383Y432D02*
X1458Y432D01*
X488Y431D02*
X559Y431D01*
X1385Y431D02*
X1456Y431D01*
X491Y430D02*
X557Y430D01*
X1388Y430D02*
X1454Y430D01*
X497Y429D02*
X551Y429D01*
X1394Y429D02*
X1448Y429D01*
X492Y380D02*
X556Y380D01*
X1389Y380D02*
X1453Y380D01*
X489Y379D02*
X559Y379D01*
X1386Y379D02*
X1456Y379D01*
X487Y378D02*
X561Y378D01*
X1384Y378D02*
X1458Y378D01*
X485Y377D02*
X563Y377D01*
X1382Y377D02*
X1460Y377D01*
X483Y376D02*
X564Y376D01*
X1380Y376D02*
X1461Y376D01*
X482Y375D02*
X566Y375D01*
X1379Y375D02*
X1463Y375D01*
X481Y374D02*
X567Y374D01*
X1378Y374D02*
X1464Y374D01*
X480Y373D02*
X568Y373D01*
X1377Y373D02*
X1465Y373D01*
X479Y372D02*
X569Y372D01*
X1376Y372D02*
X1466Y372D01*
X478Y371D02*
X570Y371D01*
X1375Y371D02*
X1466Y371D01*
X477Y370D02*
X518Y370D01*
X531Y370D02*
X570Y370D01*
X1374Y370D02*
X1415Y370D01*
X1427Y370D02*
X1467Y370D01*
X476Y369D02*
X516Y369D01*
X533Y369D02*
X571Y369D01*
X1373Y369D02*
X1412Y369D01*
X1429Y369D02*
X1468Y369D01*
X476Y368D02*
X514Y368D01*
X535Y368D02*
X572Y368D01*
X1373Y368D02*
X1411Y368D01*
X1431Y368D02*
X1469Y368D01*
X475Y367D02*
X513Y367D01*
X536Y367D02*
X572Y367D01*
X1372Y367D02*
X1409Y367D01*
X1432Y367D02*
X1469Y367D01*
X475Y366D02*
X512Y366D01*
X537Y366D02*
X573Y366D01*
X1372Y366D02*
X1408Y366D01*
X1433Y366D02*
X1470Y366D01*
X474Y365D02*
X511Y365D01*
X538Y365D02*
X573Y365D01*
X1371Y365D02*
X1407Y365D01*
X1434Y365D02*
X1470Y365D01*
X474Y364D02*
X511Y364D01*
X539Y364D02*
X574Y364D01*
X1371Y364D02*
X1407Y364D01*
X1435Y364D02*
X1471Y364D01*
X474Y363D02*
X510Y363D01*
X539Y363D02*
X574Y363D01*
X1371Y363D02*
X1406Y363D01*
X1435Y363D02*
X1471Y363D01*
X473Y362D02*
X509Y362D01*
X540Y362D02*
X574Y362D01*
X1370Y362D02*
X1406Y362D01*
X1436Y362D02*
X1471Y362D01*
X473Y361D02*
X509Y361D01*
X540Y361D02*
X575Y361D01*
X1370Y361D02*
X1405Y361D01*
X1436Y361D02*
X1471Y361D01*
X473Y360D02*
X509Y360D01*
X540Y360D02*
X575Y360D01*
X1370Y360D02*
X1405Y360D01*
X1437Y360D02*
X1472Y360D01*
X473Y359D02*
X508Y359D01*
X541Y359D02*
X575Y359D01*
X1370Y359D02*
X1404Y359D01*
X1437Y359D02*
X1472Y359D01*
X472Y358D02*
X508Y358D01*
X541Y358D02*
X575Y358D01*
X1369Y358D02*
X1404Y358D01*
X1437Y358D02*
X1472Y358D01*
X472Y357D02*
X508Y357D01*
X541Y357D02*
X575Y357D01*
X1369Y357D02*
X1404Y357D01*
X1437Y357D02*
X1472Y357D01*
X472Y356D02*
X508Y356D01*
X541Y356D02*
X575Y356D01*
X1369Y356D02*
X1404Y356D01*
X1437Y356D02*
X1472Y356D01*
X472Y355D02*
X508Y355D01*
X541Y355D02*
X575Y355D01*
X1369Y355D02*
X1404Y355D01*
X1438Y355D02*
X1472Y355D01*
X472Y354D02*
X508Y354D01*
X541Y354D02*
X575Y354D01*
X1369Y354D02*
X1404Y354D01*
X1437Y354D02*
X1472Y354D01*
X472Y353D02*
X508Y353D01*
X541Y353D02*
X575Y353D01*
X1369Y353D02*
X1404Y353D01*
X1437Y353D02*
X1472Y353D01*
X472Y352D02*
X508Y352D01*
X541Y352D02*
X575Y352D01*
X1369Y352D02*
X1404Y352D01*
X1437Y352D02*
X1472Y352D01*
X473Y351D02*
X508Y351D01*
X541Y351D02*
X575Y351D01*
X1370Y351D02*
X1404Y351D01*
X1437Y351D02*
X1472Y351D01*
X473Y350D02*
X509Y350D01*
X541Y350D02*
X575Y350D01*
X1370Y350D02*
X1405Y350D01*
X1437Y350D02*
X1472Y350D01*
X473Y349D02*
X509Y349D01*
X540Y349D02*
X575Y349D01*
X1370Y349D02*
X1405Y349D01*
X1436Y349D02*
X1472Y349D01*
X473Y348D02*
X509Y348D01*
X540Y348D02*
X574Y348D01*
X1370Y348D02*
X1406Y348D01*
X1436Y348D02*
X1471Y348D01*
X474Y347D02*
X510Y347D01*
X539Y347D02*
X574Y347D01*
X1371Y347D02*
X1406Y347D01*
X1435Y347D02*
X1471Y347D01*
X474Y346D02*
X511Y346D01*
X539Y346D02*
X574Y346D01*
X1371Y346D02*
X1407Y346D01*
X1435Y346D02*
X1471Y346D01*
X474Y345D02*
X511Y345D01*
X538Y345D02*
X573Y345D01*
X1371Y345D02*
X1407Y345D01*
X1434Y345D02*
X1470Y345D01*
X475Y344D02*
X512Y344D01*
X537Y344D02*
X573Y344D01*
X1372Y344D02*
X1408Y344D01*
X1433Y344D02*
X1470Y344D01*
X475Y343D02*
X513Y343D01*
X536Y343D02*
X572Y343D01*
X1372Y343D02*
X1409Y343D01*
X1432Y343D02*
X1469Y343D01*
X476Y342D02*
X514Y342D01*
X535Y342D02*
X572Y342D01*
X1373Y342D02*
X1411Y342D01*
X1431Y342D02*
X1469Y342D01*
X476Y341D02*
X516Y341D01*
X533Y341D02*
X571Y341D01*
X1373Y341D02*
X1412Y341D01*
X1429Y341D02*
X1468Y341D01*
X477Y340D02*
X518Y340D01*
X531Y340D02*
X571Y340D01*
X1374Y340D02*
X1414Y340D01*
X1427Y340D02*
X1467Y340D01*
X478Y339D02*
X570Y339D01*
X1375Y339D02*
X1467Y339D01*
X479Y338D02*
X569Y338D01*
X1376Y338D02*
X1466Y338D01*
X480Y337D02*
X568Y337D01*
X1377Y337D02*
X1465Y337D01*
X481Y336D02*
X567Y336D01*
X1378Y336D02*
X1464Y336D01*
X482Y335D02*
X566Y335D01*
X1379Y335D02*
X1463Y335D01*
X483Y334D02*
X565Y334D01*
X1380Y334D02*
X1462Y334D01*
X484Y333D02*
X563Y333D01*
X1381Y333D02*
X1460Y333D01*
X486Y332D02*
X561Y332D01*
X1383Y332D02*
X1458Y332D01*
X488Y331D02*
X559Y331D01*
X1385Y331D02*
X1456Y331D01*
X491Y330D02*
X557Y330D01*
X1388Y330D02*
X1454Y330D01*
X497Y329D02*
X551Y329D01*
X1394Y329D02*
X1448Y329D01*
X492Y280D02*
X556Y280D01*
X1389Y280D02*
X1453Y280D01*
X489Y279D02*
X559Y279D01*
X1386Y279D02*
X1456Y279D01*
X487Y278D02*
X561Y278D01*
X1384Y278D02*
X1458Y278D01*
X485Y277D02*
X563Y277D01*
X1382Y277D02*
X1460Y277D01*
X483Y276D02*
X564Y276D01*
X1380Y276D02*
X1461Y276D01*
X482Y275D02*
X566Y275D01*
X1379Y275D02*
X1463Y275D01*
X481Y274D02*
X567Y274D01*
X1378Y274D02*
X1464Y274D01*
X480Y273D02*
X568Y273D01*
X1377Y273D02*
X1465Y273D01*
X479Y272D02*
X569Y272D01*
X1376Y272D02*
X1466Y272D01*
X478Y271D02*
X570Y271D01*
X1375Y271D02*
X1467Y271D01*
X477Y270D02*
X518Y270D01*
X531Y270D02*
X570Y270D01*
X1374Y270D02*
X1415Y270D01*
X1427Y270D02*
X1467Y270D01*
X477Y269D02*
X516Y269D01*
X533Y269D02*
X571Y269D01*
X1373Y269D02*
X1412Y269D01*
X1429Y269D02*
X1468Y269D01*
X476Y268D02*
X515Y268D01*
X534Y268D02*
X572Y268D01*
X1373Y268D02*
X1411Y268D01*
X1431Y268D02*
X1469Y268D01*
X475Y267D02*
X513Y267D01*
X536Y267D02*
X572Y267D01*
X1372Y267D02*
X1410Y267D01*
X1432Y267D02*
X1469Y267D01*
X475Y266D02*
X512Y266D01*
X537Y266D02*
X573Y266D01*
X1372Y266D02*
X1408Y266D01*
X1433Y266D02*
X1470Y266D01*
X474Y265D02*
X511Y265D01*
X538Y265D02*
X573Y265D01*
X1371Y265D02*
X1408Y265D01*
X1434Y265D02*
X1470Y265D01*
X474Y264D02*
X511Y264D01*
X538Y264D02*
X574Y264D01*
X1371Y264D02*
X1407Y264D01*
X1435Y264D02*
X1471Y264D01*
X474Y263D02*
X510Y263D01*
X539Y263D02*
X574Y263D01*
X1371Y263D02*
X1406Y263D01*
X1435Y263D02*
X1471Y263D01*
X473Y262D02*
X510Y262D01*
X540Y262D02*
X574Y262D01*
X1370Y262D02*
X1406Y262D01*
X1436Y262D02*
X1471Y262D01*
X473Y261D02*
X509Y261D01*
X540Y261D02*
X575Y261D01*
X1370Y261D02*
X1405Y261D01*
X1436Y261D02*
X1471Y261D01*
X473Y260D02*
X509Y260D01*
X540Y260D02*
X575Y260D01*
X1370Y260D02*
X1405Y260D01*
X1437Y260D02*
X1472Y260D01*
X473Y259D02*
X508Y259D01*
X541Y259D02*
X575Y259D01*
X1370Y259D02*
X1405Y259D01*
X1437Y259D02*
X1472Y259D01*
X473Y258D02*
X508Y258D01*
X541Y258D02*
X575Y258D01*
X1369Y258D02*
X1404Y258D01*
X1437Y258D02*
X1472Y258D01*
X472Y257D02*
X508Y257D01*
X541Y257D02*
X575Y257D01*
X1369Y257D02*
X1404Y257D01*
X1437Y257D02*
X1472Y257D01*
X472Y256D02*
X508Y256D01*
X541Y256D02*
X575Y256D01*
X1369Y256D02*
X1404Y256D01*
X1437Y256D02*
X1472Y256D01*
X472Y255D02*
X508Y255D01*
X541Y255D02*
X575Y255D01*
X1369Y255D02*
X1404Y255D01*
X1437Y255D02*
X1472Y255D01*
X472Y254D02*
X508Y254D01*
X541Y254D02*
X575Y254D01*
X1369Y254D02*
X1404Y254D01*
X1437Y254D02*
X1472Y254D01*
X472Y253D02*
X508Y253D01*
X541Y253D02*
X575Y253D01*
X1369Y253D02*
X1404Y253D01*
X1437Y253D02*
X1472Y253D01*
X473Y252D02*
X508Y252D01*
X541Y252D02*
X575Y252D01*
X1369Y252D02*
X1404Y252D01*
X1437Y252D02*
X1472Y252D01*
X473Y251D02*
X508Y251D01*
X541Y251D02*
X575Y251D01*
X1370Y251D02*
X1405Y251D01*
X1437Y251D02*
X1472Y251D01*
X473Y250D02*
X509Y250D01*
X540Y250D02*
X575Y250D01*
X1370Y250D02*
X1405Y250D01*
X1437Y250D02*
X1472Y250D01*
X473Y249D02*
X509Y249D01*
X540Y249D02*
X575Y249D01*
X1370Y249D02*
X1405Y249D01*
X1436Y249D02*
X1472Y249D01*
X473Y248D02*
X510Y248D01*
X540Y248D02*
X574Y248D01*
X1370Y248D02*
X1406Y248D01*
X1436Y248D02*
X1471Y248D01*
X474Y247D02*
X510Y247D01*
X539Y247D02*
X574Y247D01*
X1371Y247D02*
X1406Y247D01*
X1435Y247D02*
X1471Y247D01*
X474Y246D02*
X511Y246D01*
X538Y246D02*
X574Y246D01*
X1371Y246D02*
X1407Y246D01*
X1435Y246D02*
X1471Y246D01*
X474Y245D02*
X511Y245D01*
X538Y245D02*
X573Y245D01*
X1371Y245D02*
X1408Y245D01*
X1434Y245D02*
X1470Y245D01*
X475Y244D02*
X512Y244D01*
X537Y244D02*
X573Y244D01*
X1372Y244D02*
X1408Y244D01*
X1433Y244D02*
X1470Y244D01*
X475Y243D02*
X513Y243D01*
X536Y243D02*
X572Y243D01*
X1372Y243D02*
X1409Y243D01*
X1432Y243D02*
X1469Y243D01*
X476Y242D02*
X515Y242D01*
X535Y242D02*
X572Y242D01*
X1373Y242D02*
X1411Y242D01*
X1431Y242D02*
X1469Y242D01*
X476Y241D02*
X516Y241D01*
X533Y241D02*
X571Y241D01*
X1373Y241D02*
X1412Y241D01*
X1429Y241D02*
X1468Y241D01*
X477Y240D02*
X518Y240D01*
X531Y240D02*
X571Y240D01*
X1374Y240D02*
X1415Y240D01*
X1427Y240D02*
X1467Y240D01*
X478Y239D02*
X570Y239D01*
X1375Y239D02*
X1467Y239D01*
X479Y238D02*
X569Y238D01*
X1376Y238D02*
X1466Y238D01*
X480Y237D02*
X568Y237D01*
X1377Y237D02*
X1465Y237D01*
X481Y236D02*
X567Y236D01*
X1378Y236D02*
X1464Y236D01*
X482Y235D02*
X566Y235D01*
X1379Y235D02*
X1463Y235D01*
X483Y234D02*
X565Y234D01*
X1380Y234D02*
X1462Y234D01*
X484Y233D02*
X563Y233D01*
X1381Y233D02*
X1460Y233D01*
X486Y232D02*
X561Y232D01*
X1383Y232D02*
X1458Y232D01*
X488Y231D02*
X559Y231D01*
X1385Y231D02*
X1456Y231D01*
X491Y230D02*
X557Y230D01*
X1388Y230D02*
X1454Y230D01*
X497Y229D02*
X551Y229D01*
X1394Y229D02*
X1448Y229D01*
X492Y180D02*
X556Y180D01*
X1389Y180D02*
X1453Y180D01*
X489Y179D02*
X559Y179D01*
X1386Y179D02*
X1456Y179D01*
X487Y178D02*
X561Y178D01*
X1384Y178D02*
X1458Y178D01*
X485Y177D02*
X563Y177D01*
X1382Y177D02*
X1460Y177D01*
X483Y176D02*
X564Y176D01*
X1380Y176D02*
X1461Y176D01*
X482Y175D02*
X566Y175D01*
X1379Y175D02*
X1463Y175D01*
X481Y174D02*
X567Y174D01*
X1378Y174D02*
X1464Y174D01*
X480Y173D02*
X568Y173D01*
X1377Y173D02*
X1465Y173D01*
X479Y172D02*
X569Y172D01*
X1376Y172D02*
X1466Y172D01*
X478Y171D02*
X570Y171D01*
X1375Y171D02*
X1467Y171D01*
X477Y170D02*
X518Y170D01*
X531Y170D02*
X570Y170D01*
X1374Y170D02*
X1415Y170D01*
X1427Y170D02*
X1467Y170D01*
X476Y169D02*
X516Y169D01*
X533Y169D02*
X571Y169D01*
X1373Y169D02*
X1412Y169D01*
X1429Y169D02*
X1468Y169D01*
X476Y168D02*
X515Y168D01*
X534Y168D02*
X572Y168D01*
X1373Y168D02*
X1411Y168D01*
X1431Y168D02*
X1469Y168D01*
X475Y167D02*
X513Y167D01*
X536Y167D02*
X572Y167D01*
X1372Y167D02*
X1410Y167D01*
X1432Y167D02*
X1469Y167D01*
X475Y166D02*
X512Y166D01*
X537Y166D02*
X573Y166D01*
X1372Y166D02*
X1408Y166D01*
X1433Y166D02*
X1470Y166D01*
X474Y165D02*
X511Y165D01*
X538Y165D02*
X573Y165D01*
X1371Y165D02*
X1408Y165D01*
X1434Y165D02*
X1470Y165D01*
X474Y164D02*
X511Y164D01*
X538Y164D02*
X574Y164D01*
X1371Y164D02*
X1407Y164D01*
X1435Y164D02*
X1471Y164D01*
X474Y163D02*
X510Y163D01*
X539Y163D02*
X574Y163D01*
X1371Y163D02*
X1406Y163D01*
X1435Y163D02*
X1471Y163D01*
X473Y162D02*
X510Y162D01*
X540Y162D02*
X574Y162D01*
X1370Y162D02*
X1406Y162D01*
X1436Y162D02*
X1471Y162D01*
X473Y161D02*
X509Y161D01*
X540Y161D02*
X575Y161D01*
X1370Y161D02*
X1405Y161D01*
X1436Y161D02*
X1471Y161D01*
X473Y160D02*
X509Y160D01*
X540Y160D02*
X575Y160D01*
X1370Y160D02*
X1405Y160D01*
X1437Y160D02*
X1472Y160D01*
X473Y159D02*
X508Y159D01*
X541Y159D02*
X575Y159D01*
X1370Y159D02*
X1405Y159D01*
X1437Y159D02*
X1472Y159D01*
X472Y158D02*
X508Y158D01*
X541Y158D02*
X575Y158D01*
X1369Y158D02*
X1404Y158D01*
X1437Y158D02*
X1472Y158D01*
X472Y157D02*
X508Y157D01*
X541Y157D02*
X575Y157D01*
X1369Y157D02*
X1404Y157D01*
X1437Y157D02*
X1472Y157D01*
X472Y156D02*
X508Y156D01*
X541Y156D02*
X575Y156D01*
X1369Y156D02*
X1404Y156D01*
X1437Y156D02*
X1472Y156D01*
X472Y155D02*
X508Y155D01*
X541Y155D02*
X575Y155D01*
X1369Y155D02*
X1404Y155D01*
X1437Y155D02*
X1472Y155D01*
X472Y154D02*
X508Y154D01*
X541Y154D02*
X575Y154D01*
X1369Y154D02*
X1404Y154D01*
X1437Y154D02*
X1472Y154D01*
X472Y153D02*
X508Y153D01*
X541Y153D02*
X575Y153D01*
X1369Y153D02*
X1404Y153D01*
X1437Y153D02*
X1472Y153D01*
X472Y152D02*
X508Y152D01*
X541Y152D02*
X575Y152D01*
X1369Y152D02*
X1404Y152D01*
X1437Y152D02*
X1472Y152D01*
X473Y151D02*
X508Y151D01*
X541Y151D02*
X575Y151D01*
X1370Y151D02*
X1405Y151D01*
X1437Y151D02*
X1472Y151D01*
X473Y150D02*
X509Y150D01*
X540Y150D02*
X575Y150D01*
X1370Y150D02*
X1405Y150D01*
X1437Y150D02*
X1472Y150D01*
X473Y149D02*
X509Y149D01*
X540Y149D02*
X575Y149D01*
X1370Y149D02*
X1405Y149D01*
X1436Y149D02*
X1472Y149D01*
X473Y148D02*
X509Y148D01*
X540Y148D02*
X574Y148D01*
X1370Y148D02*
X1406Y148D01*
X1436Y148D02*
X1471Y148D01*
X474Y147D02*
X510Y147D01*
X539Y147D02*
X574Y147D01*
X1371Y147D02*
X1406Y147D01*
X1435Y147D02*
X1471Y147D01*
X474Y146D02*
X511Y146D01*
X538Y146D02*
X574Y146D01*
X1371Y146D02*
X1407Y146D01*
X1435Y146D02*
X1471Y146D01*
X474Y145D02*
X511Y145D01*
X538Y145D02*
X573Y145D01*
X1371Y145D02*
X1408Y145D01*
X1434Y145D02*
X1470Y145D01*
X475Y144D02*
X512Y144D01*
X537Y144D02*
X573Y144D01*
X1372Y144D02*
X1408Y144D01*
X1433Y144D02*
X1470Y144D01*
X475Y143D02*
X513Y143D01*
X536Y143D02*
X572Y143D01*
X1372Y143D02*
X1409Y143D01*
X1432Y143D02*
X1469Y143D01*
X476Y142D02*
X515Y142D01*
X535Y142D02*
X572Y142D01*
X1373Y142D02*
X1411Y142D01*
X1431Y142D02*
X1469Y142D01*
X476Y141D02*
X516Y141D01*
X533Y141D02*
X571Y141D01*
X1373Y141D02*
X1412Y141D01*
X1429Y141D02*
X1468Y141D01*
X477Y140D02*
X518Y140D01*
X531Y140D02*
X571Y140D01*
X1374Y140D02*
X1415Y140D01*
X1427Y140D02*
X1467Y140D01*
X478Y139D02*
X570Y139D01*
X1375Y139D02*
X1467Y139D01*
X479Y138D02*
X569Y138D01*
X1376Y138D02*
X1466Y138D01*
X480Y137D02*
X568Y137D01*
X1377Y137D02*
X1465Y137D01*
X481Y136D02*
X567Y136D01*
X1378Y136D02*
X1464Y136D01*
X482Y135D02*
X566Y135D01*
X1379Y135D02*
X1463Y135D01*
X483Y134D02*
X565Y134D01*
X1380Y134D02*
X1462Y134D01*
X484Y133D02*
X563Y133D01*
X1381Y133D02*
X1460Y133D01*
X486Y132D02*
X561Y132D01*
X1383Y132D02*
X1458Y132D01*
X488Y131D02*
X559Y131D01*
X1385Y131D02*
X1456Y131D01*
X491Y130D02*
X557Y130D01*
X1388Y130D02*
X1454Y130D01*
X497Y129D02*
X551Y129D01*
X1394Y129D02*
X1448Y129D01*
X492Y80D02*
X556Y80D01*
X1389Y80D02*
X1453Y80D01*
X489Y79D02*
X559Y79D01*
X1386Y79D02*
X1456Y79D01*
X487Y78D02*
X561Y78D01*
X1384Y78D02*
X1458Y78D01*
X485Y77D02*
X563Y77D01*
X1382Y77D02*
X1460Y77D01*
X483Y76D02*
X564Y76D01*
X1380Y76D02*
X1461Y76D01*
X482Y75D02*
X566Y75D01*
X1379Y75D02*
X1463Y75D01*
X481Y74D02*
X567Y74D01*
X1378Y74D02*
X1464Y74D01*
X480Y73D02*
X568Y73D01*
X1377Y73D02*
X1465Y73D01*
X479Y72D02*
X569Y72D01*
X1376Y72D02*
X1466Y72D01*
X478Y71D02*
X570Y71D01*
X1375Y71D02*
X1467Y71D01*
X477Y70D02*
X518Y70D01*
X531Y70D02*
X570Y70D01*
X1374Y70D02*
X1415Y70D01*
X1427Y70D02*
X1467Y70D01*
X477Y69D02*
X516Y69D01*
X533Y69D02*
X571Y69D01*
X1373Y69D02*
X1412Y69D01*
X1429Y69D02*
X1468Y69D01*
X476Y68D02*
X515Y68D01*
X534Y68D02*
X572Y68D01*
X1373Y68D02*
X1411Y68D01*
X1431Y68D02*
X1469Y68D01*
X475Y67D02*
X513Y67D01*
X536Y67D02*
X572Y67D01*
X1372Y67D02*
X1410Y67D01*
X1432Y67D02*
X1469Y67D01*
X475Y66D02*
X512Y66D01*
X537Y66D02*
X573Y66D01*
X1372Y66D02*
X1408Y66D01*
X1433Y66D02*
X1470Y66D01*
X474Y65D02*
X511Y65D01*
X538Y65D02*
X573Y65D01*
X1371Y65D02*
X1408Y65D01*
X1434Y65D02*
X1470Y65D01*
X474Y64D02*
X511Y64D01*
X538Y64D02*
X574Y64D01*
X1371Y64D02*
X1407Y64D01*
X1435Y64D02*
X1471Y64D01*
X474Y63D02*
X510Y63D01*
X539Y63D02*
X574Y63D01*
X1371Y63D02*
X1406Y63D01*
X1435Y63D02*
X1471Y63D01*
X473Y62D02*
X510Y62D01*
X540Y62D02*
X574Y62D01*
X1370Y62D02*
X1406Y62D01*
X1436Y62D02*
X1471Y62D01*
X473Y61D02*
X509Y61D01*
X540Y61D02*
X575Y61D01*
X1370Y61D02*
X1405Y61D01*
X1436Y61D02*
X1471Y61D01*
X473Y60D02*
X509Y60D01*
X540Y60D02*
X575Y60D01*
X1370Y60D02*
X1405Y60D01*
X1437Y60D02*
X1472Y60D01*
X473Y59D02*
X508Y59D01*
X541Y59D02*
X575Y59D01*
X1370Y59D02*
X1405Y59D01*
X1437Y59D02*
X1472Y59D01*
X473Y58D02*
X508Y58D01*
X541Y58D02*
X575Y58D01*
X1369Y58D02*
X1404Y58D01*
X1437Y58D02*
X1472Y58D01*
X472Y57D02*
X508Y57D01*
X541Y57D02*
X575Y57D01*
X1369Y57D02*
X1404Y57D01*
X1437Y57D02*
X1472Y57D01*
X472Y56D02*
X508Y56D01*
X541Y56D02*
X575Y56D01*
X1369Y56D02*
X1404Y56D01*
X1437Y56D02*
X1472Y56D01*
X472Y55D02*
X508Y55D01*
X541Y55D02*
X575Y55D01*
X1369Y55D02*
X1404Y55D01*
X1437Y55D02*
X1472Y55D01*
X472Y54D02*
X508Y54D01*
X541Y54D02*
X575Y54D01*
X1369Y54D02*
X1404Y54D01*
X1437Y54D02*
X1472Y54D01*
X472Y53D02*
X508Y53D01*
X541Y53D02*
X575Y53D01*
X1369Y53D02*
X1404Y53D01*
X1437Y53D02*
X1472Y53D01*
X473Y52D02*
X508Y52D01*
X541Y52D02*
X575Y52D01*
X1369Y52D02*
X1404Y52D01*
X1437Y52D02*
X1472Y52D01*
X473Y51D02*
X508Y51D01*
X541Y51D02*
X575Y51D01*
X1370Y51D02*
X1405Y51D01*
X1437Y51D02*
X1472Y51D01*
X473Y50D02*
X509Y50D01*
X540Y50D02*
X575Y50D01*
X1370Y50D02*
X1405Y50D01*
X1437Y50D02*
X1472Y50D01*
X473Y49D02*
X509Y49D01*
X540Y49D02*
X575Y49D01*
X1370Y49D02*
X1405Y49D01*
X1436Y49D02*
X1472Y49D01*
X473Y48D02*
X510Y48D01*
X540Y48D02*
X574Y48D01*
X1370Y48D02*
X1406Y48D01*
X1436Y48D02*
X1471Y48D01*
X474Y47D02*
X510Y47D01*
X539Y47D02*
X574Y47D01*
X1371Y47D02*
X1406Y47D01*
X1435Y47D02*
X1471Y47D01*
X474Y46D02*
X511Y46D01*
X538Y46D02*
X574Y46D01*
X1371Y46D02*
X1407Y46D01*
X1435Y46D02*
X1471Y46D01*
X474Y45D02*
X511Y45D01*
X538Y45D02*
X573Y45D01*
X1371Y45D02*
X1408Y45D01*
X1434Y45D02*
X1470Y45D01*
X475Y44D02*
X512Y44D01*
X537Y44D02*
X573Y44D01*
X1372Y44D02*
X1408Y44D01*
X1433Y44D02*
X1470Y44D01*
X475Y43D02*
X513Y43D01*
X536Y43D02*
X572Y43D01*
X1372Y43D02*
X1409Y43D01*
X1432Y43D02*
X1469Y43D01*
X476Y42D02*
X515Y42D01*
X535Y42D02*
X572Y42D01*
X1373Y42D02*
X1411Y42D01*
X1431Y42D02*
X1469Y42D01*
X476Y41D02*
X516Y41D01*
X533Y41D02*
X571Y41D01*
X1373Y41D02*
X1412Y41D01*
X1429Y41D02*
X1468Y41D01*
X477Y40D02*
X518Y40D01*
X531Y40D02*
X571Y40D01*
X1374Y40D02*
X1415Y40D01*
X1427Y40D02*
X1467Y40D01*
X478Y39D02*
X570Y39D01*
X1375Y39D02*
X1467Y39D01*
X479Y38D02*
X569Y38D01*
X1376Y38D02*
X1466Y38D01*
X480Y37D02*
X568Y37D01*
X1377Y37D02*
X1465Y37D01*
X481Y36D02*
X567Y36D01*
X1378Y36D02*
X1464Y36D01*
X482Y35D02*
X566Y35D01*
X1379Y35D02*
X1463Y35D01*
X483Y34D02*
X565Y34D01*
X1380Y34D02*
X1462Y34D01*
X484Y33D02*
X563Y33D01*
X1381Y33D02*
X1460Y33D01*
X486Y32D02*
X561Y32D01*
X1383Y32D02*
X1458Y32D01*
X488Y31D02*
X559Y31D01*
X1385Y31D02*
X1456Y31D01*
X491Y30D02*
X557Y30D01*
X1388Y30D02*
X1454Y30D01*
X497Y29D02*
X551Y29D01*
X1394Y29D02*
X1448Y29D01*
D02*
G04 End of Copper1*
M02*