G04 MADE WITH FRITZING*
G04 WWW.FRITZING.ORG*
G04 DOUBLE SIDED*
G04 HOLES PLATED*
G04 CONTOUR ON CENTER OF CONTOUR VECTOR*
%ASAXBY*%
%FSLAX23Y23*%
%MOIN*%
%OFA0B0*%
%SFA1.0B1.0*%
%ADD10C,0.025748*%
%ADD11C,0.088000*%
%ADD12C,0.049370*%
%ADD13C,0.062000*%
%ADD14C,0.088639*%
%ADD15C,0.158908*%
%ADD16C,0.065278*%
%ADD17C,0.135984*%
%ADD18R,0.001000X0.001000*%
%LNMASK0*%
G90*
G70*
G54D10*
X1547Y1554D03*
X1521Y1504D03*
X1497Y1455D03*
X1547Y1079D03*
X1521Y1029D03*
X1497Y980D03*
X1346Y1554D03*
X1346Y1455D03*
X1346Y1655D03*
X1197Y1455D03*
X1197Y1554D03*
X1197Y1679D03*
X1172Y1779D03*
X1346Y1755D03*
X1346Y1854D03*
X1197Y1879D03*
X621Y1904D03*
X772Y1930D03*
X772Y2279D03*
X696Y2279D03*
X621Y2279D03*
X547Y2279D03*
X796Y2454D03*
X722Y2430D03*
X647Y2405D03*
X571Y2355D03*
X1321Y2355D03*
X1197Y2480D03*
X1297Y2480D03*
X1146Y2504D03*
X1146Y2555D03*
X1271Y2530D03*
X1247Y2579D03*
X1146Y2604D03*
G54D11*
X296Y104D03*
X296Y204D03*
X296Y304D03*
X296Y404D03*
X296Y504D03*
X296Y604D03*
X296Y704D03*
X296Y804D03*
X296Y904D03*
X296Y1004D03*
X296Y1104D03*
X296Y1204D03*
X296Y1304D03*
X296Y1404D03*
X296Y1504D03*
X296Y1604D03*
X296Y1704D03*
X296Y1804D03*
X296Y1904D03*
X296Y2004D03*
X296Y2104D03*
X296Y2204D03*
X296Y2304D03*
X296Y2404D03*
X296Y2504D03*
X296Y2604D03*
X296Y2704D03*
X296Y2804D03*
X296Y2904D03*
X296Y3004D03*
X296Y3104D03*
X296Y3204D03*
G54D12*
X1947Y2754D03*
X1948Y2653D03*
X2695Y2653D03*
X2695Y2755D03*
X3447Y2655D03*
X3447Y2754D03*
X1946Y1903D03*
X2697Y1903D03*
X3446Y1903D03*
X3446Y2005D03*
X2697Y2005D03*
X1946Y2005D03*
X3448Y1254D03*
X3448Y1154D03*
X2695Y1254D03*
X2695Y1154D03*
X1946Y1254D03*
X1946Y1154D03*
X1821Y1404D03*
X2822Y1479D03*
X3572Y1479D03*
G54D13*
X521Y2055D03*
X521Y1955D03*
X521Y1855D03*
X521Y1755D03*
X521Y1655D03*
X521Y1555D03*
X521Y1454D03*
X521Y1354D03*
X521Y1254D03*
X521Y1154D03*
X521Y1054D03*
X521Y954D03*
X521Y854D03*
X521Y754D03*
X521Y654D03*
X521Y554D03*
X521Y454D03*
X521Y354D03*
X521Y254D03*
X521Y154D03*
X521Y54D03*
X1422Y54D03*
X1422Y154D03*
X1422Y254D03*
X1422Y354D03*
X1422Y454D03*
X1422Y554D03*
X1422Y654D03*
X1422Y754D03*
X1422Y854D03*
X1422Y954D03*
X1422Y1054D03*
X1422Y1154D03*
X1422Y1254D03*
X1422Y1354D03*
X1422Y1454D03*
X1422Y1555D03*
X1422Y1655D03*
X1422Y1755D03*
X1422Y1855D03*
X1422Y1955D03*
X1422Y2055D03*
G54D14*
X2121Y2704D03*
X2371Y2804D03*
G54D15*
X2271Y2604D03*
G54D16*
X2071Y2604D03*
X2471Y2604D03*
G54D14*
X2871Y2704D03*
X3121Y2804D03*
G54D15*
X3021Y2604D03*
G54D16*
X2821Y2604D03*
X3221Y2604D03*
G54D14*
X3621Y2704D03*
X3871Y2804D03*
G54D15*
X3771Y2604D03*
G54D16*
X3571Y2604D03*
X3971Y2604D03*
G54D14*
X2121Y1954D03*
X2371Y2054D03*
G54D15*
X2271Y1854D03*
G54D16*
X2071Y1854D03*
X2471Y1854D03*
G54D14*
X2871Y1954D03*
X3121Y2054D03*
G54D15*
X3021Y1854D03*
G54D16*
X2821Y1854D03*
X3221Y1854D03*
G54D14*
X3621Y1954D03*
X3871Y2054D03*
G54D15*
X3771Y1854D03*
G54D16*
X3571Y1854D03*
X3971Y1854D03*
G54D14*
X2121Y1204D03*
X2371Y1304D03*
G54D15*
X2271Y1104D03*
G54D16*
X2071Y1104D03*
X2471Y1104D03*
G54D14*
X2871Y1204D03*
X3121Y1304D03*
G54D15*
X3021Y1104D03*
G54D16*
X2821Y1104D03*
X3221Y1104D03*
G54D14*
X3621Y1204D03*
X3871Y1304D03*
G54D15*
X3771Y1104D03*
G54D16*
X3571Y1104D03*
X3971Y1104D03*
G54D14*
X2121Y454D03*
X2371Y554D03*
G54D15*
X2271Y354D03*
G54D16*
X2071Y354D03*
X2471Y354D03*
G54D14*
X2871Y454D03*
X3121Y554D03*
G54D15*
X3021Y354D03*
G54D16*
X2821Y354D03*
X3221Y354D03*
G54D14*
X3621Y454D03*
X3871Y554D03*
G54D15*
X3771Y354D03*
G54D16*
X3571Y354D03*
X3971Y354D03*
G54D17*
X96Y3179D03*
X96Y104D03*
X4171Y104D03*
X4171Y3179D03*
G54D12*
X996Y2054D03*
X846Y2054D03*
X971Y1879D03*
G54D18*
X1434Y2091D02*
X1446Y2091D01*
X491Y2090D02*
X557Y2090D01*
X1387Y2090D02*
X1454Y2090D01*
X487Y2089D02*
X561Y2089D01*
X1384Y2089D02*
X1457Y2089D01*
X485Y2088D02*
X563Y2088D01*
X1381Y2088D02*
X1460Y2088D01*
X482Y2087D02*
X565Y2087D01*
X1379Y2087D02*
X1462Y2087D01*
X480Y2086D02*
X567Y2086D01*
X1377Y2086D02*
X1464Y2086D01*
X479Y2085D02*
X569Y2085D01*
X1376Y2085D02*
X1466Y2085D01*
X477Y2084D02*
X570Y2084D01*
X1374Y2084D02*
X1467Y2084D01*
X476Y2083D02*
X572Y2083D01*
X1373Y2083D02*
X1469Y2083D01*
X475Y2082D02*
X573Y2082D01*
X1372Y2082D02*
X1470Y2082D01*
X474Y2081D02*
X574Y2081D01*
X1370Y2081D02*
X1471Y2081D01*
X473Y2080D02*
X575Y2080D01*
X1369Y2080D02*
X1472Y2080D01*
X472Y2079D02*
X576Y2079D01*
X1369Y2079D02*
X1473Y2079D01*
X471Y2078D02*
X577Y2078D01*
X1368Y2078D02*
X1474Y2078D01*
X470Y2077D02*
X578Y2077D01*
X1367Y2077D02*
X1475Y2077D01*
X469Y2076D02*
X578Y2076D01*
X1366Y2076D02*
X1475Y2076D01*
X469Y2075D02*
X579Y2075D01*
X1365Y2075D02*
X1476Y2075D01*
X468Y2074D02*
X580Y2074D01*
X1365Y2074D02*
X1477Y2074D01*
X467Y2073D02*
X580Y2073D01*
X1364Y2073D02*
X1477Y2073D01*
X467Y2072D02*
X581Y2072D01*
X1364Y2072D02*
X1478Y2072D01*
X466Y2071D02*
X581Y2071D01*
X1363Y2071D02*
X1478Y2071D01*
X466Y2070D02*
X582Y2070D01*
X1363Y2070D02*
X1479Y2070D01*
X465Y2069D02*
X582Y2069D01*
X1362Y2069D02*
X1479Y2069D01*
X465Y2068D02*
X583Y2068D01*
X1362Y2068D02*
X1480Y2068D01*
X465Y2067D02*
X583Y2067D01*
X1362Y2067D02*
X1480Y2067D01*
X464Y2066D02*
X583Y2066D01*
X1361Y2066D02*
X1480Y2066D01*
X464Y2065D02*
X584Y2065D01*
X1361Y2065D02*
X1481Y2065D01*
X464Y2064D02*
X584Y2064D01*
X1361Y2064D02*
X1481Y2064D01*
X463Y2063D02*
X584Y2063D01*
X1360Y2063D02*
X1481Y2063D01*
X463Y2062D02*
X585Y2062D01*
X1360Y2062D02*
X1481Y2062D01*
X463Y2061D02*
X523Y2061D01*
X526Y2061D02*
X585Y2061D01*
X1360Y2061D02*
X1419Y2061D01*
X1422Y2061D02*
X1482Y2061D01*
X463Y2060D02*
X521Y2060D01*
X528Y2060D02*
X585Y2060D01*
X1360Y2060D02*
X1417Y2060D01*
X1425Y2060D02*
X1482Y2060D01*
X463Y2059D02*
X520Y2059D01*
X530Y2059D02*
X585Y2059D01*
X1360Y2059D02*
X1416Y2059D01*
X1426Y2059D02*
X1482Y2059D01*
X463Y2058D02*
X519Y2058D01*
X530Y2058D02*
X585Y2058D01*
X1359Y2058D02*
X1415Y2058D01*
X1426Y2058D02*
X1482Y2058D01*
X463Y2057D02*
X518Y2057D01*
X531Y2057D02*
X585Y2057D01*
X1359Y2057D02*
X1414Y2057D01*
X1427Y2057D02*
X1482Y2057D01*
X462Y2056D02*
X518Y2056D01*
X531Y2056D02*
X585Y2056D01*
X1359Y2056D02*
X1414Y2056D01*
X1427Y2056D02*
X1482Y2056D01*
X462Y2055D02*
X518Y2055D01*
X531Y2055D02*
X585Y2055D01*
X1359Y2055D02*
X1414Y2055D01*
X1427Y2055D02*
X1482Y2055D01*
X462Y2054D02*
X518Y2054D01*
X531Y2054D02*
X585Y2054D01*
X1359Y2054D02*
X1414Y2054D01*
X1427Y2054D02*
X1482Y2054D01*
X463Y2053D02*
X518Y2053D01*
X531Y2053D02*
X585Y2053D01*
X1359Y2053D02*
X1414Y2053D01*
X1427Y2053D02*
X1482Y2053D01*
X463Y2052D02*
X519Y2052D01*
X530Y2052D02*
X585Y2052D01*
X1359Y2052D02*
X1415Y2052D01*
X1426Y2052D02*
X1482Y2052D01*
X463Y2051D02*
X520Y2051D01*
X529Y2051D02*
X585Y2051D01*
X1359Y2051D02*
X1416Y2051D01*
X1426Y2051D02*
X1482Y2051D01*
X463Y2050D02*
X521Y2050D01*
X528Y2050D02*
X585Y2050D01*
X1359Y2050D02*
X1417Y2050D01*
X1424Y2050D02*
X1482Y2050D01*
X463Y2049D02*
X585Y2049D01*
X1359Y2049D02*
X1482Y2049D01*
X463Y2048D02*
X585Y2048D01*
X1359Y2048D02*
X1481Y2048D01*
X463Y2047D02*
X584Y2047D01*
X1359Y2047D02*
X1481Y2047D01*
X464Y2046D02*
X584Y2046D01*
X1359Y2046D02*
X1481Y2046D01*
X464Y2045D02*
X584Y2045D01*
X1360Y2045D02*
X1481Y2045D01*
X464Y2044D02*
X583Y2044D01*
X1361Y2044D02*
X1480Y2044D01*
X465Y2043D02*
X583Y2043D01*
X1362Y2043D02*
X1480Y2043D01*
X465Y2042D02*
X583Y2042D01*
X1362Y2042D02*
X1480Y2042D01*
X465Y2041D02*
X582Y2041D01*
X1362Y2041D02*
X1479Y2041D01*
X466Y2040D02*
X582Y2040D01*
X1363Y2040D02*
X1479Y2040D01*
X466Y2039D02*
X581Y2039D01*
X1363Y2039D02*
X1478Y2039D01*
X467Y2038D02*
X581Y2038D01*
X1364Y2038D02*
X1478Y2038D01*
X467Y2037D02*
X580Y2037D01*
X1364Y2037D02*
X1477Y2037D01*
X468Y2036D02*
X580Y2036D01*
X1365Y2036D02*
X1477Y2036D01*
X469Y2035D02*
X579Y2035D01*
X1366Y2035D02*
X1476Y2035D01*
X469Y2034D02*
X578Y2034D01*
X1366Y2034D02*
X1475Y2034D01*
X470Y2033D02*
X578Y2033D01*
X1367Y2033D02*
X1475Y2033D01*
X471Y2032D02*
X577Y2032D01*
X1368Y2032D02*
X1474Y2032D01*
X472Y2031D02*
X576Y2031D01*
X1369Y2031D02*
X1473Y2031D01*
X473Y2030D02*
X575Y2030D01*
X1369Y2030D02*
X1472Y2030D01*
X474Y2029D02*
X574Y2029D01*
X1370Y2029D02*
X1471Y2029D01*
X475Y2028D02*
X573Y2028D01*
X1372Y2028D02*
X1470Y2028D01*
X476Y2027D02*
X572Y2027D01*
X1373Y2027D02*
X1469Y2027D01*
X477Y2026D02*
X570Y2026D01*
X1374Y2026D02*
X1467Y2026D01*
X479Y2025D02*
X569Y2025D01*
X1376Y2025D02*
X1466Y2025D01*
X480Y2024D02*
X567Y2024D01*
X1377Y2024D02*
X1464Y2024D01*
X482Y2023D02*
X565Y2023D01*
X1379Y2023D02*
X1462Y2023D01*
X485Y2022D02*
X563Y2022D01*
X1381Y2022D02*
X1460Y2022D01*
X487Y2021D02*
X561Y2021D01*
X1384Y2021D02*
X1457Y2021D01*
X491Y2020D02*
X557Y2020D01*
X1388Y2020D02*
X1454Y2020D01*
X498Y1991D02*
X549Y1991D01*
X1395Y1991D02*
X1446Y1991D01*
X491Y1990D02*
X557Y1990D01*
X1387Y1990D02*
X1454Y1990D01*
X487Y1989D02*
X560Y1989D01*
X1384Y1989D02*
X1457Y1989D01*
X484Y1988D02*
X563Y1988D01*
X1381Y1988D02*
X1460Y1988D01*
X482Y1987D02*
X565Y1987D01*
X1379Y1987D02*
X1462Y1987D01*
X480Y1986D02*
X567Y1986D01*
X1377Y1986D02*
X1464Y1986D01*
X479Y1985D02*
X569Y1985D01*
X1376Y1985D02*
X1466Y1985D01*
X477Y1984D02*
X570Y1984D01*
X1374Y1984D02*
X1467Y1984D01*
X476Y1983D02*
X572Y1983D01*
X1373Y1983D02*
X1469Y1983D01*
X475Y1982D02*
X573Y1982D01*
X1372Y1982D02*
X1470Y1982D01*
X473Y1981D02*
X574Y1981D01*
X1370Y1981D02*
X1471Y1981D01*
X472Y1980D02*
X575Y1980D01*
X1369Y1980D02*
X1472Y1980D01*
X472Y1979D02*
X576Y1979D01*
X1369Y1979D02*
X1473Y1979D01*
X471Y1978D02*
X577Y1978D01*
X1368Y1978D02*
X1474Y1978D01*
X470Y1977D02*
X578Y1977D01*
X1367Y1977D02*
X1475Y1977D01*
X469Y1976D02*
X578Y1976D01*
X1366Y1976D02*
X1475Y1976D01*
X469Y1975D02*
X579Y1975D01*
X1365Y1975D02*
X1476Y1975D01*
X468Y1974D02*
X580Y1974D01*
X1365Y1974D02*
X1477Y1974D01*
X467Y1973D02*
X580Y1973D01*
X1364Y1973D02*
X1477Y1973D01*
X467Y1972D02*
X581Y1972D01*
X1364Y1972D02*
X1478Y1972D01*
X466Y1971D02*
X581Y1971D01*
X1363Y1971D02*
X1478Y1971D01*
X466Y1970D02*
X582Y1970D01*
X1363Y1970D02*
X1479Y1970D01*
X465Y1969D02*
X582Y1969D01*
X1362Y1969D02*
X1479Y1969D01*
X465Y1968D02*
X583Y1968D01*
X1362Y1968D02*
X1480Y1968D01*
X465Y1967D02*
X583Y1967D01*
X1362Y1967D02*
X1480Y1967D01*
X464Y1966D02*
X583Y1966D01*
X1361Y1966D02*
X1480Y1966D01*
X464Y1965D02*
X584Y1965D01*
X1361Y1965D02*
X1481Y1965D01*
X464Y1964D02*
X584Y1964D01*
X1361Y1964D02*
X1481Y1964D01*
X463Y1963D02*
X584Y1963D01*
X1360Y1963D02*
X1481Y1963D01*
X463Y1962D02*
X584Y1962D01*
X1360Y1962D02*
X1481Y1962D01*
X463Y1961D02*
X523Y1961D01*
X526Y1961D02*
X585Y1961D01*
X1360Y1961D02*
X1419Y1961D01*
X1422Y1961D02*
X1482Y1961D01*
X463Y1960D02*
X520Y1960D01*
X529Y1960D02*
X585Y1960D01*
X1360Y1960D02*
X1417Y1960D01*
X1425Y1960D02*
X1482Y1960D01*
X463Y1959D02*
X519Y1959D01*
X530Y1959D02*
X585Y1959D01*
X1360Y1959D02*
X1415Y1959D01*
X1426Y1959D02*
X1482Y1959D01*
X463Y1958D02*
X519Y1958D01*
X530Y1958D02*
X585Y1958D01*
X1359Y1958D02*
X1415Y1958D01*
X1427Y1958D02*
X1482Y1958D01*
X462Y1957D02*
X518Y1957D01*
X531Y1957D02*
X585Y1957D01*
X1359Y1957D02*
X1414Y1957D01*
X1427Y1957D02*
X1482Y1957D01*
X462Y1956D02*
X518Y1956D01*
X531Y1956D02*
X585Y1956D01*
X1359Y1956D02*
X1414Y1956D01*
X1427Y1956D02*
X1482Y1956D01*
X462Y1955D02*
X518Y1955D01*
X531Y1955D02*
X585Y1955D01*
X1359Y1955D02*
X1414Y1955D01*
X1427Y1955D02*
X1482Y1955D01*
X462Y1954D02*
X518Y1954D01*
X531Y1954D02*
X585Y1954D01*
X1359Y1954D02*
X1414Y1954D01*
X1427Y1954D02*
X1482Y1954D01*
X462Y1953D02*
X518Y1953D01*
X531Y1953D02*
X585Y1953D01*
X1359Y1953D02*
X1414Y1953D01*
X1427Y1953D02*
X1482Y1953D01*
X463Y1952D02*
X519Y1952D01*
X530Y1952D02*
X585Y1952D01*
X1359Y1952D02*
X1415Y1952D01*
X1427Y1952D02*
X1482Y1952D01*
X463Y1951D02*
X519Y1951D01*
X530Y1951D02*
X585Y1951D01*
X1359Y1951D02*
X1416Y1951D01*
X1426Y1951D02*
X1482Y1951D01*
X463Y1950D02*
X521Y1950D01*
X528Y1950D02*
X585Y1950D01*
X1359Y1950D02*
X1417Y1950D01*
X1425Y1950D02*
X1482Y1950D01*
X463Y1949D02*
X585Y1949D01*
X1359Y1949D02*
X1482Y1949D01*
X463Y1948D02*
X584Y1948D01*
X1359Y1948D02*
X1481Y1948D01*
X463Y1947D02*
X584Y1947D01*
X1359Y1947D02*
X1481Y1947D01*
X464Y1946D02*
X584Y1946D01*
X1359Y1946D02*
X1481Y1946D01*
X464Y1945D02*
X584Y1945D01*
X1360Y1945D02*
X1481Y1945D01*
X464Y1944D02*
X583Y1944D01*
X1361Y1944D02*
X1480Y1944D01*
X465Y1943D02*
X583Y1943D01*
X1362Y1943D02*
X1480Y1943D01*
X465Y1942D02*
X583Y1942D01*
X1362Y1942D02*
X1480Y1942D01*
X465Y1941D02*
X582Y1941D01*
X1362Y1941D02*
X1479Y1941D01*
X466Y1940D02*
X582Y1940D01*
X1363Y1940D02*
X1479Y1940D01*
X466Y1939D02*
X581Y1939D01*
X1363Y1939D02*
X1478Y1939D01*
X467Y1938D02*
X581Y1938D01*
X1364Y1938D02*
X1478Y1938D01*
X467Y1937D02*
X580Y1937D01*
X1364Y1937D02*
X1477Y1937D01*
X468Y1936D02*
X580Y1936D01*
X1365Y1936D02*
X1477Y1936D01*
X469Y1935D02*
X579Y1935D01*
X1366Y1935D02*
X1476Y1935D01*
X469Y1934D02*
X578Y1934D01*
X1366Y1934D02*
X1475Y1934D01*
X470Y1933D02*
X578Y1933D01*
X1367Y1933D02*
X1475Y1933D01*
X471Y1932D02*
X577Y1932D01*
X1368Y1932D02*
X1474Y1932D01*
X472Y1931D02*
X576Y1931D01*
X1369Y1931D02*
X1473Y1931D01*
X472Y1930D02*
X575Y1930D01*
X1369Y1930D02*
X1472Y1930D01*
X474Y1929D02*
X574Y1929D01*
X1370Y1929D02*
X1471Y1929D01*
X475Y1928D02*
X573Y1928D01*
X1372Y1928D02*
X1470Y1928D01*
X476Y1927D02*
X572Y1927D01*
X1373Y1927D02*
X1469Y1927D01*
X477Y1926D02*
X570Y1926D01*
X1374Y1926D02*
X1467Y1926D01*
X479Y1925D02*
X569Y1925D01*
X1376Y1925D02*
X1466Y1925D01*
X480Y1924D02*
X567Y1924D01*
X1377Y1924D02*
X1464Y1924D01*
X482Y1923D02*
X565Y1923D01*
X1379Y1923D02*
X1462Y1923D01*
X484Y1922D02*
X563Y1922D01*
X1381Y1922D02*
X1460Y1922D01*
X487Y1921D02*
X560Y1921D01*
X1384Y1921D02*
X1457Y1921D01*
X491Y1920D02*
X557Y1920D01*
X1388Y1920D02*
X1454Y1920D01*
X498Y1891D02*
X549Y1891D01*
X1395Y1891D02*
X1446Y1891D01*
X490Y1890D02*
X557Y1890D01*
X1387Y1890D02*
X1454Y1890D01*
X487Y1889D02*
X561Y1889D01*
X1384Y1889D02*
X1457Y1889D01*
X484Y1888D02*
X563Y1888D01*
X1381Y1888D02*
X1460Y1888D01*
X482Y1887D02*
X565Y1887D01*
X1379Y1887D02*
X1462Y1887D01*
X480Y1886D02*
X567Y1886D01*
X1377Y1886D02*
X1464Y1886D01*
X479Y1885D02*
X569Y1885D01*
X1376Y1885D02*
X1466Y1885D01*
X477Y1884D02*
X570Y1884D01*
X1374Y1884D02*
X1467Y1884D01*
X476Y1883D02*
X572Y1883D01*
X1373Y1883D02*
X1469Y1883D01*
X475Y1882D02*
X573Y1882D01*
X1372Y1882D02*
X1470Y1882D01*
X473Y1881D02*
X574Y1881D01*
X1370Y1881D02*
X1471Y1881D01*
X472Y1880D02*
X575Y1880D01*
X1369Y1880D02*
X1472Y1880D01*
X472Y1879D02*
X576Y1879D01*
X1369Y1879D02*
X1473Y1879D01*
X471Y1878D02*
X577Y1878D01*
X1368Y1878D02*
X1474Y1878D01*
X470Y1877D02*
X578Y1877D01*
X1367Y1877D02*
X1475Y1877D01*
X469Y1876D02*
X578Y1876D01*
X1366Y1876D02*
X1475Y1876D01*
X468Y1875D02*
X579Y1875D01*
X1365Y1875D02*
X1476Y1875D01*
X468Y1874D02*
X580Y1874D01*
X1365Y1874D02*
X1477Y1874D01*
X467Y1873D02*
X580Y1873D01*
X1364Y1873D02*
X1477Y1873D01*
X467Y1872D02*
X581Y1872D01*
X1364Y1872D02*
X1478Y1872D01*
X466Y1871D02*
X581Y1871D01*
X1363Y1871D02*
X1478Y1871D01*
X466Y1870D02*
X582Y1870D01*
X1363Y1870D02*
X1479Y1870D01*
X465Y1869D02*
X582Y1869D01*
X1362Y1869D02*
X1479Y1869D01*
X465Y1868D02*
X583Y1868D01*
X1362Y1868D02*
X1480Y1868D01*
X465Y1867D02*
X583Y1867D01*
X1362Y1867D02*
X1480Y1867D01*
X464Y1866D02*
X583Y1866D01*
X1361Y1866D02*
X1480Y1866D01*
X464Y1865D02*
X584Y1865D01*
X1361Y1865D02*
X1481Y1865D01*
X464Y1864D02*
X584Y1864D01*
X1361Y1864D02*
X1481Y1864D01*
X463Y1863D02*
X584Y1863D01*
X1360Y1863D02*
X1481Y1863D01*
X463Y1862D02*
X584Y1862D01*
X1360Y1862D02*
X1481Y1862D01*
X463Y1861D02*
X523Y1861D01*
X526Y1861D02*
X585Y1861D01*
X1360Y1861D02*
X1419Y1861D01*
X1422Y1861D02*
X1482Y1861D01*
X463Y1860D02*
X520Y1860D01*
X529Y1860D02*
X585Y1860D01*
X1360Y1860D02*
X1417Y1860D01*
X1425Y1860D02*
X1482Y1860D01*
X463Y1859D02*
X519Y1859D01*
X530Y1859D02*
X585Y1859D01*
X1360Y1859D02*
X1415Y1859D01*
X1426Y1859D02*
X1482Y1859D01*
X462Y1858D02*
X519Y1858D01*
X530Y1858D02*
X585Y1858D01*
X1359Y1858D02*
X1415Y1858D01*
X1427Y1858D02*
X1482Y1858D01*
X462Y1857D02*
X518Y1857D01*
X531Y1857D02*
X585Y1857D01*
X1359Y1857D02*
X1414Y1857D01*
X1427Y1857D02*
X1482Y1857D01*
X462Y1856D02*
X518Y1856D01*
X531Y1856D02*
X585Y1856D01*
X1359Y1856D02*
X1414Y1856D01*
X1427Y1856D02*
X1482Y1856D01*
X462Y1855D02*
X518Y1855D01*
X531Y1855D02*
X585Y1855D01*
X1359Y1855D02*
X1414Y1855D01*
X1427Y1855D02*
X1482Y1855D01*
X462Y1854D02*
X518Y1854D01*
X531Y1854D02*
X585Y1854D01*
X1359Y1854D02*
X1414Y1854D01*
X1427Y1854D02*
X1482Y1854D01*
X462Y1853D02*
X518Y1853D01*
X531Y1853D02*
X585Y1853D01*
X1359Y1853D02*
X1414Y1853D01*
X1427Y1853D02*
X1482Y1853D01*
X462Y1852D02*
X519Y1852D01*
X530Y1852D02*
X585Y1852D01*
X1359Y1852D02*
X1415Y1852D01*
X1427Y1852D02*
X1482Y1852D01*
X463Y1851D02*
X519Y1851D01*
X530Y1851D02*
X585Y1851D01*
X1359Y1851D02*
X1416Y1851D01*
X1426Y1851D02*
X1482Y1851D01*
X463Y1850D02*
X521Y1850D01*
X528Y1850D02*
X585Y1850D01*
X1359Y1850D02*
X1417Y1850D01*
X1425Y1850D02*
X1482Y1850D01*
X463Y1849D02*
X585Y1849D01*
X1359Y1849D02*
X1482Y1849D01*
X463Y1848D02*
X584Y1848D01*
X1359Y1848D02*
X1481Y1848D01*
X463Y1847D02*
X584Y1847D01*
X1359Y1847D02*
X1481Y1847D01*
X464Y1846D02*
X584Y1846D01*
X1359Y1846D02*
X1481Y1846D01*
X464Y1845D02*
X584Y1845D01*
X1360Y1845D02*
X1481Y1845D01*
X464Y1844D02*
X583Y1844D01*
X1361Y1844D02*
X1480Y1844D01*
X465Y1843D02*
X583Y1843D01*
X1362Y1843D02*
X1480Y1843D01*
X465Y1842D02*
X583Y1842D01*
X1362Y1842D02*
X1480Y1842D01*
X465Y1841D02*
X582Y1841D01*
X1362Y1841D02*
X1479Y1841D01*
X466Y1840D02*
X582Y1840D01*
X1363Y1840D02*
X1479Y1840D01*
X466Y1839D02*
X581Y1839D01*
X1363Y1839D02*
X1478Y1839D01*
X467Y1838D02*
X581Y1838D01*
X1364Y1838D02*
X1478Y1838D01*
X467Y1837D02*
X580Y1837D01*
X1364Y1837D02*
X1477Y1837D01*
X468Y1836D02*
X580Y1836D01*
X1365Y1836D02*
X1477Y1836D01*
X469Y1835D02*
X579Y1835D01*
X1366Y1835D02*
X1476Y1835D01*
X469Y1834D02*
X578Y1834D01*
X1366Y1834D02*
X1475Y1834D01*
X470Y1833D02*
X578Y1833D01*
X1367Y1833D02*
X1475Y1833D01*
X471Y1832D02*
X577Y1832D01*
X1368Y1832D02*
X1474Y1832D01*
X472Y1831D02*
X576Y1831D01*
X1369Y1831D02*
X1473Y1831D01*
X472Y1830D02*
X575Y1830D01*
X1369Y1830D02*
X1472Y1830D01*
X473Y1829D02*
X574Y1829D01*
X1370Y1829D02*
X1471Y1829D01*
X475Y1828D02*
X573Y1828D01*
X1372Y1828D02*
X1470Y1828D01*
X476Y1827D02*
X572Y1827D01*
X1373Y1827D02*
X1469Y1827D01*
X477Y1826D02*
X570Y1826D01*
X1374Y1826D02*
X1467Y1826D01*
X479Y1825D02*
X569Y1825D01*
X1376Y1825D02*
X1466Y1825D01*
X480Y1824D02*
X567Y1824D01*
X1377Y1824D02*
X1464Y1824D01*
X482Y1823D02*
X565Y1823D01*
X1379Y1823D02*
X1462Y1823D01*
X484Y1822D02*
X563Y1822D01*
X1381Y1822D02*
X1460Y1822D01*
X487Y1821D02*
X560Y1821D01*
X1384Y1821D02*
X1457Y1821D01*
X491Y1820D02*
X557Y1820D01*
X1388Y1820D02*
X1454Y1820D01*
X498Y1791D02*
X549Y1791D01*
X1395Y1791D02*
X1446Y1791D01*
X491Y1790D02*
X557Y1790D01*
X1387Y1790D02*
X1454Y1790D01*
X487Y1789D02*
X561Y1789D01*
X1384Y1789D02*
X1457Y1789D01*
X484Y1788D02*
X563Y1788D01*
X1381Y1788D02*
X1460Y1788D01*
X482Y1787D02*
X565Y1787D01*
X1379Y1787D02*
X1462Y1787D01*
X480Y1786D02*
X567Y1786D01*
X1377Y1786D02*
X1464Y1786D01*
X479Y1785D02*
X569Y1785D01*
X1376Y1785D02*
X1466Y1785D01*
X477Y1784D02*
X570Y1784D01*
X1374Y1784D02*
X1467Y1784D01*
X476Y1783D02*
X572Y1783D01*
X1373Y1783D02*
X1469Y1783D01*
X475Y1782D02*
X573Y1782D01*
X1372Y1782D02*
X1470Y1782D01*
X473Y1781D02*
X574Y1781D01*
X1370Y1781D02*
X1471Y1781D01*
X472Y1780D02*
X575Y1780D01*
X1369Y1780D02*
X1472Y1780D01*
X472Y1779D02*
X576Y1779D01*
X1369Y1779D02*
X1473Y1779D01*
X471Y1778D02*
X577Y1778D01*
X1368Y1778D02*
X1474Y1778D01*
X470Y1777D02*
X578Y1777D01*
X1367Y1777D02*
X1475Y1777D01*
X469Y1776D02*
X578Y1776D01*
X1366Y1776D02*
X1475Y1776D01*
X469Y1775D02*
X579Y1775D01*
X1365Y1775D02*
X1476Y1775D01*
X468Y1774D02*
X580Y1774D01*
X1365Y1774D02*
X1477Y1774D01*
X467Y1773D02*
X580Y1773D01*
X1364Y1773D02*
X1477Y1773D01*
X467Y1772D02*
X581Y1772D01*
X1364Y1772D02*
X1478Y1772D01*
X466Y1771D02*
X581Y1771D01*
X1363Y1771D02*
X1478Y1771D01*
X466Y1770D02*
X582Y1770D01*
X1363Y1770D02*
X1479Y1770D01*
X465Y1769D02*
X582Y1769D01*
X1362Y1769D02*
X1479Y1769D01*
X465Y1768D02*
X583Y1768D01*
X1362Y1768D02*
X1480Y1768D01*
X465Y1767D02*
X583Y1767D01*
X1362Y1767D02*
X1480Y1767D01*
X464Y1766D02*
X583Y1766D01*
X1361Y1766D02*
X1480Y1766D01*
X464Y1765D02*
X584Y1765D01*
X1361Y1765D02*
X1481Y1765D01*
X464Y1764D02*
X584Y1764D01*
X1361Y1764D02*
X1481Y1764D01*
X463Y1763D02*
X584Y1763D01*
X1360Y1763D02*
X1481Y1763D01*
X463Y1762D02*
X584Y1762D01*
X1360Y1762D02*
X1481Y1762D01*
X463Y1761D02*
X523Y1761D01*
X526Y1761D02*
X585Y1761D01*
X1360Y1761D02*
X1419Y1761D01*
X1422Y1761D02*
X1482Y1761D01*
X463Y1760D02*
X520Y1760D01*
X529Y1760D02*
X585Y1760D01*
X1360Y1760D02*
X1417Y1760D01*
X1425Y1760D02*
X1482Y1760D01*
X463Y1759D02*
X519Y1759D01*
X530Y1759D02*
X585Y1759D01*
X1360Y1759D02*
X1415Y1759D01*
X1426Y1759D02*
X1482Y1759D01*
X463Y1758D02*
X519Y1758D01*
X530Y1758D02*
X585Y1758D01*
X1359Y1758D02*
X1415Y1758D01*
X1427Y1758D02*
X1482Y1758D01*
X462Y1757D02*
X518Y1757D01*
X531Y1757D02*
X585Y1757D01*
X1359Y1757D02*
X1414Y1757D01*
X1427Y1757D02*
X1482Y1757D01*
X462Y1756D02*
X518Y1756D01*
X531Y1756D02*
X585Y1756D01*
X1359Y1756D02*
X1414Y1756D01*
X1427Y1756D02*
X1482Y1756D01*
X462Y1755D02*
X518Y1755D01*
X531Y1755D02*
X585Y1755D01*
X1359Y1755D02*
X1414Y1755D01*
X1427Y1755D02*
X1482Y1755D01*
X462Y1754D02*
X518Y1754D01*
X531Y1754D02*
X585Y1754D01*
X1359Y1754D02*
X1414Y1754D01*
X1427Y1754D02*
X1482Y1754D01*
X462Y1753D02*
X518Y1753D01*
X531Y1753D02*
X585Y1753D01*
X1359Y1753D02*
X1414Y1753D01*
X1427Y1753D02*
X1482Y1753D01*
X463Y1752D02*
X519Y1752D01*
X530Y1752D02*
X585Y1752D01*
X1359Y1752D02*
X1415Y1752D01*
X1427Y1752D02*
X1482Y1752D01*
X463Y1751D02*
X519Y1751D01*
X530Y1751D02*
X585Y1751D01*
X1359Y1751D02*
X1416Y1751D01*
X1426Y1751D02*
X1482Y1751D01*
X463Y1750D02*
X521Y1750D01*
X528Y1750D02*
X585Y1750D01*
X1359Y1750D02*
X1417Y1750D01*
X1425Y1750D02*
X1482Y1750D01*
X463Y1749D02*
X585Y1749D01*
X1359Y1749D02*
X1482Y1749D01*
X463Y1748D02*
X584Y1748D01*
X1359Y1748D02*
X1481Y1748D01*
X463Y1747D02*
X584Y1747D01*
X1359Y1747D02*
X1481Y1747D01*
X464Y1746D02*
X584Y1746D01*
X1359Y1746D02*
X1481Y1746D01*
X464Y1745D02*
X584Y1745D01*
X1360Y1745D02*
X1481Y1745D01*
X464Y1744D02*
X583Y1744D01*
X1361Y1744D02*
X1480Y1744D01*
X465Y1743D02*
X583Y1743D01*
X1362Y1743D02*
X1480Y1743D01*
X465Y1742D02*
X583Y1742D01*
X1362Y1742D02*
X1480Y1742D01*
X465Y1741D02*
X582Y1741D01*
X1362Y1741D02*
X1479Y1741D01*
X466Y1740D02*
X582Y1740D01*
X1363Y1740D02*
X1479Y1740D01*
X466Y1739D02*
X581Y1739D01*
X1363Y1739D02*
X1478Y1739D01*
X467Y1738D02*
X581Y1738D01*
X1364Y1738D02*
X1478Y1738D01*
X467Y1737D02*
X580Y1737D01*
X1364Y1737D02*
X1477Y1737D01*
X468Y1736D02*
X580Y1736D01*
X1365Y1736D02*
X1477Y1736D01*
X469Y1735D02*
X579Y1735D01*
X1366Y1735D02*
X1476Y1735D01*
X469Y1734D02*
X578Y1734D01*
X1366Y1734D02*
X1475Y1734D01*
X470Y1733D02*
X578Y1733D01*
X1367Y1733D02*
X1475Y1733D01*
X471Y1732D02*
X577Y1732D01*
X1368Y1732D02*
X1474Y1732D01*
X472Y1731D02*
X576Y1731D01*
X1369Y1731D02*
X1473Y1731D01*
X472Y1730D02*
X575Y1730D01*
X1369Y1730D02*
X1472Y1730D01*
X474Y1729D02*
X574Y1729D01*
X1370Y1729D02*
X1471Y1729D01*
X475Y1728D02*
X573Y1728D01*
X1372Y1728D02*
X1470Y1728D01*
X476Y1727D02*
X572Y1727D01*
X1373Y1727D02*
X1469Y1727D01*
X477Y1726D02*
X570Y1726D01*
X1374Y1726D02*
X1467Y1726D01*
X479Y1725D02*
X569Y1725D01*
X1376Y1725D02*
X1466Y1725D01*
X480Y1724D02*
X567Y1724D01*
X1377Y1724D02*
X1464Y1724D01*
X482Y1723D02*
X565Y1723D01*
X1379Y1723D02*
X1462Y1723D01*
X484Y1722D02*
X563Y1722D01*
X1381Y1722D02*
X1460Y1722D01*
X487Y1721D02*
X560Y1721D01*
X1384Y1721D02*
X1457Y1721D01*
X491Y1720D02*
X557Y1720D01*
X1388Y1720D02*
X1454Y1720D01*
X498Y1691D02*
X549Y1691D01*
X1395Y1691D02*
X1446Y1691D01*
X490Y1690D02*
X557Y1690D01*
X1387Y1690D02*
X1454Y1690D01*
X487Y1689D02*
X561Y1689D01*
X1384Y1689D02*
X1457Y1689D01*
X484Y1688D02*
X563Y1688D01*
X1381Y1688D02*
X1460Y1688D01*
X482Y1687D02*
X565Y1687D01*
X1379Y1687D02*
X1462Y1687D01*
X480Y1686D02*
X567Y1686D01*
X1377Y1686D02*
X1464Y1686D01*
X479Y1685D02*
X569Y1685D01*
X1376Y1685D02*
X1466Y1685D01*
X477Y1684D02*
X570Y1684D01*
X1374Y1684D02*
X1467Y1684D01*
X476Y1683D02*
X572Y1683D01*
X1373Y1683D02*
X1469Y1683D01*
X475Y1682D02*
X573Y1682D01*
X1372Y1682D02*
X1470Y1682D01*
X473Y1681D02*
X574Y1681D01*
X1370Y1681D02*
X1471Y1681D01*
X472Y1680D02*
X575Y1680D01*
X1369Y1680D02*
X1472Y1680D01*
X472Y1679D02*
X576Y1679D01*
X1369Y1679D02*
X1473Y1679D01*
X471Y1678D02*
X577Y1678D01*
X1368Y1678D02*
X1474Y1678D01*
X470Y1677D02*
X578Y1677D01*
X1367Y1677D02*
X1475Y1677D01*
X469Y1676D02*
X578Y1676D01*
X1366Y1676D02*
X1475Y1676D01*
X468Y1675D02*
X579Y1675D01*
X1365Y1675D02*
X1476Y1675D01*
X468Y1674D02*
X580Y1674D01*
X1365Y1674D02*
X1477Y1674D01*
X467Y1673D02*
X580Y1673D01*
X1364Y1673D02*
X1477Y1673D01*
X467Y1672D02*
X581Y1672D01*
X1364Y1672D02*
X1478Y1672D01*
X466Y1671D02*
X581Y1671D01*
X1363Y1671D02*
X1478Y1671D01*
X466Y1670D02*
X582Y1670D01*
X1363Y1670D02*
X1479Y1670D01*
X465Y1669D02*
X582Y1669D01*
X1362Y1669D02*
X1479Y1669D01*
X465Y1668D02*
X583Y1668D01*
X1362Y1668D02*
X1480Y1668D01*
X465Y1667D02*
X583Y1667D01*
X1362Y1667D02*
X1480Y1667D01*
X464Y1666D02*
X583Y1666D01*
X1361Y1666D02*
X1480Y1666D01*
X464Y1665D02*
X584Y1665D01*
X1361Y1665D02*
X1481Y1665D01*
X464Y1664D02*
X584Y1664D01*
X1361Y1664D02*
X1481Y1664D01*
X463Y1663D02*
X584Y1663D01*
X1360Y1663D02*
X1481Y1663D01*
X463Y1662D02*
X584Y1662D01*
X1360Y1662D02*
X1481Y1662D01*
X463Y1661D02*
X523Y1661D01*
X526Y1661D02*
X585Y1661D01*
X1360Y1661D02*
X1419Y1661D01*
X1423Y1661D02*
X1482Y1661D01*
X463Y1660D02*
X521Y1660D01*
X528Y1660D02*
X585Y1660D01*
X1360Y1660D02*
X1417Y1660D01*
X1425Y1660D02*
X1482Y1660D01*
X463Y1659D02*
X520Y1659D01*
X530Y1659D02*
X585Y1659D01*
X1360Y1659D02*
X1416Y1659D01*
X1426Y1659D02*
X1482Y1659D01*
X462Y1658D02*
X519Y1658D01*
X530Y1658D02*
X585Y1658D01*
X1359Y1658D02*
X1415Y1658D01*
X1426Y1658D02*
X1482Y1658D01*
X462Y1657D02*
X518Y1657D01*
X531Y1657D02*
X585Y1657D01*
X1359Y1657D02*
X1414Y1657D01*
X1427Y1657D02*
X1482Y1657D01*
X462Y1656D02*
X518Y1656D01*
X531Y1656D02*
X585Y1656D01*
X1359Y1656D02*
X1414Y1656D01*
X1427Y1656D02*
X1482Y1656D01*
X462Y1655D02*
X518Y1655D01*
X531Y1655D02*
X585Y1655D01*
X1359Y1655D02*
X1414Y1655D01*
X1427Y1655D02*
X1482Y1655D01*
X462Y1654D02*
X518Y1654D01*
X531Y1654D02*
X585Y1654D01*
X1359Y1654D02*
X1414Y1654D01*
X1427Y1654D02*
X1482Y1654D01*
X462Y1653D02*
X518Y1653D01*
X531Y1653D02*
X585Y1653D01*
X1359Y1653D02*
X1414Y1653D01*
X1427Y1653D02*
X1482Y1653D01*
X462Y1652D02*
X519Y1652D01*
X530Y1652D02*
X585Y1652D01*
X1359Y1652D02*
X1415Y1652D01*
X1426Y1652D02*
X1482Y1652D01*
X463Y1651D02*
X520Y1651D01*
X529Y1651D02*
X585Y1651D01*
X1359Y1651D02*
X1416Y1651D01*
X1426Y1651D02*
X1482Y1651D01*
X463Y1650D02*
X521Y1650D01*
X528Y1650D02*
X585Y1650D01*
X1359Y1650D02*
X1417Y1650D01*
X1424Y1650D02*
X1482Y1650D01*
X463Y1649D02*
X585Y1649D01*
X1359Y1649D02*
X1482Y1649D01*
X463Y1648D02*
X584Y1648D01*
X1359Y1648D02*
X1481Y1648D01*
X463Y1647D02*
X584Y1647D01*
X1359Y1647D02*
X1481Y1647D01*
X464Y1646D02*
X584Y1646D01*
X1359Y1646D02*
X1481Y1646D01*
X464Y1645D02*
X584Y1645D01*
X1360Y1645D02*
X1481Y1645D01*
X464Y1644D02*
X583Y1644D01*
X1361Y1644D02*
X1480Y1644D01*
X465Y1643D02*
X583Y1643D01*
X1362Y1643D02*
X1480Y1643D01*
X465Y1642D02*
X583Y1642D01*
X1362Y1642D02*
X1480Y1642D01*
X465Y1641D02*
X582Y1641D01*
X1362Y1641D02*
X1479Y1641D01*
X466Y1640D02*
X582Y1640D01*
X1363Y1640D02*
X1479Y1640D01*
X466Y1639D02*
X581Y1639D01*
X1363Y1639D02*
X1478Y1639D01*
X467Y1638D02*
X581Y1638D01*
X1364Y1638D02*
X1478Y1638D01*
X467Y1637D02*
X580Y1637D01*
X1364Y1637D02*
X1477Y1637D01*
X468Y1636D02*
X580Y1636D01*
X1365Y1636D02*
X1477Y1636D01*
X469Y1635D02*
X579Y1635D01*
X1366Y1635D02*
X1476Y1635D01*
X469Y1634D02*
X578Y1634D01*
X1366Y1634D02*
X1475Y1634D01*
X470Y1633D02*
X578Y1633D01*
X1367Y1633D02*
X1475Y1633D01*
X471Y1632D02*
X577Y1632D01*
X1368Y1632D02*
X1474Y1632D01*
X472Y1631D02*
X576Y1631D01*
X1369Y1631D02*
X1473Y1631D01*
X472Y1630D02*
X575Y1630D01*
X1369Y1630D02*
X1472Y1630D01*
X473Y1629D02*
X574Y1629D01*
X1370Y1629D02*
X1471Y1629D01*
X475Y1628D02*
X573Y1628D01*
X1372Y1628D02*
X1470Y1628D01*
X476Y1627D02*
X572Y1627D01*
X1373Y1627D02*
X1469Y1627D01*
X477Y1626D02*
X570Y1626D01*
X1374Y1626D02*
X1467Y1626D01*
X479Y1625D02*
X569Y1625D01*
X1376Y1625D02*
X1466Y1625D01*
X480Y1624D02*
X567Y1624D01*
X1377Y1624D02*
X1464Y1624D01*
X482Y1623D02*
X565Y1623D01*
X1379Y1623D02*
X1462Y1623D01*
X484Y1622D02*
X563Y1622D01*
X1381Y1622D02*
X1460Y1622D01*
X487Y1621D02*
X560Y1621D01*
X1384Y1621D02*
X1457Y1621D01*
X491Y1620D02*
X557Y1620D01*
X1388Y1620D02*
X1454Y1620D01*
X498Y1591D02*
X549Y1591D01*
X1395Y1591D02*
X1446Y1591D01*
X490Y1590D02*
X557Y1590D01*
X1387Y1590D02*
X1454Y1590D01*
X487Y1589D02*
X561Y1589D01*
X1384Y1589D02*
X1457Y1589D01*
X484Y1588D02*
X563Y1588D01*
X1381Y1588D02*
X1460Y1588D01*
X482Y1587D02*
X565Y1587D01*
X1379Y1587D02*
X1462Y1587D01*
X480Y1586D02*
X567Y1586D01*
X1377Y1586D02*
X1464Y1586D01*
X479Y1585D02*
X569Y1585D01*
X1376Y1585D02*
X1466Y1585D01*
X477Y1584D02*
X570Y1584D01*
X1374Y1584D02*
X1467Y1584D01*
X476Y1583D02*
X572Y1583D01*
X1373Y1583D02*
X1469Y1583D01*
X475Y1582D02*
X573Y1582D01*
X1372Y1582D02*
X1470Y1582D01*
X473Y1581D02*
X574Y1581D01*
X1370Y1581D02*
X1471Y1581D01*
X472Y1580D02*
X575Y1580D01*
X1369Y1580D02*
X1472Y1580D01*
X472Y1579D02*
X576Y1579D01*
X1369Y1579D02*
X1473Y1579D01*
X471Y1578D02*
X577Y1578D01*
X1368Y1578D02*
X1474Y1578D01*
X470Y1577D02*
X578Y1577D01*
X1367Y1577D02*
X1475Y1577D01*
X469Y1576D02*
X578Y1576D01*
X1366Y1576D02*
X1475Y1576D01*
X469Y1575D02*
X579Y1575D01*
X1365Y1575D02*
X1476Y1575D01*
X468Y1574D02*
X580Y1574D01*
X1365Y1574D02*
X1477Y1574D01*
X467Y1573D02*
X580Y1573D01*
X1364Y1573D02*
X1477Y1573D01*
X467Y1572D02*
X581Y1572D01*
X1364Y1572D02*
X1478Y1572D01*
X466Y1571D02*
X581Y1571D01*
X1363Y1571D02*
X1478Y1571D01*
X466Y1570D02*
X582Y1570D01*
X1363Y1570D02*
X1479Y1570D01*
X465Y1569D02*
X582Y1569D01*
X1362Y1569D02*
X1479Y1569D01*
X465Y1568D02*
X583Y1568D01*
X1362Y1568D02*
X1480Y1568D01*
X465Y1567D02*
X583Y1567D01*
X1362Y1567D02*
X1480Y1567D01*
X464Y1566D02*
X583Y1566D01*
X1361Y1566D02*
X1480Y1566D01*
X464Y1565D02*
X584Y1565D01*
X1361Y1565D02*
X1481Y1565D01*
X464Y1564D02*
X584Y1564D01*
X1361Y1564D02*
X1481Y1564D01*
X463Y1563D02*
X584Y1563D01*
X1360Y1563D02*
X1481Y1563D01*
X463Y1562D02*
X584Y1562D01*
X1360Y1562D02*
X1481Y1562D01*
X463Y1561D02*
X523Y1561D01*
X526Y1561D02*
X585Y1561D01*
X1360Y1561D02*
X1419Y1561D01*
X1423Y1561D02*
X1482Y1561D01*
X463Y1560D02*
X521Y1560D01*
X528Y1560D02*
X585Y1560D01*
X1360Y1560D02*
X1417Y1560D01*
X1425Y1560D02*
X1482Y1560D01*
X463Y1559D02*
X520Y1559D01*
X530Y1559D02*
X585Y1559D01*
X1360Y1559D02*
X1416Y1559D01*
X1426Y1559D02*
X1482Y1559D01*
X463Y1558D02*
X519Y1558D01*
X530Y1558D02*
X585Y1558D01*
X1359Y1558D02*
X1415Y1558D01*
X1426Y1558D02*
X1482Y1558D01*
X462Y1557D02*
X518Y1557D01*
X531Y1557D02*
X585Y1557D01*
X1359Y1557D02*
X1414Y1557D01*
X1427Y1557D02*
X1482Y1557D01*
X462Y1556D02*
X518Y1556D01*
X531Y1556D02*
X585Y1556D01*
X1359Y1556D02*
X1414Y1556D01*
X1427Y1556D02*
X1482Y1556D01*
X462Y1555D02*
X518Y1555D01*
X531Y1555D02*
X585Y1555D01*
X1359Y1555D02*
X1414Y1555D01*
X1427Y1555D02*
X1482Y1555D01*
X462Y1554D02*
X518Y1554D01*
X531Y1554D02*
X585Y1554D01*
X1359Y1554D02*
X1414Y1554D01*
X1427Y1554D02*
X1482Y1554D01*
X462Y1553D02*
X518Y1553D01*
X531Y1553D02*
X585Y1553D01*
X1359Y1553D02*
X1414Y1553D01*
X1427Y1553D02*
X1482Y1553D01*
X463Y1552D02*
X519Y1552D01*
X530Y1552D02*
X585Y1552D01*
X1359Y1552D02*
X1415Y1552D01*
X1426Y1552D02*
X1482Y1552D01*
X463Y1551D02*
X520Y1551D01*
X529Y1551D02*
X585Y1551D01*
X1359Y1551D02*
X1416Y1551D01*
X1426Y1551D02*
X1482Y1551D01*
X463Y1550D02*
X521Y1550D01*
X528Y1550D02*
X585Y1550D01*
X1359Y1550D02*
X1417Y1550D01*
X1424Y1550D02*
X1482Y1550D01*
X463Y1549D02*
X585Y1549D01*
X1359Y1549D02*
X1482Y1549D01*
X463Y1548D02*
X584Y1548D01*
X1359Y1548D02*
X1481Y1548D01*
X463Y1547D02*
X584Y1547D01*
X1359Y1547D02*
X1481Y1547D01*
X464Y1546D02*
X584Y1546D01*
X1359Y1546D02*
X1481Y1546D01*
X464Y1545D02*
X584Y1545D01*
X1360Y1545D02*
X1481Y1545D01*
X464Y1544D02*
X583Y1544D01*
X1361Y1544D02*
X1480Y1544D01*
X465Y1543D02*
X583Y1543D01*
X1362Y1543D02*
X1480Y1543D01*
X465Y1542D02*
X583Y1542D01*
X1362Y1542D02*
X1480Y1542D01*
X465Y1541D02*
X582Y1541D01*
X1362Y1541D02*
X1479Y1541D01*
X466Y1540D02*
X582Y1540D01*
X1363Y1540D02*
X1479Y1540D01*
X466Y1539D02*
X581Y1539D01*
X1363Y1539D02*
X1478Y1539D01*
X467Y1538D02*
X581Y1538D01*
X1364Y1538D02*
X1478Y1538D01*
X467Y1537D02*
X580Y1537D01*
X1364Y1537D02*
X1477Y1537D01*
X468Y1536D02*
X580Y1536D01*
X1365Y1536D02*
X1477Y1536D01*
X469Y1535D02*
X579Y1535D01*
X1366Y1535D02*
X1476Y1535D01*
X469Y1534D02*
X578Y1534D01*
X1366Y1534D02*
X1475Y1534D01*
X470Y1533D02*
X578Y1533D01*
X1367Y1533D02*
X1475Y1533D01*
X471Y1532D02*
X577Y1532D01*
X1368Y1532D02*
X1474Y1532D01*
X472Y1531D02*
X576Y1531D01*
X1369Y1531D02*
X1473Y1531D01*
X472Y1530D02*
X575Y1530D01*
X1369Y1530D02*
X1472Y1530D01*
X474Y1529D02*
X574Y1529D01*
X1370Y1529D02*
X1471Y1529D01*
X475Y1528D02*
X573Y1528D01*
X1372Y1528D02*
X1470Y1528D01*
X476Y1527D02*
X572Y1527D01*
X1373Y1527D02*
X1469Y1527D01*
X477Y1526D02*
X570Y1526D01*
X1374Y1526D02*
X1467Y1526D01*
X479Y1525D02*
X569Y1525D01*
X1376Y1525D02*
X1466Y1525D01*
X480Y1524D02*
X567Y1524D01*
X1377Y1524D02*
X1464Y1524D01*
X482Y1523D02*
X565Y1523D01*
X1379Y1523D02*
X1462Y1523D01*
X484Y1522D02*
X563Y1522D01*
X1381Y1522D02*
X1460Y1522D01*
X487Y1521D02*
X560Y1521D01*
X1384Y1521D02*
X1457Y1521D01*
X491Y1520D02*
X557Y1520D01*
X1388Y1520D02*
X1454Y1520D01*
X491Y1490D02*
X557Y1490D01*
X1388Y1490D02*
X1454Y1490D01*
X487Y1489D02*
X560Y1489D01*
X1384Y1489D02*
X1457Y1489D01*
X485Y1488D02*
X563Y1488D01*
X1382Y1488D02*
X1460Y1488D01*
X483Y1487D02*
X565Y1487D01*
X1379Y1487D02*
X1462Y1487D01*
X481Y1486D02*
X567Y1486D01*
X1378Y1486D02*
X1464Y1486D01*
X479Y1485D02*
X569Y1485D01*
X1376Y1485D02*
X1466Y1485D01*
X477Y1484D02*
X570Y1484D01*
X1374Y1484D02*
X1467Y1484D01*
X476Y1483D02*
X572Y1483D01*
X1373Y1483D02*
X1469Y1483D01*
X475Y1482D02*
X573Y1482D01*
X1372Y1482D02*
X1470Y1482D01*
X474Y1481D02*
X574Y1481D01*
X1371Y1481D02*
X1471Y1481D01*
X473Y1480D02*
X575Y1480D01*
X1370Y1480D02*
X1472Y1480D01*
X472Y1479D02*
X576Y1479D01*
X1369Y1479D02*
X1473Y1479D01*
X471Y1478D02*
X577Y1478D01*
X1368Y1478D02*
X1474Y1478D01*
X470Y1477D02*
X578Y1477D01*
X1367Y1477D02*
X1475Y1477D01*
X469Y1476D02*
X578Y1476D01*
X1366Y1476D02*
X1475Y1476D01*
X469Y1475D02*
X579Y1475D01*
X1366Y1475D02*
X1476Y1475D01*
X468Y1474D02*
X580Y1474D01*
X1365Y1474D02*
X1477Y1474D01*
X468Y1473D02*
X580Y1473D01*
X1364Y1473D02*
X1477Y1473D01*
X467Y1472D02*
X581Y1472D01*
X1364Y1472D02*
X1478Y1472D01*
X466Y1471D02*
X581Y1471D01*
X1363Y1471D02*
X1478Y1471D01*
X466Y1470D02*
X582Y1470D01*
X1363Y1470D02*
X1479Y1470D01*
X466Y1469D02*
X582Y1469D01*
X1362Y1469D02*
X1479Y1469D01*
X465Y1468D02*
X583Y1468D01*
X1362Y1468D02*
X1480Y1468D01*
X465Y1467D02*
X583Y1467D01*
X1362Y1467D02*
X1480Y1467D01*
X464Y1466D02*
X583Y1466D01*
X1361Y1466D02*
X1480Y1466D01*
X464Y1465D02*
X584Y1465D01*
X1361Y1465D02*
X1481Y1465D01*
X464Y1464D02*
X584Y1464D01*
X1361Y1464D02*
X1481Y1464D01*
X463Y1463D02*
X584Y1463D01*
X1360Y1463D02*
X1481Y1463D01*
X463Y1462D02*
X585Y1462D01*
X1360Y1462D02*
X1481Y1462D01*
X463Y1461D02*
X585Y1461D01*
X1360Y1461D02*
X1482Y1461D01*
X463Y1460D02*
X521Y1460D01*
X528Y1460D02*
X585Y1460D01*
X1360Y1460D02*
X1417Y1460D01*
X1424Y1460D02*
X1482Y1460D01*
X463Y1459D02*
X520Y1459D01*
X529Y1459D02*
X585Y1459D01*
X1360Y1459D02*
X1416Y1459D01*
X1426Y1459D02*
X1482Y1459D01*
X463Y1458D02*
X519Y1458D01*
X530Y1458D02*
X585Y1458D01*
X1359Y1458D02*
X1415Y1458D01*
X1426Y1458D02*
X1482Y1458D01*
X463Y1457D02*
X518Y1457D01*
X531Y1457D02*
X585Y1457D01*
X1359Y1457D02*
X1414Y1457D01*
X1427Y1457D02*
X1482Y1457D01*
X462Y1456D02*
X518Y1456D01*
X531Y1456D02*
X585Y1456D01*
X1359Y1456D02*
X1414Y1456D01*
X1427Y1456D02*
X1482Y1456D01*
X462Y1455D02*
X518Y1455D01*
X531Y1455D02*
X585Y1455D01*
X1359Y1455D02*
X1414Y1455D01*
X1427Y1455D02*
X1482Y1455D01*
X462Y1454D02*
X518Y1454D01*
X531Y1454D02*
X585Y1454D01*
X1359Y1454D02*
X1414Y1454D01*
X1427Y1454D02*
X1482Y1454D01*
X463Y1453D02*
X518Y1453D01*
X531Y1453D02*
X585Y1453D01*
X1359Y1453D02*
X1414Y1453D01*
X1427Y1453D02*
X1482Y1453D01*
X463Y1452D02*
X519Y1452D01*
X530Y1452D02*
X585Y1452D01*
X1359Y1452D02*
X1415Y1452D01*
X1426Y1452D02*
X1482Y1452D01*
X463Y1451D02*
X520Y1451D01*
X530Y1451D02*
X585Y1451D01*
X1359Y1451D02*
X1416Y1451D01*
X1426Y1451D02*
X1482Y1451D01*
X463Y1450D02*
X521Y1450D01*
X528Y1450D02*
X585Y1450D01*
X1359Y1450D02*
X1417Y1450D01*
X1425Y1450D02*
X1482Y1450D01*
X463Y1449D02*
X523Y1449D01*
X526Y1449D02*
X585Y1449D01*
X1359Y1449D02*
X1419Y1449D01*
X1422Y1449D02*
X1482Y1449D01*
X463Y1448D02*
X585Y1448D01*
X1359Y1448D02*
X1481Y1448D01*
X463Y1447D02*
X584Y1447D01*
X1359Y1447D02*
X1481Y1447D01*
X464Y1446D02*
X584Y1446D01*
X1359Y1446D02*
X1481Y1446D01*
X464Y1445D02*
X584Y1445D01*
X1360Y1445D02*
X1481Y1445D01*
X464Y1444D02*
X583Y1444D01*
X1361Y1444D02*
X1480Y1444D01*
X465Y1443D02*
X583Y1443D01*
X1362Y1443D02*
X1480Y1443D01*
X465Y1442D02*
X583Y1442D01*
X1362Y1442D02*
X1480Y1442D01*
X465Y1441D02*
X582Y1441D01*
X1362Y1441D02*
X1479Y1441D01*
X466Y1440D02*
X582Y1440D01*
X1363Y1440D02*
X1479Y1440D01*
X466Y1439D02*
X581Y1439D01*
X1363Y1439D02*
X1478Y1439D01*
X467Y1438D02*
X581Y1438D01*
X1364Y1438D02*
X1478Y1438D01*
X467Y1437D02*
X580Y1437D01*
X1364Y1437D02*
X1477Y1437D01*
X468Y1436D02*
X580Y1436D01*
X1365Y1436D02*
X1477Y1436D01*
X469Y1435D02*
X579Y1435D01*
X1365Y1435D02*
X1476Y1435D01*
X469Y1434D02*
X579Y1434D01*
X1366Y1434D02*
X1475Y1434D01*
X470Y1433D02*
X578Y1433D01*
X1367Y1433D02*
X1475Y1433D01*
X471Y1432D02*
X577Y1432D01*
X1368Y1432D02*
X1474Y1432D01*
X472Y1431D02*
X576Y1431D01*
X1368Y1431D02*
X1473Y1431D01*
X472Y1430D02*
X575Y1430D01*
X1369Y1430D02*
X1472Y1430D01*
X473Y1429D02*
X574Y1429D01*
X1370Y1429D02*
X1471Y1429D01*
X475Y1428D02*
X573Y1428D01*
X1371Y1428D02*
X1470Y1428D01*
X476Y1427D02*
X572Y1427D01*
X1373Y1427D02*
X1469Y1427D01*
X477Y1426D02*
X571Y1426D01*
X1374Y1426D02*
X1467Y1426D01*
X479Y1425D02*
X569Y1425D01*
X1375Y1425D02*
X1466Y1425D01*
X480Y1424D02*
X567Y1424D01*
X1377Y1424D02*
X1464Y1424D01*
X482Y1423D02*
X566Y1423D01*
X1379Y1423D02*
X1462Y1423D01*
X484Y1422D02*
X563Y1422D01*
X1381Y1422D02*
X1460Y1422D01*
X487Y1421D02*
X561Y1421D01*
X1384Y1421D02*
X1458Y1421D01*
X490Y1420D02*
X558Y1420D01*
X1387Y1420D02*
X1454Y1420D01*
X497Y1419D02*
X551Y1419D01*
X1394Y1419D02*
X1448Y1419D01*
X491Y1390D02*
X557Y1390D01*
X1388Y1390D02*
X1454Y1390D01*
X487Y1389D02*
X560Y1389D01*
X1384Y1389D02*
X1457Y1389D01*
X485Y1388D02*
X563Y1388D01*
X1382Y1388D02*
X1460Y1388D01*
X483Y1387D02*
X565Y1387D01*
X1379Y1387D02*
X1462Y1387D01*
X481Y1386D02*
X567Y1386D01*
X1378Y1386D02*
X1464Y1386D01*
X479Y1385D02*
X569Y1385D01*
X1376Y1385D02*
X1466Y1385D01*
X477Y1384D02*
X570Y1384D01*
X1374Y1384D02*
X1467Y1384D01*
X476Y1383D02*
X572Y1383D01*
X1373Y1383D02*
X1469Y1383D01*
X475Y1382D02*
X573Y1382D01*
X1372Y1382D02*
X1470Y1382D01*
X474Y1381D02*
X574Y1381D01*
X1371Y1381D02*
X1471Y1381D01*
X473Y1380D02*
X575Y1380D01*
X1370Y1380D02*
X1472Y1380D01*
X472Y1379D02*
X576Y1379D01*
X1369Y1379D02*
X1473Y1379D01*
X471Y1378D02*
X577Y1378D01*
X1368Y1378D02*
X1474Y1378D01*
X470Y1377D02*
X578Y1377D01*
X1367Y1377D02*
X1475Y1377D01*
X469Y1376D02*
X578Y1376D01*
X1366Y1376D02*
X1475Y1376D01*
X469Y1375D02*
X579Y1375D01*
X1366Y1375D02*
X1476Y1375D01*
X468Y1374D02*
X580Y1374D01*
X1365Y1374D02*
X1477Y1374D01*
X467Y1373D02*
X580Y1373D01*
X1364Y1373D02*
X1477Y1373D01*
X467Y1372D02*
X581Y1372D01*
X1364Y1372D02*
X1478Y1372D01*
X466Y1371D02*
X581Y1371D01*
X1363Y1371D02*
X1478Y1371D01*
X466Y1370D02*
X582Y1370D01*
X1363Y1370D02*
X1479Y1370D01*
X465Y1369D02*
X582Y1369D01*
X1362Y1369D02*
X1479Y1369D01*
X465Y1368D02*
X583Y1368D01*
X1362Y1368D02*
X1480Y1368D01*
X465Y1367D02*
X583Y1367D01*
X1362Y1367D02*
X1480Y1367D01*
X464Y1366D02*
X583Y1366D01*
X1361Y1366D02*
X1480Y1366D01*
X464Y1365D02*
X584Y1365D01*
X1361Y1365D02*
X1481Y1365D01*
X464Y1364D02*
X584Y1364D01*
X1361Y1364D02*
X1481Y1364D01*
X463Y1363D02*
X584Y1363D01*
X1360Y1363D02*
X1481Y1363D01*
X463Y1362D02*
X584Y1362D01*
X1360Y1362D02*
X1481Y1362D01*
X463Y1361D02*
X585Y1361D01*
X1360Y1361D02*
X1482Y1361D01*
X463Y1360D02*
X521Y1360D01*
X528Y1360D02*
X585Y1360D01*
X1360Y1360D02*
X1417Y1360D01*
X1425Y1360D02*
X1482Y1360D01*
X463Y1359D02*
X519Y1359D01*
X530Y1359D02*
X585Y1359D01*
X1360Y1359D02*
X1416Y1359D01*
X1426Y1359D02*
X1482Y1359D01*
X463Y1358D02*
X519Y1358D01*
X530Y1358D02*
X585Y1358D01*
X1359Y1358D02*
X1415Y1358D01*
X1427Y1358D02*
X1482Y1358D01*
X462Y1357D02*
X518Y1357D01*
X531Y1357D02*
X585Y1357D01*
X1359Y1357D02*
X1414Y1357D01*
X1427Y1357D02*
X1482Y1357D01*
X462Y1356D02*
X518Y1356D01*
X531Y1356D02*
X585Y1356D01*
X1359Y1356D02*
X1414Y1356D01*
X1427Y1356D02*
X1482Y1356D01*
X462Y1355D02*
X518Y1355D01*
X531Y1355D02*
X585Y1355D01*
X1359Y1355D02*
X1414Y1355D01*
X1427Y1355D02*
X1482Y1355D01*
X462Y1354D02*
X518Y1354D01*
X531Y1354D02*
X585Y1354D01*
X1359Y1354D02*
X1414Y1354D01*
X1427Y1354D02*
X1482Y1354D01*
X462Y1353D02*
X518Y1353D01*
X531Y1353D02*
X585Y1353D01*
X1359Y1353D02*
X1414Y1353D01*
X1427Y1353D02*
X1482Y1353D01*
X463Y1352D02*
X519Y1352D01*
X530Y1352D02*
X585Y1352D01*
X1359Y1352D02*
X1415Y1352D01*
X1427Y1352D02*
X1482Y1352D01*
X463Y1351D02*
X519Y1351D01*
X530Y1351D02*
X585Y1351D01*
X1359Y1351D02*
X1415Y1351D01*
X1426Y1351D02*
X1482Y1351D01*
X463Y1350D02*
X521Y1350D01*
X529Y1350D02*
X585Y1350D01*
X1359Y1350D02*
X1417Y1350D01*
X1425Y1350D02*
X1482Y1350D01*
X463Y1349D02*
X523Y1349D01*
X526Y1349D02*
X585Y1349D01*
X1359Y1349D02*
X1419Y1349D01*
X1422Y1349D02*
X1482Y1349D01*
X463Y1348D02*
X584Y1348D01*
X1359Y1348D02*
X1481Y1348D01*
X463Y1347D02*
X584Y1347D01*
X1359Y1347D02*
X1481Y1347D01*
X464Y1346D02*
X584Y1346D01*
X1359Y1346D02*
X1481Y1346D01*
X464Y1345D02*
X584Y1345D01*
X1360Y1345D02*
X1481Y1345D01*
X464Y1344D02*
X583Y1344D01*
X1361Y1344D02*
X1480Y1344D01*
X465Y1343D02*
X583Y1343D01*
X1362Y1343D02*
X1480Y1343D01*
X465Y1342D02*
X583Y1342D01*
X1362Y1342D02*
X1480Y1342D01*
X465Y1341D02*
X582Y1341D01*
X1362Y1341D02*
X1479Y1341D01*
X466Y1340D02*
X582Y1340D01*
X1363Y1340D02*
X1479Y1340D01*
X466Y1339D02*
X581Y1339D01*
X1363Y1339D02*
X1478Y1339D01*
X467Y1338D02*
X581Y1338D01*
X1364Y1338D02*
X1478Y1338D01*
X467Y1337D02*
X580Y1337D01*
X1364Y1337D02*
X1477Y1337D01*
X468Y1336D02*
X580Y1336D01*
X1365Y1336D02*
X1477Y1336D01*
X468Y1335D02*
X579Y1335D01*
X1365Y1335D02*
X1476Y1335D01*
X469Y1334D02*
X578Y1334D01*
X1366Y1334D02*
X1475Y1334D01*
X470Y1333D02*
X578Y1333D01*
X1367Y1333D02*
X1475Y1333D01*
X471Y1332D02*
X577Y1332D01*
X1368Y1332D02*
X1474Y1332D01*
X471Y1331D02*
X576Y1331D01*
X1368Y1331D02*
X1473Y1331D01*
X472Y1330D02*
X575Y1330D01*
X1369Y1330D02*
X1472Y1330D01*
X473Y1329D02*
X574Y1329D01*
X1370Y1329D02*
X1471Y1329D01*
X474Y1328D02*
X573Y1328D01*
X1371Y1328D02*
X1470Y1328D01*
X476Y1327D02*
X572Y1327D01*
X1373Y1327D02*
X1469Y1327D01*
X477Y1326D02*
X571Y1326D01*
X1374Y1326D02*
X1467Y1326D01*
X479Y1325D02*
X569Y1325D01*
X1375Y1325D02*
X1466Y1325D01*
X480Y1324D02*
X567Y1324D01*
X1377Y1324D02*
X1464Y1324D01*
X482Y1323D02*
X566Y1323D01*
X1379Y1323D02*
X1462Y1323D01*
X484Y1322D02*
X563Y1322D01*
X1381Y1322D02*
X1460Y1322D01*
X487Y1321D02*
X561Y1321D01*
X1384Y1321D02*
X1458Y1321D01*
X490Y1320D02*
X557Y1320D01*
X1387Y1320D02*
X1454Y1320D01*
X497Y1319D02*
X551Y1319D01*
X1394Y1319D02*
X1448Y1319D01*
X491Y1290D02*
X557Y1290D01*
X1388Y1290D02*
X1454Y1290D01*
X487Y1289D02*
X560Y1289D01*
X1384Y1289D02*
X1457Y1289D01*
X485Y1288D02*
X563Y1288D01*
X1382Y1288D02*
X1460Y1288D01*
X482Y1287D02*
X565Y1287D01*
X1379Y1287D02*
X1462Y1287D01*
X481Y1286D02*
X567Y1286D01*
X1378Y1286D02*
X1464Y1286D01*
X479Y1285D02*
X569Y1285D01*
X1376Y1285D02*
X1466Y1285D01*
X477Y1284D02*
X570Y1284D01*
X1374Y1284D02*
X1467Y1284D01*
X476Y1283D02*
X572Y1283D01*
X1373Y1283D02*
X1469Y1283D01*
X475Y1282D02*
X573Y1282D01*
X1372Y1282D02*
X1470Y1282D01*
X474Y1281D02*
X574Y1281D01*
X1371Y1281D02*
X1471Y1281D01*
X473Y1280D02*
X575Y1280D01*
X1370Y1280D02*
X1472Y1280D01*
X472Y1279D02*
X576Y1279D01*
X1369Y1279D02*
X1473Y1279D01*
X471Y1278D02*
X577Y1278D01*
X1368Y1278D02*
X1474Y1278D01*
X470Y1277D02*
X578Y1277D01*
X1367Y1277D02*
X1475Y1277D01*
X469Y1276D02*
X578Y1276D01*
X1366Y1276D02*
X1475Y1276D01*
X469Y1275D02*
X579Y1275D01*
X1366Y1275D02*
X1476Y1275D01*
X468Y1274D02*
X580Y1274D01*
X1365Y1274D02*
X1477Y1274D01*
X467Y1273D02*
X580Y1273D01*
X1364Y1273D02*
X1477Y1273D01*
X467Y1272D02*
X581Y1272D01*
X1364Y1272D02*
X1478Y1272D01*
X466Y1271D02*
X581Y1271D01*
X1363Y1271D02*
X1478Y1271D01*
X466Y1270D02*
X582Y1270D01*
X1363Y1270D02*
X1479Y1270D01*
X465Y1269D02*
X582Y1269D01*
X1362Y1269D02*
X1479Y1269D01*
X465Y1268D02*
X583Y1268D01*
X1362Y1268D02*
X1480Y1268D01*
X465Y1267D02*
X583Y1267D01*
X1362Y1267D02*
X1480Y1267D01*
X464Y1266D02*
X583Y1266D01*
X1361Y1266D02*
X1480Y1266D01*
X464Y1265D02*
X584Y1265D01*
X1361Y1265D02*
X1481Y1265D01*
X464Y1264D02*
X584Y1264D01*
X1361Y1264D02*
X1481Y1264D01*
X463Y1263D02*
X584Y1263D01*
X1360Y1263D02*
X1481Y1263D01*
X463Y1262D02*
X584Y1262D01*
X1360Y1262D02*
X1481Y1262D01*
X463Y1261D02*
X585Y1261D01*
X1360Y1261D02*
X1482Y1261D01*
X463Y1260D02*
X521Y1260D01*
X528Y1260D02*
X585Y1260D01*
X1360Y1260D02*
X1417Y1260D01*
X1425Y1260D02*
X1482Y1260D01*
X463Y1259D02*
X519Y1259D01*
X530Y1259D02*
X585Y1259D01*
X1360Y1259D02*
X1416Y1259D01*
X1426Y1259D02*
X1482Y1259D01*
X462Y1258D02*
X519Y1258D01*
X530Y1258D02*
X585Y1258D01*
X1359Y1258D02*
X1415Y1258D01*
X1427Y1258D02*
X1482Y1258D01*
X462Y1257D02*
X518Y1257D01*
X531Y1257D02*
X585Y1257D01*
X1359Y1257D02*
X1414Y1257D01*
X1427Y1257D02*
X1482Y1257D01*
X462Y1256D02*
X518Y1256D01*
X531Y1256D02*
X585Y1256D01*
X1359Y1256D02*
X1414Y1256D01*
X1427Y1256D02*
X1482Y1256D01*
X462Y1255D02*
X518Y1255D01*
X531Y1255D02*
X585Y1255D01*
X1359Y1255D02*
X1414Y1255D01*
X1427Y1255D02*
X1482Y1255D01*
X462Y1254D02*
X518Y1254D01*
X531Y1254D02*
X585Y1254D01*
X1359Y1254D02*
X1414Y1254D01*
X1427Y1254D02*
X1482Y1254D01*
X462Y1253D02*
X518Y1253D01*
X531Y1253D02*
X585Y1253D01*
X1359Y1253D02*
X1414Y1253D01*
X1427Y1253D02*
X1482Y1253D01*
X462Y1252D02*
X519Y1252D01*
X530Y1252D02*
X585Y1252D01*
X1359Y1252D02*
X1415Y1252D01*
X1427Y1252D02*
X1482Y1252D01*
X463Y1251D02*
X519Y1251D01*
X530Y1251D02*
X585Y1251D01*
X1359Y1251D02*
X1415Y1251D01*
X1426Y1251D02*
X1482Y1251D01*
X463Y1250D02*
X520Y1250D01*
X529Y1250D02*
X585Y1250D01*
X1359Y1250D02*
X1417Y1250D01*
X1425Y1250D02*
X1482Y1250D01*
X463Y1249D02*
X523Y1249D01*
X526Y1249D02*
X585Y1249D01*
X1359Y1249D02*
X1419Y1249D01*
X1422Y1249D02*
X1482Y1249D01*
X463Y1248D02*
X584Y1248D01*
X1359Y1248D02*
X1481Y1248D01*
X463Y1247D02*
X584Y1247D01*
X1359Y1247D02*
X1481Y1247D01*
X464Y1246D02*
X584Y1246D01*
X1359Y1246D02*
X1481Y1246D01*
X464Y1245D02*
X584Y1245D01*
X1360Y1245D02*
X1481Y1245D01*
X464Y1244D02*
X583Y1244D01*
X1361Y1244D02*
X1480Y1244D01*
X465Y1243D02*
X583Y1243D01*
X1362Y1243D02*
X1480Y1243D01*
X465Y1242D02*
X583Y1242D01*
X1362Y1242D02*
X1480Y1242D01*
X465Y1241D02*
X582Y1241D01*
X1362Y1241D02*
X1479Y1241D01*
X466Y1240D02*
X582Y1240D01*
X1363Y1240D02*
X1479Y1240D01*
X466Y1239D02*
X581Y1239D01*
X1363Y1239D02*
X1478Y1239D01*
X467Y1238D02*
X581Y1238D01*
X1364Y1238D02*
X1478Y1238D01*
X467Y1237D02*
X580Y1237D01*
X1364Y1237D02*
X1477Y1237D01*
X468Y1236D02*
X580Y1236D01*
X1365Y1236D02*
X1477Y1236D01*
X468Y1235D02*
X579Y1235D01*
X1365Y1235D02*
X1476Y1235D01*
X469Y1234D02*
X578Y1234D01*
X1366Y1234D02*
X1475Y1234D01*
X470Y1233D02*
X578Y1233D01*
X1367Y1233D02*
X1475Y1233D01*
X471Y1232D02*
X577Y1232D01*
X1368Y1232D02*
X1474Y1232D01*
X471Y1231D02*
X576Y1231D01*
X1368Y1231D02*
X1473Y1231D01*
X472Y1230D02*
X575Y1230D01*
X1369Y1230D02*
X1472Y1230D01*
X473Y1229D02*
X574Y1229D01*
X1370Y1229D02*
X1471Y1229D01*
X474Y1228D02*
X573Y1228D01*
X1371Y1228D02*
X1470Y1228D01*
X476Y1227D02*
X572Y1227D01*
X1373Y1227D02*
X1469Y1227D01*
X477Y1226D02*
X571Y1226D01*
X1374Y1226D02*
X1467Y1226D01*
X478Y1225D02*
X569Y1225D01*
X1375Y1225D02*
X1466Y1225D01*
X480Y1224D02*
X567Y1224D01*
X1377Y1224D02*
X1464Y1224D01*
X482Y1223D02*
X565Y1223D01*
X1379Y1223D02*
X1462Y1223D01*
X484Y1222D02*
X563Y1222D01*
X1381Y1222D02*
X1460Y1222D01*
X487Y1221D02*
X561Y1221D01*
X1384Y1221D02*
X1458Y1221D01*
X490Y1220D02*
X557Y1220D01*
X1387Y1220D02*
X1454Y1220D01*
X497Y1219D02*
X551Y1219D01*
X1394Y1219D02*
X1448Y1219D01*
X491Y1190D02*
X557Y1190D01*
X1388Y1190D02*
X1454Y1190D01*
X487Y1189D02*
X560Y1189D01*
X1384Y1189D02*
X1457Y1189D01*
X485Y1188D02*
X563Y1188D01*
X1382Y1188D02*
X1460Y1188D01*
X483Y1187D02*
X565Y1187D01*
X1379Y1187D02*
X1462Y1187D01*
X481Y1186D02*
X567Y1186D01*
X1378Y1186D02*
X1464Y1186D01*
X479Y1185D02*
X569Y1185D01*
X1376Y1185D02*
X1466Y1185D01*
X477Y1184D02*
X570Y1184D01*
X1374Y1184D02*
X1467Y1184D01*
X476Y1183D02*
X572Y1183D01*
X1373Y1183D02*
X1469Y1183D01*
X475Y1182D02*
X573Y1182D01*
X1372Y1182D02*
X1470Y1182D01*
X474Y1181D02*
X574Y1181D01*
X1371Y1181D02*
X1471Y1181D01*
X473Y1180D02*
X575Y1180D01*
X1370Y1180D02*
X1472Y1180D01*
X472Y1179D02*
X576Y1179D01*
X1369Y1179D02*
X1473Y1179D01*
X471Y1178D02*
X577Y1178D01*
X1368Y1178D02*
X1474Y1178D01*
X470Y1177D02*
X578Y1177D01*
X1367Y1177D02*
X1475Y1177D01*
X469Y1176D02*
X578Y1176D01*
X1366Y1176D02*
X1475Y1176D01*
X469Y1175D02*
X579Y1175D01*
X1366Y1175D02*
X1476Y1175D01*
X468Y1174D02*
X580Y1174D01*
X1365Y1174D02*
X1477Y1174D01*
X467Y1173D02*
X580Y1173D01*
X1364Y1173D02*
X1477Y1173D01*
X467Y1172D02*
X581Y1172D01*
X1364Y1172D02*
X1478Y1172D01*
X466Y1171D02*
X581Y1171D01*
X1363Y1171D02*
X1478Y1171D01*
X466Y1170D02*
X582Y1170D01*
X1363Y1170D02*
X1479Y1170D01*
X465Y1169D02*
X582Y1169D01*
X1362Y1169D02*
X1479Y1169D01*
X465Y1168D02*
X583Y1168D01*
X1362Y1168D02*
X1480Y1168D01*
X465Y1167D02*
X583Y1167D01*
X1362Y1167D02*
X1480Y1167D01*
X464Y1166D02*
X583Y1166D01*
X1361Y1166D02*
X1480Y1166D01*
X464Y1165D02*
X584Y1165D01*
X1361Y1165D02*
X1481Y1165D01*
X464Y1164D02*
X584Y1164D01*
X1361Y1164D02*
X1481Y1164D01*
X463Y1163D02*
X584Y1163D01*
X1360Y1163D02*
X1481Y1163D01*
X463Y1162D02*
X584Y1162D01*
X1360Y1162D02*
X1481Y1162D01*
X463Y1161D02*
X585Y1161D01*
X1360Y1161D02*
X1482Y1161D01*
X463Y1160D02*
X521Y1160D01*
X528Y1160D02*
X585Y1160D01*
X1360Y1160D02*
X1417Y1160D01*
X1425Y1160D02*
X1482Y1160D01*
X463Y1159D02*
X519Y1159D01*
X530Y1159D02*
X585Y1159D01*
X1360Y1159D02*
X1416Y1159D01*
X1426Y1159D02*
X1482Y1159D01*
X463Y1158D02*
X519Y1158D01*
X530Y1158D02*
X585Y1158D01*
X1359Y1158D02*
X1415Y1158D01*
X1427Y1158D02*
X1482Y1158D01*
X462Y1157D02*
X518Y1157D01*
X531Y1157D02*
X585Y1157D01*
X1359Y1157D02*
X1414Y1157D01*
X1427Y1157D02*
X1482Y1157D01*
X462Y1156D02*
X518Y1156D01*
X531Y1156D02*
X585Y1156D01*
X1359Y1156D02*
X1414Y1156D01*
X1427Y1156D02*
X1482Y1156D01*
X462Y1155D02*
X518Y1155D01*
X531Y1155D02*
X585Y1155D01*
X1359Y1155D02*
X1414Y1155D01*
X1427Y1155D02*
X1482Y1155D01*
X462Y1154D02*
X518Y1154D01*
X531Y1154D02*
X585Y1154D01*
X1359Y1154D02*
X1414Y1154D01*
X1427Y1154D02*
X1482Y1154D01*
X462Y1153D02*
X518Y1153D01*
X531Y1153D02*
X585Y1153D01*
X1359Y1153D02*
X1414Y1153D01*
X1427Y1153D02*
X1482Y1153D01*
X463Y1152D02*
X519Y1152D01*
X530Y1152D02*
X585Y1152D01*
X1359Y1152D02*
X1415Y1152D01*
X1427Y1152D02*
X1482Y1152D01*
X463Y1151D02*
X519Y1151D01*
X530Y1151D02*
X585Y1151D01*
X1359Y1151D02*
X1416Y1151D01*
X1426Y1151D02*
X1482Y1151D01*
X463Y1150D02*
X521Y1150D01*
X529Y1150D02*
X585Y1150D01*
X1359Y1150D02*
X1417Y1150D01*
X1425Y1150D02*
X1482Y1150D01*
X463Y1149D02*
X523Y1149D01*
X526Y1149D02*
X585Y1149D01*
X1359Y1149D02*
X1420Y1149D01*
X1422Y1149D02*
X1482Y1149D01*
X463Y1148D02*
X584Y1148D01*
X1359Y1148D02*
X1481Y1148D01*
X463Y1147D02*
X584Y1147D01*
X1359Y1147D02*
X1481Y1147D01*
X464Y1146D02*
X584Y1146D01*
X1359Y1146D02*
X1481Y1146D01*
X464Y1145D02*
X584Y1145D01*
X1360Y1145D02*
X1481Y1145D01*
X464Y1144D02*
X583Y1144D01*
X1361Y1144D02*
X1480Y1144D01*
X465Y1143D02*
X583Y1143D01*
X1362Y1143D02*
X1480Y1143D01*
X465Y1142D02*
X583Y1142D01*
X1362Y1142D02*
X1480Y1142D01*
X465Y1141D02*
X582Y1141D01*
X1362Y1141D02*
X1479Y1141D01*
X466Y1140D02*
X582Y1140D01*
X1363Y1140D02*
X1479Y1140D01*
X466Y1139D02*
X581Y1139D01*
X1363Y1139D02*
X1478Y1139D01*
X467Y1138D02*
X581Y1138D01*
X1364Y1138D02*
X1478Y1138D01*
X467Y1137D02*
X580Y1137D01*
X1364Y1137D02*
X1477Y1137D01*
X468Y1136D02*
X580Y1136D01*
X1365Y1136D02*
X1477Y1136D01*
X468Y1135D02*
X579Y1135D01*
X1365Y1135D02*
X1476Y1135D01*
X469Y1134D02*
X578Y1134D01*
X1366Y1134D02*
X1475Y1134D01*
X470Y1133D02*
X578Y1133D01*
X1367Y1133D02*
X1475Y1133D01*
X471Y1132D02*
X577Y1132D01*
X1368Y1132D02*
X1474Y1132D01*
X471Y1131D02*
X576Y1131D01*
X1368Y1131D02*
X1473Y1131D01*
X472Y1130D02*
X575Y1130D01*
X1369Y1130D02*
X1472Y1130D01*
X473Y1129D02*
X574Y1129D01*
X1370Y1129D02*
X1471Y1129D01*
X475Y1128D02*
X573Y1128D01*
X1371Y1128D02*
X1470Y1128D01*
X476Y1127D02*
X572Y1127D01*
X1373Y1127D02*
X1469Y1127D01*
X477Y1126D02*
X571Y1126D01*
X1374Y1126D02*
X1467Y1126D01*
X479Y1125D02*
X569Y1125D01*
X1375Y1125D02*
X1466Y1125D01*
X480Y1124D02*
X567Y1124D01*
X1377Y1124D02*
X1464Y1124D01*
X482Y1123D02*
X565Y1123D01*
X1379Y1123D02*
X1462Y1123D01*
X484Y1122D02*
X563Y1122D01*
X1381Y1122D02*
X1460Y1122D01*
X487Y1121D02*
X561Y1121D01*
X1384Y1121D02*
X1458Y1121D01*
X490Y1120D02*
X557Y1120D01*
X1387Y1120D02*
X1454Y1120D01*
X497Y1119D02*
X551Y1119D01*
X1394Y1119D02*
X1448Y1119D01*
X491Y1090D02*
X557Y1090D01*
X1388Y1090D02*
X1454Y1090D01*
X487Y1089D02*
X560Y1089D01*
X1384Y1089D02*
X1457Y1089D01*
X485Y1088D02*
X563Y1088D01*
X1382Y1088D02*
X1460Y1088D01*
X482Y1087D02*
X565Y1087D01*
X1379Y1087D02*
X1462Y1087D01*
X481Y1086D02*
X567Y1086D01*
X1378Y1086D02*
X1464Y1086D01*
X479Y1085D02*
X569Y1085D01*
X1376Y1085D02*
X1466Y1085D01*
X477Y1084D02*
X570Y1084D01*
X1374Y1084D02*
X1467Y1084D01*
X476Y1083D02*
X572Y1083D01*
X1373Y1083D02*
X1469Y1083D01*
X475Y1082D02*
X573Y1082D01*
X1372Y1082D02*
X1470Y1082D01*
X474Y1081D02*
X574Y1081D01*
X1371Y1081D02*
X1471Y1081D01*
X473Y1080D02*
X575Y1080D01*
X1370Y1080D02*
X1472Y1080D01*
X472Y1079D02*
X576Y1079D01*
X1369Y1079D02*
X1473Y1079D01*
X471Y1078D02*
X577Y1078D01*
X1368Y1078D02*
X1474Y1078D01*
X470Y1077D02*
X578Y1077D01*
X1367Y1077D02*
X1475Y1077D01*
X469Y1076D02*
X578Y1076D01*
X1366Y1076D02*
X1475Y1076D01*
X469Y1075D02*
X579Y1075D01*
X1366Y1075D02*
X1476Y1075D01*
X468Y1074D02*
X580Y1074D01*
X1365Y1074D02*
X1477Y1074D01*
X467Y1073D02*
X580Y1073D01*
X1364Y1073D02*
X1477Y1073D01*
X467Y1072D02*
X581Y1072D01*
X1364Y1072D02*
X1478Y1072D01*
X466Y1071D02*
X581Y1071D01*
X1363Y1071D02*
X1478Y1071D01*
X466Y1070D02*
X582Y1070D01*
X1363Y1070D02*
X1479Y1070D01*
X465Y1069D02*
X582Y1069D01*
X1362Y1069D02*
X1479Y1069D01*
X465Y1068D02*
X583Y1068D01*
X1362Y1068D02*
X1480Y1068D01*
X465Y1067D02*
X583Y1067D01*
X1362Y1067D02*
X1480Y1067D01*
X464Y1066D02*
X583Y1066D01*
X1361Y1066D02*
X1480Y1066D01*
X464Y1065D02*
X584Y1065D01*
X1361Y1065D02*
X1481Y1065D01*
X464Y1064D02*
X584Y1064D01*
X1361Y1064D02*
X1481Y1064D01*
X463Y1063D02*
X584Y1063D01*
X1360Y1063D02*
X1481Y1063D01*
X463Y1062D02*
X584Y1062D01*
X1360Y1062D02*
X1481Y1062D01*
X463Y1061D02*
X585Y1061D01*
X1360Y1061D02*
X1482Y1061D01*
X463Y1060D02*
X521Y1060D01*
X528Y1060D02*
X585Y1060D01*
X1360Y1060D02*
X1417Y1060D01*
X1424Y1060D02*
X1482Y1060D01*
X463Y1059D02*
X520Y1059D01*
X529Y1059D02*
X585Y1059D01*
X1360Y1059D02*
X1416Y1059D01*
X1426Y1059D02*
X1482Y1059D01*
X462Y1058D02*
X519Y1058D01*
X530Y1058D02*
X585Y1058D01*
X1359Y1058D02*
X1415Y1058D01*
X1426Y1058D02*
X1482Y1058D01*
X462Y1057D02*
X518Y1057D01*
X531Y1057D02*
X585Y1057D01*
X1359Y1057D02*
X1414Y1057D01*
X1427Y1057D02*
X1482Y1057D01*
X462Y1056D02*
X518Y1056D01*
X531Y1056D02*
X585Y1056D01*
X1359Y1056D02*
X1414Y1056D01*
X1427Y1056D02*
X1482Y1056D01*
X462Y1055D02*
X518Y1055D01*
X531Y1055D02*
X585Y1055D01*
X1359Y1055D02*
X1414Y1055D01*
X1427Y1055D02*
X1482Y1055D01*
X462Y1054D02*
X518Y1054D01*
X531Y1054D02*
X585Y1054D01*
X1359Y1054D02*
X1414Y1054D01*
X1427Y1054D02*
X1482Y1054D01*
X462Y1053D02*
X518Y1053D01*
X531Y1053D02*
X585Y1053D01*
X1359Y1053D02*
X1414Y1053D01*
X1427Y1053D02*
X1482Y1053D01*
X462Y1052D02*
X519Y1052D01*
X530Y1052D02*
X585Y1052D01*
X1359Y1052D02*
X1415Y1052D01*
X1426Y1052D02*
X1482Y1052D01*
X463Y1051D02*
X520Y1051D01*
X529Y1051D02*
X585Y1051D01*
X1359Y1051D02*
X1416Y1051D01*
X1426Y1051D02*
X1482Y1051D01*
X463Y1050D02*
X521Y1050D01*
X528Y1050D02*
X585Y1050D01*
X1359Y1050D02*
X1417Y1050D01*
X1425Y1050D02*
X1482Y1050D01*
X463Y1049D02*
X523Y1049D01*
X526Y1049D02*
X585Y1049D01*
X1359Y1049D02*
X1419Y1049D01*
X1422Y1049D02*
X1482Y1049D01*
X463Y1048D02*
X584Y1048D01*
X1359Y1048D02*
X1481Y1048D01*
X463Y1047D02*
X584Y1047D01*
X1359Y1047D02*
X1481Y1047D01*
X464Y1046D02*
X584Y1046D01*
X1359Y1046D02*
X1481Y1046D01*
X464Y1045D02*
X584Y1045D01*
X1360Y1045D02*
X1481Y1045D01*
X464Y1044D02*
X583Y1044D01*
X1361Y1044D02*
X1480Y1044D01*
X465Y1043D02*
X583Y1043D01*
X1362Y1043D02*
X1480Y1043D01*
X465Y1042D02*
X583Y1042D01*
X1362Y1042D02*
X1480Y1042D01*
X465Y1041D02*
X582Y1041D01*
X1362Y1041D02*
X1479Y1041D01*
X466Y1040D02*
X582Y1040D01*
X1363Y1040D02*
X1479Y1040D01*
X466Y1039D02*
X581Y1039D01*
X1363Y1039D02*
X1478Y1039D01*
X467Y1038D02*
X581Y1038D01*
X1364Y1038D02*
X1478Y1038D01*
X467Y1037D02*
X580Y1037D01*
X1364Y1037D02*
X1477Y1037D01*
X468Y1036D02*
X580Y1036D01*
X1365Y1036D02*
X1477Y1036D01*
X468Y1035D02*
X579Y1035D01*
X1365Y1035D02*
X1476Y1035D01*
X469Y1034D02*
X578Y1034D01*
X1366Y1034D02*
X1475Y1034D01*
X470Y1033D02*
X578Y1033D01*
X1367Y1033D02*
X1475Y1033D01*
X471Y1032D02*
X577Y1032D01*
X1368Y1032D02*
X1474Y1032D01*
X471Y1031D02*
X576Y1031D01*
X1368Y1031D02*
X1473Y1031D01*
X472Y1030D02*
X575Y1030D01*
X1369Y1030D02*
X1472Y1030D01*
X473Y1029D02*
X574Y1029D01*
X1370Y1029D02*
X1471Y1029D01*
X474Y1028D02*
X573Y1028D01*
X1371Y1028D02*
X1470Y1028D01*
X476Y1027D02*
X572Y1027D01*
X1373Y1027D02*
X1469Y1027D01*
X477Y1026D02*
X571Y1026D01*
X1374Y1026D02*
X1467Y1026D01*
X478Y1025D02*
X569Y1025D01*
X1375Y1025D02*
X1466Y1025D01*
X480Y1024D02*
X567Y1024D01*
X1377Y1024D02*
X1464Y1024D01*
X482Y1023D02*
X565Y1023D01*
X1379Y1023D02*
X1462Y1023D01*
X484Y1022D02*
X563Y1022D01*
X1381Y1022D02*
X1460Y1022D01*
X487Y1021D02*
X561Y1021D01*
X1384Y1021D02*
X1458Y1021D01*
X490Y1020D02*
X557Y1020D01*
X1387Y1020D02*
X1454Y1020D01*
X497Y1019D02*
X551Y1019D01*
X1394Y1019D02*
X1448Y1019D01*
X491Y990D02*
X557Y990D01*
X1388Y990D02*
X1454Y990D01*
X487Y989D02*
X560Y989D01*
X1384Y989D02*
X1457Y989D01*
X485Y988D02*
X563Y988D01*
X1382Y988D02*
X1460Y988D01*
X483Y987D02*
X565Y987D01*
X1379Y987D02*
X1462Y987D01*
X481Y986D02*
X567Y986D01*
X1378Y986D02*
X1464Y986D01*
X479Y985D02*
X569Y985D01*
X1376Y985D02*
X1466Y985D01*
X477Y984D02*
X570Y984D01*
X1374Y984D02*
X1467Y984D01*
X476Y983D02*
X572Y983D01*
X1373Y983D02*
X1469Y983D01*
X475Y982D02*
X573Y982D01*
X1372Y982D02*
X1470Y982D01*
X474Y981D02*
X574Y981D01*
X1371Y981D02*
X1471Y981D01*
X473Y980D02*
X575Y980D01*
X1370Y980D02*
X1472Y980D01*
X472Y979D02*
X576Y979D01*
X1369Y979D02*
X1473Y979D01*
X471Y978D02*
X577Y978D01*
X1368Y978D02*
X1474Y978D01*
X470Y977D02*
X578Y977D01*
X1367Y977D02*
X1475Y977D01*
X469Y976D02*
X578Y976D01*
X1366Y976D02*
X1475Y976D01*
X469Y975D02*
X579Y975D01*
X1366Y975D02*
X1476Y975D01*
X468Y974D02*
X580Y974D01*
X1365Y974D02*
X1477Y974D01*
X467Y973D02*
X580Y973D01*
X1364Y973D02*
X1477Y973D01*
X467Y972D02*
X581Y972D01*
X1364Y972D02*
X1478Y972D01*
X466Y971D02*
X581Y971D01*
X1363Y971D02*
X1478Y971D01*
X466Y970D02*
X582Y970D01*
X1363Y970D02*
X1479Y970D01*
X465Y969D02*
X582Y969D01*
X1362Y969D02*
X1479Y969D01*
X465Y968D02*
X583Y968D01*
X1362Y968D02*
X1480Y968D01*
X465Y967D02*
X583Y967D01*
X1362Y967D02*
X1480Y967D01*
X464Y966D02*
X583Y966D01*
X1361Y966D02*
X1480Y966D01*
X464Y965D02*
X584Y965D01*
X1361Y965D02*
X1481Y965D01*
X464Y964D02*
X584Y964D01*
X1361Y964D02*
X1481Y964D01*
X463Y963D02*
X584Y963D01*
X1360Y963D02*
X1481Y963D01*
X463Y962D02*
X584Y962D01*
X1360Y962D02*
X1481Y962D01*
X463Y961D02*
X585Y961D01*
X1360Y961D02*
X1482Y961D01*
X463Y960D02*
X521Y960D01*
X528Y960D02*
X585Y960D01*
X1360Y960D02*
X1417Y960D01*
X1424Y960D02*
X1482Y960D01*
X463Y959D02*
X520Y959D01*
X529Y959D02*
X585Y959D01*
X1360Y959D02*
X1416Y959D01*
X1426Y959D02*
X1482Y959D01*
X463Y958D02*
X519Y958D01*
X530Y958D02*
X585Y958D01*
X1359Y958D02*
X1415Y958D01*
X1426Y958D02*
X1482Y958D01*
X462Y957D02*
X518Y957D01*
X531Y957D02*
X585Y957D01*
X1359Y957D02*
X1414Y957D01*
X1427Y957D02*
X1482Y957D01*
X462Y956D02*
X518Y956D01*
X531Y956D02*
X585Y956D01*
X1359Y956D02*
X1414Y956D01*
X1427Y956D02*
X1482Y956D01*
X462Y955D02*
X518Y955D01*
X531Y955D02*
X585Y955D01*
X1359Y955D02*
X1414Y955D01*
X1427Y955D02*
X1482Y955D01*
X462Y954D02*
X518Y954D01*
X531Y954D02*
X585Y954D01*
X1359Y954D02*
X1414Y954D01*
X1427Y954D02*
X1482Y954D01*
X462Y953D02*
X518Y953D01*
X531Y953D02*
X585Y953D01*
X1359Y953D02*
X1414Y953D01*
X1427Y953D02*
X1482Y953D01*
X463Y952D02*
X519Y952D01*
X530Y952D02*
X585Y952D01*
X1359Y952D02*
X1415Y952D01*
X1426Y952D02*
X1482Y952D01*
X463Y951D02*
X520Y951D01*
X530Y951D02*
X585Y951D01*
X1359Y951D02*
X1416Y951D01*
X1426Y951D02*
X1482Y951D01*
X463Y950D02*
X521Y950D01*
X528Y950D02*
X585Y950D01*
X1359Y950D02*
X1417Y950D01*
X1425Y950D02*
X1482Y950D01*
X463Y949D02*
X523Y949D01*
X526Y949D02*
X585Y949D01*
X1359Y949D02*
X1419Y949D01*
X1422Y949D02*
X1482Y949D01*
X463Y948D02*
X584Y948D01*
X1359Y948D02*
X1481Y948D01*
X463Y947D02*
X584Y947D01*
X1359Y947D02*
X1481Y947D01*
X464Y946D02*
X584Y946D01*
X1359Y946D02*
X1481Y946D01*
X464Y945D02*
X584Y945D01*
X1360Y945D02*
X1481Y945D01*
X464Y944D02*
X583Y944D01*
X1361Y944D02*
X1480Y944D01*
X465Y943D02*
X583Y943D01*
X1362Y943D02*
X1480Y943D01*
X465Y942D02*
X583Y942D01*
X1362Y942D02*
X1480Y942D01*
X465Y941D02*
X582Y941D01*
X1362Y941D02*
X1479Y941D01*
X466Y940D02*
X582Y940D01*
X1363Y940D02*
X1479Y940D01*
X466Y939D02*
X581Y939D01*
X1363Y939D02*
X1478Y939D01*
X467Y938D02*
X581Y938D01*
X1364Y938D02*
X1478Y938D01*
X467Y937D02*
X580Y937D01*
X1364Y937D02*
X1477Y937D01*
X468Y936D02*
X580Y936D01*
X1365Y936D02*
X1477Y936D01*
X468Y935D02*
X579Y935D01*
X1365Y935D02*
X1476Y935D01*
X469Y934D02*
X578Y934D01*
X1366Y934D02*
X1475Y934D01*
X470Y933D02*
X578Y933D01*
X1367Y933D02*
X1475Y933D01*
X471Y932D02*
X577Y932D01*
X1368Y932D02*
X1474Y932D01*
X471Y931D02*
X576Y931D01*
X1368Y931D02*
X1473Y931D01*
X472Y930D02*
X575Y930D01*
X1369Y930D02*
X1472Y930D01*
X473Y929D02*
X574Y929D01*
X1370Y929D02*
X1471Y929D01*
X475Y928D02*
X573Y928D01*
X1371Y928D02*
X1470Y928D01*
X476Y927D02*
X572Y927D01*
X1373Y927D02*
X1469Y927D01*
X477Y926D02*
X571Y926D01*
X1374Y926D02*
X1467Y926D01*
X479Y925D02*
X569Y925D01*
X1375Y925D02*
X1466Y925D01*
X480Y924D02*
X567Y924D01*
X1377Y924D02*
X1464Y924D01*
X482Y923D02*
X565Y923D01*
X1379Y923D02*
X1462Y923D01*
X484Y922D02*
X563Y922D01*
X1381Y922D02*
X1460Y922D01*
X487Y921D02*
X561Y921D01*
X1384Y921D02*
X1458Y921D01*
X490Y920D02*
X557Y920D01*
X1387Y920D02*
X1454Y920D01*
X497Y919D02*
X551Y919D01*
X1394Y919D02*
X1448Y919D01*
X491Y890D02*
X557Y890D01*
X1388Y890D02*
X1454Y890D01*
X487Y889D02*
X560Y889D01*
X1384Y889D02*
X1457Y889D01*
X485Y888D02*
X563Y888D01*
X1382Y888D02*
X1460Y888D01*
X483Y887D02*
X565Y887D01*
X1379Y887D02*
X1462Y887D01*
X481Y886D02*
X567Y886D01*
X1378Y886D02*
X1464Y886D01*
X479Y885D02*
X569Y885D01*
X1376Y885D02*
X1466Y885D01*
X477Y884D02*
X570Y884D01*
X1374Y884D02*
X1467Y884D01*
X476Y883D02*
X572Y883D01*
X1373Y883D02*
X1469Y883D01*
X475Y882D02*
X573Y882D01*
X1372Y882D02*
X1470Y882D01*
X474Y881D02*
X574Y881D01*
X1371Y881D02*
X1471Y881D01*
X473Y880D02*
X575Y880D01*
X1370Y880D02*
X1472Y880D01*
X472Y879D02*
X576Y879D01*
X1369Y879D02*
X1473Y879D01*
X471Y878D02*
X577Y878D01*
X1368Y878D02*
X1474Y878D01*
X470Y877D02*
X578Y877D01*
X1367Y877D02*
X1475Y877D01*
X469Y876D02*
X578Y876D01*
X1366Y876D02*
X1475Y876D01*
X469Y875D02*
X579Y875D01*
X1366Y875D02*
X1476Y875D01*
X468Y874D02*
X580Y874D01*
X1365Y874D02*
X1477Y874D01*
X467Y873D02*
X580Y873D01*
X1364Y873D02*
X1477Y873D01*
X467Y872D02*
X581Y872D01*
X1364Y872D02*
X1478Y872D01*
X466Y871D02*
X581Y871D01*
X1363Y871D02*
X1478Y871D01*
X466Y870D02*
X582Y870D01*
X1363Y870D02*
X1479Y870D01*
X465Y869D02*
X582Y869D01*
X1362Y869D02*
X1479Y869D01*
X465Y868D02*
X583Y868D01*
X1362Y868D02*
X1480Y868D01*
X465Y867D02*
X583Y867D01*
X1362Y867D02*
X1480Y867D01*
X464Y866D02*
X583Y866D01*
X1361Y866D02*
X1480Y866D01*
X464Y865D02*
X584Y865D01*
X1361Y865D02*
X1481Y865D01*
X464Y864D02*
X584Y864D01*
X1361Y864D02*
X1481Y864D01*
X463Y863D02*
X584Y863D01*
X1360Y863D02*
X1481Y863D01*
X463Y862D02*
X584Y862D01*
X1360Y862D02*
X1481Y862D01*
X463Y861D02*
X585Y861D01*
X1360Y861D02*
X1482Y861D01*
X463Y860D02*
X521Y860D01*
X528Y860D02*
X585Y860D01*
X1360Y860D02*
X1417Y860D01*
X1425Y860D02*
X1482Y860D01*
X463Y859D02*
X520Y859D01*
X529Y859D02*
X585Y859D01*
X1360Y859D02*
X1416Y859D01*
X1426Y859D02*
X1482Y859D01*
X463Y858D02*
X519Y858D01*
X530Y858D02*
X585Y858D01*
X1359Y858D02*
X1415Y858D01*
X1427Y858D02*
X1482Y858D01*
X462Y857D02*
X518Y857D01*
X531Y857D02*
X585Y857D01*
X1359Y857D02*
X1414Y857D01*
X1427Y857D02*
X1482Y857D01*
X462Y856D02*
X518Y856D01*
X531Y856D02*
X585Y856D01*
X1359Y856D02*
X1414Y856D01*
X1427Y856D02*
X1482Y856D01*
X462Y855D02*
X518Y855D01*
X531Y855D02*
X585Y855D01*
X1359Y855D02*
X1414Y855D01*
X1427Y855D02*
X1482Y855D01*
X462Y854D02*
X518Y854D01*
X531Y854D02*
X585Y854D01*
X1359Y854D02*
X1414Y854D01*
X1427Y854D02*
X1482Y854D01*
X462Y853D02*
X518Y853D01*
X531Y853D02*
X585Y853D01*
X1359Y853D02*
X1414Y853D01*
X1427Y853D02*
X1482Y853D01*
X463Y852D02*
X519Y852D01*
X530Y852D02*
X585Y852D01*
X1359Y852D02*
X1415Y852D01*
X1427Y852D02*
X1482Y852D01*
X463Y851D02*
X520Y851D01*
X530Y851D02*
X585Y851D01*
X1359Y851D02*
X1415Y851D01*
X1426Y851D02*
X1482Y851D01*
X463Y850D02*
X521Y850D01*
X528Y850D02*
X585Y850D01*
X1359Y850D02*
X1417Y850D01*
X1425Y850D02*
X1482Y850D01*
X463Y849D02*
X523Y849D01*
X526Y849D02*
X585Y849D01*
X1359Y849D02*
X1420Y849D01*
X1422Y849D02*
X1482Y849D01*
X463Y848D02*
X584Y848D01*
X1359Y848D02*
X1481Y848D01*
X463Y847D02*
X584Y847D01*
X1359Y847D02*
X1481Y847D01*
X464Y846D02*
X584Y846D01*
X1359Y846D02*
X1481Y846D01*
X464Y845D02*
X584Y845D01*
X1360Y845D02*
X1481Y845D01*
X464Y844D02*
X583Y844D01*
X1361Y844D02*
X1480Y844D01*
X465Y843D02*
X583Y843D01*
X1362Y843D02*
X1480Y843D01*
X465Y842D02*
X583Y842D01*
X1362Y842D02*
X1480Y842D01*
X465Y841D02*
X582Y841D01*
X1362Y841D02*
X1479Y841D01*
X466Y840D02*
X582Y840D01*
X1363Y840D02*
X1479Y840D01*
X466Y839D02*
X581Y839D01*
X1363Y839D02*
X1478Y839D01*
X467Y838D02*
X581Y838D01*
X1364Y838D02*
X1478Y838D01*
X467Y837D02*
X580Y837D01*
X1364Y837D02*
X1477Y837D01*
X468Y836D02*
X580Y836D01*
X1365Y836D02*
X1477Y836D01*
X468Y835D02*
X579Y835D01*
X1365Y835D02*
X1476Y835D01*
X469Y834D02*
X578Y834D01*
X1366Y834D02*
X1475Y834D01*
X470Y833D02*
X578Y833D01*
X1367Y833D02*
X1475Y833D01*
X471Y832D02*
X577Y832D01*
X1368Y832D02*
X1474Y832D01*
X471Y831D02*
X576Y831D01*
X1368Y831D02*
X1473Y831D01*
X472Y830D02*
X575Y830D01*
X1369Y830D02*
X1472Y830D01*
X473Y829D02*
X574Y829D01*
X1370Y829D02*
X1471Y829D01*
X475Y828D02*
X573Y828D01*
X1371Y828D02*
X1470Y828D01*
X476Y827D02*
X572Y827D01*
X1373Y827D02*
X1469Y827D01*
X477Y826D02*
X571Y826D01*
X1374Y826D02*
X1467Y826D01*
X479Y825D02*
X569Y825D01*
X1375Y825D02*
X1466Y825D01*
X480Y824D02*
X567Y824D01*
X1377Y824D02*
X1464Y824D01*
X482Y823D02*
X565Y823D01*
X1379Y823D02*
X1462Y823D01*
X484Y822D02*
X563Y822D01*
X1381Y822D02*
X1460Y822D01*
X487Y821D02*
X561Y821D01*
X1384Y821D02*
X1458Y821D01*
X490Y820D02*
X557Y820D01*
X1387Y820D02*
X1454Y820D01*
X497Y819D02*
X551Y819D01*
X1394Y819D02*
X1448Y819D01*
X491Y790D02*
X557Y790D01*
X1388Y790D02*
X1454Y790D01*
X487Y789D02*
X560Y789D01*
X1384Y789D02*
X1457Y789D01*
X485Y788D02*
X563Y788D01*
X1382Y788D02*
X1460Y788D01*
X482Y787D02*
X565Y787D01*
X1379Y787D02*
X1462Y787D01*
X481Y786D02*
X567Y786D01*
X1377Y786D02*
X1464Y786D01*
X479Y785D02*
X569Y785D01*
X1376Y785D02*
X1466Y785D01*
X477Y784D02*
X570Y784D01*
X1374Y784D02*
X1467Y784D01*
X476Y783D02*
X572Y783D01*
X1373Y783D02*
X1469Y783D01*
X475Y782D02*
X573Y782D01*
X1372Y782D02*
X1470Y782D01*
X474Y781D02*
X574Y781D01*
X1371Y781D02*
X1471Y781D01*
X473Y780D02*
X575Y780D01*
X1370Y780D02*
X1472Y780D01*
X472Y779D02*
X576Y779D01*
X1369Y779D02*
X1473Y779D01*
X471Y778D02*
X577Y778D01*
X1368Y778D02*
X1474Y778D01*
X470Y777D02*
X578Y777D01*
X1367Y777D02*
X1475Y777D01*
X469Y776D02*
X578Y776D01*
X1366Y776D02*
X1475Y776D01*
X469Y775D02*
X579Y775D01*
X1366Y775D02*
X1476Y775D01*
X468Y774D02*
X580Y774D01*
X1365Y774D02*
X1477Y774D01*
X467Y773D02*
X580Y773D01*
X1364Y773D02*
X1477Y773D01*
X467Y772D02*
X581Y772D01*
X1364Y772D02*
X1478Y772D01*
X466Y771D02*
X581Y771D01*
X1363Y771D02*
X1478Y771D01*
X466Y770D02*
X582Y770D01*
X1363Y770D02*
X1479Y770D01*
X465Y769D02*
X582Y769D01*
X1362Y769D02*
X1479Y769D01*
X465Y768D02*
X583Y768D01*
X1362Y768D02*
X1480Y768D01*
X465Y767D02*
X583Y767D01*
X1362Y767D02*
X1480Y767D01*
X464Y766D02*
X583Y766D01*
X1361Y766D02*
X1480Y766D01*
X464Y765D02*
X584Y765D01*
X1361Y765D02*
X1481Y765D01*
X464Y764D02*
X584Y764D01*
X1361Y764D02*
X1481Y764D01*
X463Y763D02*
X584Y763D01*
X1360Y763D02*
X1481Y763D01*
X463Y762D02*
X584Y762D01*
X1360Y762D02*
X1481Y762D01*
X463Y761D02*
X585Y761D01*
X1360Y761D02*
X1482Y761D01*
X463Y760D02*
X521Y760D01*
X528Y760D02*
X585Y760D01*
X1360Y760D02*
X1417Y760D01*
X1424Y760D02*
X1482Y760D01*
X463Y759D02*
X520Y759D01*
X530Y759D02*
X585Y759D01*
X1360Y759D02*
X1416Y759D01*
X1426Y759D02*
X1482Y759D01*
X462Y758D02*
X519Y758D01*
X530Y758D02*
X585Y758D01*
X1359Y758D02*
X1415Y758D01*
X1426Y758D02*
X1482Y758D01*
X462Y757D02*
X518Y757D01*
X531Y757D02*
X585Y757D01*
X1359Y757D02*
X1415Y757D01*
X1427Y757D02*
X1482Y757D01*
X462Y756D02*
X518Y756D01*
X531Y756D02*
X585Y756D01*
X1359Y756D02*
X1414Y756D01*
X1427Y756D02*
X1482Y756D01*
X462Y755D02*
X518Y755D01*
X531Y755D02*
X585Y755D01*
X1359Y755D02*
X1414Y755D01*
X1427Y755D02*
X1482Y755D01*
X462Y754D02*
X518Y754D01*
X531Y754D02*
X585Y754D01*
X1359Y754D02*
X1414Y754D01*
X1427Y754D02*
X1482Y754D01*
X462Y753D02*
X518Y753D01*
X531Y753D02*
X585Y753D01*
X1359Y753D02*
X1414Y753D01*
X1427Y753D02*
X1482Y753D01*
X462Y752D02*
X519Y752D01*
X530Y752D02*
X585Y752D01*
X1359Y752D02*
X1415Y752D01*
X1426Y752D02*
X1482Y752D01*
X463Y751D02*
X519Y751D01*
X530Y751D02*
X585Y751D01*
X1359Y751D02*
X1416Y751D01*
X1426Y751D02*
X1482Y751D01*
X463Y750D02*
X521Y750D01*
X528Y750D02*
X585Y750D01*
X1359Y750D02*
X1417Y750D01*
X1425Y750D02*
X1482Y750D01*
X463Y749D02*
X585Y749D01*
X1359Y749D02*
X1420Y749D01*
X1422Y749D02*
X1482Y749D01*
X463Y748D02*
X584Y748D01*
X1359Y748D02*
X1481Y748D01*
X463Y747D02*
X584Y747D01*
X1359Y747D02*
X1481Y747D01*
X464Y746D02*
X584Y746D01*
X1359Y746D02*
X1481Y746D01*
X464Y745D02*
X584Y745D01*
X1360Y745D02*
X1481Y745D01*
X464Y744D02*
X583Y744D01*
X1361Y744D02*
X1480Y744D01*
X465Y743D02*
X583Y743D01*
X1362Y743D02*
X1480Y743D01*
X465Y742D02*
X583Y742D01*
X1362Y742D02*
X1480Y742D01*
X465Y741D02*
X582Y741D01*
X1362Y741D02*
X1479Y741D01*
X466Y740D02*
X582Y740D01*
X1363Y740D02*
X1479Y740D01*
X466Y739D02*
X581Y739D01*
X1363Y739D02*
X1478Y739D01*
X467Y738D02*
X581Y738D01*
X1364Y738D02*
X1478Y738D01*
X467Y737D02*
X580Y737D01*
X1364Y737D02*
X1477Y737D01*
X468Y736D02*
X580Y736D01*
X1365Y736D02*
X1477Y736D01*
X468Y735D02*
X579Y735D01*
X1365Y735D02*
X1476Y735D01*
X469Y734D02*
X578Y734D01*
X1366Y734D02*
X1475Y734D01*
X470Y733D02*
X578Y733D01*
X1367Y733D02*
X1475Y733D01*
X471Y732D02*
X577Y732D01*
X1368Y732D02*
X1474Y732D01*
X471Y731D02*
X576Y731D01*
X1368Y731D02*
X1473Y731D01*
X472Y730D02*
X575Y730D01*
X1369Y730D02*
X1472Y730D01*
X473Y729D02*
X574Y729D01*
X1370Y729D02*
X1471Y729D01*
X474Y728D02*
X573Y728D01*
X1371Y728D02*
X1470Y728D01*
X476Y727D02*
X572Y727D01*
X1373Y727D02*
X1469Y727D01*
X477Y726D02*
X571Y726D01*
X1374Y726D02*
X1467Y726D01*
X478Y725D02*
X569Y725D01*
X1375Y725D02*
X1466Y725D01*
X480Y724D02*
X567Y724D01*
X1377Y724D02*
X1464Y724D01*
X482Y723D02*
X565Y723D01*
X1379Y723D02*
X1462Y723D01*
X484Y722D02*
X563Y722D01*
X1381Y722D02*
X1460Y722D01*
X487Y721D02*
X561Y721D01*
X1384Y721D02*
X1458Y721D01*
X490Y720D02*
X557Y720D01*
X1387Y720D02*
X1454Y720D01*
X497Y719D02*
X551Y719D01*
X1394Y719D02*
X1448Y719D01*
X491Y690D02*
X557Y690D01*
X1388Y690D02*
X1454Y690D01*
X487Y689D02*
X560Y689D01*
X1384Y689D02*
X1457Y689D01*
X485Y688D02*
X563Y688D01*
X1382Y688D02*
X1460Y688D01*
X483Y687D02*
X565Y687D01*
X1379Y687D02*
X1462Y687D01*
X481Y686D02*
X567Y686D01*
X1377Y686D02*
X1464Y686D01*
X479Y685D02*
X569Y685D01*
X1376Y685D02*
X1466Y685D01*
X477Y684D02*
X570Y684D01*
X1374Y684D02*
X1467Y684D01*
X476Y683D02*
X572Y683D01*
X1373Y683D02*
X1469Y683D01*
X475Y682D02*
X573Y682D01*
X1372Y682D02*
X1470Y682D01*
X474Y681D02*
X574Y681D01*
X1371Y681D02*
X1471Y681D01*
X473Y680D02*
X575Y680D01*
X1370Y680D02*
X1472Y680D01*
X472Y679D02*
X576Y679D01*
X1369Y679D02*
X1473Y679D01*
X471Y678D02*
X577Y678D01*
X1368Y678D02*
X1474Y678D01*
X470Y677D02*
X578Y677D01*
X1367Y677D02*
X1475Y677D01*
X469Y676D02*
X578Y676D01*
X1366Y676D02*
X1475Y676D01*
X469Y675D02*
X579Y675D01*
X1366Y675D02*
X1476Y675D01*
X468Y674D02*
X580Y674D01*
X1365Y674D02*
X1477Y674D01*
X467Y673D02*
X580Y673D01*
X1364Y673D02*
X1477Y673D01*
X467Y672D02*
X581Y672D01*
X1364Y672D02*
X1478Y672D01*
X466Y671D02*
X581Y671D01*
X1363Y671D02*
X1478Y671D01*
X466Y670D02*
X582Y670D01*
X1363Y670D02*
X1479Y670D01*
X465Y669D02*
X582Y669D01*
X1362Y669D02*
X1479Y669D01*
X465Y668D02*
X583Y668D01*
X1362Y668D02*
X1480Y668D01*
X465Y667D02*
X583Y667D01*
X1362Y667D02*
X1480Y667D01*
X464Y666D02*
X583Y666D01*
X1361Y666D02*
X1480Y666D01*
X464Y665D02*
X584Y665D01*
X1361Y665D02*
X1481Y665D01*
X464Y664D02*
X584Y664D01*
X1361Y664D02*
X1481Y664D01*
X463Y663D02*
X584Y663D01*
X1360Y663D02*
X1481Y663D01*
X463Y662D02*
X584Y662D01*
X1360Y662D02*
X1481Y662D01*
X463Y661D02*
X585Y661D01*
X1360Y661D02*
X1482Y661D01*
X463Y660D02*
X521Y660D01*
X528Y660D02*
X585Y660D01*
X1360Y660D02*
X1417Y660D01*
X1424Y660D02*
X1482Y660D01*
X463Y659D02*
X520Y659D01*
X529Y659D02*
X585Y659D01*
X1360Y659D02*
X1416Y659D01*
X1426Y659D02*
X1482Y659D01*
X463Y658D02*
X519Y658D01*
X530Y658D02*
X585Y658D01*
X1359Y658D02*
X1415Y658D01*
X1426Y658D02*
X1482Y658D01*
X462Y657D02*
X518Y657D01*
X531Y657D02*
X585Y657D01*
X1359Y657D02*
X1414Y657D01*
X1427Y657D02*
X1482Y657D01*
X462Y656D02*
X518Y656D01*
X531Y656D02*
X585Y656D01*
X1359Y656D02*
X1414Y656D01*
X1427Y656D02*
X1482Y656D01*
X462Y655D02*
X518Y655D01*
X531Y655D02*
X585Y655D01*
X1359Y655D02*
X1414Y655D01*
X1427Y655D02*
X1482Y655D01*
X462Y654D02*
X518Y654D01*
X531Y654D02*
X585Y654D01*
X1359Y654D02*
X1414Y654D01*
X1427Y654D02*
X1482Y654D01*
X462Y653D02*
X518Y653D01*
X531Y653D02*
X585Y653D01*
X1359Y653D02*
X1414Y653D01*
X1427Y653D02*
X1482Y653D01*
X463Y652D02*
X519Y652D01*
X530Y652D02*
X585Y652D01*
X1359Y652D02*
X1415Y652D01*
X1426Y652D02*
X1482Y652D01*
X463Y651D02*
X520Y651D01*
X530Y651D02*
X585Y651D01*
X1359Y651D02*
X1416Y651D01*
X1426Y651D02*
X1482Y651D01*
X463Y650D02*
X521Y650D01*
X528Y650D02*
X585Y650D01*
X1359Y650D02*
X1417Y650D01*
X1425Y650D02*
X1482Y650D01*
X463Y649D02*
X523Y649D01*
X526Y649D02*
X585Y649D01*
X1359Y649D02*
X1419Y649D01*
X1422Y649D02*
X1482Y649D01*
X463Y648D02*
X584Y648D01*
X1359Y648D02*
X1481Y648D01*
X463Y647D02*
X584Y647D01*
X1359Y647D02*
X1481Y647D01*
X464Y646D02*
X584Y646D01*
X1359Y646D02*
X1481Y646D01*
X464Y645D02*
X584Y645D01*
X1360Y645D02*
X1481Y645D01*
X464Y644D02*
X583Y644D01*
X1361Y644D02*
X1480Y644D01*
X465Y643D02*
X583Y643D01*
X1362Y643D02*
X1480Y643D01*
X465Y642D02*
X583Y642D01*
X1362Y642D02*
X1480Y642D01*
X465Y641D02*
X582Y641D01*
X1362Y641D02*
X1479Y641D01*
X466Y640D02*
X582Y640D01*
X1363Y640D02*
X1479Y640D01*
X466Y639D02*
X581Y639D01*
X1363Y639D02*
X1478Y639D01*
X467Y638D02*
X581Y638D01*
X1364Y638D02*
X1478Y638D01*
X467Y637D02*
X580Y637D01*
X1364Y637D02*
X1477Y637D01*
X468Y636D02*
X580Y636D01*
X1365Y636D02*
X1477Y636D01*
X468Y635D02*
X579Y635D01*
X1365Y635D02*
X1476Y635D01*
X469Y634D02*
X578Y634D01*
X1366Y634D02*
X1475Y634D01*
X470Y633D02*
X578Y633D01*
X1367Y633D02*
X1475Y633D01*
X471Y632D02*
X577Y632D01*
X1368Y632D02*
X1474Y632D01*
X472Y631D02*
X576Y631D01*
X1368Y631D02*
X1473Y631D01*
X472Y630D02*
X575Y630D01*
X1369Y630D02*
X1472Y630D01*
X473Y629D02*
X574Y629D01*
X1370Y629D02*
X1471Y629D01*
X475Y628D02*
X573Y628D01*
X1371Y628D02*
X1470Y628D01*
X476Y627D02*
X572Y627D01*
X1373Y627D02*
X1469Y627D01*
X477Y626D02*
X571Y626D01*
X1374Y626D02*
X1467Y626D01*
X479Y625D02*
X569Y625D01*
X1375Y625D02*
X1466Y625D01*
X480Y624D02*
X567Y624D01*
X1377Y624D02*
X1464Y624D01*
X482Y623D02*
X565Y623D01*
X1379Y623D02*
X1462Y623D01*
X484Y622D02*
X563Y622D01*
X1381Y622D02*
X1460Y622D01*
X487Y621D02*
X561Y621D01*
X1384Y621D02*
X1458Y621D01*
X490Y620D02*
X557Y620D01*
X1387Y620D02*
X1454Y620D01*
X497Y619D02*
X551Y619D01*
X1394Y619D02*
X1447Y619D01*
X491Y590D02*
X557Y590D01*
X1388Y590D02*
X1454Y590D01*
X487Y589D02*
X560Y589D01*
X1384Y589D02*
X1457Y589D01*
X485Y588D02*
X563Y588D01*
X1382Y588D02*
X1460Y588D01*
X483Y587D02*
X565Y587D01*
X1379Y587D02*
X1462Y587D01*
X481Y586D02*
X567Y586D01*
X1377Y586D02*
X1464Y586D01*
X479Y585D02*
X569Y585D01*
X1376Y585D02*
X1466Y585D01*
X477Y584D02*
X570Y584D01*
X1374Y584D02*
X1467Y584D01*
X476Y583D02*
X572Y583D01*
X1373Y583D02*
X1469Y583D01*
X475Y582D02*
X573Y582D01*
X1372Y582D02*
X1470Y582D01*
X474Y581D02*
X574Y581D01*
X1371Y581D02*
X1471Y581D01*
X473Y580D02*
X575Y580D01*
X1370Y580D02*
X1472Y580D01*
X472Y579D02*
X576Y579D01*
X1369Y579D02*
X1473Y579D01*
X471Y578D02*
X577Y578D01*
X1368Y578D02*
X1474Y578D01*
X470Y577D02*
X578Y577D01*
X1367Y577D02*
X1475Y577D01*
X469Y576D02*
X578Y576D01*
X1366Y576D02*
X1475Y576D01*
X469Y575D02*
X579Y575D01*
X1366Y575D02*
X1476Y575D01*
X468Y574D02*
X580Y574D01*
X1365Y574D02*
X1477Y574D01*
X467Y573D02*
X580Y573D01*
X1364Y573D02*
X1477Y573D01*
X467Y572D02*
X581Y572D01*
X1364Y572D02*
X1478Y572D01*
X466Y571D02*
X581Y571D01*
X1363Y571D02*
X1478Y571D01*
X466Y570D02*
X582Y570D01*
X1363Y570D02*
X1479Y570D01*
X465Y569D02*
X582Y569D01*
X1362Y569D02*
X1479Y569D01*
X465Y568D02*
X583Y568D01*
X1362Y568D02*
X1480Y568D01*
X465Y567D02*
X583Y567D01*
X1362Y567D02*
X1480Y567D01*
X464Y566D02*
X583Y566D01*
X1361Y566D02*
X1480Y566D01*
X464Y565D02*
X584Y565D01*
X1361Y565D02*
X1481Y565D01*
X464Y564D02*
X584Y564D01*
X1361Y564D02*
X1481Y564D01*
X463Y563D02*
X584Y563D01*
X1360Y563D02*
X1481Y563D01*
X463Y562D02*
X584Y562D01*
X1360Y562D02*
X1481Y562D01*
X463Y561D02*
X585Y561D01*
X1360Y561D02*
X1482Y561D01*
X463Y560D02*
X521Y560D01*
X528Y560D02*
X585Y560D01*
X1360Y560D02*
X1417Y560D01*
X1424Y560D02*
X1482Y560D01*
X463Y559D02*
X520Y559D01*
X529Y559D02*
X585Y559D01*
X1360Y559D02*
X1416Y559D01*
X1426Y559D02*
X1482Y559D01*
X463Y558D02*
X519Y558D01*
X530Y558D02*
X585Y558D01*
X1359Y558D02*
X1415Y558D01*
X1426Y558D02*
X1482Y558D01*
X462Y557D02*
X518Y557D01*
X531Y557D02*
X585Y557D01*
X1359Y557D02*
X1414Y557D01*
X1427Y557D02*
X1482Y557D01*
X462Y556D02*
X518Y556D01*
X531Y556D02*
X585Y556D01*
X1359Y556D02*
X1414Y556D01*
X1427Y556D02*
X1482Y556D01*
X462Y555D02*
X518Y555D01*
X531Y555D02*
X585Y555D01*
X1359Y555D02*
X1414Y555D01*
X1427Y555D02*
X1482Y555D01*
X462Y554D02*
X518Y554D01*
X531Y554D02*
X585Y554D01*
X1359Y554D02*
X1414Y554D01*
X1427Y554D02*
X1482Y554D01*
X462Y553D02*
X518Y553D01*
X531Y553D02*
X585Y553D01*
X1359Y553D02*
X1414Y553D01*
X1427Y553D02*
X1482Y553D01*
X463Y552D02*
X519Y552D01*
X530Y552D02*
X585Y552D01*
X1359Y552D02*
X1415Y552D01*
X1426Y552D02*
X1482Y552D01*
X463Y551D02*
X520Y551D01*
X530Y551D02*
X585Y551D01*
X1359Y551D02*
X1416Y551D01*
X1426Y551D02*
X1482Y551D01*
X463Y550D02*
X521Y550D01*
X528Y550D02*
X585Y550D01*
X1359Y550D02*
X1417Y550D01*
X1425Y550D02*
X1482Y550D01*
X463Y549D02*
X523Y549D01*
X526Y549D02*
X585Y549D01*
X1359Y549D02*
X1419Y549D01*
X1422Y549D02*
X1482Y549D01*
X463Y548D02*
X584Y548D01*
X1359Y548D02*
X1481Y548D01*
X463Y547D02*
X584Y547D01*
X1359Y547D02*
X1481Y547D01*
X464Y546D02*
X584Y546D01*
X1359Y546D02*
X1481Y546D01*
X464Y545D02*
X584Y545D01*
X1360Y545D02*
X1481Y545D01*
X464Y544D02*
X583Y544D01*
X1361Y544D02*
X1480Y544D01*
X465Y543D02*
X583Y543D01*
X1362Y543D02*
X1480Y543D01*
X465Y542D02*
X583Y542D01*
X1362Y542D02*
X1480Y542D01*
X465Y541D02*
X582Y541D01*
X1362Y541D02*
X1479Y541D01*
X466Y540D02*
X582Y540D01*
X1363Y540D02*
X1479Y540D01*
X466Y539D02*
X581Y539D01*
X1363Y539D02*
X1478Y539D01*
X467Y538D02*
X581Y538D01*
X1364Y538D02*
X1478Y538D01*
X467Y537D02*
X580Y537D01*
X1364Y537D02*
X1477Y537D01*
X468Y536D02*
X580Y536D01*
X1365Y536D02*
X1477Y536D01*
X468Y535D02*
X579Y535D01*
X1365Y535D02*
X1476Y535D01*
X469Y534D02*
X578Y534D01*
X1366Y534D02*
X1475Y534D01*
X470Y533D02*
X578Y533D01*
X1367Y533D02*
X1475Y533D01*
X471Y532D02*
X577Y532D01*
X1368Y532D02*
X1474Y532D01*
X472Y531D02*
X576Y531D01*
X1368Y531D02*
X1473Y531D01*
X472Y530D02*
X575Y530D01*
X1369Y530D02*
X1472Y530D01*
X473Y529D02*
X574Y529D01*
X1370Y529D02*
X1471Y529D01*
X475Y528D02*
X573Y528D01*
X1371Y528D02*
X1470Y528D01*
X476Y527D02*
X572Y527D01*
X1373Y527D02*
X1469Y527D01*
X477Y526D02*
X571Y526D01*
X1374Y526D02*
X1467Y526D01*
X479Y525D02*
X569Y525D01*
X1375Y525D02*
X1466Y525D01*
X480Y524D02*
X567Y524D01*
X1377Y524D02*
X1464Y524D01*
X482Y523D02*
X565Y523D01*
X1379Y523D02*
X1462Y523D01*
X484Y522D02*
X563Y522D01*
X1381Y522D02*
X1460Y522D01*
X487Y521D02*
X561Y521D01*
X1384Y521D02*
X1458Y521D01*
X490Y520D02*
X557Y520D01*
X1387Y520D02*
X1454Y520D01*
X497Y519D02*
X551Y519D01*
X1394Y519D02*
X1448Y519D01*
X491Y490D02*
X557Y490D01*
X1388Y490D02*
X1454Y490D01*
X487Y489D02*
X560Y489D01*
X1384Y489D02*
X1457Y489D01*
X485Y488D02*
X563Y488D01*
X1382Y488D02*
X1460Y488D01*
X483Y487D02*
X565Y487D01*
X1359Y487D02*
X1359Y487D01*
X1379Y487D02*
X1462Y487D01*
X481Y486D02*
X567Y486D01*
X1359Y486D02*
X1360Y486D01*
X1378Y486D02*
X1464Y486D01*
X479Y485D02*
X569Y485D01*
X1359Y485D02*
X1360Y485D01*
X1376Y485D02*
X1466Y485D01*
X477Y484D02*
X570Y484D01*
X1359Y484D02*
X1361Y484D01*
X1374Y484D02*
X1467Y484D01*
X476Y483D02*
X572Y483D01*
X1359Y483D02*
X1362Y483D01*
X1373Y483D02*
X1469Y483D01*
X475Y482D02*
X573Y482D01*
X1359Y482D02*
X1362Y482D01*
X1372Y482D02*
X1470Y482D01*
X474Y481D02*
X574Y481D01*
X1359Y481D02*
X1363Y481D01*
X1371Y481D02*
X1471Y481D01*
X473Y480D02*
X575Y480D01*
X1359Y480D02*
X1364Y480D01*
X1370Y480D02*
X1472Y480D01*
X472Y479D02*
X576Y479D01*
X1359Y479D02*
X1364Y479D01*
X1369Y479D02*
X1473Y479D01*
X471Y478D02*
X577Y478D01*
X1359Y478D02*
X1365Y478D01*
X1368Y478D02*
X1474Y478D01*
X470Y477D02*
X578Y477D01*
X1359Y477D02*
X1475Y477D01*
X469Y476D02*
X578Y476D01*
X1359Y476D02*
X1475Y476D01*
X469Y475D02*
X579Y475D01*
X1359Y475D02*
X1476Y475D01*
X468Y474D02*
X580Y474D01*
X1359Y474D02*
X1477Y474D01*
X467Y473D02*
X580Y473D01*
X1359Y473D02*
X1477Y473D01*
X467Y472D02*
X581Y472D01*
X1359Y472D02*
X1478Y472D01*
X466Y471D02*
X581Y471D01*
X1359Y471D02*
X1478Y471D01*
X466Y470D02*
X582Y470D01*
X1359Y470D02*
X1479Y470D01*
X465Y469D02*
X582Y469D01*
X1359Y469D02*
X1479Y469D01*
X465Y468D02*
X583Y468D01*
X1359Y468D02*
X1480Y468D01*
X465Y467D02*
X583Y467D01*
X1359Y467D02*
X1480Y467D01*
X464Y466D02*
X583Y466D01*
X1359Y466D02*
X1480Y466D01*
X464Y465D02*
X584Y465D01*
X1359Y465D02*
X1481Y465D01*
X464Y464D02*
X584Y464D01*
X1359Y464D02*
X1481Y464D01*
X463Y463D02*
X584Y463D01*
X1359Y463D02*
X1481Y463D01*
X463Y462D02*
X584Y462D01*
X1359Y462D02*
X1481Y462D01*
X463Y461D02*
X585Y461D01*
X1359Y461D02*
X1482Y461D01*
X463Y460D02*
X521Y460D01*
X528Y460D02*
X585Y460D01*
X1359Y460D02*
X1417Y460D01*
X1424Y460D02*
X1482Y460D01*
X463Y459D02*
X520Y459D01*
X529Y459D02*
X585Y459D01*
X1359Y459D02*
X1416Y459D01*
X1426Y459D02*
X1482Y459D01*
X463Y458D02*
X519Y458D01*
X530Y458D02*
X585Y458D01*
X1359Y458D02*
X1415Y458D01*
X1426Y458D02*
X1482Y458D01*
X462Y457D02*
X518Y457D01*
X531Y457D02*
X585Y457D01*
X1359Y457D02*
X1414Y457D01*
X1427Y457D02*
X1482Y457D01*
X462Y456D02*
X518Y456D01*
X531Y456D02*
X585Y456D01*
X1359Y456D02*
X1414Y456D01*
X1427Y456D02*
X1482Y456D01*
X462Y455D02*
X518Y455D01*
X531Y455D02*
X585Y455D01*
X1359Y455D02*
X1414Y455D01*
X1427Y455D02*
X1482Y455D01*
X462Y454D02*
X518Y454D01*
X531Y454D02*
X585Y454D01*
X1359Y454D02*
X1414Y454D01*
X1427Y454D02*
X1482Y454D01*
X462Y453D02*
X518Y453D01*
X531Y453D02*
X585Y453D01*
X1359Y453D02*
X1414Y453D01*
X1427Y453D02*
X1482Y453D01*
X463Y452D02*
X519Y452D01*
X530Y452D02*
X585Y452D01*
X1359Y452D02*
X1415Y452D01*
X1426Y452D02*
X1482Y452D01*
X463Y451D02*
X520Y451D01*
X529Y451D02*
X585Y451D01*
X1360Y451D02*
X1416Y451D01*
X1426Y451D02*
X1482Y451D01*
X463Y450D02*
X521Y450D01*
X528Y450D02*
X585Y450D01*
X1360Y450D02*
X1417Y450D01*
X1425Y450D02*
X1482Y450D01*
X463Y449D02*
X523Y449D01*
X526Y449D02*
X585Y449D01*
X1360Y449D02*
X1419Y449D01*
X1422Y449D02*
X1482Y449D01*
X463Y448D02*
X584Y448D01*
X1360Y448D02*
X1481Y448D01*
X463Y447D02*
X584Y447D01*
X1360Y447D02*
X1481Y447D01*
X464Y446D02*
X584Y446D01*
X1361Y446D02*
X1481Y446D01*
X464Y445D02*
X584Y445D01*
X1361Y445D02*
X1481Y445D01*
X464Y444D02*
X583Y444D01*
X1361Y444D02*
X1480Y444D01*
X465Y443D02*
X583Y443D01*
X1362Y443D02*
X1480Y443D01*
X465Y442D02*
X583Y442D01*
X1362Y442D02*
X1480Y442D01*
X465Y441D02*
X582Y441D01*
X1362Y441D02*
X1479Y441D01*
X466Y440D02*
X582Y440D01*
X1363Y440D02*
X1479Y440D01*
X466Y439D02*
X581Y439D01*
X1363Y439D02*
X1478Y439D01*
X467Y438D02*
X581Y438D01*
X1364Y438D02*
X1478Y438D01*
X467Y437D02*
X580Y437D01*
X1364Y437D02*
X1477Y437D01*
X468Y436D02*
X580Y436D01*
X1365Y436D02*
X1477Y436D01*
X468Y435D02*
X579Y435D01*
X1365Y435D02*
X1476Y435D01*
X469Y434D02*
X578Y434D01*
X1366Y434D02*
X1475Y434D01*
X470Y433D02*
X578Y433D01*
X1367Y433D02*
X1475Y433D01*
X471Y432D02*
X577Y432D01*
X1368Y432D02*
X1474Y432D01*
X472Y431D02*
X576Y431D01*
X1368Y431D02*
X1473Y431D01*
X472Y430D02*
X575Y430D01*
X1369Y430D02*
X1472Y430D01*
X473Y429D02*
X574Y429D01*
X1370Y429D02*
X1471Y429D01*
X475Y428D02*
X573Y428D01*
X1371Y428D02*
X1470Y428D01*
X476Y427D02*
X572Y427D01*
X1373Y427D02*
X1469Y427D01*
X477Y426D02*
X571Y426D01*
X1374Y426D02*
X1467Y426D01*
X479Y425D02*
X569Y425D01*
X1376Y425D02*
X1466Y425D01*
X480Y424D02*
X567Y424D01*
X1377Y424D02*
X1464Y424D01*
X482Y423D02*
X565Y423D01*
X1378Y423D02*
X1462Y423D01*
X484Y422D02*
X563Y422D01*
X1381Y422D02*
X1460Y422D01*
X487Y421D02*
X561Y421D01*
X1384Y421D02*
X1458Y421D01*
X490Y420D02*
X557Y420D01*
X1387Y420D02*
X1454Y420D01*
X497Y419D02*
X551Y419D01*
X1394Y419D02*
X1448Y419D01*
X491Y390D02*
X557Y390D01*
X1388Y390D02*
X1454Y390D01*
X487Y389D02*
X560Y389D01*
X1384Y389D02*
X1457Y389D01*
X485Y388D02*
X563Y388D01*
X1382Y388D02*
X1460Y388D01*
X482Y387D02*
X565Y387D01*
X1379Y387D02*
X1462Y387D01*
X480Y386D02*
X567Y386D01*
X1377Y386D02*
X1464Y386D01*
X479Y385D02*
X569Y385D01*
X1376Y385D02*
X1466Y385D01*
X477Y384D02*
X570Y384D01*
X1374Y384D02*
X1467Y384D01*
X476Y383D02*
X572Y383D01*
X1373Y383D02*
X1469Y383D01*
X475Y382D02*
X573Y382D01*
X1372Y382D02*
X1470Y382D01*
X474Y381D02*
X574Y381D01*
X1371Y381D02*
X1471Y381D01*
X473Y380D02*
X575Y380D01*
X1370Y380D02*
X1472Y380D01*
X472Y379D02*
X576Y379D01*
X1369Y379D02*
X1473Y379D01*
X471Y378D02*
X577Y378D01*
X1368Y378D02*
X1474Y378D01*
X470Y377D02*
X578Y377D01*
X1367Y377D02*
X1475Y377D01*
X469Y376D02*
X578Y376D01*
X1366Y376D02*
X1475Y376D01*
X469Y375D02*
X579Y375D01*
X1366Y375D02*
X1476Y375D01*
X468Y374D02*
X580Y374D01*
X1365Y374D02*
X1477Y374D01*
X467Y373D02*
X580Y373D01*
X1364Y373D02*
X1477Y373D01*
X467Y372D02*
X581Y372D01*
X1364Y372D02*
X1478Y372D01*
X466Y371D02*
X581Y371D01*
X1363Y371D02*
X1478Y371D01*
X466Y370D02*
X582Y370D01*
X1363Y370D02*
X1479Y370D01*
X465Y369D02*
X582Y369D01*
X1362Y369D02*
X1479Y369D01*
X465Y368D02*
X583Y368D01*
X1362Y368D02*
X1480Y368D01*
X465Y367D02*
X583Y367D01*
X1362Y367D02*
X1480Y367D01*
X464Y366D02*
X583Y366D01*
X1361Y366D02*
X1480Y366D01*
X463Y365D02*
X584Y365D01*
X1361Y365D02*
X1481Y365D01*
X462Y364D02*
X584Y364D01*
X1361Y364D02*
X1481Y364D01*
X462Y363D02*
X584Y363D01*
X1360Y363D02*
X1481Y363D01*
X462Y362D02*
X584Y362D01*
X1360Y362D02*
X1481Y362D01*
X462Y361D02*
X585Y361D01*
X1360Y361D02*
X1482Y361D01*
X462Y360D02*
X520Y360D01*
X529Y360D02*
X585Y360D01*
X1360Y360D02*
X1417Y360D01*
X1425Y360D02*
X1482Y360D01*
X462Y359D02*
X519Y359D01*
X530Y359D02*
X585Y359D01*
X1360Y359D02*
X1415Y359D01*
X1426Y359D02*
X1482Y359D01*
X462Y358D02*
X519Y358D01*
X531Y358D02*
X585Y358D01*
X1359Y358D02*
X1415Y358D01*
X1427Y358D02*
X1482Y358D01*
X462Y357D02*
X518Y357D01*
X531Y357D02*
X585Y357D01*
X1359Y357D02*
X1414Y357D01*
X1427Y357D02*
X1482Y357D01*
X462Y356D02*
X518Y356D01*
X531Y356D02*
X585Y356D01*
X1359Y356D02*
X1414Y356D01*
X1427Y356D02*
X1482Y356D01*
X462Y355D02*
X518Y355D01*
X531Y355D02*
X585Y355D01*
X1359Y355D02*
X1414Y355D01*
X1428Y355D02*
X1482Y355D01*
X462Y354D02*
X518Y354D01*
X531Y354D02*
X585Y354D01*
X1359Y354D02*
X1414Y354D01*
X1427Y354D02*
X1482Y354D01*
X462Y353D02*
X518Y353D01*
X531Y353D02*
X585Y353D01*
X1359Y353D02*
X1414Y353D01*
X1427Y353D02*
X1482Y353D01*
X462Y352D02*
X519Y352D01*
X531Y352D02*
X585Y352D01*
X1359Y352D02*
X1415Y352D01*
X1427Y352D02*
X1482Y352D01*
X463Y351D02*
X519Y351D01*
X530Y351D02*
X585Y351D01*
X1360Y351D02*
X1415Y351D01*
X1426Y351D02*
X1482Y351D01*
X463Y350D02*
X520Y350D01*
X529Y350D02*
X585Y350D01*
X1360Y350D02*
X1417Y350D01*
X1425Y350D02*
X1482Y350D01*
X463Y349D02*
X523Y349D01*
X526Y349D02*
X585Y349D01*
X1360Y349D02*
X1420Y349D01*
X1422Y349D02*
X1482Y349D01*
X463Y348D02*
X584Y348D01*
X1360Y348D02*
X1481Y348D01*
X463Y347D02*
X584Y347D01*
X1360Y347D02*
X1481Y347D01*
X464Y346D02*
X584Y346D01*
X1361Y346D02*
X1481Y346D01*
X464Y345D02*
X584Y345D01*
X1361Y345D02*
X1481Y345D01*
X464Y344D02*
X583Y344D01*
X1361Y344D02*
X1480Y344D01*
X465Y343D02*
X583Y343D01*
X1362Y343D02*
X1480Y343D01*
X465Y342D02*
X583Y342D01*
X1362Y342D02*
X1480Y342D01*
X465Y341D02*
X582Y341D01*
X1362Y341D02*
X1479Y341D01*
X466Y340D02*
X582Y340D01*
X1363Y340D02*
X1479Y340D01*
X466Y339D02*
X581Y339D01*
X1363Y339D02*
X1478Y339D01*
X467Y338D02*
X581Y338D01*
X1364Y338D02*
X1478Y338D01*
X467Y337D02*
X580Y337D01*
X1364Y337D02*
X1477Y337D01*
X468Y336D02*
X580Y336D01*
X1365Y336D02*
X1477Y336D01*
X468Y335D02*
X579Y335D01*
X1365Y335D02*
X1476Y335D01*
X469Y334D02*
X578Y334D01*
X1366Y334D02*
X1475Y334D01*
X470Y333D02*
X578Y333D01*
X1367Y333D02*
X1475Y333D01*
X471Y332D02*
X577Y332D01*
X1368Y332D02*
X1474Y332D01*
X471Y331D02*
X576Y331D01*
X1368Y331D02*
X1473Y331D01*
X472Y330D02*
X575Y330D01*
X1369Y330D02*
X1472Y330D01*
X473Y329D02*
X574Y329D01*
X1370Y329D02*
X1471Y329D01*
X474Y328D02*
X573Y328D01*
X1371Y328D02*
X1470Y328D01*
X476Y327D02*
X572Y327D01*
X1373Y327D02*
X1469Y327D01*
X477Y326D02*
X571Y326D01*
X1374Y326D02*
X1467Y326D01*
X479Y325D02*
X569Y325D01*
X1376Y325D02*
X1466Y325D01*
X480Y324D02*
X567Y324D01*
X1377Y324D02*
X1464Y324D01*
X482Y323D02*
X565Y323D01*
X1379Y323D02*
X1462Y323D01*
X484Y322D02*
X563Y322D01*
X1381Y322D02*
X1460Y322D01*
X487Y321D02*
X561Y321D01*
X1384Y321D02*
X1458Y321D01*
X490Y320D02*
X557Y320D01*
X1387Y320D02*
X1454Y320D01*
X497Y319D02*
X550Y319D01*
X1394Y319D02*
X1447Y319D01*
X491Y290D02*
X557Y290D01*
X1388Y290D02*
X1454Y290D01*
X487Y289D02*
X560Y289D01*
X1384Y289D02*
X1457Y289D01*
X485Y288D02*
X563Y288D01*
X1382Y288D02*
X1460Y288D01*
X483Y287D02*
X565Y287D01*
X1379Y287D02*
X1462Y287D01*
X481Y286D02*
X567Y286D01*
X1377Y286D02*
X1464Y286D01*
X479Y285D02*
X569Y285D01*
X1376Y285D02*
X1466Y285D01*
X477Y284D02*
X570Y284D01*
X1374Y284D02*
X1467Y284D01*
X476Y283D02*
X572Y283D01*
X1373Y283D02*
X1469Y283D01*
X475Y282D02*
X573Y282D01*
X1372Y282D02*
X1470Y282D01*
X474Y281D02*
X574Y281D01*
X1371Y281D02*
X1471Y281D01*
X473Y280D02*
X575Y280D01*
X1370Y280D02*
X1472Y280D01*
X472Y279D02*
X576Y279D01*
X1369Y279D02*
X1473Y279D01*
X471Y278D02*
X577Y278D01*
X1368Y278D02*
X1474Y278D01*
X470Y277D02*
X578Y277D01*
X1367Y277D02*
X1475Y277D01*
X469Y276D02*
X578Y276D01*
X1366Y276D02*
X1475Y276D01*
X469Y275D02*
X579Y275D01*
X1366Y275D02*
X1476Y275D01*
X468Y274D02*
X580Y274D01*
X1365Y274D02*
X1477Y274D01*
X467Y273D02*
X580Y273D01*
X1364Y273D02*
X1477Y273D01*
X467Y272D02*
X581Y272D01*
X1364Y272D02*
X1478Y272D01*
X466Y271D02*
X581Y271D01*
X1363Y271D02*
X1478Y271D01*
X466Y270D02*
X582Y270D01*
X1363Y270D02*
X1479Y270D01*
X465Y269D02*
X582Y269D01*
X1362Y269D02*
X1479Y269D01*
X465Y268D02*
X583Y268D01*
X1362Y268D02*
X1480Y268D01*
X465Y267D02*
X583Y267D01*
X1362Y267D02*
X1480Y267D01*
X464Y266D02*
X583Y266D01*
X1361Y266D02*
X1480Y266D01*
X464Y265D02*
X584Y265D01*
X1361Y265D02*
X1481Y265D01*
X464Y264D02*
X584Y264D01*
X1361Y264D02*
X1481Y264D01*
X463Y263D02*
X584Y263D01*
X1360Y263D02*
X1481Y263D01*
X463Y262D02*
X584Y262D01*
X1360Y262D02*
X1481Y262D01*
X463Y261D02*
X585Y261D01*
X1360Y261D02*
X1482Y261D01*
X463Y260D02*
X521Y260D01*
X528Y260D02*
X585Y260D01*
X1360Y260D02*
X1417Y260D01*
X1425Y260D02*
X1482Y260D01*
X463Y259D02*
X519Y259D01*
X530Y259D02*
X585Y259D01*
X1360Y259D02*
X1416Y259D01*
X1426Y259D02*
X1482Y259D01*
X463Y258D02*
X519Y258D01*
X530Y258D02*
X585Y258D01*
X1359Y258D02*
X1415Y258D01*
X1427Y258D02*
X1482Y258D01*
X462Y257D02*
X518Y257D01*
X531Y257D02*
X585Y257D01*
X1359Y257D02*
X1414Y257D01*
X1427Y257D02*
X1482Y257D01*
X462Y256D02*
X518Y256D01*
X531Y256D02*
X585Y256D01*
X1359Y256D02*
X1414Y256D01*
X1427Y256D02*
X1482Y256D01*
X462Y255D02*
X518Y255D01*
X531Y255D02*
X585Y255D01*
X1359Y255D02*
X1414Y255D01*
X1427Y255D02*
X1482Y255D01*
X462Y254D02*
X518Y254D01*
X531Y254D02*
X585Y254D01*
X1359Y254D02*
X1414Y254D01*
X1427Y254D02*
X1482Y254D01*
X462Y253D02*
X518Y253D01*
X531Y253D02*
X585Y253D01*
X1359Y253D02*
X1414Y253D01*
X1427Y253D02*
X1482Y253D01*
X463Y252D02*
X519Y252D01*
X530Y252D02*
X585Y252D01*
X1359Y252D02*
X1415Y252D01*
X1427Y252D02*
X1482Y252D01*
X463Y251D02*
X519Y251D01*
X530Y251D02*
X585Y251D01*
X1359Y251D02*
X1416Y251D01*
X1426Y251D02*
X1482Y251D01*
X463Y250D02*
X521Y250D01*
X529Y250D02*
X585Y250D01*
X1359Y250D02*
X1417Y250D01*
X1425Y250D02*
X1482Y250D01*
X463Y249D02*
X585Y249D01*
X1359Y249D02*
X1482Y249D01*
X463Y248D02*
X584Y248D01*
X1359Y248D02*
X1481Y248D01*
X463Y247D02*
X584Y247D01*
X1359Y247D02*
X1481Y247D01*
X464Y246D02*
X584Y246D01*
X1359Y246D02*
X1481Y246D01*
X464Y245D02*
X584Y245D01*
X1360Y245D02*
X1481Y245D01*
X464Y244D02*
X583Y244D01*
X1361Y244D02*
X1480Y244D01*
X465Y243D02*
X583Y243D01*
X1362Y243D02*
X1480Y243D01*
X465Y242D02*
X583Y242D01*
X1362Y242D02*
X1480Y242D01*
X465Y241D02*
X582Y241D01*
X1362Y241D02*
X1479Y241D01*
X466Y240D02*
X582Y240D01*
X1363Y240D02*
X1479Y240D01*
X466Y239D02*
X581Y239D01*
X1363Y239D02*
X1478Y239D01*
X467Y238D02*
X581Y238D01*
X1364Y238D02*
X1478Y238D01*
X467Y237D02*
X580Y237D01*
X1364Y237D02*
X1477Y237D01*
X468Y236D02*
X580Y236D01*
X1365Y236D02*
X1477Y236D01*
X468Y235D02*
X579Y235D01*
X1365Y235D02*
X1476Y235D01*
X469Y234D02*
X578Y234D01*
X1366Y234D02*
X1475Y234D01*
X470Y233D02*
X578Y233D01*
X1367Y233D02*
X1475Y233D01*
X471Y232D02*
X577Y232D01*
X1368Y232D02*
X1474Y232D01*
X472Y231D02*
X576Y231D01*
X1368Y231D02*
X1473Y231D01*
X472Y230D02*
X575Y230D01*
X1369Y230D02*
X1472Y230D01*
X473Y229D02*
X574Y229D01*
X1370Y229D02*
X1471Y229D01*
X475Y228D02*
X573Y228D01*
X1371Y228D02*
X1470Y228D01*
X476Y227D02*
X572Y227D01*
X1373Y227D02*
X1469Y227D01*
X477Y226D02*
X570Y226D01*
X1374Y226D02*
X1467Y226D01*
X479Y225D02*
X569Y225D01*
X1376Y225D02*
X1466Y225D01*
X480Y224D02*
X567Y224D01*
X1377Y224D02*
X1464Y224D01*
X482Y223D02*
X565Y223D01*
X1379Y223D02*
X1462Y223D01*
X484Y222D02*
X563Y222D01*
X1381Y222D02*
X1460Y222D01*
X487Y221D02*
X561Y221D01*
X1384Y221D02*
X1458Y221D01*
X490Y220D02*
X557Y220D01*
X1387Y220D02*
X1454Y220D01*
X497Y219D02*
X550Y219D01*
X1394Y219D02*
X1447Y219D01*
X491Y190D02*
X557Y190D01*
X1388Y190D02*
X1454Y190D01*
X487Y189D02*
X560Y189D01*
X1384Y189D02*
X1457Y189D01*
X485Y188D02*
X563Y188D01*
X1382Y188D02*
X1460Y188D01*
X482Y187D02*
X565Y187D01*
X1379Y187D02*
X1462Y187D01*
X480Y186D02*
X567Y186D01*
X1377Y186D02*
X1464Y186D01*
X479Y185D02*
X569Y185D01*
X1376Y185D02*
X1466Y185D01*
X477Y184D02*
X570Y184D01*
X1374Y184D02*
X1467Y184D01*
X476Y183D02*
X572Y183D01*
X1373Y183D02*
X1469Y183D01*
X475Y182D02*
X573Y182D01*
X1372Y182D02*
X1470Y182D01*
X474Y181D02*
X574Y181D01*
X1371Y181D02*
X1471Y181D01*
X473Y180D02*
X575Y180D01*
X1370Y180D02*
X1472Y180D01*
X472Y179D02*
X576Y179D01*
X1369Y179D02*
X1473Y179D01*
X471Y178D02*
X577Y178D01*
X1368Y178D02*
X1474Y178D01*
X470Y177D02*
X578Y177D01*
X1367Y177D02*
X1475Y177D01*
X469Y176D02*
X578Y176D01*
X1366Y176D02*
X1475Y176D01*
X469Y175D02*
X579Y175D01*
X1366Y175D02*
X1476Y175D01*
X468Y174D02*
X580Y174D01*
X1365Y174D02*
X1477Y174D01*
X467Y173D02*
X580Y173D01*
X1364Y173D02*
X1477Y173D01*
X467Y172D02*
X581Y172D01*
X1364Y172D02*
X1478Y172D01*
X466Y171D02*
X581Y171D01*
X1363Y171D02*
X1478Y171D01*
X466Y170D02*
X582Y170D01*
X1363Y170D02*
X1479Y170D01*
X465Y169D02*
X582Y169D01*
X1362Y169D02*
X1479Y169D01*
X465Y168D02*
X583Y168D01*
X1362Y168D02*
X1480Y168D01*
X465Y167D02*
X583Y167D01*
X1362Y167D02*
X1480Y167D01*
X464Y166D02*
X583Y166D01*
X1361Y166D02*
X1480Y166D01*
X464Y165D02*
X584Y165D01*
X1361Y165D02*
X1481Y165D01*
X462Y164D02*
X584Y164D01*
X1361Y164D02*
X1481Y164D01*
X462Y163D02*
X584Y163D01*
X1360Y163D02*
X1481Y163D01*
X462Y162D02*
X584Y162D01*
X1360Y162D02*
X1481Y162D01*
X462Y161D02*
X585Y161D01*
X1360Y161D02*
X1482Y161D01*
X462Y160D02*
X521Y160D01*
X528Y160D02*
X585Y160D01*
X1360Y160D02*
X1417Y160D01*
X1425Y160D02*
X1482Y160D01*
X462Y159D02*
X519Y159D01*
X530Y159D02*
X585Y159D01*
X1360Y159D02*
X1416Y159D01*
X1426Y159D02*
X1482Y159D01*
X462Y158D02*
X519Y158D01*
X530Y158D02*
X585Y158D01*
X1359Y158D02*
X1415Y158D01*
X1427Y158D02*
X1482Y158D01*
X462Y157D02*
X518Y157D01*
X531Y157D02*
X585Y157D01*
X1359Y157D02*
X1414Y157D01*
X1427Y157D02*
X1482Y157D01*
X462Y156D02*
X518Y156D01*
X531Y156D02*
X585Y156D01*
X1359Y156D02*
X1414Y156D01*
X1427Y156D02*
X1482Y156D01*
X462Y155D02*
X518Y155D01*
X531Y155D02*
X585Y155D01*
X1359Y155D02*
X1414Y155D01*
X1427Y155D02*
X1482Y155D01*
X462Y154D02*
X518Y154D01*
X531Y154D02*
X585Y154D01*
X1359Y154D02*
X1414Y154D01*
X1427Y154D02*
X1482Y154D01*
X462Y153D02*
X518Y153D01*
X531Y153D02*
X585Y153D01*
X1359Y153D02*
X1414Y153D01*
X1427Y153D02*
X1482Y153D01*
X462Y152D02*
X519Y152D01*
X530Y152D02*
X585Y152D01*
X1359Y152D02*
X1415Y152D01*
X1427Y152D02*
X1482Y152D01*
X463Y151D02*
X519Y151D01*
X530Y151D02*
X585Y151D01*
X1359Y151D02*
X1416Y151D01*
X1426Y151D02*
X1482Y151D01*
X463Y150D02*
X521Y150D01*
X529Y150D02*
X585Y150D01*
X1359Y150D02*
X1417Y150D01*
X1425Y150D02*
X1482Y150D01*
X463Y149D02*
X585Y149D01*
X1359Y149D02*
X1482Y149D01*
X463Y148D02*
X584Y148D01*
X1359Y148D02*
X1481Y148D01*
X463Y147D02*
X584Y147D01*
X1359Y147D02*
X1481Y147D01*
X464Y146D02*
X584Y146D01*
X1359Y146D02*
X1481Y146D01*
X464Y145D02*
X584Y145D01*
X1360Y145D02*
X1481Y145D01*
X464Y144D02*
X583Y144D01*
X1361Y144D02*
X1480Y144D01*
X465Y143D02*
X583Y143D01*
X1362Y143D02*
X1480Y143D01*
X465Y142D02*
X583Y142D01*
X1362Y142D02*
X1480Y142D01*
X465Y141D02*
X582Y141D01*
X1362Y141D02*
X1479Y141D01*
X466Y140D02*
X582Y140D01*
X1363Y140D02*
X1479Y140D01*
X466Y139D02*
X581Y139D01*
X1363Y139D02*
X1478Y139D01*
X467Y138D02*
X581Y138D01*
X1364Y138D02*
X1478Y138D01*
X467Y137D02*
X580Y137D01*
X1364Y137D02*
X1477Y137D01*
X468Y136D02*
X580Y136D01*
X1365Y136D02*
X1477Y136D01*
X468Y135D02*
X579Y135D01*
X1365Y135D02*
X1476Y135D01*
X469Y134D02*
X578Y134D01*
X1366Y134D02*
X1475Y134D01*
X470Y133D02*
X578Y133D01*
X1367Y133D02*
X1475Y133D01*
X471Y132D02*
X577Y132D01*
X1368Y132D02*
X1474Y132D01*
X471Y131D02*
X576Y131D01*
X1368Y131D02*
X1473Y131D01*
X472Y130D02*
X575Y130D01*
X1369Y130D02*
X1472Y130D01*
X473Y129D02*
X574Y129D01*
X1370Y129D02*
X1471Y129D01*
X474Y128D02*
X573Y128D01*
X1371Y128D02*
X1470Y128D01*
X476Y127D02*
X572Y127D01*
X1373Y127D02*
X1469Y127D01*
X477Y126D02*
X570Y126D01*
X1374Y126D02*
X1467Y126D01*
X479Y125D02*
X569Y125D01*
X1376Y125D02*
X1466Y125D01*
X480Y124D02*
X567Y124D01*
X1377Y124D02*
X1464Y124D01*
X482Y123D02*
X565Y123D01*
X1379Y123D02*
X1462Y123D01*
X484Y122D02*
X563Y122D01*
X1381Y122D02*
X1460Y122D01*
X487Y121D02*
X561Y121D01*
X1384Y121D02*
X1458Y121D01*
X490Y120D02*
X557Y120D01*
X1387Y120D02*
X1454Y120D01*
X497Y119D02*
X550Y119D01*
X1394Y119D02*
X1447Y119D01*
X491Y90D02*
X557Y90D01*
X1388Y90D02*
X1454Y90D01*
X487Y89D02*
X560Y89D01*
X1384Y89D02*
X1457Y89D01*
X485Y88D02*
X563Y88D01*
X1382Y88D02*
X1460Y88D01*
X482Y87D02*
X565Y87D01*
X1379Y87D02*
X1462Y87D01*
X481Y86D02*
X567Y86D01*
X1377Y86D02*
X1464Y86D01*
X479Y85D02*
X569Y85D01*
X1376Y85D02*
X1466Y85D01*
X477Y84D02*
X570Y84D01*
X1374Y84D02*
X1467Y84D01*
X476Y83D02*
X572Y83D01*
X1373Y83D02*
X1469Y83D01*
X475Y82D02*
X573Y82D01*
X1372Y82D02*
X1470Y82D01*
X474Y81D02*
X574Y81D01*
X1371Y81D02*
X1471Y81D01*
X473Y80D02*
X575Y80D01*
X1370Y80D02*
X1472Y80D01*
X472Y79D02*
X576Y79D01*
X1369Y79D02*
X1473Y79D01*
X471Y78D02*
X577Y78D01*
X1368Y78D02*
X1474Y78D01*
X470Y77D02*
X578Y77D01*
X1367Y77D02*
X1475Y77D01*
X469Y76D02*
X578Y76D01*
X1366Y76D02*
X1475Y76D01*
X469Y75D02*
X579Y75D01*
X1366Y75D02*
X1476Y75D01*
X468Y74D02*
X580Y74D01*
X1365Y74D02*
X1477Y74D01*
X467Y73D02*
X580Y73D01*
X1364Y73D02*
X1477Y73D01*
X467Y72D02*
X581Y72D01*
X1364Y72D02*
X1478Y72D01*
X466Y71D02*
X581Y71D01*
X1363Y71D02*
X1478Y71D01*
X466Y70D02*
X582Y70D01*
X1363Y70D02*
X1479Y70D01*
X465Y69D02*
X582Y69D01*
X1362Y69D02*
X1479Y69D01*
X465Y68D02*
X583Y68D01*
X1362Y68D02*
X1480Y68D01*
X465Y67D02*
X583Y67D01*
X1362Y67D02*
X1480Y67D01*
X464Y66D02*
X583Y66D01*
X1361Y66D02*
X1480Y66D01*
X464Y65D02*
X584Y65D01*
X1361Y65D02*
X1481Y65D01*
X464Y64D02*
X584Y64D01*
X1361Y64D02*
X1481Y64D01*
X463Y63D02*
X584Y63D01*
X1360Y63D02*
X1481Y63D01*
X463Y62D02*
X584Y62D01*
X1360Y62D02*
X1481Y62D01*
X463Y61D02*
X585Y61D01*
X1360Y61D02*
X1482Y61D01*
X463Y60D02*
X521Y60D01*
X528Y60D02*
X585Y60D01*
X1360Y60D02*
X1417Y60D01*
X1425Y60D02*
X1482Y60D01*
X463Y59D02*
X519Y59D01*
X530Y59D02*
X585Y59D01*
X1360Y59D02*
X1416Y59D01*
X1426Y59D02*
X1482Y59D01*
X463Y58D02*
X519Y58D01*
X530Y58D02*
X585Y58D01*
X1359Y58D02*
X1415Y58D01*
X1427Y58D02*
X1482Y58D01*
X462Y57D02*
X518Y57D01*
X531Y57D02*
X585Y57D01*
X1359Y57D02*
X1414Y57D01*
X1427Y57D02*
X1482Y57D01*
X462Y56D02*
X518Y56D01*
X531Y56D02*
X585Y56D01*
X1359Y56D02*
X1414Y56D01*
X1427Y56D02*
X1482Y56D01*
X462Y55D02*
X518Y55D01*
X531Y55D02*
X585Y55D01*
X1359Y55D02*
X1414Y55D01*
X1427Y55D02*
X1482Y55D01*
X462Y54D02*
X518Y54D01*
X531Y54D02*
X585Y54D01*
X1359Y54D02*
X1414Y54D01*
X1427Y54D02*
X1482Y54D01*
X462Y53D02*
X518Y53D01*
X531Y53D02*
X585Y53D01*
X1359Y53D02*
X1414Y53D01*
X1427Y53D02*
X1482Y53D01*
X463Y52D02*
X519Y52D01*
X530Y52D02*
X585Y52D01*
X1359Y52D02*
X1415Y52D01*
X1427Y52D02*
X1482Y52D01*
X463Y51D02*
X519Y51D01*
X530Y51D02*
X585Y51D01*
X1359Y51D02*
X1416Y51D01*
X1426Y51D02*
X1482Y51D01*
X463Y50D02*
X521Y50D01*
X529Y50D02*
X585Y50D01*
X1359Y50D02*
X1417Y50D01*
X1425Y50D02*
X1482Y50D01*
X463Y49D02*
X585Y49D01*
X1359Y49D02*
X1482Y49D01*
X463Y48D02*
X584Y48D01*
X1359Y48D02*
X1481Y48D01*
X463Y47D02*
X584Y47D01*
X1359Y47D02*
X1481Y47D01*
X464Y46D02*
X584Y46D01*
X1359Y46D02*
X1481Y46D01*
X464Y45D02*
X584Y45D01*
X1360Y45D02*
X1481Y45D01*
X464Y44D02*
X583Y44D01*
X1361Y44D02*
X1480Y44D01*
X465Y43D02*
X583Y43D01*
X1362Y43D02*
X1480Y43D01*
X465Y42D02*
X583Y42D01*
X1362Y42D02*
X1480Y42D01*
X465Y41D02*
X582Y41D01*
X1362Y41D02*
X1479Y41D01*
X466Y40D02*
X582Y40D01*
X1363Y40D02*
X1479Y40D01*
X466Y39D02*
X581Y39D01*
X1363Y39D02*
X1478Y39D01*
X467Y38D02*
X581Y38D01*
X1364Y38D02*
X1478Y38D01*
X467Y37D02*
X580Y37D01*
X1364Y37D02*
X1477Y37D01*
X468Y36D02*
X580Y36D01*
X1365Y36D02*
X1477Y36D01*
X468Y35D02*
X579Y35D01*
X1365Y35D02*
X1476Y35D01*
X469Y34D02*
X578Y34D01*
X1366Y34D02*
X1475Y34D01*
X470Y33D02*
X578Y33D01*
X1367Y33D02*
X1475Y33D01*
X471Y32D02*
X577Y32D01*
X1368Y32D02*
X1474Y32D01*
X472Y31D02*
X576Y31D01*
X1368Y31D02*
X1473Y31D01*
X472Y30D02*
X575Y30D01*
X1369Y30D02*
X1472Y30D01*
X473Y29D02*
X574Y29D01*
X1370Y29D02*
X1471Y29D01*
X475Y28D02*
X573Y28D01*
X1371Y28D02*
X1470Y28D01*
X476Y27D02*
X572Y27D01*
X1373Y27D02*
X1469Y27D01*
X477Y26D02*
X570Y26D01*
X1374Y26D02*
X1467Y26D01*
X479Y25D02*
X569Y25D01*
X1376Y25D02*
X1466Y25D01*
X480Y24D02*
X567Y24D01*
X1377Y24D02*
X1464Y24D01*
X482Y23D02*
X565Y23D01*
X1379Y23D02*
X1462Y23D01*
X484Y22D02*
X563Y22D01*
X1381Y22D02*
X1460Y22D01*
X487Y21D02*
X561Y21D01*
X1384Y21D02*
X1458Y21D01*
X490Y20D02*
X557Y20D01*
X1387Y20D02*
X1454Y20D01*
X497Y19D02*
X550Y19D01*
X1394Y19D02*
X1447Y19D01*
D02*
G04 End of Mask0*
M02*