G04 MADE WITH FRITZING*
G04 WWW.FRITZING.ORG*
G04 DOUBLE SIDED*
G04 HOLES PLATED*
G04 CONTOUR ON CENTER OF CONTOUR VECTOR*
%ASAXBY*%
%FSLAX23Y23*%
%MOIN*%
%OFA0B0*%
%SFA1.0B1.0*%
%ADD10C,0.039370*%
%ADD11C,0.052000*%
%ADD12C,0.078639*%
%ADD13C,0.158908*%
%ADD14C,0.065278*%
%ADD15C,0.024000*%
%ADD16C,0.016000*%
%ADD17C,0.012000*%
%ADD18R,0.001000X0.001000*%
%LNCOPPER0*%
G90*
G70*
G54D10*
X1705Y2757D03*
X1706Y2655D03*
X2453Y2656D03*
X2453Y2757D03*
X3205Y2657D03*
X3205Y2757D03*
X1704Y1906D03*
X2455Y1906D03*
X3204Y1906D03*
X3204Y2008D03*
X2455Y2008D03*
X1704Y2008D03*
X3206Y1257D03*
X3206Y1157D03*
X2453Y1257D03*
X2453Y1157D03*
X1704Y1257D03*
X1704Y1157D03*
X1579Y1407D03*
X2580Y1482D03*
X3330Y1482D03*
G54D11*
X279Y2057D03*
X279Y1957D03*
X279Y1857D03*
X279Y1757D03*
X279Y1657D03*
X279Y1557D03*
X279Y1457D03*
X279Y1357D03*
X279Y1257D03*
X279Y1157D03*
X279Y1057D03*
X279Y957D03*
X279Y857D03*
X279Y757D03*
X279Y657D03*
X279Y557D03*
X279Y457D03*
X279Y357D03*
X279Y257D03*
X279Y157D03*
X279Y57D03*
X1180Y57D03*
X1180Y157D03*
X1180Y257D03*
X1180Y357D03*
X1180Y457D03*
X1180Y557D03*
X1180Y657D03*
X1180Y757D03*
X1180Y857D03*
X1180Y957D03*
X1180Y1057D03*
X1180Y1157D03*
X1180Y1257D03*
X1180Y1357D03*
X1180Y1457D03*
X1180Y1557D03*
X1180Y1657D03*
X1180Y1757D03*
X1180Y1857D03*
X1180Y1957D03*
X1180Y2057D03*
G54D12*
X1879Y2707D03*
X2129Y2807D03*
G54D13*
X2029Y2607D03*
G54D14*
X1829Y2607D03*
X2229Y2607D03*
G54D12*
X2629Y2707D03*
X2879Y2807D03*
G54D13*
X2779Y2607D03*
G54D14*
X2579Y2607D03*
X2979Y2607D03*
G54D12*
X3379Y2707D03*
X3629Y2807D03*
G54D13*
X3529Y2607D03*
G54D14*
X3329Y2607D03*
X3729Y2607D03*
G54D12*
X1879Y1957D03*
X2129Y2057D03*
G54D13*
X2029Y1857D03*
G54D14*
X1829Y1857D03*
X2229Y1857D03*
G54D12*
X2629Y1957D03*
X2879Y2057D03*
G54D13*
X2779Y1857D03*
G54D14*
X2579Y1857D03*
X2979Y1857D03*
G54D12*
X3379Y1957D03*
X3629Y2057D03*
G54D13*
X3529Y1857D03*
G54D14*
X3329Y1857D03*
X3729Y1857D03*
G54D12*
X1879Y1207D03*
X2129Y1307D03*
G54D13*
X2029Y1107D03*
G54D14*
X1829Y1107D03*
X2229Y1107D03*
G54D12*
X2629Y1207D03*
X2879Y1307D03*
G54D13*
X2779Y1107D03*
G54D14*
X2579Y1107D03*
X2979Y1107D03*
G54D12*
X3379Y1207D03*
X3629Y1307D03*
G54D13*
X3529Y1107D03*
G54D14*
X3329Y1107D03*
X3729Y1107D03*
G54D12*
X1879Y457D03*
X2129Y557D03*
G54D13*
X2029Y357D03*
G54D14*
X1829Y357D03*
X2229Y357D03*
G54D12*
X2629Y457D03*
X2879Y557D03*
G54D13*
X2779Y357D03*
G54D14*
X2579Y357D03*
X2979Y357D03*
G54D12*
X3379Y457D03*
X3629Y557D03*
G54D13*
X3529Y357D03*
G54D14*
X3329Y357D03*
X3729Y357D03*
G54D10*
X754Y2057D03*
X604Y2057D03*
X729Y1882D03*
G54D15*
X1705Y2674D02*
X1705Y2738D01*
D02*
X2453Y2675D02*
X2453Y2738D01*
D02*
X3205Y2676D02*
X3205Y2738D01*
D02*
X3204Y1989D02*
X3204Y1925D01*
D02*
X2455Y1989D02*
X2455Y1925D01*
D02*
X1704Y1989D02*
X1704Y1925D01*
D02*
X1704Y1238D02*
X1704Y1176D01*
D02*
X2453Y1238D02*
X2453Y1176D01*
D02*
X3206Y1238D02*
X3206Y1176D01*
G54D16*
D02*
X1554Y1157D02*
X1204Y1157D01*
D02*
X1580Y1182D02*
X1554Y1157D01*
D02*
X1579Y1394D02*
X1580Y1182D01*
D02*
X1455Y1257D02*
X1204Y1257D01*
D02*
X1479Y1283D02*
X1455Y1257D01*
D02*
X1479Y1457D02*
X1479Y1283D01*
D02*
X1505Y1481D02*
X1479Y1457D01*
D02*
X2567Y1482D02*
X1505Y1481D01*
D02*
X3316Y1482D02*
X3154Y1481D01*
D02*
X3154Y1481D02*
X3129Y1508D01*
D02*
X3129Y1508D02*
X3129Y1556D01*
D02*
X3129Y1556D02*
X3105Y1583D01*
D02*
X1404Y1583D02*
X1380Y1556D01*
D02*
X1380Y1556D02*
X1380Y1382D01*
D02*
X1380Y1382D02*
X1355Y1358D01*
D02*
X1355Y1358D02*
X1204Y1357D01*
D02*
X3105Y1583D02*
X1404Y1583D01*
G54D17*
D02*
X741Y2057D02*
X618Y2057D01*
D02*
X455Y1881D02*
X404Y1956D01*
D02*
X404Y1956D02*
X304Y1957D01*
D02*
X716Y1882D02*
X455Y1881D01*
G54D18*
X250Y2083D02*
X312Y2083D01*
X1147Y2083D02*
X1209Y2083D01*
X247Y2082D02*
X315Y2082D01*
X1144Y2082D02*
X1212Y2082D01*
X244Y2081D02*
X317Y2081D01*
X1141Y2081D02*
X1214Y2081D01*
X243Y2080D02*
X319Y2080D01*
X1139Y2080D02*
X1216Y2080D01*
X241Y2079D02*
X321Y2079D01*
X1138Y2079D02*
X1218Y2079D01*
X240Y2078D02*
X322Y2078D01*
X1136Y2078D02*
X1219Y2078D01*
X238Y2077D02*
X323Y2077D01*
X1135Y2077D02*
X1220Y2077D01*
X237Y2076D02*
X325Y2076D01*
X1134Y2076D02*
X1222Y2076D01*
X236Y2075D02*
X326Y2075D01*
X1133Y2075D02*
X1222Y2075D01*
X236Y2074D02*
X326Y2074D01*
X1132Y2074D02*
X1223Y2074D01*
X235Y2073D02*
X277Y2073D01*
X286Y2073D02*
X327Y2073D01*
X1132Y2073D02*
X1173Y2073D01*
X1182Y2073D02*
X1224Y2073D01*
X234Y2072D02*
X274Y2072D01*
X289Y2072D02*
X328Y2072D01*
X1131Y2072D02*
X1170Y2072D01*
X1185Y2072D02*
X1225Y2072D01*
X233Y2071D02*
X273Y2071D01*
X291Y2071D02*
X329Y2071D01*
X1130Y2071D02*
X1169Y2071D01*
X1187Y2071D02*
X1225Y2071D01*
X233Y2070D02*
X271Y2070D01*
X292Y2070D02*
X329Y2070D01*
X1130Y2070D02*
X1167Y2070D01*
X1188Y2070D02*
X1226Y2070D01*
X232Y2069D02*
X270Y2069D01*
X293Y2069D02*
X330Y2069D01*
X1129Y2069D02*
X1166Y2069D01*
X1189Y2069D02*
X1227Y2069D01*
X232Y2068D02*
X269Y2068D01*
X294Y2068D02*
X330Y2068D01*
X1129Y2068D02*
X1165Y2068D01*
X1190Y2068D02*
X1227Y2068D01*
X231Y2067D02*
X268Y2067D01*
X295Y2067D02*
X331Y2067D01*
X1128Y2067D02*
X1164Y2067D01*
X1191Y2067D02*
X1227Y2067D01*
X231Y2066D02*
X268Y2066D01*
X296Y2066D02*
X331Y2066D01*
X1128Y2066D02*
X1164Y2066D01*
X1192Y2066D02*
X1228Y2066D01*
X231Y2065D02*
X267Y2065D01*
X296Y2065D02*
X331Y2065D01*
X1127Y2065D02*
X1163Y2065D01*
X1192Y2065D02*
X1228Y2065D01*
X230Y2064D02*
X267Y2064D01*
X297Y2064D02*
X332Y2064D01*
X1127Y2064D02*
X1163Y2064D01*
X1193Y2064D02*
X1228Y2064D01*
X230Y2063D02*
X266Y2063D01*
X297Y2063D02*
X332Y2063D01*
X1127Y2063D02*
X1162Y2063D01*
X1193Y2063D02*
X1229Y2063D01*
X230Y2062D02*
X266Y2062D01*
X297Y2062D02*
X332Y2062D01*
X1127Y2062D02*
X1162Y2062D01*
X1194Y2062D02*
X1229Y2062D01*
X230Y2061D02*
X266Y2061D01*
X298Y2061D02*
X332Y2061D01*
X1127Y2061D02*
X1162Y2061D01*
X1194Y2061D02*
X1229Y2061D01*
X230Y2060D02*
X265Y2060D01*
X298Y2060D02*
X332Y2060D01*
X1126Y2060D02*
X1162Y2060D01*
X1194Y2060D02*
X1229Y2060D01*
X230Y2059D02*
X265Y2059D01*
X298Y2059D02*
X332Y2059D01*
X1126Y2059D02*
X1161Y2059D01*
X1194Y2059D02*
X1229Y2059D01*
X230Y2058D02*
X265Y2058D01*
X298Y2058D02*
X332Y2058D01*
X1126Y2058D02*
X1161Y2058D01*
X1194Y2058D02*
X1229Y2058D01*
X230Y2057D02*
X265Y2057D01*
X298Y2057D02*
X332Y2057D01*
X1126Y2057D02*
X1161Y2057D01*
X1194Y2057D02*
X1229Y2057D01*
X230Y2056D02*
X265Y2056D01*
X298Y2056D02*
X332Y2056D01*
X1126Y2056D02*
X1161Y2056D01*
X1194Y2056D02*
X1229Y2056D01*
X230Y2055D02*
X265Y2055D01*
X298Y2055D02*
X332Y2055D01*
X1126Y2055D02*
X1162Y2055D01*
X1194Y2055D02*
X1229Y2055D01*
X230Y2054D02*
X266Y2054D01*
X298Y2054D02*
X332Y2054D01*
X1127Y2054D02*
X1162Y2054D01*
X1194Y2054D02*
X1229Y2054D01*
X230Y2053D02*
X266Y2053D01*
X297Y2053D02*
X332Y2053D01*
X1127Y2053D02*
X1162Y2053D01*
X1194Y2053D02*
X1229Y2053D01*
X230Y2052D02*
X266Y2052D01*
X297Y2052D02*
X332Y2052D01*
X1127Y2052D02*
X1162Y2052D01*
X1193Y2052D02*
X1229Y2052D01*
X230Y2051D02*
X267Y2051D01*
X297Y2051D02*
X332Y2051D01*
X1127Y2051D02*
X1163Y2051D01*
X1193Y2051D02*
X1228Y2051D01*
X231Y2050D02*
X267Y2050D01*
X296Y2050D02*
X331Y2050D01*
X1127Y2050D02*
X1163Y2050D01*
X1192Y2050D02*
X1228Y2050D01*
X231Y2049D02*
X268Y2049D01*
X296Y2049D02*
X331Y2049D01*
X1128Y2049D02*
X1164Y2049D01*
X1192Y2049D02*
X1228Y2049D01*
X231Y2048D02*
X268Y2048D01*
X295Y2048D02*
X331Y2048D01*
X1128Y2048D02*
X1165Y2048D01*
X1191Y2048D02*
X1227Y2048D01*
X232Y2047D02*
X269Y2047D01*
X294Y2047D02*
X330Y2047D01*
X1129Y2047D02*
X1165Y2047D01*
X1190Y2047D02*
X1227Y2047D01*
X232Y2046D02*
X270Y2046D01*
X293Y2046D02*
X330Y2046D01*
X1129Y2046D02*
X1166Y2046D01*
X1189Y2046D02*
X1226Y2046D01*
X233Y2045D02*
X271Y2045D01*
X292Y2045D02*
X329Y2045D01*
X1130Y2045D02*
X1168Y2045D01*
X1188Y2045D02*
X1226Y2045D01*
X233Y2044D02*
X273Y2044D01*
X291Y2044D02*
X329Y2044D01*
X1130Y2044D02*
X1169Y2044D01*
X1187Y2044D02*
X1225Y2044D01*
X234Y2043D02*
X275Y2043D01*
X289Y2043D02*
X328Y2043D01*
X1131Y2043D02*
X1171Y2043D01*
X1185Y2043D02*
X1225Y2043D01*
X235Y2042D02*
X278Y2042D01*
X286Y2042D02*
X327Y2042D01*
X1132Y2042D02*
X1174Y2042D01*
X1182Y2042D02*
X1224Y2042D01*
X236Y2041D02*
X326Y2041D01*
X1132Y2041D02*
X1223Y2041D01*
X236Y2040D02*
X325Y2040D01*
X1133Y2040D02*
X1222Y2040D01*
X237Y2039D02*
X325Y2039D01*
X1134Y2039D02*
X1221Y2039D01*
X239Y2038D02*
X323Y2038D01*
X1135Y2038D02*
X1220Y2038D01*
X240Y2037D02*
X322Y2037D01*
X1137Y2037D02*
X1219Y2037D01*
X241Y2036D02*
X321Y2036D01*
X1138Y2036D02*
X1218Y2036D01*
X243Y2035D02*
X319Y2035D01*
X1140Y2035D02*
X1216Y2035D01*
X245Y2034D02*
X317Y2034D01*
X1141Y2034D02*
X1214Y2034D01*
X247Y2033D02*
X315Y2033D01*
X1144Y2033D02*
X1212Y2033D01*
X251Y2032D02*
X311Y2032D01*
X1148Y2032D02*
X1208Y2032D01*
X250Y1983D02*
X312Y1983D01*
X1147Y1983D02*
X1209Y1983D01*
X247Y1982D02*
X315Y1982D01*
X1144Y1982D02*
X1212Y1982D01*
X244Y1981D02*
X317Y1981D01*
X1141Y1981D02*
X1214Y1981D01*
X242Y1980D02*
X319Y1980D01*
X1139Y1980D02*
X1216Y1980D01*
X241Y1979D02*
X321Y1979D01*
X1138Y1979D02*
X1218Y1979D01*
X240Y1978D02*
X322Y1978D01*
X1136Y1978D02*
X1219Y1978D01*
X238Y1977D02*
X323Y1977D01*
X1135Y1977D02*
X1220Y1977D01*
X237Y1976D02*
X325Y1976D01*
X1134Y1976D02*
X1222Y1976D01*
X236Y1975D02*
X325Y1975D01*
X1133Y1975D02*
X1222Y1975D01*
X235Y1974D02*
X326Y1974D01*
X1132Y1974D02*
X1223Y1974D01*
X235Y1973D02*
X277Y1973D01*
X287Y1973D02*
X327Y1973D01*
X1132Y1973D02*
X1173Y1973D01*
X1183Y1973D02*
X1224Y1973D01*
X234Y1972D02*
X274Y1972D01*
X289Y1972D02*
X328Y1972D01*
X1131Y1972D02*
X1170Y1972D01*
X1185Y1972D02*
X1225Y1972D01*
X233Y1971D02*
X272Y1971D01*
X291Y1971D02*
X328Y1971D01*
X1130Y1971D02*
X1168Y1971D01*
X1187Y1971D02*
X1225Y1971D01*
X233Y1970D02*
X271Y1970D01*
X292Y1970D02*
X329Y1970D01*
X1130Y1970D02*
X1167Y1970D01*
X1189Y1970D02*
X1226Y1970D01*
X232Y1969D02*
X270Y1969D01*
X294Y1969D02*
X330Y1969D01*
X1129Y1969D02*
X1166Y1969D01*
X1190Y1969D02*
X1227Y1969D01*
X232Y1968D02*
X269Y1968D01*
X294Y1968D02*
X330Y1968D01*
X1129Y1968D02*
X1165Y1968D01*
X1191Y1968D02*
X1227Y1968D01*
X231Y1967D02*
X268Y1967D01*
X295Y1967D02*
X331Y1967D01*
X1128Y1967D02*
X1164Y1967D01*
X1191Y1967D02*
X1227Y1967D01*
X231Y1966D02*
X267Y1966D01*
X296Y1966D02*
X331Y1966D01*
X1128Y1966D02*
X1164Y1966D01*
X1192Y1966D02*
X1228Y1966D01*
X230Y1965D02*
X267Y1965D01*
X296Y1965D02*
X331Y1965D01*
X1127Y1965D02*
X1163Y1965D01*
X1193Y1965D02*
X1228Y1965D01*
X230Y1964D02*
X266Y1964D01*
X297Y1964D02*
X331Y1964D01*
X1127Y1964D02*
X1162Y1964D01*
X1193Y1964D02*
X1228Y1964D01*
X230Y1963D02*
X266Y1963D01*
X297Y1963D02*
X332Y1963D01*
X1127Y1963D02*
X1162Y1963D01*
X1193Y1963D02*
X1229Y1963D01*
X230Y1962D02*
X266Y1962D01*
X298Y1962D02*
X332Y1962D01*
X1127Y1962D02*
X1162Y1962D01*
X1194Y1962D02*
X1229Y1962D01*
X230Y1961D02*
X265Y1961D01*
X298Y1961D02*
X332Y1961D01*
X1127Y1961D02*
X1161Y1961D01*
X1194Y1961D02*
X1229Y1961D01*
X230Y1960D02*
X265Y1960D01*
X298Y1960D02*
X332Y1960D01*
X1126Y1960D02*
X1161Y1960D01*
X1194Y1960D02*
X1229Y1960D01*
X229Y1959D02*
X265Y1959D01*
X298Y1959D02*
X332Y1959D01*
X1126Y1959D02*
X1161Y1959D01*
X1194Y1959D02*
X1229Y1959D01*
X229Y1958D02*
X265Y1958D01*
X298Y1958D02*
X332Y1958D01*
X1126Y1958D02*
X1161Y1958D01*
X1194Y1958D02*
X1229Y1958D01*
X229Y1957D02*
X265Y1957D01*
X298Y1957D02*
X332Y1957D01*
X1126Y1957D02*
X1161Y1957D01*
X1194Y1957D02*
X1229Y1957D01*
X229Y1956D02*
X265Y1956D01*
X298Y1956D02*
X332Y1956D01*
X1126Y1956D02*
X1161Y1956D01*
X1194Y1956D02*
X1229Y1956D01*
X230Y1955D02*
X265Y1955D01*
X298Y1955D02*
X332Y1955D01*
X1126Y1955D02*
X1161Y1955D01*
X1194Y1955D02*
X1229Y1955D01*
X230Y1954D02*
X265Y1954D01*
X298Y1954D02*
X332Y1954D01*
X1127Y1954D02*
X1162Y1954D01*
X1194Y1954D02*
X1229Y1954D01*
X230Y1953D02*
X266Y1953D01*
X298Y1953D02*
X332Y1953D01*
X1127Y1953D02*
X1162Y1953D01*
X1194Y1953D02*
X1229Y1953D01*
X230Y1952D02*
X266Y1952D01*
X297Y1952D02*
X332Y1952D01*
X1127Y1952D02*
X1162Y1952D01*
X1193Y1952D02*
X1229Y1952D01*
X230Y1951D02*
X266Y1951D01*
X297Y1951D02*
X331Y1951D01*
X1127Y1951D02*
X1163Y1951D01*
X1193Y1951D02*
X1228Y1951D01*
X231Y1950D02*
X267Y1950D01*
X296Y1950D02*
X331Y1950D01*
X1127Y1950D02*
X1163Y1950D01*
X1192Y1950D02*
X1228Y1950D01*
X231Y1949D02*
X267Y1949D01*
X296Y1949D02*
X331Y1949D01*
X1128Y1949D02*
X1164Y1949D01*
X1192Y1949D02*
X1228Y1949D01*
X231Y1948D02*
X268Y1948D01*
X295Y1948D02*
X330Y1948D01*
X1128Y1948D02*
X1164Y1948D01*
X1191Y1948D02*
X1227Y1948D01*
X232Y1947D02*
X269Y1947D01*
X294Y1947D02*
X330Y1947D01*
X1129Y1947D02*
X1165Y1947D01*
X1190Y1947D02*
X1227Y1947D01*
X232Y1946D02*
X270Y1946D01*
X293Y1946D02*
X330Y1946D01*
X1129Y1946D02*
X1166Y1946D01*
X1189Y1946D02*
X1226Y1946D01*
X233Y1945D02*
X271Y1945D01*
X292Y1945D02*
X329Y1945D01*
X1130Y1945D02*
X1167Y1945D01*
X1188Y1945D02*
X1226Y1945D01*
X233Y1944D02*
X273Y1944D01*
X291Y1944D02*
X328Y1944D01*
X1130Y1944D02*
X1169Y1944D01*
X1187Y1944D02*
X1225Y1944D01*
X234Y1943D02*
X274Y1943D01*
X289Y1943D02*
X328Y1943D01*
X1131Y1943D02*
X1171Y1943D01*
X1185Y1943D02*
X1225Y1943D01*
X235Y1942D02*
X278Y1942D01*
X286Y1942D02*
X327Y1942D01*
X1132Y1942D02*
X1174Y1942D01*
X1182Y1942D02*
X1224Y1942D01*
X236Y1941D02*
X326Y1941D01*
X1132Y1941D02*
X1223Y1941D01*
X236Y1940D02*
X325Y1940D01*
X1133Y1940D02*
X1222Y1940D01*
X237Y1939D02*
X324Y1939D01*
X1134Y1939D02*
X1221Y1939D01*
X238Y1938D02*
X323Y1938D01*
X1135Y1938D02*
X1220Y1938D01*
X240Y1937D02*
X322Y1937D01*
X1137Y1937D02*
X1219Y1937D01*
X241Y1936D02*
X321Y1936D01*
X1138Y1936D02*
X1218Y1936D01*
X243Y1935D02*
X319Y1935D01*
X1140Y1935D02*
X1216Y1935D01*
X245Y1934D02*
X317Y1934D01*
X1141Y1934D02*
X1214Y1934D01*
X247Y1933D02*
X315Y1933D01*
X1144Y1933D02*
X1212Y1933D01*
X251Y1932D02*
X311Y1932D01*
X1148Y1932D02*
X1208Y1932D01*
X250Y1883D02*
X312Y1883D01*
X1147Y1883D02*
X1209Y1883D01*
X247Y1882D02*
X315Y1882D01*
X1144Y1882D02*
X1212Y1882D01*
X244Y1881D02*
X317Y1881D01*
X1141Y1881D02*
X1214Y1881D01*
X242Y1880D02*
X319Y1880D01*
X1139Y1880D02*
X1216Y1880D01*
X241Y1879D02*
X321Y1879D01*
X1138Y1879D02*
X1218Y1879D01*
X239Y1878D02*
X322Y1878D01*
X1136Y1878D02*
X1219Y1878D01*
X238Y1877D02*
X323Y1877D01*
X1135Y1877D02*
X1220Y1877D01*
X237Y1876D02*
X325Y1876D01*
X1134Y1876D02*
X1222Y1876D01*
X236Y1875D02*
X325Y1875D01*
X1133Y1875D02*
X1222Y1875D01*
X235Y1874D02*
X326Y1874D01*
X1132Y1874D02*
X1223Y1874D01*
X235Y1873D02*
X277Y1873D01*
X287Y1873D02*
X327Y1873D01*
X1132Y1873D02*
X1173Y1873D01*
X1183Y1873D02*
X1224Y1873D01*
X234Y1872D02*
X274Y1872D01*
X289Y1872D02*
X328Y1872D01*
X1131Y1872D02*
X1170Y1872D01*
X1185Y1872D02*
X1225Y1872D01*
X233Y1871D02*
X272Y1871D01*
X291Y1871D02*
X328Y1871D01*
X1130Y1871D02*
X1168Y1871D01*
X1187Y1871D02*
X1225Y1871D01*
X233Y1870D02*
X271Y1870D01*
X292Y1870D02*
X329Y1870D01*
X1130Y1870D02*
X1167Y1870D01*
X1189Y1870D02*
X1226Y1870D01*
X232Y1869D02*
X270Y1869D01*
X293Y1869D02*
X330Y1869D01*
X1129Y1869D02*
X1166Y1869D01*
X1190Y1869D02*
X1227Y1869D01*
X232Y1868D02*
X269Y1868D01*
X294Y1868D02*
X330Y1868D01*
X1129Y1868D02*
X1165Y1868D01*
X1191Y1868D02*
X1227Y1868D01*
X231Y1867D02*
X268Y1867D01*
X295Y1867D02*
X331Y1867D01*
X1128Y1867D02*
X1164Y1867D01*
X1191Y1867D02*
X1227Y1867D01*
X231Y1866D02*
X267Y1866D01*
X296Y1866D02*
X331Y1866D01*
X1128Y1866D02*
X1164Y1866D01*
X1192Y1866D02*
X1228Y1866D01*
X230Y1865D02*
X267Y1865D01*
X296Y1865D02*
X331Y1865D01*
X1127Y1865D02*
X1163Y1865D01*
X1193Y1865D02*
X1228Y1865D01*
X230Y1864D02*
X266Y1864D01*
X297Y1864D02*
X332Y1864D01*
X1127Y1864D02*
X1162Y1864D01*
X1193Y1864D02*
X1228Y1864D01*
X230Y1863D02*
X266Y1863D01*
X297Y1863D02*
X332Y1863D01*
X1127Y1863D02*
X1162Y1863D01*
X1193Y1863D02*
X1229Y1863D01*
X230Y1862D02*
X266Y1862D01*
X298Y1862D02*
X332Y1862D01*
X1127Y1862D02*
X1162Y1862D01*
X1194Y1862D02*
X1229Y1862D01*
X230Y1861D02*
X265Y1861D01*
X298Y1861D02*
X332Y1861D01*
X1127Y1861D02*
X1161Y1861D01*
X1194Y1861D02*
X1229Y1861D01*
X229Y1860D02*
X265Y1860D01*
X298Y1860D02*
X332Y1860D01*
X1126Y1860D02*
X1161Y1860D01*
X1194Y1860D02*
X1229Y1860D01*
X229Y1859D02*
X265Y1859D01*
X298Y1859D02*
X332Y1859D01*
X1126Y1859D02*
X1161Y1859D01*
X1194Y1859D02*
X1229Y1859D01*
X229Y1858D02*
X265Y1858D01*
X298Y1858D02*
X332Y1858D01*
X1126Y1858D02*
X1161Y1858D01*
X1194Y1858D02*
X1229Y1858D01*
X229Y1857D02*
X265Y1857D01*
X298Y1857D02*
X332Y1857D01*
X1126Y1857D02*
X1161Y1857D01*
X1194Y1857D02*
X1229Y1857D01*
X229Y1856D02*
X265Y1856D01*
X298Y1856D02*
X332Y1856D01*
X1126Y1856D02*
X1161Y1856D01*
X1194Y1856D02*
X1229Y1856D01*
X229Y1855D02*
X265Y1855D01*
X298Y1855D02*
X332Y1855D01*
X1126Y1855D02*
X1161Y1855D01*
X1194Y1855D02*
X1229Y1855D01*
X230Y1854D02*
X265Y1854D01*
X298Y1854D02*
X332Y1854D01*
X1127Y1854D02*
X1162Y1854D01*
X1194Y1854D02*
X1229Y1854D01*
X230Y1853D02*
X266Y1853D01*
X298Y1853D02*
X332Y1853D01*
X1127Y1853D02*
X1162Y1853D01*
X1194Y1853D02*
X1229Y1853D01*
X230Y1852D02*
X266Y1852D01*
X297Y1852D02*
X332Y1852D01*
X1127Y1852D02*
X1162Y1852D01*
X1193Y1852D02*
X1229Y1852D01*
X230Y1851D02*
X266Y1851D01*
X297Y1851D02*
X331Y1851D01*
X1127Y1851D02*
X1163Y1851D01*
X1193Y1851D02*
X1228Y1851D01*
X230Y1850D02*
X267Y1850D01*
X296Y1850D02*
X331Y1850D01*
X1127Y1850D02*
X1163Y1850D01*
X1192Y1850D02*
X1228Y1850D01*
X231Y1849D02*
X267Y1849D01*
X296Y1849D02*
X331Y1849D01*
X1128Y1849D02*
X1164Y1849D01*
X1192Y1849D02*
X1228Y1849D01*
X231Y1848D02*
X268Y1848D01*
X295Y1848D02*
X331Y1848D01*
X1128Y1848D02*
X1164Y1848D01*
X1191Y1848D02*
X1227Y1848D01*
X232Y1847D02*
X269Y1847D01*
X294Y1847D02*
X330Y1847D01*
X1129Y1847D02*
X1165Y1847D01*
X1190Y1847D02*
X1227Y1847D01*
X232Y1846D02*
X270Y1846D01*
X293Y1846D02*
X330Y1846D01*
X1129Y1846D02*
X1166Y1846D01*
X1189Y1846D02*
X1226Y1846D01*
X233Y1845D02*
X271Y1845D01*
X292Y1845D02*
X329Y1845D01*
X1130Y1845D02*
X1167Y1845D01*
X1188Y1845D02*
X1226Y1845D01*
X233Y1844D02*
X273Y1844D01*
X291Y1844D02*
X328Y1844D01*
X1130Y1844D02*
X1169Y1844D01*
X1187Y1844D02*
X1225Y1844D01*
X234Y1843D02*
X274Y1843D01*
X289Y1843D02*
X328Y1843D01*
X1131Y1843D02*
X1171Y1843D01*
X1185Y1843D02*
X1225Y1843D01*
X235Y1842D02*
X278Y1842D01*
X286Y1842D02*
X327Y1842D01*
X1132Y1842D02*
X1174Y1842D01*
X1182Y1842D02*
X1224Y1842D01*
X235Y1841D02*
X326Y1841D01*
X1132Y1841D02*
X1223Y1841D01*
X236Y1840D02*
X325Y1840D01*
X1133Y1840D02*
X1222Y1840D01*
X237Y1839D02*
X324Y1839D01*
X1134Y1839D02*
X1221Y1839D01*
X238Y1838D02*
X323Y1838D01*
X1135Y1838D02*
X1220Y1838D01*
X240Y1837D02*
X322Y1837D01*
X1137Y1837D02*
X1219Y1837D01*
X241Y1836D02*
X321Y1836D01*
X1138Y1836D02*
X1218Y1836D01*
X243Y1835D02*
X319Y1835D01*
X1140Y1835D02*
X1216Y1835D01*
X245Y1834D02*
X317Y1834D01*
X1141Y1834D02*
X1214Y1834D01*
X247Y1833D02*
X315Y1833D01*
X1144Y1833D02*
X1212Y1833D01*
X251Y1832D02*
X311Y1832D01*
X1148Y1832D02*
X1208Y1832D01*
X250Y1783D02*
X312Y1783D01*
X1147Y1783D02*
X1209Y1783D01*
X247Y1782D02*
X315Y1782D01*
X1144Y1782D02*
X1212Y1782D01*
X244Y1781D02*
X317Y1781D01*
X1141Y1781D02*
X1214Y1781D01*
X242Y1780D02*
X319Y1780D01*
X1139Y1780D02*
X1216Y1780D01*
X241Y1779D02*
X321Y1779D01*
X1138Y1779D02*
X1218Y1779D01*
X240Y1778D02*
X322Y1778D01*
X1136Y1778D02*
X1219Y1778D01*
X238Y1777D02*
X323Y1777D01*
X1135Y1777D02*
X1220Y1777D01*
X237Y1776D02*
X325Y1776D01*
X1134Y1776D02*
X1222Y1776D01*
X236Y1775D02*
X325Y1775D01*
X1133Y1775D02*
X1222Y1775D01*
X235Y1774D02*
X326Y1774D01*
X1132Y1774D02*
X1223Y1774D01*
X235Y1773D02*
X277Y1773D01*
X287Y1773D02*
X327Y1773D01*
X1132Y1773D02*
X1173Y1773D01*
X1183Y1773D02*
X1224Y1773D01*
X234Y1772D02*
X274Y1772D01*
X289Y1772D02*
X328Y1772D01*
X1131Y1772D02*
X1170Y1772D01*
X1185Y1772D02*
X1225Y1772D01*
X233Y1771D02*
X272Y1771D01*
X291Y1771D02*
X328Y1771D01*
X1130Y1771D02*
X1168Y1771D01*
X1187Y1771D02*
X1225Y1771D01*
X233Y1770D02*
X271Y1770D01*
X292Y1770D02*
X329Y1770D01*
X1130Y1770D02*
X1167Y1770D01*
X1189Y1770D02*
X1226Y1770D01*
X232Y1769D02*
X270Y1769D01*
X294Y1769D02*
X330Y1769D01*
X1129Y1769D02*
X1166Y1769D01*
X1190Y1769D02*
X1227Y1769D01*
X232Y1768D02*
X269Y1768D01*
X294Y1768D02*
X330Y1768D01*
X1129Y1768D02*
X1165Y1768D01*
X1191Y1768D02*
X1227Y1768D01*
X231Y1767D02*
X268Y1767D01*
X295Y1767D02*
X331Y1767D01*
X1128Y1767D02*
X1164Y1767D01*
X1191Y1767D02*
X1227Y1767D01*
X231Y1766D02*
X267Y1766D01*
X296Y1766D02*
X331Y1766D01*
X1128Y1766D02*
X1163Y1766D01*
X1192Y1766D02*
X1228Y1766D01*
X230Y1765D02*
X267Y1765D01*
X296Y1765D02*
X331Y1765D01*
X1127Y1765D02*
X1163Y1765D01*
X1193Y1765D02*
X1228Y1765D01*
X230Y1764D02*
X266Y1764D01*
X297Y1764D02*
X331Y1764D01*
X1127Y1764D02*
X1162Y1764D01*
X1193Y1764D02*
X1228Y1764D01*
X230Y1763D02*
X266Y1763D01*
X297Y1763D02*
X332Y1763D01*
X1127Y1763D02*
X1162Y1763D01*
X1193Y1763D02*
X1229Y1763D01*
X230Y1762D02*
X266Y1762D01*
X298Y1762D02*
X332Y1762D01*
X1127Y1762D02*
X1162Y1762D01*
X1194Y1762D02*
X1229Y1762D01*
X230Y1761D02*
X265Y1761D01*
X298Y1761D02*
X332Y1761D01*
X1127Y1761D02*
X1161Y1761D01*
X1194Y1761D02*
X1229Y1761D01*
X230Y1760D02*
X265Y1760D01*
X298Y1760D02*
X332Y1760D01*
X1126Y1760D02*
X1161Y1760D01*
X1194Y1760D02*
X1229Y1760D01*
X229Y1759D02*
X265Y1759D01*
X298Y1759D02*
X332Y1759D01*
X1126Y1759D02*
X1161Y1759D01*
X1194Y1759D02*
X1229Y1759D01*
X229Y1758D02*
X265Y1758D01*
X298Y1758D02*
X332Y1758D01*
X1126Y1758D02*
X1161Y1758D01*
X1194Y1758D02*
X1229Y1758D01*
X229Y1757D02*
X265Y1757D01*
X298Y1757D02*
X332Y1757D01*
X1126Y1757D02*
X1161Y1757D01*
X1194Y1757D02*
X1229Y1757D01*
X229Y1756D02*
X265Y1756D01*
X298Y1756D02*
X332Y1756D01*
X1126Y1756D02*
X1161Y1756D01*
X1194Y1756D02*
X1229Y1756D01*
X230Y1755D02*
X265Y1755D01*
X298Y1755D02*
X332Y1755D01*
X1126Y1755D02*
X1161Y1755D01*
X1194Y1755D02*
X1229Y1755D01*
X230Y1754D02*
X265Y1754D01*
X298Y1754D02*
X332Y1754D01*
X1127Y1754D02*
X1162Y1754D01*
X1194Y1754D02*
X1229Y1754D01*
X230Y1753D02*
X266Y1753D01*
X298Y1753D02*
X332Y1753D01*
X1127Y1753D02*
X1162Y1753D01*
X1194Y1753D02*
X1229Y1753D01*
X230Y1752D02*
X266Y1752D01*
X297Y1752D02*
X332Y1752D01*
X1127Y1752D02*
X1162Y1752D01*
X1193Y1752D02*
X1229Y1752D01*
X230Y1751D02*
X266Y1751D01*
X297Y1751D02*
X331Y1751D01*
X1127Y1751D02*
X1163Y1751D01*
X1193Y1751D02*
X1228Y1751D01*
X231Y1750D02*
X267Y1750D01*
X296Y1750D02*
X331Y1750D01*
X1127Y1750D02*
X1163Y1750D01*
X1192Y1750D02*
X1228Y1750D01*
X231Y1749D02*
X267Y1749D01*
X296Y1749D02*
X331Y1749D01*
X1128Y1749D02*
X1164Y1749D01*
X1192Y1749D02*
X1228Y1749D01*
X231Y1748D02*
X268Y1748D01*
X295Y1748D02*
X330Y1748D01*
X1128Y1748D02*
X1164Y1748D01*
X1191Y1748D02*
X1227Y1748D01*
X232Y1747D02*
X269Y1747D01*
X294Y1747D02*
X330Y1747D01*
X1129Y1747D02*
X1165Y1747D01*
X1190Y1747D02*
X1227Y1747D01*
X232Y1746D02*
X270Y1746D01*
X293Y1746D02*
X329Y1746D01*
X1129Y1746D02*
X1166Y1746D01*
X1189Y1746D02*
X1226Y1746D01*
X233Y1745D02*
X271Y1745D01*
X292Y1745D02*
X329Y1745D01*
X1130Y1745D02*
X1167Y1745D01*
X1188Y1745D02*
X1226Y1745D01*
X233Y1744D02*
X273Y1744D01*
X291Y1744D02*
X328Y1744D01*
X1130Y1744D02*
X1169Y1744D01*
X1187Y1744D02*
X1225Y1744D01*
X234Y1743D02*
X275Y1743D01*
X289Y1743D02*
X328Y1743D01*
X1131Y1743D02*
X1171Y1743D01*
X1185Y1743D02*
X1225Y1743D01*
X235Y1742D02*
X278Y1742D01*
X286Y1742D02*
X327Y1742D01*
X1132Y1742D02*
X1174Y1742D01*
X1182Y1742D02*
X1224Y1742D01*
X236Y1741D02*
X326Y1741D01*
X1132Y1741D02*
X1223Y1741D01*
X236Y1740D02*
X325Y1740D01*
X1133Y1740D02*
X1222Y1740D01*
X237Y1739D02*
X324Y1739D01*
X1134Y1739D02*
X1221Y1739D01*
X238Y1738D02*
X323Y1738D01*
X1135Y1738D02*
X1220Y1738D01*
X240Y1737D02*
X322Y1737D01*
X1137Y1737D02*
X1219Y1737D01*
X241Y1736D02*
X321Y1736D01*
X1138Y1736D02*
X1218Y1736D01*
X243Y1735D02*
X319Y1735D01*
X1140Y1735D02*
X1216Y1735D01*
X245Y1734D02*
X317Y1734D01*
X1142Y1734D02*
X1214Y1734D01*
X247Y1733D02*
X315Y1733D01*
X1144Y1733D02*
X1212Y1733D01*
X251Y1732D02*
X311Y1732D01*
X1148Y1732D02*
X1208Y1732D01*
X250Y1683D02*
X312Y1683D01*
X1147Y1683D02*
X1209Y1683D01*
X247Y1682D02*
X315Y1682D01*
X1144Y1682D02*
X1212Y1682D01*
X244Y1681D02*
X317Y1681D01*
X1141Y1681D02*
X1214Y1681D01*
X242Y1680D02*
X319Y1680D01*
X1139Y1680D02*
X1216Y1680D01*
X241Y1679D02*
X321Y1679D01*
X1138Y1679D02*
X1218Y1679D01*
X239Y1678D02*
X322Y1678D01*
X1136Y1678D02*
X1219Y1678D01*
X238Y1677D02*
X323Y1677D01*
X1135Y1677D02*
X1220Y1677D01*
X237Y1676D02*
X325Y1676D01*
X1134Y1676D02*
X1222Y1676D01*
X236Y1675D02*
X325Y1675D01*
X1133Y1675D02*
X1222Y1675D01*
X235Y1674D02*
X326Y1674D01*
X1132Y1674D02*
X1223Y1674D01*
X235Y1673D02*
X277Y1673D01*
X286Y1673D02*
X327Y1673D01*
X1132Y1673D02*
X1173Y1673D01*
X1182Y1673D02*
X1224Y1673D01*
X234Y1672D02*
X274Y1672D01*
X289Y1672D02*
X328Y1672D01*
X1131Y1672D02*
X1170Y1672D01*
X1185Y1672D02*
X1225Y1672D01*
X233Y1671D02*
X272Y1671D01*
X291Y1671D02*
X328Y1671D01*
X1130Y1671D02*
X1169Y1671D01*
X1187Y1671D02*
X1225Y1671D01*
X233Y1670D02*
X271Y1670D01*
X292Y1670D02*
X329Y1670D01*
X1130Y1670D02*
X1167Y1670D01*
X1188Y1670D02*
X1226Y1670D01*
X232Y1669D02*
X270Y1669D01*
X293Y1669D02*
X330Y1669D01*
X1129Y1669D02*
X1166Y1669D01*
X1189Y1669D02*
X1227Y1669D01*
X232Y1668D02*
X269Y1668D01*
X294Y1668D02*
X330Y1668D01*
X1129Y1668D02*
X1165Y1668D01*
X1190Y1668D02*
X1227Y1668D01*
X231Y1667D02*
X268Y1667D01*
X295Y1667D02*
X331Y1667D01*
X1128Y1667D02*
X1164Y1667D01*
X1191Y1667D02*
X1227Y1667D01*
X231Y1666D02*
X268Y1666D01*
X296Y1666D02*
X331Y1666D01*
X1128Y1666D02*
X1164Y1666D01*
X1192Y1666D02*
X1228Y1666D01*
X230Y1665D02*
X267Y1665D01*
X296Y1665D02*
X331Y1665D01*
X1127Y1665D02*
X1163Y1665D01*
X1192Y1665D02*
X1228Y1665D01*
X230Y1664D02*
X266Y1664D01*
X297Y1664D02*
X332Y1664D01*
X1127Y1664D02*
X1163Y1664D01*
X1193Y1664D02*
X1228Y1664D01*
X230Y1663D02*
X266Y1663D01*
X297Y1663D02*
X332Y1663D01*
X1127Y1663D02*
X1162Y1663D01*
X1193Y1663D02*
X1229Y1663D01*
X230Y1662D02*
X266Y1662D01*
X297Y1662D02*
X332Y1662D01*
X1127Y1662D02*
X1162Y1662D01*
X1194Y1662D02*
X1229Y1662D01*
X230Y1661D02*
X265Y1661D01*
X298Y1661D02*
X332Y1661D01*
X1127Y1661D02*
X1162Y1661D01*
X1194Y1661D02*
X1229Y1661D01*
X229Y1660D02*
X265Y1660D01*
X298Y1660D02*
X332Y1660D01*
X1126Y1660D02*
X1162Y1660D01*
X1194Y1660D02*
X1229Y1660D01*
X229Y1659D02*
X265Y1659D01*
X298Y1659D02*
X332Y1659D01*
X1126Y1659D02*
X1161Y1659D01*
X1194Y1659D02*
X1229Y1659D01*
X229Y1658D02*
X265Y1658D01*
X298Y1658D02*
X332Y1658D01*
X1126Y1658D02*
X1161Y1658D01*
X1194Y1658D02*
X1229Y1658D01*
X229Y1657D02*
X265Y1657D01*
X298Y1657D02*
X332Y1657D01*
X1126Y1657D02*
X1161Y1657D01*
X1194Y1657D02*
X1229Y1657D01*
X229Y1656D02*
X265Y1656D01*
X298Y1656D02*
X332Y1656D01*
X1126Y1656D02*
X1161Y1656D01*
X1194Y1656D02*
X1229Y1656D01*
X229Y1655D02*
X265Y1655D01*
X298Y1655D02*
X332Y1655D01*
X1126Y1655D02*
X1162Y1655D01*
X1194Y1655D02*
X1229Y1655D01*
X230Y1654D02*
X266Y1654D01*
X298Y1654D02*
X332Y1654D01*
X1127Y1654D02*
X1162Y1654D01*
X1194Y1654D02*
X1229Y1654D01*
X230Y1653D02*
X266Y1653D01*
X297Y1653D02*
X332Y1653D01*
X1127Y1653D02*
X1162Y1653D01*
X1193Y1653D02*
X1229Y1653D01*
X230Y1652D02*
X266Y1652D01*
X297Y1652D02*
X332Y1652D01*
X1127Y1652D02*
X1162Y1652D01*
X1193Y1652D02*
X1229Y1652D01*
X230Y1651D02*
X267Y1651D01*
X297Y1651D02*
X331Y1651D01*
X1127Y1651D02*
X1163Y1651D01*
X1193Y1651D02*
X1228Y1651D01*
X230Y1650D02*
X267Y1650D01*
X296Y1650D02*
X331Y1650D01*
X1127Y1650D02*
X1163Y1650D01*
X1192Y1650D02*
X1228Y1650D01*
X231Y1649D02*
X268Y1649D01*
X296Y1649D02*
X331Y1649D01*
X1128Y1649D02*
X1164Y1649D01*
X1192Y1649D02*
X1228Y1649D01*
X231Y1648D02*
X268Y1648D01*
X295Y1648D02*
X330Y1648D01*
X1128Y1648D02*
X1165Y1648D01*
X1191Y1648D02*
X1227Y1648D01*
X232Y1647D02*
X269Y1647D01*
X294Y1647D02*
X330Y1647D01*
X1129Y1647D02*
X1165Y1647D01*
X1190Y1647D02*
X1227Y1647D01*
X232Y1646D02*
X270Y1646D01*
X293Y1646D02*
X330Y1646D01*
X1129Y1646D02*
X1166Y1646D01*
X1189Y1646D02*
X1226Y1646D01*
X233Y1645D02*
X271Y1645D01*
X292Y1645D02*
X329Y1645D01*
X1130Y1645D02*
X1168Y1645D01*
X1188Y1645D02*
X1226Y1645D01*
X233Y1644D02*
X273Y1644D01*
X290Y1644D02*
X328Y1644D01*
X1130Y1644D02*
X1169Y1644D01*
X1187Y1644D02*
X1225Y1644D01*
X234Y1643D02*
X275Y1643D01*
X288Y1643D02*
X328Y1643D01*
X1131Y1643D02*
X1171Y1643D01*
X1185Y1643D02*
X1225Y1643D01*
X235Y1642D02*
X278Y1642D01*
X285Y1642D02*
X327Y1642D01*
X1132Y1642D02*
X1174Y1642D01*
X1182Y1642D02*
X1224Y1642D01*
X235Y1641D02*
X326Y1641D01*
X1132Y1641D02*
X1223Y1641D01*
X236Y1640D02*
X325Y1640D01*
X1133Y1640D02*
X1222Y1640D01*
X237Y1639D02*
X324Y1639D01*
X1134Y1639D02*
X1221Y1639D01*
X238Y1638D02*
X323Y1638D01*
X1135Y1638D02*
X1220Y1638D01*
X240Y1637D02*
X322Y1637D01*
X1137Y1637D02*
X1219Y1637D01*
X241Y1636D02*
X321Y1636D01*
X1138Y1636D02*
X1218Y1636D01*
X243Y1635D02*
X319Y1635D01*
X1140Y1635D02*
X1216Y1635D01*
X245Y1634D02*
X317Y1634D01*
X1142Y1634D02*
X1214Y1634D01*
X247Y1633D02*
X315Y1633D01*
X1144Y1633D02*
X1212Y1633D01*
X251Y1632D02*
X311Y1632D01*
X1148Y1632D02*
X1208Y1632D01*
X250Y1583D02*
X312Y1583D01*
X1147Y1583D02*
X1209Y1583D01*
X247Y1582D02*
X315Y1582D01*
X1144Y1582D02*
X1212Y1582D01*
X244Y1581D02*
X317Y1581D01*
X1141Y1581D02*
X1214Y1581D01*
X242Y1580D02*
X319Y1580D01*
X1139Y1580D02*
X1216Y1580D01*
X241Y1579D02*
X321Y1579D01*
X1138Y1579D02*
X1218Y1579D01*
X239Y1578D02*
X322Y1578D01*
X1136Y1578D02*
X1219Y1578D01*
X238Y1577D02*
X323Y1577D01*
X1135Y1577D02*
X1220Y1577D01*
X237Y1576D02*
X325Y1576D01*
X1134Y1576D02*
X1222Y1576D01*
X236Y1575D02*
X326Y1575D01*
X1133Y1575D02*
X1222Y1575D01*
X235Y1574D02*
X326Y1574D01*
X1132Y1574D02*
X1223Y1574D01*
X235Y1573D02*
X277Y1573D01*
X286Y1573D02*
X327Y1573D01*
X1131Y1573D02*
X1173Y1573D01*
X1182Y1573D02*
X1224Y1573D01*
X234Y1572D02*
X274Y1572D01*
X289Y1572D02*
X328Y1572D01*
X1131Y1572D02*
X1170Y1572D01*
X1185Y1572D02*
X1225Y1572D01*
X233Y1571D02*
X272Y1571D01*
X291Y1571D02*
X328Y1571D01*
X1130Y1571D02*
X1169Y1571D01*
X1187Y1571D02*
X1225Y1571D01*
X233Y1570D02*
X271Y1570D01*
X292Y1570D02*
X329Y1570D01*
X1130Y1570D02*
X1167Y1570D01*
X1188Y1570D02*
X1226Y1570D01*
X232Y1569D02*
X270Y1569D01*
X293Y1569D02*
X330Y1569D01*
X1129Y1569D02*
X1166Y1569D01*
X1189Y1569D02*
X1227Y1569D01*
X232Y1568D02*
X269Y1568D01*
X294Y1568D02*
X330Y1568D01*
X1129Y1568D02*
X1165Y1568D01*
X1190Y1568D02*
X1227Y1568D01*
X231Y1567D02*
X268Y1567D01*
X295Y1567D02*
X331Y1567D01*
X1128Y1567D02*
X1164Y1567D01*
X1191Y1567D02*
X1227Y1567D01*
X231Y1566D02*
X268Y1566D01*
X296Y1566D02*
X331Y1566D01*
X1128Y1566D02*
X1164Y1566D01*
X1192Y1566D02*
X1228Y1566D01*
X230Y1565D02*
X267Y1565D01*
X296Y1565D02*
X331Y1565D01*
X1127Y1565D02*
X1163Y1565D01*
X1192Y1565D02*
X1228Y1565D01*
X230Y1564D02*
X266Y1564D01*
X297Y1564D02*
X331Y1564D01*
X1127Y1564D02*
X1163Y1564D01*
X1193Y1564D02*
X1228Y1564D01*
X230Y1563D02*
X266Y1563D01*
X297Y1563D02*
X332Y1563D01*
X1127Y1563D02*
X1162Y1563D01*
X1193Y1563D02*
X1229Y1563D01*
X230Y1562D02*
X266Y1562D01*
X297Y1562D02*
X332Y1562D01*
X1127Y1562D02*
X1162Y1562D01*
X1194Y1562D02*
X1229Y1562D01*
X230Y1561D02*
X266Y1561D01*
X298Y1561D02*
X332Y1561D01*
X1127Y1561D02*
X1162Y1561D01*
X1194Y1561D02*
X1229Y1561D01*
X230Y1560D02*
X265Y1560D01*
X298Y1560D02*
X332Y1560D01*
X1126Y1560D02*
X1162Y1560D01*
X1194Y1560D02*
X1229Y1560D01*
X229Y1559D02*
X265Y1559D01*
X298Y1559D02*
X332Y1559D01*
X1126Y1559D02*
X1161Y1559D01*
X1194Y1559D02*
X1229Y1559D01*
X229Y1558D02*
X265Y1558D01*
X298Y1558D02*
X332Y1558D01*
X1126Y1558D02*
X1161Y1558D01*
X1194Y1558D02*
X1229Y1558D01*
X229Y1557D02*
X265Y1557D01*
X298Y1557D02*
X332Y1557D01*
X1126Y1557D02*
X1161Y1557D01*
X1194Y1557D02*
X1229Y1557D01*
X229Y1556D02*
X265Y1556D01*
X298Y1556D02*
X332Y1556D01*
X1126Y1556D02*
X1161Y1556D01*
X1194Y1556D02*
X1229Y1556D01*
X230Y1555D02*
X265Y1555D01*
X298Y1555D02*
X332Y1555D01*
X1126Y1555D02*
X1162Y1555D01*
X1194Y1555D02*
X1229Y1555D01*
X230Y1554D02*
X266Y1554D01*
X298Y1554D02*
X332Y1554D01*
X1127Y1554D02*
X1162Y1554D01*
X1194Y1554D02*
X1229Y1554D01*
X230Y1553D02*
X266Y1553D01*
X297Y1553D02*
X332Y1553D01*
X1127Y1553D02*
X1162Y1553D01*
X1193Y1553D02*
X1229Y1553D01*
X230Y1552D02*
X266Y1552D01*
X297Y1552D02*
X332Y1552D01*
X1127Y1552D02*
X1162Y1552D01*
X1193Y1552D02*
X1229Y1552D01*
X230Y1551D02*
X267Y1551D01*
X297Y1551D02*
X331Y1551D01*
X1127Y1551D02*
X1163Y1551D01*
X1193Y1551D02*
X1228Y1551D01*
X231Y1550D02*
X267Y1550D01*
X296Y1550D02*
X331Y1550D01*
X1127Y1550D02*
X1163Y1550D01*
X1192Y1550D02*
X1228Y1550D01*
X231Y1549D02*
X268Y1549D01*
X296Y1549D02*
X331Y1549D01*
X1128Y1549D02*
X1164Y1549D01*
X1192Y1549D02*
X1228Y1549D01*
X231Y1548D02*
X268Y1548D01*
X295Y1548D02*
X330Y1548D01*
X1128Y1548D02*
X1165Y1548D01*
X1191Y1548D02*
X1227Y1548D01*
X232Y1547D02*
X269Y1547D01*
X294Y1547D02*
X330Y1547D01*
X1129Y1547D02*
X1165Y1547D01*
X1190Y1547D02*
X1227Y1547D01*
X232Y1546D02*
X270Y1546D01*
X293Y1546D02*
X329Y1546D01*
X1129Y1546D02*
X1166Y1546D01*
X1189Y1546D02*
X1226Y1546D01*
X233Y1545D02*
X271Y1545D01*
X292Y1545D02*
X329Y1545D01*
X1130Y1545D02*
X1168Y1545D01*
X1188Y1545D02*
X1226Y1545D01*
X233Y1544D02*
X273Y1544D01*
X290Y1544D02*
X328Y1544D01*
X1130Y1544D02*
X1169Y1544D01*
X1187Y1544D02*
X1225Y1544D01*
X234Y1543D02*
X275Y1543D01*
X289Y1543D02*
X328Y1543D01*
X1131Y1543D02*
X1171Y1543D01*
X1185Y1543D02*
X1225Y1543D01*
X235Y1542D02*
X278Y1542D01*
X285Y1542D02*
X327Y1542D01*
X1132Y1542D02*
X1174Y1542D01*
X1182Y1542D02*
X1224Y1542D01*
X236Y1541D02*
X326Y1541D01*
X1132Y1541D02*
X1223Y1541D01*
X236Y1540D02*
X325Y1540D01*
X1133Y1540D02*
X1222Y1540D01*
X237Y1539D02*
X324Y1539D01*
X1134Y1539D02*
X1221Y1539D01*
X238Y1538D02*
X323Y1538D01*
X1135Y1538D02*
X1220Y1538D01*
X240Y1537D02*
X322Y1537D01*
X1137Y1537D02*
X1219Y1537D01*
X241Y1536D02*
X321Y1536D01*
X1138Y1536D02*
X1218Y1536D01*
X243Y1535D02*
X319Y1535D01*
X1140Y1535D02*
X1216Y1535D01*
X245Y1534D02*
X317Y1534D01*
X1142Y1534D02*
X1214Y1534D01*
X247Y1533D02*
X315Y1533D01*
X1144Y1533D02*
X1212Y1533D01*
X251Y1532D02*
X311Y1532D01*
X1148Y1532D02*
X1208Y1532D01*
X251Y1483D02*
X311Y1483D01*
X1148Y1483D02*
X1208Y1483D01*
X247Y1482D02*
X315Y1482D01*
X1144Y1482D02*
X1212Y1482D01*
X245Y1481D02*
X317Y1481D01*
X1141Y1481D02*
X1214Y1481D01*
X243Y1480D02*
X319Y1480D01*
X1140Y1480D02*
X1216Y1480D01*
X241Y1479D02*
X321Y1479D01*
X1138Y1479D02*
X1218Y1479D01*
X240Y1478D02*
X322Y1478D01*
X1137Y1478D02*
X1219Y1478D01*
X239Y1477D02*
X323Y1477D01*
X1135Y1477D02*
X1220Y1477D01*
X237Y1476D02*
X325Y1476D01*
X1134Y1476D02*
X1221Y1476D01*
X236Y1475D02*
X325Y1475D01*
X1133Y1475D02*
X1222Y1475D01*
X236Y1474D02*
X326Y1474D01*
X1132Y1474D02*
X1223Y1474D01*
X235Y1473D02*
X277Y1473D01*
X286Y1473D02*
X327Y1473D01*
X1132Y1473D02*
X1173Y1473D01*
X1182Y1473D02*
X1224Y1473D01*
X234Y1472D02*
X275Y1472D01*
X289Y1472D02*
X328Y1472D01*
X1131Y1472D02*
X1171Y1472D01*
X1185Y1472D02*
X1225Y1472D01*
X233Y1471D02*
X273Y1471D01*
X291Y1471D02*
X329Y1471D01*
X1130Y1471D02*
X1169Y1471D01*
X1187Y1471D02*
X1225Y1471D01*
X233Y1470D02*
X271Y1470D01*
X292Y1470D02*
X329Y1470D01*
X1130Y1470D02*
X1167Y1470D01*
X1188Y1470D02*
X1226Y1470D01*
X232Y1469D02*
X270Y1469D01*
X293Y1469D02*
X330Y1469D01*
X1129Y1469D02*
X1166Y1469D01*
X1189Y1469D02*
X1226Y1469D01*
X232Y1468D02*
X269Y1468D01*
X294Y1468D02*
X330Y1468D01*
X1129Y1468D02*
X1165Y1468D01*
X1190Y1468D02*
X1227Y1468D01*
X231Y1467D02*
X268Y1467D01*
X295Y1467D02*
X331Y1467D01*
X1128Y1467D02*
X1164Y1467D01*
X1191Y1467D02*
X1227Y1467D01*
X231Y1466D02*
X268Y1466D01*
X296Y1466D02*
X331Y1466D01*
X1128Y1466D02*
X1164Y1466D01*
X1192Y1466D02*
X1228Y1466D01*
X231Y1465D02*
X267Y1465D01*
X296Y1465D02*
X331Y1465D01*
X1127Y1465D02*
X1163Y1465D01*
X1192Y1465D02*
X1228Y1465D01*
X230Y1464D02*
X267Y1464D01*
X297Y1464D02*
X332Y1464D01*
X1127Y1464D02*
X1163Y1464D01*
X1193Y1464D02*
X1228Y1464D01*
X230Y1463D02*
X266Y1463D01*
X297Y1463D02*
X332Y1463D01*
X1127Y1463D02*
X1162Y1463D01*
X1193Y1463D02*
X1229Y1463D01*
X230Y1462D02*
X266Y1462D01*
X297Y1462D02*
X332Y1462D01*
X1127Y1462D02*
X1162Y1462D01*
X1194Y1462D02*
X1229Y1462D01*
X230Y1461D02*
X266Y1461D01*
X298Y1461D02*
X332Y1461D01*
X1127Y1461D02*
X1162Y1461D01*
X1194Y1461D02*
X1229Y1461D01*
X230Y1460D02*
X265Y1460D01*
X298Y1460D02*
X332Y1460D01*
X1126Y1460D02*
X1162Y1460D01*
X1194Y1460D02*
X1229Y1460D01*
X230Y1459D02*
X265Y1459D01*
X298Y1459D02*
X332Y1459D01*
X1126Y1459D02*
X1161Y1459D01*
X1194Y1459D02*
X1229Y1459D01*
X230Y1458D02*
X265Y1458D01*
X298Y1458D02*
X332Y1458D01*
X1126Y1458D02*
X1161Y1458D01*
X1194Y1458D02*
X1229Y1458D01*
X230Y1457D02*
X265Y1457D01*
X298Y1457D02*
X332Y1457D01*
X1126Y1457D02*
X1161Y1457D01*
X1194Y1457D02*
X1229Y1457D01*
X230Y1456D02*
X265Y1456D01*
X298Y1456D02*
X332Y1456D01*
X1126Y1456D02*
X1161Y1456D01*
X1194Y1456D02*
X1229Y1456D01*
X230Y1455D02*
X265Y1455D01*
X298Y1455D02*
X332Y1455D01*
X1126Y1455D02*
X1162Y1455D01*
X1194Y1455D02*
X1229Y1455D01*
X230Y1454D02*
X266Y1454D01*
X298Y1454D02*
X332Y1454D01*
X1127Y1454D02*
X1162Y1454D01*
X1194Y1454D02*
X1229Y1454D01*
X230Y1453D02*
X266Y1453D01*
X297Y1453D02*
X332Y1453D01*
X1127Y1453D02*
X1162Y1453D01*
X1194Y1453D02*
X1229Y1453D01*
X230Y1452D02*
X266Y1452D01*
X297Y1452D02*
X332Y1452D01*
X1127Y1452D02*
X1162Y1452D01*
X1193Y1452D02*
X1229Y1452D01*
X230Y1451D02*
X267Y1451D01*
X297Y1451D02*
X332Y1451D01*
X1127Y1451D02*
X1163Y1451D01*
X1193Y1451D02*
X1228Y1451D01*
X231Y1450D02*
X267Y1450D01*
X296Y1450D02*
X331Y1450D01*
X1127Y1450D02*
X1163Y1450D01*
X1192Y1450D02*
X1228Y1450D01*
X231Y1449D02*
X268Y1449D01*
X296Y1449D02*
X331Y1449D01*
X1128Y1449D02*
X1164Y1449D01*
X1192Y1449D02*
X1228Y1449D01*
X231Y1448D02*
X268Y1448D01*
X295Y1448D02*
X331Y1448D01*
X1128Y1448D02*
X1164Y1448D01*
X1191Y1448D02*
X1227Y1448D01*
X232Y1447D02*
X269Y1447D01*
X294Y1447D02*
X330Y1447D01*
X1129Y1447D02*
X1165Y1447D01*
X1190Y1447D02*
X1227Y1447D01*
X232Y1446D02*
X270Y1446D01*
X293Y1446D02*
X330Y1446D01*
X1129Y1446D02*
X1166Y1446D01*
X1189Y1446D02*
X1226Y1446D01*
X233Y1445D02*
X271Y1445D01*
X292Y1445D02*
X329Y1445D01*
X1130Y1445D02*
X1167Y1445D01*
X1188Y1445D02*
X1226Y1445D01*
X233Y1444D02*
X273Y1444D01*
X291Y1444D02*
X329Y1444D01*
X1130Y1444D02*
X1169Y1444D01*
X1187Y1444D02*
X1225Y1444D01*
X234Y1443D02*
X275Y1443D01*
X289Y1443D02*
X328Y1443D01*
X1131Y1443D02*
X1171Y1443D01*
X1185Y1443D02*
X1225Y1443D01*
X235Y1442D02*
X277Y1442D01*
X286Y1442D02*
X327Y1442D01*
X1132Y1442D02*
X1174Y1442D01*
X1182Y1442D02*
X1224Y1442D01*
X236Y1441D02*
X326Y1441D01*
X1132Y1441D02*
X1223Y1441D01*
X236Y1440D02*
X326Y1440D01*
X1133Y1440D02*
X1222Y1440D01*
X237Y1439D02*
X325Y1439D01*
X1134Y1439D02*
X1222Y1439D01*
X238Y1438D02*
X323Y1438D01*
X1135Y1438D02*
X1220Y1438D01*
X240Y1437D02*
X322Y1437D01*
X1136Y1437D02*
X1219Y1437D01*
X241Y1436D02*
X321Y1436D01*
X1138Y1436D02*
X1218Y1436D01*
X243Y1435D02*
X319Y1435D01*
X1139Y1435D02*
X1216Y1435D01*
X244Y1434D02*
X317Y1434D01*
X1141Y1434D02*
X1214Y1434D01*
X247Y1433D02*
X315Y1433D01*
X1144Y1433D02*
X1212Y1433D01*
X250Y1432D02*
X312Y1432D01*
X1147Y1432D02*
X1208Y1432D01*
X251Y1383D02*
X311Y1383D01*
X1148Y1383D02*
X1208Y1383D01*
X247Y1382D02*
X315Y1382D01*
X1144Y1382D02*
X1212Y1382D01*
X245Y1381D02*
X317Y1381D01*
X1141Y1381D02*
X1214Y1381D01*
X243Y1380D02*
X319Y1380D01*
X1140Y1380D02*
X1216Y1380D01*
X241Y1379D02*
X321Y1379D01*
X1138Y1379D02*
X1218Y1379D01*
X240Y1378D02*
X322Y1378D01*
X1137Y1378D02*
X1219Y1378D01*
X238Y1377D02*
X323Y1377D01*
X1135Y1377D02*
X1220Y1377D01*
X237Y1376D02*
X324Y1376D01*
X1134Y1376D02*
X1221Y1376D01*
X236Y1375D02*
X325Y1375D01*
X1133Y1375D02*
X1222Y1375D01*
X235Y1374D02*
X326Y1374D01*
X1132Y1374D02*
X1223Y1374D01*
X235Y1373D02*
X277Y1373D01*
X286Y1373D02*
X327Y1373D01*
X1132Y1373D02*
X1173Y1373D01*
X1182Y1373D02*
X1224Y1373D01*
X234Y1372D02*
X274Y1372D01*
X289Y1372D02*
X328Y1372D01*
X1131Y1372D02*
X1170Y1372D01*
X1185Y1372D02*
X1225Y1372D01*
X233Y1371D02*
X272Y1371D01*
X291Y1371D02*
X328Y1371D01*
X1130Y1371D02*
X1169Y1371D01*
X1187Y1371D02*
X1225Y1371D01*
X233Y1370D02*
X271Y1370D01*
X292Y1370D02*
X329Y1370D01*
X1130Y1370D02*
X1167Y1370D01*
X1188Y1370D02*
X1226Y1370D01*
X232Y1369D02*
X270Y1369D01*
X293Y1369D02*
X330Y1369D01*
X1129Y1369D02*
X1166Y1369D01*
X1190Y1369D02*
X1226Y1369D01*
X232Y1368D02*
X269Y1368D01*
X294Y1368D02*
X330Y1368D01*
X1129Y1368D02*
X1165Y1368D01*
X1190Y1368D02*
X1227Y1368D01*
X231Y1367D02*
X268Y1367D01*
X295Y1367D02*
X330Y1367D01*
X1128Y1367D02*
X1164Y1367D01*
X1191Y1367D02*
X1227Y1367D01*
X231Y1366D02*
X267Y1366D01*
X296Y1366D02*
X331Y1366D01*
X1128Y1366D02*
X1164Y1366D01*
X1192Y1366D02*
X1228Y1366D01*
X231Y1365D02*
X267Y1365D01*
X296Y1365D02*
X331Y1365D01*
X1127Y1365D02*
X1163Y1365D01*
X1193Y1365D02*
X1228Y1365D01*
X230Y1364D02*
X266Y1364D01*
X297Y1364D02*
X331Y1364D01*
X1127Y1364D02*
X1162Y1364D01*
X1193Y1364D02*
X1228Y1364D01*
X230Y1363D02*
X266Y1363D01*
X297Y1363D02*
X332Y1363D01*
X1127Y1363D02*
X1162Y1363D01*
X1193Y1363D02*
X1229Y1363D01*
X230Y1362D02*
X266Y1362D01*
X298Y1362D02*
X332Y1362D01*
X1127Y1362D02*
X1162Y1362D01*
X1194Y1362D02*
X1229Y1362D01*
X230Y1361D02*
X265Y1361D01*
X298Y1361D02*
X332Y1361D01*
X1127Y1361D02*
X1161Y1361D01*
X1194Y1361D02*
X1229Y1361D01*
X230Y1360D02*
X265Y1360D01*
X298Y1360D02*
X332Y1360D01*
X1126Y1360D02*
X1161Y1360D01*
X1194Y1360D02*
X1229Y1360D01*
X229Y1359D02*
X265Y1359D01*
X298Y1359D02*
X332Y1359D01*
X1126Y1359D02*
X1161Y1359D01*
X1194Y1359D02*
X1229Y1359D01*
X229Y1358D02*
X265Y1358D01*
X298Y1358D02*
X332Y1358D01*
X1126Y1358D02*
X1161Y1358D01*
X1194Y1358D02*
X1229Y1358D01*
X229Y1357D02*
X265Y1357D01*
X298Y1357D02*
X332Y1357D01*
X1126Y1357D02*
X1161Y1357D01*
X1194Y1357D02*
X1229Y1357D01*
X229Y1356D02*
X265Y1356D01*
X298Y1356D02*
X332Y1356D01*
X1126Y1356D02*
X1161Y1356D01*
X1194Y1356D02*
X1229Y1356D01*
X230Y1355D02*
X265Y1355D01*
X298Y1355D02*
X332Y1355D01*
X1126Y1355D02*
X1161Y1355D01*
X1194Y1355D02*
X1229Y1355D01*
X230Y1354D02*
X265Y1354D01*
X298Y1354D02*
X332Y1354D01*
X1127Y1354D02*
X1162Y1354D01*
X1194Y1354D02*
X1229Y1354D01*
X230Y1353D02*
X266Y1353D01*
X298Y1353D02*
X332Y1353D01*
X1127Y1353D02*
X1162Y1353D01*
X1194Y1353D02*
X1229Y1353D01*
X230Y1352D02*
X266Y1352D01*
X297Y1352D02*
X332Y1352D01*
X1127Y1352D02*
X1162Y1352D01*
X1193Y1352D02*
X1229Y1352D01*
X230Y1351D02*
X266Y1351D01*
X297Y1351D02*
X331Y1351D01*
X1127Y1351D02*
X1163Y1351D01*
X1193Y1351D02*
X1228Y1351D01*
X230Y1350D02*
X267Y1350D01*
X296Y1350D02*
X331Y1350D01*
X1127Y1350D02*
X1163Y1350D01*
X1193Y1350D02*
X1228Y1350D01*
X231Y1349D02*
X267Y1349D01*
X296Y1349D02*
X331Y1349D01*
X1128Y1349D02*
X1164Y1349D01*
X1192Y1349D02*
X1228Y1349D01*
X231Y1348D02*
X268Y1348D01*
X295Y1348D02*
X331Y1348D01*
X1128Y1348D02*
X1164Y1348D01*
X1191Y1348D02*
X1227Y1348D01*
X232Y1347D02*
X269Y1347D01*
X294Y1347D02*
X330Y1347D01*
X1129Y1347D02*
X1165Y1347D01*
X1190Y1347D02*
X1227Y1347D01*
X232Y1346D02*
X270Y1346D01*
X293Y1346D02*
X330Y1346D01*
X1129Y1346D02*
X1166Y1346D01*
X1190Y1346D02*
X1226Y1346D01*
X233Y1345D02*
X271Y1345D01*
X292Y1345D02*
X329Y1345D01*
X1130Y1345D02*
X1167Y1345D01*
X1188Y1345D02*
X1226Y1345D01*
X233Y1344D02*
X272Y1344D01*
X291Y1344D02*
X328Y1344D01*
X1130Y1344D02*
X1169Y1344D01*
X1187Y1344D02*
X1225Y1344D01*
X234Y1343D02*
X274Y1343D01*
X289Y1343D02*
X328Y1343D01*
X1131Y1343D02*
X1170Y1343D01*
X1185Y1343D02*
X1225Y1343D01*
X235Y1342D02*
X277Y1342D01*
X286Y1342D02*
X327Y1342D01*
X1132Y1342D02*
X1173Y1342D01*
X1182Y1342D02*
X1224Y1342D01*
X235Y1341D02*
X326Y1341D01*
X1132Y1341D02*
X1223Y1341D01*
X236Y1340D02*
X325Y1340D01*
X1133Y1340D02*
X1222Y1340D01*
X237Y1339D02*
X325Y1339D01*
X1134Y1339D02*
X1222Y1339D01*
X238Y1338D02*
X323Y1338D01*
X1135Y1338D02*
X1220Y1338D01*
X240Y1337D02*
X322Y1337D01*
X1136Y1337D02*
X1219Y1337D01*
X241Y1336D02*
X321Y1336D01*
X1138Y1336D02*
X1218Y1336D01*
X243Y1335D02*
X319Y1335D01*
X1139Y1335D02*
X1216Y1335D01*
X244Y1334D02*
X317Y1334D01*
X1141Y1334D02*
X1214Y1334D01*
X247Y1333D02*
X315Y1333D01*
X1144Y1333D02*
X1212Y1333D01*
X250Y1332D02*
X312Y1332D01*
X1147Y1332D02*
X1208Y1332D01*
X251Y1283D02*
X311Y1283D01*
X1148Y1283D02*
X1208Y1283D01*
X247Y1282D02*
X315Y1282D01*
X1144Y1282D02*
X1212Y1282D01*
X244Y1281D02*
X317Y1281D01*
X1141Y1281D02*
X1214Y1281D01*
X243Y1280D02*
X319Y1280D01*
X1140Y1280D02*
X1216Y1280D01*
X241Y1279D02*
X321Y1279D01*
X1138Y1279D02*
X1218Y1279D01*
X240Y1278D02*
X322Y1278D01*
X1137Y1278D02*
X1219Y1278D01*
X238Y1277D02*
X323Y1277D01*
X1135Y1277D02*
X1220Y1277D01*
X237Y1276D02*
X325Y1276D01*
X1134Y1276D02*
X1221Y1276D01*
X236Y1275D02*
X325Y1275D01*
X1133Y1275D02*
X1222Y1275D01*
X235Y1274D02*
X326Y1274D01*
X1132Y1274D02*
X1223Y1274D01*
X235Y1273D02*
X277Y1273D01*
X286Y1273D02*
X327Y1273D01*
X1132Y1273D02*
X1173Y1273D01*
X1182Y1273D02*
X1224Y1273D01*
X234Y1272D02*
X274Y1272D01*
X289Y1272D02*
X328Y1272D01*
X1131Y1272D02*
X1170Y1272D01*
X1185Y1272D02*
X1225Y1272D01*
X233Y1271D02*
X272Y1271D01*
X291Y1271D02*
X328Y1271D01*
X1130Y1271D02*
X1169Y1271D01*
X1187Y1271D02*
X1225Y1271D01*
X233Y1270D02*
X271Y1270D01*
X292Y1270D02*
X329Y1270D01*
X1130Y1270D02*
X1167Y1270D01*
X1188Y1270D02*
X1226Y1270D01*
X232Y1269D02*
X270Y1269D01*
X293Y1269D02*
X330Y1269D01*
X1129Y1269D02*
X1166Y1269D01*
X1190Y1269D02*
X1226Y1269D01*
X232Y1268D02*
X269Y1268D01*
X294Y1268D02*
X330Y1268D01*
X1129Y1268D02*
X1165Y1268D01*
X1190Y1268D02*
X1227Y1268D01*
X231Y1267D02*
X268Y1267D01*
X295Y1267D02*
X331Y1267D01*
X1128Y1267D02*
X1164Y1267D01*
X1191Y1267D02*
X1227Y1267D01*
X231Y1266D02*
X267Y1266D01*
X296Y1266D02*
X331Y1266D01*
X1128Y1266D02*
X1164Y1266D01*
X1192Y1266D02*
X1228Y1266D01*
X230Y1265D02*
X267Y1265D01*
X296Y1265D02*
X331Y1265D01*
X1127Y1265D02*
X1163Y1265D01*
X1193Y1265D02*
X1228Y1265D01*
X230Y1264D02*
X266Y1264D01*
X297Y1264D02*
X331Y1264D01*
X1127Y1264D02*
X1162Y1264D01*
X1193Y1264D02*
X1228Y1264D01*
X230Y1263D02*
X266Y1263D01*
X297Y1263D02*
X332Y1263D01*
X1127Y1263D02*
X1162Y1263D01*
X1193Y1263D02*
X1229Y1263D01*
X230Y1262D02*
X266Y1262D01*
X298Y1262D02*
X332Y1262D01*
X1127Y1262D02*
X1162Y1262D01*
X1194Y1262D02*
X1229Y1262D01*
X230Y1261D02*
X265Y1261D01*
X298Y1261D02*
X332Y1261D01*
X1127Y1261D02*
X1161Y1261D01*
X1194Y1261D02*
X1229Y1261D01*
X229Y1260D02*
X265Y1260D01*
X298Y1260D02*
X332Y1260D01*
X1126Y1260D02*
X1161Y1260D01*
X1194Y1260D02*
X1229Y1260D01*
X229Y1259D02*
X265Y1259D01*
X298Y1259D02*
X332Y1259D01*
X1126Y1259D02*
X1161Y1259D01*
X1194Y1259D02*
X1229Y1259D01*
X229Y1258D02*
X265Y1258D01*
X298Y1258D02*
X332Y1258D01*
X1126Y1258D02*
X1161Y1258D01*
X1194Y1258D02*
X1229Y1258D01*
X229Y1257D02*
X265Y1257D01*
X298Y1257D02*
X332Y1257D01*
X1126Y1257D02*
X1161Y1257D01*
X1194Y1257D02*
X1229Y1257D01*
X229Y1256D02*
X265Y1256D01*
X298Y1256D02*
X332Y1256D01*
X1126Y1256D02*
X1161Y1256D01*
X1194Y1256D02*
X1229Y1256D01*
X229Y1255D02*
X265Y1255D01*
X298Y1255D02*
X332Y1255D01*
X1126Y1255D02*
X1161Y1255D01*
X1194Y1255D02*
X1229Y1255D01*
X230Y1254D02*
X265Y1254D01*
X298Y1254D02*
X332Y1254D01*
X1127Y1254D02*
X1162Y1254D01*
X1194Y1254D02*
X1229Y1254D01*
X230Y1253D02*
X266Y1253D01*
X298Y1253D02*
X332Y1253D01*
X1127Y1253D02*
X1162Y1253D01*
X1194Y1253D02*
X1229Y1253D01*
X230Y1252D02*
X266Y1252D01*
X297Y1252D02*
X332Y1252D01*
X1127Y1252D02*
X1162Y1252D01*
X1193Y1252D02*
X1229Y1252D01*
X230Y1251D02*
X266Y1251D01*
X297Y1251D02*
X331Y1251D01*
X1127Y1251D02*
X1163Y1251D01*
X1193Y1251D02*
X1228Y1251D01*
X230Y1250D02*
X267Y1250D01*
X296Y1250D02*
X331Y1250D01*
X1127Y1250D02*
X1163Y1250D01*
X1193Y1250D02*
X1228Y1250D01*
X231Y1249D02*
X267Y1249D01*
X296Y1249D02*
X331Y1249D01*
X1128Y1249D02*
X1164Y1249D01*
X1192Y1249D02*
X1228Y1249D01*
X231Y1248D02*
X268Y1248D01*
X295Y1248D02*
X331Y1248D01*
X1128Y1248D02*
X1164Y1248D01*
X1191Y1248D02*
X1227Y1248D01*
X232Y1247D02*
X269Y1247D01*
X294Y1247D02*
X330Y1247D01*
X1129Y1247D02*
X1165Y1247D01*
X1190Y1247D02*
X1227Y1247D01*
X232Y1246D02*
X270Y1246D01*
X293Y1246D02*
X330Y1246D01*
X1129Y1246D02*
X1166Y1246D01*
X1190Y1246D02*
X1226Y1246D01*
X233Y1245D02*
X271Y1245D01*
X292Y1245D02*
X329Y1245D01*
X1130Y1245D02*
X1167Y1245D01*
X1188Y1245D02*
X1226Y1245D01*
X233Y1244D02*
X272Y1244D01*
X291Y1244D02*
X328Y1244D01*
X1130Y1244D02*
X1169Y1244D01*
X1187Y1244D02*
X1225Y1244D01*
X234Y1243D02*
X274Y1243D01*
X289Y1243D02*
X328Y1243D01*
X1131Y1243D02*
X1170Y1243D01*
X1185Y1243D02*
X1225Y1243D01*
X235Y1242D02*
X277Y1242D01*
X286Y1242D02*
X327Y1242D01*
X1132Y1242D02*
X1173Y1242D01*
X1182Y1242D02*
X1224Y1242D01*
X235Y1241D02*
X326Y1241D01*
X1132Y1241D02*
X1223Y1241D01*
X236Y1240D02*
X325Y1240D01*
X1133Y1240D02*
X1222Y1240D01*
X237Y1239D02*
X325Y1239D01*
X1134Y1239D02*
X1222Y1239D01*
X238Y1238D02*
X323Y1238D01*
X1135Y1238D02*
X1220Y1238D01*
X239Y1237D02*
X322Y1237D01*
X1136Y1237D02*
X1219Y1237D01*
X241Y1236D02*
X321Y1236D01*
X1138Y1236D02*
X1218Y1236D01*
X242Y1235D02*
X319Y1235D01*
X1139Y1235D02*
X1216Y1235D01*
X244Y1234D02*
X317Y1234D01*
X1141Y1234D02*
X1214Y1234D01*
X247Y1233D02*
X315Y1233D01*
X1144Y1233D02*
X1212Y1233D01*
X250Y1232D02*
X312Y1232D01*
X1147Y1232D02*
X1208Y1232D01*
X251Y1183D02*
X311Y1183D01*
X1148Y1183D02*
X1208Y1183D01*
X247Y1182D02*
X315Y1182D01*
X1144Y1182D02*
X1212Y1182D01*
X245Y1181D02*
X317Y1181D01*
X1141Y1181D02*
X1214Y1181D01*
X243Y1180D02*
X319Y1180D01*
X1140Y1180D02*
X1216Y1180D01*
X241Y1179D02*
X321Y1179D01*
X1138Y1179D02*
X1218Y1179D01*
X240Y1178D02*
X322Y1178D01*
X1137Y1178D02*
X1219Y1178D01*
X238Y1177D02*
X323Y1177D01*
X1135Y1177D02*
X1220Y1177D01*
X237Y1176D02*
X325Y1176D01*
X1134Y1176D02*
X1221Y1176D01*
X236Y1175D02*
X325Y1175D01*
X1133Y1175D02*
X1222Y1175D01*
X235Y1174D02*
X326Y1174D01*
X1132Y1174D02*
X1223Y1174D01*
X235Y1173D02*
X277Y1173D01*
X286Y1173D02*
X327Y1173D01*
X1132Y1173D02*
X1173Y1173D01*
X1182Y1173D02*
X1224Y1173D01*
X234Y1172D02*
X274Y1172D01*
X289Y1172D02*
X328Y1172D01*
X1131Y1172D02*
X1170Y1172D01*
X1185Y1172D02*
X1225Y1172D01*
X233Y1171D02*
X272Y1171D01*
X291Y1171D02*
X328Y1171D01*
X1130Y1171D02*
X1169Y1171D01*
X1187Y1171D02*
X1225Y1171D01*
X233Y1170D02*
X271Y1170D01*
X292Y1170D02*
X329Y1170D01*
X1130Y1170D02*
X1167Y1170D01*
X1188Y1170D02*
X1226Y1170D01*
X232Y1169D02*
X270Y1169D01*
X293Y1169D02*
X330Y1169D01*
X1129Y1169D02*
X1166Y1169D01*
X1190Y1169D02*
X1226Y1169D01*
X232Y1168D02*
X269Y1168D01*
X294Y1168D02*
X330Y1168D01*
X1129Y1168D02*
X1165Y1168D01*
X1190Y1168D02*
X1227Y1168D01*
X231Y1167D02*
X268Y1167D01*
X295Y1167D02*
X330Y1167D01*
X1128Y1167D02*
X1164Y1167D01*
X1191Y1167D02*
X1227Y1167D01*
X231Y1166D02*
X267Y1166D01*
X296Y1166D02*
X331Y1166D01*
X1128Y1166D02*
X1164Y1166D01*
X1192Y1166D02*
X1228Y1166D01*
X231Y1165D02*
X267Y1165D01*
X296Y1165D02*
X331Y1165D01*
X1127Y1165D02*
X1163Y1165D01*
X1193Y1165D02*
X1228Y1165D01*
X230Y1164D02*
X266Y1164D01*
X297Y1164D02*
X331Y1164D01*
X1127Y1164D02*
X1162Y1164D01*
X1193Y1164D02*
X1228Y1164D01*
X230Y1163D02*
X266Y1163D01*
X297Y1163D02*
X332Y1163D01*
X1127Y1163D02*
X1162Y1163D01*
X1193Y1163D02*
X1229Y1163D01*
X230Y1162D02*
X266Y1162D01*
X298Y1162D02*
X332Y1162D01*
X1127Y1162D02*
X1162Y1162D01*
X1194Y1162D02*
X1229Y1162D01*
X230Y1161D02*
X265Y1161D01*
X298Y1161D02*
X332Y1161D01*
X1127Y1161D02*
X1161Y1161D01*
X1194Y1161D02*
X1229Y1161D01*
X230Y1160D02*
X265Y1160D01*
X298Y1160D02*
X332Y1160D01*
X1126Y1160D02*
X1161Y1160D01*
X1194Y1160D02*
X1229Y1160D01*
X229Y1159D02*
X265Y1159D01*
X298Y1159D02*
X332Y1159D01*
X1126Y1159D02*
X1161Y1159D01*
X1194Y1159D02*
X1229Y1159D01*
X229Y1158D02*
X265Y1158D01*
X298Y1158D02*
X332Y1158D01*
X1126Y1158D02*
X1161Y1158D01*
X1194Y1158D02*
X1229Y1158D01*
X229Y1157D02*
X265Y1157D01*
X298Y1157D02*
X332Y1157D01*
X1126Y1157D02*
X1161Y1157D01*
X1194Y1157D02*
X1229Y1157D01*
X229Y1156D02*
X265Y1156D01*
X298Y1156D02*
X332Y1156D01*
X1126Y1156D02*
X1161Y1156D01*
X1194Y1156D02*
X1229Y1156D01*
X230Y1155D02*
X265Y1155D01*
X298Y1155D02*
X332Y1155D01*
X1126Y1155D02*
X1161Y1155D01*
X1194Y1155D02*
X1229Y1155D01*
X230Y1154D02*
X265Y1154D01*
X298Y1154D02*
X332Y1154D01*
X1127Y1154D02*
X1162Y1154D01*
X1194Y1154D02*
X1229Y1154D01*
X230Y1153D02*
X266Y1153D01*
X298Y1153D02*
X332Y1153D01*
X1127Y1153D02*
X1162Y1153D01*
X1194Y1153D02*
X1229Y1153D01*
X230Y1152D02*
X266Y1152D01*
X297Y1152D02*
X332Y1152D01*
X1127Y1152D02*
X1162Y1152D01*
X1193Y1152D02*
X1229Y1152D01*
X230Y1151D02*
X266Y1151D01*
X297Y1151D02*
X331Y1151D01*
X1127Y1151D02*
X1163Y1151D01*
X1193Y1151D02*
X1228Y1151D01*
X230Y1150D02*
X267Y1150D01*
X296Y1150D02*
X331Y1150D01*
X1127Y1150D02*
X1163Y1150D01*
X1193Y1150D02*
X1228Y1150D01*
X231Y1149D02*
X267Y1149D01*
X296Y1149D02*
X331Y1149D01*
X1128Y1149D02*
X1164Y1149D01*
X1192Y1149D02*
X1228Y1149D01*
X231Y1148D02*
X268Y1148D01*
X295Y1148D02*
X331Y1148D01*
X1128Y1148D02*
X1164Y1148D01*
X1191Y1148D02*
X1227Y1148D01*
X232Y1147D02*
X269Y1147D01*
X294Y1147D02*
X330Y1147D01*
X1129Y1147D02*
X1165Y1147D01*
X1190Y1147D02*
X1227Y1147D01*
X232Y1146D02*
X270Y1146D01*
X293Y1146D02*
X330Y1146D01*
X1129Y1146D02*
X1166Y1146D01*
X1190Y1146D02*
X1226Y1146D01*
X233Y1145D02*
X271Y1145D01*
X292Y1145D02*
X329Y1145D01*
X1130Y1145D02*
X1167Y1145D01*
X1188Y1145D02*
X1226Y1145D01*
X233Y1144D02*
X272Y1144D01*
X291Y1144D02*
X328Y1144D01*
X1130Y1144D02*
X1169Y1144D01*
X1187Y1144D02*
X1225Y1144D01*
X234Y1143D02*
X274Y1143D01*
X289Y1143D02*
X328Y1143D01*
X1131Y1143D02*
X1170Y1143D01*
X1185Y1143D02*
X1225Y1143D01*
X235Y1142D02*
X277Y1142D01*
X286Y1142D02*
X327Y1142D01*
X1132Y1142D02*
X1173Y1142D01*
X1182Y1142D02*
X1224Y1142D01*
X235Y1141D02*
X326Y1141D01*
X1132Y1141D02*
X1223Y1141D01*
X236Y1140D02*
X325Y1140D01*
X1133Y1140D02*
X1222Y1140D01*
X237Y1139D02*
X325Y1139D01*
X1134Y1139D02*
X1222Y1139D01*
X238Y1138D02*
X323Y1138D01*
X1135Y1138D02*
X1220Y1138D01*
X240Y1137D02*
X322Y1137D01*
X1136Y1137D02*
X1219Y1137D01*
X241Y1136D02*
X321Y1136D01*
X1138Y1136D02*
X1218Y1136D01*
X243Y1135D02*
X319Y1135D01*
X1139Y1135D02*
X1216Y1135D01*
X244Y1134D02*
X317Y1134D01*
X1141Y1134D02*
X1214Y1134D01*
X247Y1133D02*
X315Y1133D01*
X1144Y1133D02*
X1212Y1133D01*
X250Y1132D02*
X311Y1132D01*
X1147Y1132D02*
X1208Y1132D01*
X250Y1083D02*
X311Y1083D01*
X1147Y1083D02*
X1208Y1083D01*
X247Y1082D02*
X315Y1082D01*
X1144Y1082D02*
X1212Y1082D01*
X244Y1081D02*
X317Y1081D01*
X1141Y1081D02*
X1214Y1081D01*
X243Y1080D02*
X319Y1080D01*
X1140Y1080D02*
X1216Y1080D01*
X241Y1079D02*
X321Y1079D01*
X1138Y1079D02*
X1218Y1079D01*
X240Y1078D02*
X322Y1078D01*
X1137Y1078D02*
X1219Y1078D01*
X238Y1077D02*
X323Y1077D01*
X1135Y1077D02*
X1220Y1077D01*
X237Y1076D02*
X325Y1076D01*
X1134Y1076D02*
X1221Y1076D01*
X236Y1075D02*
X325Y1075D01*
X1133Y1075D02*
X1222Y1075D01*
X235Y1074D02*
X326Y1074D01*
X1132Y1074D02*
X1223Y1074D01*
X235Y1073D02*
X277Y1073D01*
X286Y1073D02*
X327Y1073D01*
X1132Y1073D02*
X1173Y1073D01*
X1182Y1073D02*
X1224Y1073D01*
X234Y1072D02*
X274Y1072D01*
X289Y1072D02*
X328Y1072D01*
X1131Y1072D02*
X1171Y1072D01*
X1185Y1072D02*
X1225Y1072D01*
X233Y1071D02*
X273Y1071D01*
X291Y1071D02*
X328Y1071D01*
X1130Y1071D02*
X1169Y1071D01*
X1187Y1071D02*
X1225Y1071D01*
X233Y1070D02*
X271Y1070D01*
X292Y1070D02*
X329Y1070D01*
X1130Y1070D02*
X1167Y1070D01*
X1188Y1070D02*
X1226Y1070D01*
X232Y1069D02*
X270Y1069D01*
X293Y1069D02*
X330Y1069D01*
X1129Y1069D02*
X1166Y1069D01*
X1189Y1069D02*
X1226Y1069D01*
X232Y1068D02*
X269Y1068D01*
X294Y1068D02*
X330Y1068D01*
X1129Y1068D02*
X1165Y1068D01*
X1190Y1068D02*
X1227Y1068D01*
X231Y1067D02*
X268Y1067D01*
X295Y1067D02*
X331Y1067D01*
X1128Y1067D02*
X1164Y1067D01*
X1191Y1067D02*
X1227Y1067D01*
X231Y1066D02*
X268Y1066D01*
X296Y1066D02*
X331Y1066D01*
X1128Y1066D02*
X1164Y1066D01*
X1192Y1066D02*
X1228Y1066D01*
X230Y1065D02*
X267Y1065D01*
X296Y1065D02*
X331Y1065D01*
X1127Y1065D02*
X1163Y1065D01*
X1192Y1065D02*
X1228Y1065D01*
X230Y1064D02*
X267Y1064D01*
X297Y1064D02*
X331Y1064D01*
X1127Y1064D02*
X1163Y1064D01*
X1193Y1064D02*
X1228Y1064D01*
X230Y1063D02*
X266Y1063D01*
X297Y1063D02*
X332Y1063D01*
X1127Y1063D02*
X1162Y1063D01*
X1193Y1063D02*
X1229Y1063D01*
X230Y1062D02*
X266Y1062D01*
X297Y1062D02*
X332Y1062D01*
X1127Y1062D02*
X1162Y1062D01*
X1194Y1062D02*
X1229Y1062D01*
X230Y1061D02*
X266Y1061D01*
X298Y1061D02*
X332Y1061D01*
X1127Y1061D02*
X1162Y1061D01*
X1194Y1061D02*
X1229Y1061D01*
X229Y1060D02*
X265Y1060D01*
X298Y1060D02*
X332Y1060D01*
X1126Y1060D02*
X1162Y1060D01*
X1194Y1060D02*
X1229Y1060D01*
X229Y1059D02*
X265Y1059D01*
X298Y1059D02*
X332Y1059D01*
X1126Y1059D02*
X1161Y1059D01*
X1194Y1059D02*
X1229Y1059D01*
X229Y1058D02*
X265Y1058D01*
X298Y1058D02*
X332Y1058D01*
X1126Y1058D02*
X1161Y1058D01*
X1194Y1058D02*
X1229Y1058D01*
X229Y1057D02*
X265Y1057D01*
X298Y1057D02*
X332Y1057D01*
X1126Y1057D02*
X1161Y1057D01*
X1194Y1057D02*
X1229Y1057D01*
X229Y1056D02*
X265Y1056D01*
X298Y1056D02*
X332Y1056D01*
X1126Y1056D02*
X1161Y1056D01*
X1194Y1056D02*
X1229Y1056D01*
X229Y1055D02*
X265Y1055D01*
X298Y1055D02*
X332Y1055D01*
X1126Y1055D02*
X1162Y1055D01*
X1194Y1055D02*
X1229Y1055D01*
X230Y1054D02*
X266Y1054D01*
X298Y1054D02*
X332Y1054D01*
X1127Y1054D02*
X1162Y1054D01*
X1194Y1054D02*
X1229Y1054D01*
X230Y1053D02*
X266Y1053D01*
X297Y1053D02*
X332Y1053D01*
X1127Y1053D02*
X1162Y1053D01*
X1194Y1053D02*
X1229Y1053D01*
X230Y1052D02*
X266Y1052D01*
X297Y1052D02*
X332Y1052D01*
X1127Y1052D02*
X1162Y1052D01*
X1193Y1052D02*
X1229Y1052D01*
X230Y1051D02*
X267Y1051D01*
X297Y1051D02*
X331Y1051D01*
X1127Y1051D02*
X1163Y1051D01*
X1193Y1051D02*
X1228Y1051D01*
X230Y1050D02*
X267Y1050D01*
X296Y1050D02*
X331Y1050D01*
X1127Y1050D02*
X1163Y1050D01*
X1192Y1050D02*
X1228Y1050D01*
X231Y1049D02*
X268Y1049D01*
X296Y1049D02*
X331Y1049D01*
X1128Y1049D02*
X1164Y1049D01*
X1192Y1049D02*
X1228Y1049D01*
X231Y1048D02*
X268Y1048D01*
X295Y1048D02*
X331Y1048D01*
X1128Y1048D02*
X1165Y1048D01*
X1191Y1048D02*
X1227Y1048D01*
X232Y1047D02*
X269Y1047D01*
X294Y1047D02*
X330Y1047D01*
X1129Y1047D02*
X1165Y1047D01*
X1190Y1047D02*
X1227Y1047D01*
X232Y1046D02*
X270Y1046D01*
X293Y1046D02*
X330Y1046D01*
X1129Y1046D02*
X1166Y1046D01*
X1189Y1046D02*
X1226Y1046D01*
X233Y1045D02*
X271Y1045D01*
X292Y1045D02*
X329Y1045D01*
X1130Y1045D02*
X1167Y1045D01*
X1188Y1045D02*
X1226Y1045D01*
X233Y1044D02*
X273Y1044D01*
X291Y1044D02*
X328Y1044D01*
X1130Y1044D02*
X1169Y1044D01*
X1187Y1044D02*
X1225Y1044D01*
X234Y1043D02*
X275Y1043D01*
X289Y1043D02*
X328Y1043D01*
X1131Y1043D02*
X1171Y1043D01*
X1185Y1043D02*
X1225Y1043D01*
X235Y1042D02*
X277Y1042D01*
X286Y1042D02*
X327Y1042D01*
X1132Y1042D02*
X1174Y1042D01*
X1182Y1042D02*
X1224Y1042D01*
X235Y1041D02*
X326Y1041D01*
X1132Y1041D02*
X1223Y1041D01*
X236Y1040D02*
X325Y1040D01*
X1133Y1040D02*
X1222Y1040D01*
X237Y1039D02*
X325Y1039D01*
X1134Y1039D02*
X1222Y1039D01*
X238Y1038D02*
X323Y1038D01*
X1135Y1038D02*
X1220Y1038D01*
X240Y1037D02*
X322Y1037D01*
X1136Y1037D02*
X1219Y1037D01*
X241Y1036D02*
X321Y1036D01*
X1138Y1036D02*
X1218Y1036D01*
X243Y1035D02*
X319Y1035D01*
X1139Y1035D02*
X1216Y1035D01*
X244Y1034D02*
X317Y1034D01*
X1141Y1034D02*
X1214Y1034D01*
X247Y1033D02*
X315Y1033D01*
X1144Y1033D02*
X1212Y1033D01*
X250Y1032D02*
X311Y1032D01*
X1147Y1032D02*
X1208Y1032D01*
X251Y983D02*
X311Y983D01*
X1147Y983D02*
X1208Y983D01*
X247Y982D02*
X315Y982D01*
X1144Y982D02*
X1212Y982D01*
X244Y981D02*
X317Y981D01*
X1141Y981D02*
X1214Y981D01*
X243Y980D02*
X319Y980D01*
X1140Y980D02*
X1216Y980D01*
X241Y979D02*
X321Y979D01*
X1138Y979D02*
X1218Y979D01*
X240Y978D02*
X322Y978D01*
X1137Y978D02*
X1219Y978D01*
X238Y977D02*
X323Y977D01*
X1135Y977D02*
X1220Y977D01*
X237Y976D02*
X325Y976D01*
X1134Y976D02*
X1221Y976D01*
X236Y975D02*
X325Y975D01*
X1133Y975D02*
X1222Y975D01*
X235Y974D02*
X326Y974D01*
X1132Y974D02*
X1223Y974D01*
X235Y973D02*
X277Y973D01*
X286Y973D02*
X327Y973D01*
X1132Y973D02*
X1173Y973D01*
X1182Y973D02*
X1224Y973D01*
X234Y972D02*
X274Y972D01*
X289Y972D02*
X328Y972D01*
X1131Y972D02*
X1171Y972D01*
X1185Y972D02*
X1225Y972D01*
X233Y971D02*
X273Y971D01*
X291Y971D02*
X328Y971D01*
X1130Y971D02*
X1169Y971D01*
X1187Y971D02*
X1225Y971D01*
X233Y970D02*
X271Y970D01*
X292Y970D02*
X329Y970D01*
X1130Y970D02*
X1167Y970D01*
X1188Y970D02*
X1226Y970D01*
X232Y969D02*
X270Y969D01*
X293Y969D02*
X330Y969D01*
X1129Y969D02*
X1166Y969D01*
X1189Y969D02*
X1226Y969D01*
X232Y968D02*
X269Y968D01*
X294Y968D02*
X330Y968D01*
X1129Y968D02*
X1165Y968D01*
X1190Y968D02*
X1227Y968D01*
X231Y967D02*
X268Y967D01*
X295Y967D02*
X330Y967D01*
X1128Y967D02*
X1164Y967D01*
X1191Y967D02*
X1227Y967D01*
X231Y966D02*
X268Y966D01*
X296Y966D02*
X331Y966D01*
X1128Y966D02*
X1164Y966D01*
X1192Y966D02*
X1228Y966D01*
X231Y965D02*
X267Y965D01*
X296Y965D02*
X331Y965D01*
X1127Y965D02*
X1163Y965D01*
X1192Y965D02*
X1228Y965D01*
X230Y964D02*
X267Y964D01*
X297Y964D02*
X331Y964D01*
X1127Y964D02*
X1163Y964D01*
X1193Y964D02*
X1228Y964D01*
X230Y963D02*
X266Y963D01*
X297Y963D02*
X332Y963D01*
X1127Y963D02*
X1162Y963D01*
X1193Y963D02*
X1229Y963D01*
X230Y962D02*
X266Y962D01*
X297Y962D02*
X332Y962D01*
X1127Y962D02*
X1162Y962D01*
X1194Y962D02*
X1229Y962D01*
X230Y961D02*
X266Y961D01*
X298Y961D02*
X332Y961D01*
X1127Y961D02*
X1162Y961D01*
X1194Y961D02*
X1229Y961D01*
X230Y960D02*
X265Y960D01*
X298Y960D02*
X332Y960D01*
X1126Y960D02*
X1162Y960D01*
X1194Y960D02*
X1229Y960D01*
X229Y959D02*
X265Y959D01*
X298Y959D02*
X332Y959D01*
X1126Y959D02*
X1161Y959D01*
X1194Y959D02*
X1229Y959D01*
X229Y958D02*
X265Y958D01*
X298Y958D02*
X332Y958D01*
X1126Y958D02*
X1161Y958D01*
X1194Y958D02*
X1229Y958D01*
X229Y957D02*
X265Y957D01*
X298Y957D02*
X332Y957D01*
X1126Y957D02*
X1161Y957D01*
X1194Y957D02*
X1229Y957D01*
X229Y956D02*
X265Y956D01*
X298Y956D02*
X332Y956D01*
X1126Y956D02*
X1161Y956D01*
X1194Y956D02*
X1229Y956D01*
X230Y955D02*
X265Y955D01*
X298Y955D02*
X332Y955D01*
X1126Y955D02*
X1162Y955D01*
X1194Y955D02*
X1229Y955D01*
X230Y954D02*
X266Y954D01*
X298Y954D02*
X332Y954D01*
X1127Y954D02*
X1162Y954D01*
X1194Y954D02*
X1229Y954D01*
X230Y953D02*
X266Y953D01*
X297Y953D02*
X332Y953D01*
X1127Y953D02*
X1162Y953D01*
X1194Y953D02*
X1229Y953D01*
X230Y952D02*
X266Y952D01*
X297Y952D02*
X332Y952D01*
X1127Y952D02*
X1162Y952D01*
X1193Y952D02*
X1229Y952D01*
X230Y951D02*
X267Y951D01*
X297Y951D02*
X331Y951D01*
X1127Y951D02*
X1163Y951D01*
X1193Y951D02*
X1228Y951D01*
X230Y950D02*
X267Y950D01*
X296Y950D02*
X331Y950D01*
X1127Y950D02*
X1163Y950D01*
X1192Y950D02*
X1228Y950D01*
X231Y949D02*
X268Y949D01*
X296Y949D02*
X331Y949D01*
X1128Y949D02*
X1164Y949D01*
X1192Y949D02*
X1228Y949D01*
X231Y948D02*
X268Y948D01*
X295Y948D02*
X331Y948D01*
X1128Y948D02*
X1165Y948D01*
X1191Y948D02*
X1227Y948D01*
X232Y947D02*
X269Y947D01*
X294Y947D02*
X330Y947D01*
X1129Y947D02*
X1165Y947D01*
X1190Y947D02*
X1227Y947D01*
X232Y946D02*
X270Y946D01*
X293Y946D02*
X330Y946D01*
X1129Y946D02*
X1166Y946D01*
X1189Y946D02*
X1226Y946D01*
X233Y945D02*
X271Y945D01*
X292Y945D02*
X329Y945D01*
X1130Y945D02*
X1167Y945D01*
X1188Y945D02*
X1226Y945D01*
X233Y944D02*
X273Y944D01*
X291Y944D02*
X328Y944D01*
X1130Y944D02*
X1169Y944D01*
X1187Y944D02*
X1225Y944D01*
X234Y943D02*
X275Y943D01*
X289Y943D02*
X328Y943D01*
X1131Y943D02*
X1171Y943D01*
X1185Y943D02*
X1225Y943D01*
X235Y942D02*
X278Y942D01*
X286Y942D02*
X327Y942D01*
X1132Y942D02*
X1174Y942D01*
X1182Y942D02*
X1224Y942D01*
X235Y941D02*
X326Y941D01*
X1132Y941D02*
X1223Y941D01*
X236Y940D02*
X325Y940D01*
X1133Y940D02*
X1222Y940D01*
X237Y939D02*
X325Y939D01*
X1134Y939D02*
X1221Y939D01*
X238Y938D02*
X323Y938D01*
X1135Y938D02*
X1220Y938D01*
X240Y937D02*
X322Y937D01*
X1137Y937D02*
X1219Y937D01*
X241Y936D02*
X321Y936D01*
X1138Y936D02*
X1218Y936D01*
X243Y935D02*
X319Y935D01*
X1140Y935D02*
X1216Y935D01*
X244Y934D02*
X317Y934D01*
X1141Y934D02*
X1214Y934D01*
X247Y933D02*
X315Y933D01*
X1144Y933D02*
X1212Y933D01*
X250Y932D02*
X311Y932D01*
X1147Y932D02*
X1208Y932D01*
X251Y883D02*
X311Y883D01*
X1147Y883D02*
X1208Y883D01*
X247Y882D02*
X315Y882D01*
X1144Y882D02*
X1212Y882D01*
X244Y881D02*
X317Y881D01*
X1141Y881D02*
X1214Y881D01*
X243Y880D02*
X319Y880D01*
X1140Y880D02*
X1216Y880D01*
X241Y879D02*
X321Y879D01*
X1138Y879D02*
X1218Y879D01*
X240Y878D02*
X322Y878D01*
X1137Y878D02*
X1219Y878D01*
X238Y877D02*
X323Y877D01*
X1135Y877D02*
X1220Y877D01*
X237Y876D02*
X325Y876D01*
X1134Y876D02*
X1221Y876D01*
X236Y875D02*
X325Y875D01*
X1133Y875D02*
X1222Y875D01*
X235Y874D02*
X326Y874D01*
X1132Y874D02*
X1223Y874D01*
X235Y873D02*
X277Y873D01*
X286Y873D02*
X327Y873D01*
X1132Y873D02*
X1173Y873D01*
X1183Y873D02*
X1224Y873D01*
X234Y872D02*
X274Y872D01*
X289Y872D02*
X328Y872D01*
X1131Y872D02*
X1170Y872D01*
X1185Y872D02*
X1225Y872D01*
X233Y871D02*
X273Y871D01*
X291Y871D02*
X328Y871D01*
X1130Y871D02*
X1168Y871D01*
X1187Y871D02*
X1225Y871D01*
X233Y870D02*
X271Y870D01*
X292Y870D02*
X329Y870D01*
X1130Y870D02*
X1167Y870D01*
X1188Y870D02*
X1226Y870D01*
X232Y869D02*
X270Y869D01*
X293Y869D02*
X330Y869D01*
X1129Y869D02*
X1166Y869D01*
X1190Y869D02*
X1226Y869D01*
X232Y868D02*
X269Y868D01*
X294Y868D02*
X330Y868D01*
X1129Y868D02*
X1165Y868D01*
X1191Y868D02*
X1227Y868D01*
X231Y867D02*
X268Y867D01*
X295Y867D02*
X330Y867D01*
X1128Y867D02*
X1164Y867D01*
X1191Y867D02*
X1227Y867D01*
X231Y866D02*
X268Y866D01*
X296Y866D02*
X331Y866D01*
X1128Y866D02*
X1163Y866D01*
X1192Y866D02*
X1228Y866D01*
X231Y865D02*
X267Y865D01*
X296Y865D02*
X331Y865D01*
X1127Y865D02*
X1163Y865D01*
X1193Y865D02*
X1228Y865D01*
X230Y864D02*
X267Y864D01*
X297Y864D02*
X331Y864D01*
X1127Y864D02*
X1162Y864D01*
X1193Y864D02*
X1228Y864D01*
X230Y863D02*
X266Y863D01*
X297Y863D02*
X332Y863D01*
X1127Y863D02*
X1162Y863D01*
X1193Y863D02*
X1229Y863D01*
X230Y862D02*
X266Y862D01*
X297Y862D02*
X332Y862D01*
X1127Y862D02*
X1162Y862D01*
X1194Y862D02*
X1229Y862D01*
X230Y861D02*
X266Y861D01*
X298Y861D02*
X332Y861D01*
X1127Y861D02*
X1161Y861D01*
X1194Y861D02*
X1229Y861D01*
X230Y860D02*
X265Y860D01*
X298Y860D02*
X332Y860D01*
X1126Y860D02*
X1161Y860D01*
X1194Y860D02*
X1229Y860D01*
X229Y859D02*
X265Y859D01*
X298Y859D02*
X332Y859D01*
X1126Y859D02*
X1161Y859D01*
X1194Y859D02*
X1229Y859D01*
X229Y858D02*
X265Y858D01*
X298Y858D02*
X332Y858D01*
X1126Y858D02*
X1161Y858D01*
X1194Y858D02*
X1229Y858D01*
X229Y857D02*
X265Y857D01*
X298Y857D02*
X332Y857D01*
X1126Y857D02*
X1161Y857D01*
X1194Y857D02*
X1229Y857D01*
X229Y856D02*
X265Y856D01*
X298Y856D02*
X332Y856D01*
X1126Y856D02*
X1161Y856D01*
X1194Y856D02*
X1229Y856D01*
X230Y855D02*
X265Y855D01*
X298Y855D02*
X332Y855D01*
X1126Y855D02*
X1161Y855D01*
X1194Y855D02*
X1229Y855D01*
X230Y854D02*
X266Y854D01*
X298Y854D02*
X332Y854D01*
X1127Y854D02*
X1161Y854D01*
X1194Y854D02*
X1229Y854D01*
X230Y853D02*
X266Y853D01*
X297Y853D02*
X332Y853D01*
X1127Y853D02*
X1162Y853D01*
X1194Y853D02*
X1229Y853D01*
X230Y852D02*
X266Y852D01*
X297Y852D02*
X332Y852D01*
X1127Y852D02*
X1162Y852D01*
X1193Y852D02*
X1229Y852D01*
X230Y851D02*
X267Y851D01*
X297Y851D02*
X331Y851D01*
X1127Y851D02*
X1162Y851D01*
X1193Y851D02*
X1228Y851D01*
X230Y850D02*
X267Y850D01*
X296Y850D02*
X331Y850D01*
X1127Y850D02*
X1163Y850D01*
X1193Y850D02*
X1228Y850D01*
X231Y849D02*
X268Y849D01*
X296Y849D02*
X331Y849D01*
X1128Y849D02*
X1164Y849D01*
X1192Y849D02*
X1228Y849D01*
X231Y848D02*
X268Y848D01*
X295Y848D02*
X331Y848D01*
X1128Y848D02*
X1164Y848D01*
X1191Y848D02*
X1227Y848D01*
X232Y847D02*
X269Y847D01*
X294Y847D02*
X330Y847D01*
X1129Y847D02*
X1165Y847D01*
X1190Y847D02*
X1227Y847D01*
X232Y846D02*
X270Y846D01*
X293Y846D02*
X330Y846D01*
X1129Y846D02*
X1166Y846D01*
X1190Y846D02*
X1226Y846D01*
X233Y845D02*
X271Y845D01*
X292Y845D02*
X329Y845D01*
X1130Y845D02*
X1167Y845D01*
X1188Y845D02*
X1226Y845D01*
X233Y844D02*
X273Y844D01*
X291Y844D02*
X328Y844D01*
X1130Y844D02*
X1169Y844D01*
X1187Y844D02*
X1225Y844D01*
X234Y843D02*
X275Y843D01*
X289Y843D02*
X328Y843D01*
X1131Y843D02*
X1170Y843D01*
X1185Y843D02*
X1225Y843D01*
X235Y842D02*
X278Y842D01*
X286Y842D02*
X327Y842D01*
X1132Y842D02*
X1173Y842D01*
X1182Y842D02*
X1224Y842D01*
X235Y841D02*
X326Y841D01*
X1132Y841D02*
X1223Y841D01*
X236Y840D02*
X325Y840D01*
X1133Y840D02*
X1222Y840D01*
X237Y839D02*
X325Y839D01*
X1134Y839D02*
X1221Y839D01*
X238Y838D02*
X323Y838D01*
X1135Y838D02*
X1220Y838D01*
X240Y837D02*
X322Y837D01*
X1137Y837D02*
X1219Y837D01*
X241Y836D02*
X321Y836D01*
X1138Y836D02*
X1218Y836D01*
X243Y835D02*
X319Y835D01*
X1140Y835D02*
X1216Y835D01*
X244Y834D02*
X317Y834D01*
X1141Y834D02*
X1214Y834D01*
X247Y833D02*
X315Y833D01*
X1144Y833D02*
X1212Y833D01*
X250Y832D02*
X311Y832D01*
X1147Y832D02*
X1208Y832D01*
X250Y783D02*
X311Y783D01*
X1147Y783D02*
X1208Y783D01*
X247Y782D02*
X315Y782D01*
X1144Y782D02*
X1212Y782D01*
X244Y781D02*
X317Y781D01*
X1141Y781D02*
X1214Y781D01*
X243Y780D02*
X319Y780D01*
X1140Y780D02*
X1216Y780D01*
X241Y779D02*
X321Y779D01*
X1138Y779D02*
X1218Y779D01*
X240Y778D02*
X322Y778D01*
X1137Y778D02*
X1219Y778D01*
X238Y777D02*
X323Y777D01*
X1135Y777D02*
X1220Y777D01*
X237Y776D02*
X325Y776D01*
X1134Y776D02*
X1221Y776D01*
X236Y775D02*
X325Y775D01*
X1133Y775D02*
X1222Y775D01*
X235Y774D02*
X326Y774D01*
X1132Y774D02*
X1223Y774D01*
X235Y773D02*
X277Y773D01*
X286Y773D02*
X327Y773D01*
X1132Y773D02*
X1173Y773D01*
X1182Y773D02*
X1224Y773D01*
X234Y772D02*
X274Y772D01*
X289Y772D02*
X328Y772D01*
X1131Y772D02*
X1170Y772D01*
X1185Y772D02*
X1225Y772D01*
X233Y771D02*
X272Y771D01*
X291Y771D02*
X328Y771D01*
X1130Y771D02*
X1169Y771D01*
X1187Y771D02*
X1225Y771D01*
X233Y770D02*
X271Y770D01*
X292Y770D02*
X329Y770D01*
X1130Y770D02*
X1167Y770D01*
X1188Y770D02*
X1226Y770D01*
X232Y769D02*
X270Y769D01*
X293Y769D02*
X330Y769D01*
X1129Y769D02*
X1166Y769D01*
X1189Y769D02*
X1226Y769D01*
X232Y768D02*
X269Y768D01*
X294Y768D02*
X330Y768D01*
X1129Y768D02*
X1165Y768D01*
X1190Y768D02*
X1227Y768D01*
X231Y767D02*
X268Y767D01*
X295Y767D02*
X331Y767D01*
X1128Y767D02*
X1164Y767D01*
X1191Y767D02*
X1227Y767D01*
X231Y766D02*
X268Y766D01*
X296Y766D02*
X331Y766D01*
X1128Y766D02*
X1164Y766D01*
X1192Y766D02*
X1228Y766D01*
X230Y765D02*
X267Y765D01*
X296Y765D02*
X331Y765D01*
X1127Y765D02*
X1163Y765D01*
X1192Y765D02*
X1228Y765D01*
X230Y764D02*
X266Y764D01*
X297Y764D02*
X331Y764D01*
X1127Y764D02*
X1163Y764D01*
X1193Y764D02*
X1228Y764D01*
X230Y763D02*
X266Y763D01*
X297Y763D02*
X332Y763D01*
X1127Y763D02*
X1162Y763D01*
X1193Y763D02*
X1229Y763D01*
X230Y762D02*
X266Y762D01*
X297Y762D02*
X332Y762D01*
X1127Y762D02*
X1162Y762D01*
X1194Y762D02*
X1229Y762D01*
X230Y761D02*
X265Y761D01*
X298Y761D02*
X332Y761D01*
X1127Y761D02*
X1162Y761D01*
X1194Y761D02*
X1229Y761D01*
X229Y760D02*
X265Y760D01*
X298Y760D02*
X332Y760D01*
X1126Y760D02*
X1161Y760D01*
X1194Y760D02*
X1229Y760D01*
X229Y759D02*
X265Y759D01*
X298Y759D02*
X332Y759D01*
X1126Y759D02*
X1161Y759D01*
X1194Y759D02*
X1229Y759D01*
X229Y758D02*
X265Y758D01*
X298Y758D02*
X332Y758D01*
X1126Y758D02*
X1161Y758D01*
X1194Y758D02*
X1229Y758D01*
X229Y757D02*
X265Y757D01*
X298Y757D02*
X332Y757D01*
X1126Y757D02*
X1161Y757D01*
X1194Y757D02*
X1229Y757D01*
X229Y756D02*
X265Y756D01*
X298Y756D02*
X332Y756D01*
X1126Y756D02*
X1161Y756D01*
X1194Y756D02*
X1229Y756D01*
X229Y755D02*
X265Y755D01*
X298Y755D02*
X332Y755D01*
X1126Y755D02*
X1161Y755D01*
X1194Y755D02*
X1229Y755D01*
X230Y754D02*
X265Y754D01*
X298Y754D02*
X332Y754D01*
X1127Y754D02*
X1162Y754D01*
X1194Y754D02*
X1229Y754D01*
X230Y753D02*
X266Y753D01*
X297Y753D02*
X332Y753D01*
X1127Y753D02*
X1162Y753D01*
X1194Y753D02*
X1229Y753D01*
X230Y752D02*
X266Y752D01*
X297Y752D02*
X332Y752D01*
X1127Y752D02*
X1162Y752D01*
X1193Y752D02*
X1229Y752D01*
X230Y751D02*
X266Y751D01*
X297Y751D02*
X331Y751D01*
X1127Y751D02*
X1163Y751D01*
X1193Y751D02*
X1228Y751D01*
X230Y750D02*
X267Y750D01*
X296Y750D02*
X331Y750D01*
X1127Y750D02*
X1163Y750D01*
X1192Y750D02*
X1228Y750D01*
X231Y749D02*
X268Y749D01*
X296Y749D02*
X331Y749D01*
X1128Y749D02*
X1164Y749D01*
X1192Y749D02*
X1228Y749D01*
X231Y748D02*
X268Y748D01*
X295Y748D02*
X331Y748D01*
X1128Y748D02*
X1164Y748D01*
X1191Y748D02*
X1227Y748D01*
X232Y747D02*
X269Y747D01*
X294Y747D02*
X330Y747D01*
X1129Y747D02*
X1165Y747D01*
X1190Y747D02*
X1227Y747D01*
X232Y746D02*
X270Y746D01*
X293Y746D02*
X330Y746D01*
X1129Y746D02*
X1166Y746D01*
X1189Y746D02*
X1226Y746D01*
X233Y745D02*
X271Y745D01*
X292Y745D02*
X329Y745D01*
X1130Y745D02*
X1167Y745D01*
X1188Y745D02*
X1226Y745D01*
X233Y744D02*
X273Y744D01*
X291Y744D02*
X328Y744D01*
X1130Y744D02*
X1169Y744D01*
X1187Y744D02*
X1225Y744D01*
X234Y743D02*
X274Y743D01*
X289Y743D02*
X328Y743D01*
X1131Y743D02*
X1171Y743D01*
X1185Y743D02*
X1225Y743D01*
X235Y742D02*
X277Y742D01*
X286Y742D02*
X327Y742D01*
X1132Y742D02*
X1174Y742D01*
X1182Y742D02*
X1224Y742D01*
X235Y741D02*
X326Y741D01*
X1132Y741D02*
X1223Y741D01*
X236Y740D02*
X325Y740D01*
X1133Y740D02*
X1222Y740D01*
X237Y739D02*
X325Y739D01*
X1134Y739D02*
X1221Y739D01*
X238Y738D02*
X323Y738D01*
X1135Y738D02*
X1220Y738D01*
X240Y737D02*
X322Y737D01*
X1137Y737D02*
X1219Y737D01*
X241Y736D02*
X321Y736D01*
X1138Y736D02*
X1218Y736D01*
X243Y735D02*
X319Y735D01*
X1140Y735D02*
X1216Y735D01*
X244Y734D02*
X317Y734D01*
X1141Y734D02*
X1214Y734D01*
X247Y733D02*
X315Y733D01*
X1144Y733D02*
X1212Y733D01*
X250Y732D02*
X311Y732D01*
X1147Y732D02*
X1208Y732D01*
X250Y683D02*
X311Y683D01*
X1147Y683D02*
X1208Y683D01*
X247Y682D02*
X315Y682D01*
X1144Y682D02*
X1212Y682D01*
X244Y681D02*
X317Y681D01*
X1141Y681D02*
X1214Y681D01*
X243Y680D02*
X319Y680D01*
X1140Y680D02*
X1216Y680D01*
X241Y679D02*
X321Y679D01*
X1138Y679D02*
X1218Y679D01*
X240Y678D02*
X322Y678D01*
X1137Y678D02*
X1219Y678D01*
X238Y677D02*
X323Y677D01*
X1135Y677D02*
X1220Y677D01*
X237Y676D02*
X325Y676D01*
X1134Y676D02*
X1221Y676D01*
X236Y675D02*
X325Y675D01*
X1133Y675D02*
X1222Y675D01*
X235Y674D02*
X326Y674D01*
X1132Y674D02*
X1223Y674D01*
X235Y673D02*
X277Y673D01*
X286Y673D02*
X327Y673D01*
X1132Y673D02*
X1173Y673D01*
X1182Y673D02*
X1224Y673D01*
X234Y672D02*
X274Y672D01*
X289Y672D02*
X328Y672D01*
X1131Y672D02*
X1171Y672D01*
X1185Y672D02*
X1225Y672D01*
X233Y671D02*
X273Y671D01*
X291Y671D02*
X328Y671D01*
X1130Y671D02*
X1169Y671D01*
X1187Y671D02*
X1225Y671D01*
X233Y670D02*
X271Y670D01*
X292Y670D02*
X329Y670D01*
X1130Y670D02*
X1167Y670D01*
X1188Y670D02*
X1226Y670D01*
X232Y669D02*
X270Y669D01*
X293Y669D02*
X330Y669D01*
X1129Y669D02*
X1166Y669D01*
X1189Y669D02*
X1226Y669D01*
X232Y668D02*
X269Y668D01*
X294Y668D02*
X330Y668D01*
X1129Y668D02*
X1165Y668D01*
X1190Y668D02*
X1227Y668D01*
X231Y667D02*
X268Y667D01*
X295Y667D02*
X331Y667D01*
X1128Y667D02*
X1164Y667D01*
X1191Y667D02*
X1227Y667D01*
X231Y666D02*
X268Y666D01*
X296Y666D02*
X331Y666D01*
X1128Y666D02*
X1164Y666D01*
X1192Y666D02*
X1228Y666D01*
X231Y665D02*
X267Y665D01*
X296Y665D02*
X331Y665D01*
X1127Y665D02*
X1163Y665D01*
X1192Y665D02*
X1228Y665D01*
X230Y664D02*
X267Y664D01*
X297Y664D02*
X331Y664D01*
X1127Y664D02*
X1163Y664D01*
X1193Y664D02*
X1228Y664D01*
X230Y663D02*
X266Y663D01*
X297Y663D02*
X332Y663D01*
X1127Y663D02*
X1162Y663D01*
X1193Y663D02*
X1229Y663D01*
X230Y662D02*
X266Y662D01*
X297Y662D02*
X332Y662D01*
X1127Y662D02*
X1162Y662D01*
X1194Y662D02*
X1229Y662D01*
X230Y661D02*
X266Y661D01*
X298Y661D02*
X332Y661D01*
X1127Y661D02*
X1162Y661D01*
X1194Y661D02*
X1229Y661D01*
X230Y660D02*
X265Y660D01*
X298Y660D02*
X332Y660D01*
X1126Y660D02*
X1162Y660D01*
X1194Y660D02*
X1229Y660D01*
X229Y659D02*
X265Y659D01*
X298Y659D02*
X332Y659D01*
X1126Y659D02*
X1161Y659D01*
X1194Y659D02*
X1229Y659D01*
X229Y658D02*
X265Y658D01*
X298Y658D02*
X332Y658D01*
X1126Y658D02*
X1161Y658D01*
X1194Y658D02*
X1229Y658D01*
X229Y657D02*
X265Y657D01*
X298Y657D02*
X332Y657D01*
X1126Y657D02*
X1161Y657D01*
X1194Y657D02*
X1229Y657D01*
X229Y656D02*
X265Y656D01*
X298Y656D02*
X332Y656D01*
X1126Y656D02*
X1161Y656D01*
X1194Y656D02*
X1229Y656D01*
X230Y655D02*
X265Y655D01*
X298Y655D02*
X332Y655D01*
X1126Y655D02*
X1162Y655D01*
X1194Y655D02*
X1229Y655D01*
X230Y654D02*
X266Y654D01*
X298Y654D02*
X332Y654D01*
X1127Y654D02*
X1162Y654D01*
X1194Y654D02*
X1229Y654D01*
X230Y653D02*
X266Y653D01*
X297Y653D02*
X332Y653D01*
X1127Y653D02*
X1162Y653D01*
X1194Y653D02*
X1229Y653D01*
X230Y652D02*
X266Y652D01*
X297Y652D02*
X332Y652D01*
X1127Y652D02*
X1162Y652D01*
X1193Y652D02*
X1229Y652D01*
X230Y651D02*
X267Y651D01*
X297Y651D02*
X331Y651D01*
X1127Y651D02*
X1163Y651D01*
X1193Y651D02*
X1228Y651D01*
X231Y650D02*
X267Y650D01*
X296Y650D02*
X331Y650D01*
X1127Y650D02*
X1163Y650D01*
X1192Y650D02*
X1228Y650D01*
X231Y649D02*
X268Y649D01*
X296Y649D02*
X331Y649D01*
X1128Y649D02*
X1164Y649D01*
X1192Y649D02*
X1228Y649D01*
X231Y648D02*
X268Y648D01*
X295Y648D02*
X331Y648D01*
X1128Y648D02*
X1165Y648D01*
X1191Y648D02*
X1227Y648D01*
X232Y647D02*
X269Y647D01*
X294Y647D02*
X330Y647D01*
X1129Y647D02*
X1165Y647D01*
X1190Y647D02*
X1227Y647D01*
X232Y646D02*
X270Y646D01*
X293Y646D02*
X330Y646D01*
X1129Y646D02*
X1166Y646D01*
X1189Y646D02*
X1226Y646D01*
X233Y645D02*
X271Y645D01*
X292Y645D02*
X329Y645D01*
X1130Y645D02*
X1167Y645D01*
X1188Y645D02*
X1226Y645D01*
X233Y644D02*
X273Y644D01*
X291Y644D02*
X328Y644D01*
X1130Y644D02*
X1169Y644D01*
X1187Y644D02*
X1225Y644D01*
X234Y643D02*
X275Y643D01*
X289Y643D02*
X328Y643D01*
X1131Y643D02*
X1171Y643D01*
X1185Y643D02*
X1225Y643D01*
X235Y642D02*
X278Y642D01*
X286Y642D02*
X327Y642D01*
X1132Y642D02*
X1174Y642D01*
X1182Y642D02*
X1224Y642D01*
X235Y641D02*
X326Y641D01*
X1132Y641D02*
X1223Y641D01*
X236Y640D02*
X325Y640D01*
X1133Y640D02*
X1222Y640D01*
X237Y639D02*
X325Y639D01*
X1134Y639D02*
X1221Y639D01*
X238Y638D02*
X323Y638D01*
X1135Y638D02*
X1220Y638D01*
X240Y637D02*
X322Y637D01*
X1137Y637D02*
X1219Y637D01*
X241Y636D02*
X321Y636D01*
X1138Y636D02*
X1218Y636D01*
X243Y635D02*
X319Y635D01*
X1140Y635D02*
X1216Y635D01*
X244Y634D02*
X317Y634D01*
X1141Y634D02*
X1214Y634D01*
X247Y633D02*
X315Y633D01*
X1144Y633D02*
X1212Y633D01*
X250Y632D02*
X311Y632D01*
X1147Y632D02*
X1208Y632D01*
X250Y583D02*
X311Y583D01*
X1147Y583D02*
X1208Y583D01*
X247Y582D02*
X315Y582D01*
X1144Y582D02*
X1212Y582D01*
X244Y581D02*
X317Y581D01*
X1141Y581D02*
X1214Y581D01*
X243Y580D02*
X319Y580D01*
X1140Y580D02*
X1216Y580D01*
X241Y579D02*
X321Y579D01*
X1138Y579D02*
X1218Y579D01*
X240Y578D02*
X322Y578D01*
X1137Y578D02*
X1219Y578D01*
X238Y577D02*
X323Y577D01*
X1135Y577D02*
X1220Y577D01*
X237Y576D02*
X325Y576D01*
X1134Y576D02*
X1221Y576D01*
X236Y575D02*
X325Y575D01*
X1133Y575D02*
X1222Y575D01*
X235Y574D02*
X326Y574D01*
X1132Y574D02*
X1223Y574D01*
X235Y573D02*
X277Y573D01*
X286Y573D02*
X327Y573D01*
X1132Y573D02*
X1173Y573D01*
X1182Y573D02*
X1224Y573D01*
X234Y572D02*
X274Y572D01*
X289Y572D02*
X328Y572D01*
X1131Y572D02*
X1171Y572D01*
X1185Y572D02*
X1225Y572D01*
X233Y571D02*
X273Y571D01*
X291Y571D02*
X328Y571D01*
X1130Y571D02*
X1169Y571D01*
X1187Y571D02*
X1225Y571D01*
X233Y570D02*
X271Y570D01*
X292Y570D02*
X329Y570D01*
X1130Y570D02*
X1167Y570D01*
X1188Y570D02*
X1226Y570D01*
X232Y569D02*
X270Y569D01*
X293Y569D02*
X330Y569D01*
X1129Y569D02*
X1166Y569D01*
X1189Y569D02*
X1226Y569D01*
X232Y568D02*
X269Y568D01*
X294Y568D02*
X330Y568D01*
X1129Y568D02*
X1165Y568D01*
X1190Y568D02*
X1227Y568D01*
X231Y567D02*
X268Y567D01*
X295Y567D02*
X331Y567D01*
X1128Y567D02*
X1164Y567D01*
X1191Y567D02*
X1227Y567D01*
X231Y566D02*
X268Y566D01*
X296Y566D02*
X331Y566D01*
X1128Y566D02*
X1164Y566D01*
X1192Y566D02*
X1228Y566D01*
X231Y565D02*
X267Y565D01*
X296Y565D02*
X331Y565D01*
X1127Y565D02*
X1163Y565D01*
X1192Y565D02*
X1228Y565D01*
X230Y564D02*
X267Y564D01*
X297Y564D02*
X331Y564D01*
X1127Y564D02*
X1163Y564D01*
X1193Y564D02*
X1228Y564D01*
X230Y563D02*
X266Y563D01*
X297Y563D02*
X332Y563D01*
X1127Y563D02*
X1162Y563D01*
X1193Y563D02*
X1229Y563D01*
X230Y562D02*
X266Y562D01*
X297Y562D02*
X332Y562D01*
X1127Y562D02*
X1162Y562D01*
X1194Y562D02*
X1229Y562D01*
X230Y561D02*
X266Y561D01*
X298Y561D02*
X332Y561D01*
X1127Y561D02*
X1162Y561D01*
X1194Y561D02*
X1229Y561D01*
X230Y560D02*
X265Y560D01*
X298Y560D02*
X332Y560D01*
X1126Y560D02*
X1162Y560D01*
X1194Y560D02*
X1229Y560D01*
X229Y559D02*
X265Y559D01*
X298Y559D02*
X332Y559D01*
X1126Y559D02*
X1161Y559D01*
X1194Y559D02*
X1229Y559D01*
X229Y558D02*
X265Y558D01*
X298Y558D02*
X332Y558D01*
X1126Y558D02*
X1161Y558D01*
X1194Y558D02*
X1229Y558D01*
X229Y557D02*
X265Y557D01*
X298Y557D02*
X332Y557D01*
X1126Y557D02*
X1161Y557D01*
X1194Y557D02*
X1229Y557D01*
X229Y556D02*
X265Y556D01*
X298Y556D02*
X332Y556D01*
X1126Y556D02*
X1161Y556D01*
X1194Y556D02*
X1229Y556D01*
X230Y555D02*
X265Y555D01*
X298Y555D02*
X332Y555D01*
X1126Y555D02*
X1162Y555D01*
X1194Y555D02*
X1229Y555D01*
X230Y554D02*
X266Y554D01*
X298Y554D02*
X332Y554D01*
X1127Y554D02*
X1162Y554D01*
X1194Y554D02*
X1229Y554D01*
X230Y553D02*
X266Y553D01*
X297Y553D02*
X332Y553D01*
X1127Y553D02*
X1162Y553D01*
X1194Y553D02*
X1229Y553D01*
X230Y552D02*
X266Y552D01*
X297Y552D02*
X332Y552D01*
X1127Y552D02*
X1162Y552D01*
X1193Y552D02*
X1229Y552D01*
X230Y551D02*
X267Y551D01*
X297Y551D02*
X331Y551D01*
X1127Y551D02*
X1163Y551D01*
X1193Y551D02*
X1228Y551D01*
X231Y550D02*
X267Y550D01*
X296Y550D02*
X331Y550D01*
X1127Y550D02*
X1163Y550D01*
X1192Y550D02*
X1228Y550D01*
X231Y549D02*
X268Y549D01*
X296Y549D02*
X331Y549D01*
X1128Y549D02*
X1164Y549D01*
X1192Y549D02*
X1228Y549D01*
X231Y548D02*
X268Y548D01*
X295Y548D02*
X331Y548D01*
X1128Y548D02*
X1165Y548D01*
X1191Y548D02*
X1227Y548D01*
X232Y547D02*
X269Y547D01*
X294Y547D02*
X330Y547D01*
X1129Y547D02*
X1165Y547D01*
X1190Y547D02*
X1227Y547D01*
X232Y546D02*
X270Y546D01*
X293Y546D02*
X330Y546D01*
X1129Y546D02*
X1166Y546D01*
X1189Y546D02*
X1226Y546D01*
X233Y545D02*
X271Y545D01*
X292Y545D02*
X329Y545D01*
X1130Y545D02*
X1167Y545D01*
X1188Y545D02*
X1226Y545D01*
X233Y544D02*
X273Y544D01*
X291Y544D02*
X328Y544D01*
X1130Y544D02*
X1169Y544D01*
X1187Y544D02*
X1225Y544D01*
X234Y543D02*
X275Y543D01*
X289Y543D02*
X328Y543D01*
X1131Y543D02*
X1171Y543D01*
X1185Y543D02*
X1225Y543D01*
X235Y542D02*
X278Y542D01*
X286Y542D02*
X327Y542D01*
X1132Y542D02*
X1174Y542D01*
X1182Y542D02*
X1224Y542D01*
X235Y541D02*
X326Y541D01*
X1132Y541D02*
X1223Y541D01*
X236Y540D02*
X325Y540D01*
X1133Y540D02*
X1222Y540D01*
X237Y539D02*
X325Y539D01*
X1134Y539D02*
X1221Y539D01*
X238Y538D02*
X323Y538D01*
X1135Y538D02*
X1220Y538D01*
X240Y537D02*
X322Y537D01*
X1137Y537D02*
X1219Y537D01*
X241Y536D02*
X321Y536D01*
X1138Y536D02*
X1218Y536D01*
X243Y535D02*
X319Y535D01*
X1140Y535D02*
X1216Y535D01*
X244Y534D02*
X317Y534D01*
X1141Y534D02*
X1214Y534D01*
X247Y533D02*
X315Y533D01*
X1144Y533D02*
X1212Y533D01*
X250Y532D02*
X311Y532D01*
X1147Y532D02*
X1208Y532D01*
X250Y483D02*
X311Y483D01*
X1147Y483D02*
X1208Y483D01*
X247Y482D02*
X315Y482D01*
X1144Y482D02*
X1212Y482D01*
X244Y481D02*
X317Y481D01*
X1141Y481D02*
X1214Y481D01*
X243Y480D02*
X319Y480D01*
X1140Y480D02*
X1216Y480D01*
X241Y479D02*
X321Y479D01*
X1138Y479D02*
X1218Y479D01*
X240Y478D02*
X322Y478D01*
X1137Y478D02*
X1219Y478D01*
X238Y477D02*
X323Y477D01*
X1135Y477D02*
X1220Y477D01*
X237Y476D02*
X325Y476D01*
X1134Y476D02*
X1222Y476D01*
X236Y475D02*
X325Y475D01*
X1133Y475D02*
X1222Y475D01*
X235Y474D02*
X326Y474D01*
X1132Y474D02*
X1223Y474D01*
X235Y473D02*
X277Y473D01*
X286Y473D02*
X327Y473D01*
X1132Y473D02*
X1173Y473D01*
X1182Y473D02*
X1224Y473D01*
X234Y472D02*
X274Y472D01*
X289Y472D02*
X328Y472D01*
X1131Y472D02*
X1171Y472D01*
X1185Y472D02*
X1225Y472D01*
X233Y471D02*
X273Y471D01*
X291Y471D02*
X328Y471D01*
X1130Y471D02*
X1169Y471D01*
X1187Y471D02*
X1225Y471D01*
X233Y470D02*
X271Y470D01*
X292Y470D02*
X329Y470D01*
X1130Y470D02*
X1167Y470D01*
X1188Y470D02*
X1226Y470D01*
X232Y469D02*
X270Y469D01*
X293Y469D02*
X330Y469D01*
X1129Y469D02*
X1166Y469D01*
X1189Y469D02*
X1226Y469D01*
X232Y468D02*
X269Y468D01*
X294Y468D02*
X330Y468D01*
X1129Y468D02*
X1165Y468D01*
X1190Y468D02*
X1227Y468D01*
X231Y467D02*
X268Y467D01*
X295Y467D02*
X331Y467D01*
X1128Y467D02*
X1164Y467D01*
X1191Y467D02*
X1227Y467D01*
X231Y466D02*
X268Y466D01*
X296Y466D02*
X331Y466D01*
X1128Y466D02*
X1164Y466D01*
X1192Y466D02*
X1228Y466D01*
X231Y465D02*
X267Y465D01*
X296Y465D02*
X331Y465D01*
X1127Y465D02*
X1163Y465D01*
X1192Y465D02*
X1228Y465D01*
X230Y464D02*
X267Y464D01*
X297Y464D02*
X331Y464D01*
X1127Y464D02*
X1163Y464D01*
X1193Y464D02*
X1228Y464D01*
X230Y463D02*
X266Y463D01*
X297Y463D02*
X332Y463D01*
X1127Y463D02*
X1162Y463D01*
X1193Y463D02*
X1229Y463D01*
X230Y462D02*
X266Y462D01*
X297Y462D02*
X332Y462D01*
X1127Y462D02*
X1162Y462D01*
X1194Y462D02*
X1229Y462D01*
X230Y461D02*
X266Y461D01*
X298Y461D02*
X332Y461D01*
X1127Y461D02*
X1162Y461D01*
X1194Y461D02*
X1229Y461D01*
X230Y460D02*
X265Y460D01*
X298Y460D02*
X332Y460D01*
X1126Y460D02*
X1162Y460D01*
X1194Y460D02*
X1229Y460D01*
X229Y459D02*
X265Y459D01*
X298Y459D02*
X332Y459D01*
X1126Y459D02*
X1161Y459D01*
X1194Y459D02*
X1229Y459D01*
X229Y458D02*
X265Y458D01*
X298Y458D02*
X332Y458D01*
X1126Y458D02*
X1161Y458D01*
X1194Y458D02*
X1229Y458D01*
X229Y457D02*
X265Y457D01*
X298Y457D02*
X332Y457D01*
X1126Y457D02*
X1161Y457D01*
X1194Y457D02*
X1229Y457D01*
X229Y456D02*
X265Y456D01*
X298Y456D02*
X332Y456D01*
X1126Y456D02*
X1161Y456D01*
X1194Y456D02*
X1229Y456D01*
X230Y455D02*
X265Y455D01*
X298Y455D02*
X332Y455D01*
X1126Y455D02*
X1162Y455D01*
X1194Y455D02*
X1229Y455D01*
X230Y454D02*
X266Y454D01*
X298Y454D02*
X332Y454D01*
X1127Y454D02*
X1162Y454D01*
X1194Y454D02*
X1229Y454D01*
X230Y453D02*
X266Y453D01*
X297Y453D02*
X332Y453D01*
X1127Y453D02*
X1162Y453D01*
X1194Y453D02*
X1229Y453D01*
X230Y452D02*
X266Y452D01*
X297Y452D02*
X332Y452D01*
X1127Y452D02*
X1162Y452D01*
X1193Y452D02*
X1229Y452D01*
X230Y451D02*
X267Y451D01*
X297Y451D02*
X331Y451D01*
X1127Y451D02*
X1163Y451D01*
X1193Y451D02*
X1228Y451D01*
X231Y450D02*
X267Y450D01*
X296Y450D02*
X331Y450D01*
X1127Y450D02*
X1163Y450D01*
X1192Y450D02*
X1228Y450D01*
X231Y449D02*
X268Y449D01*
X296Y449D02*
X331Y449D01*
X1128Y449D02*
X1164Y449D01*
X1192Y449D02*
X1228Y449D01*
X231Y448D02*
X268Y448D01*
X295Y448D02*
X331Y448D01*
X1128Y448D02*
X1165Y448D01*
X1191Y448D02*
X1227Y448D01*
X232Y447D02*
X269Y447D01*
X294Y447D02*
X330Y447D01*
X1129Y447D02*
X1165Y447D01*
X1190Y447D02*
X1227Y447D01*
X232Y446D02*
X270Y446D01*
X293Y446D02*
X330Y446D01*
X1129Y446D02*
X1166Y446D01*
X1189Y446D02*
X1226Y446D01*
X233Y445D02*
X271Y445D01*
X292Y445D02*
X329Y445D01*
X1130Y445D02*
X1167Y445D01*
X1188Y445D02*
X1226Y445D01*
X233Y444D02*
X273Y444D01*
X291Y444D02*
X328Y444D01*
X1130Y444D02*
X1169Y444D01*
X1187Y444D02*
X1225Y444D01*
X234Y443D02*
X275Y443D01*
X289Y443D02*
X328Y443D01*
X1131Y443D02*
X1171Y443D01*
X1185Y443D02*
X1225Y443D01*
X235Y442D02*
X278Y442D01*
X286Y442D02*
X327Y442D01*
X1132Y442D02*
X1174Y442D01*
X1182Y442D02*
X1224Y442D01*
X235Y441D02*
X326Y441D01*
X1132Y441D02*
X1223Y441D01*
X236Y440D02*
X325Y440D01*
X1133Y440D02*
X1222Y440D01*
X237Y439D02*
X325Y439D01*
X1134Y439D02*
X1221Y439D01*
X238Y438D02*
X323Y438D01*
X1135Y438D02*
X1220Y438D01*
X240Y437D02*
X322Y437D01*
X1137Y437D02*
X1219Y437D01*
X241Y436D02*
X321Y436D01*
X1138Y436D02*
X1218Y436D01*
X243Y435D02*
X319Y435D01*
X1140Y435D02*
X1216Y435D01*
X244Y434D02*
X317Y434D01*
X1141Y434D02*
X1214Y434D01*
X247Y433D02*
X315Y433D01*
X1144Y433D02*
X1212Y433D01*
X250Y432D02*
X311Y432D01*
X1147Y432D02*
X1208Y432D01*
X250Y383D02*
X311Y383D01*
X1147Y383D02*
X1208Y383D01*
X247Y382D02*
X315Y382D01*
X1144Y382D02*
X1212Y382D01*
X244Y381D02*
X317Y381D01*
X1141Y381D02*
X1214Y381D01*
X243Y380D02*
X319Y380D01*
X1140Y380D02*
X1216Y380D01*
X241Y379D02*
X321Y379D01*
X1138Y379D02*
X1218Y379D01*
X240Y378D02*
X322Y378D01*
X1136Y378D02*
X1219Y378D01*
X238Y377D02*
X323Y377D01*
X1135Y377D02*
X1220Y377D01*
X237Y376D02*
X325Y376D01*
X1134Y376D02*
X1221Y376D01*
X236Y375D02*
X325Y375D01*
X1133Y375D02*
X1222Y375D01*
X235Y374D02*
X326Y374D01*
X1132Y374D02*
X1223Y374D01*
X235Y373D02*
X277Y373D01*
X287Y373D02*
X327Y373D01*
X1132Y373D02*
X1173Y373D01*
X1183Y373D02*
X1224Y373D01*
X234Y372D02*
X274Y372D01*
X289Y372D02*
X328Y372D01*
X1131Y372D02*
X1170Y372D01*
X1185Y372D02*
X1225Y372D01*
X233Y371D02*
X272Y371D01*
X291Y371D02*
X328Y371D01*
X1130Y371D02*
X1168Y371D01*
X1187Y371D02*
X1225Y371D01*
X233Y370D02*
X271Y370D01*
X292Y370D02*
X329Y370D01*
X1130Y370D02*
X1167Y370D01*
X1189Y370D02*
X1226Y370D01*
X232Y369D02*
X270Y369D01*
X294Y369D02*
X330Y369D01*
X1129Y369D02*
X1166Y369D01*
X1190Y369D02*
X1226Y369D01*
X232Y368D02*
X269Y368D01*
X294Y368D02*
X330Y368D01*
X1129Y368D02*
X1165Y368D01*
X1191Y368D02*
X1227Y368D01*
X231Y367D02*
X268Y367D01*
X295Y367D02*
X331Y367D01*
X1128Y367D02*
X1164Y367D01*
X1191Y367D02*
X1227Y367D01*
X231Y366D02*
X267Y366D01*
X296Y366D02*
X331Y366D01*
X1128Y366D02*
X1163Y366D01*
X1192Y366D02*
X1228Y366D01*
X230Y365D02*
X267Y365D01*
X297Y365D02*
X331Y365D01*
X1127Y365D02*
X1163Y365D01*
X1193Y365D02*
X1228Y365D01*
X230Y364D02*
X266Y364D01*
X297Y364D02*
X331Y364D01*
X1127Y364D02*
X1162Y364D01*
X1193Y364D02*
X1228Y364D01*
X230Y363D02*
X266Y363D01*
X297Y363D02*
X332Y363D01*
X1127Y363D02*
X1162Y363D01*
X1194Y363D02*
X1229Y363D01*
X230Y362D02*
X265Y362D01*
X298Y362D02*
X332Y362D01*
X1127Y362D02*
X1162Y362D01*
X1194Y362D02*
X1229Y362D01*
X230Y361D02*
X265Y361D01*
X298Y361D02*
X332Y361D01*
X1127Y361D02*
X1161Y361D01*
X1194Y361D02*
X1229Y361D01*
X229Y360D02*
X265Y360D01*
X298Y360D02*
X332Y360D01*
X1126Y360D02*
X1161Y360D01*
X1194Y360D02*
X1229Y360D01*
X229Y359D02*
X265Y359D01*
X298Y359D02*
X332Y359D01*
X1126Y359D02*
X1161Y359D01*
X1194Y359D02*
X1229Y359D01*
X229Y358D02*
X265Y358D01*
X298Y358D02*
X332Y358D01*
X1126Y358D02*
X1161Y358D01*
X1195Y358D02*
X1229Y358D01*
X229Y357D02*
X265Y357D01*
X298Y357D02*
X332Y357D01*
X1126Y357D02*
X1161Y357D01*
X1195Y357D02*
X1229Y357D01*
X229Y356D02*
X265Y356D01*
X298Y356D02*
X332Y356D01*
X1126Y356D02*
X1161Y356D01*
X1194Y356D02*
X1229Y356D01*
X229Y355D02*
X265Y355D01*
X298Y355D02*
X332Y355D01*
X1126Y355D02*
X1161Y355D01*
X1194Y355D02*
X1229Y355D01*
X230Y354D02*
X265Y354D01*
X298Y354D02*
X332Y354D01*
X1127Y354D02*
X1161Y354D01*
X1194Y354D02*
X1229Y354D01*
X230Y353D02*
X265Y353D01*
X298Y353D02*
X332Y353D01*
X1127Y353D02*
X1162Y353D01*
X1194Y353D02*
X1229Y353D01*
X230Y352D02*
X266Y352D01*
X297Y352D02*
X332Y352D01*
X1127Y352D02*
X1162Y352D01*
X1194Y352D02*
X1229Y352D01*
X230Y351D02*
X266Y351D01*
X297Y351D02*
X331Y351D01*
X1127Y351D02*
X1162Y351D01*
X1193Y351D02*
X1228Y351D01*
X230Y350D02*
X267Y350D01*
X296Y350D02*
X331Y350D01*
X1127Y350D02*
X1163Y350D01*
X1193Y350D02*
X1228Y350D01*
X231Y349D02*
X267Y349D01*
X296Y349D02*
X331Y349D01*
X1128Y349D02*
X1163Y349D01*
X1192Y349D02*
X1228Y349D01*
X231Y348D02*
X268Y348D01*
X295Y348D02*
X331Y348D01*
X1128Y348D02*
X1164Y348D01*
X1191Y348D02*
X1227Y348D01*
X232Y347D02*
X269Y347D01*
X294Y347D02*
X330Y347D01*
X1129Y347D02*
X1165Y347D01*
X1191Y347D02*
X1227Y347D01*
X232Y346D02*
X270Y346D01*
X293Y346D02*
X330Y346D01*
X1129Y346D02*
X1166Y346D01*
X1190Y346D02*
X1226Y346D01*
X233Y345D02*
X271Y345D01*
X292Y345D02*
X329Y345D01*
X1130Y345D02*
X1167Y345D01*
X1188Y345D02*
X1226Y345D01*
X233Y344D02*
X272Y344D01*
X291Y344D02*
X328Y344D01*
X1130Y344D02*
X1169Y344D01*
X1187Y344D02*
X1225Y344D01*
X234Y343D02*
X274Y343D01*
X289Y343D02*
X328Y343D01*
X1131Y343D02*
X1170Y343D01*
X1185Y343D02*
X1225Y343D01*
X235Y342D02*
X277Y342D01*
X286Y342D02*
X327Y342D01*
X1132Y342D02*
X1173Y342D01*
X1182Y342D02*
X1224Y342D01*
X235Y341D02*
X326Y341D01*
X1132Y341D02*
X1223Y341D01*
X236Y340D02*
X325Y340D01*
X1133Y340D02*
X1222Y340D01*
X237Y339D02*
X325Y339D01*
X1134Y339D02*
X1221Y339D01*
X238Y338D02*
X323Y338D01*
X1135Y338D02*
X1220Y338D01*
X240Y337D02*
X322Y337D01*
X1137Y337D02*
X1219Y337D01*
X241Y336D02*
X321Y336D01*
X1138Y336D02*
X1218Y336D01*
X243Y335D02*
X319Y335D01*
X1140Y335D02*
X1216Y335D01*
X244Y334D02*
X317Y334D01*
X1141Y334D02*
X1214Y334D01*
X247Y333D02*
X315Y333D01*
X1144Y333D02*
X1212Y333D01*
X250Y332D02*
X311Y332D01*
X1147Y332D02*
X1208Y332D01*
X250Y283D02*
X311Y283D01*
X1147Y283D02*
X1208Y283D01*
X247Y282D02*
X315Y282D01*
X1144Y282D02*
X1212Y282D01*
X244Y281D02*
X317Y281D01*
X1141Y281D02*
X1214Y281D01*
X243Y280D02*
X319Y280D01*
X1139Y280D02*
X1216Y280D01*
X241Y279D02*
X321Y279D01*
X1138Y279D02*
X1218Y279D01*
X240Y278D02*
X322Y278D01*
X1136Y278D02*
X1219Y278D01*
X238Y277D02*
X323Y277D01*
X1135Y277D02*
X1220Y277D01*
X237Y276D02*
X325Y276D01*
X1134Y276D02*
X1221Y276D01*
X236Y275D02*
X325Y275D01*
X1133Y275D02*
X1222Y275D01*
X235Y274D02*
X326Y274D01*
X1132Y274D02*
X1223Y274D01*
X235Y273D02*
X277Y273D01*
X286Y273D02*
X327Y273D01*
X1132Y273D02*
X1173Y273D01*
X1183Y273D02*
X1224Y273D01*
X234Y272D02*
X274Y272D01*
X289Y272D02*
X328Y272D01*
X1131Y272D02*
X1170Y272D01*
X1185Y272D02*
X1225Y272D01*
X233Y271D02*
X272Y271D01*
X291Y271D02*
X328Y271D01*
X1130Y271D02*
X1168Y271D01*
X1187Y271D02*
X1225Y271D01*
X233Y270D02*
X271Y270D01*
X292Y270D02*
X329Y270D01*
X1130Y270D02*
X1167Y270D01*
X1188Y270D02*
X1226Y270D01*
X232Y269D02*
X270Y269D01*
X293Y269D02*
X330Y269D01*
X1129Y269D02*
X1166Y269D01*
X1190Y269D02*
X1226Y269D01*
X232Y268D02*
X269Y268D01*
X294Y268D02*
X330Y268D01*
X1129Y268D02*
X1165Y268D01*
X1191Y268D02*
X1227Y268D01*
X231Y267D02*
X268Y267D01*
X295Y267D02*
X331Y267D01*
X1128Y267D02*
X1164Y267D01*
X1191Y267D02*
X1227Y267D01*
X231Y266D02*
X267Y266D01*
X296Y266D02*
X331Y266D01*
X1128Y266D02*
X1164Y266D01*
X1192Y266D02*
X1228Y266D01*
X230Y265D02*
X267Y265D01*
X296Y265D02*
X331Y265D01*
X1127Y265D02*
X1163Y265D01*
X1193Y265D02*
X1228Y265D01*
X230Y264D02*
X266Y264D01*
X297Y264D02*
X331Y264D01*
X1127Y264D02*
X1162Y264D01*
X1193Y264D02*
X1228Y264D01*
X230Y263D02*
X266Y263D01*
X297Y263D02*
X332Y263D01*
X1127Y263D02*
X1162Y263D01*
X1193Y263D02*
X1229Y263D01*
X230Y262D02*
X266Y262D01*
X298Y262D02*
X332Y262D01*
X1127Y262D02*
X1162Y262D01*
X1194Y262D02*
X1229Y262D01*
X230Y261D02*
X265Y261D01*
X298Y261D02*
X332Y261D01*
X1127Y261D02*
X1161Y261D01*
X1194Y261D02*
X1229Y261D01*
X230Y260D02*
X265Y260D01*
X298Y260D02*
X332Y260D01*
X1126Y260D02*
X1161Y260D01*
X1194Y260D02*
X1229Y260D01*
X229Y259D02*
X265Y259D01*
X298Y259D02*
X332Y259D01*
X1126Y259D02*
X1161Y259D01*
X1194Y259D02*
X1229Y259D01*
X229Y258D02*
X265Y258D01*
X298Y258D02*
X332Y258D01*
X1126Y258D02*
X1161Y258D01*
X1194Y258D02*
X1229Y258D01*
X229Y257D02*
X265Y257D01*
X298Y257D02*
X332Y257D01*
X1126Y257D02*
X1161Y257D01*
X1194Y257D02*
X1229Y257D01*
X229Y256D02*
X265Y256D01*
X298Y256D02*
X332Y256D01*
X1126Y256D02*
X1161Y256D01*
X1194Y256D02*
X1229Y256D01*
X230Y255D02*
X265Y255D01*
X298Y255D02*
X332Y255D01*
X1126Y255D02*
X1161Y255D01*
X1194Y255D02*
X1229Y255D01*
X230Y254D02*
X265Y254D01*
X298Y254D02*
X332Y254D01*
X1127Y254D02*
X1162Y254D01*
X1194Y254D02*
X1229Y254D01*
X230Y253D02*
X266Y253D01*
X298Y253D02*
X332Y253D01*
X1127Y253D02*
X1162Y253D01*
X1194Y253D02*
X1229Y253D01*
X230Y252D02*
X266Y252D01*
X297Y252D02*
X332Y252D01*
X1127Y252D02*
X1162Y252D01*
X1193Y252D02*
X1229Y252D01*
X230Y251D02*
X266Y251D01*
X297Y251D02*
X331Y251D01*
X1127Y251D02*
X1163Y251D01*
X1193Y251D02*
X1228Y251D01*
X231Y250D02*
X267Y250D01*
X296Y250D02*
X331Y250D01*
X1127Y250D02*
X1163Y250D01*
X1193Y250D02*
X1228Y250D01*
X231Y249D02*
X267Y249D01*
X296Y249D02*
X331Y249D01*
X1128Y249D02*
X1164Y249D01*
X1192Y249D02*
X1228Y249D01*
X231Y248D02*
X268Y248D01*
X295Y248D02*
X330Y248D01*
X1128Y248D02*
X1164Y248D01*
X1191Y248D02*
X1227Y248D01*
X232Y247D02*
X269Y247D01*
X294Y247D02*
X330Y247D01*
X1129Y247D02*
X1165Y247D01*
X1190Y247D02*
X1227Y247D01*
X232Y246D02*
X270Y246D01*
X293Y246D02*
X330Y246D01*
X1129Y246D02*
X1166Y246D01*
X1189Y246D02*
X1226Y246D01*
X233Y245D02*
X271Y245D01*
X292Y245D02*
X329Y245D01*
X1130Y245D02*
X1167Y245D01*
X1188Y245D02*
X1226Y245D01*
X233Y244D02*
X273Y244D01*
X291Y244D02*
X328Y244D01*
X1130Y244D02*
X1169Y244D01*
X1187Y244D02*
X1225Y244D01*
X234Y243D02*
X274Y243D01*
X289Y243D02*
X328Y243D01*
X1131Y243D02*
X1171Y243D01*
X1185Y243D02*
X1225Y243D01*
X235Y242D02*
X277Y242D01*
X286Y242D02*
X327Y242D01*
X1132Y242D02*
X1174Y242D01*
X1182Y242D02*
X1224Y242D01*
X235Y241D02*
X326Y241D01*
X1132Y241D02*
X1223Y241D01*
X236Y240D02*
X325Y240D01*
X1133Y240D02*
X1222Y240D01*
X237Y239D02*
X325Y239D01*
X1134Y239D02*
X1221Y239D01*
X238Y238D02*
X323Y238D01*
X1135Y238D02*
X1220Y238D01*
X240Y237D02*
X322Y237D01*
X1137Y237D02*
X1219Y237D01*
X241Y236D02*
X321Y236D01*
X1138Y236D02*
X1218Y236D01*
X243Y235D02*
X319Y235D01*
X1140Y235D02*
X1216Y235D01*
X244Y234D02*
X317Y234D01*
X1141Y234D02*
X1214Y234D01*
X247Y233D02*
X315Y233D01*
X1144Y233D02*
X1212Y233D01*
X251Y232D02*
X311Y232D01*
X1147Y232D02*
X1208Y232D01*
X250Y183D02*
X311Y183D01*
X1147Y183D02*
X1208Y183D01*
X247Y182D02*
X315Y182D01*
X1144Y182D02*
X1212Y182D01*
X244Y181D02*
X317Y181D01*
X1141Y181D02*
X1214Y181D01*
X243Y180D02*
X319Y180D01*
X1139Y180D02*
X1216Y180D01*
X241Y179D02*
X321Y179D01*
X1138Y179D02*
X1218Y179D01*
X240Y178D02*
X322Y178D01*
X1136Y178D02*
X1219Y178D01*
X238Y177D02*
X323Y177D01*
X1135Y177D02*
X1220Y177D01*
X237Y176D02*
X325Y176D01*
X1134Y176D02*
X1222Y176D01*
X236Y175D02*
X325Y175D01*
X1133Y175D02*
X1222Y175D01*
X235Y174D02*
X326Y174D01*
X1132Y174D02*
X1223Y174D01*
X235Y173D02*
X277Y173D01*
X286Y173D02*
X327Y173D01*
X1132Y173D02*
X1173Y173D01*
X1183Y173D02*
X1224Y173D01*
X234Y172D02*
X274Y172D01*
X289Y172D02*
X328Y172D01*
X1131Y172D02*
X1170Y172D01*
X1185Y172D02*
X1225Y172D01*
X233Y171D02*
X272Y171D01*
X291Y171D02*
X328Y171D01*
X1130Y171D02*
X1168Y171D01*
X1187Y171D02*
X1225Y171D01*
X233Y170D02*
X271Y170D01*
X292Y170D02*
X329Y170D01*
X1130Y170D02*
X1167Y170D01*
X1188Y170D02*
X1226Y170D01*
X232Y169D02*
X270Y169D01*
X293Y169D02*
X330Y169D01*
X1129Y169D02*
X1166Y169D01*
X1190Y169D02*
X1226Y169D01*
X232Y168D02*
X269Y168D01*
X294Y168D02*
X330Y168D01*
X1129Y168D02*
X1165Y168D01*
X1191Y168D02*
X1227Y168D01*
X231Y167D02*
X268Y167D01*
X295Y167D02*
X331Y167D01*
X1128Y167D02*
X1164Y167D01*
X1191Y167D02*
X1227Y167D01*
X231Y166D02*
X267Y166D01*
X296Y166D02*
X331Y166D01*
X1128Y166D02*
X1164Y166D01*
X1192Y166D02*
X1228Y166D01*
X230Y165D02*
X267Y165D01*
X296Y165D02*
X331Y165D01*
X1127Y165D02*
X1163Y165D01*
X1193Y165D02*
X1228Y165D01*
X230Y164D02*
X266Y164D01*
X297Y164D02*
X331Y164D01*
X1127Y164D02*
X1162Y164D01*
X1193Y164D02*
X1228Y164D01*
X230Y163D02*
X266Y163D01*
X297Y163D02*
X332Y163D01*
X1127Y163D02*
X1162Y163D01*
X1193Y163D02*
X1229Y163D01*
X230Y162D02*
X266Y162D01*
X298Y162D02*
X332Y162D01*
X1127Y162D02*
X1162Y162D01*
X1194Y162D02*
X1229Y162D01*
X230Y161D02*
X265Y161D01*
X298Y161D02*
X332Y161D01*
X1127Y161D02*
X1161Y161D01*
X1194Y161D02*
X1229Y161D01*
X229Y160D02*
X265Y160D01*
X298Y160D02*
X332Y160D01*
X1126Y160D02*
X1161Y160D01*
X1194Y160D02*
X1229Y160D01*
X229Y159D02*
X265Y159D01*
X298Y159D02*
X332Y159D01*
X1126Y159D02*
X1161Y159D01*
X1194Y159D02*
X1229Y159D01*
X229Y158D02*
X265Y158D01*
X298Y158D02*
X332Y158D01*
X1126Y158D02*
X1161Y158D01*
X1194Y158D02*
X1229Y158D01*
X229Y157D02*
X265Y157D01*
X298Y157D02*
X332Y157D01*
X1126Y157D02*
X1161Y157D01*
X1194Y157D02*
X1229Y157D01*
X229Y156D02*
X265Y156D01*
X298Y156D02*
X332Y156D01*
X1126Y156D02*
X1161Y156D01*
X1194Y156D02*
X1229Y156D01*
X229Y155D02*
X265Y155D01*
X298Y155D02*
X332Y155D01*
X1126Y155D02*
X1161Y155D01*
X1194Y155D02*
X1229Y155D01*
X230Y154D02*
X265Y154D01*
X298Y154D02*
X332Y154D01*
X1127Y154D02*
X1162Y154D01*
X1194Y154D02*
X1229Y154D01*
X230Y153D02*
X266Y153D01*
X298Y153D02*
X332Y153D01*
X1127Y153D02*
X1162Y153D01*
X1194Y153D02*
X1229Y153D01*
X230Y152D02*
X266Y152D01*
X297Y152D02*
X332Y152D01*
X1127Y152D02*
X1162Y152D01*
X1193Y152D02*
X1229Y152D01*
X230Y151D02*
X266Y151D01*
X297Y151D02*
X331Y151D01*
X1127Y151D02*
X1163Y151D01*
X1193Y151D02*
X1228Y151D01*
X230Y150D02*
X267Y150D01*
X296Y150D02*
X331Y150D01*
X1127Y150D02*
X1163Y150D01*
X1192Y150D02*
X1228Y150D01*
X231Y149D02*
X267Y149D01*
X296Y149D02*
X331Y149D01*
X1128Y149D02*
X1164Y149D01*
X1192Y149D02*
X1228Y149D01*
X231Y148D02*
X268Y148D01*
X295Y148D02*
X330Y148D01*
X1128Y148D02*
X1164Y148D01*
X1191Y148D02*
X1227Y148D01*
X232Y147D02*
X269Y147D01*
X294Y147D02*
X330Y147D01*
X1129Y147D02*
X1165Y147D01*
X1190Y147D02*
X1227Y147D01*
X232Y146D02*
X270Y146D01*
X293Y146D02*
X330Y146D01*
X1129Y146D02*
X1166Y146D01*
X1189Y146D02*
X1226Y146D01*
X233Y145D02*
X271Y145D01*
X292Y145D02*
X329Y145D01*
X1130Y145D02*
X1167Y145D01*
X1188Y145D02*
X1226Y145D01*
X233Y144D02*
X273Y144D01*
X291Y144D02*
X328Y144D01*
X1130Y144D02*
X1169Y144D01*
X1187Y144D02*
X1225Y144D01*
X234Y143D02*
X274Y143D01*
X289Y143D02*
X328Y143D01*
X1131Y143D02*
X1171Y143D01*
X1185Y143D02*
X1225Y143D01*
X235Y142D02*
X277Y142D01*
X286Y142D02*
X327Y142D01*
X1132Y142D02*
X1174Y142D01*
X1182Y142D02*
X1224Y142D01*
X235Y141D02*
X326Y141D01*
X1132Y141D02*
X1223Y141D01*
X236Y140D02*
X325Y140D01*
X1133Y140D02*
X1222Y140D01*
X237Y139D02*
X325Y139D01*
X1134Y139D02*
X1221Y139D01*
X238Y138D02*
X323Y138D01*
X1135Y138D02*
X1220Y138D01*
X240Y137D02*
X322Y137D01*
X1137Y137D02*
X1219Y137D01*
X241Y136D02*
X321Y136D01*
X1138Y136D02*
X1218Y136D01*
X243Y135D02*
X319Y135D01*
X1140Y135D02*
X1216Y135D01*
X244Y134D02*
X317Y134D01*
X1141Y134D02*
X1214Y134D01*
X247Y133D02*
X315Y133D01*
X1144Y133D02*
X1212Y133D01*
X250Y132D02*
X311Y132D01*
X1147Y132D02*
X1208Y132D01*
X250Y83D02*
X311Y83D01*
X1147Y83D02*
X1208Y83D01*
X247Y82D02*
X315Y82D01*
X1144Y82D02*
X1212Y82D01*
X244Y81D02*
X317Y81D01*
X1141Y81D02*
X1214Y81D01*
X243Y80D02*
X319Y80D01*
X1139Y80D02*
X1216Y80D01*
X241Y79D02*
X321Y79D01*
X1138Y79D02*
X1218Y79D01*
X240Y78D02*
X322Y78D01*
X1136Y78D02*
X1219Y78D01*
X238Y77D02*
X323Y77D01*
X1135Y77D02*
X1220Y77D01*
X237Y76D02*
X325Y76D01*
X1134Y76D02*
X1222Y76D01*
X236Y75D02*
X325Y75D01*
X1133Y75D02*
X1222Y75D01*
X235Y74D02*
X326Y74D01*
X1132Y74D02*
X1223Y74D01*
X235Y73D02*
X277Y73D01*
X286Y73D02*
X327Y73D01*
X1132Y73D02*
X1173Y73D01*
X1183Y73D02*
X1224Y73D01*
X234Y72D02*
X274Y72D01*
X289Y72D02*
X328Y72D01*
X1131Y72D02*
X1170Y72D01*
X1185Y72D02*
X1225Y72D01*
X233Y71D02*
X272Y71D01*
X291Y71D02*
X328Y71D01*
X1130Y71D02*
X1168Y71D01*
X1187Y71D02*
X1225Y71D01*
X233Y70D02*
X271Y70D01*
X292Y70D02*
X329Y70D01*
X1130Y70D02*
X1167Y70D01*
X1188Y70D02*
X1226Y70D01*
X232Y69D02*
X270Y69D01*
X293Y69D02*
X330Y69D01*
X1129Y69D02*
X1166Y69D01*
X1190Y69D02*
X1226Y69D01*
X232Y68D02*
X269Y68D01*
X294Y68D02*
X330Y68D01*
X1129Y68D02*
X1165Y68D01*
X1191Y68D02*
X1227Y68D01*
X231Y67D02*
X268Y67D01*
X295Y67D02*
X331Y67D01*
X1128Y67D02*
X1164Y67D01*
X1191Y67D02*
X1227Y67D01*
X231Y66D02*
X267Y66D01*
X296Y66D02*
X331Y66D01*
X1128Y66D02*
X1164Y66D01*
X1192Y66D02*
X1228Y66D01*
X230Y65D02*
X267Y65D01*
X296Y65D02*
X331Y65D01*
X1127Y65D02*
X1163Y65D01*
X1193Y65D02*
X1228Y65D01*
X230Y64D02*
X266Y64D01*
X297Y64D02*
X331Y64D01*
X1127Y64D02*
X1162Y64D01*
X1193Y64D02*
X1228Y64D01*
X230Y63D02*
X266Y63D01*
X297Y63D02*
X332Y63D01*
X1127Y63D02*
X1162Y63D01*
X1193Y63D02*
X1229Y63D01*
X230Y62D02*
X266Y62D01*
X298Y62D02*
X332Y62D01*
X1127Y62D02*
X1162Y62D01*
X1194Y62D02*
X1229Y62D01*
X230Y61D02*
X265Y61D01*
X298Y61D02*
X332Y61D01*
X1127Y61D02*
X1161Y61D01*
X1194Y61D02*
X1229Y61D01*
X230Y60D02*
X265Y60D01*
X298Y60D02*
X332Y60D01*
X1126Y60D02*
X1161Y60D01*
X1194Y60D02*
X1229Y60D01*
X229Y59D02*
X265Y59D01*
X298Y59D02*
X332Y59D01*
X1126Y59D02*
X1161Y59D01*
X1194Y59D02*
X1229Y59D01*
X229Y58D02*
X265Y58D01*
X298Y58D02*
X332Y58D01*
X1126Y58D02*
X1161Y58D01*
X1194Y58D02*
X1229Y58D01*
X229Y57D02*
X265Y57D01*
X298Y57D02*
X332Y57D01*
X1126Y57D02*
X1161Y57D01*
X1194Y57D02*
X1229Y57D01*
X229Y56D02*
X265Y56D01*
X298Y56D02*
X332Y56D01*
X1126Y56D02*
X1161Y56D01*
X1194Y56D02*
X1229Y56D01*
X230Y55D02*
X265Y55D01*
X298Y55D02*
X332Y55D01*
X1126Y55D02*
X1161Y55D01*
X1194Y55D02*
X1229Y55D01*
X230Y54D02*
X265Y54D01*
X298Y54D02*
X332Y54D01*
X1127Y54D02*
X1162Y54D01*
X1194Y54D02*
X1229Y54D01*
X230Y53D02*
X266Y53D01*
X298Y53D02*
X332Y53D01*
X1127Y53D02*
X1162Y53D01*
X1194Y53D02*
X1229Y53D01*
X230Y52D02*
X266Y52D01*
X297Y52D02*
X332Y52D01*
X1127Y52D02*
X1162Y52D01*
X1193Y52D02*
X1229Y52D01*
X230Y51D02*
X266Y51D01*
X297Y51D02*
X331Y51D01*
X1127Y51D02*
X1163Y51D01*
X1193Y51D02*
X1228Y51D01*
X231Y50D02*
X267Y50D01*
X296Y50D02*
X331Y50D01*
X1127Y50D02*
X1163Y50D01*
X1192Y50D02*
X1228Y50D01*
X231Y49D02*
X267Y49D01*
X296Y49D02*
X331Y49D01*
X1128Y49D02*
X1164Y49D01*
X1192Y49D02*
X1228Y49D01*
X231Y48D02*
X268Y48D01*
X295Y48D02*
X330Y48D01*
X1128Y48D02*
X1164Y48D01*
X1191Y48D02*
X1227Y48D01*
X232Y47D02*
X269Y47D01*
X294Y47D02*
X330Y47D01*
X1129Y47D02*
X1165Y47D01*
X1190Y47D02*
X1227Y47D01*
X232Y46D02*
X270Y46D01*
X293Y46D02*
X330Y46D01*
X1129Y46D02*
X1166Y46D01*
X1189Y46D02*
X1226Y46D01*
X233Y45D02*
X271Y45D01*
X292Y45D02*
X329Y45D01*
X1130Y45D02*
X1167Y45D01*
X1188Y45D02*
X1226Y45D01*
X233Y44D02*
X273Y44D01*
X291Y44D02*
X328Y44D01*
X1130Y44D02*
X1169Y44D01*
X1187Y44D02*
X1225Y44D01*
X234Y43D02*
X274Y43D01*
X289Y43D02*
X328Y43D01*
X1131Y43D02*
X1171Y43D01*
X1185Y43D02*
X1225Y43D01*
X235Y42D02*
X278Y42D01*
X286Y42D02*
X327Y42D01*
X1132Y42D02*
X1174Y42D01*
X1182Y42D02*
X1224Y42D01*
X235Y41D02*
X326Y41D01*
X1132Y41D02*
X1223Y41D01*
X236Y40D02*
X325Y40D01*
X1133Y40D02*
X1222Y40D01*
X237Y39D02*
X325Y39D01*
X1134Y39D02*
X1221Y39D01*
X238Y38D02*
X323Y38D01*
X1135Y38D02*
X1220Y38D01*
X240Y37D02*
X322Y37D01*
X1137Y37D02*
X1219Y37D01*
X241Y36D02*
X321Y36D01*
X1138Y36D02*
X1218Y36D01*
X243Y35D02*
X319Y35D01*
X1140Y35D02*
X1216Y35D01*
X244Y34D02*
X317Y34D01*
X1141Y34D02*
X1214Y34D01*
X247Y33D02*
X315Y33D01*
X1144Y33D02*
X1212Y33D01*
X251Y32D02*
X311Y32D01*
X1148Y32D02*
X1208Y32D01*
D02*
G04 End of Copper0*
M02*