G04 MADE WITH FRITZING*
G04 WWW.FRITZING.ORG*
G04 DOUBLE SIDED*
G04 HOLES PLATED*
G04 CONTOUR ON CENTER OF CONTOUR VECTOR*
%ASAXBY*%
%FSLAX23Y23*%
%MOIN*%
%OFA0B0*%
%SFA1.0B1.0*%
%ADD10C,0.135000*%
%ADD11C,0.088000*%
%ADD12C,0.025748*%
%ADD13C,0.049370*%
%ADD14C,0.062000*%
%ADD15C,0.088639*%
%ADD16C,0.158908*%
%ADD17C,0.065278*%
%ADD18C,0.135984*%
%ADD19R,0.001000X0.001000*%
%LNMASK0*%
G90*
G70*
G54D10*
X945Y2677D03*
X434Y2679D03*
G54D11*
X596Y2979D03*
X796Y2979D03*
X797Y2385D03*
X697Y2385D03*
X597Y2385D03*
G54D10*
X1770Y2677D03*
X1259Y2679D03*
G54D11*
X1421Y2979D03*
X1621Y2979D03*
X1622Y2385D03*
X1522Y2385D03*
X1422Y2385D03*
G54D12*
X722Y2778D03*
X1097Y2778D03*
X797Y1954D03*
X646Y2079D03*
X696Y1978D03*
X746Y1878D03*
X1146Y1478D03*
X1122Y1553D03*
X1122Y1655D03*
X1122Y1754D03*
X1122Y1853D03*
X1646Y628D03*
X1547Y604D03*
X1646Y254D03*
X1547Y254D03*
X1672Y353D03*
X1547Y353D03*
X1672Y454D03*
X1547Y454D03*
X1547Y554D03*
X1672Y554D03*
X1321Y653D03*
X1271Y679D03*
X1321Y753D03*
X1246Y779D03*
X1321Y854D03*
X1222Y878D03*
X1321Y954D03*
X1196Y978D03*
X1321Y1054D03*
X1172Y1079D03*
X1521Y1103D03*
X1521Y1404D03*
X821Y3054D03*
X997Y3054D03*
X821Y1829D03*
X822Y1879D03*
X1472Y2278D03*
X1597Y2279D03*
X1046Y2079D03*
X1071Y2129D03*
X1096Y2079D03*
X1021Y1929D03*
X1046Y1879D03*
X1071Y1929D03*
X1072Y2304D03*
X847Y2328D03*
X372Y2153D03*
X522Y2203D03*
G54D11*
X296Y704D03*
X296Y804D03*
X296Y904D03*
X296Y1004D03*
X296Y1104D03*
X296Y1204D03*
X296Y1304D03*
X296Y1404D03*
X296Y1504D03*
X296Y1604D03*
X296Y1704D03*
X296Y1804D03*
X296Y1904D03*
X296Y2004D03*
X296Y2104D03*
X296Y2204D03*
X296Y2304D03*
X296Y2404D03*
X296Y2504D03*
X296Y2604D03*
X296Y2704D03*
X296Y2804D03*
X296Y2904D03*
X296Y3004D03*
X296Y3104D03*
X296Y3204D03*
G54D13*
X1947Y2754D03*
X1948Y2652D03*
X2695Y2652D03*
X2695Y2754D03*
X3447Y2654D03*
X3447Y2754D03*
X1946Y1903D03*
X2697Y1903D03*
X3446Y1903D03*
X3446Y2005D03*
X2697Y2005D03*
X1946Y2005D03*
X3448Y1254D03*
X3448Y1153D03*
X2695Y1254D03*
X2695Y1153D03*
X1946Y1254D03*
X1946Y1153D03*
X2822Y1479D03*
X3572Y1479D03*
G54D14*
X521Y2054D03*
X521Y1954D03*
X521Y1854D03*
X521Y1754D03*
X521Y1654D03*
X521Y1554D03*
X521Y1454D03*
X521Y1354D03*
X521Y1254D03*
X521Y1154D03*
X521Y1054D03*
X521Y954D03*
X521Y854D03*
X521Y754D03*
X521Y654D03*
X521Y554D03*
X521Y454D03*
X521Y354D03*
X521Y254D03*
X521Y154D03*
X521Y54D03*
X1421Y54D03*
X1421Y154D03*
X1421Y254D03*
X1421Y354D03*
X1421Y454D03*
X1421Y554D03*
X1421Y654D03*
X1421Y754D03*
X1421Y854D03*
X1421Y954D03*
X1421Y1054D03*
X1421Y1154D03*
X1421Y1254D03*
X1421Y1354D03*
X1421Y1454D03*
X1421Y1554D03*
X1421Y1654D03*
X1421Y1754D03*
X1421Y1854D03*
X1421Y1954D03*
X1421Y2054D03*
G54D15*
X2121Y2704D03*
X2371Y2804D03*
G54D16*
X2271Y2604D03*
G54D17*
X2071Y2604D03*
X2471Y2604D03*
G54D15*
X2871Y2704D03*
X3121Y2804D03*
G54D16*
X3021Y2604D03*
G54D17*
X2821Y2604D03*
X3221Y2604D03*
G54D15*
X3621Y2704D03*
X3871Y2804D03*
G54D16*
X3771Y2604D03*
G54D17*
X3571Y2604D03*
X3971Y2604D03*
G54D15*
X2121Y1954D03*
X2371Y2054D03*
G54D16*
X2271Y1854D03*
G54D17*
X2071Y1854D03*
X2471Y1854D03*
G54D15*
X2871Y1954D03*
X3121Y2054D03*
G54D16*
X3021Y1854D03*
G54D17*
X2821Y1854D03*
X3221Y1854D03*
G54D15*
X3621Y1954D03*
X3871Y2054D03*
G54D16*
X3771Y1854D03*
G54D17*
X3571Y1854D03*
X3971Y1854D03*
G54D15*
X2121Y1204D03*
X2371Y1304D03*
G54D16*
X2271Y1104D03*
G54D17*
X2071Y1104D03*
X2471Y1104D03*
G54D15*
X2871Y1204D03*
X3121Y1304D03*
G54D16*
X3021Y1104D03*
G54D17*
X2821Y1104D03*
X3221Y1104D03*
G54D15*
X3621Y1204D03*
X3871Y1304D03*
G54D16*
X3771Y1104D03*
G54D17*
X3571Y1104D03*
X3971Y1104D03*
G54D15*
X2121Y454D03*
X2371Y554D03*
G54D16*
X2271Y354D03*
G54D17*
X2071Y354D03*
X2471Y354D03*
G54D15*
X2871Y454D03*
X3121Y554D03*
G54D16*
X3021Y354D03*
G54D17*
X2821Y354D03*
X3221Y354D03*
G54D15*
X3621Y454D03*
X3871Y554D03*
G54D16*
X3771Y354D03*
G54D17*
X3571Y354D03*
X3971Y354D03*
G54D18*
X96Y3179D03*
X96Y104D03*
X4171Y104D03*
X4171Y3179D03*
G54D13*
X996Y2054D03*
X846Y2054D03*
X971Y1879D03*
X1871Y1403D03*
G54D19*
X496Y2090D02*
X551Y2090D01*
X1393Y2090D02*
X1448Y2090D01*
X490Y2089D02*
X557Y2089D01*
X1387Y2089D02*
X1454Y2089D01*
X486Y2088D02*
X560Y2088D01*
X1383Y2088D02*
X1457Y2088D01*
X484Y2087D02*
X563Y2087D01*
X1381Y2087D02*
X1460Y2087D01*
X482Y2086D02*
X565Y2086D01*
X1379Y2086D02*
X1462Y2086D01*
X480Y2085D02*
X567Y2085D01*
X1377Y2085D02*
X1464Y2085D01*
X478Y2084D02*
X569Y2084D01*
X1375Y2084D02*
X1466Y2084D01*
X477Y2083D02*
X570Y2083D01*
X1374Y2083D02*
X1467Y2083D01*
X475Y2082D02*
X572Y2082D01*
X1372Y2082D02*
X1468Y2082D01*
X474Y2081D02*
X573Y2081D01*
X1371Y2081D02*
X1470Y2081D01*
X473Y2080D02*
X574Y2080D01*
X1370Y2080D02*
X1471Y2080D01*
X472Y2079D02*
X575Y2079D01*
X1369Y2079D02*
X1472Y2079D01*
X471Y2078D02*
X576Y2078D01*
X1368Y2078D02*
X1473Y2078D01*
X470Y2077D02*
X577Y2077D01*
X1367Y2077D02*
X1474Y2077D01*
X470Y2076D02*
X577Y2076D01*
X1366Y2076D02*
X1474Y2076D01*
X469Y2075D02*
X578Y2075D01*
X1366Y2075D02*
X1475Y2075D01*
X468Y2074D02*
X579Y2074D01*
X1365Y2074D02*
X1476Y2074D01*
X468Y2073D02*
X579Y2073D01*
X1364Y2073D02*
X1476Y2073D01*
X467Y2072D02*
X580Y2072D01*
X1364Y2072D02*
X1477Y2072D01*
X466Y2071D02*
X581Y2071D01*
X1363Y2071D02*
X1477Y2071D01*
X466Y2070D02*
X581Y2070D01*
X1363Y2070D02*
X1478Y2070D01*
X465Y2069D02*
X581Y2069D01*
X1362Y2069D02*
X1478Y2069D01*
X465Y2068D02*
X582Y2068D01*
X1362Y2068D02*
X1479Y2068D01*
X465Y2067D02*
X582Y2067D01*
X1361Y2067D02*
X1479Y2067D01*
X464Y2066D02*
X583Y2066D01*
X1361Y2066D02*
X1480Y2066D01*
X464Y2065D02*
X583Y2065D01*
X1361Y2065D02*
X1480Y2065D01*
X464Y2064D02*
X583Y2064D01*
X1360Y2064D02*
X1480Y2064D01*
X463Y2063D02*
X584Y2063D01*
X1360Y2063D02*
X1480Y2063D01*
X463Y2062D02*
X584Y2062D01*
X1360Y2062D02*
X1481Y2062D01*
X463Y2061D02*
X584Y2061D01*
X1360Y2061D02*
X1481Y2061D01*
X463Y2060D02*
X522Y2060D01*
X527Y2060D02*
X584Y2060D01*
X1359Y2060D02*
X1418Y2060D01*
X1423Y2060D02*
X1481Y2060D01*
X462Y2059D02*
X520Y2059D01*
X528Y2059D02*
X584Y2059D01*
X1359Y2059D02*
X1416Y2059D01*
X1424Y2059D02*
X1481Y2059D01*
X462Y2058D02*
X519Y2058D01*
X529Y2058D02*
X585Y2058D01*
X1359Y2058D02*
X1415Y2058D01*
X1425Y2058D02*
X1482Y2058D01*
X462Y2057D02*
X518Y2057D01*
X530Y2057D02*
X585Y2057D01*
X1359Y2057D02*
X1414Y2057D01*
X1426Y2057D02*
X1482Y2057D01*
X462Y2056D02*
X518Y2056D01*
X531Y2056D02*
X585Y2056D01*
X1359Y2056D02*
X1414Y2056D01*
X1427Y2056D02*
X1482Y2056D01*
X462Y2055D02*
X518Y2055D01*
X531Y2055D02*
X585Y2055D01*
X1359Y2055D02*
X1414Y2055D01*
X1427Y2055D02*
X1482Y2055D01*
X462Y2054D02*
X518Y2054D01*
X531Y2054D02*
X585Y2054D01*
X1359Y2054D02*
X1414Y2054D01*
X1427Y2054D02*
X1482Y2054D01*
X462Y2053D02*
X518Y2053D01*
X531Y2053D02*
X585Y2053D01*
X1359Y2053D02*
X1414Y2053D01*
X1427Y2053D02*
X1482Y2053D01*
X462Y2052D02*
X518Y2052D01*
X530Y2052D02*
X585Y2052D01*
X1359Y2052D02*
X1414Y2052D01*
X1427Y2052D02*
X1482Y2052D01*
X462Y2051D02*
X519Y2051D01*
X530Y2051D02*
X585Y2051D01*
X1359Y2051D02*
X1415Y2051D01*
X1426Y2051D02*
X1482Y2051D01*
X462Y2050D02*
X519Y2050D01*
X529Y2050D02*
X585Y2050D01*
X1359Y2050D02*
X1416Y2050D01*
X1425Y2050D02*
X1481Y2050D01*
X462Y2049D02*
X521Y2049D01*
X528Y2049D02*
X584Y2049D01*
X1359Y2049D02*
X1417Y2049D01*
X1424Y2049D02*
X1481Y2049D01*
X463Y2048D02*
X584Y2048D01*
X1359Y2048D02*
X1481Y2048D01*
X463Y2047D02*
X584Y2047D01*
X1359Y2047D02*
X1481Y2047D01*
X463Y2046D02*
X584Y2046D01*
X1359Y2046D02*
X1481Y2046D01*
X463Y2045D02*
X584Y2045D01*
X1359Y2045D02*
X1480Y2045D01*
X464Y2044D02*
X583Y2044D01*
X1360Y2044D02*
X1480Y2044D01*
X464Y2043D02*
X583Y2043D01*
X1361Y2043D02*
X1480Y2043D01*
X464Y2042D02*
X583Y2042D01*
X1361Y2042D02*
X1479Y2042D01*
X465Y2041D02*
X582Y2041D01*
X1362Y2041D02*
X1479Y2041D01*
X465Y2040D02*
X582Y2040D01*
X1362Y2040D02*
X1479Y2040D01*
X466Y2039D02*
X581Y2039D01*
X1362Y2039D02*
X1478Y2039D01*
X466Y2038D02*
X581Y2038D01*
X1363Y2038D02*
X1478Y2038D01*
X467Y2037D02*
X580Y2037D01*
X1363Y2037D02*
X1477Y2037D01*
X467Y2036D02*
X580Y2036D01*
X1364Y2036D02*
X1477Y2036D01*
X468Y2035D02*
X579Y2035D01*
X1365Y2035D02*
X1476Y2035D01*
X468Y2034D02*
X579Y2034D01*
X1365Y2034D02*
X1475Y2034D01*
X469Y2033D02*
X578Y2033D01*
X1366Y2033D02*
X1475Y2033D01*
X470Y2032D02*
X577Y2032D01*
X1367Y2032D02*
X1474Y2032D01*
X470Y2031D02*
X576Y2031D01*
X1367Y2031D02*
X1473Y2031D01*
X471Y2030D02*
X576Y2030D01*
X1368Y2030D02*
X1472Y2030D01*
X472Y2029D02*
X575Y2029D01*
X1369Y2029D02*
X1472Y2029D01*
X473Y2028D02*
X574Y2028D01*
X1370Y2028D02*
X1470Y2028D01*
X474Y2027D02*
X572Y2027D01*
X1371Y2027D02*
X1469Y2027D01*
X476Y2026D02*
X571Y2026D01*
X1373Y2026D02*
X1468Y2026D01*
X477Y2025D02*
X570Y2025D01*
X1374Y2025D02*
X1467Y2025D01*
X479Y2024D02*
X568Y2024D01*
X1375Y2024D02*
X1465Y2024D01*
X480Y2023D02*
X567Y2023D01*
X1377Y2023D02*
X1463Y2023D01*
X482Y2022D02*
X565Y2022D01*
X1379Y2022D02*
X1462Y2022D01*
X484Y2021D02*
X562Y2021D01*
X1381Y2021D02*
X1459Y2021D01*
X487Y2020D02*
X560Y2020D01*
X1384Y2020D02*
X1457Y2020D01*
X491Y2019D02*
X556Y2019D01*
X1388Y2019D02*
X1453Y2019D01*
X496Y1990D02*
X551Y1990D01*
X1393Y1990D02*
X1448Y1990D01*
X490Y1989D02*
X557Y1989D01*
X1387Y1989D02*
X1454Y1989D01*
X486Y1988D02*
X560Y1988D01*
X1383Y1988D02*
X1457Y1988D01*
X484Y1987D02*
X563Y1987D01*
X1381Y1987D02*
X1460Y1987D01*
X482Y1986D02*
X565Y1986D01*
X1379Y1986D02*
X1462Y1986D01*
X480Y1985D02*
X567Y1985D01*
X1377Y1985D02*
X1464Y1985D01*
X478Y1984D02*
X569Y1984D01*
X1375Y1984D02*
X1466Y1984D01*
X477Y1983D02*
X570Y1983D01*
X1374Y1983D02*
X1467Y1983D01*
X475Y1982D02*
X572Y1982D01*
X1372Y1982D02*
X1468Y1982D01*
X474Y1981D02*
X573Y1981D01*
X1371Y1981D02*
X1470Y1981D01*
X473Y1980D02*
X574Y1980D01*
X1370Y1980D02*
X1471Y1980D01*
X472Y1979D02*
X575Y1979D01*
X1369Y1979D02*
X1472Y1979D01*
X471Y1978D02*
X576Y1978D01*
X1368Y1978D02*
X1473Y1978D01*
X470Y1977D02*
X577Y1977D01*
X1367Y1977D02*
X1474Y1977D01*
X469Y1976D02*
X577Y1976D01*
X1366Y1976D02*
X1474Y1976D01*
X469Y1975D02*
X578Y1975D01*
X1366Y1975D02*
X1475Y1975D01*
X468Y1974D02*
X579Y1974D01*
X1365Y1974D02*
X1476Y1974D01*
X467Y1973D02*
X579Y1973D01*
X1364Y1973D02*
X1476Y1973D01*
X467Y1972D02*
X580Y1972D01*
X1364Y1972D02*
X1477Y1972D01*
X466Y1971D02*
X580Y1971D01*
X1363Y1971D02*
X1477Y1971D01*
X466Y1970D02*
X581Y1970D01*
X1363Y1970D02*
X1478Y1970D01*
X465Y1969D02*
X581Y1969D01*
X1362Y1969D02*
X1478Y1969D01*
X465Y1968D02*
X582Y1968D01*
X1362Y1968D02*
X1479Y1968D01*
X465Y1967D02*
X582Y1967D01*
X1361Y1967D02*
X1479Y1967D01*
X464Y1966D02*
X583Y1966D01*
X1361Y1966D02*
X1480Y1966D01*
X464Y1965D02*
X583Y1965D01*
X1361Y1965D02*
X1480Y1965D01*
X463Y1964D02*
X583Y1964D01*
X1360Y1964D02*
X1480Y1964D01*
X463Y1963D02*
X584Y1963D01*
X1360Y1963D02*
X1480Y1963D01*
X463Y1962D02*
X584Y1962D01*
X1360Y1962D02*
X1481Y1962D01*
X463Y1961D02*
X584Y1961D01*
X1360Y1961D02*
X1481Y1961D01*
X462Y1960D02*
X522Y1960D01*
X526Y1960D02*
X584Y1960D01*
X1359Y1960D02*
X1418Y1960D01*
X1423Y1960D02*
X1481Y1960D01*
X462Y1959D02*
X520Y1959D01*
X528Y1959D02*
X584Y1959D01*
X1359Y1959D02*
X1416Y1959D01*
X1425Y1959D02*
X1481Y1959D01*
X462Y1958D02*
X519Y1958D01*
X529Y1958D02*
X585Y1958D01*
X1359Y1958D02*
X1415Y1958D01*
X1426Y1958D02*
X1482Y1958D01*
X462Y1957D02*
X518Y1957D01*
X530Y1957D02*
X585Y1957D01*
X1359Y1957D02*
X1414Y1957D01*
X1426Y1957D02*
X1482Y1957D01*
X462Y1956D02*
X518Y1956D01*
X531Y1956D02*
X585Y1956D01*
X1359Y1956D02*
X1414Y1956D01*
X1427Y1956D02*
X1482Y1956D01*
X462Y1955D02*
X518Y1955D01*
X531Y1955D02*
X585Y1955D01*
X1359Y1955D02*
X1414Y1955D01*
X1427Y1955D02*
X1482Y1955D01*
X462Y1954D02*
X517Y1954D01*
X531Y1954D02*
X585Y1954D01*
X1359Y1954D02*
X1414Y1954D01*
X1427Y1954D02*
X1482Y1954D01*
X462Y1953D02*
X518Y1953D01*
X531Y1953D02*
X585Y1953D01*
X1359Y1953D02*
X1414Y1953D01*
X1427Y1953D02*
X1482Y1953D01*
X462Y1952D02*
X518Y1952D01*
X530Y1952D02*
X585Y1952D01*
X1359Y1952D02*
X1414Y1952D01*
X1427Y1952D02*
X1482Y1952D01*
X462Y1951D02*
X518Y1951D01*
X530Y1951D02*
X585Y1951D01*
X1359Y1951D02*
X1415Y1951D01*
X1426Y1951D02*
X1482Y1951D01*
X462Y1950D02*
X519Y1950D01*
X529Y1950D02*
X585Y1950D01*
X1359Y1950D02*
X1415Y1950D01*
X1425Y1950D02*
X1481Y1950D01*
X462Y1949D02*
X520Y1949D01*
X528Y1949D02*
X584Y1949D01*
X1359Y1949D02*
X1417Y1949D01*
X1424Y1949D02*
X1481Y1949D01*
X463Y1948D02*
X584Y1948D01*
X1359Y1948D02*
X1481Y1948D01*
X463Y1947D02*
X584Y1947D01*
X1359Y1947D02*
X1481Y1947D01*
X463Y1946D02*
X584Y1946D01*
X1359Y1946D02*
X1481Y1946D01*
X463Y1945D02*
X583Y1945D01*
X1359Y1945D02*
X1480Y1945D01*
X464Y1944D02*
X583Y1944D01*
X1360Y1944D02*
X1480Y1944D01*
X464Y1943D02*
X583Y1943D01*
X1361Y1943D02*
X1480Y1943D01*
X464Y1942D02*
X582Y1942D01*
X1361Y1942D02*
X1479Y1942D01*
X465Y1941D02*
X582Y1941D01*
X1362Y1941D02*
X1479Y1941D01*
X465Y1940D02*
X582Y1940D01*
X1362Y1940D02*
X1479Y1940D01*
X465Y1939D02*
X581Y1939D01*
X1362Y1939D02*
X1478Y1939D01*
X466Y1938D02*
X581Y1938D01*
X1363Y1938D02*
X1478Y1938D01*
X466Y1937D02*
X580Y1937D01*
X1363Y1937D02*
X1477Y1937D01*
X467Y1936D02*
X580Y1936D01*
X1364Y1936D02*
X1477Y1936D01*
X468Y1935D02*
X579Y1935D01*
X1365Y1935D02*
X1476Y1935D01*
X468Y1934D02*
X579Y1934D01*
X1365Y1934D02*
X1475Y1934D01*
X469Y1933D02*
X578Y1933D01*
X1366Y1933D02*
X1475Y1933D01*
X470Y1932D02*
X577Y1932D01*
X1367Y1932D02*
X1474Y1932D01*
X470Y1931D02*
X576Y1931D01*
X1367Y1931D02*
X1473Y1931D01*
X471Y1930D02*
X575Y1930D01*
X1368Y1930D02*
X1472Y1930D01*
X472Y1929D02*
X575Y1929D01*
X1369Y1929D02*
X1472Y1929D01*
X473Y1928D02*
X574Y1928D01*
X1370Y1928D02*
X1470Y1928D01*
X474Y1927D02*
X572Y1927D01*
X1371Y1927D02*
X1469Y1927D01*
X476Y1926D02*
X571Y1926D01*
X1373Y1926D02*
X1468Y1926D01*
X477Y1925D02*
X570Y1925D01*
X1374Y1925D02*
X1467Y1925D01*
X479Y1924D02*
X568Y1924D01*
X1375Y1924D02*
X1465Y1924D01*
X480Y1923D02*
X567Y1923D01*
X1377Y1923D02*
X1463Y1923D01*
X482Y1922D02*
X565Y1922D01*
X1379Y1922D02*
X1461Y1922D01*
X484Y1921D02*
X562Y1921D01*
X1381Y1921D02*
X1459Y1921D01*
X487Y1920D02*
X560Y1920D01*
X1384Y1920D02*
X1457Y1920D01*
X491Y1919D02*
X556Y1919D01*
X1388Y1919D02*
X1453Y1919D01*
X496Y1890D02*
X551Y1890D01*
X1393Y1890D02*
X1448Y1890D01*
X490Y1889D02*
X557Y1889D01*
X1387Y1889D02*
X1454Y1889D01*
X486Y1888D02*
X560Y1888D01*
X1383Y1888D02*
X1457Y1888D01*
X484Y1887D02*
X563Y1887D01*
X1381Y1887D02*
X1460Y1887D01*
X482Y1886D02*
X565Y1886D01*
X1379Y1886D02*
X1462Y1886D01*
X480Y1885D02*
X567Y1885D01*
X1377Y1885D02*
X1464Y1885D01*
X478Y1884D02*
X569Y1884D01*
X1375Y1884D02*
X1466Y1884D01*
X477Y1883D02*
X570Y1883D01*
X1374Y1883D02*
X1467Y1883D01*
X475Y1882D02*
X572Y1882D01*
X1372Y1882D02*
X1469Y1882D01*
X474Y1881D02*
X573Y1881D01*
X1371Y1881D02*
X1470Y1881D01*
X473Y1880D02*
X574Y1880D01*
X1370Y1880D02*
X1471Y1880D01*
X472Y1879D02*
X575Y1879D01*
X1369Y1879D02*
X1472Y1879D01*
X471Y1878D02*
X576Y1878D01*
X1368Y1878D02*
X1473Y1878D01*
X470Y1877D02*
X577Y1877D01*
X1367Y1877D02*
X1474Y1877D01*
X469Y1876D02*
X577Y1876D01*
X1366Y1876D02*
X1474Y1876D01*
X469Y1875D02*
X578Y1875D01*
X1366Y1875D02*
X1475Y1875D01*
X468Y1874D02*
X579Y1874D01*
X1365Y1874D02*
X1476Y1874D01*
X467Y1873D02*
X579Y1873D01*
X1364Y1873D02*
X1476Y1873D01*
X467Y1872D02*
X580Y1872D01*
X1364Y1872D02*
X1477Y1872D01*
X466Y1871D02*
X580Y1871D01*
X1363Y1871D02*
X1477Y1871D01*
X466Y1870D02*
X581Y1870D01*
X1363Y1870D02*
X1478Y1870D01*
X465Y1869D02*
X581Y1869D01*
X1362Y1869D02*
X1478Y1869D01*
X465Y1868D02*
X582Y1868D01*
X1362Y1868D02*
X1479Y1868D01*
X464Y1867D02*
X582Y1867D01*
X1361Y1867D02*
X1479Y1867D01*
X464Y1866D02*
X583Y1866D01*
X1361Y1866D02*
X1480Y1866D01*
X464Y1865D02*
X583Y1865D01*
X1361Y1865D02*
X1480Y1865D01*
X463Y1864D02*
X583Y1864D01*
X1360Y1864D02*
X1480Y1864D01*
X463Y1863D02*
X584Y1863D01*
X1360Y1863D02*
X1480Y1863D01*
X463Y1862D02*
X584Y1862D01*
X1360Y1862D02*
X1481Y1862D01*
X463Y1861D02*
X584Y1861D01*
X1360Y1861D02*
X1481Y1861D01*
X462Y1860D02*
X522Y1860D01*
X526Y1860D02*
X584Y1860D01*
X1359Y1860D02*
X1418Y1860D01*
X1423Y1860D02*
X1481Y1860D01*
X462Y1859D02*
X520Y1859D01*
X528Y1859D02*
X584Y1859D01*
X1359Y1859D02*
X1416Y1859D01*
X1425Y1859D02*
X1481Y1859D01*
X462Y1858D02*
X519Y1858D01*
X529Y1858D02*
X585Y1858D01*
X1359Y1858D02*
X1415Y1858D01*
X1426Y1858D02*
X1482Y1858D01*
X462Y1857D02*
X518Y1857D01*
X530Y1857D02*
X585Y1857D01*
X1359Y1857D02*
X1414Y1857D01*
X1426Y1857D02*
X1482Y1857D01*
X462Y1856D02*
X518Y1856D01*
X531Y1856D02*
X585Y1856D01*
X1359Y1856D02*
X1414Y1856D01*
X1427Y1856D02*
X1482Y1856D01*
X462Y1855D02*
X517Y1855D01*
X531Y1855D02*
X585Y1855D01*
X1359Y1855D02*
X1414Y1855D01*
X1427Y1855D02*
X1482Y1855D01*
X462Y1854D02*
X517Y1854D01*
X531Y1854D02*
X585Y1854D01*
X1359Y1854D02*
X1414Y1854D01*
X1427Y1854D02*
X1482Y1854D01*
X462Y1853D02*
X518Y1853D01*
X531Y1853D02*
X585Y1853D01*
X1359Y1853D02*
X1414Y1853D01*
X1427Y1853D02*
X1482Y1853D01*
X462Y1852D02*
X518Y1852D01*
X530Y1852D02*
X585Y1852D01*
X1359Y1852D02*
X1414Y1852D01*
X1427Y1852D02*
X1482Y1852D01*
X462Y1851D02*
X518Y1851D01*
X530Y1851D02*
X585Y1851D01*
X1359Y1851D02*
X1415Y1851D01*
X1426Y1851D02*
X1482Y1851D01*
X462Y1850D02*
X519Y1850D01*
X529Y1850D02*
X585Y1850D01*
X1359Y1850D02*
X1415Y1850D01*
X1425Y1850D02*
X1481Y1850D01*
X462Y1849D02*
X521Y1849D01*
X528Y1849D02*
X584Y1849D01*
X1359Y1849D02*
X1417Y1849D01*
X1424Y1849D02*
X1481Y1849D01*
X462Y1848D02*
X584Y1848D01*
X1359Y1848D02*
X1481Y1848D01*
X463Y1847D02*
X584Y1847D01*
X1359Y1847D02*
X1481Y1847D01*
X463Y1846D02*
X584Y1846D01*
X1359Y1846D02*
X1481Y1846D01*
X463Y1845D02*
X583Y1845D01*
X1359Y1845D02*
X1480Y1845D01*
X463Y1844D02*
X583Y1844D01*
X1360Y1844D02*
X1480Y1844D01*
X464Y1843D02*
X583Y1843D01*
X1361Y1843D02*
X1480Y1843D01*
X464Y1842D02*
X582Y1842D01*
X1361Y1842D02*
X1479Y1842D01*
X465Y1841D02*
X582Y1841D01*
X1362Y1841D02*
X1479Y1841D01*
X465Y1840D02*
X582Y1840D01*
X1362Y1840D02*
X1479Y1840D01*
X465Y1839D02*
X581Y1839D01*
X1362Y1839D02*
X1478Y1839D01*
X466Y1838D02*
X581Y1838D01*
X1363Y1838D02*
X1478Y1838D01*
X466Y1837D02*
X580Y1837D01*
X1363Y1837D02*
X1477Y1837D01*
X467Y1836D02*
X580Y1836D01*
X1364Y1836D02*
X1477Y1836D01*
X468Y1835D02*
X579Y1835D01*
X1365Y1835D02*
X1476Y1835D01*
X468Y1834D02*
X579Y1834D01*
X1365Y1834D02*
X1475Y1834D01*
X469Y1833D02*
X578Y1833D01*
X1366Y1833D02*
X1475Y1833D01*
X470Y1832D02*
X577Y1832D01*
X1367Y1832D02*
X1474Y1832D01*
X470Y1831D02*
X576Y1831D01*
X1367Y1831D02*
X1473Y1831D01*
X471Y1830D02*
X575Y1830D01*
X1368Y1830D02*
X1472Y1830D01*
X472Y1829D02*
X575Y1829D01*
X1369Y1829D02*
X1472Y1829D01*
X473Y1828D02*
X574Y1828D01*
X1370Y1828D02*
X1470Y1828D01*
X474Y1827D02*
X572Y1827D01*
X1371Y1827D02*
X1469Y1827D01*
X476Y1826D02*
X571Y1826D01*
X1373Y1826D02*
X1468Y1826D01*
X477Y1825D02*
X570Y1825D01*
X1374Y1825D02*
X1467Y1825D01*
X478Y1824D02*
X568Y1824D01*
X1375Y1824D02*
X1465Y1824D01*
X480Y1823D02*
X567Y1823D01*
X1377Y1823D02*
X1463Y1823D01*
X482Y1822D02*
X565Y1822D01*
X1379Y1822D02*
X1461Y1822D01*
X484Y1821D02*
X562Y1821D01*
X1381Y1821D02*
X1459Y1821D01*
X487Y1820D02*
X560Y1820D01*
X1384Y1820D02*
X1457Y1820D01*
X491Y1819D02*
X556Y1819D01*
X1388Y1819D02*
X1453Y1819D01*
X495Y1790D02*
X551Y1790D01*
X1392Y1790D02*
X1448Y1790D01*
X490Y1789D02*
X557Y1789D01*
X1387Y1789D02*
X1454Y1789D01*
X486Y1788D02*
X560Y1788D01*
X1383Y1788D02*
X1457Y1788D01*
X484Y1787D02*
X563Y1787D01*
X1381Y1787D02*
X1460Y1787D01*
X482Y1786D02*
X565Y1786D01*
X1379Y1786D02*
X1462Y1786D01*
X480Y1785D02*
X567Y1785D01*
X1377Y1785D02*
X1464Y1785D01*
X478Y1784D02*
X569Y1784D01*
X1375Y1784D02*
X1466Y1784D01*
X477Y1783D02*
X570Y1783D01*
X1374Y1783D02*
X1467Y1783D01*
X475Y1782D02*
X572Y1782D01*
X1372Y1782D02*
X1469Y1782D01*
X474Y1781D02*
X573Y1781D01*
X1371Y1781D02*
X1470Y1781D01*
X473Y1780D02*
X574Y1780D01*
X1370Y1780D02*
X1471Y1780D01*
X472Y1779D02*
X575Y1779D01*
X1369Y1779D02*
X1472Y1779D01*
X471Y1778D02*
X576Y1778D01*
X1368Y1778D02*
X1473Y1778D01*
X470Y1777D02*
X577Y1777D01*
X1367Y1777D02*
X1474Y1777D01*
X469Y1776D02*
X577Y1776D01*
X1366Y1776D02*
X1474Y1776D01*
X469Y1775D02*
X578Y1775D01*
X1366Y1775D02*
X1475Y1775D01*
X468Y1774D02*
X579Y1774D01*
X1365Y1774D02*
X1476Y1774D01*
X467Y1773D02*
X579Y1773D01*
X1364Y1773D02*
X1476Y1773D01*
X467Y1772D02*
X580Y1772D01*
X1364Y1772D02*
X1477Y1772D01*
X466Y1771D02*
X580Y1771D01*
X1363Y1771D02*
X1477Y1771D01*
X466Y1770D02*
X581Y1770D01*
X1363Y1770D02*
X1478Y1770D01*
X465Y1769D02*
X581Y1769D01*
X1362Y1769D02*
X1478Y1769D01*
X465Y1768D02*
X582Y1768D01*
X1362Y1768D02*
X1479Y1768D01*
X464Y1767D02*
X582Y1767D01*
X1361Y1767D02*
X1479Y1767D01*
X464Y1766D02*
X583Y1766D01*
X1361Y1766D02*
X1480Y1766D01*
X464Y1765D02*
X583Y1765D01*
X1361Y1765D02*
X1480Y1765D01*
X463Y1764D02*
X583Y1764D01*
X1360Y1764D02*
X1480Y1764D01*
X463Y1763D02*
X584Y1763D01*
X1360Y1763D02*
X1480Y1763D01*
X463Y1762D02*
X584Y1762D01*
X1360Y1762D02*
X1481Y1762D01*
X463Y1761D02*
X584Y1761D01*
X1360Y1761D02*
X1481Y1761D01*
X462Y1760D02*
X522Y1760D01*
X527Y1760D02*
X584Y1760D01*
X1359Y1760D02*
X1418Y1760D01*
X1423Y1760D02*
X1481Y1760D01*
X462Y1759D02*
X520Y1759D01*
X528Y1759D02*
X584Y1759D01*
X1359Y1759D02*
X1416Y1759D01*
X1425Y1759D02*
X1481Y1759D01*
X462Y1758D02*
X519Y1758D01*
X529Y1758D02*
X585Y1758D01*
X1359Y1758D02*
X1415Y1758D01*
X1426Y1758D02*
X1482Y1758D01*
X462Y1757D02*
X518Y1757D01*
X530Y1757D02*
X585Y1757D01*
X1359Y1757D02*
X1414Y1757D01*
X1426Y1757D02*
X1482Y1757D01*
X462Y1756D02*
X518Y1756D01*
X531Y1756D02*
X585Y1756D01*
X1359Y1756D02*
X1414Y1756D01*
X1427Y1756D02*
X1482Y1756D01*
X462Y1755D02*
X517Y1755D01*
X531Y1755D02*
X585Y1755D01*
X1359Y1755D02*
X1414Y1755D01*
X1427Y1755D02*
X1482Y1755D01*
X462Y1754D02*
X517Y1754D01*
X531Y1754D02*
X585Y1754D01*
X1359Y1754D02*
X1414Y1754D01*
X1427Y1754D02*
X1482Y1754D01*
X462Y1753D02*
X518Y1753D01*
X531Y1753D02*
X585Y1753D01*
X1359Y1753D02*
X1414Y1753D01*
X1427Y1753D02*
X1482Y1753D01*
X462Y1752D02*
X518Y1752D01*
X530Y1752D02*
X585Y1752D01*
X1359Y1752D02*
X1414Y1752D01*
X1427Y1752D02*
X1482Y1752D01*
X462Y1751D02*
X518Y1751D01*
X530Y1751D02*
X585Y1751D01*
X1359Y1751D02*
X1415Y1751D01*
X1426Y1751D02*
X1482Y1751D01*
X462Y1750D02*
X519Y1750D01*
X529Y1750D02*
X585Y1750D01*
X1359Y1750D02*
X1415Y1750D01*
X1425Y1750D02*
X1481Y1750D01*
X462Y1749D02*
X521Y1749D01*
X528Y1749D02*
X584Y1749D01*
X1359Y1749D02*
X1417Y1749D01*
X1424Y1749D02*
X1481Y1749D01*
X463Y1748D02*
X584Y1748D01*
X1359Y1748D02*
X1481Y1748D01*
X463Y1747D02*
X584Y1747D01*
X1359Y1747D02*
X1481Y1747D01*
X463Y1746D02*
X584Y1746D01*
X1359Y1746D02*
X1481Y1746D01*
X463Y1745D02*
X583Y1745D01*
X1359Y1745D02*
X1480Y1745D01*
X464Y1744D02*
X583Y1744D01*
X1360Y1744D02*
X1480Y1744D01*
X464Y1743D02*
X583Y1743D01*
X1361Y1743D02*
X1480Y1743D01*
X464Y1742D02*
X582Y1742D01*
X1361Y1742D02*
X1479Y1742D01*
X465Y1741D02*
X582Y1741D01*
X1362Y1741D02*
X1479Y1741D01*
X465Y1740D02*
X582Y1740D01*
X1362Y1740D02*
X1479Y1740D01*
X465Y1739D02*
X581Y1739D01*
X1362Y1739D02*
X1478Y1739D01*
X466Y1738D02*
X581Y1738D01*
X1363Y1738D02*
X1478Y1738D01*
X466Y1737D02*
X580Y1737D01*
X1363Y1737D02*
X1477Y1737D01*
X467Y1736D02*
X580Y1736D01*
X1364Y1736D02*
X1477Y1736D01*
X468Y1735D02*
X579Y1735D01*
X1365Y1735D02*
X1476Y1735D01*
X468Y1734D02*
X579Y1734D01*
X1365Y1734D02*
X1475Y1734D01*
X469Y1733D02*
X578Y1733D01*
X1366Y1733D02*
X1475Y1733D01*
X470Y1732D02*
X577Y1732D01*
X1367Y1732D02*
X1474Y1732D01*
X470Y1731D02*
X576Y1731D01*
X1367Y1731D02*
X1473Y1731D01*
X471Y1730D02*
X575Y1730D01*
X1368Y1730D02*
X1472Y1730D01*
X472Y1729D02*
X575Y1729D01*
X1369Y1729D02*
X1471Y1729D01*
X473Y1728D02*
X573Y1728D01*
X1370Y1728D02*
X1470Y1728D01*
X474Y1727D02*
X572Y1727D01*
X1371Y1727D02*
X1469Y1727D01*
X476Y1726D02*
X571Y1726D01*
X1373Y1726D02*
X1468Y1726D01*
X477Y1725D02*
X570Y1725D01*
X1374Y1725D02*
X1467Y1725D01*
X479Y1724D02*
X568Y1724D01*
X1376Y1724D02*
X1465Y1724D01*
X480Y1723D02*
X566Y1723D01*
X1377Y1723D02*
X1463Y1723D01*
X482Y1722D02*
X564Y1722D01*
X1379Y1722D02*
X1461Y1722D01*
X484Y1721D02*
X562Y1721D01*
X1381Y1721D02*
X1459Y1721D01*
X487Y1720D02*
X560Y1720D01*
X1384Y1720D02*
X1457Y1720D01*
X491Y1719D02*
X556Y1719D01*
X1388Y1719D02*
X1453Y1719D01*
X495Y1690D02*
X552Y1690D01*
X1392Y1690D02*
X1449Y1690D01*
X489Y1689D02*
X557Y1689D01*
X1386Y1689D02*
X1454Y1689D01*
X486Y1688D02*
X561Y1688D01*
X1383Y1688D02*
X1457Y1688D01*
X484Y1687D02*
X563Y1687D01*
X1381Y1687D02*
X1460Y1687D01*
X481Y1686D02*
X565Y1686D01*
X1378Y1686D02*
X1462Y1686D01*
X480Y1685D02*
X567Y1685D01*
X1377Y1685D02*
X1464Y1685D01*
X478Y1684D02*
X569Y1684D01*
X1375Y1684D02*
X1466Y1684D01*
X476Y1683D02*
X570Y1683D01*
X1373Y1683D02*
X1467Y1683D01*
X475Y1682D02*
X572Y1682D01*
X1372Y1682D02*
X1469Y1682D01*
X474Y1681D02*
X573Y1681D01*
X1371Y1681D02*
X1470Y1681D01*
X473Y1680D02*
X574Y1680D01*
X1370Y1680D02*
X1471Y1680D01*
X472Y1679D02*
X575Y1679D01*
X1369Y1679D02*
X1472Y1679D01*
X471Y1678D02*
X576Y1678D01*
X1368Y1678D02*
X1473Y1678D01*
X470Y1677D02*
X577Y1677D01*
X1367Y1677D02*
X1474Y1677D01*
X469Y1676D02*
X577Y1676D01*
X1366Y1676D02*
X1474Y1676D01*
X469Y1675D02*
X578Y1675D01*
X1366Y1675D02*
X1475Y1675D01*
X468Y1674D02*
X579Y1674D01*
X1365Y1674D02*
X1476Y1674D01*
X467Y1673D02*
X579Y1673D01*
X1364Y1673D02*
X1476Y1673D01*
X467Y1672D02*
X580Y1672D01*
X1364Y1672D02*
X1477Y1672D01*
X466Y1671D02*
X580Y1671D01*
X1363Y1671D02*
X1477Y1671D01*
X466Y1670D02*
X581Y1670D01*
X1363Y1670D02*
X1478Y1670D01*
X465Y1669D02*
X581Y1669D01*
X1362Y1669D02*
X1478Y1669D01*
X465Y1668D02*
X582Y1668D01*
X1362Y1668D02*
X1479Y1668D01*
X464Y1667D02*
X582Y1667D01*
X1361Y1667D02*
X1479Y1667D01*
X464Y1666D02*
X583Y1666D01*
X1361Y1666D02*
X1480Y1666D01*
X464Y1665D02*
X583Y1665D01*
X1361Y1665D02*
X1480Y1665D01*
X463Y1664D02*
X583Y1664D01*
X1360Y1664D02*
X1480Y1664D01*
X463Y1663D02*
X584Y1663D01*
X1360Y1663D02*
X1481Y1663D01*
X463Y1662D02*
X584Y1662D01*
X1360Y1662D02*
X1481Y1662D01*
X463Y1661D02*
X584Y1661D01*
X1360Y1661D02*
X1481Y1661D01*
X462Y1660D02*
X521Y1660D01*
X527Y1660D02*
X584Y1660D01*
X1359Y1660D02*
X1418Y1660D01*
X1423Y1660D02*
X1481Y1660D01*
X462Y1659D02*
X520Y1659D01*
X528Y1659D02*
X584Y1659D01*
X1359Y1659D02*
X1416Y1659D01*
X1424Y1659D02*
X1481Y1659D01*
X462Y1658D02*
X519Y1658D01*
X529Y1658D02*
X585Y1658D01*
X1359Y1658D02*
X1415Y1658D01*
X1425Y1658D02*
X1482Y1658D01*
X462Y1657D02*
X518Y1657D01*
X530Y1657D02*
X585Y1657D01*
X1359Y1657D02*
X1414Y1657D01*
X1426Y1657D02*
X1482Y1657D01*
X462Y1656D02*
X518Y1656D01*
X530Y1656D02*
X585Y1656D01*
X1359Y1656D02*
X1414Y1656D01*
X1427Y1656D02*
X1482Y1656D01*
X462Y1655D02*
X518Y1655D01*
X531Y1655D02*
X585Y1655D01*
X1359Y1655D02*
X1414Y1655D01*
X1427Y1655D02*
X1482Y1655D01*
X462Y1654D02*
X518Y1654D01*
X531Y1654D02*
X585Y1654D01*
X1359Y1654D02*
X1414Y1654D01*
X1427Y1654D02*
X1482Y1654D01*
X462Y1653D02*
X518Y1653D01*
X531Y1653D02*
X585Y1653D01*
X1359Y1653D02*
X1414Y1653D01*
X1427Y1653D02*
X1482Y1653D01*
X462Y1652D02*
X518Y1652D01*
X530Y1652D02*
X585Y1652D01*
X1359Y1652D02*
X1414Y1652D01*
X1426Y1652D02*
X1482Y1652D01*
X462Y1651D02*
X519Y1651D01*
X530Y1651D02*
X585Y1651D01*
X1359Y1651D02*
X1415Y1651D01*
X1426Y1651D02*
X1482Y1651D01*
X462Y1650D02*
X519Y1650D01*
X529Y1650D02*
X585Y1650D01*
X1359Y1650D02*
X1416Y1650D01*
X1425Y1650D02*
X1481Y1650D01*
X462Y1649D02*
X521Y1649D01*
X528Y1649D02*
X584Y1649D01*
X1359Y1649D02*
X1417Y1649D01*
X1424Y1649D02*
X1481Y1649D01*
X463Y1648D02*
X584Y1648D01*
X1359Y1648D02*
X1481Y1648D01*
X463Y1647D02*
X584Y1647D01*
X1359Y1647D02*
X1481Y1647D01*
X463Y1646D02*
X584Y1646D01*
X1359Y1646D02*
X1481Y1646D01*
X463Y1645D02*
X583Y1645D01*
X1359Y1645D02*
X1480Y1645D01*
X464Y1644D02*
X583Y1644D01*
X1360Y1644D02*
X1480Y1644D01*
X464Y1643D02*
X583Y1643D01*
X1361Y1643D02*
X1480Y1643D01*
X464Y1642D02*
X582Y1642D01*
X1361Y1642D02*
X1479Y1642D01*
X465Y1641D02*
X582Y1641D01*
X1362Y1641D02*
X1479Y1641D01*
X465Y1640D02*
X582Y1640D01*
X1362Y1640D02*
X1479Y1640D01*
X465Y1639D02*
X581Y1639D01*
X1362Y1639D02*
X1478Y1639D01*
X466Y1638D02*
X581Y1638D01*
X1363Y1638D02*
X1478Y1638D01*
X466Y1637D02*
X580Y1637D01*
X1363Y1637D02*
X1477Y1637D01*
X467Y1636D02*
X580Y1636D01*
X1364Y1636D02*
X1477Y1636D01*
X468Y1635D02*
X579Y1635D01*
X1365Y1635D02*
X1476Y1635D01*
X468Y1634D02*
X578Y1634D01*
X1365Y1634D02*
X1475Y1634D01*
X469Y1633D02*
X578Y1633D01*
X1366Y1633D02*
X1475Y1633D01*
X470Y1632D02*
X577Y1632D01*
X1367Y1632D02*
X1474Y1632D01*
X470Y1631D02*
X576Y1631D01*
X1367Y1631D02*
X1473Y1631D01*
X471Y1630D02*
X575Y1630D01*
X1368Y1630D02*
X1472Y1630D01*
X472Y1629D02*
X575Y1629D01*
X1369Y1629D02*
X1471Y1629D01*
X473Y1628D02*
X573Y1628D01*
X1370Y1628D02*
X1470Y1628D01*
X474Y1627D02*
X572Y1627D01*
X1371Y1627D02*
X1469Y1627D01*
X476Y1626D02*
X571Y1626D01*
X1373Y1626D02*
X1468Y1626D01*
X477Y1625D02*
X570Y1625D01*
X1374Y1625D02*
X1467Y1625D01*
X479Y1624D02*
X568Y1624D01*
X1376Y1624D02*
X1465Y1624D01*
X480Y1623D02*
X566Y1623D01*
X1377Y1623D02*
X1463Y1623D01*
X482Y1622D02*
X564Y1622D01*
X1379Y1622D02*
X1461Y1622D01*
X484Y1621D02*
X562Y1621D01*
X1381Y1621D02*
X1459Y1621D01*
X487Y1620D02*
X560Y1620D01*
X1384Y1620D02*
X1456Y1620D01*
X491Y1619D02*
X556Y1619D01*
X1388Y1619D02*
X1453Y1619D01*
X495Y1590D02*
X552Y1590D01*
X1392Y1590D02*
X1449Y1590D01*
X489Y1589D02*
X557Y1589D01*
X1386Y1589D02*
X1454Y1589D01*
X486Y1588D02*
X561Y1588D01*
X1383Y1588D02*
X1458Y1588D01*
X484Y1587D02*
X563Y1587D01*
X1381Y1587D02*
X1460Y1587D01*
X481Y1586D02*
X565Y1586D01*
X1378Y1586D02*
X1462Y1586D01*
X480Y1585D02*
X567Y1585D01*
X1377Y1585D02*
X1464Y1585D01*
X478Y1584D02*
X569Y1584D01*
X1375Y1584D02*
X1466Y1584D01*
X477Y1583D02*
X570Y1583D01*
X1373Y1583D02*
X1467Y1583D01*
X475Y1582D02*
X572Y1582D01*
X1372Y1582D02*
X1469Y1582D01*
X474Y1581D02*
X573Y1581D01*
X1371Y1581D02*
X1470Y1581D01*
X473Y1580D02*
X574Y1580D01*
X1370Y1580D02*
X1471Y1580D01*
X472Y1579D02*
X575Y1579D01*
X1369Y1579D02*
X1472Y1579D01*
X471Y1578D02*
X576Y1578D01*
X1368Y1578D02*
X1473Y1578D01*
X470Y1577D02*
X577Y1577D01*
X1367Y1577D02*
X1474Y1577D01*
X469Y1576D02*
X577Y1576D01*
X1366Y1576D02*
X1474Y1576D01*
X469Y1575D02*
X578Y1575D01*
X1366Y1575D02*
X1475Y1575D01*
X468Y1574D02*
X579Y1574D01*
X1365Y1574D02*
X1476Y1574D01*
X467Y1573D02*
X579Y1573D01*
X1364Y1573D02*
X1476Y1573D01*
X467Y1572D02*
X580Y1572D01*
X1364Y1572D02*
X1477Y1572D01*
X466Y1571D02*
X580Y1571D01*
X1363Y1571D02*
X1477Y1571D01*
X466Y1570D02*
X581Y1570D01*
X1363Y1570D02*
X1478Y1570D01*
X465Y1569D02*
X581Y1569D01*
X1362Y1569D02*
X1478Y1569D01*
X465Y1568D02*
X582Y1568D01*
X1362Y1568D02*
X1479Y1568D01*
X464Y1567D02*
X582Y1567D01*
X1361Y1567D02*
X1479Y1567D01*
X464Y1566D02*
X583Y1566D01*
X1361Y1566D02*
X1480Y1566D01*
X464Y1565D02*
X583Y1565D01*
X1361Y1565D02*
X1480Y1565D01*
X463Y1564D02*
X583Y1564D01*
X1360Y1564D02*
X1480Y1564D01*
X463Y1563D02*
X584Y1563D01*
X1360Y1563D02*
X1481Y1563D01*
X463Y1562D02*
X584Y1562D01*
X1360Y1562D02*
X1481Y1562D01*
X463Y1561D02*
X584Y1561D01*
X1360Y1561D02*
X1481Y1561D01*
X462Y1560D02*
X521Y1560D01*
X527Y1560D02*
X584Y1560D01*
X1359Y1560D02*
X1418Y1560D01*
X1423Y1560D02*
X1481Y1560D01*
X462Y1559D02*
X520Y1559D01*
X528Y1559D02*
X584Y1559D01*
X1359Y1559D02*
X1416Y1559D01*
X1424Y1559D02*
X1481Y1559D01*
X462Y1558D02*
X519Y1558D01*
X529Y1558D02*
X585Y1558D01*
X1359Y1558D02*
X1415Y1558D01*
X1425Y1558D02*
X1482Y1558D01*
X462Y1557D02*
X518Y1557D01*
X530Y1557D02*
X585Y1557D01*
X1359Y1557D02*
X1414Y1557D01*
X1426Y1557D02*
X1482Y1557D01*
X462Y1556D02*
X518Y1556D01*
X530Y1556D02*
X585Y1556D01*
X1359Y1556D02*
X1414Y1556D01*
X1427Y1556D02*
X1482Y1556D01*
X462Y1555D02*
X518Y1555D01*
X531Y1555D02*
X585Y1555D01*
X1359Y1555D02*
X1414Y1555D01*
X1427Y1555D02*
X1482Y1555D01*
X462Y1554D02*
X518Y1554D01*
X531Y1554D02*
X585Y1554D01*
X1359Y1554D02*
X1414Y1554D01*
X1427Y1554D02*
X1482Y1554D01*
X462Y1553D02*
X518Y1553D01*
X531Y1553D02*
X585Y1553D01*
X1359Y1553D02*
X1414Y1553D01*
X1427Y1553D02*
X1482Y1553D01*
X462Y1552D02*
X518Y1552D01*
X530Y1552D02*
X585Y1552D01*
X1359Y1552D02*
X1414Y1552D01*
X1426Y1552D02*
X1482Y1552D01*
X462Y1551D02*
X519Y1551D01*
X530Y1551D02*
X585Y1551D01*
X1359Y1551D02*
X1415Y1551D01*
X1426Y1551D02*
X1482Y1551D01*
X462Y1550D02*
X519Y1550D01*
X529Y1550D02*
X585Y1550D01*
X1359Y1550D02*
X1416Y1550D01*
X1425Y1550D02*
X1481Y1550D01*
X462Y1549D02*
X521Y1549D01*
X528Y1549D02*
X584Y1549D01*
X1359Y1549D02*
X1417Y1549D01*
X1424Y1549D02*
X1481Y1549D01*
X463Y1548D02*
X584Y1548D01*
X1359Y1548D02*
X1481Y1548D01*
X463Y1547D02*
X584Y1547D01*
X1359Y1547D02*
X1481Y1547D01*
X463Y1546D02*
X584Y1546D01*
X1359Y1546D02*
X1481Y1546D01*
X463Y1545D02*
X583Y1545D01*
X1359Y1545D02*
X1480Y1545D01*
X464Y1544D02*
X583Y1544D01*
X1360Y1544D02*
X1480Y1544D01*
X464Y1543D02*
X583Y1543D01*
X1361Y1543D02*
X1480Y1543D01*
X464Y1542D02*
X582Y1542D01*
X1361Y1542D02*
X1479Y1542D01*
X465Y1541D02*
X582Y1541D01*
X1362Y1541D02*
X1479Y1541D01*
X465Y1540D02*
X582Y1540D01*
X1362Y1540D02*
X1479Y1540D01*
X466Y1539D02*
X581Y1539D01*
X1362Y1539D02*
X1478Y1539D01*
X466Y1538D02*
X581Y1538D01*
X1363Y1538D02*
X1478Y1538D01*
X466Y1537D02*
X580Y1537D01*
X1363Y1537D02*
X1477Y1537D01*
X467Y1536D02*
X580Y1536D01*
X1364Y1536D02*
X1477Y1536D01*
X468Y1535D02*
X579Y1535D01*
X1365Y1535D02*
X1476Y1535D01*
X468Y1534D02*
X578Y1534D01*
X1365Y1534D02*
X1475Y1534D01*
X469Y1533D02*
X578Y1533D01*
X1366Y1533D02*
X1475Y1533D01*
X470Y1532D02*
X577Y1532D01*
X1367Y1532D02*
X1474Y1532D01*
X470Y1531D02*
X576Y1531D01*
X1367Y1531D02*
X1473Y1531D01*
X471Y1530D02*
X575Y1530D01*
X1368Y1530D02*
X1472Y1530D01*
X472Y1529D02*
X575Y1529D01*
X1369Y1529D02*
X1471Y1529D01*
X473Y1528D02*
X573Y1528D01*
X1370Y1528D02*
X1470Y1528D01*
X474Y1527D02*
X572Y1527D01*
X1371Y1527D02*
X1469Y1527D01*
X476Y1526D02*
X571Y1526D01*
X1373Y1526D02*
X1468Y1526D01*
X477Y1525D02*
X570Y1525D01*
X1374Y1525D02*
X1467Y1525D01*
X479Y1524D02*
X568Y1524D01*
X1376Y1524D02*
X1465Y1524D01*
X480Y1523D02*
X566Y1523D01*
X1377Y1523D02*
X1463Y1523D01*
X482Y1522D02*
X564Y1522D01*
X1379Y1522D02*
X1461Y1522D01*
X485Y1521D02*
X562Y1521D01*
X1382Y1521D02*
X1459Y1521D01*
X487Y1520D02*
X559Y1520D01*
X1384Y1520D02*
X1456Y1520D01*
X491Y1519D02*
X556Y1519D01*
X1388Y1519D02*
X1453Y1519D01*
X497Y1490D02*
X550Y1490D01*
X1394Y1490D02*
X1447Y1490D01*
X490Y1489D02*
X557Y1489D01*
X1387Y1489D02*
X1454Y1489D01*
X487Y1488D02*
X560Y1488D01*
X1383Y1488D02*
X1457Y1488D01*
X484Y1487D02*
X563Y1487D01*
X1381Y1487D02*
X1460Y1487D01*
X482Y1486D02*
X565Y1486D01*
X1379Y1486D02*
X1462Y1486D01*
X480Y1485D02*
X567Y1485D01*
X1377Y1485D02*
X1464Y1485D01*
X478Y1484D02*
X569Y1484D01*
X1375Y1484D02*
X1466Y1484D01*
X477Y1483D02*
X570Y1483D01*
X1374Y1483D02*
X1467Y1483D01*
X475Y1482D02*
X572Y1482D01*
X1372Y1482D02*
X1468Y1482D01*
X474Y1481D02*
X573Y1481D01*
X1371Y1481D02*
X1470Y1481D01*
X473Y1480D02*
X574Y1480D01*
X1370Y1480D02*
X1471Y1480D01*
X472Y1479D02*
X575Y1479D01*
X1369Y1479D02*
X1472Y1479D01*
X471Y1478D02*
X576Y1478D01*
X1368Y1478D02*
X1473Y1478D01*
X470Y1477D02*
X577Y1477D01*
X1367Y1477D02*
X1473Y1477D01*
X470Y1476D02*
X577Y1476D01*
X1366Y1476D02*
X1474Y1476D01*
X469Y1475D02*
X578Y1475D01*
X1366Y1475D02*
X1475Y1475D01*
X468Y1474D02*
X579Y1474D01*
X1365Y1474D02*
X1476Y1474D01*
X468Y1473D02*
X579Y1473D01*
X1364Y1473D02*
X1476Y1473D01*
X467Y1472D02*
X580Y1472D01*
X1364Y1472D02*
X1477Y1472D01*
X466Y1471D02*
X580Y1471D01*
X1363Y1471D02*
X1477Y1471D01*
X466Y1470D02*
X581Y1470D01*
X1363Y1470D02*
X1478Y1470D01*
X465Y1469D02*
X581Y1469D01*
X1362Y1469D02*
X1478Y1469D01*
X465Y1468D02*
X582Y1468D01*
X1362Y1468D02*
X1479Y1468D01*
X465Y1467D02*
X582Y1467D01*
X1361Y1467D02*
X1479Y1467D01*
X464Y1466D02*
X583Y1466D01*
X1361Y1466D02*
X1480Y1466D01*
X464Y1465D02*
X583Y1465D01*
X1361Y1465D02*
X1480Y1465D01*
X464Y1464D02*
X583Y1464D01*
X1360Y1464D02*
X1480Y1464D01*
X463Y1463D02*
X584Y1463D01*
X1360Y1463D02*
X1480Y1463D01*
X463Y1462D02*
X584Y1462D01*
X1360Y1462D02*
X1481Y1462D01*
X463Y1461D02*
X584Y1461D01*
X1360Y1461D02*
X1481Y1461D01*
X463Y1460D02*
X522Y1460D01*
X526Y1460D02*
X584Y1460D01*
X1359Y1460D02*
X1418Y1460D01*
X1422Y1460D02*
X1481Y1460D01*
X462Y1459D02*
X520Y1459D01*
X528Y1459D02*
X584Y1459D01*
X1359Y1459D02*
X1416Y1459D01*
X1424Y1459D02*
X1481Y1459D01*
X462Y1458D02*
X519Y1458D01*
X529Y1458D02*
X585Y1458D01*
X1359Y1458D02*
X1415Y1458D01*
X1425Y1458D02*
X1482Y1458D01*
X462Y1457D02*
X518Y1457D01*
X530Y1457D02*
X585Y1457D01*
X1359Y1457D02*
X1414Y1457D01*
X1426Y1457D02*
X1482Y1457D01*
X462Y1456D02*
X518Y1456D01*
X531Y1456D02*
X585Y1456D01*
X1359Y1456D02*
X1414Y1456D01*
X1427Y1456D02*
X1482Y1456D01*
X462Y1455D02*
X518Y1455D01*
X531Y1455D02*
X585Y1455D01*
X1359Y1455D02*
X1414Y1455D01*
X1427Y1455D02*
X1482Y1455D01*
X462Y1454D02*
X518Y1454D01*
X531Y1454D02*
X585Y1454D01*
X1359Y1454D02*
X1414Y1454D01*
X1427Y1454D02*
X1482Y1454D01*
X462Y1453D02*
X518Y1453D01*
X531Y1453D02*
X585Y1453D01*
X1359Y1453D02*
X1414Y1453D01*
X1427Y1453D02*
X1482Y1453D01*
X462Y1452D02*
X518Y1452D01*
X530Y1452D02*
X585Y1452D01*
X1359Y1452D02*
X1414Y1452D01*
X1427Y1452D02*
X1482Y1452D01*
X462Y1451D02*
X519Y1451D01*
X530Y1451D02*
X585Y1451D01*
X1359Y1451D02*
X1415Y1451D01*
X1426Y1451D02*
X1482Y1451D01*
X462Y1450D02*
X519Y1450D01*
X529Y1450D02*
X585Y1450D01*
X1359Y1450D02*
X1415Y1450D01*
X1425Y1450D02*
X1481Y1450D01*
X462Y1449D02*
X521Y1449D01*
X528Y1449D02*
X584Y1449D01*
X1359Y1449D02*
X1417Y1449D01*
X1424Y1449D02*
X1481Y1449D01*
X463Y1448D02*
X584Y1448D01*
X1359Y1448D02*
X1481Y1448D01*
X463Y1447D02*
X584Y1447D01*
X1359Y1447D02*
X1481Y1447D01*
X463Y1446D02*
X584Y1446D01*
X1359Y1446D02*
X1481Y1446D01*
X463Y1445D02*
X584Y1445D01*
X1359Y1445D02*
X1480Y1445D01*
X464Y1444D02*
X583Y1444D01*
X1360Y1444D02*
X1480Y1444D01*
X464Y1443D02*
X583Y1443D01*
X1361Y1443D02*
X1480Y1443D01*
X464Y1442D02*
X583Y1442D01*
X1361Y1442D02*
X1479Y1442D01*
X465Y1441D02*
X582Y1441D01*
X1362Y1441D02*
X1479Y1441D01*
X465Y1440D02*
X582Y1440D01*
X1362Y1440D02*
X1479Y1440D01*
X466Y1439D02*
X581Y1439D01*
X1362Y1439D02*
X1478Y1439D01*
X466Y1438D02*
X581Y1438D01*
X1363Y1438D02*
X1478Y1438D01*
X466Y1437D02*
X580Y1437D01*
X1363Y1437D02*
X1477Y1437D01*
X467Y1436D02*
X580Y1436D01*
X1364Y1436D02*
X1477Y1436D01*
X468Y1435D02*
X579Y1435D01*
X1365Y1435D02*
X1476Y1435D01*
X468Y1434D02*
X579Y1434D01*
X1365Y1434D02*
X1476Y1434D01*
X469Y1433D02*
X578Y1433D01*
X1366Y1433D02*
X1475Y1433D01*
X470Y1432D02*
X577Y1432D01*
X1367Y1432D02*
X1474Y1432D01*
X470Y1431D02*
X576Y1431D01*
X1367Y1431D02*
X1473Y1431D01*
X471Y1430D02*
X576Y1430D01*
X1368Y1430D02*
X1472Y1430D01*
X472Y1429D02*
X575Y1429D01*
X1369Y1429D02*
X1472Y1429D01*
X473Y1428D02*
X574Y1428D01*
X1370Y1428D02*
X1471Y1428D01*
X474Y1427D02*
X573Y1427D01*
X1371Y1427D02*
X1469Y1427D01*
X476Y1426D02*
X571Y1426D01*
X1372Y1426D02*
X1468Y1426D01*
X477Y1425D02*
X570Y1425D01*
X1374Y1425D02*
X1467Y1425D01*
X478Y1424D02*
X568Y1424D01*
X1375Y1424D02*
X1465Y1424D01*
X480Y1423D02*
X567Y1423D01*
X1377Y1423D02*
X1464Y1423D01*
X482Y1422D02*
X565Y1422D01*
X1379Y1422D02*
X1462Y1422D01*
X484Y1421D02*
X563Y1421D01*
X1381Y1421D02*
X1459Y1421D01*
X487Y1420D02*
X560Y1420D01*
X1384Y1420D02*
X1457Y1420D01*
X490Y1419D02*
X556Y1419D01*
X1387Y1419D02*
X1453Y1419D01*
X497Y1390D02*
X550Y1390D01*
X1394Y1390D02*
X1447Y1390D01*
X490Y1389D02*
X557Y1389D01*
X1387Y1389D02*
X1454Y1389D01*
X486Y1388D02*
X560Y1388D01*
X1383Y1388D02*
X1457Y1388D01*
X484Y1387D02*
X563Y1387D01*
X1381Y1387D02*
X1460Y1387D01*
X482Y1386D02*
X565Y1386D01*
X1379Y1386D02*
X1462Y1386D01*
X480Y1385D02*
X567Y1385D01*
X1377Y1385D02*
X1464Y1385D01*
X478Y1384D02*
X569Y1384D01*
X1375Y1384D02*
X1466Y1384D01*
X477Y1383D02*
X570Y1383D01*
X1374Y1383D02*
X1467Y1383D01*
X475Y1382D02*
X571Y1382D01*
X1372Y1382D02*
X1468Y1382D01*
X474Y1381D02*
X573Y1381D01*
X1371Y1381D02*
X1470Y1381D01*
X473Y1380D02*
X574Y1380D01*
X1370Y1380D02*
X1471Y1380D01*
X472Y1379D02*
X575Y1379D01*
X1369Y1379D02*
X1472Y1379D01*
X471Y1378D02*
X576Y1378D01*
X1368Y1378D02*
X1473Y1378D01*
X470Y1377D02*
X577Y1377D01*
X1367Y1377D02*
X1473Y1377D01*
X469Y1376D02*
X577Y1376D01*
X1366Y1376D02*
X1474Y1376D01*
X469Y1375D02*
X578Y1375D01*
X1366Y1375D02*
X1475Y1375D01*
X468Y1374D02*
X579Y1374D01*
X1365Y1374D02*
X1476Y1374D01*
X467Y1373D02*
X579Y1373D01*
X1364Y1373D02*
X1476Y1373D01*
X467Y1372D02*
X580Y1372D01*
X1364Y1372D02*
X1477Y1372D01*
X466Y1371D02*
X580Y1371D01*
X1363Y1371D02*
X1477Y1371D01*
X466Y1370D02*
X581Y1370D01*
X1363Y1370D02*
X1478Y1370D01*
X465Y1369D02*
X581Y1369D01*
X1362Y1369D02*
X1478Y1369D01*
X465Y1368D02*
X582Y1368D01*
X1362Y1368D02*
X1479Y1368D01*
X465Y1367D02*
X582Y1367D01*
X1361Y1367D02*
X1479Y1367D01*
X464Y1366D02*
X583Y1366D01*
X1361Y1366D02*
X1480Y1366D01*
X464Y1365D02*
X583Y1365D01*
X1361Y1365D02*
X1480Y1365D01*
X463Y1364D02*
X583Y1364D01*
X1360Y1364D02*
X1480Y1364D01*
X463Y1363D02*
X584Y1363D01*
X1360Y1363D02*
X1480Y1363D01*
X463Y1362D02*
X584Y1362D01*
X1360Y1362D02*
X1481Y1362D01*
X463Y1361D02*
X584Y1361D01*
X1360Y1361D02*
X1481Y1361D01*
X463Y1360D02*
X522Y1360D01*
X526Y1360D02*
X584Y1360D01*
X1359Y1360D02*
X1418Y1360D01*
X1422Y1360D02*
X1481Y1360D01*
X462Y1359D02*
X520Y1359D01*
X528Y1359D02*
X584Y1359D01*
X1359Y1359D02*
X1416Y1359D01*
X1424Y1359D02*
X1481Y1359D01*
X462Y1358D02*
X519Y1358D01*
X529Y1358D02*
X585Y1358D01*
X1359Y1358D02*
X1415Y1358D01*
X1426Y1358D02*
X1482Y1358D01*
X462Y1357D02*
X518Y1357D01*
X530Y1357D02*
X585Y1357D01*
X1359Y1357D02*
X1414Y1357D01*
X1426Y1357D02*
X1482Y1357D01*
X462Y1356D02*
X518Y1356D01*
X531Y1356D02*
X585Y1356D01*
X1359Y1356D02*
X1414Y1356D01*
X1427Y1356D02*
X1482Y1356D01*
X462Y1355D02*
X518Y1355D01*
X531Y1355D02*
X585Y1355D01*
X1359Y1355D02*
X1414Y1355D01*
X1427Y1355D02*
X1482Y1355D01*
X462Y1354D02*
X517Y1354D01*
X531Y1354D02*
X585Y1354D01*
X1359Y1354D02*
X1414Y1354D01*
X1427Y1354D02*
X1482Y1354D01*
X462Y1353D02*
X518Y1353D01*
X531Y1353D02*
X585Y1353D01*
X1359Y1353D02*
X1414Y1353D01*
X1427Y1353D02*
X1482Y1353D01*
X462Y1352D02*
X518Y1352D01*
X530Y1352D02*
X585Y1352D01*
X1359Y1352D02*
X1414Y1352D01*
X1427Y1352D02*
X1482Y1352D01*
X462Y1351D02*
X518Y1351D01*
X530Y1351D02*
X585Y1351D01*
X1359Y1351D02*
X1415Y1351D01*
X1426Y1351D02*
X1482Y1351D01*
X462Y1350D02*
X519Y1350D01*
X529Y1350D02*
X585Y1350D01*
X1359Y1350D02*
X1415Y1350D01*
X1425Y1350D02*
X1481Y1350D01*
X462Y1349D02*
X520Y1349D01*
X528Y1349D02*
X584Y1349D01*
X1359Y1349D02*
X1417Y1349D01*
X1424Y1349D02*
X1481Y1349D01*
X463Y1348D02*
X584Y1348D01*
X1359Y1348D02*
X1481Y1348D01*
X463Y1347D02*
X584Y1347D01*
X1359Y1347D02*
X1481Y1347D01*
X463Y1346D02*
X584Y1346D01*
X1359Y1346D02*
X1481Y1346D01*
X463Y1345D02*
X583Y1345D01*
X1359Y1345D02*
X1480Y1345D01*
X464Y1344D02*
X583Y1344D01*
X1360Y1344D02*
X1480Y1344D01*
X464Y1343D02*
X583Y1343D01*
X1361Y1343D02*
X1480Y1343D01*
X464Y1342D02*
X583Y1342D01*
X1361Y1342D02*
X1479Y1342D01*
X465Y1341D02*
X582Y1341D01*
X1362Y1341D02*
X1479Y1341D01*
X465Y1340D02*
X582Y1340D01*
X1362Y1340D02*
X1479Y1340D01*
X465Y1339D02*
X581Y1339D01*
X1362Y1339D02*
X1478Y1339D01*
X466Y1338D02*
X581Y1338D01*
X1363Y1338D02*
X1478Y1338D01*
X466Y1337D02*
X580Y1337D01*
X1363Y1337D02*
X1477Y1337D01*
X467Y1336D02*
X580Y1336D01*
X1364Y1336D02*
X1477Y1336D01*
X468Y1335D02*
X579Y1335D01*
X1365Y1335D02*
X1476Y1335D01*
X468Y1334D02*
X579Y1334D01*
X1365Y1334D02*
X1476Y1334D01*
X469Y1333D02*
X578Y1333D01*
X1366Y1333D02*
X1475Y1333D01*
X470Y1332D02*
X577Y1332D01*
X1367Y1332D02*
X1474Y1332D01*
X470Y1331D02*
X576Y1331D01*
X1367Y1331D02*
X1473Y1331D01*
X471Y1330D02*
X576Y1330D01*
X1368Y1330D02*
X1472Y1330D01*
X472Y1329D02*
X575Y1329D01*
X1369Y1329D02*
X1472Y1329D01*
X473Y1328D02*
X574Y1328D01*
X1370Y1328D02*
X1471Y1328D01*
X474Y1327D02*
X572Y1327D01*
X1371Y1327D02*
X1469Y1327D01*
X476Y1326D02*
X571Y1326D01*
X1372Y1326D02*
X1468Y1326D01*
X477Y1325D02*
X570Y1325D01*
X1374Y1325D02*
X1467Y1325D01*
X478Y1324D02*
X568Y1324D01*
X1375Y1324D02*
X1465Y1324D01*
X480Y1323D02*
X567Y1323D01*
X1377Y1323D02*
X1464Y1323D01*
X482Y1322D02*
X565Y1322D01*
X1379Y1322D02*
X1462Y1322D01*
X484Y1321D02*
X562Y1321D01*
X1381Y1321D02*
X1459Y1321D01*
X487Y1320D02*
X560Y1320D01*
X1384Y1320D02*
X1457Y1320D01*
X490Y1319D02*
X556Y1319D01*
X1387Y1319D02*
X1453Y1319D01*
X496Y1290D02*
X550Y1290D01*
X1393Y1290D02*
X1447Y1290D01*
X490Y1289D02*
X557Y1289D01*
X1387Y1289D02*
X1454Y1289D01*
X486Y1288D02*
X560Y1288D01*
X1383Y1288D02*
X1457Y1288D01*
X484Y1287D02*
X563Y1287D01*
X1381Y1287D02*
X1460Y1287D01*
X482Y1286D02*
X565Y1286D01*
X1379Y1286D02*
X1462Y1286D01*
X480Y1285D02*
X567Y1285D01*
X1377Y1285D02*
X1464Y1285D01*
X478Y1284D02*
X569Y1284D01*
X1375Y1284D02*
X1466Y1284D01*
X477Y1283D02*
X570Y1283D01*
X1374Y1283D02*
X1467Y1283D01*
X475Y1282D02*
X571Y1282D01*
X1372Y1282D02*
X1468Y1282D01*
X474Y1281D02*
X573Y1281D01*
X1371Y1281D02*
X1470Y1281D01*
X473Y1280D02*
X574Y1280D01*
X1370Y1280D02*
X1471Y1280D01*
X472Y1279D02*
X575Y1279D01*
X1369Y1279D02*
X1472Y1279D01*
X471Y1278D02*
X576Y1278D01*
X1368Y1278D02*
X1473Y1278D01*
X470Y1277D02*
X577Y1277D01*
X1367Y1277D02*
X1473Y1277D01*
X469Y1276D02*
X577Y1276D01*
X1366Y1276D02*
X1474Y1276D01*
X469Y1275D02*
X578Y1275D01*
X1366Y1275D02*
X1475Y1275D01*
X468Y1274D02*
X579Y1274D01*
X1365Y1274D02*
X1476Y1274D01*
X467Y1273D02*
X579Y1273D01*
X1364Y1273D02*
X1476Y1273D01*
X467Y1272D02*
X580Y1272D01*
X1364Y1272D02*
X1477Y1272D01*
X466Y1271D02*
X580Y1271D01*
X1363Y1271D02*
X1477Y1271D01*
X466Y1270D02*
X581Y1270D01*
X1363Y1270D02*
X1478Y1270D01*
X465Y1269D02*
X581Y1269D01*
X1362Y1269D02*
X1478Y1269D01*
X465Y1268D02*
X582Y1268D01*
X1362Y1268D02*
X1479Y1268D01*
X464Y1267D02*
X582Y1267D01*
X1361Y1267D02*
X1479Y1267D01*
X464Y1266D02*
X583Y1266D01*
X1361Y1266D02*
X1480Y1266D01*
X464Y1265D02*
X583Y1265D01*
X1361Y1265D02*
X1480Y1265D01*
X463Y1264D02*
X583Y1264D01*
X1360Y1264D02*
X1480Y1264D01*
X463Y1263D02*
X584Y1263D01*
X1360Y1263D02*
X1480Y1263D01*
X463Y1262D02*
X584Y1262D01*
X1360Y1262D02*
X1481Y1262D01*
X463Y1261D02*
X584Y1261D01*
X1360Y1261D02*
X1481Y1261D01*
X462Y1260D02*
X522Y1260D01*
X526Y1260D02*
X584Y1260D01*
X1359Y1260D02*
X1418Y1260D01*
X1422Y1260D02*
X1481Y1260D01*
X462Y1259D02*
X520Y1259D01*
X528Y1259D02*
X584Y1259D01*
X1359Y1259D02*
X1416Y1259D01*
X1424Y1259D02*
X1481Y1259D01*
X462Y1258D02*
X519Y1258D01*
X529Y1258D02*
X585Y1258D01*
X1359Y1258D02*
X1415Y1258D01*
X1426Y1258D02*
X1482Y1258D01*
X462Y1257D02*
X518Y1257D01*
X530Y1257D02*
X585Y1257D01*
X1359Y1257D02*
X1414Y1257D01*
X1426Y1257D02*
X1482Y1257D01*
X462Y1256D02*
X518Y1256D01*
X531Y1256D02*
X585Y1256D01*
X1359Y1256D02*
X1414Y1256D01*
X1427Y1256D02*
X1482Y1256D01*
X462Y1255D02*
X517Y1255D01*
X531Y1255D02*
X585Y1255D01*
X1359Y1255D02*
X1414Y1255D01*
X1427Y1255D02*
X1482Y1255D01*
X462Y1254D02*
X517Y1254D01*
X531Y1254D02*
X585Y1254D01*
X1359Y1254D02*
X1414Y1254D01*
X1427Y1254D02*
X1482Y1254D01*
X462Y1253D02*
X518Y1253D01*
X531Y1253D02*
X585Y1253D01*
X1359Y1253D02*
X1414Y1253D01*
X1427Y1253D02*
X1482Y1253D01*
X462Y1252D02*
X518Y1252D01*
X530Y1252D02*
X585Y1252D01*
X1359Y1252D02*
X1414Y1252D01*
X1427Y1252D02*
X1482Y1252D01*
X462Y1251D02*
X518Y1251D01*
X530Y1251D02*
X585Y1251D01*
X1359Y1251D02*
X1415Y1251D01*
X1426Y1251D02*
X1482Y1251D01*
X462Y1250D02*
X519Y1250D01*
X529Y1250D02*
X585Y1250D01*
X1359Y1250D02*
X1415Y1250D01*
X1425Y1250D02*
X1481Y1250D01*
X462Y1249D02*
X520Y1249D01*
X528Y1249D02*
X584Y1249D01*
X1359Y1249D02*
X1417Y1249D01*
X1424Y1249D02*
X1481Y1249D01*
X462Y1248D02*
X584Y1248D01*
X1359Y1248D02*
X1481Y1248D01*
X463Y1247D02*
X584Y1247D01*
X1359Y1247D02*
X1481Y1247D01*
X463Y1246D02*
X584Y1246D01*
X1359Y1246D02*
X1481Y1246D01*
X463Y1245D02*
X583Y1245D01*
X1359Y1245D02*
X1480Y1245D01*
X463Y1244D02*
X583Y1244D01*
X1360Y1244D02*
X1480Y1244D01*
X464Y1243D02*
X583Y1243D01*
X1361Y1243D02*
X1480Y1243D01*
X464Y1242D02*
X583Y1242D01*
X1361Y1242D02*
X1479Y1242D01*
X465Y1241D02*
X582Y1241D01*
X1362Y1241D02*
X1479Y1241D01*
X465Y1240D02*
X582Y1240D01*
X1362Y1240D02*
X1479Y1240D01*
X465Y1239D02*
X581Y1239D01*
X1362Y1239D02*
X1478Y1239D01*
X466Y1238D02*
X581Y1238D01*
X1363Y1238D02*
X1478Y1238D01*
X466Y1237D02*
X580Y1237D01*
X1363Y1237D02*
X1477Y1237D01*
X467Y1236D02*
X580Y1236D01*
X1364Y1236D02*
X1477Y1236D01*
X468Y1235D02*
X579Y1235D01*
X1365Y1235D02*
X1476Y1235D01*
X468Y1234D02*
X579Y1234D01*
X1365Y1234D02*
X1476Y1234D01*
X469Y1233D02*
X578Y1233D01*
X1366Y1233D02*
X1475Y1233D01*
X470Y1232D02*
X577Y1232D01*
X1367Y1232D02*
X1474Y1232D01*
X470Y1231D02*
X576Y1231D01*
X1367Y1231D02*
X1473Y1231D01*
X471Y1230D02*
X575Y1230D01*
X1368Y1230D02*
X1472Y1230D01*
X472Y1229D02*
X575Y1229D01*
X1369Y1229D02*
X1472Y1229D01*
X473Y1228D02*
X574Y1228D01*
X1370Y1228D02*
X1471Y1228D01*
X474Y1227D02*
X572Y1227D01*
X1371Y1227D02*
X1469Y1227D01*
X475Y1226D02*
X571Y1226D01*
X1372Y1226D02*
X1468Y1226D01*
X477Y1225D02*
X570Y1225D01*
X1374Y1225D02*
X1467Y1225D01*
X478Y1224D02*
X568Y1224D01*
X1375Y1224D02*
X1465Y1224D01*
X480Y1223D02*
X567Y1223D01*
X1377Y1223D02*
X1464Y1223D01*
X482Y1222D02*
X565Y1222D01*
X1379Y1222D02*
X1462Y1222D01*
X484Y1221D02*
X562Y1221D01*
X1381Y1221D02*
X1459Y1221D01*
X487Y1220D02*
X560Y1220D01*
X1384Y1220D02*
X1457Y1220D01*
X490Y1219D02*
X556Y1219D01*
X1387Y1219D02*
X1453Y1219D01*
X496Y1190D02*
X551Y1190D01*
X1393Y1190D02*
X1448Y1190D01*
X490Y1189D02*
X557Y1189D01*
X1387Y1189D02*
X1454Y1189D01*
X486Y1188D02*
X560Y1188D01*
X1383Y1188D02*
X1457Y1188D01*
X484Y1187D02*
X563Y1187D01*
X1381Y1187D02*
X1460Y1187D01*
X482Y1186D02*
X565Y1186D01*
X1379Y1186D02*
X1462Y1186D01*
X480Y1185D02*
X567Y1185D01*
X1377Y1185D02*
X1464Y1185D01*
X478Y1184D02*
X569Y1184D01*
X1375Y1184D02*
X1466Y1184D01*
X477Y1183D02*
X570Y1183D01*
X1374Y1183D02*
X1467Y1183D01*
X475Y1182D02*
X571Y1182D01*
X1372Y1182D02*
X1468Y1182D01*
X474Y1181D02*
X573Y1181D01*
X1371Y1181D02*
X1470Y1181D01*
X473Y1180D02*
X574Y1180D01*
X1370Y1180D02*
X1471Y1180D01*
X472Y1179D02*
X575Y1179D01*
X1369Y1179D02*
X1472Y1179D01*
X471Y1178D02*
X576Y1178D01*
X1368Y1178D02*
X1473Y1178D01*
X470Y1177D02*
X577Y1177D01*
X1367Y1177D02*
X1474Y1177D01*
X469Y1176D02*
X577Y1176D01*
X1366Y1176D02*
X1474Y1176D01*
X469Y1175D02*
X578Y1175D01*
X1366Y1175D02*
X1475Y1175D01*
X468Y1174D02*
X579Y1174D01*
X1365Y1174D02*
X1476Y1174D01*
X467Y1173D02*
X579Y1173D01*
X1364Y1173D02*
X1476Y1173D01*
X467Y1172D02*
X580Y1172D01*
X1364Y1172D02*
X1477Y1172D01*
X466Y1171D02*
X580Y1171D01*
X1363Y1171D02*
X1477Y1171D01*
X466Y1170D02*
X581Y1170D01*
X1363Y1170D02*
X1478Y1170D01*
X465Y1169D02*
X581Y1169D01*
X1362Y1169D02*
X1478Y1169D01*
X465Y1168D02*
X582Y1168D01*
X1362Y1168D02*
X1479Y1168D01*
X465Y1167D02*
X582Y1167D01*
X1361Y1167D02*
X1479Y1167D01*
X464Y1166D02*
X583Y1166D01*
X1361Y1166D02*
X1480Y1166D01*
X464Y1165D02*
X583Y1165D01*
X1361Y1165D02*
X1480Y1165D01*
X463Y1164D02*
X583Y1164D01*
X1360Y1164D02*
X1480Y1164D01*
X463Y1163D02*
X584Y1163D01*
X1360Y1163D02*
X1480Y1163D01*
X463Y1162D02*
X584Y1162D01*
X1360Y1162D02*
X1481Y1162D01*
X463Y1161D02*
X584Y1161D01*
X1360Y1161D02*
X1481Y1161D01*
X463Y1160D02*
X522Y1160D01*
X526Y1160D02*
X584Y1160D01*
X1359Y1160D02*
X1418Y1160D01*
X1423Y1160D02*
X1481Y1160D01*
X462Y1159D02*
X520Y1159D01*
X528Y1159D02*
X584Y1159D01*
X1359Y1159D02*
X1416Y1159D01*
X1425Y1159D02*
X1481Y1159D01*
X462Y1158D02*
X519Y1158D01*
X529Y1158D02*
X585Y1158D01*
X1359Y1158D02*
X1415Y1158D01*
X1426Y1158D02*
X1482Y1158D01*
X462Y1157D02*
X518Y1157D01*
X530Y1157D02*
X585Y1157D01*
X1359Y1157D02*
X1414Y1157D01*
X1426Y1157D02*
X1482Y1157D01*
X462Y1156D02*
X518Y1156D01*
X531Y1156D02*
X585Y1156D01*
X1359Y1156D02*
X1414Y1156D01*
X1427Y1156D02*
X1482Y1156D01*
X462Y1155D02*
X518Y1155D01*
X531Y1155D02*
X585Y1155D01*
X1359Y1155D02*
X1414Y1155D01*
X1427Y1155D02*
X1482Y1155D01*
X462Y1154D02*
X517Y1154D01*
X531Y1154D02*
X585Y1154D01*
X1359Y1154D02*
X1414Y1154D01*
X1427Y1154D02*
X1482Y1154D01*
X462Y1153D02*
X518Y1153D01*
X531Y1153D02*
X585Y1153D01*
X1359Y1153D02*
X1414Y1153D01*
X1427Y1153D02*
X1482Y1153D01*
X462Y1152D02*
X518Y1152D01*
X530Y1152D02*
X585Y1152D01*
X1359Y1152D02*
X1414Y1152D01*
X1427Y1152D02*
X1482Y1152D01*
X462Y1151D02*
X518Y1151D01*
X530Y1151D02*
X585Y1151D01*
X1359Y1151D02*
X1415Y1151D01*
X1426Y1151D02*
X1482Y1151D01*
X462Y1150D02*
X519Y1150D01*
X529Y1150D02*
X585Y1150D01*
X1359Y1150D02*
X1415Y1150D01*
X1425Y1150D02*
X1481Y1150D01*
X462Y1149D02*
X520Y1149D01*
X528Y1149D02*
X584Y1149D01*
X1359Y1149D02*
X1417Y1149D01*
X1424Y1149D02*
X1481Y1149D01*
X463Y1148D02*
X584Y1148D01*
X1359Y1148D02*
X1481Y1148D01*
X463Y1147D02*
X584Y1147D01*
X1359Y1147D02*
X1481Y1147D01*
X463Y1146D02*
X584Y1146D01*
X1359Y1146D02*
X1481Y1146D01*
X463Y1145D02*
X583Y1145D01*
X1359Y1145D02*
X1480Y1145D01*
X464Y1144D02*
X583Y1144D01*
X1360Y1144D02*
X1480Y1144D01*
X464Y1143D02*
X583Y1143D01*
X1361Y1143D02*
X1480Y1143D01*
X464Y1142D02*
X583Y1142D01*
X1361Y1142D02*
X1479Y1142D01*
X465Y1141D02*
X582Y1141D01*
X1362Y1141D02*
X1479Y1141D01*
X465Y1140D02*
X582Y1140D01*
X1362Y1140D02*
X1479Y1140D01*
X465Y1139D02*
X581Y1139D01*
X1362Y1139D02*
X1478Y1139D01*
X466Y1138D02*
X581Y1138D01*
X1363Y1138D02*
X1478Y1138D01*
X466Y1137D02*
X580Y1137D01*
X1363Y1137D02*
X1477Y1137D01*
X467Y1136D02*
X580Y1136D01*
X1364Y1136D02*
X1477Y1136D01*
X468Y1135D02*
X579Y1135D01*
X1365Y1135D02*
X1476Y1135D01*
X468Y1134D02*
X579Y1134D01*
X1365Y1134D02*
X1475Y1134D01*
X469Y1133D02*
X578Y1133D01*
X1366Y1133D02*
X1475Y1133D01*
X470Y1132D02*
X577Y1132D01*
X1367Y1132D02*
X1474Y1132D01*
X470Y1131D02*
X576Y1131D01*
X1367Y1131D02*
X1473Y1131D01*
X471Y1130D02*
X575Y1130D01*
X1368Y1130D02*
X1472Y1130D01*
X472Y1129D02*
X575Y1129D01*
X1369Y1129D02*
X1472Y1129D01*
X473Y1128D02*
X574Y1128D01*
X1370Y1128D02*
X1470Y1128D01*
X474Y1127D02*
X572Y1127D01*
X1371Y1127D02*
X1469Y1127D01*
X476Y1126D02*
X571Y1126D01*
X1372Y1126D02*
X1468Y1126D01*
X477Y1125D02*
X570Y1125D01*
X1374Y1125D02*
X1467Y1125D01*
X478Y1124D02*
X568Y1124D01*
X1375Y1124D02*
X1465Y1124D01*
X480Y1123D02*
X567Y1123D01*
X1377Y1123D02*
X1464Y1123D01*
X482Y1122D02*
X565Y1122D01*
X1379Y1122D02*
X1462Y1122D01*
X484Y1121D02*
X562Y1121D01*
X1381Y1121D02*
X1459Y1121D01*
X487Y1120D02*
X560Y1120D01*
X1384Y1120D02*
X1457Y1120D01*
X491Y1119D02*
X556Y1119D01*
X1388Y1119D02*
X1453Y1119D01*
X496Y1090D02*
X551Y1090D01*
X1393Y1090D02*
X1448Y1090D01*
X490Y1089D02*
X557Y1089D01*
X1387Y1089D02*
X1454Y1089D01*
X486Y1088D02*
X560Y1088D01*
X1383Y1088D02*
X1457Y1088D01*
X484Y1087D02*
X563Y1087D01*
X1381Y1087D02*
X1460Y1087D01*
X482Y1086D02*
X565Y1086D01*
X1379Y1086D02*
X1462Y1086D01*
X480Y1085D02*
X567Y1085D01*
X1377Y1085D02*
X1464Y1085D01*
X478Y1084D02*
X569Y1084D01*
X1375Y1084D02*
X1466Y1084D01*
X477Y1083D02*
X570Y1083D01*
X1374Y1083D02*
X1467Y1083D01*
X475Y1082D02*
X571Y1082D01*
X1372Y1082D02*
X1468Y1082D01*
X474Y1081D02*
X573Y1081D01*
X1371Y1081D02*
X1470Y1081D01*
X473Y1080D02*
X574Y1080D01*
X1370Y1080D02*
X1471Y1080D01*
X472Y1079D02*
X575Y1079D01*
X1369Y1079D02*
X1472Y1079D01*
X471Y1078D02*
X576Y1078D01*
X1368Y1078D02*
X1473Y1078D01*
X470Y1077D02*
X577Y1077D01*
X1367Y1077D02*
X1474Y1077D01*
X469Y1076D02*
X577Y1076D01*
X1366Y1076D02*
X1474Y1076D01*
X469Y1075D02*
X578Y1075D01*
X1366Y1075D02*
X1475Y1075D01*
X468Y1074D02*
X579Y1074D01*
X1365Y1074D02*
X1476Y1074D01*
X467Y1073D02*
X579Y1073D01*
X1364Y1073D02*
X1476Y1073D01*
X467Y1072D02*
X580Y1072D01*
X1364Y1072D02*
X1477Y1072D01*
X466Y1071D02*
X580Y1071D01*
X1363Y1071D02*
X1477Y1071D01*
X466Y1070D02*
X581Y1070D01*
X1363Y1070D02*
X1478Y1070D01*
X465Y1069D02*
X581Y1069D01*
X1362Y1069D02*
X1478Y1069D01*
X465Y1068D02*
X582Y1068D01*
X1362Y1068D02*
X1479Y1068D01*
X464Y1067D02*
X582Y1067D01*
X1361Y1067D02*
X1479Y1067D01*
X464Y1066D02*
X583Y1066D01*
X1361Y1066D02*
X1480Y1066D01*
X464Y1065D02*
X583Y1065D01*
X1361Y1065D02*
X1480Y1065D01*
X463Y1064D02*
X583Y1064D01*
X1360Y1064D02*
X1480Y1064D01*
X463Y1063D02*
X584Y1063D01*
X1360Y1063D02*
X1480Y1063D01*
X463Y1062D02*
X584Y1062D01*
X1360Y1062D02*
X1481Y1062D01*
X463Y1061D02*
X584Y1061D01*
X1360Y1061D02*
X1481Y1061D01*
X462Y1060D02*
X522Y1060D01*
X527Y1060D02*
X584Y1060D01*
X1359Y1060D02*
X1418Y1060D01*
X1423Y1060D02*
X1481Y1060D01*
X462Y1059D02*
X520Y1059D01*
X528Y1059D02*
X584Y1059D01*
X1359Y1059D02*
X1416Y1059D01*
X1424Y1059D02*
X1481Y1059D01*
X462Y1058D02*
X519Y1058D01*
X529Y1058D02*
X585Y1058D01*
X1359Y1058D02*
X1415Y1058D01*
X1425Y1058D02*
X1482Y1058D01*
X462Y1057D02*
X518Y1057D01*
X530Y1057D02*
X585Y1057D01*
X1359Y1057D02*
X1414Y1057D01*
X1426Y1057D02*
X1482Y1057D01*
X462Y1056D02*
X518Y1056D01*
X530Y1056D02*
X585Y1056D01*
X1359Y1056D02*
X1414Y1056D01*
X1427Y1056D02*
X1482Y1056D01*
X462Y1055D02*
X518Y1055D01*
X531Y1055D02*
X585Y1055D01*
X1359Y1055D02*
X1414Y1055D01*
X1427Y1055D02*
X1482Y1055D01*
X462Y1054D02*
X518Y1054D01*
X531Y1054D02*
X585Y1054D01*
X1359Y1054D02*
X1414Y1054D01*
X1427Y1054D02*
X1482Y1054D01*
X462Y1053D02*
X518Y1053D01*
X531Y1053D02*
X585Y1053D01*
X1359Y1053D02*
X1414Y1053D01*
X1427Y1053D02*
X1482Y1053D01*
X462Y1052D02*
X518Y1052D01*
X530Y1052D02*
X585Y1052D01*
X1359Y1052D02*
X1414Y1052D01*
X1427Y1052D02*
X1482Y1052D01*
X462Y1051D02*
X519Y1051D01*
X530Y1051D02*
X585Y1051D01*
X1359Y1051D02*
X1415Y1051D01*
X1426Y1051D02*
X1482Y1051D01*
X462Y1050D02*
X519Y1050D01*
X529Y1050D02*
X585Y1050D01*
X1359Y1050D02*
X1416Y1050D01*
X1425Y1050D02*
X1481Y1050D01*
X462Y1049D02*
X521Y1049D01*
X528Y1049D02*
X584Y1049D01*
X1359Y1049D02*
X1417Y1049D01*
X1424Y1049D02*
X1481Y1049D01*
X462Y1048D02*
X584Y1048D01*
X1359Y1048D02*
X1481Y1048D01*
X463Y1047D02*
X584Y1047D01*
X1359Y1047D02*
X1481Y1047D01*
X463Y1046D02*
X584Y1046D01*
X1359Y1046D02*
X1481Y1046D01*
X463Y1045D02*
X583Y1045D01*
X1359Y1045D02*
X1480Y1045D01*
X463Y1044D02*
X583Y1044D01*
X1360Y1044D02*
X1480Y1044D01*
X464Y1043D02*
X583Y1043D01*
X1361Y1043D02*
X1480Y1043D01*
X464Y1042D02*
X582Y1042D01*
X1361Y1042D02*
X1479Y1042D01*
X465Y1041D02*
X582Y1041D01*
X1362Y1041D02*
X1479Y1041D01*
X465Y1040D02*
X582Y1040D01*
X1362Y1040D02*
X1479Y1040D01*
X465Y1039D02*
X581Y1039D01*
X1362Y1039D02*
X1478Y1039D01*
X466Y1038D02*
X581Y1038D01*
X1363Y1038D02*
X1478Y1038D01*
X466Y1037D02*
X580Y1037D01*
X1363Y1037D02*
X1477Y1037D01*
X467Y1036D02*
X580Y1036D01*
X1364Y1036D02*
X1477Y1036D01*
X468Y1035D02*
X579Y1035D01*
X1365Y1035D02*
X1476Y1035D01*
X468Y1034D02*
X579Y1034D01*
X1365Y1034D02*
X1475Y1034D01*
X469Y1033D02*
X578Y1033D01*
X1366Y1033D02*
X1475Y1033D01*
X470Y1032D02*
X577Y1032D01*
X1367Y1032D02*
X1474Y1032D01*
X470Y1031D02*
X576Y1031D01*
X1367Y1031D02*
X1473Y1031D01*
X471Y1030D02*
X575Y1030D01*
X1368Y1030D02*
X1472Y1030D01*
X472Y1029D02*
X575Y1029D01*
X1369Y1029D02*
X1472Y1029D01*
X473Y1028D02*
X574Y1028D01*
X1370Y1028D02*
X1470Y1028D01*
X474Y1027D02*
X572Y1027D01*
X1371Y1027D02*
X1469Y1027D01*
X476Y1026D02*
X571Y1026D01*
X1373Y1026D02*
X1468Y1026D01*
X477Y1025D02*
X570Y1025D01*
X1374Y1025D02*
X1467Y1025D01*
X478Y1024D02*
X568Y1024D01*
X1375Y1024D02*
X1465Y1024D01*
X480Y1023D02*
X567Y1023D01*
X1377Y1023D02*
X1464Y1023D01*
X482Y1022D02*
X565Y1022D01*
X1379Y1022D02*
X1462Y1022D01*
X484Y1021D02*
X562Y1021D01*
X1381Y1021D02*
X1459Y1021D01*
X487Y1020D02*
X560Y1020D01*
X1384Y1020D02*
X1457Y1020D01*
X491Y1019D02*
X556Y1019D01*
X1388Y1019D02*
X1453Y1019D01*
X496Y990D02*
X551Y990D01*
X1393Y990D02*
X1448Y990D01*
X490Y989D02*
X557Y989D01*
X1387Y989D02*
X1454Y989D01*
X486Y988D02*
X560Y988D01*
X1383Y988D02*
X1457Y988D01*
X484Y987D02*
X563Y987D01*
X1381Y987D02*
X1460Y987D01*
X482Y986D02*
X565Y986D01*
X1379Y986D02*
X1462Y986D01*
X480Y985D02*
X567Y985D01*
X1377Y985D02*
X1464Y985D01*
X478Y984D02*
X569Y984D01*
X1375Y984D02*
X1466Y984D01*
X477Y983D02*
X570Y983D01*
X1374Y983D02*
X1467Y983D01*
X475Y982D02*
X572Y982D01*
X1372Y982D02*
X1468Y982D01*
X474Y981D02*
X573Y981D01*
X1371Y981D02*
X1470Y981D01*
X473Y980D02*
X574Y980D01*
X1370Y980D02*
X1471Y980D01*
X472Y979D02*
X575Y979D01*
X1369Y979D02*
X1472Y979D01*
X471Y978D02*
X576Y978D01*
X1368Y978D02*
X1473Y978D01*
X470Y977D02*
X577Y977D01*
X1367Y977D02*
X1474Y977D01*
X469Y976D02*
X577Y976D01*
X1366Y976D02*
X1474Y976D01*
X469Y975D02*
X578Y975D01*
X1366Y975D02*
X1475Y975D01*
X468Y974D02*
X579Y974D01*
X1365Y974D02*
X1476Y974D01*
X467Y973D02*
X579Y973D01*
X1364Y973D02*
X1476Y973D01*
X467Y972D02*
X580Y972D01*
X1364Y972D02*
X1477Y972D01*
X466Y971D02*
X580Y971D01*
X1363Y971D02*
X1477Y971D01*
X466Y970D02*
X581Y970D01*
X1363Y970D02*
X1478Y970D01*
X465Y969D02*
X581Y969D01*
X1362Y969D02*
X1478Y969D01*
X465Y968D02*
X582Y968D01*
X1362Y968D02*
X1479Y968D01*
X465Y967D02*
X582Y967D01*
X1361Y967D02*
X1479Y967D01*
X464Y966D02*
X583Y966D01*
X1361Y966D02*
X1480Y966D01*
X464Y965D02*
X583Y965D01*
X1361Y965D02*
X1480Y965D01*
X463Y964D02*
X583Y964D01*
X1360Y964D02*
X1480Y964D01*
X463Y963D02*
X584Y963D01*
X1360Y963D02*
X1480Y963D01*
X463Y962D02*
X584Y962D01*
X1360Y962D02*
X1481Y962D01*
X463Y961D02*
X584Y961D01*
X1360Y961D02*
X1481Y961D01*
X462Y960D02*
X522Y960D01*
X527Y960D02*
X584Y960D01*
X1359Y960D02*
X1418Y960D01*
X1423Y960D02*
X1481Y960D01*
X462Y959D02*
X520Y959D01*
X528Y959D02*
X584Y959D01*
X1359Y959D02*
X1416Y959D01*
X1424Y959D02*
X1481Y959D01*
X462Y958D02*
X519Y958D01*
X529Y958D02*
X585Y958D01*
X1359Y958D02*
X1415Y958D01*
X1425Y958D02*
X1482Y958D01*
X462Y957D02*
X518Y957D01*
X530Y957D02*
X585Y957D01*
X1359Y957D02*
X1414Y957D01*
X1426Y957D02*
X1482Y957D01*
X462Y956D02*
X518Y956D01*
X530Y956D02*
X585Y956D01*
X1359Y956D02*
X1414Y956D01*
X1427Y956D02*
X1482Y956D01*
X462Y955D02*
X518Y955D01*
X531Y955D02*
X585Y955D01*
X1359Y955D02*
X1414Y955D01*
X1427Y955D02*
X1482Y955D01*
X462Y954D02*
X518Y954D01*
X531Y954D02*
X585Y954D01*
X1359Y954D02*
X1414Y954D01*
X1427Y954D02*
X1482Y954D01*
X462Y953D02*
X518Y953D01*
X531Y953D02*
X585Y953D01*
X1359Y953D02*
X1414Y953D01*
X1427Y953D02*
X1482Y953D01*
X462Y952D02*
X518Y952D01*
X530Y952D02*
X585Y952D01*
X1359Y952D02*
X1414Y952D01*
X1427Y952D02*
X1482Y952D01*
X462Y951D02*
X519Y951D01*
X530Y951D02*
X585Y951D01*
X1359Y951D02*
X1415Y951D01*
X1426Y951D02*
X1482Y951D01*
X462Y950D02*
X519Y950D01*
X529Y950D02*
X585Y950D01*
X1359Y950D02*
X1416Y950D01*
X1425Y950D02*
X1481Y950D01*
X462Y949D02*
X521Y949D01*
X528Y949D02*
X584Y949D01*
X1359Y949D02*
X1417Y949D01*
X1424Y949D02*
X1481Y949D01*
X463Y948D02*
X584Y948D01*
X1359Y948D02*
X1481Y948D01*
X463Y947D02*
X584Y947D01*
X1359Y947D02*
X1481Y947D01*
X463Y946D02*
X584Y946D01*
X1359Y946D02*
X1481Y946D01*
X463Y945D02*
X583Y945D01*
X1359Y945D02*
X1480Y945D01*
X464Y944D02*
X583Y944D01*
X1360Y944D02*
X1480Y944D01*
X464Y943D02*
X583Y943D01*
X1361Y943D02*
X1480Y943D01*
X464Y942D02*
X582Y942D01*
X1361Y942D02*
X1479Y942D01*
X465Y941D02*
X582Y941D01*
X1362Y941D02*
X1479Y941D01*
X465Y940D02*
X582Y940D01*
X1362Y940D02*
X1479Y940D01*
X465Y939D02*
X581Y939D01*
X1362Y939D02*
X1478Y939D01*
X466Y938D02*
X581Y938D01*
X1363Y938D02*
X1478Y938D01*
X466Y937D02*
X580Y937D01*
X1363Y937D02*
X1477Y937D01*
X467Y936D02*
X580Y936D01*
X1364Y936D02*
X1477Y936D01*
X468Y935D02*
X579Y935D01*
X1365Y935D02*
X1476Y935D01*
X468Y934D02*
X579Y934D01*
X1365Y934D02*
X1475Y934D01*
X469Y933D02*
X578Y933D01*
X1366Y933D02*
X1475Y933D01*
X470Y932D02*
X577Y932D01*
X1367Y932D02*
X1474Y932D01*
X470Y931D02*
X576Y931D01*
X1367Y931D02*
X1473Y931D01*
X471Y930D02*
X575Y930D01*
X1368Y930D02*
X1472Y930D01*
X472Y929D02*
X575Y929D01*
X1369Y929D02*
X1472Y929D01*
X473Y928D02*
X574Y928D01*
X1370Y928D02*
X1470Y928D01*
X474Y927D02*
X572Y927D01*
X1371Y927D02*
X1469Y927D01*
X476Y926D02*
X571Y926D01*
X1373Y926D02*
X1468Y926D01*
X477Y925D02*
X570Y925D01*
X1374Y925D02*
X1467Y925D01*
X479Y924D02*
X568Y924D01*
X1375Y924D02*
X1465Y924D01*
X480Y923D02*
X567Y923D01*
X1377Y923D02*
X1463Y923D01*
X482Y922D02*
X565Y922D01*
X1379Y922D02*
X1462Y922D01*
X484Y921D02*
X562Y921D01*
X1381Y921D02*
X1459Y921D01*
X487Y920D02*
X560Y920D01*
X1384Y920D02*
X1457Y920D01*
X491Y919D02*
X556Y919D01*
X1388Y919D02*
X1453Y919D01*
X496Y890D02*
X551Y890D01*
X1393Y890D02*
X1448Y890D01*
X490Y889D02*
X557Y889D01*
X1387Y889D02*
X1454Y889D01*
X486Y888D02*
X560Y888D01*
X1383Y888D02*
X1457Y888D01*
X484Y887D02*
X563Y887D01*
X1381Y887D02*
X1460Y887D01*
X482Y886D02*
X565Y886D01*
X1379Y886D02*
X1462Y886D01*
X480Y885D02*
X567Y885D01*
X1377Y885D02*
X1464Y885D01*
X478Y884D02*
X569Y884D01*
X1375Y884D02*
X1466Y884D01*
X477Y883D02*
X570Y883D01*
X1374Y883D02*
X1467Y883D01*
X475Y882D02*
X572Y882D01*
X1372Y882D02*
X1468Y882D01*
X474Y881D02*
X573Y881D01*
X1371Y881D02*
X1470Y881D01*
X473Y880D02*
X574Y880D01*
X1370Y880D02*
X1471Y880D01*
X472Y879D02*
X575Y879D01*
X1369Y879D02*
X1472Y879D01*
X471Y878D02*
X576Y878D01*
X1368Y878D02*
X1473Y878D01*
X470Y877D02*
X577Y877D01*
X1367Y877D02*
X1474Y877D01*
X469Y876D02*
X577Y876D01*
X1366Y876D02*
X1474Y876D01*
X469Y875D02*
X578Y875D01*
X1366Y875D02*
X1475Y875D01*
X468Y874D02*
X579Y874D01*
X1365Y874D02*
X1476Y874D01*
X467Y873D02*
X579Y873D01*
X1364Y873D02*
X1476Y873D01*
X467Y872D02*
X580Y872D01*
X1364Y872D02*
X1477Y872D01*
X466Y871D02*
X580Y871D01*
X1363Y871D02*
X1477Y871D01*
X466Y870D02*
X581Y870D01*
X1363Y870D02*
X1478Y870D01*
X465Y869D02*
X581Y869D01*
X1362Y869D02*
X1478Y869D01*
X465Y868D02*
X582Y868D01*
X1362Y868D02*
X1479Y868D01*
X465Y867D02*
X582Y867D01*
X1361Y867D02*
X1479Y867D01*
X464Y866D02*
X583Y866D01*
X1361Y866D02*
X1480Y866D01*
X464Y865D02*
X583Y865D01*
X1361Y865D02*
X1480Y865D01*
X463Y864D02*
X583Y864D01*
X1360Y864D02*
X1480Y864D01*
X463Y863D02*
X584Y863D01*
X1360Y863D02*
X1480Y863D01*
X463Y862D02*
X584Y862D01*
X1360Y862D02*
X1481Y862D01*
X463Y861D02*
X584Y861D01*
X1360Y861D02*
X1481Y861D01*
X462Y860D02*
X522Y860D01*
X527Y860D02*
X584Y860D01*
X1359Y860D02*
X1418Y860D01*
X1423Y860D02*
X1481Y860D01*
X462Y859D02*
X520Y859D01*
X528Y859D02*
X584Y859D01*
X1359Y859D02*
X1416Y859D01*
X1425Y859D02*
X1481Y859D01*
X462Y858D02*
X519Y858D01*
X529Y858D02*
X585Y858D01*
X1359Y858D02*
X1415Y858D01*
X1426Y858D02*
X1482Y858D01*
X462Y857D02*
X518Y857D01*
X530Y857D02*
X585Y857D01*
X1359Y857D02*
X1414Y857D01*
X1426Y857D02*
X1482Y857D01*
X462Y856D02*
X518Y856D01*
X530Y856D02*
X585Y856D01*
X1359Y856D02*
X1414Y856D01*
X1427Y856D02*
X1482Y856D01*
X462Y855D02*
X518Y855D01*
X531Y855D02*
X585Y855D01*
X1359Y855D02*
X1414Y855D01*
X1427Y855D02*
X1482Y855D01*
X462Y854D02*
X518Y854D01*
X531Y854D02*
X585Y854D01*
X1359Y854D02*
X1414Y854D01*
X1427Y854D02*
X1482Y854D01*
X462Y853D02*
X518Y853D01*
X531Y853D02*
X585Y853D01*
X1359Y853D02*
X1414Y853D01*
X1427Y853D02*
X1482Y853D01*
X462Y852D02*
X518Y852D01*
X530Y852D02*
X585Y852D01*
X1359Y852D02*
X1414Y852D01*
X1427Y852D02*
X1482Y852D01*
X462Y851D02*
X519Y851D01*
X530Y851D02*
X585Y851D01*
X1359Y851D02*
X1415Y851D01*
X1426Y851D02*
X1482Y851D01*
X462Y850D02*
X519Y850D01*
X529Y850D02*
X585Y850D01*
X1359Y850D02*
X1415Y850D01*
X1425Y850D02*
X1481Y850D01*
X462Y849D02*
X521Y849D01*
X528Y849D02*
X584Y849D01*
X1359Y849D02*
X1417Y849D01*
X1424Y849D02*
X1481Y849D01*
X463Y848D02*
X584Y848D01*
X1359Y848D02*
X1481Y848D01*
X463Y847D02*
X584Y847D01*
X1359Y847D02*
X1481Y847D01*
X463Y846D02*
X584Y846D01*
X1359Y846D02*
X1481Y846D01*
X463Y845D02*
X583Y845D01*
X1359Y845D02*
X1480Y845D01*
X464Y844D02*
X583Y844D01*
X1360Y844D02*
X1480Y844D01*
X464Y843D02*
X583Y843D01*
X1361Y843D02*
X1480Y843D01*
X464Y842D02*
X582Y842D01*
X1361Y842D02*
X1479Y842D01*
X465Y841D02*
X582Y841D01*
X1362Y841D02*
X1479Y841D01*
X465Y840D02*
X582Y840D01*
X1362Y840D02*
X1479Y840D01*
X465Y839D02*
X581Y839D01*
X1362Y839D02*
X1478Y839D01*
X466Y838D02*
X581Y838D01*
X1363Y838D02*
X1478Y838D01*
X466Y837D02*
X580Y837D01*
X1363Y837D02*
X1477Y837D01*
X467Y836D02*
X580Y836D01*
X1364Y836D02*
X1477Y836D01*
X468Y835D02*
X579Y835D01*
X1365Y835D02*
X1476Y835D01*
X468Y834D02*
X579Y834D01*
X1365Y834D02*
X1475Y834D01*
X469Y833D02*
X578Y833D01*
X1366Y833D02*
X1475Y833D01*
X470Y832D02*
X577Y832D01*
X1367Y832D02*
X1474Y832D01*
X470Y831D02*
X576Y831D01*
X1367Y831D02*
X1473Y831D01*
X471Y830D02*
X575Y830D01*
X1368Y830D02*
X1472Y830D01*
X472Y829D02*
X575Y829D01*
X1369Y829D02*
X1472Y829D01*
X473Y828D02*
X574Y828D01*
X1370Y828D02*
X1470Y828D01*
X474Y827D02*
X572Y827D01*
X1371Y827D02*
X1469Y827D01*
X476Y826D02*
X571Y826D01*
X1373Y826D02*
X1468Y826D01*
X477Y825D02*
X570Y825D01*
X1374Y825D02*
X1467Y825D01*
X479Y824D02*
X568Y824D01*
X1375Y824D02*
X1465Y824D01*
X480Y823D02*
X567Y823D01*
X1377Y823D02*
X1463Y823D01*
X482Y822D02*
X565Y822D01*
X1379Y822D02*
X1461Y822D01*
X484Y821D02*
X562Y821D01*
X1381Y821D02*
X1459Y821D01*
X487Y820D02*
X560Y820D01*
X1384Y820D02*
X1457Y820D01*
X491Y819D02*
X556Y819D01*
X1388Y819D02*
X1453Y819D01*
X495Y790D02*
X551Y790D01*
X1392Y790D02*
X1448Y790D01*
X490Y789D02*
X557Y789D01*
X1386Y789D02*
X1454Y789D01*
X486Y788D02*
X560Y788D01*
X1383Y788D02*
X1457Y788D01*
X484Y787D02*
X563Y787D01*
X1381Y787D02*
X1460Y787D01*
X482Y786D02*
X565Y786D01*
X1379Y786D02*
X1462Y786D01*
X480Y785D02*
X567Y785D01*
X1377Y785D02*
X1464Y785D01*
X478Y784D02*
X569Y784D01*
X1375Y784D02*
X1466Y784D01*
X477Y783D02*
X570Y783D01*
X1374Y783D02*
X1467Y783D01*
X475Y782D02*
X572Y782D01*
X1372Y782D02*
X1469Y782D01*
X474Y781D02*
X573Y781D01*
X1371Y781D02*
X1470Y781D01*
X473Y780D02*
X574Y780D01*
X1370Y780D02*
X1471Y780D01*
X472Y779D02*
X575Y779D01*
X1369Y779D02*
X1472Y779D01*
X471Y778D02*
X576Y778D01*
X1368Y778D02*
X1473Y778D01*
X470Y777D02*
X577Y777D01*
X1367Y777D02*
X1474Y777D01*
X469Y776D02*
X577Y776D01*
X1366Y776D02*
X1474Y776D01*
X469Y775D02*
X578Y775D01*
X1366Y775D02*
X1475Y775D01*
X468Y774D02*
X579Y774D01*
X1365Y774D02*
X1476Y774D01*
X467Y773D02*
X579Y773D01*
X1364Y773D02*
X1476Y773D01*
X467Y772D02*
X580Y772D01*
X1364Y772D02*
X1477Y772D01*
X466Y771D02*
X580Y771D01*
X1363Y771D02*
X1477Y771D01*
X466Y770D02*
X581Y770D01*
X1363Y770D02*
X1478Y770D01*
X465Y769D02*
X581Y769D01*
X1362Y769D02*
X1478Y769D01*
X465Y768D02*
X582Y768D01*
X1362Y768D02*
X1479Y768D01*
X464Y767D02*
X582Y767D01*
X1361Y767D02*
X1479Y767D01*
X464Y766D02*
X583Y766D01*
X1361Y766D02*
X1480Y766D01*
X464Y765D02*
X583Y765D01*
X1361Y765D02*
X1480Y765D01*
X463Y764D02*
X583Y764D01*
X1360Y764D02*
X1480Y764D01*
X463Y763D02*
X584Y763D01*
X1360Y763D02*
X1480Y763D01*
X463Y762D02*
X584Y762D01*
X1360Y762D02*
X1481Y762D01*
X463Y761D02*
X584Y761D01*
X1360Y761D02*
X1481Y761D01*
X462Y760D02*
X522Y760D01*
X526Y760D02*
X584Y760D01*
X1359Y760D02*
X1418Y760D01*
X1423Y760D02*
X1481Y760D01*
X462Y759D02*
X520Y759D01*
X528Y759D02*
X584Y759D01*
X1359Y759D02*
X1416Y759D01*
X1424Y759D02*
X1481Y759D01*
X462Y758D02*
X519Y758D01*
X529Y758D02*
X585Y758D01*
X1359Y758D02*
X1415Y758D01*
X1425Y758D02*
X1482Y758D01*
X462Y757D02*
X518Y757D01*
X530Y757D02*
X585Y757D01*
X1359Y757D02*
X1414Y757D01*
X1426Y757D02*
X1482Y757D01*
X462Y756D02*
X518Y756D01*
X530Y756D02*
X585Y756D01*
X1359Y756D02*
X1414Y756D01*
X1427Y756D02*
X1482Y756D01*
X462Y755D02*
X518Y755D01*
X531Y755D02*
X585Y755D01*
X1359Y755D02*
X1414Y755D01*
X1427Y755D02*
X1482Y755D01*
X462Y754D02*
X518Y754D01*
X531Y754D02*
X585Y754D01*
X1359Y754D02*
X1414Y754D01*
X1427Y754D02*
X1482Y754D01*
X462Y753D02*
X518Y753D01*
X531Y753D02*
X585Y753D01*
X1359Y753D02*
X1414Y753D01*
X1427Y753D02*
X1482Y753D01*
X462Y752D02*
X518Y752D01*
X530Y752D02*
X585Y752D01*
X1359Y752D02*
X1414Y752D01*
X1426Y752D02*
X1482Y752D01*
X462Y751D02*
X519Y751D01*
X530Y751D02*
X585Y751D01*
X1359Y751D02*
X1415Y751D01*
X1426Y751D02*
X1482Y751D01*
X462Y750D02*
X519Y750D01*
X529Y750D02*
X585Y750D01*
X1359Y750D02*
X1415Y750D01*
X1425Y750D02*
X1481Y750D01*
X462Y749D02*
X521Y749D01*
X528Y749D02*
X584Y749D01*
X1359Y749D02*
X1417Y749D01*
X1424Y749D02*
X1481Y749D01*
X462Y748D02*
X584Y748D01*
X1359Y748D02*
X1481Y748D01*
X463Y747D02*
X584Y747D01*
X1359Y747D02*
X1481Y747D01*
X463Y746D02*
X584Y746D01*
X1359Y746D02*
X1481Y746D01*
X463Y745D02*
X583Y745D01*
X1359Y745D02*
X1480Y745D01*
X463Y744D02*
X583Y744D01*
X1360Y744D02*
X1480Y744D01*
X464Y743D02*
X583Y743D01*
X1361Y743D02*
X1480Y743D01*
X464Y742D02*
X582Y742D01*
X1361Y742D02*
X1479Y742D01*
X465Y741D02*
X582Y741D01*
X1362Y741D02*
X1479Y741D01*
X465Y740D02*
X582Y740D01*
X1362Y740D02*
X1479Y740D01*
X465Y739D02*
X581Y739D01*
X1362Y739D02*
X1478Y739D01*
X466Y738D02*
X581Y738D01*
X1363Y738D02*
X1478Y738D01*
X466Y737D02*
X580Y737D01*
X1363Y737D02*
X1477Y737D01*
X467Y736D02*
X580Y736D01*
X1364Y736D02*
X1477Y736D01*
X468Y735D02*
X579Y735D01*
X1365Y735D02*
X1476Y735D01*
X468Y734D02*
X579Y734D01*
X1365Y734D02*
X1475Y734D01*
X469Y733D02*
X578Y733D01*
X1366Y733D02*
X1475Y733D01*
X470Y732D02*
X577Y732D01*
X1367Y732D02*
X1474Y732D01*
X470Y731D02*
X576Y731D01*
X1367Y731D02*
X1473Y731D01*
X471Y730D02*
X575Y730D01*
X1368Y730D02*
X1472Y730D01*
X472Y729D02*
X575Y729D01*
X1369Y729D02*
X1471Y729D01*
X473Y728D02*
X573Y728D01*
X1370Y728D02*
X1470Y728D01*
X474Y727D02*
X572Y727D01*
X1371Y727D02*
X1469Y727D01*
X476Y726D02*
X571Y726D01*
X1373Y726D02*
X1468Y726D01*
X477Y725D02*
X570Y725D01*
X1374Y725D02*
X1467Y725D01*
X479Y724D02*
X568Y724D01*
X1376Y724D02*
X1465Y724D01*
X480Y723D02*
X566Y723D01*
X1377Y723D02*
X1463Y723D01*
X482Y722D02*
X564Y722D01*
X1379Y722D02*
X1461Y722D01*
X484Y721D02*
X562Y721D01*
X1381Y721D02*
X1459Y721D01*
X487Y720D02*
X560Y720D01*
X1384Y720D02*
X1457Y720D01*
X491Y719D02*
X556Y719D01*
X1388Y719D02*
X1453Y719D01*
X495Y690D02*
X552Y690D01*
X1392Y690D02*
X1449Y690D01*
X490Y689D02*
X557Y689D01*
X1386Y689D02*
X1454Y689D01*
X486Y688D02*
X561Y688D01*
X1383Y688D02*
X1457Y688D01*
X484Y687D02*
X563Y687D01*
X1381Y687D02*
X1460Y687D01*
X482Y686D02*
X565Y686D01*
X1378Y686D02*
X1462Y686D01*
X480Y685D02*
X567Y685D01*
X1377Y685D02*
X1464Y685D01*
X478Y684D02*
X569Y684D01*
X1375Y684D02*
X1466Y684D01*
X477Y683D02*
X570Y683D01*
X1373Y683D02*
X1467Y683D01*
X475Y682D02*
X572Y682D01*
X1372Y682D02*
X1469Y682D01*
X474Y681D02*
X573Y681D01*
X1371Y681D02*
X1470Y681D01*
X473Y680D02*
X574Y680D01*
X1370Y680D02*
X1471Y680D01*
X472Y679D02*
X575Y679D01*
X1369Y679D02*
X1472Y679D01*
X471Y678D02*
X576Y678D01*
X1368Y678D02*
X1473Y678D01*
X470Y677D02*
X577Y677D01*
X1367Y677D02*
X1474Y677D01*
X469Y676D02*
X577Y676D01*
X1366Y676D02*
X1474Y676D01*
X469Y675D02*
X578Y675D01*
X1366Y675D02*
X1475Y675D01*
X468Y674D02*
X579Y674D01*
X1365Y674D02*
X1476Y674D01*
X467Y673D02*
X579Y673D01*
X1364Y673D02*
X1476Y673D01*
X467Y672D02*
X580Y672D01*
X1364Y672D02*
X1477Y672D01*
X466Y671D02*
X580Y671D01*
X1363Y671D02*
X1477Y671D01*
X466Y670D02*
X581Y670D01*
X1363Y670D02*
X1478Y670D01*
X465Y669D02*
X581Y669D01*
X1362Y669D02*
X1478Y669D01*
X465Y668D02*
X582Y668D01*
X1362Y668D02*
X1479Y668D01*
X464Y667D02*
X582Y667D01*
X1361Y667D02*
X1479Y667D01*
X464Y666D02*
X583Y666D01*
X1361Y666D02*
X1480Y666D01*
X464Y665D02*
X583Y665D01*
X1361Y665D02*
X1480Y665D01*
X463Y664D02*
X583Y664D01*
X1360Y664D02*
X1480Y664D01*
X463Y663D02*
X584Y663D01*
X1360Y663D02*
X1480Y663D01*
X463Y662D02*
X584Y662D01*
X1360Y662D02*
X1481Y662D01*
X463Y661D02*
X584Y661D01*
X1360Y661D02*
X1481Y661D01*
X462Y660D02*
X522Y660D01*
X527Y660D02*
X584Y660D01*
X1359Y660D02*
X1418Y660D01*
X1423Y660D02*
X1481Y660D01*
X462Y659D02*
X520Y659D01*
X528Y659D02*
X584Y659D01*
X1359Y659D02*
X1416Y659D01*
X1424Y659D02*
X1481Y659D01*
X462Y658D02*
X519Y658D01*
X529Y658D02*
X585Y658D01*
X1359Y658D02*
X1415Y658D01*
X1425Y658D02*
X1482Y658D01*
X462Y657D02*
X518Y657D01*
X530Y657D02*
X585Y657D01*
X1359Y657D02*
X1414Y657D01*
X1426Y657D02*
X1482Y657D01*
X462Y656D02*
X518Y656D01*
X530Y656D02*
X585Y656D01*
X1359Y656D02*
X1414Y656D01*
X1427Y656D02*
X1482Y656D01*
X462Y655D02*
X518Y655D01*
X531Y655D02*
X585Y655D01*
X1359Y655D02*
X1414Y655D01*
X1427Y655D02*
X1482Y655D01*
X462Y654D02*
X518Y654D01*
X531Y654D02*
X585Y654D01*
X1359Y654D02*
X1414Y654D01*
X1427Y654D02*
X1482Y654D01*
X462Y653D02*
X518Y653D01*
X531Y653D02*
X585Y653D01*
X1359Y653D02*
X1414Y653D01*
X1427Y653D02*
X1482Y653D01*
X462Y652D02*
X518Y652D01*
X530Y652D02*
X585Y652D01*
X1359Y652D02*
X1414Y652D01*
X1426Y652D02*
X1482Y652D01*
X462Y651D02*
X519Y651D01*
X530Y651D02*
X585Y651D01*
X1359Y651D02*
X1415Y651D01*
X1426Y651D02*
X1482Y651D01*
X462Y650D02*
X519Y650D01*
X529Y650D02*
X585Y650D01*
X1359Y650D02*
X1416Y650D01*
X1425Y650D02*
X1481Y650D01*
X462Y649D02*
X521Y649D01*
X528Y649D02*
X584Y649D01*
X1359Y649D02*
X1417Y649D01*
X1424Y649D02*
X1481Y649D01*
X463Y648D02*
X584Y648D01*
X1359Y648D02*
X1481Y648D01*
X463Y647D02*
X584Y647D01*
X1359Y647D02*
X1481Y647D01*
X463Y646D02*
X584Y646D01*
X1359Y646D02*
X1481Y646D01*
X463Y645D02*
X583Y645D01*
X1359Y645D02*
X1480Y645D01*
X464Y644D02*
X583Y644D01*
X1360Y644D02*
X1480Y644D01*
X464Y643D02*
X583Y643D01*
X1361Y643D02*
X1480Y643D01*
X464Y642D02*
X582Y642D01*
X1361Y642D02*
X1479Y642D01*
X465Y641D02*
X582Y641D01*
X1362Y641D02*
X1479Y641D01*
X465Y640D02*
X582Y640D01*
X1362Y640D02*
X1479Y640D01*
X465Y639D02*
X581Y639D01*
X1362Y639D02*
X1478Y639D01*
X466Y638D02*
X581Y638D01*
X1363Y638D02*
X1478Y638D01*
X466Y637D02*
X580Y637D01*
X1363Y637D02*
X1477Y637D01*
X467Y636D02*
X580Y636D01*
X1364Y636D02*
X1477Y636D01*
X468Y635D02*
X579Y635D01*
X1365Y635D02*
X1476Y635D01*
X468Y634D02*
X578Y634D01*
X1365Y634D02*
X1475Y634D01*
X469Y633D02*
X578Y633D01*
X1366Y633D02*
X1475Y633D01*
X470Y632D02*
X577Y632D01*
X1367Y632D02*
X1474Y632D01*
X470Y631D02*
X576Y631D01*
X1367Y631D02*
X1473Y631D01*
X471Y630D02*
X575Y630D01*
X1368Y630D02*
X1472Y630D01*
X472Y629D02*
X575Y629D01*
X1369Y629D02*
X1471Y629D01*
X473Y628D02*
X573Y628D01*
X1370Y628D02*
X1470Y628D01*
X474Y627D02*
X572Y627D01*
X1371Y627D02*
X1469Y627D01*
X476Y626D02*
X571Y626D01*
X1373Y626D02*
X1468Y626D01*
X477Y625D02*
X570Y625D01*
X1374Y625D02*
X1467Y625D01*
X479Y624D02*
X568Y624D01*
X1376Y624D02*
X1465Y624D01*
X480Y623D02*
X566Y623D01*
X1377Y623D02*
X1463Y623D01*
X482Y622D02*
X564Y622D01*
X1379Y622D02*
X1461Y622D01*
X485Y621D02*
X562Y621D01*
X1381Y621D02*
X1459Y621D01*
X487Y620D02*
X560Y620D01*
X1384Y620D02*
X1456Y620D01*
X491Y619D02*
X556Y619D01*
X1388Y619D02*
X1453Y619D01*
X495Y590D02*
X552Y590D01*
X1392Y590D02*
X1449Y590D01*
X489Y589D02*
X557Y589D01*
X1386Y589D02*
X1454Y589D01*
X486Y588D02*
X561Y588D01*
X1383Y588D02*
X1457Y588D01*
X484Y587D02*
X563Y587D01*
X1381Y587D02*
X1460Y587D01*
X482Y586D02*
X565Y586D01*
X1378Y586D02*
X1462Y586D01*
X480Y585D02*
X567Y585D01*
X1377Y585D02*
X1464Y585D01*
X478Y584D02*
X569Y584D01*
X1375Y584D02*
X1466Y584D01*
X477Y583D02*
X570Y583D01*
X1373Y583D02*
X1467Y583D01*
X475Y582D02*
X572Y582D01*
X1372Y582D02*
X1469Y582D01*
X474Y581D02*
X573Y581D01*
X1371Y581D02*
X1470Y581D01*
X473Y580D02*
X574Y580D01*
X1370Y580D02*
X1471Y580D01*
X472Y579D02*
X575Y579D01*
X1369Y579D02*
X1472Y579D01*
X471Y578D02*
X576Y578D01*
X1368Y578D02*
X1473Y578D01*
X470Y577D02*
X577Y577D01*
X1367Y577D02*
X1474Y577D01*
X469Y576D02*
X577Y576D01*
X1366Y576D02*
X1474Y576D01*
X469Y575D02*
X578Y575D01*
X1366Y575D02*
X1475Y575D01*
X468Y574D02*
X579Y574D01*
X1365Y574D02*
X1476Y574D01*
X467Y573D02*
X579Y573D01*
X1364Y573D02*
X1476Y573D01*
X467Y572D02*
X580Y572D01*
X1364Y572D02*
X1477Y572D01*
X466Y571D02*
X580Y571D01*
X1363Y571D02*
X1477Y571D01*
X466Y570D02*
X581Y570D01*
X1363Y570D02*
X1478Y570D01*
X465Y569D02*
X581Y569D01*
X1362Y569D02*
X1478Y569D01*
X465Y568D02*
X582Y568D01*
X1362Y568D02*
X1479Y568D01*
X464Y567D02*
X582Y567D01*
X1361Y567D02*
X1479Y567D01*
X464Y566D02*
X583Y566D01*
X1361Y566D02*
X1480Y566D01*
X464Y565D02*
X583Y565D01*
X1361Y565D02*
X1480Y565D01*
X463Y564D02*
X583Y564D01*
X1360Y564D02*
X1480Y564D01*
X463Y563D02*
X584Y563D01*
X1360Y563D02*
X1481Y563D01*
X463Y562D02*
X584Y562D01*
X1360Y562D02*
X1481Y562D01*
X463Y561D02*
X584Y561D01*
X1360Y561D02*
X1481Y561D01*
X462Y560D02*
X522Y560D01*
X527Y560D02*
X584Y560D01*
X1359Y560D02*
X1418Y560D01*
X1423Y560D02*
X1481Y560D01*
X462Y559D02*
X520Y559D01*
X528Y559D02*
X584Y559D01*
X1359Y559D02*
X1416Y559D01*
X1424Y559D02*
X1481Y559D01*
X462Y558D02*
X519Y558D01*
X529Y558D02*
X585Y558D01*
X1359Y558D02*
X1415Y558D01*
X1425Y558D02*
X1482Y558D01*
X462Y557D02*
X518Y557D01*
X530Y557D02*
X585Y557D01*
X1359Y557D02*
X1414Y557D01*
X1426Y557D02*
X1482Y557D01*
X462Y556D02*
X518Y556D01*
X530Y556D02*
X585Y556D01*
X1359Y556D02*
X1414Y556D01*
X1427Y556D02*
X1482Y556D01*
X462Y555D02*
X518Y555D01*
X531Y555D02*
X585Y555D01*
X1359Y555D02*
X1414Y555D01*
X1427Y555D02*
X1482Y555D01*
X462Y554D02*
X518Y554D01*
X531Y554D02*
X585Y554D01*
X1359Y554D02*
X1414Y554D01*
X1427Y554D02*
X1482Y554D01*
X462Y553D02*
X518Y553D01*
X531Y553D02*
X585Y553D01*
X1359Y553D02*
X1414Y553D01*
X1427Y553D02*
X1482Y553D01*
X462Y552D02*
X518Y552D01*
X530Y552D02*
X585Y552D01*
X1359Y552D02*
X1414Y552D01*
X1426Y552D02*
X1482Y552D01*
X462Y551D02*
X519Y551D01*
X530Y551D02*
X585Y551D01*
X1359Y551D02*
X1415Y551D01*
X1426Y551D02*
X1482Y551D01*
X462Y550D02*
X519Y550D01*
X529Y550D02*
X585Y550D01*
X1359Y550D02*
X1416Y550D01*
X1425Y550D02*
X1481Y550D01*
X462Y549D02*
X521Y549D01*
X528Y549D02*
X584Y549D01*
X1359Y549D02*
X1417Y549D01*
X1424Y549D02*
X1481Y549D01*
X463Y548D02*
X584Y548D01*
X1359Y548D02*
X1481Y548D01*
X463Y547D02*
X584Y547D01*
X1359Y547D02*
X1481Y547D01*
X463Y546D02*
X584Y546D01*
X1359Y546D02*
X1481Y546D01*
X463Y545D02*
X583Y545D01*
X1359Y545D02*
X1480Y545D01*
X464Y544D02*
X583Y544D01*
X1360Y544D02*
X1480Y544D01*
X464Y543D02*
X583Y543D01*
X1361Y543D02*
X1480Y543D01*
X464Y542D02*
X582Y542D01*
X1361Y542D02*
X1479Y542D01*
X465Y541D02*
X582Y541D01*
X1362Y541D02*
X1479Y541D01*
X465Y540D02*
X582Y540D01*
X1362Y540D02*
X1479Y540D01*
X465Y539D02*
X581Y539D01*
X1362Y539D02*
X1478Y539D01*
X466Y538D02*
X581Y538D01*
X1363Y538D02*
X1478Y538D01*
X466Y537D02*
X580Y537D01*
X1363Y537D02*
X1477Y537D01*
X467Y536D02*
X580Y536D01*
X1364Y536D02*
X1477Y536D01*
X468Y535D02*
X579Y535D01*
X1365Y535D02*
X1476Y535D01*
X468Y534D02*
X578Y534D01*
X1365Y534D02*
X1475Y534D01*
X469Y533D02*
X578Y533D01*
X1366Y533D02*
X1475Y533D01*
X470Y532D02*
X577Y532D01*
X1367Y532D02*
X1474Y532D01*
X470Y531D02*
X576Y531D01*
X1367Y531D02*
X1473Y531D01*
X471Y530D02*
X575Y530D01*
X1368Y530D02*
X1472Y530D01*
X472Y529D02*
X575Y529D01*
X1369Y529D02*
X1471Y529D01*
X473Y528D02*
X573Y528D01*
X1370Y528D02*
X1470Y528D01*
X474Y527D02*
X572Y527D01*
X1371Y527D02*
X1469Y527D01*
X476Y526D02*
X571Y526D01*
X1373Y526D02*
X1468Y526D01*
X477Y525D02*
X570Y525D01*
X1374Y525D02*
X1467Y525D01*
X479Y524D02*
X568Y524D01*
X1376Y524D02*
X1465Y524D01*
X480Y523D02*
X566Y523D01*
X1377Y523D02*
X1463Y523D01*
X482Y522D02*
X564Y522D01*
X1379Y522D02*
X1461Y522D01*
X485Y521D02*
X562Y521D01*
X1381Y521D02*
X1459Y521D01*
X487Y520D02*
X560Y520D01*
X1384Y520D02*
X1456Y520D01*
X491Y519D02*
X556Y519D01*
X1388Y519D02*
X1453Y519D01*
X495Y490D02*
X552Y490D01*
X1392Y490D02*
X1449Y490D01*
X489Y489D02*
X557Y489D01*
X1386Y489D02*
X1454Y489D01*
X486Y488D02*
X561Y488D01*
X1383Y488D02*
X1458Y488D01*
X484Y487D02*
X563Y487D01*
X1381Y487D02*
X1460Y487D01*
X481Y486D02*
X565Y486D01*
X1359Y486D02*
X1359Y486D01*
X1378Y486D02*
X1462Y486D01*
X480Y485D02*
X567Y485D01*
X1359Y485D02*
X1359Y485D01*
X1377Y485D02*
X1464Y485D01*
X478Y484D02*
X569Y484D01*
X1359Y484D02*
X1360Y484D01*
X1375Y484D02*
X1466Y484D01*
X477Y483D02*
X570Y483D01*
X1359Y483D02*
X1361Y483D01*
X1373Y483D02*
X1467Y483D01*
X475Y482D02*
X572Y482D01*
X1359Y482D02*
X1361Y482D01*
X1372Y482D02*
X1469Y482D01*
X474Y481D02*
X573Y481D01*
X1359Y481D02*
X1362Y481D01*
X1371Y481D02*
X1470Y481D01*
X473Y480D02*
X574Y480D01*
X1359Y480D02*
X1363Y480D01*
X1370Y480D02*
X1471Y480D01*
X472Y479D02*
X575Y479D01*
X1359Y479D02*
X1363Y479D01*
X1369Y479D02*
X1472Y479D01*
X471Y478D02*
X576Y478D01*
X1359Y478D02*
X1364Y478D01*
X1368Y478D02*
X1473Y478D01*
X470Y477D02*
X577Y477D01*
X1359Y477D02*
X1365Y477D01*
X1367Y477D02*
X1474Y477D01*
X469Y476D02*
X577Y476D01*
X1359Y476D02*
X1474Y476D01*
X469Y475D02*
X578Y475D01*
X1359Y475D02*
X1475Y475D01*
X468Y474D02*
X579Y474D01*
X1359Y474D02*
X1476Y474D01*
X467Y473D02*
X579Y473D01*
X1359Y473D02*
X1476Y473D01*
X467Y472D02*
X580Y472D01*
X1359Y472D02*
X1477Y472D01*
X466Y471D02*
X580Y471D01*
X1359Y471D02*
X1477Y471D01*
X466Y470D02*
X581Y470D01*
X1359Y470D02*
X1478Y470D01*
X465Y469D02*
X581Y469D01*
X1359Y469D02*
X1478Y469D01*
X465Y468D02*
X582Y468D01*
X1359Y468D02*
X1479Y468D01*
X464Y467D02*
X582Y467D01*
X1359Y467D02*
X1479Y467D01*
X464Y466D02*
X583Y466D01*
X1359Y466D02*
X1480Y466D01*
X464Y465D02*
X583Y465D01*
X1359Y465D02*
X1480Y465D01*
X463Y464D02*
X583Y464D01*
X1359Y464D02*
X1480Y464D01*
X463Y463D02*
X584Y463D01*
X1359Y463D02*
X1481Y463D01*
X463Y462D02*
X584Y462D01*
X1359Y462D02*
X1481Y462D01*
X463Y461D02*
X584Y461D01*
X1359Y461D02*
X1481Y461D01*
X462Y460D02*
X521Y460D01*
X527Y460D02*
X584Y460D01*
X1359Y460D02*
X1418Y460D01*
X1423Y460D02*
X1481Y460D01*
X462Y459D02*
X520Y459D01*
X528Y459D02*
X584Y459D01*
X1359Y459D02*
X1416Y459D01*
X1424Y459D02*
X1481Y459D01*
X462Y458D02*
X519Y458D01*
X529Y458D02*
X585Y458D01*
X1359Y458D02*
X1415Y458D01*
X1425Y458D02*
X1482Y458D01*
X462Y457D02*
X518Y457D01*
X530Y457D02*
X585Y457D01*
X1359Y457D02*
X1414Y457D01*
X1426Y457D02*
X1482Y457D01*
X462Y456D02*
X518Y456D01*
X530Y456D02*
X585Y456D01*
X1359Y456D02*
X1414Y456D01*
X1427Y456D02*
X1482Y456D01*
X462Y455D02*
X518Y455D01*
X531Y455D02*
X585Y455D01*
X1359Y455D02*
X1414Y455D01*
X1427Y455D02*
X1482Y455D01*
X462Y454D02*
X518Y454D01*
X531Y454D02*
X585Y454D01*
X1359Y454D02*
X1414Y454D01*
X1427Y454D02*
X1482Y454D01*
X462Y453D02*
X518Y453D01*
X531Y453D02*
X585Y453D01*
X1359Y453D02*
X1414Y453D01*
X1427Y453D02*
X1482Y453D01*
X462Y452D02*
X518Y452D01*
X530Y452D02*
X585Y452D01*
X1359Y452D02*
X1414Y452D01*
X1427Y452D02*
X1482Y452D01*
X462Y451D02*
X519Y451D01*
X530Y451D02*
X585Y451D01*
X1359Y451D02*
X1415Y451D01*
X1426Y451D02*
X1482Y451D01*
X462Y450D02*
X519Y450D01*
X529Y450D02*
X585Y450D01*
X1359Y450D02*
X1416Y450D01*
X1425Y450D02*
X1481Y450D01*
X462Y449D02*
X521Y449D01*
X528Y449D02*
X584Y449D01*
X1359Y449D02*
X1417Y449D01*
X1424Y449D02*
X1481Y449D01*
X463Y448D02*
X584Y448D01*
X1360Y448D02*
X1481Y448D01*
X463Y447D02*
X584Y447D01*
X1360Y447D02*
X1481Y447D01*
X463Y446D02*
X584Y446D01*
X1360Y446D02*
X1481Y446D01*
X463Y445D02*
X583Y445D01*
X1360Y445D02*
X1480Y445D01*
X464Y444D02*
X583Y444D01*
X1361Y444D02*
X1480Y444D01*
X464Y443D02*
X583Y443D01*
X1361Y443D02*
X1480Y443D01*
X464Y442D02*
X582Y442D01*
X1361Y442D02*
X1479Y442D01*
X465Y441D02*
X582Y441D01*
X1362Y441D02*
X1479Y441D01*
X465Y440D02*
X582Y440D01*
X1362Y440D02*
X1479Y440D01*
X466Y439D02*
X581Y439D01*
X1362Y439D02*
X1478Y439D01*
X466Y438D02*
X581Y438D01*
X1363Y438D02*
X1478Y438D01*
X466Y437D02*
X580Y437D01*
X1363Y437D02*
X1477Y437D01*
X467Y436D02*
X580Y436D01*
X1364Y436D02*
X1477Y436D01*
X468Y435D02*
X579Y435D01*
X1365Y435D02*
X1476Y435D01*
X468Y434D02*
X578Y434D01*
X1365Y434D02*
X1475Y434D01*
X469Y433D02*
X578Y433D01*
X1366Y433D02*
X1475Y433D01*
X470Y432D02*
X577Y432D01*
X1367Y432D02*
X1474Y432D01*
X470Y431D02*
X576Y431D01*
X1367Y431D02*
X1473Y431D01*
X471Y430D02*
X575Y430D01*
X1368Y430D02*
X1472Y430D01*
X472Y429D02*
X575Y429D01*
X1369Y429D02*
X1471Y429D01*
X473Y428D02*
X573Y428D01*
X1370Y428D02*
X1470Y428D01*
X474Y427D02*
X572Y427D01*
X1371Y427D02*
X1469Y427D01*
X476Y426D02*
X571Y426D01*
X1373Y426D02*
X1468Y426D01*
X477Y425D02*
X570Y425D01*
X1374Y425D02*
X1467Y425D01*
X479Y424D02*
X568Y424D01*
X1376Y424D02*
X1465Y424D01*
X480Y423D02*
X566Y423D01*
X1377Y423D02*
X1463Y423D01*
X482Y422D02*
X564Y422D01*
X1378Y422D02*
X1461Y422D01*
X485Y421D02*
X562Y421D01*
X1382Y421D02*
X1459Y421D01*
X487Y420D02*
X559Y420D01*
X1384Y420D02*
X1456Y420D01*
X491Y419D02*
X556Y419D01*
X1388Y419D02*
X1453Y419D01*
X495Y390D02*
X552Y390D01*
X1392Y390D02*
X1449Y390D01*
X489Y389D02*
X557Y389D01*
X1386Y389D02*
X1454Y389D01*
X486Y388D02*
X561Y388D01*
X1383Y388D02*
X1458Y388D01*
X484Y387D02*
X563Y387D01*
X1381Y387D02*
X1460Y387D01*
X481Y386D02*
X565Y386D01*
X1378Y386D02*
X1462Y386D01*
X480Y385D02*
X567Y385D01*
X1377Y385D02*
X1464Y385D01*
X478Y384D02*
X569Y384D01*
X1375Y384D02*
X1466Y384D01*
X476Y383D02*
X570Y383D01*
X1373Y383D02*
X1467Y383D01*
X475Y382D02*
X572Y382D01*
X1372Y382D02*
X1469Y382D01*
X474Y381D02*
X573Y381D01*
X1371Y381D02*
X1470Y381D01*
X473Y380D02*
X574Y380D01*
X1370Y380D02*
X1471Y380D01*
X472Y379D02*
X575Y379D01*
X1369Y379D02*
X1472Y379D01*
X471Y378D02*
X576Y378D01*
X1368Y378D02*
X1473Y378D01*
X470Y377D02*
X577Y377D01*
X1367Y377D02*
X1474Y377D01*
X469Y376D02*
X577Y376D01*
X1366Y376D02*
X1474Y376D01*
X469Y375D02*
X578Y375D01*
X1366Y375D02*
X1475Y375D01*
X468Y374D02*
X579Y374D01*
X1365Y374D02*
X1476Y374D01*
X467Y373D02*
X579Y373D01*
X1364Y373D02*
X1476Y373D01*
X467Y372D02*
X580Y372D01*
X1364Y372D02*
X1477Y372D01*
X466Y371D02*
X580Y371D01*
X1363Y371D02*
X1477Y371D01*
X466Y370D02*
X581Y370D01*
X1363Y370D02*
X1478Y370D01*
X465Y369D02*
X581Y369D01*
X1362Y369D02*
X1478Y369D01*
X465Y368D02*
X582Y368D01*
X1362Y368D02*
X1479Y368D01*
X464Y367D02*
X582Y367D01*
X1361Y367D02*
X1479Y367D01*
X464Y366D02*
X583Y366D01*
X1361Y366D02*
X1480Y366D01*
X464Y365D02*
X583Y365D01*
X1361Y365D02*
X1480Y365D01*
X462Y364D02*
X583Y364D01*
X1360Y364D02*
X1480Y364D01*
X462Y363D02*
X584Y363D01*
X1360Y363D02*
X1481Y363D01*
X462Y362D02*
X584Y362D01*
X1360Y362D02*
X1481Y362D01*
X462Y361D02*
X584Y361D01*
X1360Y361D02*
X1481Y361D01*
X462Y360D02*
X521Y360D01*
X527Y360D02*
X584Y360D01*
X1359Y360D02*
X1418Y360D01*
X1423Y360D02*
X1481Y360D01*
X462Y359D02*
X520Y359D01*
X529Y359D02*
X584Y359D01*
X1359Y359D02*
X1416Y359D01*
X1425Y359D02*
X1481Y359D01*
X462Y358D02*
X519Y358D01*
X530Y358D02*
X585Y358D01*
X1359Y358D02*
X1415Y358D01*
X1426Y358D02*
X1482Y358D01*
X462Y357D02*
X518Y357D01*
X530Y357D02*
X585Y357D01*
X1359Y357D02*
X1414Y357D01*
X1426Y357D02*
X1482Y357D01*
X462Y356D02*
X518Y356D01*
X531Y356D02*
X585Y356D01*
X1359Y356D02*
X1414Y356D01*
X1427Y356D02*
X1482Y356D01*
X462Y355D02*
X517Y355D01*
X531Y355D02*
X585Y355D01*
X1359Y355D02*
X1414Y355D01*
X1427Y355D02*
X1482Y355D01*
X462Y354D02*
X517Y354D01*
X531Y354D02*
X585Y354D01*
X1359Y354D02*
X1413Y354D01*
X1427Y354D02*
X1482Y354D01*
X462Y353D02*
X517Y353D01*
X531Y353D02*
X585Y353D01*
X1359Y353D02*
X1414Y353D01*
X1427Y353D02*
X1482Y353D01*
X462Y352D02*
X518Y352D01*
X530Y352D02*
X585Y352D01*
X1359Y352D02*
X1414Y352D01*
X1427Y352D02*
X1482Y352D01*
X462Y351D02*
X518Y351D01*
X530Y351D02*
X585Y351D01*
X1359Y351D02*
X1414Y351D01*
X1426Y351D02*
X1482Y351D01*
X462Y350D02*
X519Y350D01*
X529Y350D02*
X585Y350D01*
X1359Y350D02*
X1415Y350D01*
X1425Y350D02*
X1481Y350D01*
X462Y349D02*
X520Y349D01*
X528Y349D02*
X584Y349D01*
X1359Y349D02*
X1417Y349D01*
X1424Y349D02*
X1481Y349D01*
X463Y348D02*
X584Y348D01*
X1360Y348D02*
X1481Y348D01*
X463Y347D02*
X584Y347D01*
X1360Y347D02*
X1481Y347D01*
X463Y346D02*
X584Y346D01*
X1360Y346D02*
X1481Y346D01*
X463Y345D02*
X583Y345D01*
X1360Y345D02*
X1480Y345D01*
X464Y344D02*
X583Y344D01*
X1361Y344D02*
X1480Y344D01*
X464Y343D02*
X583Y343D01*
X1361Y343D02*
X1480Y343D01*
X464Y342D02*
X582Y342D01*
X1361Y342D02*
X1479Y342D01*
X465Y341D02*
X582Y341D01*
X1362Y341D02*
X1479Y341D01*
X465Y340D02*
X582Y340D01*
X1362Y340D02*
X1479Y340D01*
X465Y339D02*
X581Y339D01*
X1362Y339D02*
X1478Y339D01*
X466Y338D02*
X581Y338D01*
X1363Y338D02*
X1478Y338D01*
X466Y337D02*
X580Y337D01*
X1363Y337D02*
X1477Y337D01*
X467Y336D02*
X580Y336D01*
X1364Y336D02*
X1477Y336D01*
X468Y335D02*
X579Y335D01*
X1365Y335D02*
X1476Y335D01*
X468Y334D02*
X578Y334D01*
X1365Y334D02*
X1475Y334D01*
X469Y333D02*
X578Y333D01*
X1366Y333D02*
X1475Y333D01*
X470Y332D02*
X577Y332D01*
X1367Y332D02*
X1474Y332D01*
X470Y331D02*
X576Y331D01*
X1367Y331D02*
X1473Y331D01*
X471Y330D02*
X575Y330D01*
X1368Y330D02*
X1472Y330D01*
X472Y329D02*
X574Y329D01*
X1369Y329D02*
X1471Y329D01*
X473Y328D02*
X573Y328D01*
X1370Y328D02*
X1470Y328D01*
X474Y327D02*
X572Y327D01*
X1371Y327D02*
X1469Y327D01*
X476Y326D02*
X571Y326D01*
X1373Y326D02*
X1468Y326D01*
X477Y325D02*
X570Y325D01*
X1374Y325D02*
X1467Y325D01*
X479Y324D02*
X568Y324D01*
X1376Y324D02*
X1465Y324D01*
X480Y323D02*
X566Y323D01*
X1377Y323D02*
X1463Y323D01*
X482Y322D02*
X564Y322D01*
X1379Y322D02*
X1461Y322D01*
X485Y321D02*
X562Y321D01*
X1382Y321D02*
X1459Y321D01*
X487Y320D02*
X559Y320D01*
X1384Y320D02*
X1456Y320D01*
X491Y319D02*
X556Y319D01*
X1388Y319D02*
X1453Y319D01*
X494Y290D02*
X552Y290D01*
X1391Y290D02*
X1449Y290D01*
X489Y289D02*
X557Y289D01*
X1386Y289D02*
X1454Y289D01*
X486Y288D02*
X561Y288D01*
X1383Y288D02*
X1458Y288D01*
X484Y287D02*
X563Y287D01*
X1380Y287D02*
X1460Y287D01*
X481Y286D02*
X565Y286D01*
X1378Y286D02*
X1462Y286D01*
X480Y285D02*
X567Y285D01*
X1377Y285D02*
X1464Y285D01*
X478Y284D02*
X569Y284D01*
X1375Y284D02*
X1466Y284D01*
X476Y283D02*
X570Y283D01*
X1373Y283D02*
X1467Y283D01*
X475Y282D02*
X572Y282D01*
X1372Y282D02*
X1469Y282D01*
X474Y281D02*
X573Y281D01*
X1371Y281D02*
X1470Y281D01*
X473Y280D02*
X574Y280D01*
X1370Y280D02*
X1471Y280D01*
X472Y279D02*
X575Y279D01*
X1369Y279D02*
X1472Y279D01*
X471Y278D02*
X576Y278D01*
X1368Y278D02*
X1473Y278D01*
X470Y277D02*
X577Y277D01*
X1367Y277D02*
X1474Y277D01*
X469Y276D02*
X577Y276D01*
X1366Y276D02*
X1474Y276D01*
X469Y275D02*
X578Y275D01*
X1366Y275D02*
X1475Y275D01*
X468Y274D02*
X579Y274D01*
X1365Y274D02*
X1476Y274D01*
X467Y273D02*
X579Y273D01*
X1364Y273D02*
X1476Y273D01*
X467Y272D02*
X580Y272D01*
X1364Y272D02*
X1477Y272D01*
X466Y271D02*
X580Y271D01*
X1363Y271D02*
X1477Y271D01*
X466Y270D02*
X581Y270D01*
X1363Y270D02*
X1478Y270D01*
X465Y269D02*
X581Y269D01*
X1362Y269D02*
X1478Y269D01*
X465Y268D02*
X582Y268D01*
X1362Y268D02*
X1479Y268D01*
X464Y267D02*
X582Y267D01*
X1361Y267D02*
X1479Y267D01*
X464Y266D02*
X583Y266D01*
X1361Y266D02*
X1480Y266D01*
X464Y265D02*
X583Y265D01*
X1361Y265D02*
X1480Y265D01*
X463Y264D02*
X583Y264D01*
X1360Y264D02*
X1480Y264D01*
X463Y263D02*
X584Y263D01*
X1360Y263D02*
X1481Y263D01*
X463Y262D02*
X584Y262D01*
X1360Y262D02*
X1481Y262D01*
X463Y261D02*
X584Y261D01*
X1360Y261D02*
X1481Y261D01*
X462Y260D02*
X522Y260D01*
X527Y260D02*
X584Y260D01*
X1359Y260D02*
X1418Y260D01*
X1423Y260D02*
X1481Y260D01*
X462Y259D02*
X520Y259D01*
X528Y259D02*
X584Y259D01*
X1359Y259D02*
X1416Y259D01*
X1425Y259D02*
X1481Y259D01*
X462Y258D02*
X519Y258D01*
X530Y258D02*
X585Y258D01*
X1359Y258D02*
X1415Y258D01*
X1426Y258D02*
X1482Y258D01*
X462Y257D02*
X518Y257D01*
X530Y257D02*
X585Y257D01*
X1359Y257D02*
X1414Y257D01*
X1426Y257D02*
X1482Y257D01*
X462Y256D02*
X518Y256D01*
X531Y256D02*
X585Y256D01*
X1359Y256D02*
X1414Y256D01*
X1427Y256D02*
X1482Y256D01*
X462Y255D02*
X517Y255D01*
X531Y255D02*
X585Y255D01*
X1359Y255D02*
X1414Y255D01*
X1427Y255D02*
X1482Y255D01*
X462Y254D02*
X517Y254D01*
X531Y254D02*
X585Y254D01*
X1359Y254D02*
X1414Y254D01*
X1427Y254D02*
X1482Y254D01*
X462Y253D02*
X518Y253D01*
X531Y253D02*
X585Y253D01*
X1359Y253D02*
X1414Y253D01*
X1427Y253D02*
X1482Y253D01*
X462Y252D02*
X518Y252D01*
X530Y252D02*
X585Y252D01*
X1359Y252D02*
X1414Y252D01*
X1427Y252D02*
X1482Y252D01*
X462Y251D02*
X518Y251D01*
X530Y251D02*
X585Y251D01*
X1359Y251D02*
X1415Y251D01*
X1426Y251D02*
X1482Y251D01*
X462Y250D02*
X519Y250D01*
X529Y250D02*
X585Y250D01*
X1359Y250D02*
X1415Y250D01*
X1425Y250D02*
X1481Y250D01*
X462Y249D02*
X521Y249D01*
X528Y249D02*
X584Y249D01*
X1359Y249D02*
X1417Y249D01*
X1424Y249D02*
X1481Y249D01*
X463Y248D02*
X584Y248D01*
X1359Y248D02*
X1481Y248D01*
X463Y247D02*
X584Y247D01*
X1359Y247D02*
X1481Y247D01*
X463Y246D02*
X584Y246D01*
X1359Y246D02*
X1481Y246D01*
X463Y245D02*
X583Y245D01*
X1359Y245D02*
X1480Y245D01*
X464Y244D02*
X583Y244D01*
X1360Y244D02*
X1480Y244D01*
X464Y243D02*
X583Y243D01*
X1361Y243D02*
X1480Y243D01*
X464Y242D02*
X582Y242D01*
X1361Y242D02*
X1479Y242D01*
X465Y241D02*
X582Y241D01*
X1362Y241D02*
X1479Y241D01*
X465Y240D02*
X582Y240D01*
X1362Y240D02*
X1479Y240D01*
X466Y239D02*
X581Y239D01*
X1362Y239D02*
X1478Y239D01*
X466Y238D02*
X581Y238D01*
X1363Y238D02*
X1478Y238D01*
X466Y237D02*
X580Y237D01*
X1363Y237D02*
X1477Y237D01*
X467Y236D02*
X580Y236D01*
X1364Y236D02*
X1477Y236D01*
X468Y235D02*
X579Y235D01*
X1365Y235D02*
X1476Y235D01*
X468Y234D02*
X578Y234D01*
X1365Y234D02*
X1475Y234D01*
X469Y233D02*
X578Y233D01*
X1366Y233D02*
X1475Y233D01*
X470Y232D02*
X577Y232D01*
X1367Y232D02*
X1474Y232D01*
X470Y231D02*
X576Y231D01*
X1367Y231D02*
X1473Y231D01*
X471Y230D02*
X575Y230D01*
X1368Y230D02*
X1472Y230D01*
X472Y229D02*
X574Y229D01*
X1369Y229D02*
X1471Y229D01*
X473Y228D02*
X573Y228D01*
X1370Y228D02*
X1470Y228D01*
X474Y227D02*
X572Y227D01*
X1371Y227D02*
X1469Y227D01*
X476Y226D02*
X571Y226D01*
X1373Y226D02*
X1468Y226D01*
X477Y225D02*
X570Y225D01*
X1374Y225D02*
X1467Y225D01*
X479Y224D02*
X568Y224D01*
X1376Y224D02*
X1465Y224D01*
X480Y223D02*
X566Y223D01*
X1377Y223D02*
X1463Y223D01*
X482Y222D02*
X564Y222D01*
X1379Y222D02*
X1461Y222D01*
X485Y221D02*
X562Y221D01*
X1382Y221D02*
X1459Y221D01*
X487Y220D02*
X559Y220D01*
X1384Y220D02*
X1456Y220D01*
X491Y219D02*
X556Y219D01*
X1388Y219D02*
X1453Y219D01*
X494Y190D02*
X552Y190D01*
X1391Y190D02*
X1449Y190D01*
X489Y189D02*
X557Y189D01*
X1386Y189D02*
X1454Y189D01*
X486Y188D02*
X561Y188D01*
X1383Y188D02*
X1458Y188D01*
X483Y187D02*
X563Y187D01*
X1380Y187D02*
X1460Y187D01*
X481Y186D02*
X565Y186D01*
X1378Y186D02*
X1462Y186D01*
X480Y185D02*
X567Y185D01*
X1377Y185D02*
X1464Y185D01*
X478Y184D02*
X569Y184D01*
X1375Y184D02*
X1466Y184D01*
X476Y183D02*
X570Y183D01*
X1373Y183D02*
X1467Y183D01*
X475Y182D02*
X572Y182D01*
X1372Y182D02*
X1469Y182D01*
X474Y181D02*
X573Y181D01*
X1371Y181D02*
X1470Y181D01*
X473Y180D02*
X574Y180D01*
X1370Y180D02*
X1471Y180D01*
X472Y179D02*
X575Y179D01*
X1369Y179D02*
X1472Y179D01*
X471Y178D02*
X576Y178D01*
X1368Y178D02*
X1473Y178D01*
X470Y177D02*
X577Y177D01*
X1367Y177D02*
X1474Y177D01*
X469Y176D02*
X577Y176D01*
X1366Y176D02*
X1474Y176D01*
X469Y175D02*
X578Y175D01*
X1366Y175D02*
X1475Y175D01*
X468Y174D02*
X579Y174D01*
X1365Y174D02*
X1476Y174D01*
X467Y173D02*
X579Y173D01*
X1364Y173D02*
X1476Y173D01*
X467Y172D02*
X580Y172D01*
X1364Y172D02*
X1477Y172D01*
X466Y171D02*
X580Y171D01*
X1363Y171D02*
X1477Y171D01*
X466Y170D02*
X581Y170D01*
X1363Y170D02*
X1478Y170D01*
X465Y169D02*
X581Y169D01*
X1362Y169D02*
X1478Y169D01*
X465Y168D02*
X582Y168D01*
X1362Y168D02*
X1479Y168D01*
X464Y167D02*
X582Y167D01*
X1361Y167D02*
X1479Y167D01*
X464Y166D02*
X583Y166D01*
X1361Y166D02*
X1480Y166D01*
X464Y165D02*
X583Y165D01*
X1361Y165D02*
X1480Y165D01*
X463Y164D02*
X583Y164D01*
X1360Y164D02*
X1480Y164D01*
X462Y163D02*
X584Y163D01*
X1360Y163D02*
X1481Y163D01*
X462Y162D02*
X584Y162D01*
X1360Y162D02*
X1481Y162D01*
X462Y161D02*
X584Y161D01*
X1360Y161D02*
X1481Y161D01*
X462Y160D02*
X522Y160D01*
X527Y160D02*
X584Y160D01*
X1359Y160D02*
X1418Y160D01*
X1423Y160D02*
X1481Y160D01*
X462Y159D02*
X520Y159D01*
X528Y159D02*
X584Y159D01*
X1359Y159D02*
X1416Y159D01*
X1425Y159D02*
X1481Y159D01*
X462Y158D02*
X519Y158D01*
X529Y158D02*
X585Y158D01*
X1359Y158D02*
X1415Y158D01*
X1426Y158D02*
X1482Y158D01*
X462Y157D02*
X518Y157D01*
X530Y157D02*
X585Y157D01*
X1359Y157D02*
X1414Y157D01*
X1426Y157D02*
X1482Y157D01*
X462Y156D02*
X518Y156D01*
X531Y156D02*
X585Y156D01*
X1359Y156D02*
X1414Y156D01*
X1427Y156D02*
X1482Y156D01*
X462Y155D02*
X517Y155D01*
X531Y155D02*
X585Y155D01*
X1359Y155D02*
X1414Y155D01*
X1427Y155D02*
X1482Y155D01*
X462Y154D02*
X517Y154D01*
X531Y154D02*
X585Y154D01*
X1359Y154D02*
X1414Y154D01*
X1427Y154D02*
X1482Y154D01*
X462Y153D02*
X518Y153D01*
X531Y153D02*
X585Y153D01*
X1359Y153D02*
X1414Y153D01*
X1427Y153D02*
X1482Y153D01*
X462Y152D02*
X518Y152D01*
X530Y152D02*
X585Y152D01*
X1359Y152D02*
X1414Y152D01*
X1427Y152D02*
X1482Y152D01*
X462Y151D02*
X518Y151D01*
X530Y151D02*
X585Y151D01*
X1359Y151D02*
X1415Y151D01*
X1426Y151D02*
X1482Y151D01*
X462Y150D02*
X519Y150D01*
X529Y150D02*
X585Y150D01*
X1359Y150D02*
X1415Y150D01*
X1425Y150D02*
X1481Y150D01*
X462Y149D02*
X521Y149D01*
X528Y149D02*
X584Y149D01*
X1359Y149D02*
X1417Y149D01*
X1424Y149D02*
X1481Y149D01*
X463Y148D02*
X584Y148D01*
X1359Y148D02*
X1481Y148D01*
X463Y147D02*
X584Y147D01*
X1359Y147D02*
X1481Y147D01*
X463Y146D02*
X584Y146D01*
X1359Y146D02*
X1481Y146D01*
X463Y145D02*
X583Y145D01*
X1359Y145D02*
X1480Y145D01*
X464Y144D02*
X583Y144D01*
X1360Y144D02*
X1480Y144D01*
X464Y143D02*
X583Y143D01*
X1361Y143D02*
X1480Y143D01*
X464Y142D02*
X582Y142D01*
X1361Y142D02*
X1479Y142D01*
X465Y141D02*
X582Y141D01*
X1362Y141D02*
X1479Y141D01*
X465Y140D02*
X582Y140D01*
X1362Y140D02*
X1479Y140D01*
X465Y139D02*
X581Y139D01*
X1362Y139D02*
X1478Y139D01*
X466Y138D02*
X581Y138D01*
X1363Y138D02*
X1478Y138D01*
X466Y137D02*
X580Y137D01*
X1363Y137D02*
X1477Y137D01*
X467Y136D02*
X580Y136D01*
X1364Y136D02*
X1477Y136D01*
X468Y135D02*
X579Y135D01*
X1365Y135D02*
X1476Y135D01*
X468Y134D02*
X578Y134D01*
X1365Y134D02*
X1475Y134D01*
X469Y133D02*
X578Y133D01*
X1366Y133D02*
X1475Y133D01*
X470Y132D02*
X577Y132D01*
X1367Y132D02*
X1474Y132D01*
X470Y131D02*
X576Y131D01*
X1367Y131D02*
X1473Y131D01*
X471Y130D02*
X575Y130D01*
X1368Y130D02*
X1472Y130D01*
X472Y129D02*
X574Y129D01*
X1369Y129D02*
X1471Y129D01*
X473Y128D02*
X573Y128D01*
X1370Y128D02*
X1470Y128D01*
X474Y127D02*
X572Y127D01*
X1371Y127D02*
X1469Y127D01*
X476Y126D02*
X571Y126D01*
X1373Y126D02*
X1468Y126D01*
X477Y125D02*
X570Y125D01*
X1374Y125D02*
X1467Y125D01*
X479Y124D02*
X568Y124D01*
X1376Y124D02*
X1465Y124D01*
X480Y123D02*
X566Y123D01*
X1377Y123D02*
X1463Y123D01*
X482Y122D02*
X564Y122D01*
X1379Y122D02*
X1461Y122D01*
X485Y121D02*
X562Y121D01*
X1382Y121D02*
X1459Y121D01*
X487Y120D02*
X559Y120D01*
X1384Y120D02*
X1456Y120D01*
X491Y119D02*
X556Y119D01*
X1388Y119D02*
X1453Y119D01*
X494Y90D02*
X552Y90D01*
X1391Y90D02*
X1449Y90D01*
X489Y89D02*
X557Y89D01*
X1386Y89D02*
X1454Y89D01*
X486Y88D02*
X561Y88D01*
X1383Y88D02*
X1458Y88D01*
X483Y87D02*
X563Y87D01*
X1380Y87D02*
X1460Y87D01*
X481Y86D02*
X565Y86D01*
X1378Y86D02*
X1462Y86D01*
X480Y85D02*
X567Y85D01*
X1377Y85D02*
X1464Y85D01*
X478Y84D02*
X569Y84D01*
X1375Y84D02*
X1466Y84D01*
X476Y83D02*
X570Y83D01*
X1373Y83D02*
X1467Y83D01*
X475Y82D02*
X572Y82D01*
X1372Y82D02*
X1469Y82D01*
X474Y81D02*
X573Y81D01*
X1371Y81D02*
X1470Y81D01*
X473Y80D02*
X574Y80D01*
X1370Y80D02*
X1471Y80D01*
X472Y79D02*
X575Y79D01*
X1369Y79D02*
X1472Y79D01*
X471Y78D02*
X576Y78D01*
X1368Y78D02*
X1473Y78D01*
X470Y77D02*
X577Y77D01*
X1367Y77D02*
X1474Y77D01*
X469Y76D02*
X577Y76D01*
X1366Y76D02*
X1474Y76D01*
X469Y75D02*
X578Y75D01*
X1366Y75D02*
X1475Y75D01*
X468Y74D02*
X579Y74D01*
X1365Y74D02*
X1476Y74D01*
X467Y73D02*
X579Y73D01*
X1364Y73D02*
X1476Y73D01*
X467Y72D02*
X580Y72D01*
X1364Y72D02*
X1477Y72D01*
X466Y71D02*
X580Y71D01*
X1363Y71D02*
X1477Y71D01*
X466Y70D02*
X581Y70D01*
X1363Y70D02*
X1478Y70D01*
X465Y69D02*
X581Y69D01*
X1362Y69D02*
X1478Y69D01*
X465Y68D02*
X582Y68D01*
X1362Y68D02*
X1479Y68D01*
X464Y67D02*
X582Y67D01*
X1361Y67D02*
X1479Y67D01*
X464Y66D02*
X583Y66D01*
X1361Y66D02*
X1480Y66D01*
X464Y65D02*
X583Y65D01*
X1361Y65D02*
X1480Y65D01*
X463Y64D02*
X583Y64D01*
X1360Y64D02*
X1480Y64D01*
X463Y63D02*
X584Y63D01*
X1360Y63D02*
X1481Y63D01*
X463Y62D02*
X584Y62D01*
X1360Y62D02*
X1481Y62D01*
X463Y61D02*
X584Y61D01*
X1360Y61D02*
X1481Y61D01*
X462Y60D02*
X522Y60D01*
X527Y60D02*
X584Y60D01*
X1359Y60D02*
X1418Y60D01*
X1423Y60D02*
X1481Y60D01*
X462Y59D02*
X520Y59D01*
X529Y59D02*
X584Y59D01*
X1359Y59D02*
X1416Y59D01*
X1425Y59D02*
X1481Y59D01*
X462Y58D02*
X519Y58D01*
X530Y58D02*
X585Y58D01*
X1359Y58D02*
X1415Y58D01*
X1426Y58D02*
X1482Y58D01*
X462Y57D02*
X518Y57D01*
X530Y57D02*
X585Y57D01*
X1359Y57D02*
X1414Y57D01*
X1426Y57D02*
X1482Y57D01*
X462Y56D02*
X518Y56D01*
X531Y56D02*
X585Y56D01*
X1359Y56D02*
X1414Y56D01*
X1427Y56D02*
X1482Y56D01*
X462Y55D02*
X517Y55D01*
X531Y55D02*
X585Y55D01*
X1359Y55D02*
X1414Y55D01*
X1427Y55D02*
X1482Y55D01*
X462Y54D02*
X517Y54D01*
X531Y54D02*
X585Y54D01*
X1359Y54D02*
X1414Y54D01*
X1427Y54D02*
X1482Y54D01*
X462Y53D02*
X518Y53D01*
X531Y53D02*
X585Y53D01*
X1359Y53D02*
X1414Y53D01*
X1427Y53D02*
X1482Y53D01*
X462Y52D02*
X518Y52D01*
X530Y52D02*
X585Y52D01*
X1359Y52D02*
X1414Y52D01*
X1426Y52D02*
X1482Y52D01*
X462Y51D02*
X518Y51D01*
X530Y51D02*
X585Y51D01*
X1359Y51D02*
X1415Y51D01*
X1426Y51D02*
X1482Y51D01*
X462Y50D02*
X519Y50D01*
X529Y50D02*
X585Y50D01*
X1359Y50D02*
X1415Y50D01*
X1425Y50D02*
X1481Y50D01*
X462Y49D02*
X521Y49D01*
X528Y49D02*
X584Y49D01*
X1359Y49D02*
X1417Y49D01*
X1424Y49D02*
X1481Y49D01*
X463Y48D02*
X584Y48D01*
X1359Y48D02*
X1481Y48D01*
X463Y47D02*
X584Y47D01*
X1359Y47D02*
X1481Y47D01*
X463Y46D02*
X584Y46D01*
X1359Y46D02*
X1481Y46D01*
X463Y45D02*
X583Y45D01*
X1359Y45D02*
X1480Y45D01*
X464Y44D02*
X583Y44D01*
X1360Y44D02*
X1480Y44D01*
X464Y43D02*
X583Y43D01*
X1361Y43D02*
X1480Y43D01*
X464Y42D02*
X582Y42D01*
X1361Y42D02*
X1479Y42D01*
X465Y41D02*
X582Y41D01*
X1362Y41D02*
X1479Y41D01*
X465Y40D02*
X582Y40D01*
X1362Y40D02*
X1479Y40D01*
X466Y39D02*
X581Y39D01*
X1362Y39D02*
X1478Y39D01*
X466Y38D02*
X581Y38D01*
X1363Y38D02*
X1478Y38D01*
X466Y37D02*
X580Y37D01*
X1363Y37D02*
X1477Y37D01*
X467Y36D02*
X580Y36D01*
X1364Y36D02*
X1477Y36D01*
X468Y35D02*
X579Y35D01*
X1365Y35D02*
X1476Y35D01*
X468Y34D02*
X578Y34D01*
X1365Y34D02*
X1475Y34D01*
X469Y33D02*
X578Y33D01*
X1366Y33D02*
X1475Y33D01*
X470Y32D02*
X577Y32D01*
X1367Y32D02*
X1474Y32D01*
X470Y31D02*
X576Y31D01*
X1367Y31D02*
X1473Y31D01*
X471Y30D02*
X575Y30D01*
X1368Y30D02*
X1472Y30D01*
X472Y29D02*
X574Y29D01*
X1369Y29D02*
X1471Y29D01*
X473Y28D02*
X573Y28D01*
X1370Y28D02*
X1470Y28D01*
X474Y27D02*
X572Y27D01*
X1371Y27D02*
X1469Y27D01*
X476Y26D02*
X571Y26D01*
X1373Y26D02*
X1468Y26D01*
X477Y25D02*
X570Y25D01*
X1374Y25D02*
X1467Y25D01*
X479Y24D02*
X568Y24D01*
X1376Y24D02*
X1465Y24D01*
X480Y23D02*
X566Y23D01*
X1377Y23D02*
X1463Y23D01*
X482Y22D02*
X564Y22D01*
X1379Y22D02*
X1461Y22D01*
X485Y21D02*
X562Y21D01*
X1382Y21D02*
X1459Y21D01*
X487Y20D02*
X559Y20D01*
X1384Y20D02*
X1456Y20D01*
X491Y19D02*
X556Y19D01*
X1388Y19D02*
X1452Y19D01*
D02*
G04 End of Mask0*
M02*