G04 MADE WITH FRITZING*
G04 WWW.FRITZING.ORG*
G04 DOUBLE SIDED*
G04 HOLES PLATED*
G04 CONTOUR ON CENTER OF CONTOUR VECTOR*
%ASAXBY*%
%FSLAX23Y23*%
%MOIN*%
%OFA0B0*%
%SFA1.0B1.0*%
%ADD10C,0.078000*%
%ADD11C,0.015748*%
%ADD12C,0.039370*%
%ADD13C,0.052000*%
%ADD14C,0.078639*%
%ADD15C,0.158908*%
%ADD16C,0.065278*%
%ADD17R,0.069685X0.057874*%
%ADD18R,0.013780X0.055118*%
%ADD19R,0.070866X0.074803*%
%ADD20C,0.012000*%
%ADD21C,0.024000*%
%ADD22C,0.016000*%
%ADD23R,0.001000X0.001000*%
%LNCOPPER1*%
G90*
G70*
G54D10*
X596Y2979D03*
X796Y2979D03*
X797Y2385D03*
X697Y2385D03*
X597Y2385D03*
X1421Y2979D03*
X1621Y2979D03*
X1622Y2385D03*
X1522Y2385D03*
X1422Y2385D03*
G54D11*
X722Y2778D03*
X1097Y2778D03*
X797Y1954D03*
X646Y2079D03*
X696Y1978D03*
X746Y1878D03*
X1146Y1478D03*
X1122Y1553D03*
X1122Y1655D03*
X1122Y1754D03*
X1122Y1853D03*
X1646Y628D03*
X1547Y604D03*
X1646Y254D03*
X1547Y254D03*
X1672Y353D03*
X1547Y353D03*
X1672Y454D03*
X1547Y454D03*
X1547Y554D03*
X1672Y554D03*
X1321Y653D03*
X1271Y679D03*
X1321Y753D03*
X1246Y779D03*
X1321Y854D03*
X1222Y878D03*
X1321Y954D03*
X1196Y978D03*
X1321Y1054D03*
X1172Y1079D03*
X1521Y1103D03*
X1521Y1404D03*
X821Y3054D03*
X997Y3054D03*
X821Y1829D03*
X822Y1879D03*
X1472Y2278D03*
X1597Y2279D03*
X1046Y2079D03*
X1071Y2129D03*
X1096Y2079D03*
X1021Y1929D03*
X1046Y1879D03*
X1071Y1929D03*
X1072Y2304D03*
X847Y2328D03*
X372Y2153D03*
X522Y2203D03*
G54D10*
X296Y704D03*
X296Y804D03*
X296Y904D03*
X296Y1004D03*
X296Y1104D03*
X296Y1204D03*
X296Y1304D03*
X296Y1404D03*
X296Y1504D03*
X296Y1604D03*
X296Y1704D03*
X296Y1804D03*
X296Y1904D03*
X296Y2004D03*
X296Y2104D03*
X296Y2204D03*
X296Y2304D03*
X296Y2404D03*
X296Y2504D03*
X296Y2604D03*
X296Y2704D03*
X296Y2804D03*
X296Y2904D03*
X296Y3004D03*
X296Y3104D03*
X296Y3204D03*
G54D12*
X1947Y2754D03*
X1948Y2652D03*
X2695Y2652D03*
X2695Y2754D03*
X3447Y2654D03*
X3447Y2754D03*
X1946Y1903D03*
X2697Y1903D03*
X3446Y1903D03*
X3446Y2005D03*
X2697Y2005D03*
X1946Y2005D03*
X3448Y1254D03*
X3448Y1153D03*
X2695Y1254D03*
X2695Y1153D03*
X1946Y1254D03*
X1946Y1153D03*
X2822Y1479D03*
X3572Y1479D03*
G54D13*
X521Y2054D03*
X521Y1954D03*
X521Y1854D03*
X521Y1754D03*
X521Y1654D03*
X521Y1554D03*
X521Y1454D03*
X521Y1354D03*
X521Y1254D03*
X521Y1154D03*
X521Y1054D03*
X521Y954D03*
X521Y854D03*
X521Y754D03*
X521Y654D03*
X521Y554D03*
X521Y454D03*
X521Y354D03*
X521Y254D03*
X521Y154D03*
X521Y54D03*
X1421Y54D03*
X1421Y154D03*
X1421Y254D03*
X1421Y354D03*
X1421Y454D03*
X1421Y554D03*
X1421Y654D03*
X1421Y754D03*
X1421Y854D03*
X1421Y954D03*
X1421Y1054D03*
X1421Y1154D03*
X1421Y1254D03*
X1421Y1354D03*
X1421Y1454D03*
X1421Y1554D03*
X1421Y1654D03*
X1421Y1754D03*
X1421Y1854D03*
X1421Y1954D03*
X1421Y2054D03*
G54D14*
X2121Y2704D03*
X2371Y2804D03*
G54D15*
X2271Y2604D03*
G54D16*
X2071Y2604D03*
X2471Y2604D03*
G54D14*
X2871Y2704D03*
X3121Y2804D03*
G54D15*
X3021Y2604D03*
G54D16*
X2821Y2604D03*
X3221Y2604D03*
G54D14*
X3621Y2704D03*
X3871Y2804D03*
G54D15*
X3771Y2604D03*
G54D16*
X3571Y2604D03*
X3971Y2604D03*
G54D14*
X2121Y1954D03*
X2371Y2054D03*
G54D15*
X2271Y1854D03*
G54D16*
X2071Y1854D03*
X2471Y1854D03*
G54D14*
X2871Y1954D03*
X3121Y2054D03*
G54D15*
X3021Y1854D03*
G54D16*
X2821Y1854D03*
X3221Y1854D03*
G54D14*
X3621Y1954D03*
X3871Y2054D03*
G54D15*
X3771Y1854D03*
G54D16*
X3571Y1854D03*
X3971Y1854D03*
G54D14*
X2121Y1204D03*
X2371Y1304D03*
G54D15*
X2271Y1104D03*
G54D16*
X2071Y1104D03*
X2471Y1104D03*
G54D14*
X2871Y1204D03*
X3121Y1304D03*
G54D15*
X3021Y1104D03*
G54D16*
X2821Y1104D03*
X3221Y1104D03*
G54D14*
X3621Y1204D03*
X3871Y1304D03*
G54D15*
X3771Y1104D03*
G54D16*
X3571Y1104D03*
X3971Y1104D03*
G54D14*
X2121Y454D03*
X2371Y554D03*
G54D15*
X2271Y354D03*
G54D16*
X2071Y354D03*
X2471Y354D03*
G54D14*
X2871Y454D03*
X3121Y554D03*
G54D15*
X3021Y354D03*
G54D16*
X2821Y354D03*
X3221Y354D03*
G54D14*
X3621Y454D03*
X3871Y554D03*
G54D15*
X3771Y354D03*
G54D16*
X3571Y354D03*
X3971Y354D03*
G54D12*
X996Y2054D03*
X846Y2054D03*
X971Y1879D03*
X1871Y1403D03*
G54D17*
X3860Y729D03*
X3671Y729D03*
X3110Y729D03*
X2921Y729D03*
X2360Y729D03*
X2171Y729D03*
X3860Y1479D03*
X3671Y1479D03*
X3110Y1479D03*
X2921Y1479D03*
X2360Y1479D03*
X2171Y1479D03*
X3860Y2229D03*
X3671Y2229D03*
X3110Y2229D03*
X2921Y2229D03*
X2360Y2229D03*
X2171Y2229D03*
X3835Y2979D03*
X3646Y2979D03*
X3110Y2979D03*
X2921Y2979D03*
X2360Y2979D03*
X2171Y2979D03*
G54D18*
X947Y3129D03*
X845Y3129D03*
X921Y3129D03*
X896Y3129D03*
X870Y3129D03*
G54D19*
X1053Y3233D03*
X738Y3233D03*
G54D20*
X1647Y2554D02*
X1647Y2803D01*
D02*
X1647Y2078D02*
X1746Y2078D01*
D02*
X1746Y2078D02*
X1771Y2103D01*
D02*
X1771Y2103D02*
X1771Y2504D01*
D02*
X1771Y2504D02*
X1746Y2529D01*
D02*
X1746Y2529D02*
X1672Y2529D01*
D02*
X1672Y2529D02*
X1647Y2554D01*
D02*
X1647Y2803D02*
X1621Y2828D01*
D02*
X1621Y2828D02*
X1448Y2828D01*
D02*
X1448Y2828D02*
X1422Y2853D01*
D02*
X1422Y2853D02*
X1422Y2960D01*
D02*
X1622Y653D02*
X1622Y2054D01*
D02*
X1622Y2054D02*
X1647Y2078D01*
D02*
X1641Y634D02*
X1622Y653D01*
D02*
X1121Y2504D02*
X1122Y2753D01*
D02*
X1147Y2478D02*
X1121Y2503D01*
D02*
X1122Y2753D02*
X1103Y2772D01*
D02*
X1496Y2479D02*
X1147Y2478D01*
D02*
X1522Y2453D02*
X1496Y2479D01*
D02*
X716Y2772D02*
X697Y2753D01*
D02*
X697Y2753D02*
X697Y2404D01*
D02*
X1522Y2404D02*
X1522Y2453D01*
D02*
X1522Y2054D02*
X1547Y2078D01*
D02*
X1547Y2078D02*
X1548Y2278D01*
D02*
X1548Y2278D02*
X1522Y2304D01*
D02*
X1522Y2304D02*
X1522Y2366D01*
D02*
X1440Y2054D02*
X1522Y2054D01*
D02*
X147Y3004D02*
X121Y2979D01*
D02*
X277Y3004D02*
X147Y3004D01*
D02*
X172Y179D02*
X221Y179D01*
D02*
X221Y179D02*
X247Y153D01*
D02*
X247Y153D02*
X502Y154D01*
D02*
X121Y2979D02*
X121Y228D01*
D02*
X121Y228D02*
X172Y179D01*
D02*
X315Y1304D02*
X347Y1304D01*
D02*
X315Y1404D02*
X346Y1404D01*
D02*
X315Y1504D02*
X347Y1504D01*
D02*
X346Y1604D02*
X372Y1629D01*
D02*
X397Y1579D02*
X421Y1579D01*
D02*
X397Y1679D02*
X421Y1679D01*
D02*
X372Y1654D02*
X397Y1679D01*
D02*
X372Y1629D02*
X372Y1654D01*
D02*
X372Y1554D02*
X397Y1579D01*
D02*
X372Y1529D02*
X372Y1554D01*
D02*
X315Y1604D02*
X346Y1604D01*
D02*
X347Y1504D02*
X372Y1529D01*
D02*
X346Y1404D02*
X372Y1429D01*
D02*
X372Y1429D02*
X372Y1454D01*
D02*
X372Y1454D02*
X397Y1479D01*
D02*
X397Y1479D02*
X421Y1478D01*
D02*
X397Y1379D02*
X421Y1378D01*
D02*
X372Y1354D02*
X397Y1379D01*
D02*
X372Y1329D02*
X372Y1354D01*
D02*
X347Y1304D02*
X372Y1329D01*
D02*
X421Y1378D02*
X447Y1404D01*
D02*
X447Y1404D02*
X447Y1428D01*
D02*
X447Y1428D02*
X471Y1454D01*
D02*
X471Y1454D02*
X502Y1454D01*
D02*
X421Y1478D02*
X447Y1504D01*
D02*
X447Y1504D02*
X447Y1529D01*
D02*
X447Y1529D02*
X471Y1554D01*
D02*
X471Y1554D02*
X502Y1554D01*
D02*
X421Y1579D02*
X447Y1604D01*
D02*
X447Y1604D02*
X447Y1629D01*
D02*
X447Y1629D02*
X471Y1653D01*
D02*
X471Y1653D02*
X502Y1654D01*
D02*
X421Y1679D02*
X447Y1703D01*
D02*
X447Y1703D02*
X447Y1729D01*
D02*
X447Y1729D02*
X471Y1753D01*
D02*
X471Y1753D02*
X502Y1754D01*
D02*
X315Y904D02*
X346Y903D01*
D02*
X315Y1004D02*
X371Y1003D01*
D02*
X422Y554D02*
X502Y554D01*
D02*
X396Y579D02*
X422Y554D01*
D02*
X396Y454D02*
X502Y454D01*
D02*
X371Y479D02*
X396Y454D01*
D02*
X371Y878D02*
X371Y479D01*
D02*
X346Y903D02*
X371Y878D01*
D02*
X396Y979D02*
X396Y579D01*
D02*
X371Y1003D02*
X396Y979D01*
D02*
X372Y2161D02*
X372Y2203D01*
D02*
X372Y2203D02*
X396Y2229D01*
D02*
X396Y2229D02*
X496Y2229D01*
D02*
X1005Y3054D02*
X1196Y3054D01*
D02*
X596Y229D02*
X596Y629D01*
D02*
X596Y629D02*
X571Y653D01*
D02*
X571Y653D02*
X540Y654D01*
D02*
X622Y205D02*
X596Y229D01*
D02*
X1571Y204D02*
X622Y205D01*
D02*
X1596Y2079D02*
X1596Y229D01*
D02*
X1621Y2104D02*
X1596Y2079D01*
D02*
X1746Y2129D02*
X1721Y2104D01*
D02*
X1721Y2104D02*
X1621Y2104D01*
D02*
X1746Y2479D02*
X1746Y2129D01*
D02*
X1721Y2504D02*
X1746Y2479D01*
D02*
X1646Y2504D02*
X1721Y2504D01*
D02*
X1621Y2529D02*
X1646Y2504D01*
D02*
X1596Y229D02*
X1571Y204D01*
D02*
X1621Y2780D02*
X1621Y2529D01*
D02*
X1596Y2803D02*
X1621Y2780D01*
D02*
X1247Y2803D02*
X1596Y2803D01*
D02*
X1222Y2828D02*
X1247Y2803D01*
D02*
X1221Y3028D02*
X1222Y2828D01*
D02*
X1196Y3054D02*
X1221Y3028D01*
D02*
X496Y2229D02*
X516Y2209D01*
D02*
X789Y1954D02*
X540Y1954D01*
D02*
X722Y1904D02*
X740Y1884D01*
D02*
X672Y2004D02*
X690Y1984D01*
D02*
X622Y2104D02*
X640Y2085D01*
D02*
X315Y1904D02*
X722Y1904D01*
D02*
X315Y2004D02*
X672Y2004D01*
D02*
X315Y2104D02*
X622Y2104D01*
D02*
X1129Y1754D02*
X1402Y1754D01*
D02*
X1129Y1655D02*
X1402Y1654D01*
D02*
X1129Y1553D02*
X1402Y1554D01*
D02*
X1321Y1454D02*
X1402Y1454D01*
D02*
X1152Y1473D02*
X1172Y1454D01*
D02*
X1172Y1454D02*
X1321Y1454D01*
D02*
X1129Y1854D02*
X1402Y1854D01*
D02*
X1277Y673D02*
X1297Y653D01*
D02*
X1251Y773D02*
X1271Y753D01*
D02*
X1227Y873D02*
X1246Y854D01*
D02*
X1202Y973D02*
X1222Y954D01*
D02*
X1177Y1074D02*
X1196Y1054D01*
D02*
X1297Y653D02*
X1313Y653D01*
D02*
X1271Y753D02*
X1313Y753D01*
D02*
X1246Y854D02*
X1313Y854D01*
D02*
X1222Y954D02*
X1313Y954D01*
D02*
X771Y1029D02*
X746Y1004D01*
D02*
X771Y1054D02*
X771Y1029D01*
D02*
X796Y1078D02*
X771Y1054D01*
D02*
X871Y1078D02*
X796Y1078D01*
D02*
X896Y1103D02*
X871Y1078D01*
D02*
X896Y1454D02*
X896Y1103D01*
D02*
X921Y1479D02*
X896Y1454D01*
D02*
X746Y1004D02*
X672Y1004D01*
D02*
X672Y1004D02*
X647Y979D01*
D02*
X647Y979D02*
X647Y929D01*
D02*
X647Y929D02*
X622Y904D01*
D02*
X622Y904D02*
X622Y879D01*
D02*
X622Y879D02*
X597Y854D01*
D02*
X597Y854D02*
X540Y854D01*
D02*
X996Y1529D02*
X871Y1529D01*
D02*
X871Y1529D02*
X846Y1504D01*
D02*
X846Y1504D02*
X846Y1153D01*
D02*
X846Y1153D02*
X821Y1128D01*
D02*
X821Y1128D02*
X746Y1128D01*
D02*
X746Y1128D02*
X722Y1103D01*
D02*
X722Y1103D02*
X722Y1078D01*
D02*
X722Y1078D02*
X697Y1054D01*
D02*
X1046Y2279D02*
X1046Y2087D01*
D02*
X1071Y1921D02*
X1072Y1504D01*
D02*
X1021Y1921D02*
X1022Y1554D01*
D02*
X1464Y2278D02*
X1147Y2279D01*
D02*
X822Y1904D02*
X822Y1887D01*
D02*
X847Y1928D02*
X822Y1904D01*
D02*
X847Y1978D02*
X847Y1928D01*
D02*
X822Y2004D02*
X847Y1978D01*
D02*
X796Y2004D02*
X822Y2004D01*
D02*
X771Y2029D02*
X796Y2004D01*
D02*
X771Y2253D02*
X771Y2029D01*
D02*
X746Y2278D02*
X771Y2253D01*
D02*
X621Y2278D02*
X746Y2278D01*
D02*
X597Y2303D02*
X621Y2278D01*
D02*
X1072Y1504D02*
X1047Y1479D01*
D02*
X1022Y1554D02*
X996Y1529D01*
D02*
X697Y1054D02*
X540Y1054D01*
D02*
X1066Y2298D02*
X1046Y2279D01*
D02*
X1047Y1479D02*
X921Y1479D01*
D02*
X1071Y2253D02*
X1071Y2137D01*
D02*
X1097Y2229D02*
X1096Y2087D01*
D02*
X1121Y2303D02*
X1071Y2253D01*
D02*
X1396Y2303D02*
X1121Y2303D01*
D02*
X1422Y2329D02*
X1396Y2303D01*
D02*
X1147Y2279D02*
X1097Y2229D01*
D02*
X597Y2366D02*
X597Y2303D01*
D02*
X1422Y2366D02*
X1422Y2329D01*
D02*
X1521Y1396D02*
X1521Y1111D01*
D02*
X1196Y1054D02*
X1313Y1054D01*
D02*
X1196Y379D02*
X696Y379D01*
D02*
X696Y379D02*
X672Y403D01*
D02*
X672Y403D02*
X672Y729D01*
D02*
X672Y729D02*
X647Y754D01*
D02*
X647Y754D02*
X540Y754D01*
D02*
X1220Y403D02*
X1196Y379D01*
D02*
X1222Y578D02*
X1220Y403D01*
D02*
X1245Y604D02*
X1222Y578D01*
D02*
X1539Y604D02*
X1245Y604D01*
D02*
X597Y954D02*
X622Y979D01*
D02*
X622Y979D02*
X622Y1004D01*
D02*
X622Y1004D02*
X647Y1029D01*
D02*
X647Y1029D02*
X722Y1029D01*
D02*
X722Y1029D02*
X746Y1054D01*
D02*
X746Y1054D02*
X746Y1078D01*
D02*
X746Y1078D02*
X771Y1103D01*
D02*
X771Y1103D02*
X846Y1103D01*
D02*
X846Y1103D02*
X871Y1128D01*
D02*
X871Y1128D02*
X871Y1479D01*
D02*
X871Y1479D02*
X896Y1504D01*
D02*
X896Y1504D02*
X1022Y1504D01*
D02*
X1022Y1504D02*
X1047Y1529D01*
D02*
X796Y2354D02*
X796Y2366D01*
D02*
X822Y2328D02*
X796Y2354D01*
G54D21*
D02*
X1622Y2303D02*
X1622Y2366D01*
D02*
X1602Y2284D02*
X1622Y2303D01*
G54D20*
D02*
X839Y2328D02*
X822Y2328D01*
D02*
X821Y1178D02*
X821Y1821D01*
D02*
X796Y1154D02*
X821Y1178D01*
D02*
X540Y1154D02*
X796Y1154D01*
D02*
X1047Y1529D02*
X1046Y1871D01*
D02*
X540Y954D02*
X597Y954D01*
D02*
X422Y3103D02*
X445Y3078D01*
D02*
X473Y2980D02*
X577Y2979D01*
D02*
X445Y3005D02*
X473Y2980D01*
D02*
X445Y3078D02*
X445Y3005D01*
D02*
X315Y3104D02*
X422Y3103D01*
D02*
X315Y1204D02*
X346Y1203D01*
D02*
X397Y1279D02*
X422Y1278D01*
D02*
X372Y1254D02*
X397Y1279D01*
D02*
X372Y1229D02*
X372Y1254D01*
D02*
X346Y1203D02*
X372Y1229D01*
D02*
X422Y1278D02*
X447Y1304D01*
D02*
X447Y1304D02*
X447Y1329D01*
D02*
X447Y1329D02*
X471Y1354D01*
D02*
X315Y1104D02*
X346Y1104D01*
D02*
X397Y1179D02*
X422Y1179D01*
D02*
X372Y1154D02*
X397Y1179D01*
D02*
X372Y1129D02*
X372Y1154D01*
D02*
X346Y1104D02*
X372Y1129D01*
D02*
X422Y1179D02*
X447Y1204D01*
D02*
X447Y1204D02*
X447Y1229D01*
D02*
X447Y1229D02*
X471Y1253D01*
D02*
X471Y1253D02*
X502Y1254D01*
D02*
X471Y1354D02*
X502Y1354D01*
G54D21*
D02*
X1947Y2878D02*
X1995Y2929D01*
D02*
X1995Y2929D02*
X2070Y2929D01*
D02*
X2070Y2929D02*
X2121Y2978D01*
D02*
X2121Y2978D02*
X2142Y2978D01*
D02*
X1947Y2762D02*
X1947Y2878D01*
D02*
X2362Y2955D02*
X2370Y2822D01*
D02*
X3867Y2822D02*
X3840Y2955D01*
D02*
X3112Y2955D02*
X3120Y2822D01*
D02*
X2696Y2878D02*
X2695Y2762D01*
D02*
X2746Y2928D02*
X2696Y2878D01*
D02*
X2822Y2928D02*
X2746Y2928D01*
D02*
X2892Y2979D02*
X2870Y2979D01*
D02*
X2870Y2979D02*
X2822Y2928D01*
D02*
X2870Y2278D02*
X2746Y2278D01*
D02*
X2746Y2278D02*
X2696Y2328D01*
D02*
X2696Y2328D02*
X2695Y2645D01*
D02*
X2897Y2252D02*
X2870Y2278D01*
D02*
X2122Y2278D02*
X2148Y2252D01*
D02*
X1997Y2278D02*
X2122Y2278D01*
D02*
X1947Y2328D02*
X1997Y2278D01*
D02*
X1948Y2644D02*
X1947Y2328D01*
D02*
X2362Y1455D02*
X2370Y1322D01*
D02*
X3112Y1455D02*
X3120Y1322D01*
D02*
X3862Y1455D02*
X3870Y1322D01*
D02*
X2362Y2205D02*
X2370Y2072D01*
D02*
X3112Y2205D02*
X3120Y2072D01*
D02*
X3862Y2205D02*
X3870Y2072D01*
D02*
X3597Y2979D02*
X3617Y2979D01*
D02*
X3546Y2929D02*
X3597Y2979D01*
D02*
X3497Y2929D02*
X3546Y2929D01*
D02*
X3446Y2879D02*
X3497Y2929D01*
D02*
X3621Y2278D02*
X3497Y2278D01*
D02*
X3497Y2278D02*
X3446Y2329D01*
D02*
X3648Y2252D02*
X3621Y2278D01*
D02*
X3446Y2329D02*
X3447Y2646D01*
D02*
X3447Y2762D02*
X3446Y2879D01*
D02*
X2722Y1429D02*
X2696Y1404D01*
D02*
X2696Y1404D02*
X2695Y1262D01*
D02*
X2872Y1429D02*
X2722Y1429D01*
D02*
X2122Y779D02*
X1972Y779D01*
D02*
X1972Y779D02*
X1946Y804D01*
D02*
X1946Y804D02*
X1946Y1145D01*
D02*
X1946Y1404D02*
X1946Y1262D01*
D02*
X1972Y1429D02*
X1946Y1404D01*
D02*
X2122Y1429D02*
X1972Y1429D01*
D02*
X2898Y1455D02*
X2872Y1429D01*
D02*
X2171Y729D02*
X2172Y729D01*
D02*
X2172Y729D02*
X2122Y779D01*
D02*
X2148Y1455D02*
X2122Y1429D01*
G54D22*
D02*
X1897Y1479D02*
X2142Y1479D01*
D02*
X1871Y1453D02*
X1897Y1479D01*
D02*
X1871Y1411D02*
X1871Y1453D01*
D02*
X2830Y1479D02*
X2892Y1479D01*
D02*
X3580Y1479D02*
X3642Y1479D01*
G54D21*
D02*
X3621Y779D02*
X3472Y779D01*
D02*
X3472Y779D02*
X3447Y804D01*
D02*
X3447Y804D02*
X3448Y1145D01*
D02*
X3447Y1404D02*
X3472Y1429D01*
D02*
X3472Y1429D02*
X3621Y1429D01*
D02*
X3621Y1429D02*
X3647Y1455D01*
D02*
X2722Y779D02*
X2696Y804D01*
D02*
X2872Y779D02*
X2722Y779D01*
D02*
X2122Y1529D02*
X2148Y1502D01*
D02*
X1972Y1529D02*
X2122Y1529D01*
D02*
X1946Y1554D02*
X1972Y1529D01*
D02*
X1946Y2154D02*
X1972Y2179D01*
D02*
X1972Y2179D02*
X2122Y2179D01*
D02*
X2122Y2179D02*
X2148Y2205D01*
D02*
X1946Y1895D02*
X1946Y1554D01*
D02*
X1946Y2012D02*
X1946Y2154D01*
D02*
X3448Y1262D02*
X3447Y1404D01*
D02*
X3648Y752D02*
X3621Y779D01*
D02*
X2898Y752D02*
X2872Y779D01*
D02*
X2696Y804D02*
X2695Y1145D01*
D02*
X3621Y1529D02*
X3648Y1502D01*
D02*
X3472Y1529D02*
X3621Y1529D01*
D02*
X3447Y1554D02*
X3472Y1529D01*
D02*
X2872Y1529D02*
X2898Y1502D01*
D02*
X2722Y1529D02*
X2872Y1529D01*
D02*
X2696Y1554D02*
X2722Y1529D01*
D02*
X2696Y2154D02*
X2697Y2012D01*
D02*
X2722Y2179D02*
X2696Y2154D01*
D02*
X2872Y2179D02*
X2722Y2179D01*
D02*
X3472Y2179D02*
X3446Y2154D01*
D02*
X3620Y2179D02*
X3472Y2179D01*
D02*
X3648Y2205D02*
X3620Y2179D01*
D02*
X3446Y2154D02*
X3446Y2012D01*
D02*
X3446Y1895D02*
X3447Y1554D01*
D02*
X2697Y1895D02*
X2696Y1554D01*
D02*
X2898Y2205D02*
X2872Y2179D01*
D02*
X3870Y572D02*
X3862Y705D01*
D02*
X2370Y572D02*
X2362Y705D01*
D02*
X3120Y572D02*
X3112Y705D01*
G54D22*
D02*
X1539Y254D02*
X1440Y254D01*
D02*
X1895Y253D02*
X1654Y254D01*
D02*
X1921Y428D02*
X1921Y279D01*
D02*
X1746Y2002D02*
X1723Y1980D01*
D02*
X1723Y1980D02*
X1720Y579D01*
D02*
X1871Y2679D02*
X1871Y2028D01*
D02*
X1871Y2028D02*
X1847Y2004D01*
D02*
X1847Y2004D02*
X1746Y2002D01*
D02*
X1720Y579D02*
X1696Y554D01*
D02*
X1539Y554D02*
X1440Y554D01*
D02*
X1696Y554D02*
X1680Y554D01*
D02*
X1539Y454D02*
X1440Y454D01*
D02*
X1747Y453D02*
X1680Y454D01*
D02*
X1772Y478D02*
X1747Y453D01*
D02*
X1772Y1930D02*
X1772Y478D01*
D02*
X1870Y1177D02*
X1870Y380D01*
D02*
X1870Y380D02*
X1848Y355D01*
D02*
X1539Y353D02*
X1440Y354D01*
D02*
X1848Y355D02*
X1680Y353D01*
D02*
X1946Y453D02*
X1921Y428D01*
D02*
X1921Y279D02*
X1895Y253D01*
D02*
X1895Y1203D02*
X1870Y1177D01*
D02*
X1797Y1952D02*
X1772Y1930D01*
D02*
X1897Y2703D02*
X1871Y2679D01*
D02*
X2103Y2704D02*
X1897Y2703D01*
D02*
X2103Y1954D02*
X1797Y1952D01*
D02*
X2103Y1204D02*
X1895Y1203D01*
D02*
X2103Y454D02*
X1946Y453D01*
D02*
X3322Y1954D02*
X3603Y1954D01*
D02*
X3297Y1979D02*
X3322Y1954D01*
D02*
X2972Y1979D02*
X3297Y1979D01*
D02*
X2946Y1954D02*
X2972Y1979D01*
D02*
X2890Y1954D02*
X2946Y1954D01*
D02*
X3322Y1204D02*
X3603Y1204D01*
D02*
X3297Y1228D02*
X3322Y1204D01*
D02*
X2972Y1228D02*
X3297Y1228D01*
D02*
X2946Y1204D02*
X2972Y1228D01*
D02*
X2890Y1204D02*
X2946Y1204D01*
D02*
X2571Y1204D02*
X2853Y1204D01*
D02*
X2547Y1228D02*
X2571Y1204D01*
D02*
X2222Y1228D02*
X2547Y1228D01*
D02*
X2197Y1204D02*
X2222Y1228D01*
D02*
X2140Y1204D02*
X2197Y1204D01*
D02*
X3322Y453D02*
X3603Y454D01*
D02*
X3297Y478D02*
X3322Y453D01*
D02*
X2972Y478D02*
X3297Y478D01*
D02*
X2946Y453D02*
X2972Y478D01*
D02*
X2890Y454D02*
X2946Y453D01*
D02*
X2571Y453D02*
X2853Y454D01*
D02*
X2547Y478D02*
X2571Y453D01*
D02*
X2222Y478D02*
X2547Y478D01*
D02*
X2197Y453D02*
X2222Y478D01*
D02*
X2140Y454D02*
X2197Y453D01*
D02*
X2890Y2704D02*
X3603Y2704D01*
D02*
X2140Y2704D02*
X2853Y2704D01*
D02*
X2571Y1954D02*
X2853Y1954D01*
D02*
X2547Y1979D02*
X2571Y1954D01*
D02*
X2222Y1979D02*
X2547Y1979D01*
D02*
X2197Y1954D02*
X2222Y1979D01*
D02*
X2140Y1954D02*
X2197Y1954D01*
G54D20*
D02*
X1402Y2054D02*
X1004Y2054D01*
D02*
X871Y2779D02*
X871Y3053D01*
D02*
X822Y2754D02*
X871Y2779D01*
D02*
X871Y2529D02*
X822Y2578D01*
D02*
X822Y2578D02*
X822Y2754D01*
D02*
X847Y3080D02*
X846Y3107D01*
D02*
X871Y3053D02*
X847Y3080D01*
D02*
X821Y2079D02*
X821Y2204D01*
D02*
X841Y2059D02*
X821Y2079D01*
D02*
X896Y2554D02*
X847Y2603D01*
D02*
X847Y2729D02*
X897Y2754D01*
D02*
X847Y2603D02*
X847Y2729D01*
D02*
X897Y2754D02*
X896Y3107D01*
D02*
X897Y1879D02*
X896Y2204D01*
D02*
X872Y1854D02*
X897Y1879D01*
D02*
X540Y1854D02*
X872Y1854D01*
D02*
X1021Y2604D02*
X1021Y2753D01*
D02*
X1021Y2753D02*
X996Y2778D01*
D02*
X947Y2778D02*
X921Y2804D01*
D02*
X996Y2578D02*
X1021Y2604D01*
D02*
X921Y2804D02*
X921Y3107D01*
D02*
X996Y2778D02*
X947Y2778D01*
D02*
X922Y2155D02*
X946Y2178D01*
D02*
X922Y1929D02*
X922Y2155D01*
D02*
X946Y2178D02*
X972Y2180D01*
D02*
X996Y2204D02*
X996Y2578D01*
D02*
X972Y2180D02*
X996Y2204D01*
D02*
X966Y1884D02*
X922Y1929D01*
D02*
X996Y2153D02*
X1021Y2180D01*
D02*
X972Y2155D02*
X996Y2153D01*
D02*
X1021Y2180D02*
X1021Y2553D01*
D02*
X1047Y2578D02*
X1047Y2778D01*
D02*
X1021Y2553D02*
X1047Y2578D01*
D02*
X946Y1953D02*
X946Y2129D01*
D02*
X947Y2829D02*
X947Y3107D01*
D02*
X1047Y2778D02*
X1021Y2804D01*
D02*
X946Y2129D02*
X972Y2155D01*
D02*
X972Y2804D02*
X947Y2829D01*
D02*
X1021Y2804D02*
X972Y2804D01*
D02*
X1402Y1954D02*
X946Y1953D01*
D02*
X896Y2204D02*
X896Y2229D01*
D02*
X896Y2229D02*
X896Y2554D01*
D02*
X871Y2253D02*
X871Y2529D01*
D02*
X821Y2204D02*
X871Y2253D01*
D02*
X796Y3029D02*
X815Y3048D01*
D02*
X796Y2998D02*
X796Y3029D01*
G54D23*
X496Y2080D02*
X551Y2080D01*
X1392Y2080D02*
X1448Y2080D01*
X490Y2079D02*
X556Y2079D01*
X1387Y2079D02*
X1453Y2079D01*
X488Y2078D02*
X559Y2078D01*
X1385Y2078D02*
X1456Y2078D01*
X486Y2077D02*
X561Y2077D01*
X1383Y2077D02*
X1458Y2077D01*
X484Y2076D02*
X563Y2076D01*
X1381Y2076D02*
X1460Y2076D01*
X483Y2075D02*
X564Y2075D01*
X1379Y2075D02*
X1461Y2075D01*
X481Y2074D02*
X565Y2074D01*
X1378Y2074D02*
X1462Y2074D01*
X480Y2073D02*
X567Y2073D01*
X1377Y2073D02*
X1464Y2073D01*
X479Y2072D02*
X568Y2072D01*
X1376Y2072D02*
X1465Y2072D01*
X478Y2071D02*
X569Y2071D01*
X1375Y2071D02*
X1465Y2071D01*
X478Y2070D02*
X522Y2070D01*
X526Y2070D02*
X569Y2070D01*
X1374Y2070D02*
X1418Y2070D01*
X1422Y2070D02*
X1466Y2070D01*
X477Y2069D02*
X518Y2069D01*
X531Y2069D02*
X570Y2069D01*
X1374Y2069D02*
X1414Y2069D01*
X1427Y2069D02*
X1467Y2069D01*
X476Y2068D02*
X516Y2068D01*
X533Y2068D02*
X571Y2068D01*
X1373Y2068D02*
X1412Y2068D01*
X1429Y2068D02*
X1468Y2068D01*
X476Y2067D02*
X514Y2067D01*
X534Y2067D02*
X571Y2067D01*
X1372Y2067D02*
X1410Y2067D01*
X1430Y2067D02*
X1468Y2067D01*
X475Y2066D02*
X513Y2066D01*
X535Y2066D02*
X572Y2066D01*
X1372Y2066D02*
X1409Y2066D01*
X1431Y2066D02*
X1469Y2066D01*
X474Y2065D02*
X512Y2065D01*
X536Y2065D02*
X572Y2065D01*
X1371Y2065D02*
X1408Y2065D01*
X1432Y2065D02*
X1469Y2065D01*
X474Y2064D02*
X511Y2064D01*
X537Y2064D02*
X573Y2064D01*
X1371Y2064D02*
X1407Y2064D01*
X1433Y2064D02*
X1470Y2064D01*
X474Y2063D02*
X510Y2063D01*
X538Y2063D02*
X573Y2063D01*
X1370Y2063D02*
X1406Y2063D01*
X1434Y2063D02*
X1470Y2063D01*
X473Y2062D02*
X510Y2062D01*
X539Y2062D02*
X574Y2062D01*
X1370Y2062D02*
X1406Y2062D01*
X1435Y2062D02*
X1471Y2062D01*
X473Y2061D02*
X509Y2061D01*
X539Y2061D02*
X574Y2061D01*
X1370Y2061D02*
X1405Y2061D01*
X1435Y2061D02*
X1471Y2061D01*
X473Y2060D02*
X509Y2060D01*
X540Y2060D02*
X574Y2060D01*
X1370Y2060D02*
X1405Y2060D01*
X1436Y2060D02*
X1471Y2060D01*
X472Y2059D02*
X509Y2059D01*
X540Y2059D02*
X574Y2059D01*
X1369Y2059D02*
X1405Y2059D01*
X1436Y2059D02*
X1471Y2059D01*
X472Y2058D02*
X508Y2058D01*
X540Y2058D02*
X575Y2058D01*
X1369Y2058D02*
X1404Y2058D01*
X1436Y2058D02*
X1471Y2058D01*
X472Y2057D02*
X508Y2057D01*
X540Y2057D02*
X575Y2057D01*
X1369Y2057D02*
X1404Y2057D01*
X1436Y2057D02*
X1472Y2057D01*
X472Y2056D02*
X508Y2056D01*
X541Y2056D02*
X575Y2056D01*
X1369Y2056D02*
X1404Y2056D01*
X1437Y2056D02*
X1472Y2056D01*
X472Y2055D02*
X508Y2055D01*
X541Y2055D02*
X575Y2055D01*
X1369Y2055D02*
X1404Y2055D01*
X1437Y2055D02*
X1472Y2055D01*
X472Y2054D02*
X508Y2054D01*
X541Y2054D02*
X575Y2054D01*
X1369Y2054D02*
X1404Y2054D01*
X1437Y2054D02*
X1472Y2054D01*
X472Y2053D02*
X508Y2053D01*
X541Y2053D02*
X575Y2053D01*
X1369Y2053D02*
X1404Y2053D01*
X1437Y2053D02*
X1472Y2053D01*
X472Y2052D02*
X508Y2052D01*
X540Y2052D02*
X575Y2052D01*
X1369Y2052D02*
X1404Y2052D01*
X1437Y2052D02*
X1472Y2052D01*
X472Y2051D02*
X508Y2051D01*
X540Y2051D02*
X575Y2051D01*
X1369Y2051D02*
X1404Y2051D01*
X1436Y2051D02*
X1472Y2051D01*
X472Y2050D02*
X508Y2050D01*
X540Y2050D02*
X575Y2050D01*
X1369Y2050D02*
X1404Y2050D01*
X1436Y2050D02*
X1471Y2050D01*
X473Y2049D02*
X509Y2049D01*
X540Y2049D02*
X574Y2049D01*
X1369Y2049D02*
X1405Y2049D01*
X1436Y2049D02*
X1471Y2049D01*
X473Y2048D02*
X509Y2048D01*
X539Y2048D02*
X574Y2048D01*
X1370Y2048D02*
X1405Y2048D01*
X1436Y2048D02*
X1471Y2048D01*
X473Y2047D02*
X509Y2047D01*
X539Y2047D02*
X574Y2047D01*
X1370Y2047D02*
X1406Y2047D01*
X1435Y2047D02*
X1471Y2047D01*
X473Y2046D02*
X510Y2046D01*
X538Y2046D02*
X574Y2046D01*
X1370Y2046D02*
X1406Y2046D01*
X1434Y2046D02*
X1470Y2046D01*
X474Y2045D02*
X511Y2045D01*
X538Y2045D02*
X573Y2045D01*
X1371Y2045D02*
X1407Y2045D01*
X1434Y2045D02*
X1470Y2045D01*
X474Y2044D02*
X511Y2044D01*
X537Y2044D02*
X573Y2044D01*
X1371Y2044D02*
X1408Y2044D01*
X1433Y2044D02*
X1470Y2044D01*
X475Y2043D02*
X512Y2043D01*
X536Y2043D02*
X572Y2043D01*
X1371Y2043D02*
X1408Y2043D01*
X1432Y2043D02*
X1469Y2043D01*
X475Y2042D02*
X513Y2042D01*
X535Y2042D02*
X572Y2042D01*
X1372Y2042D02*
X1410Y2042D01*
X1431Y2042D02*
X1469Y2042D01*
X476Y2041D02*
X515Y2041D01*
X534Y2041D02*
X571Y2041D01*
X1373Y2041D02*
X1411Y2041D01*
X1430Y2041D02*
X1468Y2041D01*
X476Y2040D02*
X516Y2040D01*
X532Y2040D02*
X571Y2040D01*
X1373Y2040D02*
X1413Y2040D01*
X1428Y2040D02*
X1468Y2040D01*
X477Y2039D02*
X519Y2039D01*
X529Y2039D02*
X570Y2039D01*
X1374Y2039D02*
X1415Y2039D01*
X1426Y2039D02*
X1467Y2039D01*
X478Y2038D02*
X569Y2038D01*
X1375Y2038D02*
X1466Y2038D01*
X479Y2037D02*
X568Y2037D01*
X1375Y2037D02*
X1465Y2037D01*
X479Y2036D02*
X568Y2036D01*
X1376Y2036D02*
X1464Y2036D01*
X480Y2035D02*
X566Y2035D01*
X1377Y2035D02*
X1463Y2035D01*
X482Y2034D02*
X565Y2034D01*
X1379Y2034D02*
X1462Y2034D01*
X483Y2033D02*
X564Y2033D01*
X1380Y2033D02*
X1461Y2033D01*
X484Y2032D02*
X562Y2032D01*
X1381Y2032D02*
X1459Y2032D01*
X486Y2031D02*
X561Y2031D01*
X1383Y2031D02*
X1457Y2031D01*
X488Y2030D02*
X559Y2030D01*
X1385Y2030D02*
X1455Y2030D01*
X491Y2029D02*
X555Y2029D01*
X1388Y2029D02*
X1452Y2029D01*
X495Y1980D02*
X551Y1980D01*
X1392Y1980D02*
X1448Y1980D01*
X490Y1979D02*
X556Y1979D01*
X1387Y1979D02*
X1453Y1979D01*
X488Y1978D02*
X559Y1978D01*
X1385Y1978D02*
X1456Y1978D01*
X486Y1977D02*
X561Y1977D01*
X1383Y1977D02*
X1458Y1977D01*
X484Y1976D02*
X563Y1976D01*
X1381Y1976D02*
X1460Y1976D01*
X483Y1975D02*
X564Y1975D01*
X1379Y1975D02*
X1461Y1975D01*
X481Y1974D02*
X565Y1974D01*
X1378Y1974D02*
X1462Y1974D01*
X480Y1973D02*
X567Y1973D01*
X1377Y1973D02*
X1464Y1973D01*
X479Y1972D02*
X568Y1972D01*
X1376Y1972D02*
X1465Y1972D01*
X478Y1971D02*
X568Y1971D01*
X1375Y1971D02*
X1465Y1971D01*
X477Y1970D02*
X521Y1970D01*
X527Y1970D02*
X569Y1970D01*
X1374Y1970D02*
X1417Y1970D01*
X1423Y1970D02*
X1466Y1970D01*
X477Y1969D02*
X517Y1969D01*
X531Y1969D02*
X570Y1969D01*
X1374Y1969D02*
X1414Y1969D01*
X1427Y1969D02*
X1467Y1969D01*
X476Y1968D02*
X515Y1968D01*
X533Y1968D02*
X571Y1968D01*
X1373Y1968D02*
X1412Y1968D01*
X1429Y1968D02*
X1468Y1968D01*
X475Y1967D02*
X514Y1967D01*
X534Y1967D02*
X571Y1967D01*
X1372Y1967D02*
X1410Y1967D01*
X1431Y1967D02*
X1468Y1967D01*
X475Y1966D02*
X513Y1966D01*
X536Y1966D02*
X572Y1966D01*
X1372Y1966D02*
X1409Y1966D01*
X1432Y1966D02*
X1469Y1966D01*
X474Y1965D02*
X512Y1965D01*
X537Y1965D02*
X572Y1965D01*
X1371Y1965D02*
X1408Y1965D01*
X1433Y1965D02*
X1469Y1965D01*
X474Y1964D02*
X511Y1964D01*
X537Y1964D02*
X573Y1964D01*
X1371Y1964D02*
X1407Y1964D01*
X1434Y1964D02*
X1470Y1964D01*
X473Y1963D02*
X510Y1963D01*
X538Y1963D02*
X573Y1963D01*
X1370Y1963D02*
X1406Y1963D01*
X1434Y1963D02*
X1470Y1963D01*
X473Y1962D02*
X509Y1962D01*
X539Y1962D02*
X574Y1962D01*
X1370Y1962D02*
X1406Y1962D01*
X1435Y1962D02*
X1471Y1962D01*
X473Y1961D02*
X509Y1961D01*
X539Y1961D02*
X574Y1961D01*
X1370Y1961D02*
X1405Y1961D01*
X1435Y1961D02*
X1471Y1961D01*
X473Y1960D02*
X509Y1960D01*
X540Y1960D02*
X574Y1960D01*
X1370Y1960D02*
X1405Y1960D01*
X1436Y1960D02*
X1471Y1960D01*
X472Y1959D02*
X508Y1959D01*
X540Y1959D02*
X574Y1959D01*
X1369Y1959D02*
X1404Y1959D01*
X1436Y1959D02*
X1471Y1959D01*
X472Y1958D02*
X508Y1958D01*
X540Y1958D02*
X575Y1958D01*
X1369Y1958D02*
X1404Y1958D01*
X1436Y1958D02*
X1471Y1958D01*
X472Y1957D02*
X508Y1957D01*
X541Y1957D02*
X575Y1957D01*
X1369Y1957D02*
X1404Y1957D01*
X1437Y1957D02*
X1472Y1957D01*
X472Y1956D02*
X508Y1956D01*
X541Y1956D02*
X575Y1956D01*
X1369Y1956D02*
X1404Y1956D01*
X1437Y1956D02*
X1472Y1956D01*
X472Y1955D02*
X507Y1955D01*
X541Y1955D02*
X575Y1955D01*
X1369Y1955D02*
X1404Y1955D01*
X1437Y1955D02*
X1472Y1955D01*
X472Y1954D02*
X507Y1954D01*
X541Y1954D02*
X575Y1954D01*
X1369Y1954D02*
X1404Y1954D01*
X1437Y1954D02*
X1472Y1954D01*
X472Y1953D02*
X508Y1953D01*
X541Y1953D02*
X575Y1953D01*
X1369Y1953D02*
X1404Y1953D01*
X1437Y1953D02*
X1472Y1953D01*
X472Y1952D02*
X508Y1952D01*
X541Y1952D02*
X575Y1952D01*
X1369Y1952D02*
X1404Y1952D01*
X1437Y1952D02*
X1472Y1952D01*
X472Y1951D02*
X508Y1951D01*
X540Y1951D02*
X575Y1951D01*
X1369Y1951D02*
X1404Y1951D01*
X1437Y1951D02*
X1472Y1951D01*
X472Y1950D02*
X508Y1950D01*
X540Y1950D02*
X574Y1950D01*
X1369Y1950D02*
X1404Y1950D01*
X1436Y1950D02*
X1471Y1950D01*
X472Y1949D02*
X508Y1949D01*
X540Y1949D02*
X574Y1949D01*
X1369Y1949D02*
X1405Y1949D01*
X1436Y1949D02*
X1471Y1949D01*
X473Y1948D02*
X509Y1948D01*
X540Y1948D02*
X574Y1948D01*
X1370Y1948D02*
X1405Y1948D01*
X1436Y1948D02*
X1471Y1948D01*
X473Y1947D02*
X509Y1947D01*
X539Y1947D02*
X574Y1947D01*
X1370Y1947D02*
X1405Y1947D01*
X1435Y1947D02*
X1471Y1947D01*
X473Y1946D02*
X510Y1946D01*
X539Y1946D02*
X574Y1946D01*
X1370Y1946D02*
X1406Y1946D01*
X1435Y1946D02*
X1470Y1946D01*
X474Y1945D02*
X510Y1945D01*
X538Y1945D02*
X573Y1945D01*
X1371Y1945D02*
X1407Y1945D01*
X1434Y1945D02*
X1470Y1945D01*
X474Y1944D02*
X511Y1944D01*
X537Y1944D02*
X573Y1944D01*
X1371Y1944D02*
X1407Y1944D01*
X1433Y1944D02*
X1470Y1944D01*
X474Y1943D02*
X512Y1943D01*
X536Y1943D02*
X572Y1943D01*
X1371Y1943D02*
X1408Y1943D01*
X1432Y1943D02*
X1469Y1943D01*
X475Y1942D02*
X513Y1942D01*
X535Y1942D02*
X572Y1942D01*
X1372Y1942D02*
X1409Y1942D01*
X1431Y1942D02*
X1469Y1942D01*
X476Y1941D02*
X514Y1941D01*
X534Y1941D02*
X571Y1941D01*
X1373Y1941D02*
X1411Y1941D01*
X1430Y1941D02*
X1468Y1941D01*
X476Y1940D02*
X516Y1940D01*
X532Y1940D02*
X571Y1940D01*
X1373Y1940D02*
X1412Y1940D01*
X1428Y1940D02*
X1468Y1940D01*
X477Y1939D02*
X519Y1939D01*
X530Y1939D02*
X570Y1939D01*
X1374Y1939D02*
X1415Y1939D01*
X1426Y1939D02*
X1467Y1939D01*
X478Y1938D02*
X569Y1938D01*
X1375Y1938D02*
X1466Y1938D01*
X478Y1937D02*
X568Y1937D01*
X1375Y1937D02*
X1465Y1937D01*
X479Y1936D02*
X567Y1936D01*
X1376Y1936D02*
X1464Y1936D01*
X480Y1935D02*
X566Y1935D01*
X1377Y1935D02*
X1463Y1935D01*
X482Y1934D02*
X565Y1934D01*
X1379Y1934D02*
X1462Y1934D01*
X483Y1933D02*
X564Y1933D01*
X1380Y1933D02*
X1461Y1933D01*
X484Y1932D02*
X562Y1932D01*
X1381Y1932D02*
X1459Y1932D01*
X486Y1931D02*
X560Y1931D01*
X1383Y1931D02*
X1457Y1931D01*
X488Y1930D02*
X558Y1930D01*
X1385Y1930D02*
X1455Y1930D01*
X491Y1929D02*
X555Y1929D01*
X1388Y1929D02*
X1452Y1929D01*
X495Y1880D02*
X551Y1880D01*
X1392Y1880D02*
X1448Y1880D01*
X490Y1879D02*
X556Y1879D01*
X1387Y1879D02*
X1453Y1879D01*
X488Y1878D02*
X559Y1878D01*
X1385Y1878D02*
X1456Y1878D01*
X486Y1877D02*
X561Y1877D01*
X1383Y1877D02*
X1458Y1877D01*
X484Y1876D02*
X563Y1876D01*
X1381Y1876D02*
X1460Y1876D01*
X482Y1875D02*
X564Y1875D01*
X1379Y1875D02*
X1461Y1875D01*
X481Y1874D02*
X565Y1874D01*
X1378Y1874D02*
X1462Y1874D01*
X480Y1873D02*
X567Y1873D01*
X1377Y1873D02*
X1464Y1873D01*
X479Y1872D02*
X568Y1872D01*
X1376Y1872D02*
X1465Y1872D01*
X478Y1871D02*
X568Y1871D01*
X1375Y1871D02*
X1465Y1871D01*
X477Y1870D02*
X521Y1870D01*
X527Y1870D02*
X569Y1870D01*
X1374Y1870D02*
X1417Y1870D01*
X1423Y1870D02*
X1466Y1870D01*
X477Y1869D02*
X517Y1869D01*
X531Y1869D02*
X570Y1869D01*
X1374Y1869D02*
X1414Y1869D01*
X1427Y1869D02*
X1467Y1869D01*
X476Y1868D02*
X515Y1868D01*
X533Y1868D02*
X571Y1868D01*
X1373Y1868D02*
X1412Y1868D01*
X1429Y1868D02*
X1468Y1868D01*
X475Y1867D02*
X514Y1867D01*
X534Y1867D02*
X571Y1867D01*
X1372Y1867D02*
X1410Y1867D01*
X1431Y1867D02*
X1468Y1867D01*
X475Y1866D02*
X513Y1866D01*
X536Y1866D02*
X572Y1866D01*
X1372Y1866D02*
X1409Y1866D01*
X1432Y1866D02*
X1469Y1866D01*
X474Y1865D02*
X512Y1865D01*
X537Y1865D02*
X572Y1865D01*
X1371Y1865D02*
X1408Y1865D01*
X1433Y1865D02*
X1469Y1865D01*
X474Y1864D02*
X511Y1864D01*
X537Y1864D02*
X573Y1864D01*
X1371Y1864D02*
X1407Y1864D01*
X1434Y1864D02*
X1470Y1864D01*
X473Y1863D02*
X510Y1863D01*
X538Y1863D02*
X573Y1863D01*
X1370Y1863D02*
X1406Y1863D01*
X1434Y1863D02*
X1470Y1863D01*
X473Y1862D02*
X509Y1862D01*
X539Y1862D02*
X574Y1862D01*
X1370Y1862D02*
X1406Y1862D01*
X1435Y1862D02*
X1471Y1862D01*
X473Y1861D02*
X509Y1861D01*
X539Y1861D02*
X574Y1861D01*
X1370Y1861D02*
X1405Y1861D01*
X1435Y1861D02*
X1471Y1861D01*
X473Y1860D02*
X509Y1860D01*
X540Y1860D02*
X574Y1860D01*
X1370Y1860D02*
X1405Y1860D01*
X1436Y1860D02*
X1471Y1860D01*
X472Y1859D02*
X508Y1859D01*
X540Y1859D02*
X574Y1859D01*
X1369Y1859D02*
X1404Y1859D01*
X1436Y1859D02*
X1471Y1859D01*
X472Y1858D02*
X508Y1858D01*
X540Y1858D02*
X575Y1858D01*
X1369Y1858D02*
X1404Y1858D01*
X1436Y1858D02*
X1471Y1858D01*
X472Y1857D02*
X508Y1857D01*
X541Y1857D02*
X575Y1857D01*
X1369Y1857D02*
X1404Y1857D01*
X1437Y1857D02*
X1472Y1857D01*
X472Y1856D02*
X508Y1856D01*
X541Y1856D02*
X575Y1856D01*
X1369Y1856D02*
X1404Y1856D01*
X1437Y1856D02*
X1472Y1856D01*
X472Y1855D02*
X507Y1855D01*
X541Y1855D02*
X575Y1855D01*
X1369Y1855D02*
X1404Y1855D01*
X1437Y1855D02*
X1472Y1855D01*
X472Y1854D02*
X507Y1854D01*
X541Y1854D02*
X575Y1854D01*
X1369Y1854D02*
X1404Y1854D01*
X1437Y1854D02*
X1472Y1854D01*
X472Y1853D02*
X507Y1853D01*
X541Y1853D02*
X575Y1853D01*
X1369Y1853D02*
X1404Y1853D01*
X1437Y1853D02*
X1472Y1853D01*
X472Y1852D02*
X508Y1852D01*
X541Y1852D02*
X575Y1852D01*
X1369Y1852D02*
X1404Y1852D01*
X1437Y1852D02*
X1472Y1852D01*
X472Y1851D02*
X508Y1851D01*
X540Y1851D02*
X575Y1851D01*
X1369Y1851D02*
X1404Y1851D01*
X1437Y1851D02*
X1472Y1851D01*
X472Y1850D02*
X508Y1850D01*
X540Y1850D02*
X574Y1850D01*
X1369Y1850D02*
X1404Y1850D01*
X1436Y1850D02*
X1471Y1850D01*
X472Y1849D02*
X508Y1849D01*
X540Y1849D02*
X574Y1849D01*
X1369Y1849D02*
X1405Y1849D01*
X1436Y1849D02*
X1471Y1849D01*
X473Y1848D02*
X509Y1848D01*
X540Y1848D02*
X574Y1848D01*
X1370Y1848D02*
X1405Y1848D01*
X1436Y1848D02*
X1471Y1848D01*
X473Y1847D02*
X509Y1847D01*
X539Y1847D02*
X574Y1847D01*
X1370Y1847D02*
X1405Y1847D01*
X1435Y1847D02*
X1471Y1847D01*
X473Y1846D02*
X510Y1846D01*
X538Y1846D02*
X574Y1846D01*
X1370Y1846D02*
X1406Y1846D01*
X1435Y1846D02*
X1470Y1846D01*
X474Y1845D02*
X510Y1845D01*
X538Y1845D02*
X573Y1845D01*
X1371Y1845D02*
X1407Y1845D01*
X1434Y1845D02*
X1470Y1845D01*
X474Y1844D02*
X511Y1844D01*
X537Y1844D02*
X573Y1844D01*
X1371Y1844D02*
X1407Y1844D01*
X1433Y1844D02*
X1470Y1844D01*
X474Y1843D02*
X512Y1843D01*
X536Y1843D02*
X572Y1843D01*
X1371Y1843D02*
X1408Y1843D01*
X1432Y1843D02*
X1469Y1843D01*
X475Y1842D02*
X513Y1842D01*
X535Y1842D02*
X572Y1842D01*
X1372Y1842D02*
X1409Y1842D01*
X1431Y1842D02*
X1469Y1842D01*
X476Y1841D02*
X514Y1841D01*
X534Y1841D02*
X571Y1841D01*
X1373Y1841D02*
X1411Y1841D01*
X1430Y1841D02*
X1468Y1841D01*
X476Y1840D02*
X516Y1840D01*
X532Y1840D02*
X571Y1840D01*
X1373Y1840D02*
X1412Y1840D01*
X1428Y1840D02*
X1468Y1840D01*
X477Y1839D02*
X519Y1839D01*
X530Y1839D02*
X570Y1839D01*
X1374Y1839D02*
X1415Y1839D01*
X1426Y1839D02*
X1467Y1839D01*
X478Y1838D02*
X569Y1838D01*
X1375Y1838D02*
X1466Y1838D01*
X478Y1837D02*
X568Y1837D01*
X1375Y1837D02*
X1465Y1837D01*
X479Y1836D02*
X567Y1836D01*
X1376Y1836D02*
X1464Y1836D01*
X480Y1835D02*
X566Y1835D01*
X1377Y1835D02*
X1463Y1835D01*
X482Y1834D02*
X565Y1834D01*
X1379Y1834D02*
X1462Y1834D01*
X483Y1833D02*
X564Y1833D01*
X1380Y1833D02*
X1461Y1833D01*
X484Y1832D02*
X562Y1832D01*
X1381Y1832D02*
X1459Y1832D01*
X486Y1831D02*
X560Y1831D01*
X1383Y1831D02*
X1457Y1831D01*
X488Y1830D02*
X558Y1830D01*
X1385Y1830D02*
X1455Y1830D01*
X491Y1829D02*
X555Y1829D01*
X1388Y1829D02*
X1452Y1829D01*
X495Y1780D02*
X552Y1780D01*
X1392Y1780D02*
X1449Y1780D01*
X490Y1779D02*
X557Y1779D01*
X1387Y1779D02*
X1453Y1779D01*
X488Y1778D02*
X559Y1778D01*
X1385Y1778D02*
X1456Y1778D01*
X486Y1777D02*
X561Y1777D01*
X1383Y1777D02*
X1458Y1777D01*
X484Y1776D02*
X563Y1776D01*
X1381Y1776D02*
X1460Y1776D01*
X482Y1775D02*
X564Y1775D01*
X1379Y1775D02*
X1461Y1775D01*
X481Y1774D02*
X565Y1774D01*
X1378Y1774D02*
X1462Y1774D01*
X480Y1773D02*
X567Y1773D01*
X1377Y1773D02*
X1464Y1773D01*
X479Y1772D02*
X568Y1772D01*
X1376Y1772D02*
X1465Y1772D01*
X478Y1771D02*
X568Y1771D01*
X1375Y1771D02*
X1465Y1771D01*
X477Y1770D02*
X521Y1770D01*
X527Y1770D02*
X569Y1770D01*
X1374Y1770D02*
X1417Y1770D01*
X1423Y1770D02*
X1466Y1770D01*
X477Y1769D02*
X517Y1769D01*
X531Y1769D02*
X570Y1769D01*
X1374Y1769D02*
X1414Y1769D01*
X1427Y1769D02*
X1467Y1769D01*
X476Y1768D02*
X515Y1768D01*
X533Y1768D02*
X571Y1768D01*
X1373Y1768D02*
X1412Y1768D01*
X1429Y1768D02*
X1468Y1768D01*
X475Y1767D02*
X514Y1767D01*
X534Y1767D02*
X571Y1767D01*
X1372Y1767D02*
X1410Y1767D01*
X1431Y1767D02*
X1468Y1767D01*
X475Y1766D02*
X513Y1766D01*
X536Y1766D02*
X572Y1766D01*
X1372Y1766D02*
X1409Y1766D01*
X1432Y1766D02*
X1469Y1766D01*
X474Y1765D02*
X512Y1765D01*
X537Y1765D02*
X572Y1765D01*
X1371Y1765D02*
X1408Y1765D01*
X1433Y1765D02*
X1469Y1765D01*
X474Y1764D02*
X511Y1764D01*
X537Y1764D02*
X573Y1764D01*
X1371Y1764D02*
X1407Y1764D01*
X1434Y1764D02*
X1470Y1764D01*
X473Y1763D02*
X510Y1763D01*
X538Y1763D02*
X573Y1763D01*
X1370Y1763D02*
X1406Y1763D01*
X1434Y1763D02*
X1470Y1763D01*
X473Y1762D02*
X509Y1762D01*
X539Y1762D02*
X574Y1762D01*
X1370Y1762D02*
X1406Y1762D01*
X1435Y1762D02*
X1471Y1762D01*
X473Y1761D02*
X509Y1761D01*
X539Y1761D02*
X574Y1761D01*
X1370Y1761D02*
X1405Y1761D01*
X1435Y1761D02*
X1471Y1761D01*
X473Y1760D02*
X509Y1760D01*
X540Y1760D02*
X574Y1760D01*
X1370Y1760D02*
X1405Y1760D01*
X1436Y1760D02*
X1471Y1760D01*
X472Y1759D02*
X508Y1759D01*
X540Y1759D02*
X574Y1759D01*
X1369Y1759D02*
X1404Y1759D01*
X1436Y1759D02*
X1471Y1759D01*
X472Y1758D02*
X508Y1758D01*
X540Y1758D02*
X575Y1758D01*
X1369Y1758D02*
X1404Y1758D01*
X1436Y1758D02*
X1471Y1758D01*
X472Y1757D02*
X508Y1757D01*
X541Y1757D02*
X575Y1757D01*
X1369Y1757D02*
X1404Y1757D01*
X1437Y1757D02*
X1472Y1757D01*
X472Y1756D02*
X508Y1756D01*
X541Y1756D02*
X575Y1756D01*
X1369Y1756D02*
X1404Y1756D01*
X1437Y1756D02*
X1472Y1756D01*
X472Y1755D02*
X507Y1755D01*
X541Y1755D02*
X575Y1755D01*
X1369Y1755D02*
X1404Y1755D01*
X1437Y1755D02*
X1472Y1755D01*
X472Y1754D02*
X507Y1754D01*
X541Y1754D02*
X575Y1754D01*
X1369Y1754D02*
X1404Y1754D01*
X1437Y1754D02*
X1472Y1754D01*
X472Y1753D02*
X508Y1753D01*
X541Y1753D02*
X575Y1753D01*
X1369Y1753D02*
X1404Y1753D01*
X1437Y1753D02*
X1472Y1753D01*
X472Y1752D02*
X508Y1752D01*
X541Y1752D02*
X575Y1752D01*
X1369Y1752D02*
X1404Y1752D01*
X1437Y1752D02*
X1472Y1752D01*
X472Y1751D02*
X508Y1751D01*
X540Y1751D02*
X575Y1751D01*
X1369Y1751D02*
X1404Y1751D01*
X1437Y1751D02*
X1472Y1751D01*
X472Y1750D02*
X508Y1750D01*
X540Y1750D02*
X574Y1750D01*
X1369Y1750D02*
X1404Y1750D01*
X1436Y1750D02*
X1471Y1750D01*
X472Y1749D02*
X508Y1749D01*
X540Y1749D02*
X574Y1749D01*
X1369Y1749D02*
X1405Y1749D01*
X1436Y1749D02*
X1471Y1749D01*
X473Y1748D02*
X509Y1748D01*
X540Y1748D02*
X574Y1748D01*
X1370Y1748D02*
X1405Y1748D01*
X1436Y1748D02*
X1471Y1748D01*
X473Y1747D02*
X509Y1747D01*
X539Y1747D02*
X574Y1747D01*
X1370Y1747D02*
X1405Y1747D01*
X1435Y1747D02*
X1471Y1747D01*
X473Y1746D02*
X510Y1746D01*
X538Y1746D02*
X574Y1746D01*
X1370Y1746D02*
X1406Y1746D01*
X1435Y1746D02*
X1470Y1746D01*
X474Y1745D02*
X510Y1745D01*
X538Y1745D02*
X573Y1745D01*
X1371Y1745D02*
X1407Y1745D01*
X1434Y1745D02*
X1470Y1745D01*
X474Y1744D02*
X511Y1744D01*
X537Y1744D02*
X573Y1744D01*
X1371Y1744D02*
X1407Y1744D01*
X1433Y1744D02*
X1470Y1744D01*
X475Y1743D02*
X512Y1743D01*
X536Y1743D02*
X572Y1743D01*
X1371Y1743D02*
X1408Y1743D01*
X1432Y1743D02*
X1469Y1743D01*
X475Y1742D02*
X513Y1742D01*
X535Y1742D02*
X572Y1742D01*
X1372Y1742D02*
X1409Y1742D01*
X1431Y1742D02*
X1469Y1742D01*
X476Y1741D02*
X515Y1741D01*
X534Y1741D02*
X571Y1741D01*
X1373Y1741D02*
X1411Y1741D01*
X1430Y1741D02*
X1468Y1741D01*
X476Y1740D02*
X516Y1740D01*
X532Y1740D02*
X571Y1740D01*
X1373Y1740D02*
X1412Y1740D01*
X1428Y1740D02*
X1468Y1740D01*
X477Y1739D02*
X519Y1739D01*
X530Y1739D02*
X570Y1739D01*
X1374Y1739D02*
X1415Y1739D01*
X1426Y1739D02*
X1467Y1739D01*
X478Y1738D02*
X569Y1738D01*
X1375Y1738D02*
X1466Y1738D01*
X479Y1737D02*
X568Y1737D01*
X1375Y1737D02*
X1465Y1737D01*
X479Y1736D02*
X567Y1736D01*
X1376Y1736D02*
X1464Y1736D01*
X480Y1735D02*
X566Y1735D01*
X1377Y1735D02*
X1463Y1735D01*
X482Y1734D02*
X565Y1734D01*
X1379Y1734D02*
X1462Y1734D01*
X483Y1733D02*
X564Y1733D01*
X1380Y1733D02*
X1461Y1733D01*
X485Y1732D02*
X562Y1732D01*
X1381Y1732D02*
X1459Y1732D01*
X486Y1731D02*
X560Y1731D01*
X1383Y1731D02*
X1457Y1731D01*
X488Y1730D02*
X558Y1730D01*
X1385Y1730D02*
X1455Y1730D01*
X491Y1729D02*
X555Y1729D01*
X1388Y1729D02*
X1452Y1729D01*
X495Y1680D02*
X552Y1680D01*
X1392Y1680D02*
X1449Y1680D01*
X490Y1679D02*
X557Y1679D01*
X1387Y1679D02*
X1454Y1679D01*
X488Y1678D02*
X559Y1678D01*
X1384Y1678D02*
X1456Y1678D01*
X486Y1677D02*
X561Y1677D01*
X1383Y1677D02*
X1458Y1677D01*
X484Y1676D02*
X563Y1676D01*
X1381Y1676D02*
X1460Y1676D01*
X482Y1675D02*
X564Y1675D01*
X1379Y1675D02*
X1461Y1675D01*
X481Y1674D02*
X565Y1674D01*
X1378Y1674D02*
X1462Y1674D01*
X480Y1673D02*
X567Y1673D01*
X1377Y1673D02*
X1464Y1673D01*
X479Y1672D02*
X568Y1672D01*
X1376Y1672D02*
X1465Y1672D01*
X478Y1671D02*
X569Y1671D01*
X1375Y1671D02*
X1465Y1671D01*
X477Y1670D02*
X521Y1670D01*
X527Y1670D02*
X569Y1670D01*
X1374Y1670D02*
X1417Y1670D01*
X1423Y1670D02*
X1466Y1670D01*
X477Y1669D02*
X518Y1669D01*
X531Y1669D02*
X570Y1669D01*
X1374Y1669D02*
X1414Y1669D01*
X1427Y1669D02*
X1467Y1669D01*
X476Y1668D02*
X516Y1668D01*
X533Y1668D02*
X571Y1668D01*
X1373Y1668D02*
X1412Y1668D01*
X1429Y1668D02*
X1468Y1668D01*
X475Y1667D02*
X514Y1667D01*
X534Y1667D02*
X571Y1667D01*
X1372Y1667D02*
X1410Y1667D01*
X1430Y1667D02*
X1468Y1667D01*
X475Y1666D02*
X513Y1666D01*
X535Y1666D02*
X572Y1666D01*
X1372Y1666D02*
X1409Y1666D01*
X1432Y1666D02*
X1469Y1666D01*
X474Y1665D02*
X512Y1665D01*
X536Y1665D02*
X572Y1665D01*
X1371Y1665D02*
X1408Y1665D01*
X1433Y1665D02*
X1469Y1665D01*
X474Y1664D02*
X511Y1664D01*
X537Y1664D02*
X573Y1664D01*
X1371Y1664D02*
X1407Y1664D01*
X1433Y1664D02*
X1470Y1664D01*
X473Y1663D02*
X510Y1663D01*
X538Y1663D02*
X573Y1663D01*
X1370Y1663D02*
X1406Y1663D01*
X1434Y1663D02*
X1470Y1663D01*
X473Y1662D02*
X510Y1662D01*
X539Y1662D02*
X574Y1662D01*
X1370Y1662D02*
X1406Y1662D01*
X1435Y1662D02*
X1471Y1662D01*
X473Y1661D02*
X509Y1661D01*
X539Y1661D02*
X574Y1661D01*
X1370Y1661D02*
X1405Y1661D01*
X1435Y1661D02*
X1471Y1661D01*
X473Y1660D02*
X509Y1660D01*
X539Y1660D02*
X574Y1660D01*
X1370Y1660D02*
X1405Y1660D01*
X1436Y1660D02*
X1471Y1660D01*
X472Y1659D02*
X508Y1659D01*
X540Y1659D02*
X574Y1659D01*
X1369Y1659D02*
X1405Y1659D01*
X1436Y1659D02*
X1471Y1659D01*
X472Y1658D02*
X508Y1658D01*
X540Y1658D02*
X575Y1658D01*
X1369Y1658D02*
X1404Y1658D01*
X1436Y1658D02*
X1471Y1658D01*
X472Y1657D02*
X508Y1657D01*
X540Y1657D02*
X575Y1657D01*
X1369Y1657D02*
X1404Y1657D01*
X1436Y1657D02*
X1472Y1657D01*
X472Y1656D02*
X508Y1656D01*
X540Y1656D02*
X575Y1656D01*
X1369Y1656D02*
X1404Y1656D01*
X1437Y1656D02*
X1472Y1656D01*
X472Y1655D02*
X508Y1655D01*
X541Y1655D02*
X575Y1655D01*
X1369Y1655D02*
X1404Y1655D01*
X1437Y1655D02*
X1472Y1655D01*
X472Y1654D02*
X508Y1654D01*
X541Y1654D02*
X575Y1654D01*
X1369Y1654D02*
X1404Y1654D01*
X1437Y1654D02*
X1472Y1654D01*
X472Y1653D02*
X508Y1653D01*
X540Y1653D02*
X575Y1653D01*
X1369Y1653D02*
X1404Y1653D01*
X1437Y1653D02*
X1472Y1653D01*
X472Y1652D02*
X508Y1652D01*
X540Y1652D02*
X575Y1652D01*
X1369Y1652D02*
X1404Y1652D01*
X1437Y1652D02*
X1472Y1652D01*
X472Y1651D02*
X508Y1651D01*
X540Y1651D02*
X575Y1651D01*
X1369Y1651D02*
X1404Y1651D01*
X1436Y1651D02*
X1472Y1651D01*
X472Y1650D02*
X508Y1650D01*
X540Y1650D02*
X574Y1650D01*
X1369Y1650D02*
X1404Y1650D01*
X1436Y1650D02*
X1471Y1650D01*
X472Y1649D02*
X509Y1649D01*
X540Y1649D02*
X574Y1649D01*
X1369Y1649D02*
X1405Y1649D01*
X1436Y1649D02*
X1471Y1649D01*
X473Y1648D02*
X509Y1648D01*
X539Y1648D02*
X574Y1648D01*
X1370Y1648D02*
X1405Y1648D01*
X1435Y1648D02*
X1471Y1648D01*
X473Y1647D02*
X509Y1647D01*
X539Y1647D02*
X574Y1647D01*
X1370Y1647D02*
X1406Y1647D01*
X1435Y1647D02*
X1471Y1647D01*
X473Y1646D02*
X510Y1646D01*
X538Y1646D02*
X574Y1646D01*
X1370Y1646D02*
X1406Y1646D01*
X1434Y1646D02*
X1470Y1646D01*
X474Y1645D02*
X511Y1645D01*
X538Y1645D02*
X573Y1645D01*
X1371Y1645D02*
X1407Y1645D01*
X1434Y1645D02*
X1470Y1645D01*
X474Y1644D02*
X511Y1644D01*
X537Y1644D02*
X573Y1644D01*
X1371Y1644D02*
X1408Y1644D01*
X1433Y1644D02*
X1470Y1644D01*
X474Y1643D02*
X512Y1643D01*
X536Y1643D02*
X572Y1643D01*
X1371Y1643D02*
X1408Y1643D01*
X1432Y1643D02*
X1469Y1643D01*
X475Y1642D02*
X513Y1642D01*
X535Y1642D02*
X572Y1642D01*
X1372Y1642D02*
X1410Y1642D01*
X1431Y1642D02*
X1469Y1642D01*
X476Y1641D02*
X515Y1641D01*
X534Y1641D02*
X571Y1641D01*
X1373Y1641D02*
X1411Y1641D01*
X1430Y1641D02*
X1468Y1641D01*
X476Y1640D02*
X516Y1640D01*
X532Y1640D02*
X571Y1640D01*
X1373Y1640D02*
X1413Y1640D01*
X1428Y1640D02*
X1468Y1640D01*
X477Y1639D02*
X519Y1639D01*
X529Y1639D02*
X570Y1639D01*
X1374Y1639D02*
X1415Y1639D01*
X1425Y1639D02*
X1467Y1639D01*
X478Y1638D02*
X569Y1638D01*
X1375Y1638D02*
X1466Y1638D01*
X478Y1637D02*
X568Y1637D01*
X1375Y1637D02*
X1465Y1637D01*
X479Y1636D02*
X567Y1636D01*
X1376Y1636D02*
X1464Y1636D01*
X480Y1635D02*
X566Y1635D01*
X1377Y1635D02*
X1463Y1635D01*
X482Y1634D02*
X565Y1634D01*
X1379Y1634D02*
X1462Y1634D01*
X483Y1633D02*
X564Y1633D01*
X1380Y1633D02*
X1461Y1633D01*
X484Y1632D02*
X562Y1632D01*
X1381Y1632D02*
X1459Y1632D01*
X486Y1631D02*
X560Y1631D01*
X1383Y1631D02*
X1457Y1631D01*
X488Y1630D02*
X558Y1630D01*
X1385Y1630D02*
X1455Y1630D01*
X492Y1629D02*
X555Y1629D01*
X1389Y1629D02*
X1452Y1629D01*
X495Y1580D02*
X552Y1580D01*
X1392Y1580D02*
X1449Y1580D01*
X490Y1579D02*
X557Y1579D01*
X1387Y1579D02*
X1454Y1579D01*
X488Y1578D02*
X559Y1578D01*
X1384Y1578D02*
X1456Y1578D01*
X486Y1577D02*
X561Y1577D01*
X1383Y1577D02*
X1458Y1577D01*
X484Y1576D02*
X563Y1576D01*
X1381Y1576D02*
X1460Y1576D01*
X482Y1575D02*
X564Y1575D01*
X1379Y1575D02*
X1461Y1575D01*
X481Y1574D02*
X565Y1574D01*
X1378Y1574D02*
X1462Y1574D01*
X480Y1573D02*
X567Y1573D01*
X1377Y1573D02*
X1464Y1573D01*
X479Y1572D02*
X568Y1572D01*
X1376Y1572D02*
X1465Y1572D01*
X478Y1571D02*
X569Y1571D01*
X1375Y1571D02*
X1465Y1571D01*
X477Y1570D02*
X521Y1570D01*
X527Y1570D02*
X569Y1570D01*
X1374Y1570D02*
X1417Y1570D01*
X1423Y1570D02*
X1466Y1570D01*
X477Y1569D02*
X518Y1569D01*
X531Y1569D02*
X570Y1569D01*
X1374Y1569D02*
X1414Y1569D01*
X1427Y1569D02*
X1467Y1569D01*
X476Y1568D02*
X516Y1568D01*
X533Y1568D02*
X571Y1568D01*
X1373Y1568D02*
X1412Y1568D01*
X1429Y1568D02*
X1468Y1568D01*
X475Y1567D02*
X514Y1567D01*
X534Y1567D02*
X571Y1567D01*
X1372Y1567D02*
X1410Y1567D01*
X1430Y1567D02*
X1468Y1567D01*
X475Y1566D02*
X513Y1566D01*
X535Y1566D02*
X572Y1566D01*
X1372Y1566D02*
X1409Y1566D01*
X1432Y1566D02*
X1469Y1566D01*
X474Y1565D02*
X512Y1565D01*
X536Y1565D02*
X572Y1565D01*
X1371Y1565D02*
X1408Y1565D01*
X1433Y1565D02*
X1469Y1565D01*
X474Y1564D02*
X511Y1564D01*
X537Y1564D02*
X573Y1564D01*
X1371Y1564D02*
X1407Y1564D01*
X1433Y1564D02*
X1470Y1564D01*
X473Y1563D02*
X510Y1563D01*
X538Y1563D02*
X573Y1563D01*
X1370Y1563D02*
X1406Y1563D01*
X1434Y1563D02*
X1470Y1563D01*
X473Y1562D02*
X510Y1562D01*
X539Y1562D02*
X574Y1562D01*
X1370Y1562D02*
X1406Y1562D01*
X1435Y1562D02*
X1471Y1562D01*
X473Y1561D02*
X509Y1561D01*
X539Y1561D02*
X574Y1561D01*
X1370Y1561D02*
X1405Y1561D01*
X1435Y1561D02*
X1471Y1561D01*
X473Y1560D02*
X509Y1560D01*
X540Y1560D02*
X574Y1560D01*
X1370Y1560D02*
X1405Y1560D01*
X1436Y1560D02*
X1471Y1560D01*
X472Y1559D02*
X508Y1559D01*
X540Y1559D02*
X574Y1559D01*
X1369Y1559D02*
X1405Y1559D01*
X1436Y1559D02*
X1471Y1559D01*
X472Y1558D02*
X508Y1558D01*
X540Y1558D02*
X575Y1558D01*
X1369Y1558D02*
X1404Y1558D01*
X1436Y1558D02*
X1471Y1558D01*
X472Y1557D02*
X508Y1557D01*
X540Y1557D02*
X575Y1557D01*
X1369Y1557D02*
X1404Y1557D01*
X1436Y1557D02*
X1472Y1557D01*
X472Y1556D02*
X508Y1556D01*
X540Y1556D02*
X575Y1556D01*
X1369Y1556D02*
X1404Y1556D01*
X1437Y1556D02*
X1472Y1556D01*
X472Y1555D02*
X508Y1555D01*
X541Y1555D02*
X575Y1555D01*
X1369Y1555D02*
X1404Y1555D01*
X1437Y1555D02*
X1472Y1555D01*
X472Y1554D02*
X508Y1554D01*
X541Y1554D02*
X575Y1554D01*
X1369Y1554D02*
X1404Y1554D01*
X1437Y1554D02*
X1472Y1554D01*
X472Y1553D02*
X508Y1553D01*
X540Y1553D02*
X575Y1553D01*
X1369Y1553D02*
X1404Y1553D01*
X1437Y1553D02*
X1472Y1553D01*
X472Y1552D02*
X508Y1552D01*
X540Y1552D02*
X575Y1552D01*
X1369Y1552D02*
X1404Y1552D01*
X1437Y1552D02*
X1472Y1552D01*
X472Y1551D02*
X508Y1551D01*
X540Y1551D02*
X575Y1551D01*
X1369Y1551D02*
X1404Y1551D01*
X1436Y1551D02*
X1472Y1551D01*
X472Y1550D02*
X508Y1550D01*
X540Y1550D02*
X574Y1550D01*
X1369Y1550D02*
X1404Y1550D01*
X1436Y1550D02*
X1471Y1550D01*
X472Y1549D02*
X509Y1549D01*
X540Y1549D02*
X574Y1549D01*
X1369Y1549D02*
X1405Y1549D01*
X1436Y1549D02*
X1471Y1549D01*
X473Y1548D02*
X509Y1548D01*
X539Y1548D02*
X574Y1548D01*
X1370Y1548D02*
X1405Y1548D01*
X1435Y1548D02*
X1471Y1548D01*
X473Y1547D02*
X509Y1547D01*
X539Y1547D02*
X574Y1547D01*
X1370Y1547D02*
X1406Y1547D01*
X1435Y1547D02*
X1471Y1547D01*
X473Y1546D02*
X510Y1546D01*
X538Y1546D02*
X574Y1546D01*
X1370Y1546D02*
X1406Y1546D01*
X1434Y1546D02*
X1470Y1546D01*
X474Y1545D02*
X511Y1545D01*
X538Y1545D02*
X573Y1545D01*
X1371Y1545D02*
X1407Y1545D01*
X1434Y1545D02*
X1470Y1545D01*
X474Y1544D02*
X511Y1544D01*
X537Y1544D02*
X573Y1544D01*
X1371Y1544D02*
X1408Y1544D01*
X1433Y1544D02*
X1470Y1544D01*
X475Y1543D02*
X512Y1543D01*
X536Y1543D02*
X572Y1543D01*
X1371Y1543D02*
X1408Y1543D01*
X1432Y1543D02*
X1469Y1543D01*
X475Y1542D02*
X513Y1542D01*
X535Y1542D02*
X572Y1542D01*
X1372Y1542D02*
X1410Y1542D01*
X1431Y1542D02*
X1469Y1542D01*
X476Y1541D02*
X515Y1541D01*
X534Y1541D02*
X571Y1541D01*
X1373Y1541D02*
X1411Y1541D01*
X1430Y1541D02*
X1468Y1541D01*
X476Y1540D02*
X517Y1540D01*
X532Y1540D02*
X571Y1540D01*
X1373Y1540D02*
X1413Y1540D01*
X1428Y1540D02*
X1468Y1540D01*
X477Y1539D02*
X519Y1539D01*
X529Y1539D02*
X570Y1539D01*
X1374Y1539D02*
X1415Y1539D01*
X1425Y1539D02*
X1467Y1539D01*
X478Y1538D02*
X569Y1538D01*
X1375Y1538D02*
X1466Y1538D01*
X479Y1537D02*
X568Y1537D01*
X1375Y1537D02*
X1465Y1537D01*
X479Y1536D02*
X567Y1536D01*
X1376Y1536D02*
X1464Y1536D01*
X480Y1535D02*
X566Y1535D01*
X1377Y1535D02*
X1463Y1535D01*
X482Y1534D02*
X565Y1534D01*
X1379Y1534D02*
X1462Y1534D01*
X483Y1533D02*
X564Y1533D01*
X1380Y1533D02*
X1461Y1533D01*
X485Y1532D02*
X562Y1532D01*
X1381Y1532D02*
X1459Y1532D01*
X486Y1531D02*
X560Y1531D01*
X1383Y1531D02*
X1457Y1531D01*
X488Y1530D02*
X558Y1530D01*
X1385Y1530D02*
X1455Y1530D01*
X492Y1529D02*
X555Y1529D01*
X1389Y1529D02*
X1452Y1529D01*
X497Y1480D02*
X550Y1480D01*
X1394Y1480D02*
X1447Y1480D01*
X491Y1479D02*
X556Y1479D01*
X1388Y1479D02*
X1453Y1479D01*
X488Y1478D02*
X559Y1478D01*
X1385Y1478D02*
X1456Y1478D01*
X486Y1477D02*
X561Y1477D01*
X1383Y1477D02*
X1458Y1477D01*
X484Y1476D02*
X563Y1476D01*
X1381Y1476D02*
X1460Y1476D01*
X483Y1475D02*
X564Y1475D01*
X1380Y1475D02*
X1461Y1475D01*
X481Y1474D02*
X565Y1474D01*
X1378Y1474D02*
X1462Y1474D01*
X480Y1473D02*
X567Y1473D01*
X1377Y1473D02*
X1464Y1473D01*
X479Y1472D02*
X568Y1472D01*
X1376Y1472D02*
X1465Y1472D01*
X478Y1471D02*
X569Y1471D01*
X1375Y1471D02*
X1465Y1471D01*
X478Y1470D02*
X522Y1470D01*
X526Y1470D02*
X569Y1470D01*
X1374Y1470D02*
X1419Y1470D01*
X1422Y1470D02*
X1466Y1470D01*
X477Y1469D02*
X518Y1469D01*
X530Y1469D02*
X570Y1469D01*
X1374Y1469D02*
X1414Y1469D01*
X1427Y1469D02*
X1467Y1469D01*
X476Y1468D02*
X516Y1468D01*
X533Y1468D02*
X571Y1468D01*
X1373Y1468D02*
X1412Y1468D01*
X1429Y1468D02*
X1468Y1468D01*
X476Y1467D02*
X514Y1467D01*
X534Y1467D02*
X571Y1467D01*
X1372Y1467D02*
X1410Y1467D01*
X1430Y1467D02*
X1468Y1467D01*
X475Y1466D02*
X513Y1466D01*
X535Y1466D02*
X572Y1466D01*
X1372Y1466D02*
X1409Y1466D01*
X1431Y1466D02*
X1469Y1466D01*
X474Y1465D02*
X512Y1465D01*
X536Y1465D02*
X572Y1465D01*
X1371Y1465D02*
X1408Y1465D01*
X1432Y1465D02*
X1469Y1465D01*
X474Y1464D02*
X511Y1464D01*
X537Y1464D02*
X573Y1464D01*
X1371Y1464D02*
X1407Y1464D01*
X1433Y1464D02*
X1470Y1464D01*
X474Y1463D02*
X510Y1463D01*
X538Y1463D02*
X573Y1463D01*
X1370Y1463D02*
X1407Y1463D01*
X1434Y1463D02*
X1470Y1463D01*
X473Y1462D02*
X510Y1462D01*
X539Y1462D02*
X574Y1462D01*
X1370Y1462D02*
X1406Y1462D01*
X1435Y1462D02*
X1471Y1462D01*
X473Y1461D02*
X509Y1461D01*
X539Y1461D02*
X574Y1461D01*
X1370Y1461D02*
X1405Y1461D01*
X1435Y1461D02*
X1471Y1461D01*
X473Y1460D02*
X509Y1460D01*
X540Y1460D02*
X574Y1460D01*
X1370Y1460D02*
X1405Y1460D01*
X1436Y1460D02*
X1471Y1460D01*
X472Y1459D02*
X509Y1459D01*
X540Y1459D02*
X574Y1459D01*
X1369Y1459D02*
X1405Y1459D01*
X1436Y1459D02*
X1471Y1459D01*
X472Y1458D02*
X508Y1458D01*
X540Y1458D02*
X575Y1458D01*
X1369Y1458D02*
X1404Y1458D01*
X1436Y1458D02*
X1471Y1458D01*
X472Y1457D02*
X508Y1457D01*
X540Y1457D02*
X575Y1457D01*
X1369Y1457D02*
X1404Y1457D01*
X1436Y1457D02*
X1472Y1457D01*
X472Y1456D02*
X508Y1456D01*
X540Y1456D02*
X575Y1456D01*
X1369Y1456D02*
X1404Y1456D01*
X1437Y1456D02*
X1472Y1456D01*
X472Y1455D02*
X508Y1455D01*
X541Y1455D02*
X575Y1455D01*
X1369Y1455D02*
X1404Y1455D01*
X1437Y1455D02*
X1472Y1455D01*
X472Y1454D02*
X508Y1454D01*
X541Y1454D02*
X575Y1454D01*
X1369Y1454D02*
X1404Y1454D01*
X1437Y1454D02*
X1472Y1454D01*
X472Y1453D02*
X508Y1453D01*
X541Y1453D02*
X575Y1453D01*
X1369Y1453D02*
X1404Y1453D01*
X1437Y1453D02*
X1472Y1453D01*
X472Y1452D02*
X508Y1452D01*
X540Y1452D02*
X575Y1452D01*
X1369Y1452D02*
X1404Y1452D01*
X1437Y1452D02*
X1472Y1452D01*
X472Y1451D02*
X508Y1451D01*
X540Y1451D02*
X575Y1451D01*
X1369Y1451D02*
X1404Y1451D01*
X1436Y1451D02*
X1472Y1451D01*
X472Y1450D02*
X508Y1450D01*
X540Y1450D02*
X575Y1450D01*
X1369Y1450D02*
X1404Y1450D01*
X1436Y1450D02*
X1471Y1450D01*
X472Y1449D02*
X509Y1449D01*
X540Y1449D02*
X574Y1449D01*
X1369Y1449D02*
X1405Y1449D01*
X1436Y1449D02*
X1471Y1449D01*
X473Y1448D02*
X509Y1448D01*
X539Y1448D02*
X574Y1448D01*
X1370Y1448D02*
X1405Y1448D01*
X1436Y1448D02*
X1471Y1448D01*
X473Y1447D02*
X509Y1447D01*
X539Y1447D02*
X574Y1447D01*
X1370Y1447D02*
X1406Y1447D01*
X1435Y1447D02*
X1471Y1447D01*
X473Y1446D02*
X510Y1446D01*
X538Y1446D02*
X574Y1446D01*
X1370Y1446D02*
X1406Y1446D01*
X1434Y1446D02*
X1471Y1446D01*
X474Y1445D02*
X511Y1445D01*
X538Y1445D02*
X573Y1445D01*
X1371Y1445D02*
X1407Y1445D01*
X1434Y1445D02*
X1470Y1445D01*
X474Y1444D02*
X511Y1444D01*
X537Y1444D02*
X573Y1444D01*
X1371Y1444D02*
X1408Y1444D01*
X1433Y1444D02*
X1470Y1444D01*
X475Y1443D02*
X512Y1443D01*
X536Y1443D02*
X572Y1443D01*
X1371Y1443D02*
X1408Y1443D01*
X1432Y1443D02*
X1469Y1443D01*
X475Y1442D02*
X513Y1442D01*
X535Y1442D02*
X572Y1442D01*
X1372Y1442D02*
X1409Y1442D01*
X1431Y1442D02*
X1469Y1442D01*
X476Y1441D02*
X515Y1441D01*
X534Y1441D02*
X571Y1441D01*
X1372Y1441D02*
X1411Y1441D01*
X1430Y1441D02*
X1468Y1441D01*
X476Y1440D02*
X516Y1440D01*
X532Y1440D02*
X571Y1440D01*
X1373Y1440D02*
X1412Y1440D01*
X1428Y1440D02*
X1468Y1440D01*
X477Y1439D02*
X519Y1439D01*
X530Y1439D02*
X570Y1439D01*
X1374Y1439D02*
X1415Y1439D01*
X1426Y1439D02*
X1467Y1439D01*
X478Y1438D02*
X569Y1438D01*
X1375Y1438D02*
X1466Y1438D01*
X479Y1437D02*
X568Y1437D01*
X1375Y1437D02*
X1465Y1437D01*
X479Y1436D02*
X568Y1436D01*
X1376Y1436D02*
X1464Y1436D01*
X480Y1435D02*
X566Y1435D01*
X1377Y1435D02*
X1463Y1435D01*
X482Y1434D02*
X565Y1434D01*
X1379Y1434D02*
X1462Y1434D01*
X483Y1433D02*
X564Y1433D01*
X1380Y1433D02*
X1461Y1433D01*
X484Y1432D02*
X562Y1432D01*
X1381Y1432D02*
X1459Y1432D01*
X486Y1431D02*
X561Y1431D01*
X1383Y1431D02*
X1458Y1431D01*
X488Y1430D02*
X559Y1430D01*
X1385Y1430D02*
X1456Y1430D01*
X491Y1429D02*
X556Y1429D01*
X1388Y1429D02*
X1453Y1429D01*
X496Y1380D02*
X550Y1380D01*
X1393Y1380D02*
X1447Y1380D01*
X491Y1379D02*
X556Y1379D01*
X1387Y1379D02*
X1453Y1379D01*
X488Y1378D02*
X559Y1378D01*
X1385Y1378D02*
X1456Y1378D01*
X486Y1377D02*
X561Y1377D01*
X1383Y1377D02*
X1458Y1377D01*
X484Y1376D02*
X563Y1376D01*
X1381Y1376D02*
X1460Y1376D01*
X483Y1375D02*
X564Y1375D01*
X1380Y1375D02*
X1461Y1375D01*
X481Y1374D02*
X565Y1374D01*
X1378Y1374D02*
X1462Y1374D01*
X480Y1373D02*
X567Y1373D01*
X1377Y1373D02*
X1464Y1373D01*
X479Y1372D02*
X568Y1372D01*
X1376Y1372D02*
X1465Y1372D01*
X478Y1371D02*
X568Y1371D01*
X1375Y1371D02*
X1465Y1371D01*
X477Y1370D02*
X522Y1370D01*
X527Y1370D02*
X569Y1370D01*
X1374Y1370D02*
X1418Y1370D01*
X1423Y1370D02*
X1466Y1370D01*
X477Y1369D02*
X518Y1369D01*
X531Y1369D02*
X570Y1369D01*
X1374Y1369D02*
X1414Y1369D01*
X1427Y1369D02*
X1467Y1369D01*
X476Y1368D02*
X516Y1368D01*
X533Y1368D02*
X571Y1368D01*
X1373Y1368D02*
X1412Y1368D01*
X1429Y1368D02*
X1468Y1368D01*
X475Y1367D02*
X514Y1367D01*
X534Y1367D02*
X571Y1367D01*
X1372Y1367D02*
X1410Y1367D01*
X1430Y1367D02*
X1468Y1367D01*
X475Y1366D02*
X513Y1366D01*
X536Y1366D02*
X572Y1366D01*
X1372Y1366D02*
X1409Y1366D01*
X1432Y1366D02*
X1469Y1366D01*
X474Y1365D02*
X512Y1365D01*
X537Y1365D02*
X572Y1365D01*
X1371Y1365D02*
X1408Y1365D01*
X1433Y1365D02*
X1469Y1365D01*
X474Y1364D02*
X511Y1364D01*
X537Y1364D02*
X573Y1364D01*
X1371Y1364D02*
X1407Y1364D01*
X1434Y1364D02*
X1470Y1364D01*
X473Y1363D02*
X510Y1363D01*
X538Y1363D02*
X573Y1363D01*
X1370Y1363D02*
X1406Y1363D01*
X1434Y1363D02*
X1470Y1363D01*
X473Y1362D02*
X510Y1362D01*
X539Y1362D02*
X574Y1362D01*
X1370Y1362D02*
X1406Y1362D01*
X1435Y1362D02*
X1471Y1362D01*
X473Y1361D02*
X509Y1361D01*
X539Y1361D02*
X574Y1361D01*
X1370Y1361D02*
X1405Y1361D01*
X1435Y1361D02*
X1471Y1361D01*
X473Y1360D02*
X509Y1360D01*
X540Y1360D02*
X574Y1360D01*
X1370Y1360D02*
X1405Y1360D01*
X1436Y1360D02*
X1471Y1360D01*
X472Y1359D02*
X508Y1359D01*
X540Y1359D02*
X574Y1359D01*
X1369Y1359D02*
X1404Y1359D01*
X1436Y1359D02*
X1471Y1359D01*
X472Y1358D02*
X508Y1358D01*
X540Y1358D02*
X575Y1358D01*
X1369Y1358D02*
X1404Y1358D01*
X1436Y1358D02*
X1471Y1358D01*
X472Y1357D02*
X508Y1357D01*
X541Y1357D02*
X575Y1357D01*
X1369Y1357D02*
X1404Y1357D01*
X1437Y1357D02*
X1472Y1357D01*
X472Y1356D02*
X508Y1356D01*
X541Y1356D02*
X575Y1356D01*
X1369Y1356D02*
X1404Y1356D01*
X1437Y1356D02*
X1472Y1356D01*
X472Y1355D02*
X507Y1355D01*
X541Y1355D02*
X575Y1355D01*
X1369Y1355D02*
X1404Y1355D01*
X1437Y1355D02*
X1472Y1355D01*
X472Y1354D02*
X507Y1354D01*
X541Y1354D02*
X575Y1354D01*
X1369Y1354D02*
X1404Y1354D01*
X1437Y1354D02*
X1472Y1354D01*
X472Y1353D02*
X508Y1353D01*
X541Y1353D02*
X575Y1353D01*
X1369Y1353D02*
X1404Y1353D01*
X1437Y1353D02*
X1472Y1353D01*
X472Y1352D02*
X508Y1352D01*
X541Y1352D02*
X575Y1352D01*
X1369Y1352D02*
X1404Y1352D01*
X1437Y1352D02*
X1472Y1352D01*
X472Y1351D02*
X508Y1351D01*
X540Y1351D02*
X575Y1351D01*
X1369Y1351D02*
X1404Y1351D01*
X1437Y1351D02*
X1472Y1351D01*
X472Y1350D02*
X508Y1350D01*
X540Y1350D02*
X574Y1350D01*
X1369Y1350D02*
X1404Y1350D01*
X1436Y1350D02*
X1471Y1350D01*
X472Y1349D02*
X508Y1349D01*
X540Y1349D02*
X574Y1349D01*
X1369Y1349D02*
X1404Y1349D01*
X1436Y1349D02*
X1471Y1349D01*
X473Y1348D02*
X509Y1348D01*
X540Y1348D02*
X574Y1348D01*
X1370Y1348D02*
X1405Y1348D01*
X1436Y1348D02*
X1471Y1348D01*
X473Y1347D02*
X509Y1347D01*
X539Y1347D02*
X574Y1347D01*
X1370Y1347D02*
X1405Y1347D01*
X1435Y1347D02*
X1471Y1347D01*
X473Y1346D02*
X510Y1346D01*
X539Y1346D02*
X574Y1346D01*
X1370Y1346D02*
X1406Y1346D01*
X1435Y1346D02*
X1470Y1346D01*
X474Y1345D02*
X510Y1345D01*
X538Y1345D02*
X573Y1345D01*
X1371Y1345D02*
X1407Y1345D01*
X1434Y1345D02*
X1470Y1345D01*
X474Y1344D02*
X511Y1344D01*
X537Y1344D02*
X573Y1344D01*
X1371Y1344D02*
X1407Y1344D01*
X1433Y1344D02*
X1470Y1344D01*
X474Y1343D02*
X512Y1343D01*
X536Y1343D02*
X572Y1343D01*
X1371Y1343D02*
X1408Y1343D01*
X1432Y1343D02*
X1469Y1343D01*
X475Y1342D02*
X513Y1342D01*
X535Y1342D02*
X572Y1342D01*
X1372Y1342D02*
X1409Y1342D01*
X1431Y1342D02*
X1469Y1342D01*
X476Y1341D02*
X514Y1341D01*
X534Y1341D02*
X571Y1341D01*
X1373Y1341D02*
X1411Y1341D01*
X1430Y1341D02*
X1468Y1341D01*
X476Y1340D02*
X516Y1340D01*
X532Y1340D02*
X571Y1340D01*
X1373Y1340D02*
X1412Y1340D01*
X1428Y1340D02*
X1468Y1340D01*
X477Y1339D02*
X518Y1339D01*
X530Y1339D02*
X570Y1339D01*
X1374Y1339D02*
X1415Y1339D01*
X1426Y1339D02*
X1467Y1339D01*
X478Y1338D02*
X569Y1338D01*
X1375Y1338D02*
X1466Y1338D01*
X478Y1337D02*
X568Y1337D01*
X1375Y1337D02*
X1465Y1337D01*
X479Y1336D02*
X567Y1336D01*
X1376Y1336D02*
X1464Y1336D01*
X480Y1335D02*
X566Y1335D01*
X1377Y1335D02*
X1463Y1335D01*
X482Y1334D02*
X565Y1334D01*
X1379Y1334D02*
X1462Y1334D01*
X483Y1333D02*
X564Y1333D01*
X1380Y1333D02*
X1461Y1333D01*
X484Y1332D02*
X562Y1332D01*
X1381Y1332D02*
X1459Y1332D01*
X486Y1331D02*
X561Y1331D01*
X1383Y1331D02*
X1458Y1331D01*
X488Y1330D02*
X559Y1330D01*
X1385Y1330D02*
X1456Y1330D01*
X491Y1329D02*
X556Y1329D01*
X1388Y1329D02*
X1453Y1329D01*
X496Y1280D02*
X551Y1280D01*
X1393Y1280D02*
X1448Y1280D01*
X490Y1279D02*
X556Y1279D01*
X1387Y1279D02*
X1453Y1279D01*
X488Y1278D02*
X559Y1278D01*
X1385Y1278D02*
X1456Y1278D01*
X486Y1277D02*
X561Y1277D01*
X1383Y1277D02*
X1458Y1277D01*
X484Y1276D02*
X563Y1276D01*
X1381Y1276D02*
X1460Y1276D01*
X483Y1275D02*
X564Y1275D01*
X1380Y1275D02*
X1461Y1275D01*
X481Y1274D02*
X565Y1274D01*
X1378Y1274D02*
X1462Y1274D01*
X480Y1273D02*
X567Y1273D01*
X1377Y1273D02*
X1464Y1273D01*
X479Y1272D02*
X568Y1272D01*
X1376Y1272D02*
X1465Y1272D01*
X478Y1271D02*
X568Y1271D01*
X1375Y1271D02*
X1465Y1271D01*
X477Y1270D02*
X522Y1270D01*
X527Y1270D02*
X569Y1270D01*
X1374Y1270D02*
X1418Y1270D01*
X1423Y1270D02*
X1466Y1270D01*
X477Y1269D02*
X518Y1269D01*
X531Y1269D02*
X570Y1269D01*
X1374Y1269D02*
X1414Y1269D01*
X1427Y1269D02*
X1467Y1269D01*
X476Y1268D02*
X515Y1268D01*
X533Y1268D02*
X571Y1268D01*
X1373Y1268D02*
X1412Y1268D01*
X1429Y1268D02*
X1468Y1268D01*
X475Y1267D02*
X514Y1267D01*
X534Y1267D02*
X571Y1267D01*
X1372Y1267D02*
X1410Y1267D01*
X1430Y1267D02*
X1468Y1267D01*
X475Y1266D02*
X513Y1266D01*
X535Y1266D02*
X572Y1266D01*
X1372Y1266D02*
X1409Y1266D01*
X1432Y1266D02*
X1469Y1266D01*
X474Y1265D02*
X512Y1265D01*
X536Y1265D02*
X572Y1265D01*
X1371Y1265D02*
X1408Y1265D01*
X1433Y1265D02*
X1469Y1265D01*
X474Y1264D02*
X511Y1264D01*
X537Y1264D02*
X573Y1264D01*
X1371Y1264D02*
X1407Y1264D01*
X1434Y1264D02*
X1470Y1264D01*
X473Y1263D02*
X510Y1263D01*
X538Y1263D02*
X573Y1263D01*
X1370Y1263D02*
X1406Y1263D01*
X1434Y1263D02*
X1470Y1263D01*
X473Y1262D02*
X510Y1262D01*
X539Y1262D02*
X574Y1262D01*
X1370Y1262D02*
X1406Y1262D01*
X1435Y1262D02*
X1471Y1262D01*
X473Y1261D02*
X509Y1261D01*
X539Y1261D02*
X574Y1261D01*
X1370Y1261D02*
X1405Y1261D01*
X1435Y1261D02*
X1471Y1261D01*
X473Y1260D02*
X509Y1260D01*
X540Y1260D02*
X574Y1260D01*
X1370Y1260D02*
X1405Y1260D01*
X1436Y1260D02*
X1471Y1260D01*
X472Y1259D02*
X508Y1259D01*
X540Y1259D02*
X574Y1259D01*
X1369Y1259D02*
X1404Y1259D01*
X1436Y1259D02*
X1471Y1259D01*
X472Y1258D02*
X508Y1258D01*
X540Y1258D02*
X575Y1258D01*
X1369Y1258D02*
X1404Y1258D01*
X1436Y1258D02*
X1471Y1258D01*
X472Y1257D02*
X508Y1257D01*
X540Y1257D02*
X575Y1257D01*
X1369Y1257D02*
X1404Y1257D01*
X1437Y1257D02*
X1472Y1257D01*
X472Y1256D02*
X508Y1256D01*
X541Y1256D02*
X575Y1256D01*
X1369Y1256D02*
X1404Y1256D01*
X1437Y1256D02*
X1472Y1256D01*
X472Y1255D02*
X507Y1255D01*
X541Y1255D02*
X575Y1255D01*
X1369Y1255D02*
X1404Y1255D01*
X1437Y1255D02*
X1472Y1255D01*
X472Y1254D02*
X507Y1254D01*
X541Y1254D02*
X575Y1254D01*
X1369Y1254D02*
X1404Y1254D01*
X1437Y1254D02*
X1472Y1254D01*
X472Y1253D02*
X507Y1253D01*
X541Y1253D02*
X575Y1253D01*
X1369Y1253D02*
X1404Y1253D01*
X1437Y1253D02*
X1472Y1253D01*
X472Y1252D02*
X508Y1252D01*
X541Y1252D02*
X575Y1252D01*
X1369Y1252D02*
X1404Y1252D01*
X1437Y1252D02*
X1472Y1252D01*
X472Y1251D02*
X508Y1251D01*
X540Y1251D02*
X575Y1251D01*
X1369Y1251D02*
X1404Y1251D01*
X1437Y1251D02*
X1472Y1251D01*
X472Y1250D02*
X508Y1250D01*
X540Y1250D02*
X574Y1250D01*
X1369Y1250D02*
X1404Y1250D01*
X1436Y1250D02*
X1471Y1250D01*
X472Y1249D02*
X508Y1249D01*
X540Y1249D02*
X574Y1249D01*
X1369Y1249D02*
X1404Y1249D01*
X1436Y1249D02*
X1471Y1249D01*
X473Y1248D02*
X509Y1248D01*
X540Y1248D02*
X574Y1248D01*
X1370Y1248D02*
X1405Y1248D01*
X1436Y1248D02*
X1471Y1248D01*
X473Y1247D02*
X509Y1247D01*
X539Y1247D02*
X574Y1247D01*
X1370Y1247D02*
X1405Y1247D01*
X1435Y1247D02*
X1471Y1247D01*
X473Y1246D02*
X510Y1246D01*
X539Y1246D02*
X574Y1246D01*
X1370Y1246D02*
X1406Y1246D01*
X1435Y1246D02*
X1470Y1246D01*
X474Y1245D02*
X510Y1245D01*
X538Y1245D02*
X573Y1245D01*
X1371Y1245D02*
X1407Y1245D01*
X1434Y1245D02*
X1470Y1245D01*
X474Y1244D02*
X511Y1244D01*
X537Y1244D02*
X573Y1244D01*
X1371Y1244D02*
X1407Y1244D01*
X1433Y1244D02*
X1470Y1244D01*
X474Y1243D02*
X512Y1243D01*
X536Y1243D02*
X572Y1243D01*
X1371Y1243D02*
X1408Y1243D01*
X1432Y1243D02*
X1469Y1243D01*
X475Y1242D02*
X513Y1242D01*
X535Y1242D02*
X572Y1242D01*
X1372Y1242D02*
X1409Y1242D01*
X1431Y1242D02*
X1469Y1242D01*
X476Y1241D02*
X514Y1241D01*
X534Y1241D02*
X571Y1241D01*
X1373Y1241D02*
X1411Y1241D01*
X1430Y1241D02*
X1468Y1241D01*
X476Y1240D02*
X516Y1240D01*
X532Y1240D02*
X571Y1240D01*
X1373Y1240D02*
X1412Y1240D01*
X1428Y1240D02*
X1468Y1240D01*
X477Y1239D02*
X518Y1239D01*
X530Y1239D02*
X570Y1239D01*
X1374Y1239D02*
X1415Y1239D01*
X1426Y1239D02*
X1467Y1239D01*
X478Y1238D02*
X569Y1238D01*
X1375Y1238D02*
X1466Y1238D01*
X478Y1237D02*
X568Y1237D01*
X1375Y1237D02*
X1465Y1237D01*
X479Y1236D02*
X567Y1236D01*
X1376Y1236D02*
X1464Y1236D01*
X480Y1235D02*
X566Y1235D01*
X1377Y1235D02*
X1463Y1235D01*
X482Y1234D02*
X565Y1234D01*
X1379Y1234D02*
X1462Y1234D01*
X483Y1233D02*
X564Y1233D01*
X1380Y1233D02*
X1461Y1233D01*
X484Y1232D02*
X562Y1232D01*
X1381Y1232D02*
X1459Y1232D01*
X486Y1231D02*
X561Y1231D01*
X1383Y1231D02*
X1457Y1231D01*
X488Y1230D02*
X559Y1230D01*
X1385Y1230D02*
X1456Y1230D01*
X491Y1229D02*
X555Y1229D01*
X1388Y1229D02*
X1452Y1229D01*
X496Y1180D02*
X551Y1180D01*
X1393Y1180D02*
X1448Y1180D01*
X490Y1179D02*
X556Y1179D01*
X1387Y1179D02*
X1453Y1179D01*
X488Y1178D02*
X559Y1178D01*
X1385Y1178D02*
X1456Y1178D01*
X486Y1177D02*
X561Y1177D01*
X1383Y1177D02*
X1458Y1177D01*
X484Y1176D02*
X563Y1176D01*
X1381Y1176D02*
X1460Y1176D01*
X483Y1175D02*
X564Y1175D01*
X1380Y1175D02*
X1461Y1175D01*
X481Y1174D02*
X565Y1174D01*
X1378Y1174D02*
X1462Y1174D01*
X480Y1173D02*
X567Y1173D01*
X1377Y1173D02*
X1464Y1173D01*
X479Y1172D02*
X568Y1172D01*
X1376Y1172D02*
X1465Y1172D01*
X478Y1171D02*
X568Y1171D01*
X1375Y1171D02*
X1465Y1171D01*
X477Y1170D02*
X521Y1170D01*
X527Y1170D02*
X569Y1170D01*
X1374Y1170D02*
X1417Y1170D01*
X1423Y1170D02*
X1466Y1170D01*
X477Y1169D02*
X518Y1169D01*
X531Y1169D02*
X570Y1169D01*
X1374Y1169D02*
X1414Y1169D01*
X1427Y1169D02*
X1467Y1169D01*
X476Y1168D02*
X515Y1168D01*
X533Y1168D02*
X571Y1168D01*
X1373Y1168D02*
X1412Y1168D01*
X1429Y1168D02*
X1468Y1168D01*
X475Y1167D02*
X514Y1167D01*
X534Y1167D02*
X571Y1167D01*
X1372Y1167D02*
X1410Y1167D01*
X1430Y1167D02*
X1468Y1167D01*
X475Y1166D02*
X513Y1166D01*
X536Y1166D02*
X572Y1166D01*
X1372Y1166D02*
X1409Y1166D01*
X1432Y1166D02*
X1469Y1166D01*
X474Y1165D02*
X512Y1165D01*
X537Y1165D02*
X572Y1165D01*
X1371Y1165D02*
X1408Y1165D01*
X1433Y1165D02*
X1469Y1165D01*
X474Y1164D02*
X511Y1164D01*
X537Y1164D02*
X573Y1164D01*
X1371Y1164D02*
X1407Y1164D01*
X1434Y1164D02*
X1470Y1164D01*
X473Y1163D02*
X510Y1163D01*
X538Y1163D02*
X573Y1163D01*
X1370Y1163D02*
X1406Y1163D01*
X1434Y1163D02*
X1470Y1163D01*
X473Y1162D02*
X510Y1162D01*
X539Y1162D02*
X574Y1162D01*
X1370Y1162D02*
X1406Y1162D01*
X1435Y1162D02*
X1471Y1162D01*
X473Y1161D02*
X509Y1161D01*
X539Y1161D02*
X574Y1161D01*
X1370Y1161D02*
X1405Y1161D01*
X1435Y1161D02*
X1471Y1161D01*
X473Y1160D02*
X509Y1160D01*
X540Y1160D02*
X574Y1160D01*
X1370Y1160D02*
X1405Y1160D01*
X1436Y1160D02*
X1471Y1160D01*
X472Y1159D02*
X508Y1159D01*
X540Y1159D02*
X574Y1159D01*
X1369Y1159D02*
X1404Y1159D01*
X1436Y1159D02*
X1471Y1159D01*
X472Y1158D02*
X508Y1158D01*
X540Y1158D02*
X575Y1158D01*
X1369Y1158D02*
X1404Y1158D01*
X1436Y1158D02*
X1471Y1158D01*
X472Y1157D02*
X508Y1157D01*
X541Y1157D02*
X575Y1157D01*
X1369Y1157D02*
X1404Y1157D01*
X1437Y1157D02*
X1472Y1157D01*
X472Y1156D02*
X508Y1156D01*
X541Y1156D02*
X575Y1156D01*
X1369Y1156D02*
X1404Y1156D01*
X1437Y1156D02*
X1472Y1156D01*
X472Y1155D02*
X507Y1155D01*
X541Y1155D02*
X575Y1155D01*
X1369Y1155D02*
X1404Y1155D01*
X1437Y1155D02*
X1472Y1155D01*
X472Y1154D02*
X507Y1154D01*
X541Y1154D02*
X575Y1154D01*
X1369Y1154D02*
X1404Y1154D01*
X1437Y1154D02*
X1472Y1154D01*
X472Y1153D02*
X508Y1153D01*
X541Y1153D02*
X575Y1153D01*
X1369Y1153D02*
X1404Y1153D01*
X1437Y1153D02*
X1472Y1153D01*
X472Y1152D02*
X508Y1152D01*
X541Y1152D02*
X575Y1152D01*
X1369Y1152D02*
X1404Y1152D01*
X1437Y1152D02*
X1472Y1152D01*
X472Y1151D02*
X508Y1151D01*
X540Y1151D02*
X575Y1151D01*
X1369Y1151D02*
X1404Y1151D01*
X1437Y1151D02*
X1472Y1151D01*
X472Y1150D02*
X508Y1150D01*
X540Y1150D02*
X574Y1150D01*
X1369Y1150D02*
X1404Y1150D01*
X1436Y1150D02*
X1471Y1150D01*
X472Y1149D02*
X508Y1149D01*
X540Y1149D02*
X574Y1149D01*
X1369Y1149D02*
X1405Y1149D01*
X1436Y1149D02*
X1471Y1149D01*
X473Y1148D02*
X509Y1148D01*
X540Y1148D02*
X574Y1148D01*
X1370Y1148D02*
X1405Y1148D01*
X1436Y1148D02*
X1471Y1148D01*
X473Y1147D02*
X509Y1147D01*
X539Y1147D02*
X574Y1147D01*
X1370Y1147D02*
X1405Y1147D01*
X1435Y1147D02*
X1471Y1147D01*
X473Y1146D02*
X510Y1146D01*
X539Y1146D02*
X574Y1146D01*
X1370Y1146D02*
X1406Y1146D01*
X1435Y1146D02*
X1470Y1146D01*
X474Y1145D02*
X510Y1145D01*
X538Y1145D02*
X573Y1145D01*
X1371Y1145D02*
X1407Y1145D01*
X1434Y1145D02*
X1470Y1145D01*
X474Y1144D02*
X511Y1144D01*
X537Y1144D02*
X573Y1144D01*
X1371Y1144D02*
X1407Y1144D01*
X1433Y1144D02*
X1470Y1144D01*
X474Y1143D02*
X512Y1143D01*
X536Y1143D02*
X572Y1143D01*
X1371Y1143D02*
X1408Y1143D01*
X1432Y1143D02*
X1469Y1143D01*
X475Y1142D02*
X513Y1142D01*
X535Y1142D02*
X572Y1142D01*
X1372Y1142D02*
X1409Y1142D01*
X1431Y1142D02*
X1469Y1142D01*
X476Y1141D02*
X514Y1141D01*
X534Y1141D02*
X571Y1141D01*
X1373Y1141D02*
X1411Y1141D01*
X1430Y1141D02*
X1468Y1141D01*
X476Y1140D02*
X516Y1140D01*
X532Y1140D02*
X571Y1140D01*
X1373Y1140D02*
X1412Y1140D01*
X1428Y1140D02*
X1468Y1140D01*
X477Y1139D02*
X518Y1139D01*
X530Y1139D02*
X570Y1139D01*
X1374Y1139D02*
X1415Y1139D01*
X1426Y1139D02*
X1467Y1139D01*
X478Y1138D02*
X569Y1138D01*
X1375Y1138D02*
X1466Y1138D01*
X478Y1137D02*
X568Y1137D01*
X1375Y1137D02*
X1465Y1137D01*
X479Y1136D02*
X567Y1136D01*
X1376Y1136D02*
X1464Y1136D01*
X480Y1135D02*
X566Y1135D01*
X1377Y1135D02*
X1463Y1135D01*
X482Y1134D02*
X565Y1134D01*
X1379Y1134D02*
X1462Y1134D01*
X483Y1133D02*
X564Y1133D01*
X1380Y1133D02*
X1461Y1133D01*
X484Y1132D02*
X562Y1132D01*
X1381Y1132D02*
X1459Y1132D01*
X486Y1131D02*
X560Y1131D01*
X1383Y1131D02*
X1457Y1131D01*
X488Y1130D02*
X559Y1130D01*
X1385Y1130D02*
X1455Y1130D01*
X491Y1129D02*
X555Y1129D01*
X1388Y1129D02*
X1452Y1129D01*
X496Y1080D02*
X551Y1080D01*
X1393Y1080D02*
X1448Y1080D01*
X490Y1079D02*
X556Y1079D01*
X1387Y1079D02*
X1453Y1079D01*
X488Y1078D02*
X559Y1078D01*
X1385Y1078D02*
X1456Y1078D01*
X486Y1077D02*
X561Y1077D01*
X1383Y1077D02*
X1458Y1077D01*
X484Y1076D02*
X563Y1076D01*
X1381Y1076D02*
X1460Y1076D01*
X482Y1075D02*
X564Y1075D01*
X1379Y1075D02*
X1461Y1075D01*
X481Y1074D02*
X565Y1074D01*
X1378Y1074D02*
X1462Y1074D01*
X480Y1073D02*
X567Y1073D01*
X1377Y1073D02*
X1464Y1073D01*
X479Y1072D02*
X568Y1072D01*
X1376Y1072D02*
X1465Y1072D01*
X478Y1071D02*
X568Y1071D01*
X1375Y1071D02*
X1465Y1071D01*
X477Y1070D02*
X522Y1070D01*
X526Y1070D02*
X569Y1070D01*
X1374Y1070D02*
X1418Y1070D01*
X1422Y1070D02*
X1466Y1070D01*
X477Y1069D02*
X518Y1069D01*
X531Y1069D02*
X570Y1069D01*
X1374Y1069D02*
X1414Y1069D01*
X1427Y1069D02*
X1467Y1069D01*
X476Y1068D02*
X516Y1068D01*
X533Y1068D02*
X571Y1068D01*
X1373Y1068D02*
X1412Y1068D01*
X1429Y1068D02*
X1468Y1068D01*
X475Y1067D02*
X514Y1067D01*
X534Y1067D02*
X571Y1067D01*
X1372Y1067D02*
X1410Y1067D01*
X1430Y1067D02*
X1468Y1067D01*
X475Y1066D02*
X513Y1066D01*
X535Y1066D02*
X572Y1066D01*
X1372Y1066D02*
X1409Y1066D01*
X1431Y1066D02*
X1469Y1066D01*
X474Y1065D02*
X512Y1065D01*
X536Y1065D02*
X572Y1065D01*
X1371Y1065D02*
X1408Y1065D01*
X1432Y1065D02*
X1469Y1065D01*
X474Y1064D02*
X511Y1064D01*
X537Y1064D02*
X573Y1064D01*
X1371Y1064D02*
X1407Y1064D01*
X1433Y1064D02*
X1470Y1064D01*
X473Y1063D02*
X510Y1063D01*
X538Y1063D02*
X573Y1063D01*
X1370Y1063D02*
X1406Y1063D01*
X1434Y1063D02*
X1470Y1063D01*
X473Y1062D02*
X510Y1062D01*
X538Y1062D02*
X574Y1062D01*
X1370Y1062D02*
X1406Y1062D01*
X1435Y1062D02*
X1471Y1062D01*
X473Y1061D02*
X509Y1061D01*
X539Y1061D02*
X574Y1061D01*
X1370Y1061D02*
X1405Y1061D01*
X1435Y1061D02*
X1471Y1061D01*
X473Y1060D02*
X509Y1060D01*
X539Y1060D02*
X574Y1060D01*
X1370Y1060D02*
X1405Y1060D01*
X1436Y1060D02*
X1471Y1060D01*
X472Y1059D02*
X508Y1059D01*
X540Y1059D02*
X574Y1059D01*
X1369Y1059D02*
X1405Y1059D01*
X1436Y1059D02*
X1471Y1059D01*
X472Y1058D02*
X508Y1058D01*
X540Y1058D02*
X575Y1058D01*
X1369Y1058D02*
X1404Y1058D01*
X1436Y1058D02*
X1471Y1058D01*
X472Y1057D02*
X508Y1057D01*
X540Y1057D02*
X575Y1057D01*
X1369Y1057D02*
X1404Y1057D01*
X1436Y1057D02*
X1472Y1057D01*
X472Y1056D02*
X508Y1056D01*
X540Y1056D02*
X575Y1056D01*
X1369Y1056D02*
X1404Y1056D01*
X1437Y1056D02*
X1472Y1056D01*
X472Y1055D02*
X508Y1055D01*
X541Y1055D02*
X575Y1055D01*
X1369Y1055D02*
X1404Y1055D01*
X1437Y1055D02*
X1472Y1055D01*
X472Y1054D02*
X508Y1054D01*
X541Y1054D02*
X575Y1054D01*
X1369Y1054D02*
X1404Y1054D01*
X1437Y1054D02*
X1472Y1054D01*
X472Y1053D02*
X508Y1053D01*
X540Y1053D02*
X575Y1053D01*
X1369Y1053D02*
X1404Y1053D01*
X1437Y1053D02*
X1472Y1053D01*
X472Y1052D02*
X508Y1052D01*
X540Y1052D02*
X575Y1052D01*
X1369Y1052D02*
X1404Y1052D01*
X1437Y1052D02*
X1472Y1052D01*
X472Y1051D02*
X508Y1051D01*
X540Y1051D02*
X575Y1051D01*
X1369Y1051D02*
X1404Y1051D01*
X1436Y1051D02*
X1472Y1051D01*
X472Y1050D02*
X508Y1050D01*
X540Y1050D02*
X574Y1050D01*
X1369Y1050D02*
X1404Y1050D01*
X1436Y1050D02*
X1471Y1050D01*
X472Y1049D02*
X509Y1049D01*
X540Y1049D02*
X574Y1049D01*
X1369Y1049D02*
X1405Y1049D01*
X1436Y1049D02*
X1471Y1049D01*
X473Y1048D02*
X509Y1048D01*
X539Y1048D02*
X574Y1048D01*
X1370Y1048D02*
X1405Y1048D01*
X1436Y1048D02*
X1471Y1048D01*
X473Y1047D02*
X509Y1047D01*
X539Y1047D02*
X574Y1047D01*
X1370Y1047D02*
X1406Y1047D01*
X1435Y1047D02*
X1471Y1047D01*
X473Y1046D02*
X510Y1046D01*
X538Y1046D02*
X574Y1046D01*
X1370Y1046D02*
X1406Y1046D01*
X1434Y1046D02*
X1470Y1046D01*
X474Y1045D02*
X511Y1045D01*
X538Y1045D02*
X573Y1045D01*
X1371Y1045D02*
X1407Y1045D01*
X1434Y1045D02*
X1470Y1045D01*
X474Y1044D02*
X511Y1044D01*
X537Y1044D02*
X573Y1044D01*
X1371Y1044D02*
X1408Y1044D01*
X1433Y1044D02*
X1470Y1044D01*
X474Y1043D02*
X512Y1043D01*
X536Y1043D02*
X572Y1043D01*
X1371Y1043D02*
X1408Y1043D01*
X1432Y1043D02*
X1469Y1043D01*
X475Y1042D02*
X513Y1042D01*
X535Y1042D02*
X572Y1042D01*
X1372Y1042D02*
X1410Y1042D01*
X1431Y1042D02*
X1469Y1042D01*
X476Y1041D02*
X515Y1041D01*
X534Y1041D02*
X571Y1041D01*
X1373Y1041D02*
X1411Y1041D01*
X1430Y1041D02*
X1468Y1041D01*
X476Y1040D02*
X516Y1040D01*
X532Y1040D02*
X571Y1040D01*
X1373Y1040D02*
X1413Y1040D01*
X1428Y1040D02*
X1468Y1040D01*
X477Y1039D02*
X519Y1039D01*
X529Y1039D02*
X570Y1039D01*
X1374Y1039D02*
X1415Y1039D01*
X1426Y1039D02*
X1467Y1039D01*
X478Y1038D02*
X569Y1038D01*
X1375Y1038D02*
X1466Y1038D01*
X478Y1037D02*
X568Y1037D01*
X1375Y1037D02*
X1465Y1037D01*
X479Y1036D02*
X567Y1036D01*
X1376Y1036D02*
X1464Y1036D01*
X480Y1035D02*
X566Y1035D01*
X1377Y1035D02*
X1463Y1035D01*
X482Y1034D02*
X565Y1034D01*
X1379Y1034D02*
X1462Y1034D01*
X483Y1033D02*
X564Y1033D01*
X1380Y1033D02*
X1461Y1033D01*
X484Y1032D02*
X562Y1032D01*
X1381Y1032D02*
X1459Y1032D01*
X486Y1031D02*
X560Y1031D01*
X1383Y1031D02*
X1457Y1031D01*
X488Y1030D02*
X559Y1030D01*
X1385Y1030D02*
X1455Y1030D01*
X491Y1029D02*
X555Y1029D01*
X1388Y1029D02*
X1452Y1029D01*
X495Y980D02*
X551Y980D01*
X1392Y980D02*
X1448Y980D01*
X490Y979D02*
X556Y979D01*
X1387Y979D02*
X1453Y979D01*
X488Y978D02*
X559Y978D01*
X1385Y978D02*
X1456Y978D01*
X486Y977D02*
X561Y977D01*
X1383Y977D02*
X1458Y977D01*
X484Y976D02*
X563Y976D01*
X1381Y976D02*
X1460Y976D01*
X483Y975D02*
X564Y975D01*
X1379Y975D02*
X1461Y975D01*
X481Y974D02*
X565Y974D01*
X1378Y974D02*
X1462Y974D01*
X480Y973D02*
X567Y973D01*
X1377Y973D02*
X1464Y973D01*
X479Y972D02*
X568Y972D01*
X1376Y972D02*
X1465Y972D01*
X478Y971D02*
X568Y971D01*
X1375Y971D02*
X1465Y971D01*
X477Y970D02*
X522Y970D01*
X526Y970D02*
X569Y970D01*
X1374Y970D02*
X1418Y970D01*
X1423Y970D02*
X1466Y970D01*
X477Y969D02*
X518Y969D01*
X531Y969D02*
X570Y969D01*
X1374Y969D02*
X1414Y969D01*
X1427Y969D02*
X1467Y969D01*
X476Y968D02*
X516Y968D01*
X533Y968D02*
X571Y968D01*
X1373Y968D02*
X1412Y968D01*
X1429Y968D02*
X1468Y968D01*
X475Y967D02*
X514Y967D01*
X534Y967D02*
X571Y967D01*
X1372Y967D02*
X1410Y967D01*
X1430Y967D02*
X1468Y967D01*
X475Y966D02*
X513Y966D01*
X535Y966D02*
X572Y966D01*
X1372Y966D02*
X1409Y966D01*
X1431Y966D02*
X1469Y966D01*
X474Y965D02*
X512Y965D01*
X536Y965D02*
X572Y965D01*
X1371Y965D02*
X1408Y965D01*
X1433Y965D02*
X1469Y965D01*
X474Y964D02*
X511Y964D01*
X537Y964D02*
X573Y964D01*
X1371Y964D02*
X1407Y964D01*
X1433Y964D02*
X1470Y964D01*
X473Y963D02*
X510Y963D01*
X538Y963D02*
X573Y963D01*
X1370Y963D02*
X1406Y963D01*
X1434Y963D02*
X1470Y963D01*
X473Y962D02*
X510Y962D01*
X538Y962D02*
X574Y962D01*
X1370Y962D02*
X1406Y962D01*
X1435Y962D02*
X1471Y962D01*
X473Y961D02*
X509Y961D01*
X539Y961D02*
X574Y961D01*
X1370Y961D02*
X1405Y961D01*
X1435Y961D02*
X1471Y961D01*
X473Y960D02*
X509Y960D01*
X539Y960D02*
X574Y960D01*
X1370Y960D02*
X1405Y960D01*
X1436Y960D02*
X1471Y960D01*
X472Y959D02*
X508Y959D01*
X540Y959D02*
X574Y959D01*
X1369Y959D02*
X1405Y959D01*
X1436Y959D02*
X1471Y959D01*
X472Y958D02*
X508Y958D01*
X540Y958D02*
X575Y958D01*
X1369Y958D02*
X1404Y958D01*
X1436Y958D02*
X1471Y958D01*
X472Y957D02*
X508Y957D01*
X540Y957D02*
X575Y957D01*
X1369Y957D02*
X1404Y957D01*
X1436Y957D02*
X1472Y957D01*
X472Y956D02*
X508Y956D01*
X540Y956D02*
X575Y956D01*
X1369Y956D02*
X1404Y956D01*
X1437Y956D02*
X1472Y956D01*
X472Y955D02*
X508Y955D01*
X541Y955D02*
X575Y955D01*
X1369Y955D02*
X1404Y955D01*
X1437Y955D02*
X1472Y955D01*
X472Y954D02*
X508Y954D01*
X541Y954D02*
X575Y954D01*
X1369Y954D02*
X1404Y954D01*
X1437Y954D02*
X1472Y954D01*
X472Y953D02*
X508Y953D01*
X540Y953D02*
X575Y953D01*
X1369Y953D02*
X1404Y953D01*
X1437Y953D02*
X1472Y953D01*
X472Y952D02*
X508Y952D01*
X540Y952D02*
X575Y952D01*
X1369Y952D02*
X1404Y952D01*
X1437Y952D02*
X1472Y952D01*
X472Y951D02*
X508Y951D01*
X540Y951D02*
X575Y951D01*
X1369Y951D02*
X1404Y951D01*
X1436Y951D02*
X1472Y951D01*
X472Y950D02*
X508Y950D01*
X540Y950D02*
X574Y950D01*
X1369Y950D02*
X1404Y950D01*
X1436Y950D02*
X1471Y950D01*
X472Y949D02*
X509Y949D01*
X540Y949D02*
X574Y949D01*
X1369Y949D02*
X1405Y949D01*
X1436Y949D02*
X1471Y949D01*
X473Y948D02*
X509Y948D01*
X539Y948D02*
X574Y948D01*
X1370Y948D02*
X1405Y948D01*
X1435Y948D02*
X1471Y948D01*
X473Y947D02*
X509Y947D01*
X539Y947D02*
X574Y947D01*
X1370Y947D02*
X1406Y947D01*
X1435Y947D02*
X1471Y947D01*
X473Y946D02*
X510Y946D01*
X538Y946D02*
X574Y946D01*
X1370Y946D02*
X1406Y946D01*
X1434Y946D02*
X1470Y946D01*
X474Y945D02*
X511Y945D01*
X538Y945D02*
X573Y945D01*
X1371Y945D02*
X1407Y945D01*
X1434Y945D02*
X1470Y945D01*
X474Y944D02*
X511Y944D01*
X537Y944D02*
X573Y944D01*
X1371Y944D02*
X1408Y944D01*
X1433Y944D02*
X1470Y944D01*
X474Y943D02*
X512Y943D01*
X536Y943D02*
X572Y943D01*
X1371Y943D02*
X1408Y943D01*
X1432Y943D02*
X1469Y943D01*
X475Y942D02*
X513Y942D01*
X535Y942D02*
X572Y942D01*
X1372Y942D02*
X1410Y942D01*
X1431Y942D02*
X1469Y942D01*
X476Y941D02*
X515Y941D01*
X534Y941D02*
X571Y941D01*
X1373Y941D02*
X1411Y941D01*
X1430Y941D02*
X1468Y941D01*
X476Y940D02*
X516Y940D01*
X532Y940D02*
X571Y940D01*
X1373Y940D02*
X1413Y940D01*
X1428Y940D02*
X1468Y940D01*
X477Y939D02*
X519Y939D01*
X529Y939D02*
X570Y939D01*
X1374Y939D02*
X1415Y939D01*
X1426Y939D02*
X1467Y939D01*
X478Y938D02*
X569Y938D01*
X1375Y938D02*
X1466Y938D01*
X478Y937D02*
X568Y937D01*
X1375Y937D02*
X1465Y937D01*
X479Y936D02*
X567Y936D01*
X1376Y936D02*
X1464Y936D01*
X480Y935D02*
X566Y935D01*
X1377Y935D02*
X1463Y935D01*
X482Y934D02*
X565Y934D01*
X1379Y934D02*
X1462Y934D01*
X483Y933D02*
X564Y933D01*
X1380Y933D02*
X1461Y933D01*
X484Y932D02*
X562Y932D01*
X1381Y932D02*
X1459Y932D01*
X486Y931D02*
X560Y931D01*
X1383Y931D02*
X1457Y931D01*
X488Y930D02*
X558Y930D01*
X1385Y930D02*
X1455Y930D01*
X491Y929D02*
X555Y929D01*
X1388Y929D02*
X1452Y929D01*
X495Y880D02*
X551Y880D01*
X1392Y880D02*
X1448Y880D01*
X490Y879D02*
X556Y879D01*
X1387Y879D02*
X1453Y879D01*
X488Y878D02*
X559Y878D01*
X1385Y878D02*
X1456Y878D01*
X486Y877D02*
X561Y877D01*
X1383Y877D02*
X1458Y877D01*
X484Y876D02*
X563Y876D01*
X1381Y876D02*
X1460Y876D01*
X483Y875D02*
X564Y875D01*
X1379Y875D02*
X1461Y875D01*
X481Y874D02*
X565Y874D01*
X1378Y874D02*
X1462Y874D01*
X480Y873D02*
X567Y873D01*
X1377Y873D02*
X1464Y873D01*
X479Y872D02*
X568Y872D01*
X1376Y872D02*
X1465Y872D01*
X478Y871D02*
X568Y871D01*
X1375Y871D02*
X1465Y871D01*
X477Y870D02*
X522Y870D01*
X527Y870D02*
X569Y870D01*
X1374Y870D02*
X1417Y870D01*
X1423Y870D02*
X1466Y870D01*
X477Y869D02*
X518Y869D01*
X531Y869D02*
X570Y869D01*
X1374Y869D02*
X1414Y869D01*
X1427Y869D02*
X1467Y869D01*
X476Y868D02*
X516Y868D01*
X533Y868D02*
X571Y868D01*
X1373Y868D02*
X1411Y868D01*
X1429Y868D02*
X1468Y868D01*
X475Y867D02*
X514Y867D01*
X534Y867D02*
X571Y867D01*
X1372Y867D02*
X1410Y867D01*
X1431Y867D02*
X1468Y867D01*
X475Y866D02*
X513Y866D01*
X535Y866D02*
X572Y866D01*
X1372Y866D02*
X1409Y866D01*
X1432Y866D02*
X1469Y866D01*
X474Y865D02*
X512Y865D01*
X536Y865D02*
X572Y865D01*
X1371Y865D02*
X1408Y865D01*
X1433Y865D02*
X1469Y865D01*
X474Y864D02*
X511Y864D01*
X537Y864D02*
X573Y864D01*
X1371Y864D02*
X1407Y864D01*
X1434Y864D02*
X1470Y864D01*
X473Y863D02*
X510Y863D01*
X538Y863D02*
X573Y863D01*
X1370Y863D02*
X1406Y863D01*
X1434Y863D02*
X1470Y863D01*
X473Y862D02*
X510Y862D01*
X539Y862D02*
X574Y862D01*
X1370Y862D02*
X1406Y862D01*
X1435Y862D02*
X1471Y862D01*
X473Y861D02*
X509Y861D01*
X539Y861D02*
X574Y861D01*
X1370Y861D02*
X1405Y861D01*
X1435Y861D02*
X1471Y861D01*
X473Y860D02*
X509Y860D01*
X539Y860D02*
X574Y860D01*
X1370Y860D02*
X1405Y860D01*
X1436Y860D02*
X1471Y860D01*
X472Y859D02*
X508Y859D01*
X540Y859D02*
X574Y859D01*
X1369Y859D02*
X1404Y859D01*
X1436Y859D02*
X1471Y859D01*
X472Y858D02*
X508Y858D01*
X540Y858D02*
X575Y858D01*
X1369Y858D02*
X1404Y858D01*
X1437Y858D02*
X1471Y858D01*
X472Y857D02*
X508Y857D01*
X540Y857D02*
X575Y857D01*
X1369Y857D02*
X1404Y857D01*
X1437Y857D02*
X1472Y857D01*
X472Y856D02*
X508Y856D01*
X540Y856D02*
X575Y856D01*
X1369Y856D02*
X1404Y856D01*
X1437Y856D02*
X1472Y856D01*
X472Y855D02*
X508Y855D01*
X541Y855D02*
X575Y855D01*
X1369Y855D02*
X1404Y855D01*
X1437Y855D02*
X1472Y855D01*
X472Y854D02*
X508Y854D01*
X541Y854D02*
X575Y854D01*
X1369Y854D02*
X1404Y854D01*
X1437Y854D02*
X1472Y854D01*
X472Y853D02*
X508Y853D01*
X540Y853D02*
X575Y853D01*
X1369Y853D02*
X1404Y853D01*
X1437Y853D02*
X1472Y853D01*
X472Y852D02*
X508Y852D01*
X540Y852D02*
X575Y852D01*
X1369Y852D02*
X1404Y852D01*
X1437Y852D02*
X1472Y852D01*
X472Y851D02*
X508Y851D01*
X540Y851D02*
X575Y851D01*
X1369Y851D02*
X1404Y851D01*
X1437Y851D02*
X1472Y851D01*
X472Y850D02*
X508Y850D01*
X540Y850D02*
X574Y850D01*
X1369Y850D02*
X1404Y850D01*
X1436Y850D02*
X1471Y850D01*
X472Y849D02*
X509Y849D01*
X540Y849D02*
X574Y849D01*
X1369Y849D02*
X1404Y849D01*
X1436Y849D02*
X1471Y849D01*
X473Y848D02*
X509Y848D01*
X539Y848D02*
X574Y848D01*
X1370Y848D02*
X1405Y848D01*
X1436Y848D02*
X1471Y848D01*
X473Y847D02*
X509Y847D01*
X539Y847D02*
X574Y847D01*
X1370Y847D02*
X1405Y847D01*
X1435Y847D02*
X1471Y847D01*
X473Y846D02*
X510Y846D01*
X538Y846D02*
X574Y846D01*
X1370Y846D02*
X1406Y846D01*
X1435Y846D02*
X1470Y846D01*
X474Y845D02*
X511Y845D01*
X538Y845D02*
X573Y845D01*
X1371Y845D02*
X1407Y845D01*
X1434Y845D02*
X1470Y845D01*
X474Y844D02*
X511Y844D01*
X537Y844D02*
X573Y844D01*
X1371Y844D02*
X1407Y844D01*
X1433Y844D02*
X1470Y844D01*
X474Y843D02*
X512Y843D01*
X536Y843D02*
X572Y843D01*
X1371Y843D02*
X1408Y843D01*
X1432Y843D02*
X1469Y843D01*
X475Y842D02*
X513Y842D01*
X535Y842D02*
X572Y842D01*
X1372Y842D02*
X1409Y842D01*
X1431Y842D02*
X1469Y842D01*
X476Y841D02*
X515Y841D01*
X534Y841D02*
X571Y841D01*
X1373Y841D02*
X1411Y841D01*
X1430Y841D02*
X1468Y841D01*
X476Y840D02*
X516Y840D01*
X532Y840D02*
X571Y840D01*
X1373Y840D02*
X1412Y840D01*
X1428Y840D02*
X1468Y840D01*
X477Y839D02*
X519Y839D01*
X529Y839D02*
X570Y839D01*
X1374Y839D02*
X1415Y839D01*
X1426Y839D02*
X1467Y839D01*
X478Y838D02*
X569Y838D01*
X1375Y838D02*
X1466Y838D01*
X478Y837D02*
X568Y837D01*
X1375Y837D02*
X1465Y837D01*
X479Y836D02*
X567Y836D01*
X1376Y836D02*
X1464Y836D01*
X480Y835D02*
X566Y835D01*
X1377Y835D02*
X1463Y835D01*
X482Y834D02*
X565Y834D01*
X1379Y834D02*
X1462Y834D01*
X483Y833D02*
X564Y833D01*
X1380Y833D02*
X1461Y833D01*
X484Y832D02*
X562Y832D01*
X1381Y832D02*
X1459Y832D01*
X486Y831D02*
X560Y831D01*
X1383Y831D02*
X1457Y831D01*
X488Y830D02*
X558Y830D01*
X1385Y830D02*
X1455Y830D01*
X491Y829D02*
X555Y829D01*
X1388Y829D02*
X1452Y829D01*
X495Y780D02*
X552Y780D01*
X1392Y780D02*
X1449Y780D01*
X490Y779D02*
X556Y779D01*
X1387Y779D02*
X1453Y779D01*
X488Y778D02*
X559Y778D01*
X1385Y778D02*
X1456Y778D01*
X486Y777D02*
X561Y777D01*
X1383Y777D02*
X1458Y777D01*
X484Y776D02*
X563Y776D01*
X1381Y776D02*
X1460Y776D01*
X482Y775D02*
X564Y775D01*
X1379Y775D02*
X1461Y775D01*
X481Y774D02*
X565Y774D01*
X1378Y774D02*
X1462Y774D01*
X480Y773D02*
X567Y773D01*
X1377Y773D02*
X1464Y773D01*
X479Y772D02*
X568Y772D01*
X1376Y772D02*
X1465Y772D01*
X478Y771D02*
X568Y771D01*
X1375Y771D02*
X1465Y771D01*
X477Y770D02*
X521Y770D01*
X527Y770D02*
X569Y770D01*
X1374Y770D02*
X1417Y770D01*
X1423Y770D02*
X1466Y770D01*
X477Y769D02*
X518Y769D01*
X531Y769D02*
X570Y769D01*
X1374Y769D02*
X1414Y769D01*
X1427Y769D02*
X1467Y769D01*
X476Y768D02*
X515Y768D01*
X533Y768D02*
X571Y768D01*
X1373Y768D02*
X1412Y768D01*
X1429Y768D02*
X1468Y768D01*
X475Y767D02*
X514Y767D01*
X534Y767D02*
X571Y767D01*
X1372Y767D02*
X1410Y767D01*
X1430Y767D02*
X1468Y767D01*
X475Y766D02*
X513Y766D01*
X535Y766D02*
X572Y766D01*
X1372Y766D02*
X1409Y766D01*
X1432Y766D02*
X1469Y766D01*
X474Y765D02*
X512Y765D01*
X536Y765D02*
X572Y765D01*
X1371Y765D02*
X1408Y765D01*
X1433Y765D02*
X1469Y765D01*
X474Y764D02*
X511Y764D01*
X537Y764D02*
X573Y764D01*
X1371Y764D02*
X1407Y764D01*
X1433Y764D02*
X1470Y764D01*
X473Y763D02*
X510Y763D01*
X538Y763D02*
X573Y763D01*
X1370Y763D02*
X1406Y763D01*
X1434Y763D02*
X1470Y763D01*
X473Y762D02*
X510Y762D01*
X539Y762D02*
X574Y762D01*
X1370Y762D02*
X1406Y762D01*
X1435Y762D02*
X1471Y762D01*
X473Y761D02*
X509Y761D01*
X539Y761D02*
X574Y761D01*
X1370Y761D02*
X1405Y761D01*
X1435Y761D02*
X1471Y761D01*
X473Y760D02*
X509Y760D01*
X540Y760D02*
X574Y760D01*
X1370Y760D02*
X1405Y760D01*
X1436Y760D02*
X1471Y760D01*
X472Y759D02*
X508Y759D01*
X540Y759D02*
X574Y759D01*
X1369Y759D02*
X1405Y759D01*
X1436Y759D02*
X1471Y759D01*
X472Y758D02*
X508Y758D01*
X540Y758D02*
X575Y758D01*
X1369Y758D02*
X1404Y758D01*
X1436Y758D02*
X1471Y758D01*
X472Y757D02*
X508Y757D01*
X540Y757D02*
X575Y757D01*
X1369Y757D02*
X1404Y757D01*
X1437Y757D02*
X1472Y757D01*
X472Y756D02*
X508Y756D01*
X541Y756D02*
X575Y756D01*
X1369Y756D02*
X1404Y756D01*
X1437Y756D02*
X1472Y756D01*
X472Y755D02*
X508Y755D01*
X541Y755D02*
X575Y755D01*
X1369Y755D02*
X1404Y755D01*
X1437Y755D02*
X1472Y755D01*
X472Y754D02*
X508Y754D01*
X541Y754D02*
X575Y754D01*
X1369Y754D02*
X1404Y754D01*
X1437Y754D02*
X1472Y754D01*
X472Y753D02*
X508Y753D01*
X541Y753D02*
X575Y753D01*
X1369Y753D02*
X1404Y753D01*
X1437Y753D02*
X1472Y753D01*
X472Y752D02*
X508Y752D01*
X540Y752D02*
X575Y752D01*
X1369Y752D02*
X1404Y752D01*
X1437Y752D02*
X1472Y752D01*
X472Y751D02*
X508Y751D01*
X540Y751D02*
X575Y751D01*
X1369Y751D02*
X1404Y751D01*
X1436Y751D02*
X1472Y751D01*
X472Y750D02*
X508Y750D01*
X540Y750D02*
X574Y750D01*
X1369Y750D02*
X1404Y750D01*
X1436Y750D02*
X1471Y750D01*
X472Y749D02*
X508Y749D01*
X540Y749D02*
X574Y749D01*
X1369Y749D02*
X1405Y749D01*
X1436Y749D02*
X1471Y749D01*
X473Y748D02*
X509Y748D01*
X539Y748D02*
X574Y748D01*
X1370Y748D02*
X1405Y748D01*
X1436Y748D02*
X1471Y748D01*
X473Y747D02*
X509Y747D01*
X539Y747D02*
X574Y747D01*
X1370Y747D02*
X1406Y747D01*
X1435Y747D02*
X1471Y747D01*
X473Y746D02*
X510Y746D01*
X538Y746D02*
X574Y746D01*
X1370Y746D02*
X1406Y746D01*
X1435Y746D02*
X1470Y746D01*
X474Y745D02*
X511Y745D01*
X538Y745D02*
X573Y745D01*
X1371Y745D02*
X1407Y745D01*
X1434Y745D02*
X1470Y745D01*
X474Y744D02*
X511Y744D01*
X537Y744D02*
X573Y744D01*
X1371Y744D02*
X1407Y744D01*
X1433Y744D02*
X1470Y744D01*
X474Y743D02*
X512Y743D01*
X536Y743D02*
X572Y743D01*
X1371Y743D02*
X1408Y743D01*
X1432Y743D02*
X1469Y743D01*
X475Y742D02*
X513Y742D01*
X535Y742D02*
X572Y742D01*
X1372Y742D02*
X1409Y742D01*
X1431Y742D02*
X1469Y742D01*
X476Y741D02*
X515Y741D01*
X534Y741D02*
X571Y741D01*
X1373Y741D02*
X1411Y741D01*
X1430Y741D02*
X1468Y741D01*
X476Y740D02*
X516Y740D01*
X532Y740D02*
X571Y740D01*
X1373Y740D02*
X1413Y740D01*
X1428Y740D02*
X1468Y740D01*
X477Y739D02*
X519Y739D01*
X529Y739D02*
X570Y739D01*
X1374Y739D02*
X1415Y739D01*
X1426Y739D02*
X1467Y739D01*
X478Y738D02*
X569Y738D01*
X1375Y738D02*
X1466Y738D01*
X478Y737D02*
X568Y737D01*
X1375Y737D02*
X1465Y737D01*
X479Y736D02*
X567Y736D01*
X1376Y736D02*
X1464Y736D01*
X480Y735D02*
X566Y735D01*
X1377Y735D02*
X1463Y735D01*
X482Y734D02*
X565Y734D01*
X1379Y734D02*
X1462Y734D01*
X483Y733D02*
X564Y733D01*
X1380Y733D02*
X1461Y733D01*
X484Y732D02*
X562Y732D01*
X1381Y732D02*
X1459Y732D01*
X486Y731D02*
X560Y731D01*
X1383Y731D02*
X1457Y731D01*
X488Y730D02*
X558Y730D01*
X1385Y730D02*
X1455Y730D01*
X491Y729D02*
X555Y729D01*
X1388Y729D02*
X1452Y729D01*
X495Y680D02*
X552Y680D01*
X1392Y680D02*
X1449Y680D01*
X490Y679D02*
X557Y679D01*
X1387Y679D02*
X1453Y679D01*
X488Y678D02*
X559Y678D01*
X1385Y678D02*
X1456Y678D01*
X486Y677D02*
X561Y677D01*
X1383Y677D02*
X1458Y677D01*
X484Y676D02*
X563Y676D01*
X1381Y676D02*
X1460Y676D01*
X482Y675D02*
X564Y675D01*
X1379Y675D02*
X1461Y675D01*
X481Y674D02*
X565Y674D01*
X1378Y674D02*
X1462Y674D01*
X480Y673D02*
X567Y673D01*
X1377Y673D02*
X1464Y673D01*
X479Y672D02*
X568Y672D01*
X1376Y672D02*
X1465Y672D01*
X478Y671D02*
X568Y671D01*
X1375Y671D02*
X1465Y671D01*
X477Y670D02*
X521Y670D01*
X527Y670D02*
X569Y670D01*
X1374Y670D02*
X1418Y670D01*
X1423Y670D02*
X1466Y670D01*
X477Y669D02*
X518Y669D01*
X531Y669D02*
X570Y669D01*
X1374Y669D02*
X1414Y669D01*
X1427Y669D02*
X1467Y669D01*
X476Y668D02*
X516Y668D01*
X533Y668D02*
X571Y668D01*
X1373Y668D02*
X1412Y668D01*
X1429Y668D02*
X1468Y668D01*
X475Y667D02*
X514Y667D01*
X534Y667D02*
X571Y667D01*
X1372Y667D02*
X1410Y667D01*
X1430Y667D02*
X1468Y667D01*
X475Y666D02*
X513Y666D01*
X535Y666D02*
X572Y666D01*
X1372Y666D02*
X1409Y666D01*
X1432Y666D02*
X1469Y666D01*
X474Y665D02*
X512Y665D01*
X536Y665D02*
X572Y665D01*
X1371Y665D02*
X1408Y665D01*
X1433Y665D02*
X1469Y665D01*
X474Y664D02*
X511Y664D01*
X537Y664D02*
X573Y664D01*
X1371Y664D02*
X1407Y664D01*
X1433Y664D02*
X1470Y664D01*
X473Y663D02*
X510Y663D01*
X538Y663D02*
X573Y663D01*
X1370Y663D02*
X1406Y663D01*
X1434Y663D02*
X1470Y663D01*
X473Y662D02*
X510Y662D01*
X539Y662D02*
X574Y662D01*
X1370Y662D02*
X1406Y662D01*
X1435Y662D02*
X1471Y662D01*
X473Y661D02*
X509Y661D01*
X539Y661D02*
X574Y661D01*
X1370Y661D02*
X1405Y661D01*
X1435Y661D02*
X1471Y661D01*
X473Y660D02*
X509Y660D01*
X539Y660D02*
X574Y660D01*
X1370Y660D02*
X1405Y660D01*
X1436Y660D02*
X1471Y660D01*
X472Y659D02*
X508Y659D01*
X540Y659D02*
X574Y659D01*
X1369Y659D02*
X1405Y659D01*
X1436Y659D02*
X1471Y659D01*
X472Y658D02*
X508Y658D01*
X540Y658D02*
X575Y658D01*
X1369Y658D02*
X1404Y658D01*
X1436Y658D02*
X1471Y658D01*
X472Y657D02*
X508Y657D01*
X540Y657D02*
X575Y657D01*
X1369Y657D02*
X1404Y657D01*
X1436Y657D02*
X1472Y657D01*
X472Y656D02*
X508Y656D01*
X540Y656D02*
X575Y656D01*
X1369Y656D02*
X1404Y656D01*
X1437Y656D02*
X1472Y656D01*
X472Y655D02*
X508Y655D01*
X541Y655D02*
X575Y655D01*
X1369Y655D02*
X1404Y655D01*
X1437Y655D02*
X1472Y655D01*
X472Y654D02*
X508Y654D01*
X541Y654D02*
X575Y654D01*
X1369Y654D02*
X1404Y654D01*
X1437Y654D02*
X1472Y654D01*
X472Y653D02*
X508Y653D01*
X540Y653D02*
X575Y653D01*
X1369Y653D02*
X1404Y653D01*
X1437Y653D02*
X1472Y653D01*
X472Y652D02*
X508Y652D01*
X540Y652D02*
X575Y652D01*
X1369Y652D02*
X1404Y652D01*
X1437Y652D02*
X1472Y652D01*
X472Y651D02*
X508Y651D01*
X540Y651D02*
X575Y651D01*
X1369Y651D02*
X1404Y651D01*
X1436Y651D02*
X1472Y651D01*
X472Y650D02*
X508Y650D01*
X540Y650D02*
X574Y650D01*
X1369Y650D02*
X1404Y650D01*
X1436Y650D02*
X1471Y650D01*
X472Y649D02*
X509Y649D01*
X540Y649D02*
X574Y649D01*
X1369Y649D02*
X1405Y649D01*
X1436Y649D02*
X1471Y649D01*
X473Y648D02*
X509Y648D01*
X539Y648D02*
X574Y648D01*
X1370Y648D02*
X1405Y648D01*
X1435Y648D02*
X1471Y648D01*
X473Y647D02*
X509Y647D01*
X539Y647D02*
X574Y647D01*
X1370Y647D02*
X1406Y647D01*
X1435Y647D02*
X1471Y647D01*
X473Y646D02*
X510Y646D01*
X538Y646D02*
X574Y646D01*
X1370Y646D02*
X1406Y646D01*
X1434Y646D02*
X1470Y646D01*
X474Y645D02*
X511Y645D01*
X538Y645D02*
X573Y645D01*
X1371Y645D02*
X1407Y645D01*
X1434Y645D02*
X1470Y645D01*
X474Y644D02*
X511Y644D01*
X537Y644D02*
X573Y644D01*
X1371Y644D02*
X1408Y644D01*
X1433Y644D02*
X1470Y644D01*
X475Y643D02*
X512Y643D01*
X536Y643D02*
X572Y643D01*
X1371Y643D02*
X1408Y643D01*
X1432Y643D02*
X1469Y643D01*
X475Y642D02*
X513Y642D01*
X535Y642D02*
X572Y642D01*
X1372Y642D02*
X1410Y642D01*
X1431Y642D02*
X1469Y642D01*
X476Y641D02*
X515Y641D01*
X534Y641D02*
X571Y641D01*
X1373Y641D02*
X1411Y641D01*
X1430Y641D02*
X1468Y641D01*
X476Y640D02*
X516Y640D01*
X532Y640D02*
X571Y640D01*
X1373Y640D02*
X1413Y640D01*
X1428Y640D02*
X1468Y640D01*
X477Y639D02*
X519Y639D01*
X529Y639D02*
X570Y639D01*
X1374Y639D02*
X1415Y639D01*
X1425Y639D02*
X1467Y639D01*
X478Y638D02*
X569Y638D01*
X1375Y638D02*
X1466Y638D01*
X479Y637D02*
X568Y637D01*
X1375Y637D02*
X1465Y637D01*
X479Y636D02*
X567Y636D01*
X1376Y636D02*
X1464Y636D01*
X480Y635D02*
X566Y635D01*
X1377Y635D02*
X1463Y635D01*
X482Y634D02*
X565Y634D01*
X1379Y634D02*
X1462Y634D01*
X483Y633D02*
X564Y633D01*
X1380Y633D02*
X1461Y633D01*
X485Y632D02*
X562Y632D01*
X1381Y632D02*
X1459Y632D01*
X486Y631D02*
X560Y631D01*
X1383Y631D02*
X1457Y631D01*
X488Y630D02*
X558Y630D01*
X1385Y630D02*
X1455Y630D01*
X492Y629D02*
X555Y629D01*
X1389Y629D02*
X1452Y629D01*
X495Y580D02*
X552Y580D01*
X1392Y580D02*
X1449Y580D01*
X490Y579D02*
X557Y579D01*
X1387Y579D02*
X1453Y579D01*
X488Y578D02*
X559Y578D01*
X1384Y578D02*
X1456Y578D01*
X486Y577D02*
X561Y577D01*
X1383Y577D02*
X1458Y577D01*
X484Y576D02*
X563Y576D01*
X1381Y576D02*
X1460Y576D01*
X482Y575D02*
X564Y575D01*
X1379Y575D02*
X1461Y575D01*
X481Y574D02*
X565Y574D01*
X1378Y574D02*
X1462Y574D01*
X480Y573D02*
X567Y573D01*
X1377Y573D02*
X1464Y573D01*
X479Y572D02*
X568Y572D01*
X1376Y572D02*
X1465Y572D01*
X478Y571D02*
X569Y571D01*
X1375Y571D02*
X1465Y571D01*
X477Y570D02*
X521Y570D01*
X527Y570D02*
X569Y570D01*
X1374Y570D02*
X1417Y570D01*
X1423Y570D02*
X1466Y570D01*
X477Y569D02*
X518Y569D01*
X531Y569D02*
X570Y569D01*
X1374Y569D02*
X1414Y569D01*
X1427Y569D02*
X1467Y569D01*
X476Y568D02*
X516Y568D01*
X533Y568D02*
X571Y568D01*
X1373Y568D02*
X1412Y568D01*
X1429Y568D02*
X1468Y568D01*
X475Y567D02*
X514Y567D01*
X534Y567D02*
X571Y567D01*
X1372Y567D02*
X1410Y567D01*
X1430Y567D02*
X1468Y567D01*
X475Y566D02*
X513Y566D01*
X535Y566D02*
X572Y566D01*
X1372Y566D02*
X1409Y566D01*
X1432Y566D02*
X1469Y566D01*
X474Y565D02*
X512Y565D01*
X536Y565D02*
X572Y565D01*
X1371Y565D02*
X1408Y565D01*
X1433Y565D02*
X1469Y565D01*
X474Y564D02*
X511Y564D01*
X537Y564D02*
X573Y564D01*
X1371Y564D02*
X1407Y564D01*
X1433Y564D02*
X1470Y564D01*
X473Y563D02*
X510Y563D01*
X538Y563D02*
X573Y563D01*
X1370Y563D02*
X1406Y563D01*
X1434Y563D02*
X1470Y563D01*
X473Y562D02*
X510Y562D01*
X539Y562D02*
X574Y562D01*
X1370Y562D02*
X1406Y562D01*
X1435Y562D02*
X1471Y562D01*
X473Y561D02*
X509Y561D01*
X539Y561D02*
X574Y561D01*
X1370Y561D02*
X1405Y561D01*
X1435Y561D02*
X1471Y561D01*
X473Y560D02*
X509Y560D01*
X540Y560D02*
X574Y560D01*
X1370Y560D02*
X1405Y560D01*
X1436Y560D02*
X1471Y560D01*
X472Y559D02*
X508Y559D01*
X540Y559D02*
X574Y559D01*
X1369Y559D02*
X1405Y559D01*
X1436Y559D02*
X1471Y559D01*
X472Y558D02*
X508Y558D01*
X540Y558D02*
X575Y558D01*
X1369Y558D02*
X1404Y558D01*
X1436Y558D02*
X1471Y558D01*
X472Y557D02*
X508Y557D01*
X540Y557D02*
X575Y557D01*
X1369Y557D02*
X1404Y557D01*
X1436Y557D02*
X1472Y557D01*
X472Y556D02*
X508Y556D01*
X540Y556D02*
X575Y556D01*
X1369Y556D02*
X1404Y556D01*
X1437Y556D02*
X1472Y556D01*
X472Y555D02*
X508Y555D01*
X541Y555D02*
X575Y555D01*
X1369Y555D02*
X1404Y555D01*
X1437Y555D02*
X1472Y555D01*
X472Y554D02*
X508Y554D01*
X541Y554D02*
X575Y554D01*
X1369Y554D02*
X1404Y554D01*
X1437Y554D02*
X1472Y554D01*
X472Y553D02*
X508Y553D01*
X540Y553D02*
X575Y553D01*
X1369Y553D02*
X1404Y553D01*
X1437Y553D02*
X1472Y553D01*
X472Y552D02*
X508Y552D01*
X540Y552D02*
X575Y552D01*
X1369Y552D02*
X1404Y552D01*
X1437Y552D02*
X1472Y552D01*
X472Y551D02*
X508Y551D01*
X540Y551D02*
X575Y551D01*
X1369Y551D02*
X1404Y551D01*
X1436Y551D02*
X1472Y551D01*
X472Y550D02*
X508Y550D01*
X540Y550D02*
X574Y550D01*
X1369Y550D02*
X1404Y550D01*
X1436Y550D02*
X1471Y550D01*
X472Y549D02*
X509Y549D01*
X540Y549D02*
X574Y549D01*
X1369Y549D02*
X1405Y549D01*
X1436Y549D02*
X1471Y549D01*
X473Y548D02*
X509Y548D01*
X539Y548D02*
X574Y548D01*
X1370Y548D02*
X1405Y548D01*
X1435Y548D02*
X1471Y548D01*
X473Y547D02*
X509Y547D01*
X539Y547D02*
X574Y547D01*
X1370Y547D02*
X1406Y547D01*
X1435Y547D02*
X1471Y547D01*
X473Y546D02*
X510Y546D01*
X538Y546D02*
X574Y546D01*
X1370Y546D02*
X1406Y546D01*
X1434Y546D02*
X1470Y546D01*
X474Y545D02*
X511Y545D01*
X538Y545D02*
X573Y545D01*
X1371Y545D02*
X1407Y545D01*
X1434Y545D02*
X1470Y545D01*
X474Y544D02*
X511Y544D01*
X537Y544D02*
X573Y544D01*
X1371Y544D02*
X1408Y544D01*
X1433Y544D02*
X1470Y544D01*
X475Y543D02*
X512Y543D01*
X536Y543D02*
X572Y543D01*
X1371Y543D02*
X1408Y543D01*
X1432Y543D02*
X1469Y543D01*
X475Y542D02*
X513Y542D01*
X535Y542D02*
X572Y542D01*
X1372Y542D02*
X1410Y542D01*
X1431Y542D02*
X1469Y542D01*
X476Y541D02*
X515Y541D01*
X534Y541D02*
X571Y541D01*
X1373Y541D02*
X1411Y541D01*
X1430Y541D02*
X1468Y541D01*
X476Y540D02*
X516Y540D01*
X532Y540D02*
X571Y540D01*
X1373Y540D02*
X1413Y540D01*
X1428Y540D02*
X1468Y540D01*
X477Y539D02*
X519Y539D01*
X529Y539D02*
X570Y539D01*
X1374Y539D02*
X1415Y539D01*
X1425Y539D02*
X1467Y539D01*
X478Y538D02*
X569Y538D01*
X1375Y538D02*
X1466Y538D01*
X479Y537D02*
X568Y537D01*
X1375Y537D02*
X1465Y537D01*
X479Y536D02*
X567Y536D01*
X1376Y536D02*
X1464Y536D01*
X480Y535D02*
X566Y535D01*
X1377Y535D02*
X1463Y535D01*
X482Y534D02*
X565Y534D01*
X1379Y534D02*
X1462Y534D01*
X483Y533D02*
X564Y533D01*
X1380Y533D02*
X1461Y533D01*
X485Y532D02*
X562Y532D01*
X1381Y532D02*
X1459Y532D01*
X486Y531D02*
X560Y531D01*
X1383Y531D02*
X1457Y531D01*
X488Y530D02*
X558Y530D01*
X1385Y530D02*
X1455Y530D01*
X492Y529D02*
X555Y529D01*
X1389Y529D02*
X1452Y529D01*
X495Y480D02*
X552Y480D01*
X1392Y480D02*
X1449Y480D01*
X490Y479D02*
X557Y479D01*
X1387Y479D02*
X1454Y479D01*
X488Y478D02*
X559Y478D01*
X1384Y478D02*
X1456Y478D01*
X486Y477D02*
X561Y477D01*
X1383Y477D02*
X1458Y477D01*
X484Y476D02*
X563Y476D01*
X1381Y476D02*
X1460Y476D01*
X482Y475D02*
X564Y475D01*
X1379Y475D02*
X1461Y475D01*
X481Y474D02*
X566Y474D01*
X1378Y474D02*
X1462Y474D01*
X480Y473D02*
X567Y473D01*
X1377Y473D02*
X1464Y473D01*
X479Y472D02*
X568Y472D01*
X1376Y472D02*
X1465Y472D01*
X478Y471D02*
X569Y471D01*
X1375Y471D02*
X1465Y471D01*
X477Y470D02*
X521Y470D01*
X527Y470D02*
X569Y470D01*
X1374Y470D02*
X1417Y470D01*
X1423Y470D02*
X1466Y470D01*
X477Y469D02*
X518Y469D01*
X531Y469D02*
X570Y469D01*
X1374Y469D02*
X1414Y469D01*
X1427Y469D02*
X1467Y469D01*
X476Y468D02*
X516Y468D01*
X533Y468D02*
X571Y468D01*
X1373Y468D02*
X1412Y468D01*
X1429Y468D02*
X1468Y468D01*
X475Y467D02*
X514Y467D01*
X534Y467D02*
X571Y467D01*
X1372Y467D02*
X1410Y467D01*
X1430Y467D02*
X1468Y467D01*
X475Y466D02*
X513Y466D01*
X535Y466D02*
X572Y466D01*
X1372Y466D02*
X1409Y466D01*
X1432Y466D02*
X1469Y466D01*
X474Y465D02*
X512Y465D01*
X536Y465D02*
X572Y465D01*
X1371Y465D02*
X1408Y465D01*
X1433Y465D02*
X1469Y465D01*
X474Y464D02*
X511Y464D01*
X537Y464D02*
X573Y464D01*
X1371Y464D02*
X1407Y464D01*
X1433Y464D02*
X1470Y464D01*
X473Y463D02*
X510Y463D01*
X538Y463D02*
X573Y463D01*
X1370Y463D02*
X1406Y463D01*
X1434Y463D02*
X1470Y463D01*
X473Y462D02*
X510Y462D01*
X539Y462D02*
X574Y462D01*
X1370Y462D02*
X1406Y462D01*
X1435Y462D02*
X1471Y462D01*
X473Y461D02*
X509Y461D01*
X539Y461D02*
X574Y461D01*
X1370Y461D02*
X1405Y461D01*
X1435Y461D02*
X1471Y461D01*
X473Y460D02*
X509Y460D01*
X539Y460D02*
X574Y460D01*
X1370Y460D02*
X1405Y460D01*
X1436Y460D02*
X1471Y460D01*
X472Y459D02*
X508Y459D01*
X540Y459D02*
X574Y459D01*
X1369Y459D02*
X1405Y459D01*
X1436Y459D02*
X1471Y459D01*
X472Y458D02*
X508Y458D01*
X540Y458D02*
X575Y458D01*
X1369Y458D02*
X1404Y458D01*
X1436Y458D02*
X1472Y458D01*
X472Y457D02*
X508Y457D01*
X540Y457D02*
X575Y457D01*
X1369Y457D02*
X1404Y457D01*
X1437Y457D02*
X1472Y457D01*
X472Y456D02*
X508Y456D01*
X540Y456D02*
X575Y456D01*
X1369Y456D02*
X1404Y456D01*
X1437Y456D02*
X1472Y456D01*
X472Y455D02*
X508Y455D01*
X541Y455D02*
X575Y455D01*
X1369Y455D02*
X1404Y455D01*
X1437Y455D02*
X1472Y455D01*
X472Y454D02*
X508Y454D01*
X541Y454D02*
X575Y454D01*
X1369Y454D02*
X1404Y454D01*
X1437Y454D02*
X1472Y454D01*
X472Y453D02*
X508Y453D01*
X540Y453D02*
X575Y453D01*
X1369Y453D02*
X1404Y453D01*
X1437Y453D02*
X1472Y453D01*
X472Y452D02*
X508Y452D01*
X540Y452D02*
X575Y452D01*
X1369Y452D02*
X1404Y452D01*
X1437Y452D02*
X1472Y452D01*
X472Y451D02*
X508Y451D01*
X540Y451D02*
X575Y451D01*
X1369Y451D02*
X1404Y451D01*
X1436Y451D02*
X1472Y451D01*
X472Y450D02*
X508Y450D01*
X540Y450D02*
X574Y450D01*
X1369Y450D02*
X1404Y450D01*
X1436Y450D02*
X1471Y450D01*
X472Y449D02*
X509Y449D01*
X540Y449D02*
X574Y449D01*
X1369Y449D02*
X1405Y449D01*
X1436Y449D02*
X1471Y449D01*
X473Y448D02*
X509Y448D01*
X539Y448D02*
X574Y448D01*
X1370Y448D02*
X1405Y448D01*
X1435Y448D02*
X1471Y448D01*
X473Y447D02*
X509Y447D01*
X539Y447D02*
X574Y447D01*
X1370Y447D02*
X1406Y447D01*
X1435Y447D02*
X1471Y447D01*
X473Y446D02*
X510Y446D01*
X538Y446D02*
X574Y446D01*
X1370Y446D02*
X1406Y446D01*
X1434Y446D02*
X1470Y446D01*
X474Y445D02*
X511Y445D01*
X538Y445D02*
X573Y445D01*
X1371Y445D02*
X1407Y445D01*
X1434Y445D02*
X1470Y445D01*
X474Y444D02*
X511Y444D01*
X537Y444D02*
X573Y444D01*
X1371Y444D02*
X1408Y444D01*
X1433Y444D02*
X1470Y444D01*
X475Y443D02*
X512Y443D01*
X536Y443D02*
X572Y443D01*
X1372Y443D02*
X1408Y443D01*
X1432Y443D02*
X1469Y443D01*
X475Y442D02*
X513Y442D01*
X535Y442D02*
X572Y442D01*
X1372Y442D02*
X1410Y442D01*
X1431Y442D02*
X1469Y442D01*
X476Y441D02*
X515Y441D01*
X534Y441D02*
X571Y441D01*
X1373Y441D02*
X1411Y441D01*
X1430Y441D02*
X1468Y441D01*
X476Y440D02*
X517Y440D01*
X532Y440D02*
X571Y440D01*
X1373Y440D02*
X1413Y440D01*
X1428Y440D02*
X1468Y440D01*
X477Y439D02*
X519Y439D01*
X529Y439D02*
X570Y439D01*
X1374Y439D02*
X1415Y439D01*
X1425Y439D02*
X1467Y439D01*
X478Y438D02*
X569Y438D01*
X1375Y438D02*
X1466Y438D01*
X479Y437D02*
X568Y437D01*
X1376Y437D02*
X1465Y437D01*
X479Y436D02*
X567Y436D01*
X1376Y436D02*
X1464Y436D01*
X481Y435D02*
X566Y435D01*
X1377Y435D02*
X1463Y435D01*
X482Y434D02*
X565Y434D01*
X1379Y434D02*
X1462Y434D01*
X483Y433D02*
X564Y433D01*
X1380Y433D02*
X1461Y433D01*
X485Y432D02*
X562Y432D01*
X1382Y432D02*
X1459Y432D01*
X486Y431D02*
X560Y431D01*
X1383Y431D02*
X1457Y431D01*
X488Y430D02*
X558Y430D01*
X1385Y430D02*
X1455Y430D01*
X492Y429D02*
X555Y429D01*
X1389Y429D02*
X1452Y429D01*
X495Y380D02*
X552Y380D01*
X1392Y380D02*
X1449Y380D01*
X490Y379D02*
X557Y379D01*
X1387Y379D02*
X1454Y379D01*
X487Y378D02*
X559Y378D01*
X1384Y378D02*
X1456Y378D01*
X486Y377D02*
X561Y377D01*
X1383Y377D02*
X1458Y377D01*
X484Y376D02*
X563Y376D01*
X1381Y376D02*
X1460Y376D01*
X482Y375D02*
X564Y375D01*
X1379Y375D02*
X1461Y375D01*
X481Y374D02*
X566Y374D01*
X1378Y374D02*
X1462Y374D01*
X480Y373D02*
X567Y373D01*
X1377Y373D02*
X1464Y373D01*
X479Y372D02*
X568Y372D01*
X1376Y372D02*
X1465Y372D01*
X478Y371D02*
X569Y371D01*
X1375Y371D02*
X1465Y371D01*
X477Y370D02*
X521Y370D01*
X528Y370D02*
X569Y370D01*
X1374Y370D02*
X1417Y370D01*
X1424Y370D02*
X1466Y370D01*
X477Y369D02*
X517Y369D01*
X531Y369D02*
X570Y369D01*
X1374Y369D02*
X1413Y369D01*
X1427Y369D02*
X1467Y369D01*
X476Y368D02*
X515Y368D01*
X533Y368D02*
X571Y368D01*
X1373Y368D02*
X1411Y368D01*
X1429Y368D02*
X1468Y368D01*
X475Y367D02*
X514Y367D01*
X535Y367D02*
X571Y367D01*
X1372Y367D02*
X1410Y367D01*
X1431Y367D02*
X1468Y367D01*
X475Y366D02*
X512Y366D01*
X536Y366D02*
X572Y366D01*
X1372Y366D02*
X1409Y366D01*
X1432Y366D02*
X1469Y366D01*
X474Y365D02*
X511Y365D01*
X537Y365D02*
X572Y365D01*
X1371Y365D02*
X1408Y365D01*
X1433Y365D02*
X1469Y365D01*
X474Y364D02*
X511Y364D01*
X538Y364D02*
X573Y364D01*
X1371Y364D02*
X1407Y364D01*
X1434Y364D02*
X1470Y364D01*
X473Y363D02*
X510Y363D01*
X538Y363D02*
X573Y363D01*
X1370Y363D02*
X1406Y363D01*
X1434Y363D02*
X1470Y363D01*
X473Y362D02*
X509Y362D01*
X539Y362D02*
X574Y362D01*
X1370Y362D02*
X1406Y362D01*
X1435Y362D02*
X1471Y362D01*
X473Y361D02*
X509Y361D01*
X539Y361D02*
X574Y361D01*
X1370Y361D02*
X1405Y361D01*
X1436Y361D02*
X1471Y361D01*
X473Y360D02*
X508Y360D01*
X540Y360D02*
X574Y360D01*
X1370Y360D02*
X1405Y360D01*
X1436Y360D02*
X1471Y360D01*
X472Y359D02*
X508Y359D01*
X540Y359D02*
X574Y359D01*
X1369Y359D02*
X1404Y359D01*
X1436Y359D02*
X1471Y359D01*
X472Y358D02*
X508Y358D01*
X540Y358D02*
X575Y358D01*
X1369Y358D02*
X1404Y358D01*
X1437Y358D02*
X1471Y358D01*
X472Y357D02*
X508Y357D01*
X541Y357D02*
X575Y357D01*
X1369Y357D02*
X1404Y357D01*
X1437Y357D02*
X1472Y357D01*
X472Y356D02*
X507Y356D01*
X541Y356D02*
X575Y356D01*
X1369Y356D02*
X1404Y356D01*
X1437Y356D02*
X1472Y356D01*
X472Y355D02*
X507Y355D01*
X541Y355D02*
X575Y355D01*
X1369Y355D02*
X1404Y355D01*
X1437Y355D02*
X1472Y355D01*
X472Y354D02*
X507Y354D01*
X541Y354D02*
X575Y354D01*
X1369Y354D02*
X1403Y354D01*
X1437Y354D02*
X1472Y354D01*
X472Y353D02*
X507Y353D01*
X541Y353D02*
X575Y353D01*
X1369Y353D02*
X1404Y353D01*
X1437Y353D02*
X1472Y353D01*
X472Y352D02*
X507Y352D01*
X541Y352D02*
X575Y352D01*
X1369Y352D02*
X1404Y352D01*
X1437Y352D02*
X1472Y352D01*
X472Y351D02*
X508Y351D01*
X541Y351D02*
X575Y351D01*
X1369Y351D02*
X1404Y351D01*
X1437Y351D02*
X1472Y351D01*
X472Y350D02*
X508Y350D01*
X540Y350D02*
X574Y350D01*
X1369Y350D02*
X1404Y350D01*
X1436Y350D02*
X1471Y350D01*
X472Y349D02*
X508Y349D01*
X540Y349D02*
X574Y349D01*
X1369Y349D02*
X1404Y349D01*
X1436Y349D02*
X1471Y349D01*
X473Y348D02*
X509Y348D01*
X540Y348D02*
X574Y348D01*
X1370Y348D02*
X1405Y348D01*
X1436Y348D02*
X1471Y348D01*
X473Y347D02*
X509Y347D01*
X539Y347D02*
X574Y347D01*
X1370Y347D02*
X1405Y347D01*
X1435Y347D02*
X1471Y347D01*
X473Y346D02*
X510Y346D01*
X539Y346D02*
X573Y346D01*
X1370Y346D02*
X1406Y346D01*
X1435Y346D02*
X1470Y346D01*
X474Y345D02*
X510Y345D01*
X538Y345D02*
X573Y345D01*
X1371Y345D02*
X1406Y345D01*
X1434Y345D02*
X1470Y345D01*
X474Y344D02*
X511Y344D01*
X537Y344D02*
X573Y344D01*
X1371Y344D02*
X1407Y344D01*
X1433Y344D02*
X1470Y344D01*
X474Y343D02*
X512Y343D01*
X536Y343D02*
X572Y343D01*
X1371Y343D02*
X1408Y343D01*
X1432Y343D02*
X1469Y343D01*
X475Y342D02*
X513Y342D01*
X535Y342D02*
X572Y342D01*
X1372Y342D02*
X1409Y342D01*
X1431Y342D02*
X1469Y342D01*
X476Y341D02*
X514Y341D01*
X534Y341D02*
X571Y341D01*
X1373Y341D02*
X1411Y341D01*
X1430Y341D02*
X1468Y341D01*
X476Y340D02*
X516Y340D01*
X532Y340D02*
X571Y340D01*
X1373Y340D02*
X1412Y340D01*
X1428Y340D02*
X1468Y340D01*
X477Y339D02*
X519Y339D01*
X530Y339D02*
X570Y339D01*
X1374Y339D02*
X1415Y339D01*
X1426Y339D02*
X1467Y339D01*
X478Y338D02*
X569Y338D01*
X1375Y338D02*
X1466Y338D01*
X478Y337D02*
X568Y337D01*
X1375Y337D02*
X1465Y337D01*
X479Y336D02*
X567Y336D01*
X1376Y336D02*
X1464Y336D01*
X480Y335D02*
X566Y335D01*
X1377Y335D02*
X1463Y335D01*
X482Y334D02*
X565Y334D01*
X1379Y334D02*
X1462Y334D01*
X483Y333D02*
X564Y333D01*
X1380Y333D02*
X1461Y333D01*
X485Y332D02*
X562Y332D01*
X1382Y332D02*
X1459Y332D01*
X486Y331D02*
X560Y331D01*
X1383Y331D02*
X1457Y331D01*
X488Y330D02*
X558Y330D01*
X1385Y330D02*
X1455Y330D01*
X492Y329D02*
X555Y329D01*
X1389Y329D02*
X1452Y329D01*
X495Y280D02*
X552Y280D01*
X1392Y280D02*
X1449Y280D01*
X490Y279D02*
X557Y279D01*
X1387Y279D02*
X1454Y279D01*
X487Y278D02*
X559Y278D01*
X1384Y278D02*
X1456Y278D01*
X486Y277D02*
X561Y277D01*
X1383Y277D02*
X1458Y277D01*
X484Y276D02*
X563Y276D01*
X1381Y276D02*
X1460Y276D01*
X482Y275D02*
X564Y275D01*
X1379Y275D02*
X1461Y275D01*
X481Y274D02*
X566Y274D01*
X1378Y274D02*
X1462Y274D01*
X480Y273D02*
X567Y273D01*
X1377Y273D02*
X1464Y273D01*
X479Y272D02*
X568Y272D01*
X1376Y272D02*
X1465Y272D01*
X478Y271D02*
X569Y271D01*
X1375Y271D02*
X1465Y271D01*
X477Y270D02*
X521Y270D01*
X528Y270D02*
X569Y270D01*
X1374Y270D02*
X1417Y270D01*
X1424Y270D02*
X1466Y270D01*
X477Y269D02*
X517Y269D01*
X531Y269D02*
X570Y269D01*
X1373Y269D02*
X1413Y269D01*
X1427Y269D02*
X1467Y269D01*
X476Y268D02*
X515Y268D01*
X533Y268D02*
X571Y268D01*
X1373Y268D02*
X1411Y268D01*
X1429Y268D02*
X1468Y268D01*
X475Y267D02*
X514Y267D01*
X534Y267D02*
X571Y267D01*
X1372Y267D02*
X1410Y267D01*
X1431Y267D02*
X1468Y267D01*
X475Y266D02*
X513Y266D01*
X536Y266D02*
X572Y266D01*
X1372Y266D02*
X1409Y266D01*
X1432Y266D02*
X1469Y266D01*
X474Y265D02*
X512Y265D01*
X537Y265D02*
X572Y265D01*
X1371Y265D02*
X1408Y265D01*
X1433Y265D02*
X1469Y265D01*
X474Y264D02*
X511Y264D01*
X537Y264D02*
X573Y264D01*
X1371Y264D02*
X1407Y264D01*
X1434Y264D02*
X1470Y264D01*
X473Y263D02*
X510Y263D01*
X538Y263D02*
X573Y263D01*
X1370Y263D02*
X1406Y263D01*
X1434Y263D02*
X1470Y263D01*
X473Y262D02*
X509Y262D01*
X539Y262D02*
X574Y262D01*
X1370Y262D02*
X1406Y262D01*
X1435Y262D02*
X1471Y262D01*
X473Y261D02*
X509Y261D01*
X539Y261D02*
X574Y261D01*
X1370Y261D02*
X1405Y261D01*
X1435Y261D02*
X1471Y261D01*
X473Y260D02*
X509Y260D01*
X540Y260D02*
X574Y260D01*
X1370Y260D02*
X1405Y260D01*
X1436Y260D02*
X1471Y260D01*
X472Y259D02*
X508Y259D01*
X540Y259D02*
X574Y259D01*
X1369Y259D02*
X1404Y259D01*
X1436Y259D02*
X1471Y259D01*
X472Y258D02*
X508Y258D01*
X540Y258D02*
X575Y258D01*
X1369Y258D02*
X1404Y258D01*
X1436Y258D02*
X1471Y258D01*
X472Y257D02*
X508Y257D01*
X541Y257D02*
X575Y257D01*
X1369Y257D02*
X1404Y257D01*
X1437Y257D02*
X1472Y257D01*
X472Y256D02*
X508Y256D01*
X541Y256D02*
X575Y256D01*
X1369Y256D02*
X1404Y256D01*
X1437Y256D02*
X1472Y256D01*
X472Y255D02*
X507Y255D01*
X541Y255D02*
X575Y255D01*
X1369Y255D02*
X1404Y255D01*
X1437Y255D02*
X1472Y255D01*
X472Y254D02*
X507Y254D01*
X541Y254D02*
X575Y254D01*
X1369Y254D02*
X1404Y254D01*
X1437Y254D02*
X1472Y254D01*
X472Y253D02*
X508Y253D01*
X541Y253D02*
X575Y253D01*
X1369Y253D02*
X1404Y253D01*
X1437Y253D02*
X1472Y253D01*
X472Y252D02*
X508Y252D01*
X541Y252D02*
X575Y252D01*
X1369Y252D02*
X1404Y252D01*
X1437Y252D02*
X1472Y252D01*
X472Y251D02*
X508Y251D01*
X540Y251D02*
X575Y251D01*
X1369Y251D02*
X1404Y251D01*
X1437Y251D02*
X1472Y251D01*
X472Y250D02*
X508Y250D01*
X540Y250D02*
X574Y250D01*
X1369Y250D02*
X1404Y250D01*
X1436Y250D02*
X1471Y250D01*
X472Y249D02*
X508Y249D01*
X540Y249D02*
X574Y249D01*
X1369Y249D02*
X1405Y249D01*
X1436Y249D02*
X1471Y249D01*
X473Y248D02*
X509Y248D01*
X539Y248D02*
X574Y248D01*
X1370Y248D02*
X1405Y248D01*
X1436Y248D02*
X1471Y248D01*
X473Y247D02*
X509Y247D01*
X539Y247D02*
X574Y247D01*
X1370Y247D02*
X1405Y247D01*
X1435Y247D02*
X1471Y247D01*
X473Y246D02*
X510Y246D01*
X538Y246D02*
X573Y246D01*
X1370Y246D02*
X1406Y246D01*
X1435Y246D02*
X1470Y246D01*
X474Y245D02*
X510Y245D01*
X538Y245D02*
X573Y245D01*
X1371Y245D02*
X1407Y245D01*
X1434Y245D02*
X1470Y245D01*
X474Y244D02*
X511Y244D01*
X537Y244D02*
X573Y244D01*
X1371Y244D02*
X1407Y244D01*
X1433Y244D02*
X1470Y244D01*
X475Y243D02*
X512Y243D01*
X536Y243D02*
X572Y243D01*
X1371Y243D02*
X1408Y243D01*
X1432Y243D02*
X1469Y243D01*
X475Y242D02*
X513Y242D01*
X535Y242D02*
X572Y242D01*
X1372Y242D02*
X1409Y242D01*
X1431Y242D02*
X1469Y242D01*
X476Y241D02*
X515Y241D01*
X534Y241D02*
X571Y241D01*
X1373Y241D02*
X1411Y241D01*
X1430Y241D02*
X1468Y241D01*
X476Y240D02*
X516Y240D01*
X532Y240D02*
X571Y240D01*
X1373Y240D02*
X1412Y240D01*
X1428Y240D02*
X1468Y240D01*
X477Y239D02*
X519Y239D01*
X529Y239D02*
X570Y239D01*
X1374Y239D02*
X1415Y239D01*
X1426Y239D02*
X1467Y239D01*
X478Y238D02*
X569Y238D01*
X1375Y238D02*
X1466Y238D01*
X479Y237D02*
X568Y237D01*
X1375Y237D02*
X1465Y237D01*
X479Y236D02*
X567Y236D01*
X1376Y236D02*
X1464Y236D01*
X481Y235D02*
X566Y235D01*
X1377Y235D02*
X1463Y235D01*
X482Y234D02*
X565Y234D01*
X1379Y234D02*
X1462Y234D01*
X483Y233D02*
X564Y233D01*
X1380Y233D02*
X1461Y233D01*
X485Y232D02*
X562Y232D01*
X1382Y232D02*
X1459Y232D01*
X486Y231D02*
X560Y231D01*
X1383Y231D02*
X1457Y231D01*
X489Y230D02*
X558Y230D01*
X1385Y230D02*
X1455Y230D01*
X492Y229D02*
X555Y229D01*
X1389Y229D02*
X1452Y229D01*
X495Y180D02*
X552Y180D01*
X1392Y180D02*
X1449Y180D01*
X490Y179D02*
X557Y179D01*
X1387Y179D02*
X1454Y179D01*
X487Y178D02*
X559Y178D01*
X1384Y178D02*
X1456Y178D01*
X486Y177D02*
X561Y177D01*
X1383Y177D02*
X1458Y177D01*
X484Y176D02*
X563Y176D01*
X1381Y176D02*
X1460Y176D01*
X482Y175D02*
X564Y175D01*
X1379Y175D02*
X1461Y175D01*
X481Y174D02*
X566Y174D01*
X1378Y174D02*
X1462Y174D01*
X480Y173D02*
X567Y173D01*
X1377Y173D02*
X1464Y173D01*
X479Y172D02*
X568Y172D01*
X1376Y172D02*
X1465Y172D01*
X478Y171D02*
X569Y171D01*
X1375Y171D02*
X1466Y171D01*
X477Y170D02*
X521Y170D01*
X528Y170D02*
X569Y170D01*
X1374Y170D02*
X1417Y170D01*
X1424Y170D02*
X1466Y170D01*
X476Y169D02*
X517Y169D01*
X531Y169D02*
X570Y169D01*
X1373Y169D02*
X1413Y169D01*
X1427Y169D02*
X1467Y169D01*
X476Y168D02*
X515Y168D01*
X533Y168D02*
X571Y168D01*
X1373Y168D02*
X1411Y168D01*
X1429Y168D02*
X1468Y168D01*
X475Y167D02*
X514Y167D01*
X534Y167D02*
X571Y167D01*
X1372Y167D02*
X1410Y167D01*
X1431Y167D02*
X1468Y167D01*
X475Y166D02*
X513Y166D01*
X536Y166D02*
X572Y166D01*
X1372Y166D02*
X1409Y166D01*
X1432Y166D02*
X1469Y166D01*
X474Y165D02*
X512Y165D01*
X537Y165D02*
X572Y165D01*
X1371Y165D02*
X1408Y165D01*
X1433Y165D02*
X1469Y165D01*
X474Y164D02*
X511Y164D01*
X537Y164D02*
X573Y164D01*
X1371Y164D02*
X1407Y164D01*
X1434Y164D02*
X1470Y164D01*
X473Y163D02*
X510Y163D01*
X538Y163D02*
X573Y163D01*
X1370Y163D02*
X1406Y163D01*
X1434Y163D02*
X1470Y163D01*
X473Y162D02*
X509Y162D01*
X539Y162D02*
X574Y162D01*
X1370Y162D02*
X1406Y162D01*
X1435Y162D02*
X1471Y162D01*
X473Y161D02*
X509Y161D01*
X539Y161D02*
X574Y161D01*
X1370Y161D02*
X1405Y161D01*
X1435Y161D02*
X1471Y161D01*
X473Y160D02*
X508Y160D01*
X540Y160D02*
X574Y160D01*
X1370Y160D02*
X1405Y160D01*
X1436Y160D02*
X1471Y160D01*
X472Y159D02*
X508Y159D01*
X540Y159D02*
X574Y159D01*
X1369Y159D02*
X1404Y159D01*
X1436Y159D02*
X1471Y159D01*
X472Y158D02*
X508Y158D01*
X540Y158D02*
X575Y158D01*
X1369Y158D02*
X1404Y158D01*
X1436Y158D02*
X1471Y158D01*
X472Y157D02*
X508Y157D01*
X541Y157D02*
X575Y157D01*
X1369Y157D02*
X1404Y157D01*
X1437Y157D02*
X1472Y157D01*
X472Y156D02*
X508Y156D01*
X541Y156D02*
X575Y156D01*
X1369Y156D02*
X1404Y156D01*
X1437Y156D02*
X1472Y156D01*
X472Y155D02*
X507Y155D01*
X541Y155D02*
X575Y155D01*
X1369Y155D02*
X1404Y155D01*
X1437Y155D02*
X1472Y155D01*
X472Y154D02*
X507Y154D01*
X541Y154D02*
X575Y154D01*
X1369Y154D02*
X1404Y154D01*
X1437Y154D02*
X1472Y154D01*
X472Y153D02*
X507Y153D01*
X541Y153D02*
X575Y153D01*
X1369Y153D02*
X1404Y153D01*
X1437Y153D02*
X1472Y153D01*
X472Y152D02*
X508Y152D01*
X541Y152D02*
X575Y152D01*
X1369Y152D02*
X1404Y152D01*
X1437Y152D02*
X1472Y152D01*
X472Y151D02*
X508Y151D01*
X540Y151D02*
X575Y151D01*
X1369Y151D02*
X1404Y151D01*
X1437Y151D02*
X1472Y151D01*
X472Y150D02*
X508Y150D01*
X540Y150D02*
X574Y150D01*
X1369Y150D02*
X1404Y150D01*
X1436Y150D02*
X1471Y150D01*
X472Y149D02*
X508Y149D01*
X540Y149D02*
X574Y149D01*
X1369Y149D02*
X1405Y149D01*
X1436Y149D02*
X1471Y149D01*
X473Y148D02*
X509Y148D01*
X539Y148D02*
X574Y148D01*
X1370Y148D02*
X1405Y148D01*
X1436Y148D02*
X1471Y148D01*
X473Y147D02*
X509Y147D01*
X539Y147D02*
X574Y147D01*
X1370Y147D02*
X1405Y147D01*
X1435Y147D02*
X1471Y147D01*
X473Y146D02*
X510Y146D01*
X538Y146D02*
X573Y146D01*
X1370Y146D02*
X1406Y146D01*
X1435Y146D02*
X1470Y146D01*
X474Y145D02*
X510Y145D01*
X538Y145D02*
X573Y145D01*
X1371Y145D02*
X1407Y145D01*
X1434Y145D02*
X1470Y145D01*
X474Y144D02*
X511Y144D01*
X537Y144D02*
X573Y144D01*
X1371Y144D02*
X1407Y144D01*
X1433Y144D02*
X1470Y144D01*
X474Y143D02*
X512Y143D01*
X536Y143D02*
X572Y143D01*
X1371Y143D02*
X1408Y143D01*
X1432Y143D02*
X1469Y143D01*
X475Y142D02*
X513Y142D01*
X535Y142D02*
X572Y142D01*
X1372Y142D02*
X1409Y142D01*
X1431Y142D02*
X1469Y142D01*
X476Y141D02*
X515Y141D01*
X534Y141D02*
X571Y141D01*
X1373Y141D02*
X1411Y141D01*
X1430Y141D02*
X1468Y141D01*
X476Y140D02*
X516Y140D01*
X532Y140D02*
X571Y140D01*
X1373Y140D02*
X1412Y140D01*
X1428Y140D02*
X1468Y140D01*
X477Y139D02*
X519Y139D01*
X529Y139D02*
X570Y139D01*
X1374Y139D02*
X1415Y139D01*
X1426Y139D02*
X1467Y139D01*
X478Y138D02*
X569Y138D01*
X1375Y138D02*
X1466Y138D01*
X479Y137D02*
X568Y137D01*
X1376Y137D02*
X1465Y137D01*
X479Y136D02*
X567Y136D01*
X1376Y136D02*
X1464Y136D01*
X480Y135D02*
X566Y135D01*
X1377Y135D02*
X1463Y135D01*
X482Y134D02*
X565Y134D01*
X1379Y134D02*
X1462Y134D01*
X483Y133D02*
X564Y133D01*
X1380Y133D02*
X1461Y133D01*
X485Y132D02*
X562Y132D01*
X1382Y132D02*
X1459Y132D01*
X486Y131D02*
X560Y131D01*
X1383Y131D02*
X1457Y131D01*
X489Y130D02*
X558Y130D01*
X1386Y130D02*
X1455Y130D01*
X492Y129D02*
X555Y129D01*
X1389Y129D02*
X1452Y129D01*
X495Y80D02*
X552Y80D01*
X1392Y80D02*
X1449Y80D01*
X490Y79D02*
X557Y79D01*
X1387Y79D02*
X1454Y79D01*
X487Y78D02*
X559Y78D01*
X1384Y78D02*
X1456Y78D01*
X486Y77D02*
X561Y77D01*
X1383Y77D02*
X1458Y77D01*
X484Y76D02*
X563Y76D01*
X1381Y76D02*
X1460Y76D01*
X482Y75D02*
X564Y75D01*
X1379Y75D02*
X1461Y75D01*
X481Y74D02*
X566Y74D01*
X1378Y74D02*
X1463Y74D01*
X480Y73D02*
X567Y73D01*
X1377Y73D02*
X1464Y73D01*
X479Y72D02*
X568Y72D01*
X1376Y72D02*
X1465Y72D01*
X478Y71D02*
X569Y71D01*
X1375Y71D02*
X1466Y71D01*
X477Y70D02*
X521Y70D01*
X528Y70D02*
X569Y70D01*
X1374Y70D02*
X1417Y70D01*
X1424Y70D02*
X1466Y70D01*
X477Y69D02*
X517Y69D01*
X531Y69D02*
X570Y69D01*
X1373Y69D02*
X1413Y69D01*
X1427Y69D02*
X1467Y69D01*
X476Y68D02*
X515Y68D01*
X533Y68D02*
X571Y68D01*
X1373Y68D02*
X1411Y68D01*
X1429Y68D02*
X1468Y68D01*
X475Y67D02*
X514Y67D01*
X534Y67D02*
X571Y67D01*
X1372Y67D02*
X1410Y67D01*
X1431Y67D02*
X1468Y67D01*
X475Y66D02*
X513Y66D01*
X536Y66D02*
X572Y66D01*
X1372Y66D02*
X1409Y66D01*
X1432Y66D02*
X1469Y66D01*
X474Y65D02*
X512Y65D01*
X537Y65D02*
X572Y65D01*
X1371Y65D02*
X1408Y65D01*
X1433Y65D02*
X1469Y65D01*
X474Y64D02*
X511Y64D01*
X538Y64D02*
X573Y64D01*
X1371Y64D02*
X1407Y64D01*
X1434Y64D02*
X1470Y64D01*
X473Y63D02*
X510Y63D01*
X538Y63D02*
X573Y63D01*
X1370Y63D02*
X1406Y63D01*
X1434Y63D02*
X1470Y63D01*
X473Y62D02*
X509Y62D01*
X539Y62D02*
X574Y62D01*
X1370Y62D02*
X1406Y62D01*
X1435Y62D02*
X1471Y62D01*
X473Y61D02*
X509Y61D01*
X539Y61D02*
X574Y61D01*
X1370Y61D02*
X1405Y61D01*
X1435Y61D02*
X1471Y61D01*
X473Y60D02*
X509Y60D01*
X540Y60D02*
X574Y60D01*
X1370Y60D02*
X1405Y60D01*
X1436Y60D02*
X1471Y60D01*
X472Y59D02*
X508Y59D01*
X540Y59D02*
X574Y59D01*
X1369Y59D02*
X1404Y59D01*
X1436Y59D02*
X1471Y59D01*
X472Y58D02*
X508Y58D01*
X540Y58D02*
X575Y58D01*
X1369Y58D02*
X1404Y58D01*
X1437Y58D02*
X1471Y58D01*
X472Y57D02*
X508Y57D01*
X541Y57D02*
X575Y57D01*
X1369Y57D02*
X1404Y57D01*
X1437Y57D02*
X1472Y57D01*
X472Y56D02*
X508Y56D01*
X541Y56D02*
X575Y56D01*
X1369Y56D02*
X1404Y56D01*
X1437Y56D02*
X1472Y56D01*
X472Y55D02*
X507Y55D01*
X541Y55D02*
X575Y55D01*
X1369Y55D02*
X1404Y55D01*
X1437Y55D02*
X1472Y55D01*
X472Y54D02*
X507Y54D01*
X541Y54D02*
X575Y54D01*
X1369Y54D02*
X1404Y54D01*
X1437Y54D02*
X1472Y54D01*
X472Y53D02*
X508Y53D01*
X541Y53D02*
X575Y53D01*
X1369Y53D02*
X1404Y53D01*
X1437Y53D02*
X1472Y53D01*
X472Y52D02*
X508Y52D01*
X541Y52D02*
X575Y52D01*
X1369Y52D02*
X1404Y52D01*
X1437Y52D02*
X1472Y52D01*
X472Y51D02*
X508Y51D01*
X540Y51D02*
X575Y51D01*
X1369Y51D02*
X1404Y51D01*
X1437Y51D02*
X1472Y51D01*
X472Y50D02*
X508Y50D01*
X540Y50D02*
X574Y50D01*
X1369Y50D02*
X1404Y50D01*
X1436Y50D02*
X1471Y50D01*
X472Y49D02*
X508Y49D01*
X540Y49D02*
X574Y49D01*
X1369Y49D02*
X1405Y49D01*
X1436Y49D02*
X1471Y49D01*
X473Y48D02*
X509Y48D01*
X539Y48D02*
X574Y48D01*
X1370Y48D02*
X1405Y48D01*
X1436Y48D02*
X1471Y48D01*
X473Y47D02*
X509Y47D01*
X539Y47D02*
X574Y47D01*
X1370Y47D02*
X1405Y47D01*
X1435Y47D02*
X1471Y47D01*
X473Y46D02*
X510Y46D01*
X538Y46D02*
X573Y46D01*
X1370Y46D02*
X1406Y46D01*
X1435Y46D02*
X1470Y46D01*
X474Y45D02*
X510Y45D01*
X538Y45D02*
X573Y45D01*
X1371Y45D02*
X1407Y45D01*
X1434Y45D02*
X1470Y45D01*
X474Y44D02*
X511Y44D01*
X537Y44D02*
X573Y44D01*
X1371Y44D02*
X1407Y44D01*
X1433Y44D02*
X1470Y44D01*
X475Y43D02*
X512Y43D01*
X536Y43D02*
X572Y43D01*
X1371Y43D02*
X1408Y43D01*
X1432Y43D02*
X1469Y43D01*
X475Y42D02*
X513Y42D01*
X535Y42D02*
X572Y42D01*
X1372Y42D02*
X1409Y42D01*
X1431Y42D02*
X1469Y42D01*
X476Y41D02*
X515Y41D01*
X534Y41D02*
X571Y41D01*
X1373Y41D02*
X1411Y41D01*
X1430Y41D02*
X1468Y41D01*
X476Y40D02*
X516Y40D01*
X532Y40D02*
X571Y40D01*
X1373Y40D02*
X1413Y40D01*
X1428Y40D02*
X1467Y40D01*
X477Y39D02*
X519Y39D01*
X529Y39D02*
X570Y39D01*
X1374Y39D02*
X1415Y39D01*
X1426Y39D02*
X1467Y39D01*
X478Y38D02*
X569Y38D01*
X1375Y38D02*
X1466Y38D01*
X479Y37D02*
X568Y37D01*
X1376Y37D02*
X1465Y37D01*
X479Y36D02*
X567Y36D01*
X1376Y36D02*
X1464Y36D01*
X481Y35D02*
X566Y35D01*
X1378Y35D02*
X1463Y35D01*
X482Y34D02*
X565Y34D01*
X1379Y34D02*
X1462Y34D01*
X483Y33D02*
X564Y33D01*
X1380Y33D02*
X1461Y33D01*
X485Y32D02*
X562Y32D01*
X1382Y32D02*
X1459Y32D01*
X486Y31D02*
X560Y31D01*
X1383Y31D02*
X1457Y31D01*
X489Y30D02*
X558Y30D01*
X1386Y30D02*
X1455Y30D01*
X492Y29D02*
X555Y29D01*
X1389Y29D02*
X1452Y29D01*
D02*
G04 End of Copper1*
M02*