G04 MADE WITH FRITZING*
G04 WWW.FRITZING.ORG*
G04 DOUBLE SIDED*
G04 HOLES PLATED*
G04 CONTOUR ON CENTER OF CONTOUR VECTOR*
%ASAXBY*%
%FSLAX23Y23*%
%MOIN*%
%OFA0B0*%
%SFA1.0B1.0*%
%ADD10R,4.279540X3.287400X4.263540X3.271400*%
%ADD11C,0.008000*%
%ADD12R,0.001000X0.001000*%
%LNSILK0*%
G90*
G70*
G54D11*
X4Y3283D02*
X4276Y3283D01*
X4276Y4D01*
X4Y4D01*
X4Y3283D01*
D02*
G54D12*
X3070Y156D02*
X3095Y156D01*
X3181Y156D02*
X3186Y156D01*
X3219Y156D02*
X3223Y156D01*
X3286Y156D02*
X3311Y156D01*
X3397Y156D02*
X3401Y156D01*
X3435Y156D02*
X3439Y156D01*
X3502Y156D02*
X3527Y156D01*
X3613Y156D02*
X3617Y156D01*
X3650Y156D02*
X3655Y156D01*
X3717Y156D02*
X3743Y156D01*
X3829Y156D02*
X3833Y156D01*
X3866Y156D02*
X3871Y156D01*
X3068Y155D02*
X3097Y155D01*
X3180Y155D02*
X3187Y155D01*
X3217Y155D02*
X3224Y155D01*
X3284Y155D02*
X3313Y155D01*
X3396Y155D02*
X3403Y155D01*
X3433Y155D02*
X3440Y155D01*
X3500Y155D02*
X3529Y155D01*
X3612Y155D02*
X3619Y155D01*
X3649Y155D02*
X3656Y155D01*
X3716Y155D02*
X3745Y155D01*
X3828Y155D02*
X3835Y155D01*
X3865Y155D02*
X3872Y155D01*
X3068Y154D02*
X3099Y154D01*
X3179Y154D02*
X3187Y154D01*
X3217Y154D02*
X3225Y154D01*
X3284Y154D02*
X3315Y154D01*
X3395Y154D02*
X3403Y154D01*
X3433Y154D02*
X3441Y154D01*
X3500Y154D02*
X3531Y154D01*
X3611Y154D02*
X3619Y154D01*
X3649Y154D02*
X3657Y154D01*
X3716Y154D02*
X3747Y154D01*
X3827Y154D02*
X3835Y154D01*
X3865Y154D02*
X3873Y154D01*
X3067Y153D02*
X3100Y153D01*
X3179Y153D02*
X3188Y153D01*
X3216Y153D02*
X3225Y153D01*
X3283Y153D02*
X3316Y153D01*
X3395Y153D02*
X3404Y153D01*
X3432Y153D02*
X3441Y153D01*
X3499Y153D02*
X3532Y153D01*
X3611Y153D02*
X3620Y153D01*
X3648Y153D02*
X3657Y153D01*
X3715Y153D02*
X3748Y153D01*
X3827Y153D02*
X3836Y153D01*
X3864Y153D02*
X3873Y153D01*
X3067Y152D02*
X3101Y152D01*
X3179Y152D02*
X3188Y152D01*
X3216Y152D02*
X3225Y152D01*
X3283Y152D02*
X3317Y152D01*
X3395Y152D02*
X3404Y152D01*
X3432Y152D02*
X3441Y152D01*
X3499Y152D02*
X3533Y152D01*
X3611Y152D02*
X3620Y152D01*
X3648Y152D02*
X3657Y152D01*
X3715Y152D02*
X3749Y152D01*
X3827Y152D02*
X3836Y152D01*
X3864Y152D02*
X3873Y152D01*
X3067Y151D02*
X3102Y151D01*
X3179Y151D02*
X3188Y151D01*
X3216Y151D02*
X3225Y151D01*
X3283Y151D02*
X3318Y151D01*
X3395Y151D02*
X3404Y151D01*
X3432Y151D02*
X3441Y151D01*
X3499Y151D02*
X3534Y151D01*
X3611Y151D02*
X3620Y151D01*
X3648Y151D02*
X3657Y151D01*
X3715Y151D02*
X3750Y151D01*
X3827Y151D02*
X3836Y151D01*
X3864Y151D02*
X3873Y151D01*
X3067Y150D02*
X3103Y150D01*
X3179Y150D02*
X3188Y150D01*
X3216Y150D02*
X3225Y150D01*
X3283Y150D02*
X3319Y150D01*
X3395Y150D02*
X3404Y150D01*
X3432Y150D02*
X3441Y150D01*
X3499Y150D02*
X3535Y150D01*
X3611Y150D02*
X3620Y150D01*
X3648Y150D02*
X3657Y150D01*
X3715Y150D02*
X3751Y150D01*
X3827Y150D02*
X3836Y150D01*
X3864Y150D02*
X3873Y150D01*
X3068Y149D02*
X3103Y149D01*
X3179Y149D02*
X3188Y149D01*
X3216Y149D02*
X3225Y149D01*
X3284Y149D02*
X3319Y149D01*
X3395Y149D02*
X3404Y149D01*
X3432Y149D02*
X3441Y149D01*
X3500Y149D02*
X3535Y149D01*
X3611Y149D02*
X3620Y149D01*
X3648Y149D02*
X3657Y149D01*
X3716Y149D02*
X3751Y149D01*
X3827Y149D02*
X3836Y149D01*
X3864Y149D02*
X3873Y149D01*
X3069Y148D02*
X3104Y148D01*
X3179Y148D02*
X3188Y148D01*
X3216Y148D02*
X3225Y148D01*
X3285Y148D02*
X3320Y148D01*
X3395Y148D02*
X3404Y148D01*
X3432Y148D02*
X3441Y148D01*
X3501Y148D02*
X3536Y148D01*
X3611Y148D02*
X3620Y148D01*
X3648Y148D02*
X3657Y148D01*
X3717Y148D02*
X3752Y148D01*
X3827Y148D02*
X3836Y148D01*
X3864Y148D02*
X3873Y148D01*
X3071Y147D02*
X3104Y147D01*
X3179Y147D02*
X3188Y147D01*
X3216Y147D02*
X3225Y147D01*
X3287Y147D02*
X3320Y147D01*
X3395Y147D02*
X3404Y147D01*
X3432Y147D02*
X3441Y147D01*
X3503Y147D02*
X3536Y147D01*
X3611Y147D02*
X3620Y147D01*
X3648Y147D02*
X3657Y147D01*
X3719Y147D02*
X3752Y147D01*
X3827Y147D02*
X3836Y147D01*
X3864Y147D02*
X3873Y147D01*
X3093Y146D02*
X3105Y146D01*
X3179Y146D02*
X3188Y146D01*
X3216Y146D02*
X3225Y146D01*
X3309Y146D02*
X3321Y146D01*
X3395Y146D02*
X3404Y146D01*
X3432Y146D02*
X3441Y146D01*
X3525Y146D02*
X3537Y146D01*
X3611Y146D02*
X3620Y146D01*
X3648Y146D02*
X3657Y146D01*
X3741Y146D02*
X3753Y146D01*
X3827Y146D02*
X3836Y146D01*
X3864Y146D02*
X3873Y146D01*
X3095Y145D02*
X3105Y145D01*
X3179Y145D02*
X3188Y145D01*
X3216Y145D02*
X3225Y145D01*
X3310Y145D02*
X3321Y145D01*
X3395Y145D02*
X3404Y145D01*
X3432Y145D02*
X3441Y145D01*
X3526Y145D02*
X3537Y145D01*
X3611Y145D02*
X3620Y145D01*
X3648Y145D02*
X3657Y145D01*
X3742Y145D02*
X3753Y145D01*
X3827Y145D02*
X3836Y145D01*
X3864Y145D02*
X3873Y145D01*
X3095Y144D02*
X3106Y144D01*
X3179Y144D02*
X3188Y144D01*
X3216Y144D02*
X3225Y144D01*
X3311Y144D02*
X3322Y144D01*
X3395Y144D02*
X3404Y144D01*
X3432Y144D02*
X3441Y144D01*
X3527Y144D02*
X3538Y144D01*
X3611Y144D02*
X3620Y144D01*
X3648Y144D02*
X3657Y144D01*
X3743Y144D02*
X3754Y144D01*
X3827Y144D02*
X3836Y144D01*
X3864Y144D02*
X3873Y144D01*
X3096Y143D02*
X3106Y143D01*
X3179Y143D02*
X3188Y143D01*
X3216Y143D02*
X3225Y143D01*
X3312Y143D02*
X3322Y143D01*
X3395Y143D02*
X3404Y143D01*
X3432Y143D02*
X3441Y143D01*
X3528Y143D02*
X3538Y143D01*
X3611Y143D02*
X3620Y143D01*
X3648Y143D02*
X3657Y143D01*
X3744Y143D02*
X3754Y143D01*
X3827Y143D02*
X3836Y143D01*
X3864Y143D02*
X3873Y143D01*
X3096Y142D02*
X3107Y142D01*
X3179Y142D02*
X3188Y142D01*
X3216Y142D02*
X3225Y142D01*
X3312Y142D02*
X3323Y142D01*
X3395Y142D02*
X3404Y142D01*
X3432Y142D02*
X3441Y142D01*
X3528Y142D02*
X3539Y142D01*
X3611Y142D02*
X3620Y142D01*
X3648Y142D02*
X3657Y142D01*
X3744Y142D02*
X3755Y142D01*
X3827Y142D02*
X3836Y142D01*
X3864Y142D02*
X3873Y142D01*
X3097Y141D02*
X3107Y141D01*
X3179Y141D02*
X3188Y141D01*
X3216Y141D02*
X3225Y141D01*
X3313Y141D02*
X3323Y141D01*
X3395Y141D02*
X3404Y141D01*
X3432Y141D02*
X3441Y141D01*
X3529Y141D02*
X3539Y141D01*
X3611Y141D02*
X3620Y141D01*
X3648Y141D02*
X3657Y141D01*
X3745Y141D02*
X3755Y141D01*
X3827Y141D02*
X3836Y141D01*
X3864Y141D02*
X3873Y141D01*
X3097Y140D02*
X3108Y140D01*
X3179Y140D02*
X3188Y140D01*
X3216Y140D02*
X3225Y140D01*
X3313Y140D02*
X3324Y140D01*
X3395Y140D02*
X3404Y140D01*
X3432Y140D02*
X3441Y140D01*
X3529Y140D02*
X3540Y140D01*
X3611Y140D02*
X3620Y140D01*
X3648Y140D02*
X3657Y140D01*
X3745Y140D02*
X3756Y140D01*
X3827Y140D02*
X3836Y140D01*
X3864Y140D02*
X3873Y140D01*
X3098Y139D02*
X3108Y139D01*
X3179Y139D02*
X3188Y139D01*
X3216Y139D02*
X3225Y139D01*
X3314Y139D02*
X3324Y139D01*
X3395Y139D02*
X3404Y139D01*
X3432Y139D02*
X3441Y139D01*
X3530Y139D02*
X3540Y139D01*
X3611Y139D02*
X3620Y139D01*
X3648Y139D02*
X3657Y139D01*
X3746Y139D02*
X3756Y139D01*
X3827Y139D02*
X3836Y139D01*
X3864Y139D02*
X3873Y139D01*
X3098Y138D02*
X3109Y138D01*
X3179Y138D02*
X3188Y138D01*
X3216Y138D02*
X3225Y138D01*
X3314Y138D02*
X3325Y138D01*
X3395Y138D02*
X3404Y138D01*
X3432Y138D02*
X3441Y138D01*
X3530Y138D02*
X3541Y138D01*
X3611Y138D02*
X3620Y138D01*
X3648Y138D02*
X3657Y138D01*
X3746Y138D02*
X3757Y138D01*
X3827Y138D02*
X3836Y138D01*
X3864Y138D02*
X3873Y138D01*
X3099Y137D02*
X3109Y137D01*
X3179Y137D02*
X3188Y137D01*
X3216Y137D02*
X3225Y137D01*
X3315Y137D02*
X3325Y137D01*
X3395Y137D02*
X3404Y137D01*
X3432Y137D02*
X3441Y137D01*
X3531Y137D02*
X3541Y137D01*
X3611Y137D02*
X3620Y137D01*
X3648Y137D02*
X3657Y137D01*
X3747Y137D02*
X3757Y137D01*
X3827Y137D02*
X3836Y137D01*
X3864Y137D02*
X3873Y137D01*
X3099Y136D02*
X3110Y136D01*
X3179Y136D02*
X3188Y136D01*
X3216Y136D02*
X3225Y136D01*
X3315Y136D02*
X3326Y136D01*
X3395Y136D02*
X3404Y136D01*
X3432Y136D02*
X3441Y136D01*
X3531Y136D02*
X3542Y136D01*
X3611Y136D02*
X3620Y136D01*
X3648Y136D02*
X3657Y136D01*
X3747Y136D02*
X3758Y136D01*
X3827Y136D02*
X3836Y136D01*
X3864Y136D02*
X3873Y136D01*
X3100Y135D02*
X3110Y135D01*
X3179Y135D02*
X3188Y135D01*
X3216Y135D02*
X3225Y135D01*
X3316Y135D02*
X3326Y135D01*
X3395Y135D02*
X3404Y135D01*
X3432Y135D02*
X3441Y135D01*
X3532Y135D02*
X3542Y135D01*
X3611Y135D02*
X3620Y135D01*
X3648Y135D02*
X3657Y135D01*
X3748Y135D02*
X3758Y135D01*
X3827Y135D02*
X3836Y135D01*
X3864Y135D02*
X3873Y135D01*
X3100Y134D02*
X3111Y134D01*
X3179Y134D02*
X3188Y134D01*
X3216Y134D02*
X3225Y134D01*
X3316Y134D02*
X3327Y134D01*
X3395Y134D02*
X3404Y134D01*
X3432Y134D02*
X3441Y134D01*
X3532Y134D02*
X3543Y134D01*
X3611Y134D02*
X3620Y134D01*
X3648Y134D02*
X3657Y134D01*
X3748Y134D02*
X3759Y134D01*
X3827Y134D02*
X3836Y134D01*
X3864Y134D02*
X3873Y134D01*
X3101Y133D02*
X3111Y133D01*
X3179Y133D02*
X3188Y133D01*
X3216Y133D02*
X3225Y133D01*
X3317Y133D02*
X3327Y133D01*
X3395Y133D02*
X3404Y133D01*
X3432Y133D02*
X3441Y133D01*
X3533Y133D02*
X3543Y133D01*
X3611Y133D02*
X3620Y133D01*
X3648Y133D02*
X3657Y133D01*
X3749Y133D02*
X3759Y133D01*
X3827Y133D02*
X3836Y133D01*
X3864Y133D02*
X3873Y133D01*
X3101Y132D02*
X3112Y132D01*
X3179Y132D02*
X3188Y132D01*
X3216Y132D02*
X3225Y132D01*
X3317Y132D02*
X3328Y132D01*
X3395Y132D02*
X3404Y132D01*
X3432Y132D02*
X3441Y132D01*
X3533Y132D02*
X3544Y132D01*
X3611Y132D02*
X3620Y132D01*
X3648Y132D02*
X3657Y132D01*
X3749Y132D02*
X3760Y132D01*
X3827Y132D02*
X3836Y132D01*
X3864Y132D02*
X3873Y132D01*
X3102Y131D02*
X3112Y131D01*
X3179Y131D02*
X3188Y131D01*
X3216Y131D02*
X3225Y131D01*
X3318Y131D02*
X3328Y131D01*
X3395Y131D02*
X3404Y131D01*
X3432Y131D02*
X3441Y131D01*
X3534Y131D02*
X3544Y131D01*
X3611Y131D02*
X3620Y131D01*
X3648Y131D02*
X3657Y131D01*
X3750Y131D02*
X3760Y131D01*
X3827Y131D02*
X3836Y131D01*
X3864Y131D02*
X3873Y131D01*
X3102Y130D02*
X3113Y130D01*
X3179Y130D02*
X3188Y130D01*
X3216Y130D02*
X3225Y130D01*
X3318Y130D02*
X3329Y130D01*
X3395Y130D02*
X3404Y130D01*
X3432Y130D02*
X3441Y130D01*
X3534Y130D02*
X3545Y130D01*
X3611Y130D02*
X3620Y130D01*
X3648Y130D02*
X3657Y130D01*
X3750Y130D02*
X3760Y130D01*
X3827Y130D02*
X3836Y130D01*
X3864Y130D02*
X3873Y130D01*
X3103Y129D02*
X3113Y129D01*
X3179Y129D02*
X3188Y129D01*
X3216Y129D02*
X3225Y129D01*
X3319Y129D02*
X3329Y129D01*
X3395Y129D02*
X3404Y129D01*
X3432Y129D02*
X3441Y129D01*
X3535Y129D02*
X3545Y129D01*
X3611Y129D02*
X3620Y129D01*
X3648Y129D02*
X3657Y129D01*
X3751Y129D02*
X3761Y129D01*
X3827Y129D02*
X3836Y129D01*
X3864Y129D02*
X3873Y129D01*
X3103Y128D02*
X3114Y128D01*
X3179Y128D02*
X3188Y128D01*
X3216Y128D02*
X3225Y128D01*
X3319Y128D02*
X3330Y128D01*
X3395Y128D02*
X3404Y128D01*
X3432Y128D02*
X3441Y128D01*
X3535Y128D02*
X3545Y128D01*
X3611Y128D02*
X3620Y128D01*
X3648Y128D02*
X3657Y128D01*
X3751Y128D02*
X3761Y128D01*
X3827Y128D02*
X3836Y128D01*
X3864Y128D02*
X3873Y128D01*
X3104Y127D02*
X3114Y127D01*
X3179Y127D02*
X3188Y127D01*
X3216Y127D02*
X3225Y127D01*
X3320Y127D02*
X3330Y127D01*
X3395Y127D02*
X3404Y127D01*
X3432Y127D02*
X3441Y127D01*
X3536Y127D02*
X3546Y127D01*
X3611Y127D02*
X3620Y127D01*
X3648Y127D02*
X3657Y127D01*
X3752Y127D02*
X3762Y127D01*
X3827Y127D02*
X3836Y127D01*
X3864Y127D02*
X3873Y127D01*
X3104Y126D02*
X3114Y126D01*
X3179Y126D02*
X3188Y126D01*
X3216Y126D02*
X3225Y126D01*
X3320Y126D02*
X3330Y126D01*
X3395Y126D02*
X3404Y126D01*
X3432Y126D02*
X3441Y126D01*
X3536Y126D02*
X3546Y126D01*
X3611Y126D02*
X3620Y126D01*
X3648Y126D02*
X3657Y126D01*
X3752Y126D02*
X3762Y126D01*
X3827Y126D02*
X3836Y126D01*
X3864Y126D02*
X3873Y126D01*
X3105Y125D02*
X3115Y125D01*
X3179Y125D02*
X3188Y125D01*
X3216Y125D02*
X3225Y125D01*
X3321Y125D02*
X3331Y125D01*
X3395Y125D02*
X3404Y125D01*
X3432Y125D02*
X3441Y125D01*
X3537Y125D02*
X3547Y125D01*
X3611Y125D02*
X3620Y125D01*
X3648Y125D02*
X3657Y125D01*
X3753Y125D02*
X3763Y125D01*
X3827Y125D02*
X3836Y125D01*
X3864Y125D02*
X3873Y125D01*
X3105Y124D02*
X3115Y124D01*
X3179Y124D02*
X3188Y124D01*
X3216Y124D02*
X3225Y124D01*
X3321Y124D02*
X3331Y124D01*
X3395Y124D02*
X3404Y124D01*
X3432Y124D02*
X3441Y124D01*
X3537Y124D02*
X3547Y124D01*
X3611Y124D02*
X3620Y124D01*
X3648Y124D02*
X3657Y124D01*
X3753Y124D02*
X3763Y124D01*
X3827Y124D02*
X3836Y124D01*
X3864Y124D02*
X3873Y124D01*
X3106Y123D02*
X3115Y123D01*
X3179Y123D02*
X3188Y123D01*
X3216Y123D02*
X3225Y123D01*
X3322Y123D02*
X3331Y123D01*
X3395Y123D02*
X3404Y123D01*
X3432Y123D02*
X3441Y123D01*
X3538Y123D02*
X3547Y123D01*
X3611Y123D02*
X3620Y123D01*
X3648Y123D02*
X3657Y123D01*
X3754Y123D02*
X3763Y123D01*
X3827Y123D02*
X3836Y123D01*
X3864Y123D02*
X3873Y123D01*
X3106Y122D02*
X3115Y122D01*
X3179Y122D02*
X3188Y122D01*
X3216Y122D02*
X3225Y122D01*
X3322Y122D02*
X3331Y122D01*
X3395Y122D02*
X3404Y122D01*
X3432Y122D02*
X3441Y122D01*
X3538Y122D02*
X3547Y122D01*
X3611Y122D02*
X3620Y122D01*
X3648Y122D02*
X3657Y122D01*
X3754Y122D02*
X3763Y122D01*
X3827Y122D02*
X3836Y122D01*
X3864Y122D02*
X3873Y122D01*
X3106Y121D02*
X3116Y121D01*
X3179Y121D02*
X3188Y121D01*
X3216Y121D02*
X3225Y121D01*
X3322Y121D02*
X3332Y121D01*
X3395Y121D02*
X3404Y121D01*
X3432Y121D02*
X3441Y121D01*
X3538Y121D02*
X3548Y121D01*
X3611Y121D02*
X3620Y121D01*
X3648Y121D02*
X3657Y121D01*
X3754Y121D02*
X3764Y121D01*
X3827Y121D02*
X3836Y121D01*
X3864Y121D02*
X3873Y121D01*
X3107Y120D02*
X3116Y120D01*
X3179Y120D02*
X3188Y120D01*
X3216Y120D02*
X3225Y120D01*
X3323Y120D02*
X3332Y120D01*
X3395Y120D02*
X3404Y120D01*
X3432Y120D02*
X3441Y120D01*
X3539Y120D02*
X3548Y120D01*
X3611Y120D02*
X3620Y120D01*
X3648Y120D02*
X3657Y120D01*
X3754Y120D02*
X3764Y120D01*
X3827Y120D02*
X3836Y120D01*
X3864Y120D02*
X3873Y120D01*
X3107Y119D02*
X3116Y119D01*
X3179Y119D02*
X3188Y119D01*
X3216Y119D02*
X3225Y119D01*
X3323Y119D02*
X3332Y119D01*
X3395Y119D02*
X3404Y119D01*
X3432Y119D02*
X3441Y119D01*
X3539Y119D02*
X3548Y119D01*
X3611Y119D02*
X3620Y119D01*
X3648Y119D02*
X3657Y119D01*
X3755Y119D02*
X3764Y119D01*
X3827Y119D02*
X3836Y119D01*
X3864Y119D02*
X3873Y119D01*
X3107Y118D02*
X3116Y118D01*
X3179Y118D02*
X3188Y118D01*
X3216Y118D02*
X3225Y118D01*
X3323Y118D02*
X3332Y118D01*
X3395Y118D02*
X3404Y118D01*
X3432Y118D02*
X3441Y118D01*
X3539Y118D02*
X3548Y118D01*
X3611Y118D02*
X3620Y118D01*
X3648Y118D02*
X3657Y118D01*
X3755Y118D02*
X3764Y118D01*
X3827Y118D02*
X3836Y118D01*
X3864Y118D02*
X3873Y118D01*
X3107Y117D02*
X3116Y117D01*
X3179Y117D02*
X3188Y117D01*
X3216Y117D02*
X3225Y117D01*
X3323Y117D02*
X3332Y117D01*
X3395Y117D02*
X3404Y117D01*
X3432Y117D02*
X3441Y117D01*
X3539Y117D02*
X3548Y117D01*
X3611Y117D02*
X3620Y117D01*
X3648Y117D02*
X3657Y117D01*
X3755Y117D02*
X3764Y117D01*
X3827Y117D02*
X3836Y117D01*
X3864Y117D02*
X3873Y117D01*
X3107Y116D02*
X3116Y116D01*
X3179Y116D02*
X3188Y116D01*
X3216Y116D02*
X3225Y116D01*
X3323Y116D02*
X3332Y116D01*
X3395Y116D02*
X3404Y116D01*
X3432Y116D02*
X3441Y116D01*
X3539Y116D02*
X3548Y116D01*
X3611Y116D02*
X3620Y116D01*
X3648Y116D02*
X3657Y116D01*
X3755Y116D02*
X3764Y116D01*
X3827Y116D02*
X3836Y116D01*
X3864Y116D02*
X3873Y116D01*
X3106Y115D02*
X3116Y115D01*
X3179Y115D02*
X3188Y115D01*
X3216Y115D02*
X3225Y115D01*
X3322Y115D02*
X3332Y115D01*
X3395Y115D02*
X3404Y115D01*
X3432Y115D02*
X3441Y115D01*
X3538Y115D02*
X3548Y115D01*
X3611Y115D02*
X3620Y115D01*
X3648Y115D02*
X3657Y115D01*
X3754Y115D02*
X3764Y115D01*
X3827Y115D02*
X3836Y115D01*
X3864Y115D02*
X3873Y115D01*
X3106Y114D02*
X3116Y114D01*
X3179Y114D02*
X3188Y114D01*
X3216Y114D02*
X3225Y114D01*
X3249Y114D02*
X3252Y114D01*
X3322Y114D02*
X3331Y114D01*
X3395Y114D02*
X3404Y114D01*
X3432Y114D02*
X3441Y114D01*
X3465Y114D02*
X3468Y114D01*
X3538Y114D02*
X3547Y114D01*
X3611Y114D02*
X3620Y114D01*
X3648Y114D02*
X3657Y114D01*
X3681Y114D02*
X3684Y114D01*
X3754Y114D02*
X3763Y114D01*
X3827Y114D02*
X3836Y114D01*
X3864Y114D02*
X3873Y114D01*
X3897Y114D02*
X3900Y114D01*
X3106Y113D02*
X3115Y113D01*
X3179Y113D02*
X3188Y113D01*
X3216Y113D02*
X3225Y113D01*
X3247Y113D02*
X3253Y113D01*
X3322Y113D02*
X3331Y113D01*
X3395Y113D02*
X3404Y113D01*
X3432Y113D02*
X3441Y113D01*
X3463Y113D02*
X3469Y113D01*
X3538Y113D02*
X3547Y113D01*
X3611Y113D02*
X3620Y113D01*
X3648Y113D02*
X3657Y113D01*
X3679Y113D02*
X3685Y113D01*
X3754Y113D02*
X3763Y113D01*
X3827Y113D02*
X3836Y113D01*
X3864Y113D02*
X3873Y113D01*
X3895Y113D02*
X3901Y113D01*
X3105Y112D02*
X3115Y112D01*
X3179Y112D02*
X3188Y112D01*
X3216Y112D02*
X3225Y112D01*
X3247Y112D02*
X3254Y112D01*
X3321Y112D02*
X3331Y112D01*
X3395Y112D02*
X3404Y112D01*
X3432Y112D02*
X3441Y112D01*
X3463Y112D02*
X3470Y112D01*
X3537Y112D02*
X3547Y112D01*
X3611Y112D02*
X3620Y112D01*
X3648Y112D02*
X3657Y112D01*
X3679Y112D02*
X3686Y112D01*
X3753Y112D02*
X3763Y112D01*
X3827Y112D02*
X3836Y112D01*
X3864Y112D02*
X3873Y112D01*
X3895Y112D02*
X3902Y112D01*
X3105Y111D02*
X3115Y111D01*
X3179Y111D02*
X3188Y111D01*
X3216Y111D02*
X3225Y111D01*
X3246Y111D02*
X3255Y111D01*
X3321Y111D02*
X3331Y111D01*
X3395Y111D02*
X3404Y111D01*
X3432Y111D02*
X3441Y111D01*
X3462Y111D02*
X3471Y111D01*
X3537Y111D02*
X3547Y111D01*
X3611Y111D02*
X3620Y111D01*
X3648Y111D02*
X3657Y111D01*
X3678Y111D02*
X3687Y111D01*
X3753Y111D02*
X3763Y111D01*
X3827Y111D02*
X3836Y111D01*
X3864Y111D02*
X3873Y111D01*
X3894Y111D02*
X3903Y111D01*
X3104Y110D02*
X3114Y110D01*
X3179Y110D02*
X3188Y110D01*
X3216Y110D02*
X3225Y110D01*
X3246Y110D02*
X3255Y110D01*
X3320Y110D02*
X3330Y110D01*
X3395Y110D02*
X3404Y110D01*
X3432Y110D02*
X3441Y110D01*
X3462Y110D02*
X3471Y110D01*
X3536Y110D02*
X3546Y110D01*
X3611Y110D02*
X3620Y110D01*
X3648Y110D02*
X3657Y110D01*
X3678Y110D02*
X3687Y110D01*
X3752Y110D02*
X3762Y110D01*
X3827Y110D02*
X3836Y110D01*
X3864Y110D02*
X3873Y110D01*
X3894Y110D02*
X3903Y110D01*
X3104Y109D02*
X3114Y109D01*
X3179Y109D02*
X3188Y109D01*
X3216Y109D02*
X3225Y109D01*
X3246Y109D02*
X3255Y109D01*
X3320Y109D02*
X3330Y109D01*
X3395Y109D02*
X3404Y109D01*
X3432Y109D02*
X3441Y109D01*
X3462Y109D02*
X3471Y109D01*
X3536Y109D02*
X3546Y109D01*
X3611Y109D02*
X3620Y109D01*
X3648Y109D02*
X3657Y109D01*
X3678Y109D02*
X3687Y109D01*
X3752Y109D02*
X3762Y109D01*
X3827Y109D02*
X3836Y109D01*
X3864Y109D02*
X3873Y109D01*
X3894Y109D02*
X3903Y109D01*
X3103Y108D02*
X3114Y108D01*
X3179Y108D02*
X3188Y108D01*
X3216Y108D02*
X3225Y108D01*
X3246Y108D02*
X3255Y108D01*
X3319Y108D02*
X3330Y108D01*
X3395Y108D02*
X3404Y108D01*
X3432Y108D02*
X3441Y108D01*
X3462Y108D02*
X3471Y108D01*
X3535Y108D02*
X3546Y108D01*
X3611Y108D02*
X3620Y108D01*
X3648Y108D02*
X3657Y108D01*
X3678Y108D02*
X3687Y108D01*
X3751Y108D02*
X3762Y108D01*
X3827Y108D02*
X3836Y108D01*
X3864Y108D02*
X3873Y108D01*
X3894Y108D02*
X3903Y108D01*
X3103Y107D02*
X3113Y107D01*
X3179Y107D02*
X3188Y107D01*
X3216Y107D02*
X3225Y107D01*
X3246Y107D02*
X3255Y107D01*
X3319Y107D02*
X3329Y107D01*
X3395Y107D02*
X3404Y107D01*
X3432Y107D02*
X3441Y107D01*
X3462Y107D02*
X3471Y107D01*
X3535Y107D02*
X3545Y107D01*
X3611Y107D02*
X3620Y107D01*
X3648Y107D02*
X3657Y107D01*
X3678Y107D02*
X3687Y107D01*
X3751Y107D02*
X3761Y107D01*
X3827Y107D02*
X3836Y107D01*
X3864Y107D02*
X3873Y107D01*
X3894Y107D02*
X3903Y107D01*
X3102Y106D02*
X3113Y106D01*
X3179Y106D02*
X3188Y106D01*
X3216Y106D02*
X3225Y106D01*
X3246Y106D02*
X3255Y106D01*
X3318Y106D02*
X3329Y106D01*
X3395Y106D02*
X3404Y106D01*
X3432Y106D02*
X3441Y106D01*
X3462Y106D02*
X3471Y106D01*
X3534Y106D02*
X3545Y106D01*
X3611Y106D02*
X3620Y106D01*
X3648Y106D02*
X3657Y106D01*
X3678Y106D02*
X3687Y106D01*
X3750Y106D02*
X3761Y106D01*
X3827Y106D02*
X3836Y106D01*
X3864Y106D02*
X3873Y106D01*
X3894Y106D02*
X3903Y106D01*
X3102Y105D02*
X3112Y105D01*
X3179Y105D02*
X3188Y105D01*
X3216Y105D02*
X3225Y105D01*
X3246Y105D02*
X3255Y105D01*
X3318Y105D02*
X3328Y105D01*
X3395Y105D02*
X3404Y105D01*
X3432Y105D02*
X3441Y105D01*
X3462Y105D02*
X3471Y105D01*
X3534Y105D02*
X3544Y105D01*
X3611Y105D02*
X3620Y105D01*
X3648Y105D02*
X3657Y105D01*
X3678Y105D02*
X3687Y105D01*
X3750Y105D02*
X3760Y105D01*
X3827Y105D02*
X3836Y105D01*
X3864Y105D02*
X3873Y105D01*
X3894Y105D02*
X3903Y105D01*
X3101Y104D02*
X3112Y104D01*
X3179Y104D02*
X3188Y104D01*
X3216Y104D02*
X3225Y104D01*
X3246Y104D02*
X3255Y104D01*
X3317Y104D02*
X3328Y104D01*
X3395Y104D02*
X3404Y104D01*
X3432Y104D02*
X3441Y104D01*
X3462Y104D02*
X3471Y104D01*
X3533Y104D02*
X3544Y104D01*
X3611Y104D02*
X3620Y104D01*
X3648Y104D02*
X3657Y104D01*
X3678Y104D02*
X3687Y104D01*
X3749Y104D02*
X3760Y104D01*
X3827Y104D02*
X3836Y104D01*
X3864Y104D02*
X3873Y104D01*
X3894Y104D02*
X3903Y104D01*
X3101Y103D02*
X3111Y103D01*
X3179Y103D02*
X3188Y103D01*
X3216Y103D02*
X3225Y103D01*
X3246Y103D02*
X3255Y103D01*
X3317Y103D02*
X3327Y103D01*
X3395Y103D02*
X3404Y103D01*
X3432Y103D02*
X3441Y103D01*
X3462Y103D02*
X3471Y103D01*
X3533Y103D02*
X3543Y103D01*
X3611Y103D02*
X3620Y103D01*
X3648Y103D02*
X3657Y103D01*
X3678Y103D02*
X3687Y103D01*
X3749Y103D02*
X3759Y103D01*
X3827Y103D02*
X3836Y103D01*
X3864Y103D02*
X3873Y103D01*
X3894Y103D02*
X3903Y103D01*
X3100Y102D02*
X3111Y102D01*
X3179Y102D02*
X3188Y102D01*
X3216Y102D02*
X3225Y102D01*
X3246Y102D02*
X3255Y102D01*
X3316Y102D02*
X3327Y102D01*
X3395Y102D02*
X3404Y102D01*
X3432Y102D02*
X3441Y102D01*
X3462Y102D02*
X3471Y102D01*
X3532Y102D02*
X3543Y102D01*
X3611Y102D02*
X3620Y102D01*
X3648Y102D02*
X3657Y102D01*
X3678Y102D02*
X3687Y102D01*
X3748Y102D02*
X3759Y102D01*
X3827Y102D02*
X3836Y102D01*
X3864Y102D02*
X3873Y102D01*
X3894Y102D02*
X3903Y102D01*
X3100Y101D02*
X3110Y101D01*
X3179Y101D02*
X3188Y101D01*
X3216Y101D02*
X3225Y101D01*
X3246Y101D02*
X3255Y101D01*
X3316Y101D02*
X3326Y101D01*
X3395Y101D02*
X3404Y101D01*
X3432Y101D02*
X3441Y101D01*
X3462Y101D02*
X3471Y101D01*
X3532Y101D02*
X3542Y101D01*
X3611Y101D02*
X3620Y101D01*
X3648Y101D02*
X3657Y101D01*
X3678Y101D02*
X3687Y101D01*
X3748Y101D02*
X3758Y101D01*
X3827Y101D02*
X3836Y101D01*
X3864Y101D02*
X3873Y101D01*
X3894Y101D02*
X3903Y101D01*
X3099Y100D02*
X3110Y100D01*
X3179Y100D02*
X3188Y100D01*
X3216Y100D02*
X3225Y100D01*
X3246Y100D02*
X3255Y100D01*
X3315Y100D02*
X3326Y100D01*
X3395Y100D02*
X3404Y100D01*
X3432Y100D02*
X3441Y100D01*
X3462Y100D02*
X3471Y100D01*
X3531Y100D02*
X3542Y100D01*
X3611Y100D02*
X3620Y100D01*
X3648Y100D02*
X3657Y100D01*
X3678Y100D02*
X3687Y100D01*
X3747Y100D02*
X3758Y100D01*
X3827Y100D02*
X3836Y100D01*
X3864Y100D02*
X3873Y100D01*
X3894Y100D02*
X3903Y100D01*
X3099Y99D02*
X3109Y99D01*
X3179Y99D02*
X3188Y99D01*
X3216Y99D02*
X3225Y99D01*
X3246Y99D02*
X3255Y99D01*
X3315Y99D02*
X3325Y99D01*
X3395Y99D02*
X3404Y99D01*
X3432Y99D02*
X3441Y99D01*
X3462Y99D02*
X3471Y99D01*
X3531Y99D02*
X3541Y99D01*
X3611Y99D02*
X3620Y99D01*
X3648Y99D02*
X3657Y99D01*
X3678Y99D02*
X3687Y99D01*
X3747Y99D02*
X3757Y99D01*
X3827Y99D02*
X3836Y99D01*
X3864Y99D02*
X3873Y99D01*
X3894Y99D02*
X3903Y99D01*
X3098Y98D02*
X3109Y98D01*
X3179Y98D02*
X3188Y98D01*
X3216Y98D02*
X3225Y98D01*
X3246Y98D02*
X3255Y98D01*
X3314Y98D02*
X3325Y98D01*
X3395Y98D02*
X3404Y98D01*
X3432Y98D02*
X3441Y98D01*
X3462Y98D02*
X3471Y98D01*
X3530Y98D02*
X3541Y98D01*
X3611Y98D02*
X3620Y98D01*
X3648Y98D02*
X3657Y98D01*
X3678Y98D02*
X3687Y98D01*
X3746Y98D02*
X3757Y98D01*
X3827Y98D02*
X3836Y98D01*
X3864Y98D02*
X3873Y98D01*
X3894Y98D02*
X3903Y98D01*
X3098Y97D02*
X3108Y97D01*
X3179Y97D02*
X3188Y97D01*
X3216Y97D02*
X3225Y97D01*
X3246Y97D02*
X3255Y97D01*
X3314Y97D02*
X3324Y97D01*
X3395Y97D02*
X3404Y97D01*
X3432Y97D02*
X3441Y97D01*
X3462Y97D02*
X3471Y97D01*
X3530Y97D02*
X3540Y97D01*
X3611Y97D02*
X3620Y97D01*
X3648Y97D02*
X3657Y97D01*
X3678Y97D02*
X3687Y97D01*
X3746Y97D02*
X3756Y97D01*
X3827Y97D02*
X3836Y97D01*
X3864Y97D02*
X3873Y97D01*
X3894Y97D02*
X3903Y97D01*
X3097Y96D02*
X3108Y96D01*
X3179Y96D02*
X3188Y96D01*
X3216Y96D02*
X3225Y96D01*
X3246Y96D02*
X3255Y96D01*
X3313Y96D02*
X3324Y96D01*
X3395Y96D02*
X3404Y96D01*
X3432Y96D02*
X3441Y96D01*
X3462Y96D02*
X3471Y96D01*
X3529Y96D02*
X3540Y96D01*
X3611Y96D02*
X3620Y96D01*
X3648Y96D02*
X3657Y96D01*
X3678Y96D02*
X3687Y96D01*
X3745Y96D02*
X3756Y96D01*
X3827Y96D02*
X3836Y96D01*
X3864Y96D02*
X3873Y96D01*
X3894Y96D02*
X3903Y96D01*
X3097Y95D02*
X3107Y95D01*
X3179Y95D02*
X3188Y95D01*
X3216Y95D02*
X3225Y95D01*
X3246Y95D02*
X3255Y95D01*
X3313Y95D02*
X3323Y95D01*
X3395Y95D02*
X3404Y95D01*
X3432Y95D02*
X3441Y95D01*
X3462Y95D02*
X3471Y95D01*
X3529Y95D02*
X3539Y95D01*
X3611Y95D02*
X3620Y95D01*
X3648Y95D02*
X3657Y95D01*
X3678Y95D02*
X3687Y95D01*
X3745Y95D02*
X3755Y95D01*
X3827Y95D02*
X3836Y95D01*
X3864Y95D02*
X3873Y95D01*
X3894Y95D02*
X3903Y95D01*
X3096Y94D02*
X3107Y94D01*
X3179Y94D02*
X3188Y94D01*
X3216Y94D02*
X3225Y94D01*
X3246Y94D02*
X3255Y94D01*
X3312Y94D02*
X3323Y94D01*
X3395Y94D02*
X3404Y94D01*
X3432Y94D02*
X3441Y94D01*
X3462Y94D02*
X3471Y94D01*
X3528Y94D02*
X3539Y94D01*
X3611Y94D02*
X3620Y94D01*
X3648Y94D02*
X3657Y94D01*
X3678Y94D02*
X3687Y94D01*
X3744Y94D02*
X3755Y94D01*
X3827Y94D02*
X3836Y94D01*
X3864Y94D02*
X3873Y94D01*
X3894Y94D02*
X3903Y94D01*
X3096Y93D02*
X3106Y93D01*
X3179Y93D02*
X3188Y93D01*
X3216Y93D02*
X3225Y93D01*
X3246Y93D02*
X3255Y93D01*
X3312Y93D02*
X3322Y93D01*
X3395Y93D02*
X3404Y93D01*
X3432Y93D02*
X3441Y93D01*
X3462Y93D02*
X3471Y93D01*
X3528Y93D02*
X3538Y93D01*
X3611Y93D02*
X3620Y93D01*
X3648Y93D02*
X3657Y93D01*
X3678Y93D02*
X3687Y93D01*
X3744Y93D02*
X3754Y93D01*
X3827Y93D02*
X3836Y93D01*
X3864Y93D02*
X3873Y93D01*
X3894Y93D02*
X3903Y93D01*
X3095Y92D02*
X3106Y92D01*
X3179Y92D02*
X3188Y92D01*
X3216Y92D02*
X3226Y92D01*
X3245Y92D02*
X3255Y92D01*
X3311Y92D02*
X3322Y92D01*
X3395Y92D02*
X3404Y92D01*
X3432Y92D02*
X3442Y92D01*
X3461Y92D02*
X3471Y92D01*
X3527Y92D02*
X3538Y92D01*
X3611Y92D02*
X3620Y92D01*
X3648Y92D02*
X3658Y92D01*
X3677Y92D02*
X3687Y92D01*
X3743Y92D02*
X3754Y92D01*
X3827Y92D02*
X3836Y92D01*
X3864Y92D02*
X3874Y92D01*
X3893Y92D02*
X3903Y92D01*
X3095Y91D02*
X3105Y91D01*
X3179Y91D02*
X3188Y91D01*
X3216Y91D02*
X3226Y91D01*
X3245Y91D02*
X3255Y91D01*
X3311Y91D02*
X3321Y91D01*
X3395Y91D02*
X3404Y91D01*
X3432Y91D02*
X3442Y91D01*
X3461Y91D02*
X3471Y91D01*
X3527Y91D02*
X3537Y91D01*
X3611Y91D02*
X3620Y91D01*
X3648Y91D02*
X3658Y91D01*
X3677Y91D02*
X3687Y91D01*
X3743Y91D02*
X3753Y91D01*
X3827Y91D02*
X3836Y91D01*
X3864Y91D02*
X3874Y91D01*
X3893Y91D02*
X3903Y91D01*
X3094Y90D02*
X3105Y90D01*
X3179Y90D02*
X3188Y90D01*
X3217Y90D02*
X3227Y90D01*
X3244Y90D02*
X3254Y90D01*
X3310Y90D02*
X3321Y90D01*
X3395Y90D02*
X3404Y90D01*
X3433Y90D02*
X3443Y90D01*
X3460Y90D02*
X3470Y90D01*
X3526Y90D02*
X3537Y90D01*
X3611Y90D02*
X3620Y90D01*
X3649Y90D02*
X3659Y90D01*
X3676Y90D02*
X3686Y90D01*
X3742Y90D02*
X3753Y90D01*
X3827Y90D02*
X3836Y90D01*
X3865Y90D02*
X3875Y90D01*
X3892Y90D02*
X3902Y90D01*
X3091Y89D02*
X3104Y89D01*
X3178Y89D02*
X3188Y89D01*
X3217Y89D02*
X3230Y89D01*
X3241Y89D02*
X3254Y89D01*
X3307Y89D02*
X3320Y89D01*
X3394Y89D02*
X3404Y89D01*
X3433Y89D02*
X3446Y89D01*
X3457Y89D02*
X3470Y89D01*
X3523Y89D02*
X3536Y89D01*
X3610Y89D02*
X3620Y89D01*
X3649Y89D02*
X3662Y89D01*
X3673Y89D02*
X3686Y89D01*
X3739Y89D02*
X3752Y89D01*
X3826Y89D02*
X3836Y89D01*
X3865Y89D02*
X3878Y89D01*
X3889Y89D02*
X3902Y89D01*
X3069Y88D02*
X3104Y88D01*
X3141Y88D02*
X3188Y88D01*
X3217Y88D02*
X3254Y88D01*
X3285Y88D02*
X3320Y88D01*
X3357Y88D02*
X3404Y88D01*
X3433Y88D02*
X3470Y88D01*
X3501Y88D02*
X3536Y88D01*
X3573Y88D02*
X3620Y88D01*
X3649Y88D02*
X3686Y88D01*
X3717Y88D02*
X3752Y88D01*
X3789Y88D02*
X3836Y88D01*
X3865Y88D02*
X3902Y88D01*
X3068Y87D02*
X3103Y87D01*
X3140Y87D02*
X3188Y87D01*
X3218Y87D02*
X3253Y87D01*
X3284Y87D02*
X3319Y87D01*
X3356Y87D02*
X3404Y87D01*
X3434Y87D02*
X3469Y87D01*
X3500Y87D02*
X3535Y87D01*
X3572Y87D02*
X3620Y87D01*
X3650Y87D02*
X3685Y87D01*
X3716Y87D02*
X3751Y87D01*
X3788Y87D02*
X3836Y87D01*
X3866Y87D02*
X3901Y87D01*
X3068Y86D02*
X3103Y86D01*
X3140Y86D02*
X3188Y86D01*
X3218Y86D02*
X3253Y86D01*
X3284Y86D02*
X3319Y86D01*
X3356Y86D02*
X3404Y86D01*
X3434Y86D02*
X3469Y86D01*
X3500Y86D02*
X3535Y86D01*
X3572Y86D02*
X3620Y86D01*
X3650Y86D02*
X3685Y86D01*
X3716Y86D02*
X3750Y86D01*
X3788Y86D02*
X3836Y86D01*
X3866Y86D02*
X3901Y86D01*
X3067Y85D02*
X3102Y85D01*
X3139Y85D02*
X3188Y85D01*
X3219Y85D02*
X3252Y85D01*
X3283Y85D02*
X3318Y85D01*
X3355Y85D02*
X3404Y85D01*
X3435Y85D02*
X3468Y85D01*
X3499Y85D02*
X3534Y85D01*
X3571Y85D02*
X3620Y85D01*
X3651Y85D02*
X3684Y85D01*
X3715Y85D02*
X3750Y85D01*
X3787Y85D02*
X3836Y85D01*
X3867Y85D02*
X3900Y85D01*
X3067Y84D02*
X3101Y84D01*
X3139Y84D02*
X3188Y84D01*
X3220Y84D02*
X3251Y84D01*
X3283Y84D02*
X3317Y84D01*
X3355Y84D02*
X3404Y84D01*
X3436Y84D02*
X3467Y84D01*
X3499Y84D02*
X3533Y84D01*
X3571Y84D02*
X3620Y84D01*
X3652Y84D02*
X3683Y84D01*
X3715Y84D02*
X3749Y84D01*
X3787Y84D02*
X3836Y84D01*
X3868Y84D02*
X3899Y84D01*
X3067Y83D02*
X3100Y83D01*
X3139Y83D02*
X3188Y83D01*
X3221Y83D02*
X3250Y83D01*
X3283Y83D02*
X3316Y83D01*
X3355Y83D02*
X3404Y83D01*
X3437Y83D02*
X3466Y83D01*
X3499Y83D02*
X3532Y83D01*
X3571Y83D02*
X3620Y83D01*
X3653Y83D02*
X3682Y83D01*
X3715Y83D02*
X3748Y83D01*
X3787Y83D02*
X3836Y83D01*
X3869Y83D02*
X3898Y83D01*
X3068Y82D02*
X3099Y82D01*
X3140Y82D02*
X3188Y82D01*
X3222Y82D02*
X3249Y82D01*
X3284Y82D02*
X3315Y82D01*
X3355Y82D02*
X3404Y82D01*
X3438Y82D02*
X3465Y82D01*
X3499Y82D02*
X3531Y82D01*
X3571Y82D02*
X3620Y82D01*
X3654Y82D02*
X3681Y82D01*
X3715Y82D02*
X3747Y82D01*
X3787Y82D02*
X3836Y82D01*
X3870Y82D02*
X3897Y82D01*
X3068Y81D02*
X3097Y81D01*
X3140Y81D02*
X3188Y81D01*
X3224Y81D02*
X3247Y81D01*
X3284Y81D02*
X3313Y81D01*
X3356Y81D02*
X3404Y81D01*
X3440Y81D02*
X3463Y81D01*
X3500Y81D02*
X3529Y81D01*
X3572Y81D02*
X3620Y81D01*
X3656Y81D02*
X3679Y81D01*
X3716Y81D02*
X3745Y81D01*
X3788Y81D02*
X3836Y81D01*
X3872Y81D02*
X3895Y81D01*
X3069Y80D02*
X3095Y80D01*
X3141Y80D02*
X3188Y80D01*
X3225Y80D02*
X3246Y80D01*
X3285Y80D02*
X3311Y80D01*
X3357Y80D02*
X3404Y80D01*
X3441Y80D02*
X3462Y80D01*
X3501Y80D02*
X3527Y80D01*
X3573Y80D02*
X3620Y80D01*
X3657Y80D02*
X3678Y80D01*
X3717Y80D02*
X3743Y80D01*
X3789Y80D02*
X3836Y80D01*
X3873Y80D02*
X3893Y80D01*
X3071Y79D02*
X3092Y79D01*
X3143Y79D02*
X3188Y79D01*
X3230Y79D02*
X3241Y79D01*
X3287Y79D02*
X3308Y79D01*
X3359Y79D02*
X3404Y79D01*
X3446Y79D02*
X3457Y79D01*
X3503Y79D02*
X3524Y79D01*
X3575Y79D02*
X3620Y79D01*
X3662Y79D02*
X3673Y79D01*
X3719Y79D02*
X3740Y79D01*
X3791Y79D02*
X3836Y79D01*
X3878Y79D02*
X3889Y79D01*
D02*
G04 End of Silk0*
M02*