; NON-PLATED HOLES START AT T1
; THROUGH (PLATED) HOLES START AT T100
M48
INCH
T1C0.125000
T2C0.065278
T3C0.158908
T4C0.015748
T5C0.125984
T100C0.015748
T101C0.036972
T102C0.038000
%
T1
X004339Y026787
X012589Y026787
X009453Y026772
X017703Y026772
T2
X039706Y018537
X024706Y026037
X020713Y003537
X028213Y011037
X032206Y003537
X024706Y018537
X028213Y003537
X028213Y018537
X035713Y011037
X039706Y026037
X039706Y003537
X032206Y011037
X039706Y011037
X032206Y026037
X035713Y003537
X024706Y011037
X035713Y018537
X032206Y018537
X024706Y003537
X020713Y018537
X035713Y026037
X028213Y026037
X020713Y011037
X020713Y026037
T3
X030212Y011037
X030212Y026037
X022712Y026037
X037712Y018537
X037712Y003537
X030212Y018537
X037712Y011037
X037712Y026037
X022712Y003537
X022712Y011037
X030212Y003537
X022712Y018537
T4
X015468Y005537
X005218Y022031
X015468Y004542
X011959Y009781
X010714Y019287
X011215Y016545
X012215Y008783
X016719Y003532
X007215Y027778
X010717Y023036
X011460Y014781
X010214Y019287
X016719Y004542
X013212Y007530
X007457Y018784
X015468Y003532
X011215Y015534
X007970Y019539
X012714Y006789
X010970Y027778
X008214Y018287
X006460Y020793
X006958Y019781
X003717Y021531
X015210Y011032
X010713Y021289
X015468Y006035
X012457Y007786
X015468Y002537
X015210Y014037
X013212Y008541
X008215Y018792
X008205Y030536
X016462Y002537
X011717Y010792
X015967Y022789
X016719Y005537
X013212Y010536
X013212Y006533
X010964Y020787
X013212Y009539
X009968Y030537
X008466Y023282
X011215Y017540
X011215Y018534
X016463Y006282
X014715Y022782
X010464Y018787
X010462Y020787
T5
X000964Y001037
X041714Y031787
X041714Y001037
X000964Y031787
T100
X018713Y014033
X019459Y020046
X034471Y027536
X026953Y011533
X009714Y018787
X019459Y019026
X034476Y012538
X026951Y027539
X034463Y020046
X019468Y027538
X008464Y020537
X026953Y012538
X034476Y011533
X026951Y026523
X019475Y026521
X034471Y026539
X026973Y020046
X026973Y019026
X009964Y020537
X019456Y012538
X034463Y019026
X035717Y014787
X019456Y011533
X028220Y014786
T101
X038710Y013035
X028714Y019537
X021214Y004537
X028714Y012037
X023710Y013035
X036214Y019537
X038710Y005535
X038710Y020535
X038710Y028035
X021214Y027037
X036214Y027037
X036214Y012037
X023710Y028035
X036214Y004537
X028714Y027037
X028714Y004537
X031210Y020535
X031210Y028035
X021214Y019537
X021214Y012037
X031210Y013035
X023710Y020535
X023710Y005535
X031210Y005535
T102
X014214Y016538
X016214Y029787
X005209Y001537
X007964Y029787
X014214Y013537
X014218Y023847
X005209Y006537
X014214Y000537
X014214Y018538
X014214Y002537
X005209Y017538
X007968Y023847
X002964Y031037
X006968Y023847
X014214Y005537
X014214Y011537
X005964Y029787
X002964Y017037
X014214Y029787
X005209Y003537
X002964Y016037
X014214Y001537
X014214Y009537
X002964Y012037
X014214Y017538
X014214Y003537
X014214Y015538
X002964Y010037
X002964Y029037
X002964Y020037
X002964Y007037
X015218Y023847
X002964Y008037
X005209Y012537
X014214Y006537
X002964Y030037
X014214Y008537
X005968Y023847
X002964Y028037
X002964Y023037
X014214Y019538
X005209Y007537
X005209Y016538
X002964Y015037
X002964Y009037
X014214Y014537
X005209Y002537
X002964Y022037
X005209Y009537
X002964Y019037
X002964Y027037
X002964Y025037
X005209Y018538
X005209Y011537
X002964Y026037
X005209Y019538
X005209Y008537
X014214Y010537
X005209Y014537
X005209Y015538
X014214Y020538
X016218Y023847
X002964Y021037
X002964Y024037
X002964Y014037
X005209Y005537
X002964Y011037
X002964Y032037
X014214Y007537
X005209Y010537
X002964Y018037
X014214Y004537
X005209Y013537
X005209Y004537
X005209Y020538
X002964Y013037
X014214Y012537
X005209Y000537
T00
M30
